<?xml version="1.0" encoding="utf-8"?>
<svg xmlns="http://www.w3.org/2000/svg" xmlns:xlink="http://www.w3.org/1999/xlink" width="600" height="400" viewBox="0 0 2400 1600">
<defs>
  <clipPath id="clip460">
    <rect x="0" y="0" width="2400" height="1600"/>
  </clipPath>
</defs>
<path clip-path="url(#clip460)" d="M0 1600 L2400 1600 L2400 0 L0 0  Z" fill="#ffffff" fill-rule="evenodd" fill-opacity="1"/>
<defs>
  <clipPath id="clip461">
    <rect x="480" y="0" width="1681" height="1600"/>
  </clipPath>
</defs>
<path clip-path="url(#clip460)" d="M249.542 1423.18 L2352.76 1423.18 L2352.76 47.2441 L249.542 47.2441  Z" fill="#ffffff" fill-rule="evenodd" fill-opacity="1"/>
<defs>
  <clipPath id="clip462">
    <rect x="249" y="47" width="2104" height="1377"/>
  </clipPath>
</defs>
<polyline clip-path="url(#clip462)" style="stroke:#000000; stroke-linecap:round; stroke-linejoin:round; stroke-width:2; stroke-opacity:0.1; fill:none" points="309.067,1423.18 309.067,47.2441 "/>
<polyline clip-path="url(#clip462)" style="stroke:#000000; stroke-linecap:round; stroke-linejoin:round; stroke-width:2; stroke-opacity:0.1; fill:none" points="805.108,1423.18 805.108,47.2441 "/>
<polyline clip-path="url(#clip462)" style="stroke:#000000; stroke-linecap:round; stroke-linejoin:round; stroke-width:2; stroke-opacity:0.1; fill:none" points="1301.15,1423.18 1301.15,47.2441 "/>
<polyline clip-path="url(#clip462)" style="stroke:#000000; stroke-linecap:round; stroke-linejoin:round; stroke-width:2; stroke-opacity:0.1; fill:none" points="1797.19,1423.18 1797.19,47.2441 "/>
<polyline clip-path="url(#clip462)" style="stroke:#000000; stroke-linecap:round; stroke-linejoin:round; stroke-width:2; stroke-opacity:0.1; fill:none" points="2293.23,1423.18 2293.23,47.2441 "/>
<polyline clip-path="url(#clip460)" style="stroke:#000000; stroke-linecap:round; stroke-linejoin:round; stroke-width:4; stroke-opacity:1; fill:none" points="249.542,1423.18 2352.76,1423.18 "/>
<polyline clip-path="url(#clip460)" style="stroke:#000000; stroke-linecap:round; stroke-linejoin:round; stroke-width:4; stroke-opacity:1; fill:none" points="309.067,1423.18 309.067,1404.28 "/>
<polyline clip-path="url(#clip460)" style="stroke:#000000; stroke-linecap:round; stroke-linejoin:round; stroke-width:4; stroke-opacity:1; fill:none" points="805.108,1423.18 805.108,1404.28 "/>
<polyline clip-path="url(#clip460)" style="stroke:#000000; stroke-linecap:round; stroke-linejoin:round; stroke-width:4; stroke-opacity:1; fill:none" points="1301.15,1423.18 1301.15,1404.28 "/>
<polyline clip-path="url(#clip460)" style="stroke:#000000; stroke-linecap:round; stroke-linejoin:round; stroke-width:4; stroke-opacity:1; fill:none" points="1797.19,1423.18 1797.19,1404.28 "/>
<polyline clip-path="url(#clip460)" style="stroke:#000000; stroke-linecap:round; stroke-linejoin:round; stroke-width:4; stroke-opacity:1; fill:none" points="2293.23,1423.18 2293.23,1404.28 "/>
<path clip-path="url(#clip460)" d="M286.451 1454.1 Q282.84 1454.1 281.012 1457.66 Q279.206 1461.2 279.206 1468.33 Q279.206 1475.44 281.012 1479.01 Q282.84 1482.55 286.451 1482.55 Q290.086 1482.55 291.891 1479.01 Q293.72 1475.44 293.72 1468.33 Q293.72 1461.2 291.891 1457.66 Q290.086 1454.1 286.451 1454.1 M286.451 1450.39 Q292.261 1450.39 295.317 1455 Q298.396 1459.58 298.396 1468.33 Q298.396 1477.06 295.317 1481.67 Q292.261 1486.25 286.451 1486.25 Q280.641 1486.25 277.562 1481.67 Q274.507 1477.06 274.507 1468.33 Q274.507 1459.58 277.562 1455 Q280.641 1450.39 286.451 1450.39 Z" fill="#000000" fill-rule="nonzero" fill-opacity="1" /><path clip-path="url(#clip460)" d="M306.613 1479.7 L311.497 1479.7 L311.497 1485.58 L306.613 1485.58 L306.613 1479.7 Z" fill="#000000" fill-rule="nonzero" fill-opacity="1" /><path clip-path="url(#clip460)" d="M331.683 1454.1 Q328.071 1454.1 326.243 1457.66 Q324.437 1461.2 324.437 1468.33 Q324.437 1475.44 326.243 1479.01 Q328.071 1482.55 331.683 1482.55 Q335.317 1482.55 337.122 1479.01 Q338.951 1475.44 338.951 1468.33 Q338.951 1461.2 337.122 1457.66 Q335.317 1454.1 331.683 1454.1 M331.683 1450.39 Q337.493 1450.39 340.548 1455 Q343.627 1459.58 343.627 1468.33 Q343.627 1477.06 340.548 1481.67 Q337.493 1486.25 331.683 1486.25 Q325.872 1486.25 322.794 1481.67 Q319.738 1477.06 319.738 1468.33 Q319.738 1459.58 322.794 1455 Q325.872 1450.39 331.683 1450.39 Z" fill="#000000" fill-rule="nonzero" fill-opacity="1" /><path clip-path="url(#clip460)" d="M776.844 1481.64 L793.164 1481.64 L793.164 1485.58 L771.219 1485.58 L771.219 1481.64 Q773.881 1478.89 778.465 1474.26 Q783.071 1469.61 784.252 1468.27 Q786.497 1465.74 787.377 1464.01 Q788.279 1462.25 788.279 1460.56 Q788.279 1457.8 786.335 1456.07 Q784.414 1454.33 781.312 1454.33 Q779.113 1454.33 776.659 1455.09 Q774.228 1455.86 771.451 1457.41 L771.451 1452.69 Q774.275 1451.55 776.728 1450.97 Q779.182 1450.39 781.219 1450.39 Q786.59 1450.39 789.784 1453.08 Q792.978 1455.77 792.978 1460.26 Q792.978 1462.39 792.168 1464.31 Q791.381 1466.2 789.275 1468.8 Q788.696 1469.47 785.594 1472.69 Q782.492 1475.88 776.844 1481.64 Z" fill="#000000" fill-rule="nonzero" fill-opacity="1" /><path clip-path="url(#clip460)" d="M802.978 1479.7 L807.863 1479.7 L807.863 1485.58 L802.978 1485.58 L802.978 1479.7 Z" fill="#000000" fill-rule="nonzero" fill-opacity="1" /><path clip-path="url(#clip460)" d="M818.094 1451.02 L836.45 1451.02 L836.45 1454.96 L822.376 1454.96 L822.376 1463.43 Q823.395 1463.08 824.413 1462.92 Q825.432 1462.73 826.45 1462.73 Q832.237 1462.73 835.617 1465.9 Q838.997 1469.08 838.997 1474.49 Q838.997 1480.07 835.524 1483.17 Q832.052 1486.25 825.733 1486.25 Q823.557 1486.25 821.288 1485.88 Q819.043 1485.51 816.636 1484.77 L816.636 1480.07 Q818.719 1481.2 820.941 1481.76 Q823.163 1482.32 825.64 1482.32 Q829.645 1482.32 831.983 1480.21 Q834.321 1478.1 834.321 1474.49 Q834.321 1470.88 831.983 1468.77 Q829.645 1466.67 825.64 1466.67 Q823.765 1466.67 821.89 1467.08 Q820.038 1467.5 818.094 1468.38 L818.094 1451.02 Z" fill="#000000" fill-rule="nonzero" fill-opacity="1" /><path clip-path="url(#clip460)" d="M1268.31 1451.02 L1286.67 1451.02 L1286.67 1454.96 L1272.6 1454.96 L1272.6 1463.43 Q1273.61 1463.08 1274.63 1462.92 Q1275.65 1462.73 1276.67 1462.73 Q1282.46 1462.73 1285.84 1465.9 Q1289.22 1469.08 1289.22 1474.49 Q1289.22 1480.07 1285.74 1483.17 Q1282.27 1486.25 1275.95 1486.25 Q1273.78 1486.25 1271.51 1485.88 Q1269.26 1485.51 1266.86 1484.77 L1266.86 1480.07 Q1268.94 1481.2 1271.16 1481.76 Q1273.38 1482.32 1275.86 1482.32 Q1279.86 1482.32 1282.2 1480.21 Q1284.54 1478.1 1284.54 1474.49 Q1284.54 1470.88 1282.2 1468.77 Q1279.86 1466.67 1275.86 1466.67 Q1273.98 1466.67 1272.11 1467.08 Q1270.26 1467.5 1268.31 1468.38 L1268.31 1451.02 Z" fill="#000000" fill-rule="nonzero" fill-opacity="1" /><path clip-path="url(#clip460)" d="M1298.43 1479.7 L1303.31 1479.7 L1303.31 1485.58 L1298.43 1485.58 L1298.43 1479.7 Z" fill="#000000" fill-rule="nonzero" fill-opacity="1" /><path clip-path="url(#clip460)" d="M1323.5 1454.1 Q1319.89 1454.1 1318.06 1457.66 Q1316.25 1461.2 1316.25 1468.33 Q1316.25 1475.44 1318.06 1479.01 Q1319.89 1482.55 1323.5 1482.55 Q1327.13 1482.55 1328.94 1479.01 Q1330.77 1475.44 1330.77 1468.33 Q1330.77 1461.2 1328.94 1457.66 Q1327.13 1454.1 1323.5 1454.1 M1323.5 1450.39 Q1329.31 1450.39 1332.36 1455 Q1335.44 1459.58 1335.44 1468.33 Q1335.44 1477.06 1332.36 1481.67 Q1329.31 1486.25 1323.5 1486.25 Q1317.69 1486.25 1314.61 1481.67 Q1311.55 1477.06 1311.55 1468.33 Q1311.55 1459.58 1314.61 1455 Q1317.69 1450.39 1323.5 1450.39 Z" fill="#000000" fill-rule="nonzero" fill-opacity="1" /><path clip-path="url(#clip460)" d="M1763.51 1451.02 L1785.73 1451.02 L1785.73 1453.01 L1773.19 1485.58 L1768.3 1485.58 L1780.11 1454.96 L1763.51 1454.96 L1763.51 1451.02 Z" fill="#000000" fill-rule="nonzero" fill-opacity="1" /><path clip-path="url(#clip460)" d="M1794.85 1479.7 L1799.74 1479.7 L1799.74 1485.58 L1794.85 1485.58 L1794.85 1479.7 Z" fill="#000000" fill-rule="nonzero" fill-opacity="1" /><path clip-path="url(#clip460)" d="M1809.97 1451.02 L1828.32 1451.02 L1828.32 1454.96 L1814.25 1454.96 L1814.25 1463.43 Q1815.27 1463.08 1816.29 1462.92 Q1817.31 1462.73 1818.32 1462.73 Q1824.11 1462.73 1827.49 1465.9 Q1830.87 1469.08 1830.87 1474.49 Q1830.87 1480.07 1827.4 1483.17 Q1823.93 1486.25 1817.61 1486.25 Q1815.43 1486.25 1813.16 1485.88 Q1810.92 1485.51 1808.51 1484.77 L1808.51 1480.07 Q1810.59 1481.2 1812.81 1481.76 Q1815.04 1482.32 1817.51 1482.32 Q1821.52 1482.32 1823.86 1480.21 Q1826.19 1478.1 1826.19 1474.49 Q1826.19 1470.88 1823.86 1468.77 Q1821.52 1466.67 1817.51 1466.67 Q1815.64 1466.67 1813.76 1467.08 Q1811.91 1467.5 1809.97 1468.38 L1809.97 1451.02 Z" fill="#000000" fill-rule="nonzero" fill-opacity="1" /><path clip-path="url(#clip460)" d="M2245.3 1481.64 L2252.94 1481.64 L2252.94 1455.28 L2244.63 1456.95 L2244.63 1452.69 L2252.9 1451.02 L2257.57 1451.02 L2257.57 1481.64 L2265.21 1481.64 L2265.21 1485.58 L2245.3 1485.58 L2245.3 1481.64 Z" fill="#000000" fill-rule="nonzero" fill-opacity="1" /><path clip-path="url(#clip460)" d="M2284.65 1454.1 Q2281.04 1454.1 2279.21 1457.66 Q2277.41 1461.2 2277.41 1468.33 Q2277.41 1475.44 2279.21 1479.01 Q2281.04 1482.55 2284.65 1482.55 Q2288.29 1482.55 2290.09 1479.01 Q2291.92 1475.44 2291.92 1468.33 Q2291.92 1461.2 2290.09 1457.66 Q2288.29 1454.1 2284.65 1454.1 M2284.65 1450.39 Q2290.46 1450.39 2293.52 1455 Q2296.6 1459.58 2296.6 1468.33 Q2296.6 1477.06 2293.52 1481.67 Q2290.46 1486.25 2284.65 1486.25 Q2278.84 1486.25 2275.77 1481.67 Q2272.71 1477.06 2272.71 1468.33 Q2272.71 1459.58 2275.77 1455 Q2278.84 1450.39 2284.65 1450.39 Z" fill="#000000" fill-rule="nonzero" fill-opacity="1" /><path clip-path="url(#clip460)" d="M2304.82 1479.7 L2309.7 1479.7 L2309.7 1485.58 L2304.82 1485.58 L2304.82 1479.7 Z" fill="#000000" fill-rule="nonzero" fill-opacity="1" /><path clip-path="url(#clip460)" d="M2329.89 1454.1 Q2326.27 1454.1 2324.45 1457.66 Q2322.64 1461.2 2322.64 1468.33 Q2322.64 1475.44 2324.45 1479.01 Q2326.27 1482.55 2329.89 1482.55 Q2333.52 1482.55 2335.33 1479.01 Q2337.15 1475.44 2337.15 1468.33 Q2337.15 1461.2 2335.33 1457.66 Q2333.52 1454.1 2329.89 1454.1 M2329.89 1450.39 Q2335.7 1450.39 2338.75 1455 Q2341.83 1459.58 2341.83 1468.33 Q2341.83 1477.06 2338.75 1481.67 Q2335.7 1486.25 2329.89 1486.25 Q2324.08 1486.25 2321 1481.67 Q2317.94 1477.06 2317.94 1468.33 Q2317.94 1459.58 2321 1455 Q2324.08 1450.39 2329.89 1450.39 Z" fill="#000000" fill-rule="nonzero" fill-opacity="1" /><path clip-path="url(#clip460)" d="M1281.05 1520.52 L1321.25 1520.52 L1321.25 1525.93 L1304.38 1525.93 L1304.38 1568.04 L1297.92 1568.04 L1297.92 1525.93 L1281.05 1525.93 L1281.05 1520.52 Z" fill="#000000" fill-rule="nonzero" fill-opacity="1" /><polyline clip-path="url(#clip462)" style="stroke:#000000; stroke-linecap:round; stroke-linejoin:round; stroke-width:2; stroke-opacity:0.1; fill:none" points="249.542,1401.35 2352.76,1401.35 "/>
<polyline clip-path="url(#clip462)" style="stroke:#000000; stroke-linecap:round; stroke-linejoin:round; stroke-width:2; stroke-opacity:0.1; fill:none" points="249.542,1072.56 2352.76,1072.56 "/>
<polyline clip-path="url(#clip462)" style="stroke:#000000; stroke-linecap:round; stroke-linejoin:round; stroke-width:2; stroke-opacity:0.1; fill:none" points="249.542,743.766 2352.76,743.766 "/>
<polyline clip-path="url(#clip462)" style="stroke:#000000; stroke-linecap:round; stroke-linejoin:round; stroke-width:2; stroke-opacity:0.1; fill:none" points="249.542,414.976 2352.76,414.976 "/>
<polyline clip-path="url(#clip462)" style="stroke:#000000; stroke-linecap:round; stroke-linejoin:round; stroke-width:2; stroke-opacity:0.1; fill:none" points="249.542,86.1857 2352.76,86.1857 "/>
<polyline clip-path="url(#clip460)" style="stroke:#000000; stroke-linecap:round; stroke-linejoin:round; stroke-width:4; stroke-opacity:1; fill:none" points="249.542,1423.18 249.542,47.2441 "/>
<polyline clip-path="url(#clip460)" style="stroke:#000000; stroke-linecap:round; stroke-linejoin:round; stroke-width:4; stroke-opacity:1; fill:none" points="249.542,1401.35 268.44,1401.35 "/>
<polyline clip-path="url(#clip460)" style="stroke:#000000; stroke-linecap:round; stroke-linejoin:round; stroke-width:4; stroke-opacity:1; fill:none" points="249.542,1072.56 268.44,1072.56 "/>
<polyline clip-path="url(#clip460)" style="stroke:#000000; stroke-linecap:round; stroke-linejoin:round; stroke-width:4; stroke-opacity:1; fill:none" points="249.542,743.766 268.44,743.766 "/>
<polyline clip-path="url(#clip460)" style="stroke:#000000; stroke-linecap:round; stroke-linejoin:round; stroke-width:4; stroke-opacity:1; fill:none" points="249.542,414.976 268.44,414.976 "/>
<polyline clip-path="url(#clip460)" style="stroke:#000000; stroke-linecap:round; stroke-linejoin:round; stroke-width:4; stroke-opacity:1; fill:none" points="249.542,86.1857 268.44,86.1857 "/>
<path clip-path="url(#clip460)" d="M126.205 1387.14 Q122.593 1387.14 120.765 1390.71 Q118.959 1394.25 118.959 1401.38 Q118.959 1408.49 120.765 1412.05 Q122.593 1415.59 126.205 1415.59 Q129.839 1415.59 131.644 1412.05 Q133.473 1408.49 133.473 1401.38 Q133.473 1394.25 131.644 1390.71 Q129.839 1387.14 126.205 1387.14 M126.205 1383.44 Q132.015 1383.44 135.07 1388.05 Q138.149 1392.63 138.149 1401.38 Q138.149 1410.11 135.07 1414.71 Q132.015 1419.3 126.205 1419.3 Q120.394 1419.3 117.316 1414.71 Q114.26 1410.11 114.26 1401.38 Q114.26 1392.63 117.316 1388.05 Q120.394 1383.44 126.205 1383.44 Z" fill="#000000" fill-rule="nonzero" fill-opacity="1" /><path clip-path="url(#clip460)" d="M146.366 1412.75 L151.251 1412.75 L151.251 1418.63 L146.366 1418.63 L146.366 1412.75 Z" fill="#000000" fill-rule="nonzero" fill-opacity="1" /><path clip-path="url(#clip460)" d="M171.436 1387.14 Q167.825 1387.14 165.996 1390.71 Q164.19 1394.25 164.19 1401.38 Q164.19 1408.49 165.996 1412.05 Q167.825 1415.59 171.436 1415.59 Q175.07 1415.59 176.876 1412.05 Q178.704 1408.49 178.704 1401.38 Q178.704 1394.25 176.876 1390.71 Q175.07 1387.14 171.436 1387.14 M171.436 1383.44 Q177.246 1383.44 180.301 1388.05 Q183.38 1392.63 183.38 1401.38 Q183.38 1410.11 180.301 1414.71 Q177.246 1419.3 171.436 1419.3 Q165.626 1419.3 162.547 1414.71 Q159.491 1410.11 159.491 1401.38 Q159.491 1392.63 162.547 1388.05 Q165.626 1383.44 171.436 1383.44 Z" fill="#000000" fill-rule="nonzero" fill-opacity="1" /><path clip-path="url(#clip460)" d="M201.598 1387.14 Q197.987 1387.14 196.158 1390.71 Q194.352 1394.25 194.352 1401.38 Q194.352 1408.49 196.158 1412.05 Q197.987 1415.59 201.598 1415.59 Q205.232 1415.59 207.037 1412.05 Q208.866 1408.49 208.866 1401.38 Q208.866 1394.25 207.037 1390.71 Q205.232 1387.14 201.598 1387.14 M201.598 1383.44 Q207.408 1383.44 210.463 1388.05 Q213.542 1392.63 213.542 1401.38 Q213.542 1410.11 210.463 1414.71 Q207.408 1419.3 201.598 1419.3 Q195.787 1419.3 192.709 1414.71 Q189.653 1410.11 189.653 1401.38 Q189.653 1392.63 192.709 1388.05 Q195.787 1383.44 201.598 1383.44 Z" fill="#000000" fill-rule="nonzero" fill-opacity="1" /><path clip-path="url(#clip460)" d="M127.2 1058.35 Q123.589 1058.35 121.76 1061.92 Q119.955 1065.46 119.955 1072.59 Q119.955 1079.7 121.76 1083.26 Q123.589 1086.8 127.2 1086.8 Q130.834 1086.8 132.64 1083.26 Q134.468 1079.7 134.468 1072.59 Q134.468 1065.46 132.64 1061.92 Q130.834 1058.35 127.2 1058.35 M127.2 1054.65 Q133.01 1054.65 136.066 1059.26 Q139.144 1063.84 139.144 1072.59 Q139.144 1081.32 136.066 1085.92 Q133.01 1090.51 127.2 1090.51 Q121.39 1090.51 118.311 1085.92 Q115.256 1081.32 115.256 1072.59 Q115.256 1063.84 118.311 1059.26 Q121.39 1054.65 127.2 1054.65 Z" fill="#000000" fill-rule="nonzero" fill-opacity="1" /><path clip-path="url(#clip460)" d="M147.362 1083.96 L152.246 1083.96 L152.246 1089.84 L147.362 1089.84 L147.362 1083.96 Z" fill="#000000" fill-rule="nonzero" fill-opacity="1" /><path clip-path="url(#clip460)" d="M166.459 1085.9 L182.778 1085.9 L182.778 1089.84 L160.834 1089.84 L160.834 1085.9 Q163.496 1083.15 168.079 1078.52 Q172.686 1073.86 173.866 1072.52 Q176.112 1070 176.991 1068.26 Q177.894 1066.5 177.894 1064.81 Q177.894 1062.06 175.95 1060.32 Q174.028 1058.59 170.927 1058.59 Q168.727 1058.59 166.274 1059.35 Q163.843 1060.11 161.065 1061.66 L161.065 1056.94 Q163.89 1055.81 166.343 1055.23 Q168.797 1054.65 170.834 1054.65 Q176.204 1054.65 179.399 1057.34 Q182.593 1060.02 182.593 1064.51 Q182.593 1066.64 181.783 1068.56 Q180.996 1070.46 178.889 1073.05 Q178.311 1073.72 175.209 1076.94 Q172.107 1080.14 166.459 1085.9 Z" fill="#000000" fill-rule="nonzero" fill-opacity="1" /><path clip-path="url(#clip460)" d="M192.639 1055.28 L210.996 1055.28 L210.996 1059.21 L196.922 1059.21 L196.922 1067.68 Q197.94 1067.34 198.959 1067.17 Q199.977 1066.99 200.996 1066.99 Q206.783 1066.99 210.162 1070.16 Q213.542 1073.33 213.542 1078.75 Q213.542 1084.33 210.07 1087.43 Q206.598 1090.51 200.278 1090.51 Q198.102 1090.51 195.834 1090.14 Q193.588 1089.77 191.181 1089.03 L191.181 1084.33 Q193.264 1085.46 195.487 1086.02 Q197.709 1086.57 200.186 1086.57 Q204.19 1086.57 206.528 1084.47 Q208.866 1082.36 208.866 1078.75 Q208.866 1075.14 206.528 1073.03 Q204.19 1070.92 200.186 1070.92 Q198.311 1070.92 196.436 1071.34 Q194.584 1071.76 192.639 1072.64 L192.639 1055.28 Z" fill="#000000" fill-rule="nonzero" fill-opacity="1" /><path clip-path="url(#clip460)" d="M126.205 729.564 Q122.593 729.564 120.765 733.129 Q118.959 736.671 118.959 743.8 Q118.959 750.907 120.765 754.472 Q122.593 758.013 126.205 758.013 Q129.839 758.013 131.644 754.472 Q133.473 750.907 133.473 743.8 Q133.473 736.671 131.644 733.129 Q129.839 729.564 126.205 729.564 M126.205 725.861 Q132.015 725.861 135.07 730.467 Q138.149 735.051 138.149 743.8 Q138.149 752.527 135.07 757.134 Q132.015 761.717 126.205 761.717 Q120.394 761.717 117.316 757.134 Q114.26 752.527 114.26 743.8 Q114.26 735.051 117.316 730.467 Q120.394 725.861 126.205 725.861 Z" fill="#000000" fill-rule="nonzero" fill-opacity="1" /><path clip-path="url(#clip460)" d="M146.366 755.166 L151.251 755.166 L151.251 761.046 L146.366 761.046 L146.366 755.166 Z" fill="#000000" fill-rule="nonzero" fill-opacity="1" /><path clip-path="url(#clip460)" d="M161.482 726.486 L179.839 726.486 L179.839 730.421 L165.765 730.421 L165.765 738.893 Q166.783 738.546 167.802 738.384 Q168.82 738.199 169.839 738.199 Q175.626 738.199 179.005 741.37 Q182.385 744.541 182.385 749.958 Q182.385 755.537 178.913 758.638 Q175.44 761.717 169.121 761.717 Q166.945 761.717 164.677 761.347 Q162.431 760.976 160.024 760.236 L160.024 755.537 Q162.107 756.671 164.329 757.226 Q166.552 757.782 169.028 757.782 Q173.033 757.782 175.371 755.675 Q177.709 753.569 177.709 749.958 Q177.709 746.347 175.371 744.24 Q173.033 742.134 169.028 742.134 Q167.153 742.134 165.278 742.55 Q163.427 742.967 161.482 743.847 L161.482 726.486 Z" fill="#000000" fill-rule="nonzero" fill-opacity="1" /><path clip-path="url(#clip460)" d="M201.598 729.564 Q197.987 729.564 196.158 733.129 Q194.352 736.671 194.352 743.8 Q194.352 750.907 196.158 754.472 Q197.987 758.013 201.598 758.013 Q205.232 758.013 207.037 754.472 Q208.866 750.907 208.866 743.8 Q208.866 736.671 207.037 733.129 Q205.232 729.564 201.598 729.564 M201.598 725.861 Q207.408 725.861 210.463 730.467 Q213.542 735.051 213.542 743.8 Q213.542 752.527 210.463 757.134 Q207.408 761.717 201.598 761.717 Q195.787 761.717 192.709 757.134 Q189.653 752.527 189.653 743.8 Q189.653 735.051 192.709 730.467 Q195.787 725.861 201.598 725.861 Z" fill="#000000" fill-rule="nonzero" fill-opacity="1" /><path clip-path="url(#clip460)" d="M127.2 400.774 Q123.589 400.774 121.76 404.339 Q119.955 407.881 119.955 415.01 Q119.955 422.117 121.76 425.682 Q123.589 429.223 127.2 429.223 Q130.834 429.223 132.64 425.682 Q134.468 422.117 134.468 415.01 Q134.468 407.881 132.64 404.339 Q130.834 400.774 127.2 400.774 M127.2 397.071 Q133.01 397.071 136.066 401.677 Q139.144 406.26 139.144 415.01 Q139.144 423.737 136.066 428.344 Q133.01 432.927 127.2 432.927 Q121.39 432.927 118.311 428.344 Q115.256 423.737 115.256 415.01 Q115.256 406.26 118.311 401.677 Q121.39 397.071 127.2 397.071 Z" fill="#000000" fill-rule="nonzero" fill-opacity="1" /><path clip-path="url(#clip460)" d="M147.362 426.376 L152.246 426.376 L152.246 432.256 L147.362 432.256 L147.362 426.376 Z" fill="#000000" fill-rule="nonzero" fill-opacity="1" /><path clip-path="url(#clip460)" d="M161.251 397.696 L183.473 397.696 L183.473 399.686 L170.927 432.256 L166.042 432.256 L177.848 401.631 L161.251 401.631 L161.251 397.696 Z" fill="#000000" fill-rule="nonzero" fill-opacity="1" /><path clip-path="url(#clip460)" d="M192.639 397.696 L210.996 397.696 L210.996 401.631 L196.922 401.631 L196.922 410.103 Q197.94 409.756 198.959 409.594 Q199.977 409.409 200.996 409.409 Q206.783 409.409 210.162 412.58 Q213.542 415.751 213.542 421.168 Q213.542 426.746 210.07 429.848 Q206.598 432.927 200.278 432.927 Q198.102 432.927 195.834 432.557 Q193.588 432.186 191.181 431.446 L191.181 426.746 Q193.264 427.881 195.487 428.436 Q197.709 428.992 200.186 428.992 Q204.19 428.992 206.528 426.885 Q208.866 424.779 208.866 421.168 Q208.866 417.557 206.528 415.45 Q204.19 413.344 200.186 413.344 Q198.311 413.344 196.436 413.76 Q194.584 414.177 192.639 415.057 L192.639 397.696 Z" fill="#000000" fill-rule="nonzero" fill-opacity="1" /><path clip-path="url(#clip460)" d="M117.015 99.5305 L124.654 99.5305 L124.654 73.1649 L116.343 74.8316 L116.343 70.5723 L124.607 68.9057 L129.283 68.9057 L129.283 99.5305 L136.922 99.5305 L136.922 103.466 L117.015 103.466 L117.015 99.5305 Z" fill="#000000" fill-rule="nonzero" fill-opacity="1" /><path clip-path="url(#clip460)" d="M146.366 97.5861 L151.251 97.5861 L151.251 103.466 L146.366 103.466 L146.366 97.5861 Z" fill="#000000" fill-rule="nonzero" fill-opacity="1" /><path clip-path="url(#clip460)" d="M171.436 71.9844 Q167.825 71.9844 165.996 75.5492 Q164.19 79.0908 164.19 86.2204 Q164.19 93.3268 165.996 96.8916 Q167.825 100.433 171.436 100.433 Q175.07 100.433 176.876 96.8916 Q178.704 93.3268 178.704 86.2204 Q178.704 79.0908 176.876 75.5492 Q175.07 71.9844 171.436 71.9844 M171.436 68.2807 Q177.246 68.2807 180.301 72.8871 Q183.38 77.4704 183.38 86.2204 Q183.38 94.9472 180.301 99.5537 Q177.246 104.137 171.436 104.137 Q165.626 104.137 162.547 99.5537 Q159.491 94.9472 159.491 86.2204 Q159.491 77.4704 162.547 72.8871 Q165.626 68.2807 171.436 68.2807 Z" fill="#000000" fill-rule="nonzero" fill-opacity="1" /><path clip-path="url(#clip460)" d="M201.598 71.9844 Q197.987 71.9844 196.158 75.5492 Q194.352 79.0908 194.352 86.2204 Q194.352 93.3268 196.158 96.8916 Q197.987 100.433 201.598 100.433 Q205.232 100.433 207.037 96.8916 Q208.866 93.3268 208.866 86.2204 Q208.866 79.0908 207.037 75.5492 Q205.232 71.9844 201.598 71.9844 M201.598 68.2807 Q207.408 68.2807 210.463 72.8871 Q213.542 77.4704 213.542 86.2204 Q213.542 94.9472 210.463 99.5537 Q207.408 104.137 201.598 104.137 Q195.787 104.137 192.709 99.5537 Q189.653 94.9472 189.653 86.2204 Q189.653 77.4704 192.709 72.8871 Q195.787 68.2807 201.598 68.2807 Z" fill="#000000" fill-rule="nonzero" fill-opacity="1" /><path clip-path="url(#clip460)" d="M31.921 770.239 L43.6021 803.086 L55.2195 770.239 L61.0123 770.239 L46.212 811.043 L40.9285 811.043 L26.1282 770.239 L31.921 770.239 Z" fill="#000000" fill-rule="nonzero" fill-opacity="1" /><path clip-path="url(#clip460)" d="M16.4842 756.935 L16.4842 747.355 L48.8219 735.228 L16.4842 723.038 L16.4842 713.457 L64.0042 713.457 L64.0042 719.727 L22.277 719.727 L54.8694 731.981 L54.8694 738.443 L22.277 750.697 L64.0042 750.697 L64.0042 756.935 L16.4842 756.935 Z" fill="#000000" fill-rule="nonzero" fill-opacity="1" /><path clip-path="url(#clip460)" d="M31.921 700.185 L26.1282 700.185 L40.9285 659.38 L46.212 659.38 L61.0123 700.185 L55.2195 700.185 L43.6021 667.401 L31.921 700.185 Z" fill="#000000" fill-rule="nonzero" fill-opacity="1" /><circle clip-path="url(#clip462)" cx="2293.23" cy="1374.77" r="14.4" fill="#009af9" fill-rule="evenodd" fill-opacity="1" stroke="#000000" stroke-opacity="1" stroke-width="3.2"/>
<circle clip-path="url(#clip462)" cx="2264.47" cy="1379.65" r="14.4" fill="#009af9" fill-rule="evenodd" fill-opacity="1" stroke="#000000" stroke-opacity="1" stroke-width="3.2"/>
<circle clip-path="url(#clip462)" cx="2235.72" cy="1364.98" r="14.4" fill="#009af9" fill-rule="evenodd" fill-opacity="1" stroke="#000000" stroke-opacity="1" stroke-width="3.2"/>
<circle clip-path="url(#clip462)" cx="2206.96" cy="1365.55" r="14.4" fill="#009af9" fill-rule="evenodd" fill-opacity="1" stroke="#000000" stroke-opacity="1" stroke-width="3.2"/>
<circle clip-path="url(#clip462)" cx="2178.21" cy="1373.04" r="14.4" fill="#009af9" fill-rule="evenodd" fill-opacity="1" stroke="#000000" stroke-opacity="1" stroke-width="3.2"/>
<circle clip-path="url(#clip462)" cx="2149.45" cy="1378.28" r="14.4" fill="#009af9" fill-rule="evenodd" fill-opacity="1" stroke="#000000" stroke-opacity="1" stroke-width="3.2"/>
<circle clip-path="url(#clip462)" cx="2120.69" cy="1366.94" r="14.4" fill="#009af9" fill-rule="evenodd" fill-opacity="1" stroke="#000000" stroke-opacity="1" stroke-width="3.2"/>
<circle clip-path="url(#clip462)" cx="2091.94" cy="1372.08" r="14.4" fill="#009af9" fill-rule="evenodd" fill-opacity="1" stroke="#000000" stroke-opacity="1" stroke-width="3.2"/>
<circle clip-path="url(#clip462)" cx="2063.18" cy="1375.08" r="14.4" fill="#009af9" fill-rule="evenodd" fill-opacity="1" stroke="#000000" stroke-opacity="1" stroke-width="3.2"/>
<circle clip-path="url(#clip462)" cx="2034.43" cy="1381.27" r="14.4" fill="#009af9" fill-rule="evenodd" fill-opacity="1" stroke="#000000" stroke-opacity="1" stroke-width="3.2"/>
<circle clip-path="url(#clip462)" cx="2005.67" cy="1382.41" r="14.4" fill="#009af9" fill-rule="evenodd" fill-opacity="1" stroke="#000000" stroke-opacity="1" stroke-width="3.2"/>
<circle clip-path="url(#clip462)" cx="1976.91" cy="1368.6" r="14.4" fill="#009af9" fill-rule="evenodd" fill-opacity="1" stroke="#000000" stroke-opacity="1" stroke-width="3.2"/>
<circle clip-path="url(#clip462)" cx="1948.16" cy="1373.42" r="14.4" fill="#009af9" fill-rule="evenodd" fill-opacity="1" stroke="#000000" stroke-opacity="1" stroke-width="3.2"/>
<circle clip-path="url(#clip462)" cx="1919.4" cy="1369.66" r="14.4" fill="#009af9" fill-rule="evenodd" fill-opacity="1" stroke="#000000" stroke-opacity="1" stroke-width="3.2"/>
<circle clip-path="url(#clip462)" cx="1890.65" cy="1379.42" r="14.4" fill="#009af9" fill-rule="evenodd" fill-opacity="1" stroke="#000000" stroke-opacity="1" stroke-width="3.2"/>
<circle clip-path="url(#clip462)" cx="1861.89" cy="1380.79" r="14.4" fill="#009af9" fill-rule="evenodd" fill-opacity="1" stroke="#000000" stroke-opacity="1" stroke-width="3.2"/>
<circle clip-path="url(#clip462)" cx="1833.13" cy="1362.92" r="14.4" fill="#009af9" fill-rule="evenodd" fill-opacity="1" stroke="#000000" stroke-opacity="1" stroke-width="3.2"/>
<circle clip-path="url(#clip462)" cx="1804.38" cy="1373.02" r="14.4" fill="#009af9" fill-rule="evenodd" fill-opacity="1" stroke="#000000" stroke-opacity="1" stroke-width="3.2"/>
<circle clip-path="url(#clip462)" cx="1775.62" cy="1366.52" r="14.4" fill="#009af9" fill-rule="evenodd" fill-opacity="1" stroke="#000000" stroke-opacity="1" stroke-width="3.2"/>
<circle clip-path="url(#clip462)" cx="1746.87" cy="1375.3" r="14.4" fill="#009af9" fill-rule="evenodd" fill-opacity="1" stroke="#000000" stroke-opacity="1" stroke-width="3.2"/>
<circle clip-path="url(#clip462)" cx="1718.11" cy="1373.91" r="14.4" fill="#009af9" fill-rule="evenodd" fill-opacity="1" stroke="#000000" stroke-opacity="1" stroke-width="3.2"/>
<circle clip-path="url(#clip462)" cx="1689.35" cy="1375.51" r="14.4" fill="#009af9" fill-rule="evenodd" fill-opacity="1" stroke="#000000" stroke-opacity="1" stroke-width="3.2"/>
<circle clip-path="url(#clip462)" cx="1660.6" cy="1373.15" r="14.4" fill="#009af9" fill-rule="evenodd" fill-opacity="1" stroke="#000000" stroke-opacity="1" stroke-width="3.2"/>
<circle clip-path="url(#clip462)" cx="1631.84" cy="1370.69" r="14.4" fill="#009af9" fill-rule="evenodd" fill-opacity="1" stroke="#000000" stroke-opacity="1" stroke-width="3.2"/>
<circle clip-path="url(#clip462)" cx="1603.09" cy="1368.39" r="14.4" fill="#009af9" fill-rule="evenodd" fill-opacity="1" stroke="#000000" stroke-opacity="1" stroke-width="3.2"/>
<circle clip-path="url(#clip462)" cx="1574.33" cy="1371.8" r="14.4" fill="#009af9" fill-rule="evenodd" fill-opacity="1" stroke="#000000" stroke-opacity="1" stroke-width="3.2"/>
<circle clip-path="url(#clip462)" cx="1545.57" cy="1371.97" r="14.4" fill="#009af9" fill-rule="evenodd" fill-opacity="1" stroke="#000000" stroke-opacity="1" stroke-width="3.2"/>
<circle clip-path="url(#clip462)" cx="1516.82" cy="1368.1" r="14.4" fill="#009af9" fill-rule="evenodd" fill-opacity="1" stroke="#000000" stroke-opacity="1" stroke-width="3.2"/>
<circle clip-path="url(#clip462)" cx="1488.06" cy="1384.24" r="14.4" fill="#009af9" fill-rule="evenodd" fill-opacity="1" stroke="#000000" stroke-opacity="1" stroke-width="3.2"/>
<circle clip-path="url(#clip462)" cx="1459.31" cy="1368.44" r="14.4" fill="#009af9" fill-rule="evenodd" fill-opacity="1" stroke="#000000" stroke-opacity="1" stroke-width="3.2"/>
<circle clip-path="url(#clip462)" cx="1430.55" cy="1379.23" r="14.4" fill="#009af9" fill-rule="evenodd" fill-opacity="1" stroke="#000000" stroke-opacity="1" stroke-width="3.2"/>
<circle clip-path="url(#clip462)" cx="1401.79" cy="1381.59" r="14.4" fill="#009af9" fill-rule="evenodd" fill-opacity="1" stroke="#000000" stroke-opacity="1" stroke-width="3.2"/>
<circle clip-path="url(#clip462)" cx="1373.04" cy="1362.84" r="14.4" fill="#009af9" fill-rule="evenodd" fill-opacity="1" stroke="#000000" stroke-opacity="1" stroke-width="3.2"/>
<circle clip-path="url(#clip462)" cx="1344.28" cy="1380.56" r="14.4" fill="#009af9" fill-rule="evenodd" fill-opacity="1" stroke="#000000" stroke-opacity="1" stroke-width="3.2"/>
<circle clip-path="url(#clip462)" cx="1315.53" cy="1358.29" r="14.4" fill="#009af9" fill-rule="evenodd" fill-opacity="1" stroke="#000000" stroke-opacity="1" stroke-width="3.2"/>
<circle clip-path="url(#clip462)" cx="1286.77" cy="1366.33" r="14.4" fill="#009af9" fill-rule="evenodd" fill-opacity="1" stroke="#000000" stroke-opacity="1" stroke-width="3.2"/>
<circle clip-path="url(#clip462)" cx="1258.01" cy="1363.66" r="14.4" fill="#009af9" fill-rule="evenodd" fill-opacity="1" stroke="#000000" stroke-opacity="1" stroke-width="3.2"/>
<circle clip-path="url(#clip462)" cx="1229.26" cy="1352.36" r="14.4" fill="#009af9" fill-rule="evenodd" fill-opacity="1" stroke="#000000" stroke-opacity="1" stroke-width="3.2"/>
<circle clip-path="url(#clip462)" cx="1200.5" cy="1373.15" r="14.4" fill="#009af9" fill-rule="evenodd" fill-opacity="1" stroke="#000000" stroke-opacity="1" stroke-width="3.2"/>
<circle clip-path="url(#clip462)" cx="1171.75" cy="1372.64" r="14.4" fill="#009af9" fill-rule="evenodd" fill-opacity="1" stroke="#000000" stroke-opacity="1" stroke-width="3.2"/>
<circle clip-path="url(#clip462)" cx="1142.99" cy="1363.28" r="14.4" fill="#009af9" fill-rule="evenodd" fill-opacity="1" stroke="#000000" stroke-opacity="1" stroke-width="3.2"/>
<circle clip-path="url(#clip462)" cx="1114.23" cy="1347.96" r="14.4" fill="#009af9" fill-rule="evenodd" fill-opacity="1" stroke="#000000" stroke-opacity="1" stroke-width="3.2"/>
<circle clip-path="url(#clip462)" cx="1085.48" cy="1356.9" r="14.4" fill="#009af9" fill-rule="evenodd" fill-opacity="1" stroke="#000000" stroke-opacity="1" stroke-width="3.2"/>
<circle clip-path="url(#clip462)" cx="1056.72" cy="1346.74" r="14.4" fill="#009af9" fill-rule="evenodd" fill-opacity="1" stroke="#000000" stroke-opacity="1" stroke-width="3.2"/>
<circle clip-path="url(#clip462)" cx="1027.97" cy="1361.34" r="14.4" fill="#009af9" fill-rule="evenodd" fill-opacity="1" stroke="#000000" stroke-opacity="1" stroke-width="3.2"/>
<circle clip-path="url(#clip462)" cx="999.211" cy="1312.08" r="14.4" fill="#009af9" fill-rule="evenodd" fill-opacity="1" stroke="#000000" stroke-opacity="1" stroke-width="3.2"/>
<circle clip-path="url(#clip462)" cx="970.455" cy="1362.46" r="14.4" fill="#009af9" fill-rule="evenodd" fill-opacity="1" stroke="#000000" stroke-opacity="1" stroke-width="3.2"/>
<circle clip-path="url(#clip462)" cx="941.699" cy="1383.27" r="14.4" fill="#009af9" fill-rule="evenodd" fill-opacity="1" stroke="#000000" stroke-opacity="1" stroke-width="3.2"/>
<circle clip-path="url(#clip462)" cx="912.943" cy="1380.72" r="14.4" fill="#009af9" fill-rule="evenodd" fill-opacity="1" stroke="#000000" stroke-opacity="1" stroke-width="3.2"/>
<circle clip-path="url(#clip462)" cx="884.187" cy="1376.37" r="14.4" fill="#009af9" fill-rule="evenodd" fill-opacity="1" stroke="#000000" stroke-opacity="1" stroke-width="3.2"/>
<circle clip-path="url(#clip462)" cx="855.431" cy="1332.96" r="14.4" fill="#009af9" fill-rule="evenodd" fill-opacity="1" stroke="#000000" stroke-opacity="1" stroke-width="3.2"/>
<circle clip-path="url(#clip462)" cx="826.675" cy="1295.54" r="14.4" fill="#009af9" fill-rule="evenodd" fill-opacity="1" stroke="#000000" stroke-opacity="1" stroke-width="3.2"/>
<circle clip-path="url(#clip462)" cx="797.919" cy="1354.76" r="14.4" fill="#009af9" fill-rule="evenodd" fill-opacity="1" stroke="#000000" stroke-opacity="1" stroke-width="3.2"/>
<circle clip-path="url(#clip462)" cx="769.163" cy="1120.6" r="14.4" fill="#009af9" fill-rule="evenodd" fill-opacity="1" stroke="#000000" stroke-opacity="1" stroke-width="3.2"/>
<circle clip-path="url(#clip462)" cx="740.407" cy="328.386" r="14.4" fill="#009af9" fill-rule="evenodd" fill-opacity="1" stroke="#000000" stroke-opacity="1" stroke-width="3.2"/>
<circle clip-path="url(#clip462)" cx="711.651" cy="196.28" r="14.4" fill="#009af9" fill-rule="evenodd" fill-opacity="1" stroke="#000000" stroke-opacity="1" stroke-width="3.2"/>
<circle clip-path="url(#clip462)" cx="682.895" cy="158.277" r="14.4" fill="#009af9" fill-rule="evenodd" fill-opacity="1" stroke="#000000" stroke-opacity="1" stroke-width="3.2"/>
<circle clip-path="url(#clip462)" cx="654.139" cy="126.861" r="14.4" fill="#009af9" fill-rule="evenodd" fill-opacity="1" stroke="#000000" stroke-opacity="1" stroke-width="3.2"/>
<circle clip-path="url(#clip462)" cx="625.383" cy="108.785" r="14.4" fill="#009af9" fill-rule="evenodd" fill-opacity="1" stroke="#000000" stroke-opacity="1" stroke-width="3.2"/>
<circle clip-path="url(#clip462)" cx="596.627" cy="99.2321" r="14.4" fill="#009af9" fill-rule="evenodd" fill-opacity="1" stroke="#000000" stroke-opacity="1" stroke-width="3.2"/>
<circle clip-path="url(#clip462)" cx="567.871" cy="94.0977" r="14.4" fill="#009af9" fill-rule="evenodd" fill-opacity="1" stroke="#000000" stroke-opacity="1" stroke-width="3.2"/>
<circle clip-path="url(#clip462)" cx="539.115" cy="90.815" r="14.4" fill="#009af9" fill-rule="evenodd" fill-opacity="1" stroke="#000000" stroke-opacity="1" stroke-width="3.2"/>
<circle clip-path="url(#clip462)" cx="510.359" cy="87.7428" r="14.4" fill="#009af9" fill-rule="evenodd" fill-opacity="1" stroke="#000000" stroke-opacity="1" stroke-width="3.2"/>
<circle clip-path="url(#clip462)" cx="481.603" cy="86.6486" r="14.4" fill="#009af9" fill-rule="evenodd" fill-opacity="1" stroke="#000000" stroke-opacity="1" stroke-width="3.2"/>
<circle clip-path="url(#clip462)" cx="452.847" cy="86.1857" r="14.4" fill="#009af9" fill-rule="evenodd" fill-opacity="1" stroke="#000000" stroke-opacity="1" stroke-width="3.2"/>
<circle clip-path="url(#clip462)" cx="424.091" cy="86.1857" r="14.4" fill="#009af9" fill-rule="evenodd" fill-opacity="1" stroke="#000000" stroke-opacity="1" stroke-width="3.2"/>
<circle clip-path="url(#clip462)" cx="395.335" cy="86.1857" r="14.4" fill="#009af9" fill-rule="evenodd" fill-opacity="1" stroke="#000000" stroke-opacity="1" stroke-width="3.2"/>
<circle clip-path="url(#clip462)" cx="366.579" cy="86.1857" r="14.4" fill="#009af9" fill-rule="evenodd" fill-opacity="1" stroke="#000000" stroke-opacity="1" stroke-width="3.2"/>
<circle clip-path="url(#clip462)" cx="337.823" cy="86.1857" r="14.4" fill="#009af9" fill-rule="evenodd" fill-opacity="1" stroke="#000000" stroke-opacity="1" stroke-width="3.2"/>
<circle clip-path="url(#clip462)" cx="309.067" cy="86.1857" r="14.4" fill="#009af9" fill-rule="evenodd" fill-opacity="1" stroke="#000000" stroke-opacity="1" stroke-width="3.2"/>
<polyline clip-path="url(#clip462)" style="stroke:#e26f46; stroke-linecap:round; stroke-linejoin:round; stroke-width:4; stroke-opacity:1; fill:none" points="759.311,2799.12 759.311,-1328.69 "/>
<polyline clip-path="url(#clip462)" style="stroke:#3da44d; stroke-linecap:round; stroke-linejoin:round; stroke-width:4; stroke-opacity:1; fill:none" points="769.163,2799.12 769.163,-1328.69 "/>
<path clip-path="url(#clip460)" d="M1609.46 248.629 L2282.65 248.629 L2282.65 93.1086 L1609.46 93.1086  Z" fill="#ffffff" fill-rule="evenodd" fill-opacity="1"/>
<polyline clip-path="url(#clip460)" style="stroke:#000000; stroke-linecap:round; stroke-linejoin:round; stroke-width:4; stroke-opacity:1; fill:none" points="1609.46,248.629 2282.65,248.629 2282.65,93.1086 1609.46,93.1086 1609.46,248.629 "/>
<polyline clip-path="url(#clip460)" style="stroke:#e26f46; stroke-linecap:round; stroke-linejoin:round; stroke-width:4; stroke-opacity:1; fill:none" points="1632.83,144.949 1773.04,144.949 "/>
<path clip-path="url(#clip460)" d="M1812.43 130.84 Q1807.34 130.84 1804.33 134.636 Q1801.34 138.432 1801.34 144.983 Q1801.34 151.511 1804.33 155.307 Q1807.34 159.104 1812.43 159.104 Q1817.52 159.104 1820.49 155.307 Q1823.47 151.511 1823.47 144.983 Q1823.47 138.432 1820.49 134.636 Q1817.52 130.84 1812.43 130.84 M1812.43 127.044 Q1819.7 127.044 1824.05 131.928 Q1828.4 136.789 1828.4 144.983 Q1828.4 153.155 1824.05 158.039 Q1819.7 162.9 1812.43 162.9 Q1805.14 162.9 1800.76 158.039 Q1796.41 153.178 1796.41 144.983 Q1796.41 136.789 1800.76 131.928 Q1805.14 127.044 1812.43 127.044 Z" fill="#000000" fill-rule="nonzero" fill-opacity="1" /><path clip-path="url(#clip460)" d="M1857.08 146.581 L1857.08 162.229 L1852.82 162.229 L1852.82 146.719 Q1852.82 143.039 1851.39 141.21 Q1849.95 139.382 1847.08 139.382 Q1843.63 139.382 1841.64 141.581 Q1839.65 143.78 1839.65 147.576 L1839.65 162.229 L1835.37 162.229 L1835.37 136.303 L1839.65 136.303 L1839.65 140.331 Q1841.18 137.993 1843.24 136.835 Q1845.32 135.678 1848.03 135.678 Q1852.5 135.678 1854.79 138.456 Q1857.08 141.21 1857.08 146.581 Z" fill="#000000" fill-rule="nonzero" fill-opacity="1" /><path clip-path="url(#clip460)" d="M1882.11 137.067 L1882.11 141.094 Q1880.3 140.169 1878.36 139.706 Q1876.41 139.243 1874.33 139.243 Q1871.16 139.243 1869.56 140.215 Q1867.99 141.187 1867.99 143.131 Q1867.99 144.613 1869.12 145.469 Q1870.25 146.303 1873.68 147.067 L1875.14 147.391 Q1879.68 148.363 1881.57 150.145 Q1883.49 151.905 1883.49 155.076 Q1883.49 158.687 1880.62 160.793 Q1877.78 162.9 1872.78 162.9 Q1870.69 162.9 1868.43 162.483 Q1866.18 162.09 1863.68 161.28 L1863.68 156.881 Q1866.04 158.108 1868.33 158.733 Q1870.62 159.335 1872.87 159.335 Q1875.88 159.335 1877.5 158.317 Q1879.12 157.275 1879.12 155.4 Q1879.12 153.664 1877.94 152.738 Q1876.78 151.812 1872.82 150.956 L1871.34 150.608 Q1867.38 149.775 1865.62 148.062 Q1863.87 146.326 1863.87 143.317 Q1863.87 139.659 1866.46 137.669 Q1869.05 135.678 1873.82 135.678 Q1876.18 135.678 1878.26 136.025 Q1880.35 136.372 1882.11 137.067 Z" fill="#000000" fill-rule="nonzero" fill-opacity="1" /><path clip-path="url(#clip460)" d="M1902.06 149.196 Q1896.9 149.196 1894.91 150.377 Q1892.92 151.557 1892.92 154.405 Q1892.92 156.673 1894.4 158.016 Q1895.9 159.335 1898.47 159.335 Q1902.01 159.335 1904.14 156.835 Q1906.3 154.312 1906.3 150.145 L1906.3 149.196 L1902.06 149.196 M1910.55 147.437 L1910.55 162.229 L1906.3 162.229 L1906.3 158.293 Q1904.84 160.655 1902.66 161.789 Q1900.49 162.9 1897.34 162.9 Q1893.36 162.9 1890.99 160.678 Q1888.66 158.432 1888.66 154.682 Q1888.66 150.307 1891.57 148.085 Q1894.51 145.863 1900.32 145.863 L1906.3 145.863 L1906.3 145.446 Q1906.3 142.507 1904.35 140.909 Q1902.43 139.289 1898.93 139.289 Q1896.71 139.289 1894.61 139.821 Q1892.5 140.354 1890.55 141.419 L1890.55 137.483 Q1892.89 136.581 1895.09 136.141 Q1897.29 135.678 1899.37 135.678 Q1905 135.678 1907.78 138.594 Q1910.55 141.511 1910.55 147.437 Z" fill="#000000" fill-rule="nonzero" fill-opacity="1" /><path clip-path="url(#clip460)" d="M1941.5 148.201 L1941.5 150.284 L1921.92 150.284 Q1922.2 154.682 1924.56 156.997 Q1926.94 159.289 1931.18 159.289 Q1933.63 159.289 1935.92 158.687 Q1938.24 158.085 1940.51 156.881 L1940.51 160.909 Q1938.22 161.881 1935.81 162.391 Q1933.4 162.9 1930.93 162.9 Q1924.72 162.9 1921.09 159.289 Q1917.48 155.678 1917.48 149.52 Q1917.48 143.155 1920.9 139.428 Q1924.35 135.678 1930.18 135.678 Q1935.42 135.678 1938.45 139.057 Q1941.5 142.414 1941.5 148.201 M1937.24 146.951 Q1937.2 143.456 1935.28 141.372 Q1933.38 139.289 1930.23 139.289 Q1926.67 139.289 1924.51 141.303 Q1922.38 143.317 1922.06 146.974 L1937.24 146.951 Z" fill="#000000" fill-rule="nonzero" fill-opacity="1" /><path clip-path="url(#clip460)" d="M1965.55 148.965 Q1965.55 144.335 1963.63 141.789 Q1961.74 139.243 1958.29 139.243 Q1954.86 139.243 1952.94 141.789 Q1951.04 144.335 1951.04 148.965 Q1951.04 153.571 1952.94 156.118 Q1954.86 158.664 1958.29 158.664 Q1961.74 158.664 1963.63 156.118 Q1965.55 153.571 1965.55 148.965 M1969.81 159.011 Q1969.81 165.631 1966.87 168.849 Q1963.93 172.09 1957.87 172.09 Q1955.62 172.09 1953.63 171.742 Q1951.64 171.418 1949.77 170.724 L1949.77 166.58 Q1951.64 167.599 1953.47 168.085 Q1955.3 168.571 1957.2 168.571 Q1961.39 168.571 1963.47 166.372 Q1965.55 164.196 1965.55 159.775 L1965.55 157.668 Q1964.24 159.96 1962.17 161.094 Q1960.11 162.229 1957.24 162.229 Q1952.48 162.229 1949.56 158.594 Q1946.64 154.96 1946.64 148.965 Q1946.64 142.946 1949.56 139.312 Q1952.48 135.678 1957.24 135.678 Q1960.11 135.678 1962.17 136.812 Q1964.24 137.946 1965.55 140.238 L1965.55 136.303 L1969.81 136.303 L1969.81 159.011 Z" fill="#000000" fill-rule="nonzero" fill-opacity="1" /><path clip-path="url(#clip460)" d="M2000.76 148.201 L2000.76 150.284 L1981.18 150.284 Q1981.46 154.682 1983.82 156.997 Q1986.2 159.289 1990.44 159.289 Q1992.89 159.289 1995.18 158.687 Q1997.5 158.085 1999.77 156.881 L1999.77 160.909 Q1997.48 161.881 1995.07 162.391 Q1992.66 162.9 1990.18 162.9 Q1983.98 162.9 1980.35 159.289 Q1976.73 155.678 1976.73 149.52 Q1976.73 143.155 1980.16 139.428 Q1983.61 135.678 1989.44 135.678 Q1994.67 135.678 1997.71 139.057 Q2000.76 142.414 2000.76 148.201 M1996.5 146.951 Q1996.46 143.456 1994.54 141.372 Q1992.64 139.289 1989.49 139.289 Q1985.92 139.289 1983.77 141.303 Q1981.64 143.317 1981.32 146.974 L1996.5 146.951 Z" fill="#000000" fill-rule="nonzero" fill-opacity="1" /><path clip-path="url(#clip460)" d="M2022.78 140.284 Q2022.06 139.868 2021.2 139.682 Q2020.37 139.474 2019.35 139.474 Q2015.74 139.474 2013.79 141.835 Q2011.87 144.173 2011.87 148.571 L2011.87 162.229 L2007.59 162.229 L2007.59 136.303 L2011.87 136.303 L2011.87 140.331 Q2013.22 137.969 2015.37 136.835 Q2017.52 135.678 2020.6 135.678 Q2021.04 135.678 2021.57 135.747 Q2022.11 135.794 2022.75 135.909 L2022.78 140.284 Z" fill="#000000" fill-rule="nonzero" fill-opacity="1" /><path clip-path="url(#clip460)" d="M2031.27 127.669 L2031.27 140.516 L2027.34 140.516 L2027.34 127.669 L2031.27 127.669 Z" fill="#000000" fill-rule="nonzero" fill-opacity="1" /><path clip-path="url(#clip460)" d="M2056.8 137.067 L2056.8 141.094 Q2055 140.169 2053.05 139.706 Q2051.11 139.243 2049.03 139.243 Q2045.85 139.243 2044.26 140.215 Q2042.68 141.187 2042.68 143.131 Q2042.68 144.613 2043.82 145.469 Q2044.95 146.303 2048.38 147.067 L2049.84 147.391 Q2054.37 148.363 2056.27 150.145 Q2058.19 151.905 2058.19 155.076 Q2058.19 158.687 2055.32 160.793 Q2052.48 162.9 2047.48 162.9 Q2045.39 162.9 2043.12 162.483 Q2040.88 162.09 2038.38 161.28 L2038.38 156.881 Q2040.74 158.108 2043.03 158.733 Q2045.32 159.335 2047.57 159.335 Q2050.58 159.335 2052.2 158.317 Q2053.82 157.275 2053.82 155.4 Q2053.82 153.664 2052.64 152.738 Q2051.48 151.812 2047.52 150.956 L2046.04 150.608 Q2042.08 149.775 2040.32 148.062 Q2038.56 146.326 2038.56 143.317 Q2038.56 139.659 2041.16 137.669 Q2043.75 135.678 2048.52 135.678 Q2050.88 135.678 2052.96 136.025 Q2055.04 136.372 2056.8 137.067 Z" fill="#000000" fill-rule="nonzero" fill-opacity="1" /><path clip-path="url(#clip460)" d="M2096.57 137.067 L2096.57 141.094 Q2094.77 140.169 2092.82 139.706 Q2090.88 139.243 2088.79 139.243 Q2085.62 139.243 2084.03 140.215 Q2082.45 141.187 2082.45 143.131 Q2082.45 144.613 2083.59 145.469 Q2084.72 146.303 2088.15 147.067 L2089.6 147.391 Q2094.14 148.363 2096.04 150.145 Q2097.96 151.905 2097.96 155.076 Q2097.96 158.687 2095.09 160.793 Q2092.24 162.9 2087.24 162.9 Q2085.16 162.9 2082.89 162.483 Q2080.65 162.09 2078.15 161.28 L2078.15 156.881 Q2080.51 158.108 2082.8 158.733 Q2085.09 159.335 2087.34 159.335 Q2090.35 159.335 2091.97 158.317 Q2093.59 157.275 2093.59 155.4 Q2093.59 153.664 2092.41 152.738 Q2091.25 151.812 2087.29 150.956 L2085.81 150.608 Q2081.85 149.775 2080.09 148.062 Q2078.33 146.326 2078.33 143.317 Q2078.33 139.659 2080.92 137.669 Q2083.52 135.678 2088.29 135.678 Q2090.65 135.678 2092.73 136.025 Q2094.81 136.372 2096.57 137.067 Z" fill="#000000" fill-rule="nonzero" fill-opacity="1" /><path clip-path="url(#clip460)" d="M2114.79 139.289 Q2111.36 139.289 2109.37 141.974 Q2107.38 144.636 2107.38 149.289 Q2107.38 153.942 2109.35 156.627 Q2111.34 159.289 2114.79 159.289 Q2118.19 159.289 2120.18 156.604 Q2122.17 153.918 2122.17 149.289 Q2122.17 144.682 2120.18 141.997 Q2118.19 139.289 2114.79 139.289 M2114.79 135.678 Q2120.35 135.678 2123.52 139.289 Q2126.69 142.9 2126.69 149.289 Q2126.69 155.655 2123.52 159.289 Q2120.35 162.9 2114.79 162.9 Q2109.21 162.9 2106.04 159.289 Q2102.89 155.655 2102.89 149.289 Q2102.89 142.9 2106.04 139.289 Q2109.21 135.678 2114.79 135.678 Z" fill="#000000" fill-rule="nonzero" fill-opacity="1" /><path clip-path="url(#clip460)" d="M2133.75 126.21 L2138.01 126.21 L2138.01 162.229 L2133.75 162.229 L2133.75 126.21 Z" fill="#000000" fill-rule="nonzero" fill-opacity="1" /><path clip-path="url(#clip460)" d="M2146.48 151.997 L2146.48 136.303 L2150.74 136.303 L2150.74 151.835 Q2150.74 155.516 2152.17 157.368 Q2153.61 159.196 2156.48 159.196 Q2159.93 159.196 2161.92 156.997 Q2163.93 154.798 2163.93 151.002 L2163.93 136.303 L2168.19 136.303 L2168.19 162.229 L2163.93 162.229 L2163.93 158.247 Q2162.38 160.608 2160.32 161.766 Q2158.28 162.9 2155.58 162.9 Q2151.11 162.9 2148.79 160.122 Q2146.48 157.344 2146.48 151.997 M2157.2 135.678 L2157.2 135.678 Z" fill="#000000" fill-rule="nonzero" fill-opacity="1" /><path clip-path="url(#clip460)" d="M2181.18 128.942 L2181.18 136.303 L2189.95 136.303 L2189.95 139.613 L2181.18 139.613 L2181.18 153.687 Q2181.18 156.858 2182.03 157.761 Q2182.91 158.664 2185.58 158.664 L2189.95 158.664 L2189.95 162.229 L2185.58 162.229 Q2180.65 162.229 2178.77 160.4 Q2176.9 158.548 2176.9 153.687 L2176.9 139.613 L2173.77 139.613 L2173.77 136.303 L2176.9 136.303 L2176.9 128.942 L2181.18 128.942 Z" fill="#000000" fill-rule="nonzero" fill-opacity="1" /><path clip-path="url(#clip460)" d="M2195.55 136.303 L2199.81 136.303 L2199.81 162.229 L2195.55 162.229 L2195.55 136.303 M2195.55 126.21 L2199.81 126.21 L2199.81 131.604 L2195.55 131.604 L2195.55 126.21 Z" fill="#000000" fill-rule="nonzero" fill-opacity="1" /><path clip-path="url(#clip460)" d="M2218.77 139.289 Q2215.34 139.289 2213.35 141.974 Q2211.36 144.636 2211.36 149.289 Q2211.36 153.942 2213.33 156.627 Q2215.32 159.289 2218.77 159.289 Q2222.17 159.289 2224.16 156.604 Q2226.15 153.918 2226.15 149.289 Q2226.15 144.682 2224.16 141.997 Q2222.17 139.289 2218.77 139.289 M2218.77 135.678 Q2224.33 135.678 2227.5 139.289 Q2230.67 142.9 2230.67 149.289 Q2230.67 155.655 2227.5 159.289 Q2224.33 162.9 2218.77 162.9 Q2213.19 162.9 2210.02 159.289 Q2206.87 155.655 2206.87 149.289 Q2206.87 142.9 2210.02 139.289 Q2213.19 135.678 2218.77 135.678 Z" fill="#000000" fill-rule="nonzero" fill-opacity="1" /><path clip-path="url(#clip460)" d="M2259.28 146.581 L2259.28 162.229 L2255.02 162.229 L2255.02 146.719 Q2255.02 143.039 2253.59 141.21 Q2252.15 139.382 2249.28 139.382 Q2245.83 139.382 2243.84 141.581 Q2241.85 143.78 2241.85 147.576 L2241.85 162.229 L2237.57 162.229 L2237.57 136.303 L2241.85 136.303 L2241.85 140.331 Q2243.38 137.993 2245.44 136.835 Q2247.52 135.678 2250.23 135.678 Q2254.7 135.678 2256.99 138.456 Q2259.28 141.21 2259.28 146.581 Z" fill="#000000" fill-rule="nonzero" fill-opacity="1" /><polyline clip-path="url(#clip460)" style="stroke:#3da44d; stroke-linecap:round; stroke-linejoin:round; stroke-width:4; stroke-opacity:1; fill:none" points="1632.83,196.789 1773.04,196.789 "/>
<path clip-path="url(#clip460)" d="M1824.28 182.171 L1824.28 187.101 Q1821.92 184.902 1819.24 183.814 Q1816.57 182.726 1813.56 182.726 Q1807.64 182.726 1804.49 186.36 Q1801.34 189.972 1801.34 196.823 Q1801.34 203.652 1804.49 207.286 Q1807.64 210.897 1813.56 210.897 Q1816.57 210.897 1819.24 209.809 Q1821.92 208.721 1824.28 206.522 L1824.28 211.407 Q1821.83 213.073 1819.07 213.907 Q1816.34 214.74 1813.29 214.74 Q1805.44 214.74 1800.93 209.948 Q1796.41 205.133 1796.41 196.823 Q1796.41 188.49 1800.93 183.698 Q1805.44 178.884 1813.29 178.884 Q1816.39 178.884 1819.12 179.717 Q1821.87 180.527 1824.28 182.171 Z" fill="#000000" fill-rule="nonzero" fill-opacity="1" /><path clip-path="url(#clip460)" d="M1841.37 191.129 Q1837.94 191.129 1835.95 193.814 Q1833.96 196.476 1833.96 201.129 Q1833.96 205.782 1835.93 208.467 Q1837.92 211.129 1841.37 211.129 Q1844.77 211.129 1846.76 208.444 Q1848.75 205.758 1848.75 201.129 Q1848.75 196.522 1846.76 193.837 Q1844.77 191.129 1841.37 191.129 M1841.37 187.518 Q1846.92 187.518 1850.09 191.129 Q1853.26 194.74 1853.26 201.129 Q1853.26 207.495 1850.09 211.129 Q1846.92 214.74 1841.37 214.74 Q1835.79 214.74 1832.62 211.129 Q1829.47 207.495 1829.47 201.129 Q1829.47 194.74 1832.62 191.129 Q1835.79 187.518 1841.37 187.518 Z" fill="#000000" fill-rule="nonzero" fill-opacity="1" /><path clip-path="url(#clip460)" d="M1880.51 193.12 Q1882.11 190.249 1884.33 188.884 Q1886.55 187.518 1889.56 187.518 Q1893.61 187.518 1895.81 190.365 Q1898.01 193.189 1898.01 198.421 L1898.01 214.069 L1893.73 214.069 L1893.73 198.559 Q1893.73 194.833 1892.41 193.027 Q1891.09 191.222 1888.38 191.222 Q1885.07 191.222 1883.15 193.421 Q1881.23 195.62 1881.23 199.416 L1881.23 214.069 L1876.94 214.069 L1876.94 198.559 Q1876.94 194.809 1875.62 193.027 Q1874.3 191.222 1871.55 191.222 Q1868.29 191.222 1866.37 193.444 Q1864.44 195.643 1864.44 199.416 L1864.44 214.069 L1860.16 214.069 L1860.16 188.143 L1864.44 188.143 L1864.44 192.171 Q1865.9 189.786 1867.94 188.652 Q1869.98 187.518 1872.78 187.518 Q1875.6 187.518 1877.57 188.953 Q1879.56 190.388 1880.51 193.12 Z" fill="#000000" fill-rule="nonzero" fill-opacity="1" /><path clip-path="url(#clip460)" d="M1910.62 210.18 L1910.62 223.93 L1906.34 223.93 L1906.34 188.143 L1910.62 188.143 L1910.62 192.078 Q1911.97 189.763 1914 188.652 Q1916.06 187.518 1918.91 187.518 Q1923.63 187.518 1926.57 191.268 Q1929.54 195.018 1929.54 201.129 Q1929.54 207.24 1926.57 210.99 Q1923.63 214.74 1918.91 214.74 Q1916.06 214.74 1914 213.629 Q1911.97 212.495 1910.62 210.18 M1925.11 201.129 Q1925.11 196.43 1923.17 193.768 Q1921.25 191.083 1917.87 191.083 Q1914.49 191.083 1912.55 193.768 Q1910.62 196.43 1910.62 201.129 Q1910.62 205.828 1912.55 208.513 Q1914.49 211.175 1917.87 211.175 Q1921.25 211.175 1923.17 208.513 Q1925.11 205.828 1925.11 201.129 Z" fill="#000000" fill-rule="nonzero" fill-opacity="1" /><path clip-path="url(#clip460)" d="M1936.16 203.837 L1936.16 188.143 L1940.42 188.143 L1940.42 203.675 Q1940.42 207.356 1941.85 209.208 Q1943.29 211.036 1946.16 211.036 Q1949.61 211.036 1951.6 208.837 Q1953.61 206.638 1953.61 202.842 L1953.61 188.143 L1957.87 188.143 L1957.87 214.069 L1953.61 214.069 L1953.61 210.087 Q1952.06 212.448 1950 213.606 Q1947.96 214.74 1945.25 214.74 Q1940.79 214.74 1938.47 211.962 Q1936.16 209.184 1936.16 203.837 M1946.87 187.518 L1946.87 187.518 Z" fill="#000000" fill-rule="nonzero" fill-opacity="1" /><path clip-path="url(#clip460)" d="M1970.86 180.782 L1970.86 188.143 L1979.63 188.143 L1979.63 191.453 L1970.86 191.453 L1970.86 205.527 Q1970.86 208.698 1971.71 209.601 Q1972.59 210.504 1975.25 210.504 L1979.63 210.504 L1979.63 214.069 L1975.25 214.069 Q1970.32 214.069 1968.45 212.24 Q1966.57 210.388 1966.57 205.527 L1966.57 191.453 L1963.45 191.453 L1963.45 188.143 L1966.57 188.143 L1966.57 180.782 L1970.86 180.782 Z" fill="#000000" fill-rule="nonzero" fill-opacity="1" /><path clip-path="url(#clip460)" d="M2007.41 200.041 L2007.41 202.124 L1987.82 202.124 Q1988.1 206.522 1990.46 208.837 Q1992.85 211.129 1997.08 211.129 Q1999.54 211.129 2001.83 210.527 Q2004.14 209.925 2006.41 208.721 L2006.41 212.749 Q2004.12 213.721 2001.71 214.231 Q1999.3 214.74 1996.83 214.74 Q1990.62 214.74 1986.99 211.129 Q1983.38 207.518 1983.38 201.36 Q1983.38 194.995 1986.8 191.268 Q1990.25 187.518 1996.09 187.518 Q2001.32 187.518 2004.35 190.897 Q2007.41 194.254 2007.41 200.041 M2003.15 198.791 Q2003.1 195.296 2001.18 193.212 Q1999.28 191.129 1996.13 191.129 Q1992.57 191.129 1990.42 193.143 Q1988.29 195.157 1987.96 198.814 L2003.15 198.791 Z" fill="#000000" fill-rule="nonzero" fill-opacity="1" /><path clip-path="url(#clip460)" d="M2031.46 192.078 L2031.46 178.05 L2035.72 178.05 L2035.72 214.069 L2031.46 214.069 L2031.46 210.18 Q2030.11 212.495 2028.05 213.629 Q2026.02 214.74 2023.15 214.74 Q2018.45 214.74 2015.48 210.99 Q2012.54 207.24 2012.54 201.129 Q2012.54 195.018 2015.48 191.268 Q2018.45 187.518 2023.15 187.518 Q2026.02 187.518 2028.05 188.652 Q2030.11 189.763 2031.46 192.078 M2016.94 201.129 Q2016.94 205.828 2018.86 208.513 Q2020.81 211.175 2024.19 211.175 Q2027.57 211.175 2029.51 208.513 Q2031.46 205.828 2031.46 201.129 Q2031.46 196.43 2029.51 193.768 Q2027.57 191.083 2024.19 191.083 Q2020.81 191.083 2018.86 193.768 Q2016.94 196.43 2016.94 201.129 Z" fill="#000000" fill-rule="nonzero" fill-opacity="1" /><path clip-path="url(#clip460)" d="M2054.95 179.509 L2084.19 179.509 L2084.19 183.444 L2071.92 183.444 L2071.92 214.069 L2067.22 214.069 L2067.22 183.444 L2054.95 183.444 L2054.95 179.509 Z" fill="#000000" fill-rule="nonzero" fill-opacity="1" /><path clip-path="url(#clip460)" d="M2099.12 189.138 L2099.12 193.12 Q2097.31 192.124 2095.48 191.638 Q2093.68 191.129 2091.83 191.129 Q2087.68 191.129 2085.39 193.768 Q2083.1 196.384 2083.1 201.129 Q2083.1 205.874 2085.39 208.513 Q2087.68 211.129 2091.83 211.129 Q2093.68 211.129 2095.48 210.643 Q2097.31 210.133 2099.12 209.138 L2099.12 213.073 Q2097.34 213.907 2095.41 214.323 Q2093.52 214.74 2091.36 214.74 Q2085.51 214.74 2082.06 211.059 Q2078.61 207.379 2078.61 201.129 Q2078.61 194.786 2082.08 191.152 Q2085.58 187.518 2091.64 187.518 Q2093.61 187.518 2095.48 187.935 Q2097.36 188.328 2099.12 189.138 Z" fill="#000000" fill-rule="nonzero" fill-opacity="1" /></svg>
