<?xml version="1.0" encoding="utf-8"?>
<svg xmlns="http://www.w3.org/2000/svg" xmlns:xlink="http://www.w3.org/1999/xlink" width="600" height="400" viewBox="0 0 2400 1600">
<defs>
  <clipPath id="clip740">
    <rect x="0" y="0" width="2400" height="1600"/>
  </clipPath>
</defs>
<path clip-path="url(#clip740)" d="M0 1600 L2400 1600 L2400 0 L0 0  Z" fill="#ffffff" fill-rule="evenodd" fill-opacity="1"/>
<defs>
  <clipPath id="clip741">
    <rect x="480" y="0" width="1681" height="1600"/>
  </clipPath>
</defs>
<path clip-path="url(#clip740)" d="M219.866 1423.18 L2352.76 1423.18 L2352.76 47.2441 L219.866 47.2441  Z" fill="#ffffff" fill-rule="evenodd" fill-opacity="1"/>
<defs>
  <clipPath id="clip742">
    <rect x="219" y="47" width="2134" height="1377"/>
  </clipPath>
</defs>
<polyline clip-path="url(#clip742)" style="stroke:#000000; stroke-linecap:round; stroke-linejoin:round; stroke-width:2; stroke-opacity:0.1; fill:none" points="280.231,1423.18 280.231,47.2441 "/>
<polyline clip-path="url(#clip742)" style="stroke:#000000; stroke-linecap:round; stroke-linejoin:round; stroke-width:2; stroke-opacity:0.1; fill:none" points="783.271,1423.18 783.271,47.2441 "/>
<polyline clip-path="url(#clip742)" style="stroke:#000000; stroke-linecap:round; stroke-linejoin:round; stroke-width:2; stroke-opacity:0.1; fill:none" points="1286.31,1423.18 1286.31,47.2441 "/>
<polyline clip-path="url(#clip742)" style="stroke:#000000; stroke-linecap:round; stroke-linejoin:round; stroke-width:2; stroke-opacity:0.1; fill:none" points="1789.35,1423.18 1789.35,47.2441 "/>
<polyline clip-path="url(#clip742)" style="stroke:#000000; stroke-linecap:round; stroke-linejoin:round; stroke-width:2; stroke-opacity:0.1; fill:none" points="2292.39,1423.18 2292.39,47.2441 "/>
<polyline clip-path="url(#clip740)" style="stroke:#000000; stroke-linecap:round; stroke-linejoin:round; stroke-width:4; stroke-opacity:1; fill:none" points="219.866,1423.18 2352.76,1423.18 "/>
<polyline clip-path="url(#clip740)" style="stroke:#000000; stroke-linecap:round; stroke-linejoin:round; stroke-width:4; stroke-opacity:1; fill:none" points="280.231,1423.18 280.231,1404.28 "/>
<polyline clip-path="url(#clip740)" style="stroke:#000000; stroke-linecap:round; stroke-linejoin:round; stroke-width:4; stroke-opacity:1; fill:none" points="783.271,1423.18 783.271,1404.28 "/>
<polyline clip-path="url(#clip740)" style="stroke:#000000; stroke-linecap:round; stroke-linejoin:round; stroke-width:4; stroke-opacity:1; fill:none" points="1286.31,1423.18 1286.31,1404.28 "/>
<polyline clip-path="url(#clip740)" style="stroke:#000000; stroke-linecap:round; stroke-linejoin:round; stroke-width:4; stroke-opacity:1; fill:none" points="1789.35,1423.18 1789.35,1404.28 "/>
<polyline clip-path="url(#clip740)" style="stroke:#000000; stroke-linecap:round; stroke-linejoin:round; stroke-width:4; stroke-opacity:1; fill:none" points="2292.39,1423.18 2292.39,1404.28 "/>
<path clip-path="url(#clip740)" d="M257.615 1454.1 Q254.004 1454.1 252.176 1457.66 Q250.37 1461.2 250.37 1468.33 Q250.37 1475.44 252.176 1479.01 Q254.004 1482.55 257.615 1482.55 Q261.25 1482.55 263.055 1479.01 Q264.884 1475.44 264.884 1468.33 Q264.884 1461.2 263.055 1457.66 Q261.25 1454.1 257.615 1454.1 M257.615 1450.39 Q263.426 1450.39 266.481 1455 Q269.56 1459.58 269.56 1468.33 Q269.56 1477.06 266.481 1481.67 Q263.426 1486.25 257.615 1486.25 Q251.805 1486.25 248.727 1481.67 Q245.671 1477.06 245.671 1468.33 Q245.671 1459.58 248.727 1455 Q251.805 1450.39 257.615 1450.39 Z" fill="#000000" fill-rule="nonzero" fill-opacity="1" /><path clip-path="url(#clip740)" d="M277.777 1479.7 L282.662 1479.7 L282.662 1485.58 L277.777 1485.58 L277.777 1479.7 Z" fill="#000000" fill-rule="nonzero" fill-opacity="1" /><path clip-path="url(#clip740)" d="M302.847 1454.1 Q299.236 1454.1 297.407 1457.66 Q295.601 1461.2 295.601 1468.33 Q295.601 1475.44 297.407 1479.01 Q299.236 1482.55 302.847 1482.55 Q306.481 1482.55 308.286 1479.01 Q310.115 1475.44 310.115 1468.33 Q310.115 1461.2 308.286 1457.66 Q306.481 1454.1 302.847 1454.1 M302.847 1450.39 Q308.657 1450.39 311.712 1455 Q314.791 1459.58 314.791 1468.33 Q314.791 1477.06 311.712 1481.67 Q308.657 1486.25 302.847 1486.25 Q297.037 1486.25 293.958 1481.67 Q290.902 1477.06 290.902 1468.33 Q290.902 1459.58 293.958 1455 Q297.037 1450.39 302.847 1450.39 Z" fill="#000000" fill-rule="nonzero" fill-opacity="1" /><path clip-path="url(#clip740)" d="M755.007 1481.64 L771.327 1481.64 L771.327 1485.58 L749.382 1485.58 L749.382 1481.64 Q752.044 1478.89 756.628 1474.26 Q761.234 1469.61 762.415 1468.27 Q764.66 1465.74 765.54 1464.01 Q766.442 1462.25 766.442 1460.56 Q766.442 1457.8 764.498 1456.07 Q762.577 1454.33 759.475 1454.33 Q757.276 1454.33 754.822 1455.09 Q752.392 1455.86 749.614 1457.41 L749.614 1452.69 Q752.438 1451.55 754.892 1450.97 Q757.345 1450.39 759.382 1450.39 Q764.753 1450.39 767.947 1453.08 Q771.142 1455.77 771.142 1460.26 Q771.142 1462.39 770.331 1464.31 Q769.544 1466.2 767.438 1468.8 Q766.859 1469.47 763.757 1472.69 Q760.655 1475.88 755.007 1481.64 Z" fill="#000000" fill-rule="nonzero" fill-opacity="1" /><path clip-path="url(#clip740)" d="M781.141 1479.7 L786.026 1479.7 L786.026 1485.58 L781.141 1485.58 L781.141 1479.7 Z" fill="#000000" fill-rule="nonzero" fill-opacity="1" /><path clip-path="url(#clip740)" d="M796.257 1451.02 L814.614 1451.02 L814.614 1454.96 L800.54 1454.96 L800.54 1463.43 Q801.558 1463.08 802.577 1462.92 Q803.595 1462.73 804.614 1462.73 Q810.401 1462.73 813.78 1465.9 Q817.16 1469.08 817.16 1474.49 Q817.16 1480.07 813.688 1483.17 Q810.215 1486.25 803.896 1486.25 Q801.72 1486.25 799.452 1485.88 Q797.206 1485.51 794.799 1484.77 L794.799 1480.07 Q796.882 1481.2 799.104 1481.76 Q801.327 1482.32 803.803 1482.32 Q807.808 1482.32 810.146 1480.21 Q812.484 1478.1 812.484 1474.49 Q812.484 1470.88 810.146 1468.77 Q807.808 1466.67 803.803 1466.67 Q801.928 1466.67 800.053 1467.08 Q798.202 1467.5 796.257 1468.38 L796.257 1451.02 Z" fill="#000000" fill-rule="nonzero" fill-opacity="1" /><path clip-path="url(#clip740)" d="M1253.48 1451.02 L1271.83 1451.02 L1271.83 1454.96 L1257.76 1454.96 L1257.76 1463.43 Q1258.78 1463.08 1259.8 1462.92 Q1260.81 1462.73 1261.83 1462.73 Q1267.62 1462.73 1271 1465.9 Q1274.38 1469.08 1274.38 1474.49 Q1274.38 1480.07 1270.91 1483.17 Q1267.43 1486.25 1261.11 1486.25 Q1258.94 1486.25 1256.67 1485.88 Q1254.42 1485.51 1252.02 1484.77 L1252.02 1480.07 Q1254.1 1481.2 1256.32 1481.76 Q1258.55 1482.32 1261.02 1482.32 Q1265.03 1482.32 1267.36 1480.21 Q1269.7 1478.1 1269.7 1474.49 Q1269.7 1470.88 1267.36 1468.77 Q1265.03 1466.67 1261.02 1466.67 Q1259.15 1466.67 1257.27 1467.08 Q1255.42 1467.5 1253.48 1468.38 L1253.48 1451.02 Z" fill="#000000" fill-rule="nonzero" fill-opacity="1" /><path clip-path="url(#clip740)" d="M1283.59 1479.7 L1288.48 1479.7 L1288.48 1485.58 L1283.59 1485.58 L1283.59 1479.7 Z" fill="#000000" fill-rule="nonzero" fill-opacity="1" /><path clip-path="url(#clip740)" d="M1308.66 1454.1 Q1305.05 1454.1 1303.22 1457.66 Q1301.42 1461.2 1301.42 1468.33 Q1301.42 1475.44 1303.22 1479.01 Q1305.05 1482.55 1308.66 1482.55 Q1312.29 1482.55 1314.1 1479.01 Q1315.93 1475.44 1315.93 1468.33 Q1315.93 1461.2 1314.1 1457.66 Q1312.29 1454.1 1308.66 1454.1 M1308.66 1450.39 Q1314.47 1450.39 1317.53 1455 Q1320.6 1459.58 1320.6 1468.33 Q1320.6 1477.06 1317.53 1481.67 Q1314.47 1486.25 1308.66 1486.25 Q1302.85 1486.25 1299.77 1481.67 Q1296.72 1477.06 1296.72 1468.33 Q1296.72 1459.58 1299.77 1455 Q1302.85 1450.39 1308.66 1450.39 Z" fill="#000000" fill-rule="nonzero" fill-opacity="1" /><path clip-path="url(#clip740)" d="M1755.67 1451.02 L1777.89 1451.02 L1777.89 1453.01 L1765.35 1485.58 L1760.46 1485.58 L1772.27 1454.96 L1755.67 1454.96 L1755.67 1451.02 Z" fill="#000000" fill-rule="nonzero" fill-opacity="1" /><path clip-path="url(#clip740)" d="M1787.01 1479.7 L1791.9 1479.7 L1791.9 1485.58 L1787.01 1485.58 L1787.01 1479.7 Z" fill="#000000" fill-rule="nonzero" fill-opacity="1" /><path clip-path="url(#clip740)" d="M1802.13 1451.02 L1820.49 1451.02 L1820.49 1454.96 L1806.41 1454.96 L1806.41 1463.43 Q1807.43 1463.08 1808.45 1462.92 Q1809.47 1462.73 1810.49 1462.73 Q1816.27 1462.73 1819.65 1465.9 Q1823.03 1469.08 1823.03 1474.49 Q1823.03 1480.07 1819.56 1483.17 Q1816.09 1486.25 1809.77 1486.25 Q1807.59 1486.25 1805.32 1485.88 Q1803.08 1485.51 1800.67 1484.77 L1800.67 1480.07 Q1802.75 1481.2 1804.98 1481.76 Q1807.2 1482.32 1809.68 1482.32 Q1813.68 1482.32 1816.02 1480.21 Q1818.36 1478.1 1818.36 1474.49 Q1818.36 1470.88 1816.02 1468.77 Q1813.68 1466.67 1809.68 1466.67 Q1807.8 1466.67 1805.93 1467.08 Q1804.07 1467.5 1802.13 1468.38 L1802.13 1451.02 Z" fill="#000000" fill-rule="nonzero" fill-opacity="1" /><path clip-path="url(#clip740)" d="M2244.46 1481.64 L2252.1 1481.64 L2252.1 1455.28 L2243.79 1456.95 L2243.79 1452.69 L2252.06 1451.02 L2256.73 1451.02 L2256.73 1481.64 L2264.37 1481.64 L2264.37 1485.58 L2244.46 1485.58 L2244.46 1481.64 Z" fill="#000000" fill-rule="nonzero" fill-opacity="1" /><path clip-path="url(#clip740)" d="M2283.81 1454.1 Q2280.2 1454.1 2278.37 1457.66 Q2276.57 1461.2 2276.57 1468.33 Q2276.57 1475.44 2278.37 1479.01 Q2280.2 1482.55 2283.81 1482.55 Q2287.45 1482.55 2289.25 1479.01 Q2291.08 1475.44 2291.08 1468.33 Q2291.08 1461.2 2289.25 1457.66 Q2287.45 1454.1 2283.81 1454.1 M2283.81 1450.39 Q2289.62 1450.39 2292.68 1455 Q2295.76 1459.58 2295.76 1468.33 Q2295.76 1477.06 2292.68 1481.67 Q2289.62 1486.25 2283.81 1486.25 Q2278 1486.25 2274.93 1481.67 Q2271.87 1477.06 2271.87 1468.33 Q2271.87 1459.58 2274.93 1455 Q2278 1450.39 2283.81 1450.39 Z" fill="#000000" fill-rule="nonzero" fill-opacity="1" /><path clip-path="url(#clip740)" d="M2303.98 1479.7 L2308.86 1479.7 L2308.86 1485.58 L2303.98 1485.58 L2303.98 1479.7 Z" fill="#000000" fill-rule="nonzero" fill-opacity="1" /><path clip-path="url(#clip740)" d="M2329.05 1454.1 Q2325.43 1454.1 2323.61 1457.66 Q2321.8 1461.2 2321.8 1468.33 Q2321.8 1475.44 2323.61 1479.01 Q2325.43 1482.55 2329.05 1482.55 Q2332.68 1482.55 2334.49 1479.01 Q2336.31 1475.44 2336.31 1468.33 Q2336.31 1461.2 2334.49 1457.66 Q2332.68 1454.1 2329.05 1454.1 M2329.05 1450.39 Q2334.86 1450.39 2337.91 1455 Q2340.99 1459.58 2340.99 1468.33 Q2340.99 1477.06 2337.91 1481.67 Q2334.86 1486.25 2329.05 1486.25 Q2323.24 1486.25 2320.16 1481.67 Q2317.1 1477.06 2317.1 1468.33 Q2317.1 1459.58 2320.16 1455 Q2323.24 1450.39 2329.05 1450.39 Z" fill="#000000" fill-rule="nonzero" fill-opacity="1" /><path clip-path="url(#clip740)" d="M1266.21 1520.52 L1306.41 1520.52 L1306.41 1525.93 L1289.54 1525.93 L1289.54 1568.04 L1283.08 1568.04 L1283.08 1525.93 L1266.21 1525.93 L1266.21 1520.52 Z" fill="#000000" fill-rule="nonzero" fill-opacity="1" /><polyline clip-path="url(#clip742)" style="stroke:#000000; stroke-linecap:round; stroke-linejoin:round; stroke-width:2; stroke-opacity:0.1; fill:none" points="219.866,1301.25 2352.76,1301.25 "/>
<polyline clip-path="url(#clip742)" style="stroke:#000000; stroke-linecap:round; stroke-linejoin:round; stroke-width:2; stroke-opacity:0.1; fill:none" points="219.866,997.483 2352.76,997.483 "/>
<polyline clip-path="url(#clip742)" style="stroke:#000000; stroke-linecap:round; stroke-linejoin:round; stroke-width:2; stroke-opacity:0.1; fill:none" points="219.866,693.718 2352.76,693.718 "/>
<polyline clip-path="url(#clip742)" style="stroke:#000000; stroke-linecap:round; stroke-linejoin:round; stroke-width:2; stroke-opacity:0.1; fill:none" points="219.866,389.952 2352.76,389.952 "/>
<polyline clip-path="url(#clip742)" style="stroke:#000000; stroke-linecap:round; stroke-linejoin:round; stroke-width:2; stroke-opacity:0.1; fill:none" points="219.866,86.1857 2352.76,86.1857 "/>
<polyline clip-path="url(#clip740)" style="stroke:#000000; stroke-linecap:round; stroke-linejoin:round; stroke-width:4; stroke-opacity:1; fill:none" points="219.866,1423.18 219.866,47.2441 "/>
<polyline clip-path="url(#clip740)" style="stroke:#000000; stroke-linecap:round; stroke-linejoin:round; stroke-width:4; stroke-opacity:1; fill:none" points="219.866,1301.25 238.764,1301.25 "/>
<polyline clip-path="url(#clip740)" style="stroke:#000000; stroke-linecap:round; stroke-linejoin:round; stroke-width:4; stroke-opacity:1; fill:none" points="219.866,997.483 238.764,997.483 "/>
<polyline clip-path="url(#clip740)" style="stroke:#000000; stroke-linecap:round; stroke-linejoin:round; stroke-width:4; stroke-opacity:1; fill:none" points="219.866,693.718 238.764,693.718 "/>
<polyline clip-path="url(#clip740)" style="stroke:#000000; stroke-linecap:round; stroke-linejoin:round; stroke-width:4; stroke-opacity:1; fill:none" points="219.866,389.952 238.764,389.952 "/>
<polyline clip-path="url(#clip740)" style="stroke:#000000; stroke-linecap:round; stroke-linejoin:round; stroke-width:4; stroke-opacity:1; fill:none" points="219.866,86.1857 238.764,86.1857 "/>
<path clip-path="url(#clip740)" d="M128.288 1287.05 Q124.677 1287.05 122.848 1290.61 Q121.043 1294.15 121.043 1301.28 Q121.043 1308.39 122.848 1311.96 Q124.677 1315.5 128.288 1315.5 Q131.922 1315.5 133.728 1311.96 Q135.556 1308.39 135.556 1301.28 Q135.556 1294.15 133.728 1290.61 Q131.922 1287.05 128.288 1287.05 M128.288 1283.34 Q134.098 1283.34 137.154 1287.95 Q140.232 1292.53 140.232 1301.28 Q140.232 1310.01 137.154 1314.62 Q134.098 1319.2 128.288 1319.2 Q122.478 1319.2 119.399 1314.62 Q116.343 1310.01 116.343 1301.28 Q116.343 1292.53 119.399 1287.95 Q122.478 1283.34 128.288 1283.34 Z" fill="#000000" fill-rule="nonzero" fill-opacity="1" /><path clip-path="url(#clip740)" d="M148.45 1312.65 L153.334 1312.65 L153.334 1318.53 L148.45 1318.53 L148.45 1312.65 Z" fill="#000000" fill-rule="nonzero" fill-opacity="1" /><path clip-path="url(#clip740)" d="M167.547 1314.59 L183.866 1314.59 L183.866 1318.53 L161.922 1318.53 L161.922 1314.59 Q164.584 1311.84 169.167 1307.21 Q173.774 1302.56 174.954 1301.21 Q177.2 1298.69 178.079 1296.96 Q178.982 1295.2 178.982 1293.51 Q178.982 1290.75 177.038 1289.02 Q175.116 1287.28 172.014 1287.28 Q169.815 1287.28 167.362 1288.04 Q164.931 1288.81 162.153 1290.36 L162.153 1285.64 Q164.977 1284.5 167.431 1283.92 Q169.885 1283.34 171.922 1283.34 Q177.292 1283.34 180.487 1286.03 Q183.681 1288.71 183.681 1293.21 Q183.681 1295.34 182.871 1297.26 Q182.084 1299.15 179.977 1301.75 Q179.399 1302.42 176.297 1305.64 Q173.195 1308.83 167.547 1314.59 Z" fill="#000000" fill-rule="nonzero" fill-opacity="1" /><path clip-path="url(#clip740)" d="M126.205 983.282 Q122.593 983.282 120.765 986.847 Q118.959 990.389 118.959 997.518 Q118.959 1004.62 120.765 1008.19 Q122.593 1011.73 126.205 1011.73 Q129.839 1011.73 131.644 1008.19 Q133.473 1004.62 133.473 997.518 Q133.473 990.389 131.644 986.847 Q129.839 983.282 126.205 983.282 M126.205 979.578 Q132.015 979.578 135.07 984.185 Q138.149 988.768 138.149 997.518 Q138.149 1006.25 135.07 1010.85 Q132.015 1015.43 126.205 1015.43 Q120.394 1015.43 117.316 1010.85 Q114.26 1006.25 114.26 997.518 Q114.26 988.768 117.316 984.185 Q120.394 979.578 126.205 979.578 Z" fill="#000000" fill-rule="nonzero" fill-opacity="1" /><path clip-path="url(#clip740)" d="M146.366 1008.88 L151.251 1008.88 L151.251 1014.76 L146.366 1014.76 L146.366 1008.88 Z" fill="#000000" fill-rule="nonzero" fill-opacity="1" /><path clip-path="url(#clip740)" d="M174.283 984.278 L162.477 1002.73 L174.283 1002.73 L174.283 984.278 M173.056 980.203 L178.936 980.203 L178.936 1002.73 L183.866 1002.73 L183.866 1006.62 L178.936 1006.62 L178.936 1014.76 L174.283 1014.76 L174.283 1006.62 L158.681 1006.62 L158.681 1002.1 L173.056 980.203 Z" fill="#000000" fill-rule="nonzero" fill-opacity="1" /><path clip-path="url(#clip740)" d="M126.529 679.516 Q122.918 679.516 121.089 683.081 Q119.283 686.623 119.283 693.752 Q119.283 700.859 121.089 704.424 Q122.918 707.965 126.529 707.965 Q130.163 707.965 131.968 704.424 Q133.797 700.859 133.797 693.752 Q133.797 686.623 131.968 683.081 Q130.163 679.516 126.529 679.516 M126.529 675.813 Q132.339 675.813 135.394 680.419 Q138.473 685.002 138.473 693.752 Q138.473 702.479 135.394 707.086 Q132.339 711.669 126.529 711.669 Q120.718 711.669 117.64 707.086 Q114.584 702.479 114.584 693.752 Q114.584 685.002 117.64 680.419 Q120.718 675.813 126.529 675.813 Z" fill="#000000" fill-rule="nonzero" fill-opacity="1" /><path clip-path="url(#clip740)" d="M146.691 705.118 L151.575 705.118 L151.575 710.998 L146.691 710.998 L146.691 705.118 Z" fill="#000000" fill-rule="nonzero" fill-opacity="1" /><path clip-path="url(#clip740)" d="M172.339 691.854 Q169.19 691.854 167.339 694.007 Q165.51 696.16 165.51 699.91 Q165.51 703.636 167.339 705.812 Q169.19 707.965 172.339 707.965 Q175.487 707.965 177.315 705.812 Q179.167 703.636 179.167 699.91 Q179.167 696.16 177.315 694.007 Q175.487 691.854 172.339 691.854 M181.621 677.201 L181.621 681.461 Q179.862 680.627 178.056 680.188 Q176.274 679.748 174.514 679.748 Q169.885 679.748 167.431 682.873 Q165.001 685.998 164.653 692.317 Q166.019 690.303 168.079 689.238 Q170.139 688.15 172.616 688.15 Q177.825 688.15 180.834 691.322 Q183.866 694.47 183.866 699.91 Q183.866 705.234 180.718 708.451 Q177.57 711.669 172.339 711.669 Q166.343 711.669 163.172 707.086 Q160.001 702.479 160.001 693.752 Q160.001 685.558 163.89 680.697 Q167.778 675.813 174.329 675.813 Q176.089 675.813 177.871 676.16 Q179.676 676.507 181.621 677.201 Z" fill="#000000" fill-rule="nonzero" fill-opacity="1" /><path clip-path="url(#clip740)" d="M126.783 375.75 Q123.172 375.75 121.343 379.315 Q119.538 382.857 119.538 389.986 Q119.538 397.093 121.343 400.658 Q123.172 404.199 126.783 404.199 Q130.417 404.199 132.223 400.658 Q134.052 397.093 134.052 389.986 Q134.052 382.857 132.223 379.315 Q130.417 375.75 126.783 375.75 M126.783 372.047 Q132.593 372.047 135.649 376.653 Q138.728 381.236 138.728 389.986 Q138.728 398.713 135.649 403.32 Q132.593 407.903 126.783 407.903 Q120.973 407.903 117.894 403.32 Q114.839 398.713 114.839 389.986 Q114.839 381.236 117.894 376.653 Q120.973 372.047 126.783 372.047 Z" fill="#000000" fill-rule="nonzero" fill-opacity="1" /><path clip-path="url(#clip740)" d="M146.945 401.352 L151.829 401.352 L151.829 407.232 L146.945 407.232 L146.945 401.352 Z" fill="#000000" fill-rule="nonzero" fill-opacity="1" /><path clip-path="url(#clip740)" d="M172.014 390.82 Q168.681 390.82 166.76 392.602 Q164.862 394.384 164.862 397.509 Q164.862 400.634 166.76 402.417 Q168.681 404.199 172.014 404.199 Q175.348 404.199 177.269 402.417 Q179.19 400.611 179.19 397.509 Q179.19 394.384 177.269 392.602 Q175.371 390.82 172.014 390.82 M167.339 388.829 Q164.329 388.088 162.64 386.028 Q160.973 383.968 160.973 381.005 Q160.973 376.861 163.913 374.454 Q166.876 372.047 172.014 372.047 Q177.176 372.047 180.116 374.454 Q183.056 376.861 183.056 381.005 Q183.056 383.968 181.366 386.028 Q179.7 388.088 176.714 388.829 Q180.093 389.616 181.968 391.908 Q183.866 394.199 183.866 397.509 Q183.866 402.533 180.788 405.218 Q177.732 407.903 172.014 407.903 Q166.297 407.903 163.218 405.218 Q160.163 402.533 160.163 397.509 Q160.163 394.199 162.061 391.908 Q163.959 389.616 167.339 388.829 M165.626 381.445 Q165.626 384.13 167.292 385.635 Q168.982 387.139 172.014 387.139 Q175.024 387.139 176.714 385.635 Q178.426 384.13 178.426 381.445 Q178.426 378.76 176.714 377.255 Q175.024 375.75 172.014 375.75 Q168.982 375.75 167.292 377.255 Q165.626 378.76 165.626 381.445 Z" fill="#000000" fill-rule="nonzero" fill-opacity="1" /><path clip-path="url(#clip740)" d="M117.501 99.5305 L125.14 99.5305 L125.14 73.1649 L116.83 74.8316 L116.83 70.5723 L125.093 68.9057 L129.769 68.9057 L129.769 99.5305 L137.408 99.5305 L137.408 103.466 L117.501 103.466 L117.501 99.5305 Z" fill="#000000" fill-rule="nonzero" fill-opacity="1" /><path clip-path="url(#clip740)" d="M146.853 97.5861 L151.737 97.5861 L151.737 103.466 L146.853 103.466 L146.853 97.5861 Z" fill="#000000" fill-rule="nonzero" fill-opacity="1" /><path clip-path="url(#clip740)" d="M171.922 71.9844 Q168.311 71.9844 166.482 75.5492 Q164.677 79.0908 164.677 86.2204 Q164.677 93.3268 166.482 96.8916 Q168.311 100.433 171.922 100.433 Q175.556 100.433 177.362 96.8916 Q179.19 93.3268 179.19 86.2204 Q179.19 79.0908 177.362 75.5492 Q175.556 71.9844 171.922 71.9844 M171.922 68.2807 Q177.732 68.2807 180.788 72.8871 Q183.866 77.4704 183.866 86.2204 Q183.866 94.9472 180.788 99.5537 Q177.732 104.137 171.922 104.137 Q166.112 104.137 163.033 99.5537 Q159.978 94.9472 159.978 86.2204 Q159.978 77.4704 163.033 72.8871 Q166.112 68.2807 171.922 68.2807 Z" fill="#000000" fill-rule="nonzero" fill-opacity="1" /><path clip-path="url(#clip740)" d="M31.921 770.239 L43.6021 803.086 L55.2195 770.239 L61.0123 770.239 L46.212 811.043 L40.9285 811.043 L26.1282 770.239 L31.921 770.239 Z" fill="#000000" fill-rule="nonzero" fill-opacity="1" /><path clip-path="url(#clip740)" d="M16.4842 756.935 L16.4842 747.355 L48.8219 735.228 L16.4842 723.038 L16.4842 713.457 L64.0042 713.457 L64.0042 719.727 L22.277 719.727 L54.8694 731.981 L54.8694 738.443 L22.277 750.697 L64.0042 750.697 L64.0042 756.935 L16.4842 756.935 Z" fill="#000000" fill-rule="nonzero" fill-opacity="1" /><path clip-path="url(#clip740)" d="M31.921 700.185 L26.1282 700.185 L40.9285 659.38 L46.212 659.38 L61.0123 700.185 L55.2195 700.185 L43.6021 667.401 L31.921 700.185 Z" fill="#000000" fill-rule="nonzero" fill-opacity="1" /><circle clip-path="url(#clip742)" cx="2292.39" cy="1357.43" r="14.4" fill="#009af9" fill-rule="evenodd" fill-opacity="1" stroke="#000000" stroke-opacity="1" stroke-width="3.2"/>
<circle clip-path="url(#clip742)" cx="2263.23" cy="1384.24" r="14.4" fill="#009af9" fill-rule="evenodd" fill-opacity="1" stroke="#000000" stroke-opacity="1" stroke-width="3.2"/>
<circle clip-path="url(#clip742)" cx="2234.07" cy="1379.65" r="14.4" fill="#009af9" fill-rule="evenodd" fill-opacity="1" stroke="#000000" stroke-opacity="1" stroke-width="3.2"/>
<circle clip-path="url(#clip742)" cx="2204.91" cy="1355.51" r="14.4" fill="#009af9" fill-rule="evenodd" fill-opacity="1" stroke="#000000" stroke-opacity="1" stroke-width="3.2"/>
<circle clip-path="url(#clip742)" cx="2175.74" cy="1337.17" r="14.4" fill="#009af9" fill-rule="evenodd" fill-opacity="1" stroke="#000000" stroke-opacity="1" stroke-width="3.2"/>
<circle clip-path="url(#clip742)" cx="2146.58" cy="1341.32" r="14.4" fill="#009af9" fill-rule="evenodd" fill-opacity="1" stroke="#000000" stroke-opacity="1" stroke-width="3.2"/>
<circle clip-path="url(#clip742)" cx="2117.42" cy="1337.85" r="14.4" fill="#009af9" fill-rule="evenodd" fill-opacity="1" stroke="#000000" stroke-opacity="1" stroke-width="3.2"/>
<circle clip-path="url(#clip742)" cx="2088.26" cy="1326.4" r="14.4" fill="#009af9" fill-rule="evenodd" fill-opacity="1" stroke="#000000" stroke-opacity="1" stroke-width="3.2"/>
<circle clip-path="url(#clip742)" cx="2059.1" cy="1300.4" r="14.4" fill="#009af9" fill-rule="evenodd" fill-opacity="1" stroke="#000000" stroke-opacity="1" stroke-width="3.2"/>
<circle clip-path="url(#clip742)" cx="2029.94" cy="1321.03" r="14.4" fill="#009af9" fill-rule="evenodd" fill-opacity="1" stroke="#000000" stroke-opacity="1" stroke-width="3.2"/>
<circle clip-path="url(#clip742)" cx="2000.77" cy="1284.36" r="14.4" fill="#009af9" fill-rule="evenodd" fill-opacity="1" stroke="#000000" stroke-opacity="1" stroke-width="3.2"/>
<circle clip-path="url(#clip742)" cx="1971.61" cy="1303.51" r="14.4" fill="#009af9" fill-rule="evenodd" fill-opacity="1" stroke="#000000" stroke-opacity="1" stroke-width="3.2"/>
<circle clip-path="url(#clip742)" cx="1942.45" cy="1296.29" r="14.4" fill="#009af9" fill-rule="evenodd" fill-opacity="1" stroke="#000000" stroke-opacity="1" stroke-width="3.2"/>
<circle clip-path="url(#clip742)" cx="1913.29" cy="1263.02" r="14.4" fill="#009af9" fill-rule="evenodd" fill-opacity="1" stroke="#000000" stroke-opacity="1" stroke-width="3.2"/>
<circle clip-path="url(#clip742)" cx="1884.13" cy="1257.82" r="14.4" fill="#009af9" fill-rule="evenodd" fill-opacity="1" stroke="#000000" stroke-opacity="1" stroke-width="3.2"/>
<circle clip-path="url(#clip742)" cx="1854.97" cy="1280.91" r="14.4" fill="#009af9" fill-rule="evenodd" fill-opacity="1" stroke="#000000" stroke-opacity="1" stroke-width="3.2"/>
<circle clip-path="url(#clip742)" cx="1825.8" cy="1268.01" r="14.4" fill="#009af9" fill-rule="evenodd" fill-opacity="1" stroke="#000000" stroke-opacity="1" stroke-width="3.2"/>
<circle clip-path="url(#clip742)" cx="1796.64" cy="1258.75" r="14.4" fill="#009af9" fill-rule="evenodd" fill-opacity="1" stroke="#000000" stroke-opacity="1" stroke-width="3.2"/>
<circle clip-path="url(#clip742)" cx="1767.48" cy="1223.15" r="14.4" fill="#009af9" fill-rule="evenodd" fill-opacity="1" stroke="#000000" stroke-opacity="1" stroke-width="3.2"/>
<circle clip-path="url(#clip742)" cx="1738.32" cy="1231.53" r="14.4" fill="#009af9" fill-rule="evenodd" fill-opacity="1" stroke="#000000" stroke-opacity="1" stroke-width="3.2"/>
<circle clip-path="url(#clip742)" cx="1709.16" cy="1208.81" r="14.4" fill="#009af9" fill-rule="evenodd" fill-opacity="1" stroke="#000000" stroke-opacity="1" stroke-width="3.2"/>
<circle clip-path="url(#clip742)" cx="1679.99" cy="1219.99" r="14.4" fill="#009af9" fill-rule="evenodd" fill-opacity="1" stroke="#000000" stroke-opacity="1" stroke-width="3.2"/>
<circle clip-path="url(#clip742)" cx="1650.83" cy="1170.95" r="14.4" fill="#009af9" fill-rule="evenodd" fill-opacity="1" stroke="#000000" stroke-opacity="1" stroke-width="3.2"/>
<circle clip-path="url(#clip742)" cx="1621.67" cy="1202.27" r="14.4" fill="#009af9" fill-rule="evenodd" fill-opacity="1" stroke="#000000" stroke-opacity="1" stroke-width="3.2"/>
<circle clip-path="url(#clip742)" cx="1592.51" cy="1117.75" r="14.4" fill="#009af9" fill-rule="evenodd" fill-opacity="1" stroke="#000000" stroke-opacity="1" stroke-width="3.2"/>
<circle clip-path="url(#clip742)" cx="1563.35" cy="1130.65" r="14.4" fill="#009af9" fill-rule="evenodd" fill-opacity="1" stroke="#000000" stroke-opacity="1" stroke-width="3.2"/>
<circle clip-path="url(#clip742)" cx="1534.19" cy="1111.7" r="14.4" fill="#009af9" fill-rule="evenodd" fill-opacity="1" stroke="#000000" stroke-opacity="1" stroke-width="3.2"/>
<circle clip-path="url(#clip742)" cx="1505.02" cy="1071.8" r="14.4" fill="#009af9" fill-rule="evenodd" fill-opacity="1" stroke="#000000" stroke-opacity="1" stroke-width="3.2"/>
<circle clip-path="url(#clip742)" cx="1475.86" cy="1081.37" r="14.4" fill="#009af9" fill-rule="evenodd" fill-opacity="1" stroke="#000000" stroke-opacity="1" stroke-width="3.2"/>
<circle clip-path="url(#clip742)" cx="1446.7" cy="1054.37" r="14.4" fill="#009af9" fill-rule="evenodd" fill-opacity="1" stroke="#000000" stroke-opacity="1" stroke-width="3.2"/>
<circle clip-path="url(#clip742)" cx="1417.54" cy="1008.81" r="14.4" fill="#009af9" fill-rule="evenodd" fill-opacity="1" stroke="#000000" stroke-opacity="1" stroke-width="3.2"/>
<circle clip-path="url(#clip742)" cx="1388.38" cy="1021.47" r="14.4" fill="#009af9" fill-rule="evenodd" fill-opacity="1" stroke="#000000" stroke-opacity="1" stroke-width="3.2"/>
<circle clip-path="url(#clip742)" cx="1359.22" cy="948.711" r="14.4" fill="#009af9" fill-rule="evenodd" fill-opacity="1" stroke="#000000" stroke-opacity="1" stroke-width="3.2"/>
<circle clip-path="url(#clip742)" cx="1330.05" cy="951.991" r="14.4" fill="#009af9" fill-rule="evenodd" fill-opacity="1" stroke="#000000" stroke-opacity="1" stroke-width="3.2"/>
<circle clip-path="url(#clip742)" cx="1300.89" cy="924.191" r="14.4" fill="#009af9" fill-rule="evenodd" fill-opacity="1" stroke="#000000" stroke-opacity="1" stroke-width="3.2"/>
<circle clip-path="url(#clip742)" cx="1271.73" cy="883.34" r="14.4" fill="#009af9" fill-rule="evenodd" fill-opacity="1" stroke="#000000" stroke-opacity="1" stroke-width="3.2"/>
<circle clip-path="url(#clip742)" cx="1242.57" cy="822.125" r="14.4" fill="#009af9" fill-rule="evenodd" fill-opacity="1" stroke="#000000" stroke-opacity="1" stroke-width="3.2"/>
<circle clip-path="url(#clip742)" cx="1213.41" cy="761.567" r="14.4" fill="#009af9" fill-rule="evenodd" fill-opacity="1" stroke="#000000" stroke-opacity="1" stroke-width="3.2"/>
<circle clip-path="url(#clip742)" cx="1184.24" cy="751.384" r="14.4" fill="#009af9" fill-rule="evenodd" fill-opacity="1" stroke="#000000" stroke-opacity="1" stroke-width="3.2"/>
<circle clip-path="url(#clip742)" cx="1155.08" cy="694.981" r="14.4" fill="#009af9" fill-rule="evenodd" fill-opacity="1" stroke="#000000" stroke-opacity="1" stroke-width="3.2"/>
<circle clip-path="url(#clip742)" cx="1125.92" cy="647.885" r="14.4" fill="#009af9" fill-rule="evenodd" fill-opacity="1" stroke="#000000" stroke-opacity="1" stroke-width="3.2"/>
<circle clip-path="url(#clip742)" cx="1096.76" cy="633.086" r="14.4" fill="#009af9" fill-rule="evenodd" fill-opacity="1" stroke="#000000" stroke-opacity="1" stroke-width="3.2"/>
<circle clip-path="url(#clip742)" cx="1067.6" cy="558.092" r="14.4" fill="#009af9" fill-rule="evenodd" fill-opacity="1" stroke="#000000" stroke-opacity="1" stroke-width="3.2"/>
<circle clip-path="url(#clip742)" cx="1038.44" cy="476.391" r="14.4" fill="#009af9" fill-rule="evenodd" fill-opacity="1" stroke="#000000" stroke-opacity="1" stroke-width="3.2"/>
<circle clip-path="url(#clip742)" cx="1009.27" cy="459.113" r="14.4" fill="#009af9" fill-rule="evenodd" fill-opacity="1" stroke="#000000" stroke-opacity="1" stroke-width="3.2"/>
<circle clip-path="url(#clip742)" cx="980.113" cy="394.423" r="14.4" fill="#009af9" fill-rule="evenodd" fill-opacity="1" stroke="#000000" stroke-opacity="1" stroke-width="3.2"/>
<circle clip-path="url(#clip742)" cx="950.951" cy="332.722" r="14.4" fill="#009af9" fill-rule="evenodd" fill-opacity="1" stroke="#000000" stroke-opacity="1" stroke-width="3.2"/>
<circle clip-path="url(#clip742)" cx="921.789" cy="324.824" r="14.4" fill="#009af9" fill-rule="evenodd" fill-opacity="1" stroke="#000000" stroke-opacity="1" stroke-width="3.2"/>
<circle clip-path="url(#clip742)" cx="892.628" cy="291.483" r="14.4" fill="#009af9" fill-rule="evenodd" fill-opacity="1" stroke="#000000" stroke-opacity="1" stroke-width="3.2"/>
<circle clip-path="url(#clip742)" cx="863.466" cy="244.436" r="14.4" fill="#009af9" fill-rule="evenodd" fill-opacity="1" stroke="#000000" stroke-opacity="1" stroke-width="3.2"/>
<circle clip-path="url(#clip742)" cx="834.304" cy="198.676" r="14.4" fill="#009af9" fill-rule="evenodd" fill-opacity="1" stroke="#000000" stroke-opacity="1" stroke-width="3.2"/>
<circle clip-path="url(#clip742)" cx="805.142" cy="175.25" r="14.4" fill="#009af9" fill-rule="evenodd" fill-opacity="1" stroke="#000000" stroke-opacity="1" stroke-width="3.2"/>
<circle clip-path="url(#clip742)" cx="775.981" cy="162.443" r="14.4" fill="#009af9" fill-rule="evenodd" fill-opacity="1" stroke="#000000" stroke-opacity="1" stroke-width="3.2"/>
<circle clip-path="url(#clip742)" cx="746.819" cy="138.579" r="14.4" fill="#009af9" fill-rule="evenodd" fill-opacity="1" stroke="#000000" stroke-opacity="1" stroke-width="3.2"/>
<circle clip-path="url(#clip742)" cx="717.657" cy="126.55" r="14.4" fill="#009af9" fill-rule="evenodd" fill-opacity="1" stroke="#000000" stroke-opacity="1" stroke-width="3.2"/>
<circle clip-path="url(#clip742)" cx="688.495" cy="112.407" r="14.4" fill="#009af9" fill-rule="evenodd" fill-opacity="1" stroke="#000000" stroke-opacity="1" stroke-width="3.2"/>
<circle clip-path="url(#clip742)" cx="659.334" cy="105.918" r="14.4" fill="#009af9" fill-rule="evenodd" fill-opacity="1" stroke="#000000" stroke-opacity="1" stroke-width="3.2"/>
<circle clip-path="url(#clip742)" cx="630.172" cy="97.3157" r="14.4" fill="#009af9" fill-rule="evenodd" fill-opacity="1" stroke="#000000" stroke-opacity="1" stroke-width="3.2"/>
<circle clip-path="url(#clip742)" cx="601.01" cy="91.6049" r="14.4" fill="#009af9" fill-rule="evenodd" fill-opacity="1" stroke="#000000" stroke-opacity="1" stroke-width="3.2"/>
<circle clip-path="url(#clip742)" cx="571.848" cy="92.2367" r="14.4" fill="#009af9" fill-rule="evenodd" fill-opacity="1" stroke="#000000" stroke-opacity="1" stroke-width="3.2"/>
<circle clip-path="url(#clip742)" cx="542.687" cy="87.984" r="14.4" fill="#009af9" fill-rule="evenodd" fill-opacity="1" stroke="#000000" stroke-opacity="1" stroke-width="3.2"/>
<circle clip-path="url(#clip742)" cx="513.525" cy="87.5222" r="14.4" fill="#009af9" fill-rule="evenodd" fill-opacity="1" stroke="#000000" stroke-opacity="1" stroke-width="3.2"/>
<circle clip-path="url(#clip742)" cx="484.363" cy="86.3072" r="14.4" fill="#009af9" fill-rule="evenodd" fill-opacity="1" stroke="#000000" stroke-opacity="1" stroke-width="3.2"/>
<circle clip-path="url(#clip742)" cx="455.202" cy="86.1857" r="14.4" fill="#009af9" fill-rule="evenodd" fill-opacity="1" stroke="#000000" stroke-opacity="1" stroke-width="3.2"/>
<circle clip-path="url(#clip742)" cx="426.04" cy="86.1857" r="14.4" fill="#009af9" fill-rule="evenodd" fill-opacity="1" stroke="#000000" stroke-opacity="1" stroke-width="3.2"/>
<circle clip-path="url(#clip742)" cx="396.878" cy="86.1857" r="14.4" fill="#009af9" fill-rule="evenodd" fill-opacity="1" stroke="#000000" stroke-opacity="1" stroke-width="3.2"/>
<circle clip-path="url(#clip742)" cx="367.716" cy="86.1857" r="14.4" fill="#009af9" fill-rule="evenodd" fill-opacity="1" stroke="#000000" stroke-opacity="1" stroke-width="3.2"/>
<circle clip-path="url(#clip742)" cx="338.555" cy="86.1857" r="14.4" fill="#009af9" fill-rule="evenodd" fill-opacity="1" stroke="#000000" stroke-opacity="1" stroke-width="3.2"/>
<circle clip-path="url(#clip742)" cx="309.393" cy="86.1857" r="14.4" fill="#009af9" fill-rule="evenodd" fill-opacity="1" stroke="#000000" stroke-opacity="1" stroke-width="3.2"/>
<circle clip-path="url(#clip742)" cx="280.231" cy="86.1857" r="14.4" fill="#009af9" fill-rule="evenodd" fill-opacity="1" stroke="#000000" stroke-opacity="1" stroke-width="3.2"/>
<polyline clip-path="url(#clip742)" style="stroke:#e26f46; stroke-linecap:round; stroke-linejoin:round; stroke-width:4; stroke-opacity:1; fill:none" points="736.827,2799.12 736.827,-1328.69 "/>
<polyline clip-path="url(#clip742)" style="stroke:#3da44d; stroke-linecap:round; stroke-linejoin:round; stroke-width:4; stroke-opacity:1; fill:none" points="1621.67,2799.12 1621.67,-1328.69 "/>
<path clip-path="url(#clip740)" d="M1605.5 248.629 L2281.66 248.629 L2281.66 93.1086 L1605.5 93.1086  Z" fill="#ffffff" fill-rule="evenodd" fill-opacity="1"/>
<polyline clip-path="url(#clip740)" style="stroke:#000000; stroke-linecap:round; stroke-linejoin:round; stroke-width:4; stroke-opacity:1; fill:none" points="1605.5,248.629 2281.66,248.629 2281.66,93.1086 1605.5,93.1086 1605.5,248.629 "/>
<polyline clip-path="url(#clip740)" style="stroke:#e26f46; stroke-linecap:round; stroke-linejoin:round; stroke-width:4; stroke-opacity:1; fill:none" points="1629.2,144.949 1771.39,144.949 "/>
<path clip-path="url(#clip740)" d="M1811.11 130.84 Q1806.02 130.84 1803.01 134.636 Q1800.02 138.432 1800.02 144.983 Q1800.02 151.511 1803.01 155.307 Q1806.02 159.104 1811.11 159.104 Q1816.2 159.104 1819.17 155.307 Q1822.15 151.511 1822.15 144.983 Q1822.15 138.432 1819.17 134.636 Q1816.2 130.84 1811.11 130.84 M1811.11 127.044 Q1818.38 127.044 1822.73 131.928 Q1827.08 136.789 1827.08 144.983 Q1827.08 153.155 1822.73 158.039 Q1818.38 162.9 1811.11 162.9 Q1803.82 162.9 1799.44 158.039 Q1795.09 153.178 1795.09 144.983 Q1795.09 136.789 1799.44 131.928 Q1803.82 127.044 1811.11 127.044 Z" fill="#000000" fill-rule="nonzero" fill-opacity="1" /><path clip-path="url(#clip740)" d="M1855.76 146.581 L1855.76 162.229 L1851.5 162.229 L1851.5 146.719 Q1851.5 143.039 1850.07 141.21 Q1848.63 139.382 1845.76 139.382 Q1842.31 139.382 1840.32 141.581 Q1838.33 143.78 1838.33 147.576 L1838.33 162.229 L1834.05 162.229 L1834.05 136.303 L1838.33 136.303 L1838.33 140.331 Q1839.86 137.993 1841.92 136.835 Q1844 135.678 1846.71 135.678 Q1851.18 135.678 1853.47 138.456 Q1855.76 141.21 1855.76 146.581 Z" fill="#000000" fill-rule="nonzero" fill-opacity="1" /><path clip-path="url(#clip740)" d="M1880.79 137.067 L1880.79 141.094 Q1878.98 140.169 1877.04 139.706 Q1875.09 139.243 1873.01 139.243 Q1869.84 139.243 1868.24 140.215 Q1866.67 141.187 1866.67 143.131 Q1866.67 144.613 1867.8 145.469 Q1868.94 146.303 1872.36 147.067 L1873.82 147.391 Q1878.36 148.363 1880.25 150.145 Q1882.18 151.905 1882.18 155.076 Q1882.18 158.687 1879.31 160.793 Q1876.46 162.9 1871.46 162.9 Q1869.37 162.9 1867.11 162.483 Q1864.86 162.09 1862.36 161.28 L1862.36 156.881 Q1864.72 158.108 1867.01 158.733 Q1869.31 159.335 1871.55 159.335 Q1874.56 159.335 1876.18 158.317 Q1877.8 157.275 1877.8 155.4 Q1877.8 153.664 1876.62 152.738 Q1875.46 151.812 1871.5 150.956 L1870.02 150.608 Q1866.06 149.775 1864.31 148.062 Q1862.55 146.326 1862.55 143.317 Q1862.55 139.659 1865.14 137.669 Q1867.73 135.678 1872.5 135.678 Q1874.86 135.678 1876.94 136.025 Q1879.03 136.372 1880.79 137.067 Z" fill="#000000" fill-rule="nonzero" fill-opacity="1" /><path clip-path="url(#clip740)" d="M1900.74 149.196 Q1895.58 149.196 1893.59 150.377 Q1891.6 151.557 1891.6 154.405 Q1891.6 156.673 1893.08 158.016 Q1894.58 159.335 1897.15 159.335 Q1900.69 159.335 1902.82 156.835 Q1904.98 154.312 1904.98 150.145 L1904.98 149.196 L1900.74 149.196 M1909.24 147.437 L1909.24 162.229 L1904.98 162.229 L1904.98 158.293 Q1903.52 160.655 1901.34 161.789 Q1899.17 162.9 1896.02 162.9 Q1892.04 162.9 1889.68 160.678 Q1887.34 158.432 1887.34 154.682 Q1887.34 150.307 1890.25 148.085 Q1893.19 145.863 1899 145.863 L1904.98 145.863 L1904.98 145.446 Q1904.98 142.507 1903.03 140.909 Q1901.11 139.289 1897.62 139.289 Q1895.39 139.289 1893.29 139.821 Q1891.18 140.354 1889.24 141.419 L1889.24 137.483 Q1891.57 136.581 1893.77 136.141 Q1895.97 135.678 1898.06 135.678 Q1903.68 135.678 1906.46 138.594 Q1909.24 141.511 1909.24 147.437 Z" fill="#000000" fill-rule="nonzero" fill-opacity="1" /><path clip-path="url(#clip740)" d="M1940.18 148.201 L1940.18 150.284 L1920.6 150.284 Q1920.88 154.682 1923.24 156.997 Q1925.62 159.289 1929.86 159.289 Q1932.31 159.289 1934.61 158.687 Q1936.92 158.085 1939.19 156.881 L1939.19 160.909 Q1936.9 161.881 1934.49 162.391 Q1932.08 162.9 1929.61 162.9 Q1923.4 162.9 1919.77 159.289 Q1916.16 155.678 1916.16 149.52 Q1916.16 143.155 1919.58 139.428 Q1923.03 135.678 1928.87 135.678 Q1934.1 135.678 1937.13 139.057 Q1940.18 142.414 1940.18 148.201 M1935.93 146.951 Q1935.88 143.456 1933.96 141.372 Q1932.06 139.289 1928.91 139.289 Q1925.35 139.289 1923.19 141.303 Q1921.06 143.317 1920.74 146.974 L1935.93 146.951 Z" fill="#000000" fill-rule="nonzero" fill-opacity="1" /><path clip-path="url(#clip740)" d="M1964.24 148.965 Q1964.24 144.335 1962.31 141.789 Q1960.42 139.243 1956.97 139.243 Q1953.54 139.243 1951.62 141.789 Q1949.72 144.335 1949.72 148.965 Q1949.72 153.571 1951.62 156.118 Q1953.54 158.664 1956.97 158.664 Q1960.42 158.664 1962.31 156.118 Q1964.24 153.571 1964.24 148.965 M1968.49 159.011 Q1968.49 165.631 1965.55 168.849 Q1962.62 172.09 1956.55 172.09 Q1954.31 172.09 1952.31 171.742 Q1950.32 171.418 1948.45 170.724 L1948.45 166.58 Q1950.32 167.599 1952.15 168.085 Q1953.98 168.571 1955.88 168.571 Q1960.07 168.571 1962.15 166.372 Q1964.24 164.196 1964.24 159.775 L1964.24 157.668 Q1962.92 159.96 1960.86 161.094 Q1958.8 162.229 1955.93 162.229 Q1951.16 162.229 1948.24 158.594 Q1945.32 154.96 1945.32 148.965 Q1945.32 142.946 1948.24 139.312 Q1951.16 135.678 1955.93 135.678 Q1958.8 135.678 1960.86 136.812 Q1962.92 137.946 1964.24 140.238 L1964.24 136.303 L1968.49 136.303 L1968.49 159.011 Z" fill="#000000" fill-rule="nonzero" fill-opacity="1" /><path clip-path="url(#clip740)" d="M1999.44 148.201 L1999.44 150.284 L1979.86 150.284 Q1980.14 154.682 1982.5 156.997 Q1984.88 159.289 1989.12 159.289 Q1991.57 159.289 1993.87 158.687 Q1996.18 158.085 1998.45 156.881 L1998.45 160.909 Q1996.16 161.881 1993.75 162.391 Q1991.34 162.9 1988.87 162.9 Q1982.66 162.9 1979.03 159.289 Q1975.42 155.678 1975.42 149.52 Q1975.42 143.155 1978.84 139.428 Q1982.29 135.678 1988.12 135.678 Q1993.36 135.678 1996.39 139.057 Q1999.44 142.414 1999.44 148.201 M1995.18 146.951 Q1995.14 143.456 1993.22 141.372 Q1991.32 139.289 1988.17 139.289 Q1984.61 139.289 1982.45 141.303 Q1980.32 143.317 1980 146.974 L1995.18 146.951 Z" fill="#000000" fill-rule="nonzero" fill-opacity="1" /><path clip-path="url(#clip740)" d="M2021.46 140.284 Q2020.74 139.868 2019.88 139.682 Q2019.05 139.474 2018.03 139.474 Q2014.42 139.474 2012.48 141.835 Q2010.55 144.173 2010.55 148.571 L2010.55 162.229 L2006.27 162.229 L2006.27 136.303 L2010.55 136.303 L2010.55 140.331 Q2011.9 137.969 2014.05 136.835 Q2016.2 135.678 2019.28 135.678 Q2019.72 135.678 2020.25 135.747 Q2020.79 135.794 2021.43 135.909 L2021.46 140.284 Z" fill="#000000" fill-rule="nonzero" fill-opacity="1" /><path clip-path="url(#clip740)" d="M2029.95 127.669 L2029.95 140.516 L2026.02 140.516 L2026.02 127.669 L2029.95 127.669 Z" fill="#000000" fill-rule="nonzero" fill-opacity="1" /><path clip-path="url(#clip740)" d="M2055.49 137.067 L2055.49 141.094 Q2053.68 140.169 2051.74 139.706 Q2049.79 139.243 2047.71 139.243 Q2044.54 139.243 2042.94 140.215 Q2041.36 141.187 2041.36 143.131 Q2041.36 144.613 2042.5 145.469 Q2043.63 146.303 2047.06 147.067 L2048.52 147.391 Q2053.05 148.363 2054.95 150.145 Q2056.87 151.905 2056.87 155.076 Q2056.87 158.687 2054 160.793 Q2051.16 162.9 2046.16 162.9 Q2044.07 162.9 2041.8 162.483 Q2039.56 162.09 2037.06 161.28 L2037.06 156.881 Q2039.42 158.108 2041.71 158.733 Q2044 159.335 2046.25 159.335 Q2049.26 159.335 2050.88 158.317 Q2052.5 157.275 2052.5 155.4 Q2052.5 153.664 2051.32 152.738 Q2050.16 151.812 2046.2 150.956 L2044.72 150.608 Q2040.76 149.775 2039 148.062 Q2037.24 146.326 2037.24 143.317 Q2037.24 139.659 2039.84 137.669 Q2042.43 135.678 2047.2 135.678 Q2049.56 135.678 2051.64 136.025 Q2053.73 136.372 2055.49 137.067 Z" fill="#000000" fill-rule="nonzero" fill-opacity="1" /><path clip-path="url(#clip740)" d="M2095.25 137.067 L2095.25 141.094 Q2093.45 140.169 2091.5 139.706 Q2089.56 139.243 2087.48 139.243 Q2084.3 139.243 2082.71 140.215 Q2081.13 141.187 2081.13 143.131 Q2081.13 144.613 2082.27 145.469 Q2083.4 146.303 2086.83 147.067 L2088.29 147.391 Q2092.82 148.363 2094.72 150.145 Q2096.64 151.905 2096.64 155.076 Q2096.64 158.687 2093.77 160.793 Q2090.92 162.9 2085.92 162.9 Q2083.84 162.9 2081.57 162.483 Q2079.33 162.09 2076.83 161.28 L2076.83 156.881 Q2079.19 158.108 2081.48 158.733 Q2083.77 159.335 2086.02 159.335 Q2089.03 159.335 2090.65 158.317 Q2092.27 157.275 2092.27 155.4 Q2092.27 153.664 2091.09 152.738 Q2089.93 151.812 2085.97 150.956 L2084.49 150.608 Q2080.53 149.775 2078.77 148.062 Q2077.01 146.326 2077.01 143.317 Q2077.01 139.659 2079.61 137.669 Q2082.2 135.678 2086.97 135.678 Q2089.33 135.678 2091.41 136.025 Q2093.49 136.372 2095.25 137.067 Z" fill="#000000" fill-rule="nonzero" fill-opacity="1" /><path clip-path="url(#clip740)" d="M2113.47 139.289 Q2110.04 139.289 2108.05 141.974 Q2106.06 144.636 2106.06 149.289 Q2106.06 153.942 2108.03 156.627 Q2110.02 159.289 2113.47 159.289 Q2116.87 159.289 2118.86 156.604 Q2120.86 153.918 2120.86 149.289 Q2120.86 144.682 2118.86 141.997 Q2116.87 139.289 2113.47 139.289 M2113.47 135.678 Q2119.03 135.678 2122.2 139.289 Q2125.37 142.9 2125.37 149.289 Q2125.37 155.655 2122.2 159.289 Q2119.03 162.9 2113.47 162.9 Q2107.89 162.9 2104.72 159.289 Q2101.57 155.655 2101.57 149.289 Q2101.57 142.9 2104.72 139.289 Q2107.89 135.678 2113.47 135.678 Z" fill="#000000" fill-rule="nonzero" fill-opacity="1" /><path clip-path="url(#clip740)" d="M2132.43 126.21 L2136.69 126.21 L2136.69 162.229 L2132.43 162.229 L2132.43 126.21 Z" fill="#000000" fill-rule="nonzero" fill-opacity="1" /><path clip-path="url(#clip740)" d="M2145.16 151.997 L2145.16 136.303 L2149.42 136.303 L2149.42 151.835 Q2149.42 155.516 2150.85 157.368 Q2152.29 159.196 2155.16 159.196 Q2158.61 159.196 2160.6 156.997 Q2162.61 154.798 2162.61 151.002 L2162.61 136.303 L2166.87 136.303 L2166.87 162.229 L2162.61 162.229 L2162.61 158.247 Q2161.06 160.608 2159 161.766 Q2156.97 162.9 2154.26 162.9 Q2149.79 162.9 2147.48 160.122 Q2145.16 157.344 2145.16 151.997 M2155.88 135.678 L2155.88 135.678 Z" fill="#000000" fill-rule="nonzero" fill-opacity="1" /><path clip-path="url(#clip740)" d="M2179.86 128.942 L2179.86 136.303 L2188.63 136.303 L2188.63 139.613 L2179.86 139.613 L2179.86 153.687 Q2179.86 156.858 2180.72 157.761 Q2181.6 158.664 2184.26 158.664 L2188.63 158.664 L2188.63 162.229 L2184.26 162.229 Q2179.33 162.229 2177.45 160.4 Q2175.58 158.548 2175.58 153.687 L2175.58 139.613 L2172.45 139.613 L2172.45 136.303 L2175.58 136.303 L2175.58 128.942 L2179.86 128.942 Z" fill="#000000" fill-rule="nonzero" fill-opacity="1" /><path clip-path="url(#clip740)" d="M2194.23 136.303 L2198.49 136.303 L2198.49 162.229 L2194.23 162.229 L2194.23 136.303 M2194.23 126.21 L2198.49 126.21 L2198.49 131.604 L2194.23 131.604 L2194.23 126.21 Z" fill="#000000" fill-rule="nonzero" fill-opacity="1" /><path clip-path="url(#clip740)" d="M2217.45 139.289 Q2214.03 139.289 2212.04 141.974 Q2210.04 144.636 2210.04 149.289 Q2210.04 153.942 2212.01 156.627 Q2214 159.289 2217.45 159.289 Q2220.85 159.289 2222.85 156.604 Q2224.84 153.918 2224.84 149.289 Q2224.84 144.682 2222.85 141.997 Q2220.85 139.289 2217.45 139.289 M2217.45 135.678 Q2223.01 135.678 2226.18 139.289 Q2229.35 142.9 2229.35 149.289 Q2229.35 155.655 2226.18 159.289 Q2223.01 162.9 2217.45 162.9 Q2211.87 162.9 2208.7 159.289 Q2205.55 155.655 2205.55 149.289 Q2205.55 142.9 2208.7 139.289 Q2211.87 135.678 2217.45 135.678 Z" fill="#000000" fill-rule="nonzero" fill-opacity="1" /><path clip-path="url(#clip740)" d="M2257.96 146.581 L2257.96 162.229 L2253.7 162.229 L2253.7 146.719 Q2253.7 143.039 2252.27 141.21 Q2250.83 139.382 2247.96 139.382 Q2244.51 139.382 2242.52 141.581 Q2240.53 143.78 2240.53 147.576 L2240.53 162.229 L2236.25 162.229 L2236.25 136.303 L2240.53 136.303 L2240.53 140.331 Q2242.06 137.993 2244.12 136.835 Q2246.2 135.678 2248.91 135.678 Q2253.38 135.678 2255.67 138.456 Q2257.96 141.21 2257.96 146.581 Z" fill="#000000" fill-rule="nonzero" fill-opacity="1" /><polyline clip-path="url(#clip740)" style="stroke:#3da44d; stroke-linecap:round; stroke-linejoin:round; stroke-width:4; stroke-opacity:1; fill:none" points="1629.2,196.789 1771.39,196.789 "/>
<path clip-path="url(#clip740)" d="M1822.96 182.171 L1822.96 187.101 Q1820.6 184.902 1817.92 183.814 Q1815.25 182.726 1812.25 182.726 Q1806.32 182.726 1803.17 186.36 Q1800.02 189.972 1800.02 196.823 Q1800.02 203.652 1803.17 207.286 Q1806.32 210.897 1812.25 210.897 Q1815.25 210.897 1817.92 209.809 Q1820.6 208.721 1822.96 206.522 L1822.96 211.407 Q1820.51 213.073 1817.75 213.907 Q1815.02 214.74 1811.97 214.74 Q1804.12 214.74 1799.61 209.948 Q1795.09 205.133 1795.09 196.823 Q1795.09 188.49 1799.61 183.698 Q1804.12 178.884 1811.97 178.884 Q1815.07 178.884 1817.8 179.717 Q1820.56 180.527 1822.96 182.171 Z" fill="#000000" fill-rule="nonzero" fill-opacity="1" /><path clip-path="url(#clip740)" d="M1840.05 191.129 Q1836.62 191.129 1834.63 193.814 Q1832.64 196.476 1832.64 201.129 Q1832.64 205.782 1834.61 208.467 Q1836.6 211.129 1840.05 211.129 Q1843.45 211.129 1845.44 208.444 Q1847.43 205.758 1847.43 201.129 Q1847.43 196.522 1845.44 193.837 Q1843.45 191.129 1840.05 191.129 M1840.05 187.518 Q1845.6 187.518 1848.77 191.129 Q1851.94 194.74 1851.94 201.129 Q1851.94 207.495 1848.77 211.129 Q1845.6 214.74 1840.05 214.74 Q1834.47 214.74 1831.3 211.129 Q1828.15 207.495 1828.15 201.129 Q1828.15 194.74 1831.3 191.129 Q1834.47 187.518 1840.05 187.518 Z" fill="#000000" fill-rule="nonzero" fill-opacity="1" /><path clip-path="url(#clip740)" d="M1879.19 193.12 Q1880.79 190.249 1883.01 188.884 Q1885.23 187.518 1888.24 187.518 Q1892.29 187.518 1894.49 190.365 Q1896.69 193.189 1896.69 198.421 L1896.69 214.069 L1892.41 214.069 L1892.41 198.559 Q1892.41 194.833 1891.09 193.027 Q1889.77 191.222 1887.06 191.222 Q1883.75 191.222 1881.83 193.421 Q1879.91 195.62 1879.91 199.416 L1879.91 214.069 L1875.62 214.069 L1875.62 198.559 Q1875.62 194.809 1874.31 193.027 Q1872.99 191.222 1870.23 191.222 Q1866.97 191.222 1865.05 193.444 Q1863.12 195.643 1863.12 199.416 L1863.12 214.069 L1858.84 214.069 L1858.84 188.143 L1863.12 188.143 L1863.12 192.171 Q1864.58 189.786 1866.62 188.652 Q1868.66 187.518 1871.46 187.518 Q1874.28 187.518 1876.25 188.953 Q1878.24 190.388 1879.19 193.12 Z" fill="#000000" fill-rule="nonzero" fill-opacity="1" /><path clip-path="url(#clip740)" d="M1909.31 210.18 L1909.31 223.93 L1905.02 223.93 L1905.02 188.143 L1909.31 188.143 L1909.31 192.078 Q1910.65 189.763 1912.68 188.652 Q1914.75 187.518 1917.59 187.518 Q1922.31 187.518 1925.25 191.268 Q1928.22 195.018 1928.22 201.129 Q1928.22 207.24 1925.25 210.99 Q1922.31 214.74 1917.59 214.74 Q1914.75 214.74 1912.68 213.629 Q1910.65 212.495 1909.31 210.18 M1923.8 201.129 Q1923.8 196.43 1921.85 193.768 Q1919.93 191.083 1916.55 191.083 Q1913.17 191.083 1911.23 193.768 Q1909.31 196.43 1909.31 201.129 Q1909.31 205.828 1911.23 208.513 Q1913.17 211.175 1916.55 211.175 Q1919.93 211.175 1921.85 208.513 Q1923.8 205.828 1923.8 201.129 Z" fill="#000000" fill-rule="nonzero" fill-opacity="1" /><path clip-path="url(#clip740)" d="M1934.84 203.837 L1934.84 188.143 L1939.1 188.143 L1939.1 203.675 Q1939.1 207.356 1940.53 209.208 Q1941.97 211.036 1944.84 211.036 Q1948.29 211.036 1950.28 208.837 Q1952.29 206.638 1952.29 202.842 L1952.29 188.143 L1956.55 188.143 L1956.55 214.069 L1952.29 214.069 L1952.29 210.087 Q1950.74 212.448 1948.68 213.606 Q1946.64 214.74 1943.93 214.74 Q1939.47 214.74 1937.15 211.962 Q1934.84 209.184 1934.84 203.837 M1945.56 187.518 L1945.56 187.518 Z" fill="#000000" fill-rule="nonzero" fill-opacity="1" /><path clip-path="url(#clip740)" d="M1969.54 180.782 L1969.54 188.143 L1978.31 188.143 L1978.31 191.453 L1969.54 191.453 L1969.54 205.527 Q1969.54 208.698 1970.39 209.601 Q1971.27 210.504 1973.93 210.504 L1978.31 210.504 L1978.31 214.069 L1973.93 214.069 Q1969 214.069 1967.13 212.24 Q1965.25 210.388 1965.25 205.527 L1965.25 191.453 L1962.13 191.453 L1962.13 188.143 L1965.25 188.143 L1965.25 180.782 L1969.54 180.782 Z" fill="#000000" fill-rule="nonzero" fill-opacity="1" /><path clip-path="url(#clip740)" d="M2006.09 200.041 L2006.09 202.124 L1986.5 202.124 Q1986.78 206.522 1989.14 208.837 Q1991.53 211.129 1995.76 211.129 Q1998.22 211.129 2000.51 210.527 Q2002.82 209.925 2005.09 208.721 L2005.09 212.749 Q2002.8 213.721 2000.39 214.231 Q1997.99 214.74 1995.51 214.74 Q1989.3 214.74 1985.67 211.129 Q1982.06 207.518 1982.06 201.36 Q1982.06 194.995 1985.49 191.268 Q1988.93 187.518 1994.77 187.518 Q2000 187.518 2003.03 190.897 Q2006.09 194.254 2006.09 200.041 M2001.83 198.791 Q2001.78 195.296 1999.86 193.212 Q1997.96 191.129 1994.81 191.129 Q1991.25 191.129 1989.1 193.143 Q1986.97 195.157 1986.64 198.814 L2001.83 198.791 Z" fill="#000000" fill-rule="nonzero" fill-opacity="1" /><path clip-path="url(#clip740)" d="M2030.14 192.078 L2030.14 178.05 L2034.4 178.05 L2034.4 214.069 L2030.14 214.069 L2030.14 210.18 Q2028.8 212.495 2026.74 213.629 Q2024.7 214.74 2021.83 214.74 Q2017.13 214.74 2014.17 210.99 Q2011.23 207.24 2011.23 201.129 Q2011.23 195.018 2014.17 191.268 Q2017.13 187.518 2021.83 187.518 Q2024.7 187.518 2026.74 188.652 Q2028.8 189.763 2030.14 192.078 M2015.62 201.129 Q2015.62 205.828 2017.55 208.513 Q2019.49 211.175 2022.87 211.175 Q2026.25 211.175 2028.19 208.513 Q2030.14 205.828 2030.14 201.129 Q2030.14 196.43 2028.19 193.768 Q2026.25 191.083 2022.87 191.083 Q2019.49 191.083 2017.55 193.768 Q2015.62 196.43 2015.62 201.129 Z" fill="#000000" fill-rule="nonzero" fill-opacity="1" /><path clip-path="url(#clip740)" d="M2053.63 179.509 L2082.87 179.509 L2082.87 183.444 L2070.6 183.444 L2070.6 214.069 L2065.9 214.069 L2065.9 183.444 L2053.63 183.444 L2053.63 179.509 Z" fill="#000000" fill-rule="nonzero" fill-opacity="1" /><path clip-path="url(#clip740)" d="M2097.8 189.138 L2097.8 193.12 Q2095.99 192.124 2094.17 191.638 Q2092.36 191.129 2090.51 191.129 Q2086.36 191.129 2084.07 193.768 Q2081.78 196.384 2081.78 201.129 Q2081.78 205.874 2084.07 208.513 Q2086.36 211.129 2090.51 211.129 Q2092.36 211.129 2094.17 210.643 Q2095.99 210.133 2097.8 209.138 L2097.8 213.073 Q2096.02 213.907 2094.1 214.323 Q2092.2 214.74 2090.05 214.74 Q2084.19 214.74 2080.74 211.059 Q2077.29 207.379 2077.29 201.129 Q2077.29 194.786 2080.76 191.152 Q2084.26 187.518 2090.32 187.518 Q2092.29 187.518 2094.17 187.935 Q2096.04 188.328 2097.8 189.138 Z" fill="#000000" fill-rule="nonzero" fill-opacity="1" /></svg>
