<?xml version="1.0" encoding="utf-8"?>
<svg xmlns="http://www.w3.org/2000/svg" xmlns:xlink="http://www.w3.org/1999/xlink" width="600" height="400" viewBox="0 0 2400 1600">
<defs>
  <clipPath id="clip610">
    <rect x="0" y="0" width="2400" height="1600"/>
  </clipPath>
</defs>
<path clip-path="url(#clip610)" d="M0 1600 L2400 1600 L2400 0 L0 0  Z" fill="#ffffff" fill-rule="evenodd" fill-opacity="1"/>
<defs>
  <clipPath id="clip611">
    <rect x="480" y="0" width="1681" height="1600"/>
  </clipPath>
</defs>
<path clip-path="url(#clip610)" d="M309.866 1423.18 L2352.76 1423.18 L2352.76 166.672 L309.866 166.672  Z" fill="#ffffff" fill-rule="evenodd" fill-opacity="1"/>
<defs>
  <clipPath id="clip612">
    <rect x="309" y="166" width="2044" height="1258"/>
  </clipPath>
</defs>
<polyline clip-path="url(#clip612)" style="stroke:#000000; stroke-linecap:round; stroke-linejoin:round; stroke-width:2; stroke-opacity:0.1; fill:none" points="773.421,1423.18 773.421,166.672 "/>
<polyline clip-path="url(#clip612)" style="stroke:#000000; stroke-linecap:round; stroke-linejoin:round; stroke-width:2; stroke-opacity:0.1; fill:none" points="1280.59,1423.18 1280.59,166.672 "/>
<polyline clip-path="url(#clip612)" style="stroke:#000000; stroke-linecap:round; stroke-linejoin:round; stroke-width:2; stroke-opacity:0.1; fill:none" points="1787.77,1423.18 1787.77,166.672 "/>
<polyline clip-path="url(#clip612)" style="stroke:#000000; stroke-linecap:round; stroke-linejoin:round; stroke-width:2; stroke-opacity:0.1; fill:none" points="2294.94,1423.18 2294.94,166.672 "/>
<polyline clip-path="url(#clip610)" style="stroke:#000000; stroke-linecap:round; stroke-linejoin:round; stroke-width:4; stroke-opacity:1; fill:none" points="309.866,1423.18 2352.76,1423.18 "/>
<polyline clip-path="url(#clip610)" style="stroke:#000000; stroke-linecap:round; stroke-linejoin:round; stroke-width:4; stroke-opacity:1; fill:none" points="773.421,1423.18 773.421,1404.28 "/>
<polyline clip-path="url(#clip610)" style="stroke:#000000; stroke-linecap:round; stroke-linejoin:round; stroke-width:4; stroke-opacity:1; fill:none" points="1280.59,1423.18 1280.59,1404.28 "/>
<polyline clip-path="url(#clip610)" style="stroke:#000000; stroke-linecap:round; stroke-linejoin:round; stroke-width:4; stroke-opacity:1; fill:none" points="1787.77,1423.18 1787.77,1404.28 "/>
<polyline clip-path="url(#clip610)" style="stroke:#000000; stroke-linecap:round; stroke-linejoin:round; stroke-width:4; stroke-opacity:1; fill:none" points="2294.94,1423.18 2294.94,1404.28 "/>
<path clip-path="url(#clip610)" d="M748.12 1451.02 L766.477 1451.02 L766.477 1454.96 L752.403 1454.96 L752.403 1463.43 Q753.421 1463.08 754.44 1462.92 Q755.458 1462.73 756.477 1462.73 Q762.264 1462.73 765.644 1465.9 Q769.023 1469.08 769.023 1474.49 Q769.023 1480.07 765.551 1483.17 Q762.079 1486.25 755.759 1486.25 Q753.583 1486.25 751.315 1485.88 Q749.07 1485.51 746.662 1484.77 L746.662 1480.07 Q748.745 1481.2 750.968 1481.76 Q753.19 1482.32 755.667 1482.32 Q759.671 1482.32 762.009 1480.21 Q764.347 1478.1 764.347 1474.49 Q764.347 1470.88 762.009 1468.77 Q759.671 1466.67 755.667 1466.67 Q753.792 1466.67 751.917 1467.08 Q750.065 1467.5 748.12 1468.38 L748.12 1451.02 Z" fill="#000000" fill-rule="nonzero" fill-opacity="1" /><path clip-path="url(#clip610)" d="M788.236 1454.1 Q784.625 1454.1 782.796 1457.66 Q780.991 1461.2 780.991 1468.33 Q780.991 1475.44 782.796 1479.01 Q784.625 1482.55 788.236 1482.55 Q791.87 1482.55 793.676 1479.01 Q795.505 1475.44 795.505 1468.33 Q795.505 1461.2 793.676 1457.66 Q791.87 1454.1 788.236 1454.1 M788.236 1450.39 Q794.046 1450.39 797.102 1455 Q800.18 1459.58 800.18 1468.33 Q800.18 1477.06 797.102 1481.67 Q794.046 1486.25 788.236 1486.25 Q782.426 1486.25 779.347 1481.67 Q776.292 1477.06 776.292 1468.33 Q776.292 1459.58 779.347 1455 Q782.426 1450.39 788.236 1450.39 Z" fill="#000000" fill-rule="nonzero" fill-opacity="1" /><path clip-path="url(#clip610)" d="M1240.2 1481.64 L1247.84 1481.64 L1247.84 1455.28 L1239.53 1456.95 L1239.53 1452.69 L1247.79 1451.02 L1252.47 1451.02 L1252.47 1481.64 L1260.11 1481.64 L1260.11 1485.58 L1240.2 1485.58 L1240.2 1481.64 Z" fill="#000000" fill-rule="nonzero" fill-opacity="1" /><path clip-path="url(#clip610)" d="M1279.55 1454.1 Q1275.94 1454.1 1274.11 1457.66 Q1272.31 1461.2 1272.31 1468.33 Q1272.31 1475.44 1274.11 1479.01 Q1275.94 1482.55 1279.55 1482.55 Q1283.19 1482.55 1284.99 1479.01 Q1286.82 1475.44 1286.82 1468.33 Q1286.82 1461.2 1284.99 1457.66 Q1283.19 1454.1 1279.55 1454.1 M1279.55 1450.39 Q1285.36 1450.39 1288.42 1455 Q1291.5 1459.58 1291.5 1468.33 Q1291.5 1477.06 1288.42 1481.67 Q1285.36 1486.25 1279.55 1486.25 Q1273.74 1486.25 1270.66 1481.67 Q1267.61 1477.06 1267.61 1468.33 Q1267.61 1459.58 1270.66 1455 Q1273.74 1450.39 1279.55 1450.39 Z" fill="#000000" fill-rule="nonzero" fill-opacity="1" /><path clip-path="url(#clip610)" d="M1309.71 1454.1 Q1306.1 1454.1 1304.27 1457.66 Q1302.47 1461.2 1302.47 1468.33 Q1302.47 1475.44 1304.27 1479.01 Q1306.1 1482.55 1309.71 1482.55 Q1313.35 1482.55 1315.15 1479.01 Q1316.98 1475.44 1316.98 1468.33 Q1316.98 1461.2 1315.15 1457.66 Q1313.35 1454.1 1309.71 1454.1 M1309.71 1450.39 Q1315.52 1450.39 1318.58 1455 Q1321.66 1459.58 1321.66 1468.33 Q1321.66 1477.06 1318.58 1481.67 Q1315.52 1486.25 1309.71 1486.25 Q1303.9 1486.25 1300.82 1481.67 Q1297.77 1477.06 1297.77 1468.33 Q1297.77 1459.58 1300.82 1455 Q1303.9 1450.39 1309.71 1450.39 Z" fill="#000000" fill-rule="nonzero" fill-opacity="1" /><path clip-path="url(#clip610)" d="M1747.37 1481.64 L1755.01 1481.64 L1755.01 1455.28 L1746.7 1456.95 L1746.7 1452.69 L1754.97 1451.02 L1759.64 1451.02 L1759.64 1481.64 L1767.28 1481.64 L1767.28 1485.58 L1747.37 1485.58 L1747.37 1481.64 Z" fill="#000000" fill-rule="nonzero" fill-opacity="1" /><path clip-path="url(#clip610)" d="M1776.77 1451.02 L1795.13 1451.02 L1795.13 1454.96 L1781.05 1454.96 L1781.05 1463.43 Q1782.07 1463.08 1783.09 1462.92 Q1784.11 1462.73 1785.13 1462.73 Q1790.91 1462.73 1794.29 1465.9 Q1797.67 1469.08 1797.67 1474.49 Q1797.67 1480.07 1794.2 1483.17 Q1790.73 1486.25 1784.41 1486.25 Q1782.23 1486.25 1779.97 1485.88 Q1777.72 1485.51 1775.31 1484.77 L1775.31 1480.07 Q1777.4 1481.2 1779.62 1481.76 Q1781.84 1482.32 1784.32 1482.32 Q1788.32 1482.32 1790.66 1480.21 Q1793 1478.1 1793 1474.49 Q1793 1470.88 1790.66 1468.77 Q1788.32 1466.67 1784.32 1466.67 Q1782.44 1466.67 1780.57 1467.08 Q1778.72 1467.5 1776.77 1468.38 L1776.77 1451.02 Z" fill="#000000" fill-rule="nonzero" fill-opacity="1" /><path clip-path="url(#clip610)" d="M1816.89 1454.1 Q1813.28 1454.1 1811.45 1457.66 Q1809.64 1461.2 1809.64 1468.33 Q1809.64 1475.44 1811.45 1479.01 Q1813.28 1482.55 1816.89 1482.55 Q1820.52 1482.55 1822.33 1479.01 Q1824.15 1475.44 1824.15 1468.33 Q1824.15 1461.2 1822.33 1457.66 Q1820.52 1454.1 1816.89 1454.1 M1816.89 1450.39 Q1822.7 1450.39 1825.75 1455 Q1828.83 1459.58 1828.83 1468.33 Q1828.83 1477.06 1825.75 1481.67 Q1822.7 1486.25 1816.89 1486.25 Q1811.08 1486.25 1808 1481.67 Q1804.94 1477.06 1804.94 1468.33 Q1804.94 1459.58 1808 1455 Q1811.08 1450.39 1816.89 1450.39 Z" fill="#000000" fill-rule="nonzero" fill-opacity="1" /><path clip-path="url(#clip610)" d="M2258.63 1481.64 L2274.95 1481.64 L2274.95 1485.58 L2253.01 1485.58 L2253.01 1481.64 Q2255.67 1478.89 2260.25 1474.26 Q2264.86 1469.61 2266.04 1468.27 Q2268.28 1465.74 2269.16 1464.01 Q2270.07 1462.25 2270.07 1460.56 Q2270.07 1457.8 2268.12 1456.07 Q2266.2 1454.33 2263.1 1454.33 Q2260.9 1454.33 2258.45 1455.09 Q2256.01 1455.86 2253.24 1457.41 L2253.24 1452.69 Q2256.06 1451.55 2258.51 1450.97 Q2260.97 1450.39 2263.01 1450.39 Q2268.38 1450.39 2271.57 1453.08 Q2274.76 1455.77 2274.76 1460.26 Q2274.76 1462.39 2273.95 1464.31 Q2273.17 1466.2 2271.06 1468.8 Q2270.48 1469.47 2267.38 1472.69 Q2264.28 1475.88 2258.63 1481.64 Z" fill="#000000" fill-rule="nonzero" fill-opacity="1" /><path clip-path="url(#clip610)" d="M2294.76 1454.1 Q2291.15 1454.1 2289.32 1457.66 Q2287.52 1461.2 2287.52 1468.33 Q2287.52 1475.44 2289.32 1479.01 Q2291.15 1482.55 2294.76 1482.55 Q2298.4 1482.55 2300.2 1479.01 Q2302.03 1475.44 2302.03 1468.33 Q2302.03 1461.2 2300.2 1457.66 Q2298.4 1454.1 2294.76 1454.1 M2294.76 1450.39 Q2300.57 1450.39 2303.63 1455 Q2306.71 1459.58 2306.71 1468.33 Q2306.71 1477.06 2303.63 1481.67 Q2300.57 1486.25 2294.76 1486.25 Q2288.95 1486.25 2285.88 1481.67 Q2282.82 1477.06 2282.82 1468.33 Q2282.82 1459.58 2285.88 1455 Q2288.95 1450.39 2294.76 1450.39 Z" fill="#000000" fill-rule="nonzero" fill-opacity="1" /><path clip-path="url(#clip610)" d="M2324.93 1454.1 Q2321.32 1454.1 2319.49 1457.66 Q2317.68 1461.2 2317.68 1468.33 Q2317.68 1475.44 2319.49 1479.01 Q2321.32 1482.55 2324.93 1482.55 Q2328.56 1482.55 2330.37 1479.01 Q2332.2 1475.44 2332.2 1468.33 Q2332.2 1461.2 2330.37 1457.66 Q2328.56 1454.1 2324.93 1454.1 M2324.93 1450.39 Q2330.74 1450.39 2333.79 1455 Q2336.87 1459.58 2336.87 1468.33 Q2336.87 1477.06 2333.79 1481.67 Q2330.74 1486.25 2324.93 1486.25 Q2319.12 1486.25 2316.04 1481.67 Q2312.98 1477.06 2312.98 1468.33 Q2312.98 1459.58 2316.04 1455 Q2319.12 1450.39 2324.93 1450.39 Z" fill="#000000" fill-rule="nonzero" fill-opacity="1" /><path clip-path="url(#clip610)" d="M1108.34 1520.52 L1114.77 1520.52 L1114.77 1562.63 L1137.9 1562.63 L1137.9 1568.04 L1108.34 1568.04 L1108.34 1520.52 Z" fill="#000000" fill-rule="nonzero" fill-opacity="1" /><path clip-path="url(#clip610)" d="M1160.6 1550.12 Q1153.5 1550.12 1150.76 1551.75 Q1148.03 1553.37 1148.03 1557.29 Q1148.03 1560.4 1150.06 1562.25 Q1152.13 1564.07 1155.67 1564.07 Q1160.53 1564.07 1163.46 1560.63 Q1166.42 1557.16 1166.42 1551.43 L1166.42 1550.12 L1160.6 1550.12 M1172.28 1547.71 L1172.28 1568.04 L1166.42 1568.04 L1166.42 1562.63 Q1164.42 1565.88 1161.43 1567.44 Q1158.43 1568.97 1154.11 1568.97 Q1148.63 1568.97 1145.38 1565.91 Q1142.17 1562.82 1142.17 1557.67 Q1142.17 1551.65 1146.18 1548.6 Q1150.22 1545.54 1158.21 1545.54 L1166.42 1545.54 L1166.42 1544.97 Q1166.42 1540.93 1163.75 1538.73 Q1161.11 1536.5 1156.3 1536.5 Q1153.25 1536.5 1150.35 1537.23 Q1147.45 1537.97 1144.78 1539.43 L1144.78 1534.02 Q1147.99 1532.78 1151.02 1532.17 Q1154.04 1531.54 1156.91 1531.54 Q1164.64 1531.54 1168.46 1535.55 Q1172.28 1539.56 1172.28 1547.71 Z" fill="#000000" fill-rule="nonzero" fill-opacity="1" /><path clip-path="url(#clip610)" d="M1190.14 1522.27 L1190.14 1532.4 L1202.2 1532.4 L1202.2 1536.95 L1190.14 1536.95 L1190.14 1556.3 Q1190.14 1560.66 1191.31 1561.9 Q1192.52 1563.14 1196.18 1563.14 L1202.2 1563.14 L1202.2 1568.04 L1196.18 1568.04 Q1189.4 1568.04 1186.83 1565.53 Q1184.25 1562.98 1184.25 1556.3 L1184.25 1536.95 L1179.95 1536.95 L1179.95 1532.4 L1184.25 1532.4 L1184.25 1522.27 L1190.14 1522.27 Z" fill="#000000" fill-rule="nonzero" fill-opacity="1" /><path clip-path="url(#clip610)" d="M1215.69 1522.27 L1215.69 1532.4 L1227.76 1532.4 L1227.76 1536.95 L1215.69 1536.95 L1215.69 1556.3 Q1215.69 1560.66 1216.87 1561.9 Q1218.08 1563.14 1221.74 1563.14 L1227.76 1563.14 L1227.76 1568.04 L1221.74 1568.04 Q1214.96 1568.04 1212.38 1565.53 Q1209.81 1562.98 1209.81 1556.3 L1209.81 1536.95 L1205.51 1536.95 L1205.51 1532.4 L1209.81 1532.4 L1209.81 1522.27 L1215.69 1522.27 Z" fill="#000000" fill-rule="nonzero" fill-opacity="1" /><path clip-path="url(#clip610)" d="M1235.46 1532.4 L1241.32 1532.4 L1241.32 1568.04 L1235.46 1568.04 L1235.46 1532.4 M1235.46 1518.52 L1241.32 1518.52 L1241.32 1525.93 L1235.46 1525.93 L1235.46 1518.52 Z" fill="#000000" fill-rule="nonzero" fill-opacity="1" /><path clip-path="url(#clip610)" d="M1279.22 1533.76 L1279.22 1539.24 Q1276.74 1537.87 1274.23 1537.2 Q1271.74 1536.5 1269.2 1536.5 Q1263.5 1536.5 1260.35 1540.13 Q1257.2 1543.73 1257.2 1550.25 Q1257.2 1556.78 1260.35 1560.4 Q1263.5 1564 1269.2 1564 Q1271.74 1564 1274.23 1563.33 Q1276.74 1562.63 1279.22 1561.26 L1279.22 1566.68 Q1276.77 1567.82 1274.13 1568.39 Q1271.52 1568.97 1268.56 1568.97 Q1260.51 1568.97 1255.77 1563.91 Q1251.02 1558.85 1251.02 1550.25 Q1251.02 1541.53 1255.8 1536.53 Q1260.6 1531.54 1268.94 1531.54 Q1271.65 1531.54 1274.23 1532.11 Q1276.8 1532.65 1279.22 1533.76 Z" fill="#000000" fill-rule="nonzero" fill-opacity="1" /><path clip-path="url(#clip610)" d="M1319.9 1548.76 L1319.9 1551.62 L1292.97 1551.62 Q1293.36 1557.67 1296.6 1560.85 Q1299.88 1564 1305.7 1564 Q1309.08 1564 1312.23 1563.17 Q1315.41 1562.35 1318.53 1560.69 L1318.53 1566.23 Q1315.38 1567.57 1312.07 1568.27 Q1308.76 1568.97 1305.35 1568.97 Q1296.82 1568.97 1291.83 1564 Q1286.86 1559.04 1286.86 1550.57 Q1286.86 1541.82 1291.57 1536.69 Q1296.32 1531.54 1304.34 1531.54 Q1311.53 1531.54 1315.7 1536.18 Q1319.9 1540.8 1319.9 1548.76 M1314.04 1547.04 Q1313.98 1542.23 1311.34 1539.37 Q1308.73 1536.5 1304.4 1536.5 Q1299.5 1536.5 1296.54 1539.27 Q1293.61 1542.04 1293.16 1547.07 L1314.04 1547.04 Z" fill="#000000" fill-rule="nonzero" fill-opacity="1" /><path clip-path="url(#clip610)" d="M1372.96 1533.45 L1372.96 1538.98 Q1370.48 1537.71 1367.8 1537.07 Q1365.13 1536.44 1362.26 1536.44 Q1357.9 1536.44 1355.71 1537.77 Q1353.54 1539.11 1353.54 1541.79 Q1353.54 1543.82 1355.1 1545 Q1356.66 1546.15 1361.37 1547.2 L1363.38 1547.64 Q1369.62 1548.98 1372.23 1551.43 Q1374.87 1553.85 1374.87 1558.21 Q1374.87 1563.17 1370.92 1566.07 Q1367.01 1568.97 1360.13 1568.97 Q1357.27 1568.97 1354.15 1568.39 Q1351.06 1567.85 1347.62 1566.74 L1347.62 1560.69 Q1350.87 1562.38 1354.02 1563.24 Q1357.17 1564.07 1360.26 1564.07 Q1364.4 1564.07 1366.62 1562.66 Q1368.85 1561.23 1368.85 1558.65 Q1368.85 1556.27 1367.23 1554.99 Q1365.64 1553.72 1360.2 1552.54 L1358.16 1552.07 Q1352.72 1550.92 1350.3 1548.56 Q1347.88 1546.18 1347.88 1542.04 Q1347.88 1537.01 1351.44 1534.27 Q1355.01 1531.54 1361.56 1531.54 Q1364.81 1531.54 1367.67 1532.01 Q1370.54 1532.49 1372.96 1533.45 Z" fill="#000000" fill-rule="nonzero" fill-opacity="1" /><path clip-path="url(#clip610)" d="M1384.19 1532.4 L1390.05 1532.4 L1390.05 1568.04 L1384.19 1568.04 L1384.19 1532.4 M1384.19 1518.52 L1390.05 1518.52 L1390.05 1525.93 L1384.19 1525.93 L1384.19 1518.52 Z" fill="#000000" fill-rule="nonzero" fill-opacity="1" /><path clip-path="url(#clip610)" d="M1399.76 1532.4 L1427.58 1532.4 L1427.58 1537.74 L1405.55 1563.37 L1427.58 1563.37 L1427.58 1568.04 L1398.96 1568.04 L1398.96 1562.7 L1420.99 1537.07 L1399.76 1537.07 L1399.76 1532.4 Z" fill="#000000" fill-rule="nonzero" fill-opacity="1" /><path clip-path="url(#clip610)" d="M1467.01 1548.76 L1467.01 1551.62 L1440.08 1551.62 Q1440.47 1557.67 1443.71 1560.85 Q1446.99 1564 1452.82 1564 Q1456.19 1564 1459.34 1563.17 Q1462.52 1562.35 1465.64 1560.69 L1465.64 1566.23 Q1462.49 1567.57 1459.18 1568.27 Q1455.87 1568.97 1452.47 1568.97 Q1443.94 1568.97 1438.94 1564 Q1433.97 1559.04 1433.97 1550.57 Q1433.97 1541.82 1438.68 1536.69 Q1443.43 1531.54 1451.45 1531.54 Q1458.64 1531.54 1462.81 1536.18 Q1467.01 1540.8 1467.01 1548.76 M1461.16 1547.04 Q1461.09 1542.23 1458.45 1539.37 Q1455.84 1536.5 1451.51 1536.5 Q1446.61 1536.5 1443.65 1539.27 Q1440.72 1542.04 1440.28 1547.07 L1461.16 1547.04 Z" fill="#000000" fill-rule="nonzero" fill-opacity="1" /><path clip-path="url(#clip610)" d="M1478.12 1559.96 L1484.84 1559.96 L1484.84 1565.43 L1479.62 1575.62 L1475.51 1575.62 L1478.12 1565.43 L1478.12 1559.96 Z" fill="#000000" fill-rule="nonzero" fill-opacity="1" /><path clip-path="url(#clip610)" d="M1518.32 1520.52 L1526.98 1520.52 L1548.05 1560.28 L1548.05 1520.52 L1554.29 1520.52 L1554.29 1568.04 L1545.63 1568.04 L1524.56 1528.29 L1524.56 1568.04 L1518.32 1568.04 L1518.32 1520.52 Z" fill="#000000" fill-rule="nonzero" fill-opacity="1" /><polyline clip-path="url(#clip612)" style="stroke:#000000; stroke-linecap:round; stroke-linejoin:round; stroke-width:2; stroke-opacity:0.1; fill:none" points="309.866,1387.62 2352.76,1387.62 "/>
<polyline clip-path="url(#clip612)" style="stroke:#000000; stroke-linecap:round; stroke-linejoin:round; stroke-width:2; stroke-opacity:0.1; fill:none" points="309.866,1124.54 2352.76,1124.54 "/>
<polyline clip-path="url(#clip612)" style="stroke:#000000; stroke-linecap:round; stroke-linejoin:round; stroke-width:2; stroke-opacity:0.1; fill:none" points="309.866,861.453 2352.76,861.453 "/>
<polyline clip-path="url(#clip612)" style="stroke:#000000; stroke-linecap:round; stroke-linejoin:round; stroke-width:2; stroke-opacity:0.1; fill:none" points="309.866,598.37 2352.76,598.37 "/>
<polyline clip-path="url(#clip612)" style="stroke:#000000; stroke-linecap:round; stroke-linejoin:round; stroke-width:2; stroke-opacity:0.1; fill:none" points="309.866,335.288 2352.76,335.288 "/>
<polyline clip-path="url(#clip610)" style="stroke:#000000; stroke-linecap:round; stroke-linejoin:round; stroke-width:4; stroke-opacity:1; fill:none" points="309.866,1423.18 309.866,166.672 "/>
<polyline clip-path="url(#clip610)" style="stroke:#000000; stroke-linecap:round; stroke-linejoin:round; stroke-width:4; stroke-opacity:1; fill:none" points="309.866,1387.62 328.763,1387.62 "/>
<polyline clip-path="url(#clip610)" style="stroke:#000000; stroke-linecap:round; stroke-linejoin:round; stroke-width:4; stroke-opacity:1; fill:none" points="309.866,1124.54 328.763,1124.54 "/>
<polyline clip-path="url(#clip610)" style="stroke:#000000; stroke-linecap:round; stroke-linejoin:round; stroke-width:4; stroke-opacity:1; fill:none" points="309.866,861.453 328.763,861.453 "/>
<polyline clip-path="url(#clip610)" style="stroke:#000000; stroke-linecap:round; stroke-linejoin:round; stroke-width:4; stroke-opacity:1; fill:none" points="309.866,598.37 328.763,598.37 "/>
<polyline clip-path="url(#clip610)" style="stroke:#000000; stroke-linecap:round; stroke-linejoin:round; stroke-width:4; stroke-opacity:1; fill:none" points="309.866,335.288 328.763,335.288 "/>
<path clip-path="url(#clip610)" d="M126.205 1373.42 Q122.593 1373.42 120.765 1376.98 Q118.959 1380.52 118.959 1387.65 Q118.959 1394.76 120.765 1398.32 Q122.593 1401.87 126.205 1401.87 Q129.839 1401.87 131.644 1398.32 Q133.473 1394.76 133.473 1387.65 Q133.473 1380.52 131.644 1376.98 Q129.839 1373.42 126.205 1373.42 M126.205 1369.71 Q132.015 1369.71 135.07 1374.32 Q138.149 1378.9 138.149 1387.65 Q138.149 1396.38 135.07 1400.99 Q132.015 1405.57 126.205 1405.57 Q120.394 1405.57 117.316 1400.99 Q114.26 1396.38 114.26 1387.65 Q114.26 1378.9 117.316 1374.32 Q120.394 1369.71 126.205 1369.71 Z" fill="#000000" fill-rule="nonzero" fill-opacity="1" /><path clip-path="url(#clip610)" d="M146.366 1399.02 L151.251 1399.02 L151.251 1404.9 L146.366 1404.9 L146.366 1399.02 Z" fill="#000000" fill-rule="nonzero" fill-opacity="1" /><path clip-path="url(#clip610)" d="M171.436 1373.42 Q167.825 1373.42 165.996 1376.98 Q164.19 1380.52 164.19 1387.65 Q164.19 1394.76 165.996 1398.32 Q167.825 1401.87 171.436 1401.87 Q175.07 1401.87 176.876 1398.32 Q178.704 1394.76 178.704 1387.65 Q178.704 1380.52 176.876 1376.98 Q175.07 1373.42 171.436 1373.42 M171.436 1369.71 Q177.246 1369.71 180.301 1374.32 Q183.38 1378.9 183.38 1387.65 Q183.38 1396.38 180.301 1400.99 Q177.246 1405.57 171.436 1405.57 Q165.626 1405.57 162.547 1400.99 Q159.491 1396.38 159.491 1387.65 Q159.491 1378.9 162.547 1374.32 Q165.626 1369.71 171.436 1369.71 Z" fill="#000000" fill-rule="nonzero" fill-opacity="1" /><path clip-path="url(#clip610)" d="M201.598 1373.42 Q197.987 1373.42 196.158 1376.98 Q194.352 1380.52 194.352 1387.65 Q194.352 1394.76 196.158 1398.32 Q197.987 1401.87 201.598 1401.87 Q205.232 1401.87 207.037 1398.32 Q208.866 1394.76 208.866 1387.65 Q208.866 1380.52 207.037 1376.98 Q205.232 1373.42 201.598 1373.42 M201.598 1369.71 Q207.408 1369.71 210.463 1374.32 Q213.542 1378.9 213.542 1387.65 Q213.542 1396.38 210.463 1400.99 Q207.408 1405.57 201.598 1405.57 Q195.787 1405.57 192.709 1400.99 Q189.653 1396.38 189.653 1387.65 Q189.653 1378.9 192.709 1374.32 Q195.787 1369.71 201.598 1369.71 Z" fill="#000000" fill-rule="nonzero" fill-opacity="1" /><path clip-path="url(#clip610)" d="M231.76 1373.42 Q228.148 1373.42 226.32 1376.98 Q224.514 1380.52 224.514 1387.65 Q224.514 1394.76 226.32 1398.32 Q228.148 1401.87 231.76 1401.87 Q235.394 1401.87 237.199 1398.32 Q239.028 1394.76 239.028 1387.65 Q239.028 1380.52 237.199 1376.98 Q235.394 1373.42 231.76 1373.42 M231.76 1369.71 Q237.57 1369.71 240.625 1374.32 Q243.704 1378.9 243.704 1387.65 Q243.704 1396.38 240.625 1400.99 Q237.57 1405.57 231.76 1405.57 Q225.949 1405.57 222.871 1400.99 Q219.815 1396.38 219.815 1387.65 Q219.815 1378.9 222.871 1374.32 Q225.949 1369.71 231.76 1369.71 Z" fill="#000000" fill-rule="nonzero" fill-opacity="1" /><path clip-path="url(#clip610)" d="M261.921 1373.42 Q258.31 1373.42 256.482 1376.98 Q254.676 1380.52 254.676 1387.65 Q254.676 1394.76 256.482 1398.32 Q258.31 1401.87 261.921 1401.87 Q265.556 1401.87 267.361 1398.32 Q269.19 1394.76 269.19 1387.65 Q269.19 1380.52 267.361 1376.98 Q265.556 1373.42 261.921 1373.42 M261.921 1369.71 Q267.732 1369.71 270.787 1374.32 Q273.866 1378.9 273.866 1387.65 Q273.866 1396.38 270.787 1400.99 Q267.732 1405.57 261.921 1405.57 Q256.111 1405.57 253.033 1400.99 Q249.977 1396.38 249.977 1387.65 Q249.977 1378.9 253.033 1374.32 Q256.111 1369.71 261.921 1369.71 Z" fill="#000000" fill-rule="nonzero" fill-opacity="1" /><path clip-path="url(#clip610)" d="M127.2 1110.33 Q123.589 1110.33 121.76 1113.9 Q119.955 1117.44 119.955 1124.57 Q119.955 1131.68 121.76 1135.24 Q123.589 1138.78 127.2 1138.78 Q130.834 1138.78 132.64 1135.24 Q134.468 1131.68 134.468 1124.57 Q134.468 1117.44 132.64 1113.9 Q130.834 1110.33 127.2 1110.33 M127.2 1106.63 Q133.01 1106.63 136.066 1111.24 Q139.144 1115.82 139.144 1124.57 Q139.144 1133.3 136.066 1137.9 Q133.01 1142.49 127.2 1142.49 Q121.39 1142.49 118.311 1137.9 Q115.256 1133.3 115.256 1124.57 Q115.256 1115.82 118.311 1111.24 Q121.39 1106.63 127.2 1106.63 Z" fill="#000000" fill-rule="nonzero" fill-opacity="1" /><path clip-path="url(#clip610)" d="M147.362 1135.94 L152.246 1135.94 L152.246 1141.82 L147.362 1141.82 L147.362 1135.94 Z" fill="#000000" fill-rule="nonzero" fill-opacity="1" /><path clip-path="url(#clip610)" d="M172.431 1110.33 Q168.82 1110.33 166.991 1113.9 Q165.186 1117.44 165.186 1124.57 Q165.186 1131.68 166.991 1135.24 Q168.82 1138.78 172.431 1138.78 Q176.065 1138.78 177.871 1135.24 Q179.7 1131.68 179.7 1124.57 Q179.7 1117.44 177.871 1113.9 Q176.065 1110.33 172.431 1110.33 M172.431 1106.63 Q178.241 1106.63 181.297 1111.24 Q184.376 1115.82 184.376 1124.57 Q184.376 1133.3 181.297 1137.9 Q178.241 1142.49 172.431 1142.49 Q166.621 1142.49 163.542 1137.9 Q160.487 1133.3 160.487 1124.57 Q160.487 1115.82 163.542 1111.24 Q166.621 1106.63 172.431 1106.63 Z" fill="#000000" fill-rule="nonzero" fill-opacity="1" /><path clip-path="url(#clip610)" d="M202.593 1110.33 Q198.982 1110.33 197.153 1113.9 Q195.348 1117.44 195.348 1124.57 Q195.348 1131.68 197.153 1135.24 Q198.982 1138.78 202.593 1138.78 Q206.227 1138.78 208.033 1135.24 Q209.861 1131.68 209.861 1124.57 Q209.861 1117.44 208.033 1113.9 Q206.227 1110.33 202.593 1110.33 M202.593 1106.63 Q208.403 1106.63 211.459 1111.24 Q214.537 1115.82 214.537 1124.57 Q214.537 1133.3 211.459 1137.9 Q208.403 1142.49 202.593 1142.49 Q196.783 1142.49 193.704 1137.9 Q190.649 1133.3 190.649 1124.57 Q190.649 1115.82 193.704 1111.24 Q196.783 1106.63 202.593 1106.63 Z" fill="#000000" fill-rule="nonzero" fill-opacity="1" /><path clip-path="url(#clip610)" d="M232.755 1110.33 Q229.144 1110.33 227.315 1113.9 Q225.51 1117.44 225.51 1124.57 Q225.51 1131.68 227.315 1135.24 Q229.144 1138.78 232.755 1138.78 Q236.389 1138.78 238.195 1135.24 Q240.023 1131.68 240.023 1124.57 Q240.023 1117.44 238.195 1113.9 Q236.389 1110.33 232.755 1110.33 M232.755 1106.63 Q238.565 1106.63 241.621 1111.24 Q244.699 1115.82 244.699 1124.57 Q244.699 1133.3 241.621 1137.9 Q238.565 1142.49 232.755 1142.49 Q226.945 1142.49 223.866 1137.9 Q220.811 1133.3 220.811 1124.57 Q220.811 1115.82 223.866 1111.24 Q226.945 1106.63 232.755 1106.63 Z" fill="#000000" fill-rule="nonzero" fill-opacity="1" /><path clip-path="url(#clip610)" d="M252.963 1107.26 L271.32 1107.26 L271.32 1111.19 L257.246 1111.19 L257.246 1119.66 Q258.264 1119.32 259.283 1119.15 Q260.301 1118.97 261.32 1118.97 Q267.107 1118.97 270.486 1122.14 Q273.866 1125.31 273.866 1130.73 Q273.866 1136.31 270.394 1139.41 Q266.921 1142.49 260.602 1142.49 Q258.426 1142.49 256.158 1142.12 Q253.912 1141.75 251.505 1141.01 L251.505 1136.31 Q253.588 1137.44 255.81 1138 Q258.033 1138.55 260.509 1138.55 Q264.514 1138.55 266.852 1136.45 Q269.19 1134.34 269.19 1130.73 Q269.19 1127.12 266.852 1125.01 Q264.514 1122.9 260.509 1122.9 Q258.634 1122.9 256.759 1123.32 Q254.908 1123.74 252.963 1124.62 L252.963 1107.26 Z" fill="#000000" fill-rule="nonzero" fill-opacity="1" /><path clip-path="url(#clip610)" d="M126.205 847.252 Q122.593 847.252 120.765 850.816 Q118.959 854.358 118.959 861.488 Q118.959 868.594 120.765 872.159 Q122.593 875.701 126.205 875.701 Q129.839 875.701 131.644 872.159 Q133.473 868.594 133.473 861.488 Q133.473 854.358 131.644 850.816 Q129.839 847.252 126.205 847.252 M126.205 843.548 Q132.015 843.548 135.07 848.154 Q138.149 852.738 138.149 861.488 Q138.149 870.215 135.07 874.821 Q132.015 879.404 126.205 879.404 Q120.394 879.404 117.316 874.821 Q114.26 870.215 114.26 861.488 Q114.26 852.738 117.316 848.154 Q120.394 843.548 126.205 843.548 Z" fill="#000000" fill-rule="nonzero" fill-opacity="1" /><path clip-path="url(#clip610)" d="M146.366 872.853 L151.251 872.853 L151.251 878.733 L146.366 878.733 L146.366 872.853 Z" fill="#000000" fill-rule="nonzero" fill-opacity="1" /><path clip-path="url(#clip610)" d="M171.436 847.252 Q167.825 847.252 165.996 850.816 Q164.19 854.358 164.19 861.488 Q164.19 868.594 165.996 872.159 Q167.825 875.701 171.436 875.701 Q175.07 875.701 176.876 872.159 Q178.704 868.594 178.704 861.488 Q178.704 854.358 176.876 850.816 Q175.07 847.252 171.436 847.252 M171.436 843.548 Q177.246 843.548 180.301 848.154 Q183.38 852.738 183.38 861.488 Q183.38 870.215 180.301 874.821 Q177.246 879.404 171.436 879.404 Q165.626 879.404 162.547 874.821 Q159.491 870.215 159.491 861.488 Q159.491 852.738 162.547 848.154 Q165.626 843.548 171.436 843.548 Z" fill="#000000" fill-rule="nonzero" fill-opacity="1" /><path clip-path="url(#clip610)" d="M201.598 847.252 Q197.987 847.252 196.158 850.816 Q194.352 854.358 194.352 861.488 Q194.352 868.594 196.158 872.159 Q197.987 875.701 201.598 875.701 Q205.232 875.701 207.037 872.159 Q208.866 868.594 208.866 861.488 Q208.866 854.358 207.037 850.816 Q205.232 847.252 201.598 847.252 M201.598 843.548 Q207.408 843.548 210.463 848.154 Q213.542 852.738 213.542 861.488 Q213.542 870.215 210.463 874.821 Q207.408 879.404 201.598 879.404 Q195.787 879.404 192.709 874.821 Q189.653 870.215 189.653 861.488 Q189.653 852.738 192.709 848.154 Q195.787 843.548 201.598 843.548 Z" fill="#000000" fill-rule="nonzero" fill-opacity="1" /><path clip-path="url(#clip610)" d="M222.57 874.798 L230.209 874.798 L230.209 848.432 L221.898 850.099 L221.898 845.84 L230.162 844.173 L234.838 844.173 L234.838 874.798 L242.477 874.798 L242.477 878.733 L222.57 878.733 L222.57 874.798 Z" fill="#000000" fill-rule="nonzero" fill-opacity="1" /><path clip-path="url(#clip610)" d="M261.921 847.252 Q258.31 847.252 256.482 850.816 Q254.676 854.358 254.676 861.488 Q254.676 868.594 256.482 872.159 Q258.31 875.701 261.921 875.701 Q265.556 875.701 267.361 872.159 Q269.19 868.594 269.19 861.488 Q269.19 854.358 267.361 850.816 Q265.556 847.252 261.921 847.252 M261.921 843.548 Q267.732 843.548 270.787 848.154 Q273.866 852.738 273.866 861.488 Q273.866 870.215 270.787 874.821 Q267.732 879.404 261.921 879.404 Q256.111 879.404 253.033 874.821 Q249.977 870.215 249.977 861.488 Q249.977 852.738 253.033 848.154 Q256.111 843.548 261.921 843.548 Z" fill="#000000" fill-rule="nonzero" fill-opacity="1" /><path clip-path="url(#clip610)" d="M127.2 584.169 Q123.589 584.169 121.76 587.734 Q119.955 591.275 119.955 598.405 Q119.955 605.512 121.76 609.076 Q123.589 612.618 127.2 612.618 Q130.834 612.618 132.64 609.076 Q134.468 605.512 134.468 598.405 Q134.468 591.275 132.64 587.734 Q130.834 584.169 127.2 584.169 M127.2 580.465 Q133.01 580.465 136.066 585.072 Q139.144 589.655 139.144 598.405 Q139.144 607.132 136.066 611.738 Q133.01 616.322 127.2 616.322 Q121.39 616.322 118.311 611.738 Q115.256 607.132 115.256 598.405 Q115.256 589.655 118.311 585.072 Q121.39 580.465 127.2 580.465 Z" fill="#000000" fill-rule="nonzero" fill-opacity="1" /><path clip-path="url(#clip610)" d="M147.362 609.771 L152.246 609.771 L152.246 615.65 L147.362 615.65 L147.362 609.771 Z" fill="#000000" fill-rule="nonzero" fill-opacity="1" /><path clip-path="url(#clip610)" d="M172.431 584.169 Q168.82 584.169 166.991 587.734 Q165.186 591.275 165.186 598.405 Q165.186 605.512 166.991 609.076 Q168.82 612.618 172.431 612.618 Q176.065 612.618 177.871 609.076 Q179.7 605.512 179.7 598.405 Q179.7 591.275 177.871 587.734 Q176.065 584.169 172.431 584.169 M172.431 580.465 Q178.241 580.465 181.297 585.072 Q184.376 589.655 184.376 598.405 Q184.376 607.132 181.297 611.738 Q178.241 616.322 172.431 616.322 Q166.621 616.322 163.542 611.738 Q160.487 607.132 160.487 598.405 Q160.487 589.655 163.542 585.072 Q166.621 580.465 172.431 580.465 Z" fill="#000000" fill-rule="nonzero" fill-opacity="1" /><path clip-path="url(#clip610)" d="M202.593 584.169 Q198.982 584.169 197.153 587.734 Q195.348 591.275 195.348 598.405 Q195.348 605.512 197.153 609.076 Q198.982 612.618 202.593 612.618 Q206.227 612.618 208.033 609.076 Q209.861 605.512 209.861 598.405 Q209.861 591.275 208.033 587.734 Q206.227 584.169 202.593 584.169 M202.593 580.465 Q208.403 580.465 211.459 585.072 Q214.537 589.655 214.537 598.405 Q214.537 607.132 211.459 611.738 Q208.403 616.322 202.593 616.322 Q196.783 616.322 193.704 611.738 Q190.649 607.132 190.649 598.405 Q190.649 589.655 193.704 585.072 Q196.783 580.465 202.593 580.465 Z" fill="#000000" fill-rule="nonzero" fill-opacity="1" /><path clip-path="url(#clip610)" d="M223.565 611.715 L231.204 611.715 L231.204 585.35 L222.894 587.016 L222.894 582.757 L231.158 581.09 L235.834 581.09 L235.834 611.715 L243.472 611.715 L243.472 615.65 L223.565 615.65 L223.565 611.715 Z" fill="#000000" fill-rule="nonzero" fill-opacity="1" /><path clip-path="url(#clip610)" d="M252.963 581.09 L271.32 581.09 L271.32 585.026 L257.246 585.026 L257.246 593.498 Q258.264 593.15 259.283 592.988 Q260.301 592.803 261.32 592.803 Q267.107 592.803 270.486 595.975 Q273.866 599.146 273.866 604.562 Q273.866 610.141 270.394 613.243 Q266.921 616.322 260.602 616.322 Q258.426 616.322 256.158 615.951 Q253.912 615.581 251.505 614.84 L251.505 610.141 Q253.588 611.275 255.81 611.831 Q258.033 612.386 260.509 612.386 Q264.514 612.386 266.852 610.28 Q269.19 608.174 269.19 604.562 Q269.19 600.951 266.852 598.845 Q264.514 596.738 260.509 596.738 Q258.634 596.738 256.759 597.155 Q254.908 597.572 252.963 598.451 L252.963 581.09 Z" fill="#000000" fill-rule="nonzero" fill-opacity="1" /><path clip-path="url(#clip610)" d="M126.205 321.086 Q122.593 321.086 120.765 324.651 Q118.959 328.193 118.959 335.322 Q118.959 342.429 120.765 345.994 Q122.593 349.535 126.205 349.535 Q129.839 349.535 131.644 345.994 Q133.473 342.429 133.473 335.322 Q133.473 328.193 131.644 324.651 Q129.839 321.086 126.205 321.086 M126.205 317.383 Q132.015 317.383 135.07 321.989 Q138.149 326.572 138.149 335.322 Q138.149 344.049 135.07 348.656 Q132.015 353.239 126.205 353.239 Q120.394 353.239 117.316 348.656 Q114.26 344.049 114.26 335.322 Q114.26 326.572 117.316 321.989 Q120.394 317.383 126.205 317.383 Z" fill="#000000" fill-rule="nonzero" fill-opacity="1" /><path clip-path="url(#clip610)" d="M146.366 346.688 L151.251 346.688 L151.251 352.568 L146.366 352.568 L146.366 346.688 Z" fill="#000000" fill-rule="nonzero" fill-opacity="1" /><path clip-path="url(#clip610)" d="M171.436 321.086 Q167.825 321.086 165.996 324.651 Q164.19 328.193 164.19 335.322 Q164.19 342.429 165.996 345.994 Q167.825 349.535 171.436 349.535 Q175.07 349.535 176.876 345.994 Q178.704 342.429 178.704 335.322 Q178.704 328.193 176.876 324.651 Q175.07 321.086 171.436 321.086 M171.436 317.383 Q177.246 317.383 180.301 321.989 Q183.38 326.572 183.38 335.322 Q183.38 344.049 180.301 348.656 Q177.246 353.239 171.436 353.239 Q165.626 353.239 162.547 348.656 Q159.491 344.049 159.491 335.322 Q159.491 326.572 162.547 321.989 Q165.626 317.383 171.436 317.383 Z" fill="#000000" fill-rule="nonzero" fill-opacity="1" /><path clip-path="url(#clip610)" d="M201.598 321.086 Q197.987 321.086 196.158 324.651 Q194.352 328.193 194.352 335.322 Q194.352 342.429 196.158 345.994 Q197.987 349.535 201.598 349.535 Q205.232 349.535 207.037 345.994 Q208.866 342.429 208.866 335.322 Q208.866 328.193 207.037 324.651 Q205.232 321.086 201.598 321.086 M201.598 317.383 Q207.408 317.383 210.463 321.989 Q213.542 326.572 213.542 335.322 Q213.542 344.049 210.463 348.656 Q207.408 353.239 201.598 353.239 Q195.787 353.239 192.709 348.656 Q189.653 344.049 189.653 335.322 Q189.653 326.572 192.709 321.989 Q195.787 317.383 201.598 317.383 Z" fill="#000000" fill-rule="nonzero" fill-opacity="1" /><path clip-path="url(#clip610)" d="M225.787 348.633 L242.107 348.633 L242.107 352.568 L220.162 352.568 L220.162 348.633 Q222.824 345.878 227.408 341.248 Q232.014 336.596 233.195 335.253 Q235.44 332.73 236.32 330.994 Q237.222 329.235 237.222 327.545 Q237.222 324.79 235.278 323.054 Q233.357 321.318 230.255 321.318 Q228.056 321.318 225.602 322.082 Q223.172 322.846 220.394 324.397 L220.394 319.674 Q223.218 318.54 225.672 317.961 Q228.125 317.383 230.162 317.383 Q235.533 317.383 238.727 320.068 Q241.922 322.753 241.922 327.244 Q241.922 329.373 241.111 331.295 Q240.324 333.193 238.218 335.785 Q237.639 336.457 234.537 339.674 Q231.435 342.869 225.787 348.633 Z" fill="#000000" fill-rule="nonzero" fill-opacity="1" /><path clip-path="url(#clip610)" d="M261.921 321.086 Q258.31 321.086 256.482 324.651 Q254.676 328.193 254.676 335.322 Q254.676 342.429 256.482 345.994 Q258.31 349.535 261.921 349.535 Q265.556 349.535 267.361 345.994 Q269.19 342.429 269.19 335.322 Q269.19 328.193 267.361 324.651 Q265.556 321.086 261.921 321.086 M261.921 317.383 Q267.732 317.383 270.787 321.989 Q273.866 326.572 273.866 335.322 Q273.866 344.049 270.787 348.656 Q267.732 353.239 261.921 353.239 Q256.111 353.239 253.033 348.656 Q249.977 344.049 249.977 335.322 Q249.977 326.572 253.033 321.989 Q256.111 317.383 261.921 317.383 Z" fill="#000000" fill-rule="nonzero" fill-opacity="1" /><path clip-path="url(#clip610)" d="M29.4065 815.312 L34.9447 815.312 Q33.6716 817.795 33.035 820.468 Q32.3984 823.142 32.3984 826.007 Q32.3984 830.367 33.7352 832.563 Q35.072 834.728 37.7456 834.728 Q39.7826 834.728 40.9603 833.168 Q42.1061 831.608 43.1565 826.898 L43.6021 824.893 Q44.9389 818.654 47.3897 816.044 Q49.8086 813.402 54.1691 813.402 Q59.1344 813.402 62.0308 817.349 Q64.9272 821.264 64.9272 828.139 Q64.9272 831.004 64.3543 834.123 Q63.8132 837.21 62.6992 840.648 L56.6518 840.648 Q58.3387 837.401 59.198 834.25 Q60.0256 831.099 60.0256 828.012 Q60.0256 823.874 58.6251 821.646 Q57.1929 819.418 54.6147 819.418 Q52.2276 819.418 50.9545 821.041 Q49.6813 822.633 48.5037 828.075 L48.0262 830.112 Q46.8804 835.555 44.5251 837.974 Q42.138 840.393 38.0002 840.393 Q32.9713 840.393 30.2341 836.828 Q27.4968 833.263 27.4968 826.707 Q27.4968 823.46 27.9743 820.596 Q28.4517 817.731 29.4065 815.312 Z" fill="#000000" fill-rule="nonzero" fill-opacity="1" /><path clip-path="url(#clip610)" d="M18.2347 798.284 L28.3562 798.284 L28.3562 786.221 L32.9077 786.221 L32.9077 798.284 L52.2594 798.284 Q56.6199 798.284 57.8613 797.106 Q59.1026 795.897 59.1026 792.236 L59.1026 786.221 L64.0042 786.221 L64.0042 792.236 Q64.0042 799.016 61.4897 801.594 Q58.9434 804.172 52.2594 804.172 L32.9077 804.172 L32.9077 808.469 L28.3562 808.469 L28.3562 804.172 L18.2347 804.172 L18.2347 798.284 Z" fill="#000000" fill-rule="nonzero" fill-opacity="1" /><path clip-path="url(#clip610)" d="M33.7671 755.061 L14.479 755.061 L14.479 749.204 L64.0042 749.204 L64.0042 755.061 L58.657 755.061 Q61.8398 756.907 63.3994 759.74 Q64.9272 762.54 64.9272 766.487 Q64.9272 772.948 59.771 777.022 Q54.6147 781.065 46.212 781.065 Q37.8093 781.065 32.6531 777.022 Q27.4968 772.948 27.4968 766.487 Q27.4968 762.54 29.0564 759.74 Q30.5842 756.907 33.7671 755.061 M46.212 775.017 Q52.6732 775.017 56.3653 772.375 Q60.0256 769.702 60.0256 765.055 Q60.0256 760.408 56.3653 757.734 Q52.6732 755.061 46.212 755.061 Q39.7508 755.061 36.0905 757.734 Q32.3984 760.408 32.3984 765.055 Q32.3984 769.702 36.0905 772.375 Q39.7508 775.017 46.212 775.017 Z" fill="#000000" fill-rule="nonzero" fill-opacity="1" /><path clip-path="url(#clip610)" d="M400.587 30.2134 L400.587 37.0536 Q396.594 35.1439 393.052 34.2064 Q389.51 33.2689 386.212 33.2689 Q380.483 33.2689 377.358 35.4911 Q374.267 37.7133 374.267 41.8105 Q374.267 45.248 376.316 47.0188 Q378.399 48.7549 384.163 49.8313 L388.399 50.6994 Q396.246 52.1924 399.962 55.9771 Q403.712 59.7271 403.712 66.0465 Q403.712 73.5812 398.642 77.4701 Q393.608 81.3589 383.851 81.3589 Q380.17 81.3589 376.003 80.5256 Q371.872 79.6923 367.427 78.0603 L367.427 70.8382 Q371.698 73.234 375.795 74.4493 Q379.892 75.6645 383.851 75.6645 Q389.858 75.6645 393.121 73.3034 Q396.385 70.9423 396.385 66.5674 Q396.385 62.7479 394.024 60.5952 Q391.698 58.4424 386.351 57.366 L382.08 56.5327 Q374.233 54.9702 370.726 51.6369 Q367.219 48.3036 367.219 42.3661 Q367.219 35.4911 372.045 31.5328 Q376.906 27.5745 385.413 27.5745 Q389.059 27.5745 392.844 28.2342 Q396.628 28.8939 400.587 30.2134 Z" fill="#000000" fill-rule="nonzero" fill-opacity="1" /><path clip-path="url(#clip610)" d="M420.691 30.4217 L420.691 41.4633 L433.85 41.4633 L433.85 46.4286 L420.691 46.4286 L420.691 67.5396 Q420.691 72.2965 421.975 73.6506 Q423.295 75.0048 427.288 75.0048 L433.85 75.0048 L433.85 80.352 L427.288 80.352 Q419.892 80.352 417.08 77.609 Q414.267 74.8312 414.267 67.5396 L414.267 46.4286 L409.58 46.4286 L409.58 41.4633 L414.267 41.4633 L414.267 30.4217 L420.691 30.4217 Z" fill="#000000" fill-rule="nonzero" fill-opacity="1" /><path clip-path="url(#clip610)" d="M459.927 60.8035 Q452.184 60.8035 449.198 62.5743 Q446.211 64.3451 446.211 68.616 Q446.211 72.0187 448.434 74.0326 Q450.691 76.0117 454.545 76.0117 Q459.857 76.0117 463.052 72.2618 Q466.281 68.4771 466.281 62.2271 L466.281 60.8035 L459.927 60.8035 M472.67 58.1646 L472.67 80.352 L466.281 80.352 L466.281 74.4493 Q464.093 77.9909 460.829 79.6923 Q457.566 81.3589 452.843 81.3589 Q446.871 81.3589 443.329 78.0256 Q439.823 74.6576 439.823 69.0326 Q439.823 62.4702 444.198 59.1368 Q448.607 55.8035 457.322 55.8035 L466.281 55.8035 L466.281 55.1785 Q466.281 50.7688 463.364 48.373 Q460.482 45.9425 455.239 45.9425 Q451.906 45.9425 448.746 46.7411 Q445.586 47.5397 442.67 49.1369 L442.67 43.2341 Q446.177 41.88 449.475 41.2203 Q452.774 40.5258 455.899 40.5258 Q464.336 40.5258 468.503 44.9008 Q472.67 49.2758 472.67 58.1646 Z" fill="#000000" fill-rule="nonzero" fill-opacity="1" /><path clip-path="url(#clip610)" d="M518.155 56.8799 L518.155 80.352 L511.767 80.352 L511.767 57.0882 Q511.767 51.5674 509.614 48.8244 Q507.461 46.0814 503.156 46.0814 Q497.982 46.0814 494.996 49.3799 Q492.01 52.6785 492.01 58.373 L492.01 80.352 L485.586 80.352 L485.586 41.4633 L492.01 41.4633 L492.01 47.505 Q494.301 43.998 497.392 42.2619 Q500.517 40.5258 504.579 40.5258 Q511.281 40.5258 514.718 44.6925 Q518.155 48.8244 518.155 56.8799 Z" fill="#000000" fill-rule="nonzero" fill-opacity="1" /><path clip-path="url(#clip610)" d="M556.489 47.3661 L556.489 26.3245 L562.877 26.3245 L562.877 80.352 L556.489 80.352 L556.489 74.5187 Q554.475 77.9909 551.384 79.6923 Q548.329 81.3589 544.023 81.3589 Q536.975 81.3589 532.53 75.734 Q528.121 70.109 528.121 60.9424 Q528.121 51.7758 532.53 46.1508 Q536.975 40.5258 544.023 40.5258 Q548.329 40.5258 551.384 42.2272 Q554.475 43.8939 556.489 47.3661 M534.718 60.9424 Q534.718 67.991 537.6 72.0187 Q540.516 76.0117 545.586 76.0117 Q550.655 76.0117 553.572 72.0187 Q556.489 67.991 556.489 60.9424 Q556.489 53.8938 553.572 49.9008 Q550.655 45.873 545.586 45.873 Q540.516 45.873 537.6 49.9008 Q534.718 53.8938 534.718 60.9424 Z" fill="#000000" fill-rule="nonzero" fill-opacity="1" /><path clip-path="url(#clip610)" d="M593.711 60.8035 Q585.968 60.8035 582.982 62.5743 Q579.995 64.3451 579.995 68.616 Q579.995 72.0187 582.218 74.0326 Q584.475 76.0117 588.329 76.0117 Q593.641 76.0117 596.836 72.2618 Q600.065 68.4771 600.065 62.2271 L600.065 60.8035 L593.711 60.8035 M606.454 58.1646 L606.454 80.352 L600.065 80.352 L600.065 74.4493 Q597.877 77.9909 594.613 79.6923 Q591.35 81.3589 586.627 81.3589 Q580.655 81.3589 577.113 78.0256 Q573.607 74.6576 573.607 69.0326 Q573.607 62.4702 577.982 59.1368 Q582.391 55.8035 591.106 55.8035 L600.065 55.8035 L600.065 55.1785 Q600.065 50.7688 597.148 48.373 Q594.266 45.9425 589.023 45.9425 Q585.69 45.9425 582.53 46.7411 Q579.37 47.5397 576.454 49.1369 L576.454 43.2341 Q579.961 41.88 583.259 41.2203 Q586.558 40.5258 589.683 40.5258 Q598.12 40.5258 602.287 44.9008 Q606.454 49.2758 606.454 58.1646 Z" fill="#000000" fill-rule="nonzero" fill-opacity="1" /><path clip-path="url(#clip610)" d="M642.148 47.4355 Q641.071 46.8105 639.787 46.5327 Q638.537 46.2202 637.009 46.2202 Q631.592 46.2202 628.676 49.7619 Q625.794 53.2688 625.794 59.866 L625.794 80.352 L619.37 80.352 L619.37 41.4633 L625.794 41.4633 L625.794 47.505 Q627.808 43.9633 631.037 42.2619 Q634.266 40.5258 638.884 40.5258 Q639.544 40.5258 640.342 40.63 Q641.141 40.6994 642.113 40.873 L642.148 47.4355 Z" fill="#000000" fill-rule="nonzero" fill-opacity="1" /><path clip-path="url(#clip610)" d="M673.189 47.3661 L673.189 26.3245 L679.578 26.3245 L679.578 80.352 L673.189 80.352 L673.189 74.5187 Q671.175 77.9909 668.085 79.6923 Q665.03 81.3589 660.724 81.3589 Q653.676 81.3589 649.231 75.734 Q644.821 70.109 644.821 60.9424 Q644.821 51.7758 649.231 46.1508 Q653.676 40.5258 660.724 40.5258 Q665.03 40.5258 668.085 42.2272 Q671.175 43.8939 673.189 47.3661 M651.419 60.9424 Q651.419 67.991 654.301 72.0187 Q657.217 76.0117 662.287 76.0117 Q667.356 76.0117 670.273 72.0187 Q673.189 67.991 673.189 60.9424 Q673.189 53.8938 670.273 49.9008 Q667.356 45.873 662.287 45.873 Q657.217 45.873 654.301 49.9008 Q651.419 53.8938 651.419 60.9424 Z" fill="#000000" fill-rule="nonzero" fill-opacity="1" /><path clip-path="url(#clip610)" d="M740.932 47.3661 L740.932 26.3245 L747.321 26.3245 L747.321 80.352 L740.932 80.352 L740.932 74.5187 Q738.918 77.9909 735.828 79.6923 Q732.772 81.3589 728.467 81.3589 Q721.418 81.3589 716.974 75.734 Q712.564 70.109 712.564 60.9424 Q712.564 51.7758 716.974 46.1508 Q721.418 40.5258 728.467 40.5258 Q732.772 40.5258 735.828 42.2272 Q738.918 43.8939 740.932 47.3661 M719.161 60.9424 Q719.161 67.991 722.043 72.0187 Q724.96 76.0117 730.029 76.0117 Q735.099 76.0117 738.015 72.0187 Q740.932 67.991 740.932 60.9424 Q740.932 53.8938 738.015 49.9008 Q735.099 45.873 730.029 45.873 Q724.96 45.873 722.043 49.9008 Q719.161 53.8938 719.161 60.9424 Z" fill="#000000" fill-rule="nonzero" fill-opacity="1" /><path clip-path="url(#clip610)" d="M793.744 59.3104 L793.744 62.4354 L764.369 62.4354 Q764.786 69.0326 768.328 72.5048 Q771.904 75.9423 778.258 75.9423 Q781.939 75.9423 785.376 75.0395 Q788.848 74.1368 792.251 72.3312 L792.251 78.3728 Q788.814 79.8312 785.203 80.5951 Q781.592 81.3589 777.876 81.3589 Q768.571 81.3589 763.119 75.9423 Q757.703 70.5257 757.703 61.2896 Q757.703 51.741 762.842 46.1508 Q768.015 40.5258 776.765 40.5258 Q784.612 40.5258 789.161 45.5952 Q793.744 50.6299 793.744 59.3104 M787.355 57.4355 Q787.286 52.1924 784.404 49.0674 Q781.557 45.9425 776.835 45.9425 Q771.487 45.9425 768.258 48.9633 Q765.064 51.9841 764.578 57.4702 L787.355 57.4355 Z" fill="#000000" fill-rule="nonzero" fill-opacity="1" /><path clip-path="url(#clip610)" d="M799.647 41.4633 L806.418 41.4633 L818.571 74.102 L830.723 41.4633 L837.494 41.4633 L822.911 80.352 L814.23 80.352 L799.647 41.4633 Z" fill="#000000" fill-rule="nonzero" fill-opacity="1" /><path clip-path="url(#clip610)" d="M846.313 41.4633 L852.702 41.4633 L852.702 80.352 L846.313 80.352 L846.313 41.4633 M846.313 26.3245 L852.702 26.3245 L852.702 34.4147 L846.313 34.4147 L846.313 26.3245 Z" fill="#000000" fill-rule="nonzero" fill-opacity="1" /><path clip-path="url(#clip610)" d="M883.744 60.8035 Q876.001 60.8035 873.015 62.5743 Q870.029 64.3451 870.029 68.616 Q870.029 72.0187 872.251 74.0326 Q874.508 76.0117 878.362 76.0117 Q883.674 76.0117 886.869 72.2618 Q890.098 68.4771 890.098 62.2271 L890.098 60.8035 L883.744 60.8035 M896.487 58.1646 L896.487 80.352 L890.098 80.352 L890.098 74.4493 Q887.91 77.9909 884.647 79.6923 Q881.383 81.3589 876.661 81.3589 Q870.688 81.3589 867.147 78.0256 Q863.64 74.6576 863.64 69.0326 Q863.64 62.4702 868.015 59.1368 Q872.424 55.8035 881.14 55.8035 L890.098 55.8035 L890.098 55.1785 Q890.098 50.7688 887.181 48.373 Q884.299 45.9425 879.056 45.9425 Q875.723 45.9425 872.563 46.7411 Q869.404 47.5397 866.487 49.1369 L866.487 43.2341 Q869.994 41.88 873.292 41.2203 Q876.591 40.5258 879.716 40.5258 Q888.153 40.5258 892.32 44.9008 Q896.487 49.2758 896.487 58.1646 Z" fill="#000000" fill-rule="nonzero" fill-opacity="1" /><path clip-path="url(#clip610)" d="M915.966 30.4217 L915.966 41.4633 L929.125 41.4633 L929.125 46.4286 L915.966 46.4286 L915.966 67.5396 Q915.966 72.2965 917.251 73.6506 Q918.57 75.0048 922.563 75.0048 L929.125 75.0048 L929.125 80.352 L922.563 80.352 Q915.167 80.352 912.355 77.609 Q909.542 74.8312 909.542 67.5396 L909.542 46.4286 L904.855 46.4286 L904.855 41.4633 L909.542 41.4633 L909.542 30.4217 L915.966 30.4217 Z" fill="#000000" fill-rule="nonzero" fill-opacity="1" /><path clip-path="url(#clip610)" d="M937.528 41.4633 L943.917 41.4633 L943.917 80.352 L937.528 80.352 L937.528 41.4633 M937.528 26.3245 L943.917 26.3245 L943.917 34.4147 L937.528 34.4147 L937.528 26.3245 Z" fill="#000000" fill-rule="nonzero" fill-opacity="1" /><path clip-path="url(#clip610)" d="M972.354 45.9425 Q967.216 45.9425 964.229 49.9702 Q961.243 53.9633 961.243 60.9424 Q961.243 67.9215 964.195 71.9493 Q967.181 75.9423 972.354 75.9423 Q977.459 75.9423 980.445 71.9145 Q983.431 67.8868 983.431 60.9424 Q983.431 54.0327 980.445 50.0049 Q977.459 45.9425 972.354 45.9425 M972.354 40.5258 Q980.688 40.5258 985.445 45.9425 Q990.202 51.3591 990.202 60.9424 Q990.202 70.4909 985.445 75.9423 Q980.688 81.3589 972.354 81.3589 Q963.986 81.3589 959.23 75.9423 Q954.507 70.4909 954.507 60.9424 Q954.507 51.3591 959.23 45.9425 Q963.986 40.5258 972.354 40.5258 Z" fill="#000000" fill-rule="nonzero" fill-opacity="1" /><path clip-path="url(#clip610)" d="M1033.12 56.8799 L1033.12 80.352 L1026.73 80.352 L1026.73 57.0882 Q1026.73 51.5674 1024.58 48.8244 Q1022.42 46.0814 1018.12 46.0814 Q1012.94 46.0814 1009.96 49.3799 Q1006.97 52.6785 1006.97 58.373 L1006.97 80.352 L1000.55 80.352 L1000.55 41.4633 L1006.97 41.4633 L1006.97 47.505 Q1009.26 43.998 1012.35 42.2619 Q1015.48 40.5258 1019.54 40.5258 Q1026.24 40.5258 1029.68 44.6925 Q1033.12 48.8244 1033.12 56.8799 Z" fill="#000000" fill-rule="nonzero" fill-opacity="1" /><path clip-path="url(#clip610)" d="M1083.53 45.9425 Q1078.4 45.9425 1075.41 49.9702 Q1072.42 53.9633 1072.42 60.9424 Q1072.42 67.9215 1075.37 71.9493 Q1078.36 75.9423 1083.53 75.9423 Q1088.64 75.9423 1091.62 71.9145 Q1094.61 67.8868 1094.61 60.9424 Q1094.61 54.0327 1091.62 50.0049 Q1088.64 45.9425 1083.53 45.9425 M1083.53 40.5258 Q1091.87 40.5258 1096.62 45.9425 Q1101.38 51.3591 1101.38 60.9424 Q1101.38 70.4909 1096.62 75.9423 Q1091.87 81.3589 1083.53 81.3589 Q1075.17 81.3589 1070.41 75.9423 Q1065.69 70.4909 1065.69 60.9424 Q1065.69 51.3591 1070.41 45.9425 Q1075.17 40.5258 1083.53 40.5258 Z" fill="#000000" fill-rule="nonzero" fill-opacity="1" /><path clip-path="url(#clip610)" d="M1131.66 26.3245 L1131.66 31.637 L1125.55 31.637 Q1122.11 31.637 1120.76 33.0259 Q1119.44 34.4147 1119.44 38.0258 L1119.44 41.4633 L1129.96 41.4633 L1129.96 46.4286 L1119.44 46.4286 L1119.44 80.352 L1113.01 80.352 L1113.01 46.4286 L1106.9 46.4286 L1106.9 41.4633 L1113.01 41.4633 L1113.01 38.755 Q1113.01 32.262 1116.03 29.3106 Q1119.06 26.3245 1125.62 26.3245 L1131.66 26.3245 Z" fill="#000000" fill-rule="nonzero" fill-opacity="1" /><path clip-path="url(#clip610)" d="M1189.89 48.9286 Q1192.28 44.623 1195.62 42.5744 Q1198.95 40.5258 1203.46 40.5258 Q1209.54 40.5258 1212.84 44.7966 Q1216.14 49.0327 1216.14 56.8799 L1216.14 80.352 L1209.71 80.352 L1209.71 57.0882 Q1209.71 51.498 1207.74 48.7897 Q1205.76 46.0814 1201.69 46.0814 Q1196.73 46.0814 1193.85 49.3799 Q1190.96 52.6785 1190.96 58.373 L1190.96 80.352 L1184.54 80.352 L1184.54 57.0882 Q1184.54 51.4633 1182.56 48.7897 Q1180.58 46.0814 1176.45 46.0814 Q1171.55 46.0814 1168.67 49.4147 Q1165.79 52.7133 1165.79 58.373 L1165.79 80.352 L1159.37 80.352 L1159.37 41.4633 L1165.79 41.4633 L1165.79 47.505 Q1167.98 43.9286 1171.03 42.2272 Q1174.09 40.5258 1178.29 40.5258 Q1182.53 40.5258 1185.48 42.6786 Q1188.46 44.8314 1189.89 48.9286 Z" fill="#000000" fill-rule="nonzero" fill-opacity="1" /><path clip-path="url(#clip610)" d="M1262.14 59.3104 L1262.14 62.4354 L1232.77 62.4354 Q1233.19 69.0326 1236.73 72.5048 Q1240.3 75.9423 1246.66 75.9423 Q1250.34 75.9423 1253.78 75.0395 Q1257.25 74.1368 1260.65 72.3312 L1260.65 78.3728 Q1257.21 79.8312 1253.6 80.5951 Q1249.99 81.3589 1246.28 81.3589 Q1236.97 81.3589 1231.52 75.9423 Q1226.1 70.5257 1226.1 61.2896 Q1226.1 51.741 1231.24 46.1508 Q1236.42 40.5258 1245.17 40.5258 Q1253.01 40.5258 1257.56 45.5952 Q1262.14 50.6299 1262.14 59.3104 M1255.76 57.4355 Q1255.69 52.1924 1252.8 49.0674 Q1249.96 45.9425 1245.23 45.9425 Q1239.89 45.9425 1236.66 48.9633 Q1233.46 51.9841 1232.98 57.4702 L1255.76 57.4355 Z" fill="#000000" fill-rule="nonzero" fill-opacity="1" /><path clip-path="url(#clip610)" d="M1290.3 60.8035 Q1282.56 60.8035 1279.58 62.5743 Q1276.59 64.3451 1276.59 68.616 Q1276.59 72.0187 1278.81 74.0326 Q1281.07 76.0117 1284.92 76.0117 Q1290.23 76.0117 1293.43 72.2618 Q1296.66 68.4771 1296.66 62.2271 L1296.66 60.8035 L1290.3 60.8035 M1303.05 58.1646 L1303.05 80.352 L1296.66 80.352 L1296.66 74.4493 Q1294.47 77.9909 1291.21 79.6923 Q1287.94 81.3589 1283.22 81.3589 Q1277.25 81.3589 1273.71 78.0256 Q1270.2 74.6576 1270.2 69.0326 Q1270.2 62.4702 1274.58 59.1368 Q1278.98 55.8035 1287.7 55.8035 L1296.66 55.8035 L1296.66 55.1785 Q1296.66 50.7688 1293.74 48.373 Q1290.86 45.9425 1285.62 45.9425 Q1282.28 45.9425 1279.12 46.7411 Q1275.96 47.5397 1273.05 49.1369 L1273.05 43.2341 Q1276.55 41.88 1279.85 41.2203 Q1283.15 40.5258 1286.28 40.5258 Q1294.71 40.5258 1298.88 44.9008 Q1303.05 49.2758 1303.05 58.1646 Z" fill="#000000" fill-rule="nonzero" fill-opacity="1" /><path clip-path="url(#clip610)" d="M1348.53 56.8799 L1348.53 80.352 L1342.14 80.352 L1342.14 57.0882 Q1342.14 51.5674 1339.99 48.8244 Q1337.84 46.0814 1333.53 46.0814 Q1328.36 46.0814 1325.37 49.3799 Q1322.39 52.6785 1322.39 58.373 L1322.39 80.352 L1315.96 80.352 L1315.96 41.4633 L1322.39 41.4633 L1322.39 47.505 Q1324.68 43.998 1327.77 42.2619 Q1330.89 40.5258 1334.96 40.5258 Q1341.66 40.5258 1345.1 44.6925 Q1348.53 48.8244 1348.53 56.8799 Z" fill="#000000" fill-rule="nonzero" fill-opacity="1" /><path clip-path="url(#clip610)" d="M1414.16 48.9286 Q1416.55 44.623 1419.89 42.5744 Q1423.22 40.5258 1427.73 40.5258 Q1433.81 40.5258 1437.11 44.7966 Q1440.41 49.0327 1440.41 56.8799 L1440.41 80.352 L1433.98 80.352 L1433.98 57.0882 Q1433.98 51.498 1432 48.7897 Q1430.03 46.0814 1425.96 46.0814 Q1421 46.0814 1418.12 49.3799 Q1415.23 52.6785 1415.23 58.373 L1415.23 80.352 L1408.81 80.352 L1408.81 57.0882 Q1408.81 51.4633 1406.83 48.7897 Q1404.85 46.0814 1400.72 46.0814 Q1395.82 46.0814 1392.94 49.4147 Q1390.06 52.7133 1390.06 58.373 L1390.06 80.352 L1383.64 80.352 L1383.64 41.4633 L1390.06 41.4633 L1390.06 47.505 Q1392.25 43.9286 1395.3 42.2272 Q1398.36 40.5258 1402.56 40.5258 Q1406.8 40.5258 1409.75 42.6786 Q1412.73 44.8314 1414.16 48.9286 Z" fill="#000000" fill-rule="nonzero" fill-opacity="1" /><path clip-path="url(#clip610)" d="M1470.82 60.8035 Q1463.08 60.8035 1460.09 62.5743 Q1457.11 64.3451 1457.11 68.616 Q1457.11 72.0187 1459.33 74.0326 Q1461.59 76.0117 1465.44 76.0117 Q1470.75 76.0117 1473.95 72.2618 Q1477.18 68.4771 1477.18 62.2271 L1477.18 60.8035 L1470.82 60.8035 M1483.57 58.1646 L1483.57 80.352 L1477.18 80.352 L1477.18 74.4493 Q1474.99 77.9909 1471.73 79.6923 Q1468.46 81.3589 1463.74 81.3589 Q1457.77 81.3589 1454.23 78.0256 Q1450.72 74.6576 1450.72 69.0326 Q1450.72 62.4702 1455.09 59.1368 Q1459.5 55.8035 1468.22 55.8035 L1477.18 55.8035 L1477.18 55.1785 Q1477.18 50.7688 1474.26 48.373 Q1471.38 45.9425 1466.14 45.9425 Q1462.8 45.9425 1459.64 46.7411 Q1456.48 47.5397 1453.57 49.1369 L1453.57 43.2341 Q1457.07 41.88 1460.37 41.2203 Q1463.67 40.5258 1466.8 40.5258 Q1475.23 40.5258 1479.4 44.9008 Q1483.57 49.2758 1483.57 58.1646 Z" fill="#000000" fill-rule="nonzero" fill-opacity="1" /><path clip-path="url(#clip610)" d="M1522.32 60.4563 Q1522.32 53.5119 1519.43 49.6924 Q1516.59 45.873 1511.41 45.873 Q1506.28 45.873 1503.39 49.6924 Q1500.55 53.5119 1500.55 60.4563 Q1500.55 67.366 1503.39 71.1854 Q1506.28 75.0048 1511.41 75.0048 Q1516.59 75.0048 1519.43 71.1854 Q1522.32 67.366 1522.32 60.4563 M1528.71 75.5256 Q1528.71 85.4561 1524.3 90.2825 Q1519.89 95.1436 1510.79 95.1436 Q1507.42 95.1436 1504.43 94.6228 Q1501.45 94.1366 1498.64 93.095 L1498.64 86.8797 Q1501.45 88.4075 1504.19 89.1367 Q1506.93 89.8658 1509.78 89.8658 Q1516.07 89.8658 1519.19 86.5672 Q1522.32 83.3034 1522.32 76.6715 L1522.32 73.5118 Q1520.34 76.9492 1517.25 78.6506 Q1514.16 80.352 1509.85 80.352 Q1502.7 80.352 1498.32 74.9006 Q1493.95 69.4493 1493.95 60.4563 Q1493.95 51.4285 1498.32 45.9772 Q1502.7 40.5258 1509.85 40.5258 Q1514.16 40.5258 1517.25 42.2272 Q1520.34 43.9286 1522.32 47.3661 L1522.32 41.4633 L1528.71 41.4633 L1528.71 75.5256 Z" fill="#000000" fill-rule="nonzero" fill-opacity="1" /><path clip-path="url(#clip610)" d="M1574.19 56.8799 L1574.19 80.352 L1567.8 80.352 L1567.8 57.0882 Q1567.8 51.5674 1565.65 48.8244 Q1563.5 46.0814 1559.19 46.0814 Q1554.02 46.0814 1551.03 49.3799 Q1548.05 52.6785 1548.05 58.373 L1548.05 80.352 L1541.62 80.352 L1541.62 41.4633 L1548.05 41.4633 L1548.05 47.505 Q1550.34 43.998 1553.43 42.2619 Q1556.55 40.5258 1560.62 40.5258 Q1567.32 40.5258 1570.75 44.6925 Q1574.19 48.8244 1574.19 56.8799 Z" fill="#000000" fill-rule="nonzero" fill-opacity="1" /><path clip-path="url(#clip610)" d="M1620.2 59.3104 L1620.2 62.4354 L1590.82 62.4354 Q1591.24 69.0326 1594.78 72.5048 Q1598.36 75.9423 1604.71 75.9423 Q1608.39 75.9423 1611.83 75.0395 Q1615.3 74.1368 1618.71 72.3312 L1618.71 78.3728 Q1615.27 79.8312 1611.66 80.5951 Q1608.05 81.3589 1604.33 81.3589 Q1595.02 81.3589 1589.57 75.9423 Q1584.16 70.5257 1584.16 61.2896 Q1584.16 51.741 1589.3 46.1508 Q1594.47 40.5258 1603.22 40.5258 Q1611.07 40.5258 1615.61 45.5952 Q1620.2 50.6299 1620.2 59.3104 M1613.81 57.4355 Q1613.74 52.1924 1610.86 49.0674 Q1608.01 45.9425 1603.29 45.9425 Q1597.94 45.9425 1594.71 48.9633 Q1591.52 51.9841 1591.03 57.4702 L1613.81 57.4355 Z" fill="#000000" fill-rule="nonzero" fill-opacity="1" /><path clip-path="url(#clip610)" d="M1637 30.4217 L1637 41.4633 L1650.16 41.4633 L1650.16 46.4286 L1637 46.4286 L1637 67.5396 Q1637 72.2965 1638.29 73.6506 Q1639.61 75.0048 1643.6 75.0048 L1650.16 75.0048 L1650.16 80.352 L1643.6 80.352 Q1636.21 80.352 1633.39 77.609 Q1630.58 74.8312 1630.58 67.5396 L1630.58 46.4286 L1625.89 46.4286 L1625.89 41.4633 L1630.58 41.4633 L1630.58 30.4217 L1637 30.4217 Z" fill="#000000" fill-rule="nonzero" fill-opacity="1" /><path clip-path="url(#clip610)" d="M1658.57 41.4633 L1664.95 41.4633 L1664.95 80.352 L1658.57 80.352 L1658.57 41.4633 M1658.57 26.3245 L1664.95 26.3245 L1664.95 34.4147 L1658.57 34.4147 L1658.57 26.3245 Z" fill="#000000" fill-rule="nonzero" fill-opacity="1" /><path clip-path="url(#clip610)" d="M1703.11 42.6091 L1703.11 48.6508 Q1700.41 47.2619 1697.49 46.5675 Q1694.57 45.873 1691.45 45.873 Q1686.69 45.873 1684.3 47.3313 Q1681.93 48.7897 1681.93 51.7063 Q1681.93 53.9285 1683.64 55.2132 Q1685.34 56.4632 1690.48 57.6091 L1692.66 58.0952 Q1699.47 59.5535 1702.32 62.2271 Q1705.2 64.866 1705.2 69.6229 Q1705.2 75.0395 1700.89 78.1992 Q1696.62 81.3589 1689.12 81.3589 Q1686 81.3589 1682.59 80.7339 Q1679.23 80.1437 1675.48 78.9284 L1675.48 72.3312 Q1679.02 74.1715 1682.45 75.109 Q1685.89 76.0117 1689.26 76.0117 Q1693.77 76.0117 1696.2 74.484 Q1698.64 72.9215 1698.64 70.109 Q1698.64 67.5048 1696.86 66.116 Q1695.13 64.7271 1689.19 63.4424 L1686.97 62.9215 Q1681.03 61.6715 1678.39 59.1021 Q1675.75 56.498 1675.75 51.9841 Q1675.75 46.498 1679.64 43.5119 Q1683.53 40.5258 1690.68 40.5258 Q1694.23 40.5258 1697.35 41.0467 Q1700.48 41.5675 1703.11 42.6091 Z" fill="#000000" fill-rule="nonzero" fill-opacity="1" /><path clip-path="url(#clip610)" d="M1733.04 60.8035 Q1725.3 60.8035 1722.32 62.5743 Q1719.33 64.3451 1719.33 68.616 Q1719.33 72.0187 1721.55 74.0326 Q1723.81 76.0117 1727.66 76.0117 Q1732.98 76.0117 1736.17 72.2618 Q1739.4 68.4771 1739.4 62.2271 L1739.4 60.8035 L1733.04 60.8035 M1745.79 58.1646 L1745.79 80.352 L1739.4 80.352 L1739.4 74.4493 Q1737.21 77.9909 1733.95 79.6923 Q1730.68 81.3589 1725.96 81.3589 Q1719.99 81.3589 1716.45 78.0256 Q1712.94 74.6576 1712.94 69.0326 Q1712.94 62.4702 1717.32 59.1368 Q1721.73 55.8035 1730.44 55.8035 L1739.4 55.8035 L1739.4 55.1785 Q1739.4 50.7688 1736.48 48.373 Q1733.6 45.9425 1728.36 45.9425 Q1725.02 45.9425 1721.86 46.7411 Q1718.7 47.5397 1715.79 49.1369 L1715.79 43.2341 Q1719.29 41.88 1722.59 41.2203 Q1725.89 40.5258 1729.02 40.5258 Q1737.45 40.5258 1741.62 44.9008 Q1745.79 49.2758 1745.79 58.1646 Z" fill="#000000" fill-rule="nonzero" fill-opacity="1" /><path clip-path="url(#clip610)" d="M1765.27 30.4217 L1765.27 41.4633 L1778.43 41.4633 L1778.43 46.4286 L1765.27 46.4286 L1765.27 67.5396 Q1765.27 72.2965 1766.55 73.6506 Q1767.87 75.0048 1771.86 75.0048 L1778.43 75.0048 L1778.43 80.352 L1771.86 80.352 Q1764.47 80.352 1761.66 77.609 Q1758.84 74.8312 1758.84 67.5396 L1758.84 46.4286 L1754.16 46.4286 L1754.16 41.4633 L1758.84 41.4633 L1758.84 30.4217 L1765.27 30.4217 Z" fill="#000000" fill-rule="nonzero" fill-opacity="1" /><path clip-path="url(#clip610)" d="M1786.83 41.4633 L1793.22 41.4633 L1793.22 80.352 L1786.83 80.352 L1786.83 41.4633 M1786.83 26.3245 L1793.22 26.3245 L1793.22 34.4147 L1786.83 34.4147 L1786.83 26.3245 Z" fill="#000000" fill-rule="nonzero" fill-opacity="1" /><path clip-path="url(#clip610)" d="M1821.66 45.9425 Q1816.52 45.9425 1813.53 49.9702 Q1810.54 53.9633 1810.54 60.9424 Q1810.54 67.9215 1813.5 71.9493 Q1816.48 75.9423 1821.66 75.9423 Q1826.76 75.9423 1829.75 71.9145 Q1832.73 67.8868 1832.73 60.9424 Q1832.73 54.0327 1829.75 50.0049 Q1826.76 45.9425 1821.66 45.9425 M1821.66 40.5258 Q1829.99 40.5258 1834.75 45.9425 Q1839.5 51.3591 1839.5 60.9424 Q1839.5 70.4909 1834.75 75.9423 Q1829.99 81.3589 1821.66 81.3589 Q1813.29 81.3589 1808.53 75.9423 Q1803.81 70.4909 1803.81 60.9424 Q1803.81 51.3591 1808.53 45.9425 Q1813.29 40.5258 1821.66 40.5258 Z" fill="#000000" fill-rule="nonzero" fill-opacity="1" /><path clip-path="url(#clip610)" d="M1882.42 56.8799 L1882.42 80.352 L1876.03 80.352 L1876.03 57.0882 Q1876.03 51.5674 1873.88 48.8244 Q1871.72 46.0814 1867.42 46.0814 Q1862.25 46.0814 1859.26 49.3799 Q1856.27 52.6785 1856.27 58.373 L1856.27 80.352 L1849.85 80.352 L1849.85 41.4633 L1856.27 41.4633 L1856.27 47.505 Q1858.56 43.998 1861.66 42.2619 Q1864.78 40.5258 1868.84 40.5258 Q1875.54 40.5258 1878.98 44.6925 Q1882.42 48.8244 1882.42 56.8799 Z" fill="#000000" fill-rule="nonzero" fill-opacity="1" /><path clip-path="url(#clip610)" d="M1937.45 26.3245 L1937.45 31.637 L1931.34 31.637 Q1927.9 31.637 1926.55 33.0259 Q1925.23 34.4147 1925.23 38.0258 L1925.23 41.4633 L1935.75 41.4633 L1935.75 46.4286 L1925.23 46.4286 L1925.23 80.352 L1918.81 80.352 L1918.81 46.4286 L1912.7 46.4286 L1912.7 41.4633 L1918.81 41.4633 L1918.81 38.755 Q1918.81 32.262 1921.83 29.3106 Q1924.85 26.3245 1931.41 26.3245 L1937.45 26.3245 Z" fill="#000000" fill-rule="nonzero" fill-opacity="1" /><path clip-path="url(#clip610)" d="M1957.87 45.9425 Q1952.73 45.9425 1949.75 49.9702 Q1946.76 53.9633 1946.76 60.9424 Q1946.76 67.9215 1949.71 71.9493 Q1952.7 75.9423 1957.87 75.9423 Q1962.97 75.9423 1965.96 71.9145 Q1968.95 67.8868 1968.95 60.9424 Q1968.95 54.0327 1965.96 50.0049 Q1962.97 45.9425 1957.87 45.9425 M1957.87 40.5258 Q1966.2 40.5258 1970.96 45.9425 Q1975.72 51.3591 1975.72 60.9424 Q1975.72 70.4909 1970.96 75.9423 Q1966.2 81.3589 1957.87 81.3589 Q1949.5 81.3589 1944.75 75.9423 Q1940.02 70.4909 1940.02 60.9424 Q1940.02 51.3591 1944.75 45.9425 Q1949.5 40.5258 1957.87 40.5258 Z" fill="#000000" fill-rule="nonzero" fill-opacity="1" /><path clip-path="url(#clip610)" d="M2008.84 47.4355 Q2007.77 46.8105 2006.48 46.5327 Q2005.23 46.2202 2003.7 46.2202 Q1998.29 46.2202 1995.37 49.7619 Q1992.49 53.2688 1992.49 59.866 L1992.49 80.352 L1986.06 80.352 L1986.06 41.4633 L1992.49 41.4633 L1992.49 47.505 Q1994.5 43.9633 1997.73 42.2619 Q2000.96 40.5258 2005.58 40.5258 Q2006.24 40.5258 2007.04 40.63 Q2007.83 40.6994 2008.81 40.873 L2008.84 47.4355 Z" fill="#000000" fill-rule="nonzero" fill-opacity="1" /><path clip-path="url(#clip610)" d="M2038.15 26.3245 L2044.54 26.3245 L2044.54 80.352 L2038.15 80.352 L2038.15 26.3245 Z" fill="#000000" fill-rule="nonzero" fill-opacity="1" /><path clip-path="url(#clip610)" d="M2075.58 60.8035 Q2067.83 60.8035 2064.85 62.5743 Q2061.86 64.3451 2061.86 68.616 Q2061.86 72.0187 2064.08 74.0326 Q2066.34 76.0117 2070.2 76.0117 Q2075.51 76.0117 2078.7 72.2618 Q2081.93 68.4771 2081.93 62.2271 L2081.93 60.8035 L2075.58 60.8035 M2088.32 58.1646 L2088.32 80.352 L2081.93 80.352 L2081.93 74.4493 Q2079.74 77.9909 2076.48 79.6923 Q2073.22 81.3589 2068.49 81.3589 Q2062.52 81.3589 2058.98 78.0256 Q2055.47 74.6576 2055.47 69.0326 Q2055.47 62.4702 2059.85 59.1368 Q2064.26 55.8035 2072.97 55.8035 L2081.93 55.8035 L2081.93 55.1785 Q2081.93 50.7688 2079.02 48.373 Q2076.13 45.9425 2070.89 45.9425 Q2067.56 45.9425 2064.4 46.7411 Q2061.24 47.5397 2058.32 49.1369 L2058.32 43.2341 Q2061.83 41.88 2065.13 41.2203 Q2068.42 40.5258 2071.55 40.5258 Q2079.99 40.5258 2084.15 44.9008 Q2088.32 49.2758 2088.32 58.1646 Z" fill="#000000" fill-rule="nonzero" fill-opacity="1" /><path clip-path="url(#clip610)" d="M2126.27 42.6091 L2126.27 48.6508 Q2123.56 47.2619 2120.65 46.5675 Q2117.73 45.873 2114.61 45.873 Q2109.85 45.873 2107.45 47.3313 Q2105.09 48.7897 2105.09 51.7063 Q2105.09 53.9285 2106.79 55.2132 Q2108.49 56.4632 2113.63 57.6091 L2115.82 58.0952 Q2122.63 59.5535 2125.47 62.2271 Q2128.36 64.866 2128.36 69.6229 Q2128.36 75.0395 2124.05 78.1992 Q2119.78 81.3589 2112.28 81.3589 Q2109.15 81.3589 2105.75 80.7339 Q2102.38 80.1437 2098.63 78.9284 L2098.63 72.3312 Q2102.17 74.1715 2105.61 75.109 Q2109.05 76.0117 2112.42 76.0117 Q2116.93 76.0117 2119.36 74.484 Q2121.79 72.9215 2121.79 70.109 Q2121.79 67.5048 2120.02 66.116 Q2118.29 64.7271 2112.35 63.4424 L2110.13 62.9215 Q2104.19 61.6715 2101.55 59.1021 Q2098.91 56.498 2098.91 51.9841 Q2098.91 46.498 2102.8 43.5119 Q2106.69 40.5258 2113.84 40.5258 Q2117.38 40.5258 2120.51 41.0467 Q2123.63 41.5675 2126.27 42.6091 Z" fill="#000000" fill-rule="nonzero" fill-opacity="1" /><path clip-path="url(#clip610)" d="M2144.85 30.4217 L2144.85 41.4633 L2158.01 41.4633 L2158.01 46.4286 L2144.85 46.4286 L2144.85 67.5396 Q2144.85 72.2965 2146.13 73.6506 Q2147.45 75.0048 2151.45 75.0048 L2158.01 75.0048 L2158.01 80.352 L2151.45 80.352 Q2144.05 80.352 2141.24 77.609 Q2138.42 74.8312 2138.42 67.5396 L2138.42 46.4286 L2133.74 46.4286 L2133.74 41.4633 L2138.42 41.4633 L2138.42 30.4217 L2144.85 30.4217 Z" fill="#000000" fill-rule="nonzero" fill-opacity="1" /><path clip-path="url(#clip610)" d="M2191.13 74.4493 L2202.59 74.4493 L2202.59 34.9009 L2190.13 37.4008 L2190.13 31.012 L2202.52 28.512 L2209.54 28.512 L2209.54 74.4493 L2220.99 74.4493 L2220.99 80.352 L2191.13 80.352 L2191.13 74.4493 Z" fill="#000000" fill-rule="nonzero" fill-opacity="1" /><path clip-path="url(#clip610)" d="M2250.16 33.13 Q2244.74 33.13 2242 38.4772 Q2239.29 43.7897 2239.29 54.4841 Q2239.29 65.1437 2242 70.4909 Q2244.74 75.8034 2250.16 75.8034 Q2255.61 75.8034 2258.32 70.4909 Q2261.06 65.1437 2261.06 54.4841 Q2261.06 43.7897 2258.32 38.4772 Q2255.61 33.13 2250.16 33.13 M2250.16 27.5745 Q2258.88 27.5745 2263.46 34.4842 Q2268.08 41.3592 2268.08 54.4841 Q2268.08 67.5743 2263.46 74.484 Q2258.88 81.3589 2250.16 81.3589 Q2241.44 81.3589 2236.83 74.484 Q2232.24 67.5743 2232.24 54.4841 Q2232.24 41.3592 2236.83 34.4842 Q2241.44 27.5745 2250.16 27.5745 Z" fill="#000000" fill-rule="nonzero" fill-opacity="1" /><path clip-path="url(#clip610)" d="M337.427 120.369 L337.427 126.411 Q334.719 125.022 331.802 124.327 Q328.886 123.633 325.761 123.633 Q321.004 123.633 318.608 125.091 Q316.247 126.55 316.247 129.466 Q316.247 131.689 317.948 132.973 Q319.65 134.223 324.788 135.369 L326.976 135.855 Q333.781 137.314 336.629 139.987 Q339.511 142.626 339.511 147.383 Q339.511 152.8 335.205 155.959 Q330.934 159.119 323.434 159.119 Q320.309 159.119 316.907 158.494 Q313.539 157.904 309.789 156.688 L309.789 150.091 Q313.33 151.931 316.768 152.869 Q320.205 153.772 323.573 153.772 Q328.087 153.772 330.518 152.244 Q332.948 150.681 332.948 147.869 Q332.948 145.265 331.177 143.876 Q329.441 142.487 323.504 141.202 L321.282 140.682 Q315.344 139.432 312.705 136.862 Q310.066 134.258 310.066 129.744 Q310.066 124.258 313.955 121.272 Q317.844 118.286 324.997 118.286 Q328.538 118.286 331.663 118.807 Q334.788 119.327 337.427 120.369 Z" fill="#000000" fill-rule="nonzero" fill-opacity="1" /><path clip-path="url(#clip610)" d="M356.004 108.182 L356.004 119.223 L369.163 119.223 L369.163 124.189 L356.004 124.189 L356.004 145.3 Q356.004 150.056 357.288 151.411 Q358.608 152.765 362.601 152.765 L369.163 152.765 L369.163 158.112 L362.601 158.112 Q355.205 158.112 352.392 155.369 Q349.58 152.591 349.58 145.3 L349.58 124.189 L344.893 124.189 L344.893 119.223 L349.58 119.223 L349.58 108.182 L356.004 108.182 Z" fill="#000000" fill-rule="nonzero" fill-opacity="1" /><path clip-path="url(#clip610)" d="M410.83 137.07 L410.83 140.195 L381.455 140.195 Q381.871 146.793 385.413 150.265 Q388.99 153.702 395.344 153.702 Q399.024 153.702 402.462 152.8 Q405.934 151.897 409.337 150.091 L409.337 156.133 Q405.899 157.591 402.288 158.355 Q398.677 159.119 394.962 159.119 Q385.656 159.119 380.205 153.702 Q374.788 148.286 374.788 139.05 Q374.788 129.501 379.927 123.911 Q385.101 118.286 393.851 118.286 Q401.698 118.286 406.246 123.355 Q410.83 128.39 410.83 137.07 M404.441 135.195 Q404.371 129.952 401.489 126.827 Q398.642 123.702 393.92 123.702 Q388.573 123.702 385.344 126.723 Q382.149 129.744 381.663 135.23 L404.441 135.195 Z" fill="#000000" fill-rule="nonzero" fill-opacity="1" /><path clip-path="url(#clip610)" d="M427.496 152.279 L427.496 172.904 L421.073 172.904 L421.073 119.223 L427.496 119.223 L427.496 125.126 Q429.51 121.654 432.566 119.987 Q435.656 118.286 439.927 118.286 Q447.01 118.286 451.42 123.911 Q455.864 129.536 455.864 138.702 Q455.864 147.869 451.42 153.494 Q447.01 159.119 439.927 159.119 Q435.656 159.119 432.566 157.452 Q429.51 155.751 427.496 152.279 M449.232 138.702 Q449.232 131.654 446.316 127.661 Q443.434 123.633 438.364 123.633 Q433.295 123.633 430.378 127.661 Q427.496 131.654 427.496 138.702 Q427.496 145.751 430.378 149.779 Q433.295 153.772 438.364 153.772 Q443.434 153.772 446.316 149.779 Q449.232 145.751 449.232 138.702 Z" fill="#000000" fill-rule="nonzero" fill-opacity="1" /><path clip-path="url(#clip610)" d="M491.246 120.369 L491.246 126.411 Q488.538 125.022 485.621 124.327 Q482.704 123.633 479.579 123.633 Q474.822 123.633 472.427 125.091 Q470.065 126.55 470.065 129.466 Q470.065 131.689 471.767 132.973 Q473.468 134.223 478.607 135.369 L480.795 135.855 Q487.6 137.314 490.447 139.987 Q493.329 142.626 493.329 147.383 Q493.329 152.8 489.024 155.959 Q484.753 159.119 477.253 159.119 Q474.128 159.119 470.725 158.494 Q467.357 157.904 463.607 156.688 L463.607 150.091 Q467.149 151.931 470.586 152.869 Q474.024 153.772 477.392 153.772 Q481.906 153.772 484.336 152.244 Q486.767 150.681 486.767 147.869 Q486.767 145.265 484.996 143.876 Q483.26 142.487 477.322 141.202 L475.1 140.682 Q469.163 139.432 466.524 136.862 Q463.885 134.258 463.885 129.744 Q463.885 124.258 467.774 121.272 Q471.663 118.286 478.815 118.286 Q482.357 118.286 485.482 118.807 Q488.607 119.327 491.246 120.369 Z" fill="#000000" fill-rule="nonzero" fill-opacity="1" /><path clip-path="url(#clip610)" d="M526.107 119.223 L532.496 119.223 L532.496 158.112 L526.107 158.112 L526.107 119.223 M526.107 104.085 L532.496 104.085 L532.496 112.175 L526.107 112.175 L526.107 104.085 Z" fill="#000000" fill-rule="nonzero" fill-opacity="1" /><path clip-path="url(#clip610)" d="M578.19 134.64 L578.19 158.112 L571.801 158.112 L571.801 134.848 Q571.801 129.327 569.648 126.584 Q567.495 123.841 563.19 123.841 Q558.016 123.841 555.03 127.14 Q552.044 130.439 552.044 136.133 L552.044 158.112 L545.621 158.112 L545.621 119.223 L552.044 119.223 L552.044 125.265 Q554.336 121.758 557.426 120.022 Q560.551 118.286 564.614 118.286 Q571.315 118.286 574.752 122.452 Q578.19 126.584 578.19 134.64 Z" fill="#000000" fill-rule="nonzero" fill-opacity="1" /><path clip-path="url(#clip610)" d="M613.815 106.272 L624.266 106.272 L637.495 141.55 L650.794 106.272 L661.245 106.272 L661.245 158.112 L654.405 158.112 L654.405 112.591 L641.037 148.147 L633.988 148.147 L620.62 112.591 L620.62 158.112 L613.815 158.112 L613.815 106.272 Z" fill="#000000" fill-rule="nonzero" fill-opacity="1" /><path clip-path="url(#clip610)" d="M689.96 123.702 Q684.821 123.702 681.835 127.73 Q678.849 131.723 678.849 138.702 Q678.849 145.682 681.8 149.709 Q684.787 153.702 689.96 153.702 Q695.064 153.702 698.05 149.675 Q701.036 145.647 701.036 138.702 Q701.036 131.793 698.05 127.765 Q695.064 123.702 689.96 123.702 M689.96 118.286 Q698.293 118.286 703.05 123.702 Q707.807 129.119 707.807 138.702 Q707.807 148.251 703.05 153.702 Q698.293 159.119 689.96 159.119 Q681.592 159.119 676.835 153.702 Q672.113 148.251 672.113 138.702 Q672.113 129.119 676.835 123.702 Q681.592 118.286 689.96 118.286 Z" fill="#000000" fill-rule="nonzero" fill-opacity="1" /><path clip-path="url(#clip610)" d="M750.724 134.64 L750.724 158.112 L744.335 158.112 L744.335 134.848 Q744.335 129.327 742.182 126.584 Q740.029 123.841 735.724 123.841 Q730.55 123.841 727.564 127.14 Q724.578 130.439 724.578 136.133 L724.578 158.112 L718.154 158.112 L718.154 119.223 L724.578 119.223 L724.578 125.265 Q726.87 121.758 729.96 120.022 Q733.085 118.286 737.147 118.286 Q743.849 118.286 747.286 122.452 Q750.724 126.584 750.724 134.64 Z" fill="#000000" fill-rule="nonzero" fill-opacity="1" /><path clip-path="url(#clip610)" d="M769.786 108.182 L769.786 119.223 L782.946 119.223 L782.946 124.189 L769.786 124.189 L769.786 145.3 Q769.786 150.056 771.071 151.411 Q772.39 152.765 776.383 152.765 L782.946 152.765 L782.946 158.112 L776.383 158.112 Q768.987 158.112 766.175 155.369 Q763.362 152.591 763.362 145.3 L763.362 124.189 L758.675 124.189 L758.675 119.223 L763.362 119.223 L763.362 108.182 L769.786 108.182 Z" fill="#000000" fill-rule="nonzero" fill-opacity="1" /><path clip-path="url(#clip610)" d="M824.612 137.07 L824.612 140.195 L795.237 140.195 Q795.654 146.793 799.196 150.265 Q802.772 153.702 809.126 153.702 Q812.807 153.702 816.244 152.8 Q819.716 151.897 823.119 150.091 L823.119 156.133 Q819.682 157.591 816.071 158.355 Q812.459 159.119 808.744 159.119 Q799.439 159.119 793.987 153.702 Q788.571 148.286 788.571 139.05 Q788.571 129.501 793.71 123.911 Q798.883 118.286 807.633 118.286 Q815.48 118.286 820.029 123.355 Q824.612 128.39 824.612 137.07 M818.223 135.195 Q818.154 129.952 815.272 126.827 Q812.425 123.702 807.703 123.702 Q802.355 123.702 799.126 126.723 Q795.932 129.744 795.446 135.23 L818.223 135.195 Z" fill="#000000" fill-rule="nonzero" fill-opacity="1" /><path clip-path="url(#clip610)" d="M896.799 110.265 L896.799 117.661 Q893.258 114.362 889.23 112.73 Q885.237 111.098 880.723 111.098 Q871.834 111.098 867.112 116.55 Q862.39 121.966 862.39 132.244 Q862.39 142.487 867.112 147.938 Q871.834 153.355 880.723 153.355 Q885.237 153.355 889.23 151.723 Q893.258 150.091 896.799 146.793 L896.799 154.119 Q893.119 156.619 888.987 157.869 Q884.89 159.119 880.306 159.119 Q868.536 159.119 861.765 151.931 Q854.994 144.709 854.994 132.244 Q854.994 119.744 861.765 112.557 Q868.536 105.335 880.306 105.335 Q884.959 105.335 889.056 106.584 Q893.188 107.8 896.799 110.265 Z" fill="#000000" fill-rule="nonzero" fill-opacity="1" /><path clip-path="url(#clip610)" d="M925.028 138.563 Q917.285 138.563 914.299 140.334 Q911.313 142.105 911.313 146.376 Q911.313 149.779 913.535 151.793 Q915.792 153.772 919.646 153.772 Q924.959 153.772 928.153 150.022 Q931.382 146.237 931.382 139.987 L931.382 138.563 L925.028 138.563 M937.771 135.925 L937.771 158.112 L931.382 158.112 L931.382 152.209 Q929.195 155.751 925.931 157.452 Q922.667 159.119 917.945 159.119 Q911.973 159.119 908.431 155.786 Q904.924 152.418 904.924 146.793 Q904.924 140.23 909.299 136.897 Q913.709 133.564 922.424 133.564 L931.382 133.564 L931.382 132.939 Q931.382 128.529 928.466 126.133 Q925.584 123.702 920.341 123.702 Q917.008 123.702 913.848 124.501 Q910.688 125.3 907.771 126.897 L907.771 120.994 Q911.278 119.64 914.577 118.98 Q917.876 118.286 921.001 118.286 Q929.438 118.286 933.605 122.661 Q937.771 127.036 937.771 135.925 Z" fill="#000000" fill-rule="nonzero" fill-opacity="1" /><path clip-path="url(#clip610)" d="M973.466 125.196 Q972.389 124.571 971.104 124.293 Q969.854 123.98 968.327 123.98 Q962.91 123.98 959.993 127.522 Q957.111 131.029 957.111 137.626 L957.111 158.112 L950.688 158.112 L950.688 119.223 L957.111 119.223 L957.111 125.265 Q959.125 121.723 962.354 120.022 Q965.584 118.286 970.202 118.286 Q970.861 118.286 971.66 118.39 Q972.459 118.459 973.431 118.633 L973.466 125.196 Z" fill="#000000" fill-rule="nonzero" fill-opacity="1" /><path clip-path="url(#clip610)" d="M980.167 104.085 L986.556 104.085 L986.556 158.112 L980.167 158.112 L980.167 104.085 Z" fill="#000000" fill-rule="nonzero" fill-opacity="1" /><path clip-path="url(#clip610)" d="M1014.99 123.702 Q1009.85 123.702 1006.87 127.73 Q1003.88 131.723 1003.88 138.702 Q1003.88 145.682 1006.83 149.709 Q1009.82 153.702 1014.99 153.702 Q1020.1 153.702 1023.08 149.675 Q1026.07 145.647 1026.07 138.702 Q1026.07 131.793 1023.08 127.765 Q1020.1 123.702 1014.99 123.702 M1014.99 118.286 Q1023.33 118.286 1028.08 123.702 Q1032.84 129.119 1032.84 138.702 Q1032.84 148.251 1028.08 153.702 Q1023.33 159.119 1014.99 159.119 Q1006.63 159.119 1001.87 153.702 Q997.146 148.251 997.146 138.702 Q997.146 129.119 1001.87 123.702 Q1006.63 118.286 1014.99 118.286 Z" fill="#000000" fill-rule="nonzero" fill-opacity="1" /><path clip-path="url(#clip610)" d="M1094.02 120.716 L1094.02 126.689 Q1091.31 125.196 1088.57 124.466 Q1085.86 123.702 1083.08 123.702 Q1076.87 123.702 1073.43 127.661 Q1069.99 131.584 1069.99 138.702 Q1069.99 145.82 1073.43 149.779 Q1076.87 153.702 1083.08 153.702 Q1085.86 153.702 1088.57 152.973 Q1091.31 152.209 1094.02 150.716 L1094.02 156.619 Q1091.35 157.869 1088.46 158.494 Q1085.62 159.119 1082.39 159.119 Q1073.6 159.119 1068.43 153.598 Q1063.26 148.077 1063.26 138.702 Q1063.26 129.189 1068.47 123.737 Q1073.71 118.286 1082.81 118.286 Q1085.76 118.286 1088.57 118.911 Q1091.38 119.501 1094.02 120.716 Z" fill="#000000" fill-rule="nonzero" fill-opacity="1" /><path clip-path="url(#clip610)" d="M1137.46 134.64 L1137.46 158.112 L1131.07 158.112 L1131.07 134.848 Q1131.07 129.327 1128.92 126.584 Q1126.76 123.841 1122.46 123.841 Q1117.28 123.841 1114.3 127.14 Q1111.31 130.439 1111.31 136.133 L1111.31 158.112 L1104.89 158.112 L1104.89 104.085 L1111.31 104.085 L1111.31 125.265 Q1113.6 121.758 1116.69 120.022 Q1119.82 118.286 1123.88 118.286 Q1130.58 118.286 1134.02 122.452 Q1137.46 126.584 1137.46 134.64 Z" fill="#000000" fill-rule="nonzero" fill-opacity="1" /><path clip-path="url(#clip610)" d="M1167.87 138.563 Q1160.13 138.563 1157.15 140.334 Q1154.16 142.105 1154.16 146.376 Q1154.16 149.779 1156.38 151.793 Q1158.64 153.772 1162.49 153.772 Q1167.8 153.772 1171 150.022 Q1174.23 146.237 1174.23 139.987 L1174.23 138.563 L1167.87 138.563 M1180.62 135.925 L1180.62 158.112 L1174.23 158.112 L1174.23 152.209 Q1172.04 155.751 1168.78 157.452 Q1165.51 159.119 1160.79 159.119 Q1154.82 159.119 1151.28 155.786 Q1147.77 152.418 1147.77 146.793 Q1147.77 140.23 1152.15 136.897 Q1156.55 133.564 1165.27 133.564 L1174.23 133.564 L1174.23 132.939 Q1174.23 128.529 1171.31 126.133 Q1168.43 123.702 1163.19 123.702 Q1159.85 123.702 1156.69 124.501 Q1153.53 125.3 1150.62 126.897 L1150.62 120.994 Q1154.12 119.64 1157.42 118.98 Q1160.72 118.286 1163.85 118.286 Q1172.28 118.286 1176.45 122.661 Q1180.62 127.036 1180.62 135.925 Z" fill="#000000" fill-rule="nonzero" fill-opacity="1" /><path clip-path="url(#clip610)" d="M1193.78 119.223 L1200.17 119.223 L1200.17 158.112 L1193.78 158.112 L1193.78 119.223 M1193.78 104.085 L1200.17 104.085 L1200.17 112.175 L1193.78 112.175 L1193.78 104.085 Z" fill="#000000" fill-rule="nonzero" fill-opacity="1" /><path clip-path="url(#clip610)" d="M1245.86 134.64 L1245.86 158.112 L1239.47 158.112 L1239.47 134.848 Q1239.47 129.327 1237.32 126.584 Q1235.17 123.841 1230.86 123.841 Q1225.69 123.841 1222.7 127.14 Q1219.71 130.439 1219.71 136.133 L1219.71 158.112 L1213.29 158.112 L1213.29 119.223 L1219.71 119.223 L1219.71 125.265 Q1222.01 121.758 1225.1 120.022 Q1228.22 118.286 1232.28 118.286 Q1238.98 118.286 1242.42 122.452 Q1245.86 126.584 1245.86 134.64 Z" fill="#000000" fill-rule="nonzero" fill-opacity="1" /><path clip-path="url(#clip610)" d="M1277.49 119.223 L1283.88 119.223 L1291.87 149.57 L1299.82 119.223 L1307.35 119.223 L1315.34 149.57 L1323.29 119.223 L1329.68 119.223 L1319.51 158.112 L1311.97 158.112 L1303.6 126.237 L1295.2 158.112 L1287.67 158.112 L1277.49 119.223 Z" fill="#000000" fill-rule="nonzero" fill-opacity="1" /><path clip-path="url(#clip610)" d="M1339.37 119.223 L1345.76 119.223 L1345.76 158.112 L1339.37 158.112 L1339.37 119.223 M1339.37 104.085 L1345.76 104.085 L1345.76 112.175 L1339.37 112.175 L1339.37 104.085 Z" fill="#000000" fill-rule="nonzero" fill-opacity="1" /><path clip-path="url(#clip610)" d="M1365.44 108.182 L1365.44 119.223 L1378.6 119.223 L1378.6 124.189 L1365.44 124.189 L1365.44 145.3 Q1365.44 150.056 1366.73 151.411 Q1368.05 152.765 1372.04 152.765 L1378.6 152.765 L1378.6 158.112 L1372.04 158.112 Q1364.64 158.112 1361.83 155.369 Q1359.02 152.591 1359.02 145.3 L1359.02 124.189 L1354.33 124.189 L1354.33 119.223 L1359.02 119.223 L1359.02 108.182 L1365.44 108.182 Z" fill="#000000" fill-rule="nonzero" fill-opacity="1" /><path clip-path="url(#clip610)" d="M1419.33 134.64 L1419.33 158.112 L1412.94 158.112 L1412.94 134.848 Q1412.94 129.327 1410.79 126.584 Q1408.64 123.841 1404.33 123.841 Q1399.16 123.841 1396.17 127.14 Q1393.19 130.439 1393.19 136.133 L1393.19 158.112 L1386.76 158.112 L1386.76 104.085 L1393.19 104.085 L1393.19 125.265 Q1395.48 121.758 1398.57 120.022 Q1401.69 118.286 1405.75 118.286 Q1412.46 118.286 1415.89 122.452 Q1419.33 126.584 1419.33 134.64 Z" fill="#000000" fill-rule="nonzero" fill-opacity="1" /><path clip-path="url(#clip610)" d="M1450.09 119.223 L1456.87 119.223 L1469.02 151.862 L1481.17 119.223 L1487.94 119.223 L1473.36 158.112 L1464.68 158.112 L1450.09 119.223 Z" fill="#000000" fill-rule="nonzero" fill-opacity="1" /><path clip-path="url(#clip610)" d="M1514.43 138.563 Q1506.69 138.563 1503.71 140.334 Q1500.72 142.105 1500.72 146.376 Q1500.72 149.779 1502.94 151.793 Q1505.2 153.772 1509.05 153.772 Q1514.37 153.772 1517.56 150.022 Q1520.79 146.237 1520.79 139.987 L1520.79 138.563 L1514.43 138.563 M1527.18 135.925 L1527.18 158.112 L1520.79 158.112 L1520.79 152.209 Q1518.6 155.751 1515.34 157.452 Q1512.07 159.119 1507.35 159.119 Q1501.38 159.119 1497.84 155.786 Q1494.33 152.418 1494.33 146.793 Q1494.33 140.23 1498.71 136.897 Q1503.12 133.564 1511.83 133.564 L1520.79 133.564 L1520.79 132.939 Q1520.79 128.529 1517.87 126.133 Q1514.99 123.702 1509.75 123.702 Q1506.41 123.702 1503.25 124.501 Q1500.09 125.3 1497.18 126.897 L1497.18 120.994 Q1500.68 119.64 1503.98 118.98 Q1507.28 118.286 1510.41 118.286 Q1518.84 118.286 1523.01 122.661 Q1527.18 127.036 1527.18 135.925 Z" fill="#000000" fill-rule="nonzero" fill-opacity="1" /><path clip-path="url(#clip610)" d="M1562.87 125.196 Q1561.8 124.571 1560.51 124.293 Q1559.26 123.98 1557.73 123.98 Q1552.32 123.98 1549.4 127.522 Q1546.52 131.029 1546.52 137.626 L1546.52 158.112 L1540.09 158.112 L1540.09 119.223 L1546.52 119.223 L1546.52 125.265 Q1548.53 121.723 1551.76 120.022 Q1554.99 118.286 1559.61 118.286 Q1560.27 118.286 1561.07 118.39 Q1561.87 118.459 1562.84 118.633 L1562.87 125.196 Z" fill="#000000" fill-rule="nonzero" fill-opacity="1" /><path clip-path="url(#clip610)" d="M1585.75 161.723 Q1583.05 168.667 1580.48 170.786 Q1577.91 172.904 1573.6 172.904 L1568.5 172.904 L1568.5 167.556 L1572.25 167.556 Q1574.89 167.556 1576.34 166.306 Q1577.8 165.056 1579.57 160.404 L1580.72 157.487 L1564.99 119.223 L1571.76 119.223 L1583.91 149.64 L1596.07 119.223 L1602.84 119.223 L1585.75 161.723 Z" fill="#000000" fill-rule="nonzero" fill-opacity="1" /><path clip-path="url(#clip610)" d="M1611.66 119.223 L1618.05 119.223 L1618.05 158.112 L1611.66 158.112 L1611.66 119.223 M1611.66 104.085 L1618.05 104.085 L1618.05 112.175 L1611.66 112.175 L1611.66 104.085 Z" fill="#000000" fill-rule="nonzero" fill-opacity="1" /><path clip-path="url(#clip610)" d="M1663.74 134.64 L1663.74 158.112 L1657.35 158.112 L1657.35 134.848 Q1657.35 129.327 1655.2 126.584 Q1653.05 123.841 1648.74 123.841 Q1643.57 123.841 1640.58 127.14 Q1637.59 130.439 1637.59 136.133 L1637.59 158.112 L1631.17 158.112 L1631.17 119.223 L1637.59 119.223 L1637.59 125.265 Q1639.89 121.758 1642.98 120.022 Q1646.1 118.286 1650.16 118.286 Q1656.86 118.286 1660.3 122.452 Q1663.74 126.584 1663.74 134.64 Z" fill="#000000" fill-rule="nonzero" fill-opacity="1" /><path clip-path="url(#clip610)" d="M1702.07 138.216 Q1702.07 131.272 1699.19 127.452 Q1696.34 123.633 1691.17 123.633 Q1686.03 123.633 1683.15 127.452 Q1680.3 131.272 1680.3 138.216 Q1680.3 145.126 1683.15 148.945 Q1686.03 152.765 1691.17 152.765 Q1696.34 152.765 1699.19 148.945 Q1702.07 145.126 1702.07 138.216 M1708.46 153.286 Q1708.46 163.216 1704.05 168.043 Q1699.64 172.904 1690.55 172.904 Q1687.18 172.904 1684.19 172.383 Q1681.2 171.897 1678.39 170.855 L1678.39 164.64 Q1681.2 166.168 1683.95 166.897 Q1686.69 167.626 1689.54 167.626 Q1695.82 167.626 1698.95 164.327 Q1702.07 161.063 1702.07 154.431 L1702.07 151.272 Q1700.09 154.709 1697 156.411 Q1693.91 158.112 1689.61 158.112 Q1682.45 158.112 1678.08 152.661 Q1673.7 147.209 1673.7 138.216 Q1673.7 129.189 1678.08 123.737 Q1682.45 118.286 1689.61 118.286 Q1693.91 118.286 1697 119.987 Q1700.09 121.689 1702.07 125.126 L1702.07 119.223 L1708.46 119.223 L1708.46 153.286 Z" fill="#000000" fill-rule="nonzero" fill-opacity="1" /><path clip-path="url(#clip610)" d="M1744.5 106.272 L1753.95 106.272 L1776.93 149.64 L1776.93 106.272 L1783.74 106.272 L1783.74 158.112 L1774.29 158.112 L1751.31 114.744 L1751.31 158.112 L1744.5 158.112 L1744.5 106.272 Z" fill="#000000" fill-rule="nonzero" fill-opacity="1" /><path clip-path="url(#clip610)" d="M1799.05 149.293 L1806.38 149.293 L1806.38 155.265 L1800.68 166.376 L1796.2 166.376 L1799.05 155.265 L1799.05 149.293 Z" fill="#000000" fill-rule="nonzero" fill-opacity="1" /><path clip-path="url(#clip610)" d="M1835.72 106.272 L1879.57 106.272 L1879.57 112.175 L1861.17 112.175 L1861.17 158.112 L1854.12 158.112 L1854.12 112.175 L1835.72 112.175 L1835.72 106.272 Z" fill="#000000" fill-rule="nonzero" fill-opacity="1" /><path clip-path="url(#clip610)" d="M1886.9 125.821 L1931.41 125.821 L1931.41 131.654 L1886.9 131.654 L1886.9 125.821 M1886.9 139.987 L1931.41 139.987 L1931.41 145.89 L1886.9 145.89 L1886.9 139.987 Z" fill="#000000" fill-rule="nonzero" fill-opacity="1" /><path clip-path="url(#clip610)" d="M1947.77 152.209 L1959.22 152.209 L1959.22 112.661 L1946.76 115.161 L1946.76 108.772 L1959.15 106.272 L1966.17 106.272 L1966.17 152.209 L1977.63 152.209 L1977.63 158.112 L1947.77 158.112 L1947.77 152.209 Z" fill="#000000" fill-rule="nonzero" fill-opacity="1" /><path clip-path="url(#clip610)" d="M1992.52 149.293 L1999.85 149.293 L1999.85 155.265 L1994.15 166.376 L1989.68 166.376 L1992.52 155.265 L1992.52 149.293 Z" fill="#000000" fill-rule="nonzero" fill-opacity="1" /><path clip-path="url(#clip610)" d="M2036.1 119.223 L2042.49 119.223 L2042.49 158.112 L2036.1 158.112 L2036.1 119.223 M2036.1 104.085 L2042.49 104.085 L2042.49 112.175 L2036.1 112.175 L2036.1 104.085 Z" fill="#000000" fill-rule="nonzero" fill-opacity="1" /><path clip-path="url(#clip610)" d="M2056.69 125.821 L2101.2 125.821 L2101.2 131.654 L2056.69 131.654 L2056.69 125.821 M2056.69 139.987 L2101.2 139.987 L2101.2 145.89 L2056.69 145.89 L2056.69 139.987 Z" fill="#000000" fill-rule="nonzero" fill-opacity="1" /><path clip-path="url(#clip610)" d="M2117.56 152.209 L2129.01 152.209 L2129.01 112.661 L2116.55 115.161 L2116.55 108.772 L2128.95 106.272 L2135.96 106.272 L2135.96 152.209 L2147.42 152.209 L2147.42 158.112 L2117.56 158.112 L2117.56 152.209 Z" fill="#000000" fill-rule="nonzero" fill-opacity="1" /><path clip-path="url(#clip610)" d="M2176.58 110.89 Q2171.17 110.89 2168.42 116.237 Q2165.72 121.55 2165.72 132.244 Q2165.72 142.904 2168.42 148.251 Q2171.17 153.563 2176.58 153.563 Q2182.04 153.563 2184.74 148.251 Q2187.49 142.904 2187.49 132.244 Q2187.49 121.55 2184.74 116.237 Q2182.04 110.89 2176.58 110.89 M2176.58 105.335 Q2185.3 105.335 2189.88 112.244 Q2194.5 119.119 2194.5 132.244 Q2194.5 145.334 2189.88 152.244 Q2185.3 159.119 2176.58 159.119 Q2167.87 159.119 2163.25 152.244 Q2158.67 145.334 2158.67 132.244 Q2158.67 119.119 2163.25 112.244 Q2167.87 105.335 2176.58 105.335 Z" fill="#000000" fill-rule="nonzero" fill-opacity="1" /><path clip-path="url(#clip610)" d="M2207.56 149.293 L2214.88 149.293 L2214.88 155.265 L2209.19 166.376 L2204.71 166.376 L2207.56 155.265 L2207.56 149.293 Z" fill="#000000" fill-rule="nonzero" fill-opacity="1" /><path clip-path="url(#clip610)" d="M2244.43 110.89 Q2239.01 110.89 2236.27 116.237 Q2233.56 121.55 2233.56 132.244 Q2233.56 142.904 2236.27 148.251 Q2239.01 153.563 2244.43 153.563 Q2249.88 153.563 2252.59 148.251 Q2255.33 142.904 2255.33 132.244 Q2255.33 121.55 2252.59 116.237 Q2249.88 110.89 2244.43 110.89 M2244.43 105.335 Q2253.15 105.335 2257.73 112.244 Q2262.35 119.119 2262.35 132.244 Q2262.35 145.334 2257.73 152.244 Q2253.15 159.119 2244.43 159.119 Q2235.72 159.119 2231.1 152.244 Q2226.51 145.334 2226.51 132.244 Q2226.51 119.119 2231.1 112.244 Q2235.72 105.335 2244.43 105.335 Z" fill="#000000" fill-rule="nonzero" fill-opacity="1" /><path clip-path="url(#clip610)" d="M2289.67 110.89 Q2284.26 110.89 2281.51 116.237 Q2278.81 121.55 2278.81 132.244 Q2278.81 142.904 2281.51 148.251 Q2284.26 153.563 2289.67 153.563 Q2295.13 153.563 2297.83 148.251 Q2300.58 142.904 2300.58 132.244 Q2300.58 121.55 2297.83 116.237 Q2295.13 110.89 2289.67 110.89 M2289.67 105.335 Q2298.39 105.335 2302.97 112.244 Q2307.59 119.119 2307.59 132.244 Q2307.59 145.334 2302.97 152.244 Q2298.39 159.119 2289.67 159.119 Q2280.96 159.119 2276.34 152.244 Q2271.76 145.334 2271.76 132.244 Q2271.76 119.119 2276.34 112.244 Q2280.96 105.335 2289.67 105.335 Z" fill="#000000" fill-rule="nonzero" fill-opacity="1" /><path clip-path="url(#clip610)" d="M2334.92 110.89 Q2329.5 110.89 2326.76 116.237 Q2324.05 121.55 2324.05 132.244 Q2324.05 142.904 2326.76 148.251 Q2329.5 153.563 2334.92 153.563 Q2340.37 153.563 2343.08 148.251 Q2345.82 142.904 2345.82 132.244 Q2345.82 121.55 2343.08 116.237 Q2340.37 110.89 2334.92 110.89 M2334.92 105.335 Q2343.63 105.335 2348.22 112.244 Q2352.83 119.119 2352.83 132.244 Q2352.83 145.334 2348.22 152.244 Q2343.63 159.119 2334.92 159.119 Q2326.2 159.119 2321.58 152.244 Q2317 145.334 2317 132.244 Q2317 119.119 2321.58 112.244 Q2326.2 105.335 2334.92 105.335 Z" fill="#000000" fill-rule="nonzero" fill-opacity="1" /><polyline clip-path="url(#clip612)" style="stroke:#009af9; stroke-linecap:round; stroke-linejoin:round; stroke-width:4; stroke-opacity:1; fill:none" points="367.683,1387.62 570.552,202.234 773.421,1134.67 1280.59,1240.88 1787.77,1074.07 2294.94,1175.51 "/>
</svg>
