<?xml version="1.0" encoding="utf-8"?>
<svg xmlns="http://www.w3.org/2000/svg" xmlns:xlink="http://www.w3.org/1999/xlink" width="600" height="400" viewBox="0 0 2400 1600">
<defs>
  <clipPath id="clip540">
    <rect x="0" y="0" width="2400" height="1600"/>
  </clipPath>
</defs>
<path clip-path="url(#clip540)" d="M0 1600 L2400 1600 L2400 0 L0 0  Z" fill="#ffffff" fill-rule="evenodd" fill-opacity="1"/>
<defs>
  <clipPath id="clip541">
    <rect x="480" y="0" width="1681" height="1600"/>
  </clipPath>
</defs>
<path clip-path="url(#clip540)" d="M249.542 1423.18 L2352.76 1423.18 L2352.76 183.952 L249.542 183.952  Z" fill="#ffffff" fill-rule="evenodd" fill-opacity="1"/>
<defs>
  <clipPath id="clip542">
    <rect x="249" y="183" width="2104" height="1240"/>
  </clipPath>
</defs>
<polyline clip-path="url(#clip542)" style="stroke:#000000; stroke-linecap:round; stroke-linejoin:round; stroke-width:2; stroke-opacity:0.1; fill:none" points="529.53,1423.18 529.53,183.952 "/>
<polyline clip-path="url(#clip542)" style="stroke:#000000; stroke-linecap:round; stroke-linejoin:round; stroke-width:2; stroke-opacity:0.1; fill:none" points="970.455,1423.18 970.455,183.952 "/>
<polyline clip-path="url(#clip542)" style="stroke:#000000; stroke-linecap:round; stroke-linejoin:round; stroke-width:2; stroke-opacity:0.1; fill:none" points="1411.38,1423.18 1411.38,183.952 "/>
<polyline clip-path="url(#clip542)" style="stroke:#000000; stroke-linecap:round; stroke-linejoin:round; stroke-width:2; stroke-opacity:0.1; fill:none" points="1852.31,1423.18 1852.31,183.952 "/>
<polyline clip-path="url(#clip542)" style="stroke:#000000; stroke-linecap:round; stroke-linejoin:round; stroke-width:2; stroke-opacity:0.1; fill:none" points="2293.23,1423.18 2293.23,183.952 "/>
<polyline clip-path="url(#clip540)" style="stroke:#000000; stroke-linecap:round; stroke-linejoin:round; stroke-width:4; stroke-opacity:1; fill:none" points="249.542,1423.18 2352.76,1423.18 "/>
<polyline clip-path="url(#clip540)" style="stroke:#000000; stroke-linecap:round; stroke-linejoin:round; stroke-width:4; stroke-opacity:1; fill:none" points="529.53,1423.18 529.53,1404.28 "/>
<polyline clip-path="url(#clip540)" style="stroke:#000000; stroke-linecap:round; stroke-linejoin:round; stroke-width:4; stroke-opacity:1; fill:none" points="970.455,1423.18 970.455,1404.28 "/>
<polyline clip-path="url(#clip540)" style="stroke:#000000; stroke-linecap:round; stroke-linejoin:round; stroke-width:4; stroke-opacity:1; fill:none" points="1411.38,1423.18 1411.38,1404.28 "/>
<polyline clip-path="url(#clip540)" style="stroke:#000000; stroke-linecap:round; stroke-linejoin:round; stroke-width:4; stroke-opacity:1; fill:none" points="1852.31,1423.18 1852.31,1404.28 "/>
<polyline clip-path="url(#clip540)" style="stroke:#000000; stroke-linecap:round; stroke-linejoin:round; stroke-width:4; stroke-opacity:1; fill:none" points="2293.23,1423.18 2293.23,1404.28 "/>
<path clip-path="url(#clip540)" d="M508.303 1481.64 L524.622 1481.64 L524.622 1485.58 L502.678 1485.58 L502.678 1481.64 Q505.34 1478.89 509.923 1474.26 Q514.53 1469.61 515.71 1468.27 Q517.956 1465.74 518.835 1464.01 Q519.738 1462.25 519.738 1460.56 Q519.738 1457.8 517.794 1456.07 Q515.872 1454.33 512.77 1454.33 Q510.571 1454.33 508.118 1455.09 Q505.687 1455.86 502.909 1457.41 L502.909 1452.69 Q505.733 1451.55 508.187 1450.97 Q510.641 1450.39 512.678 1450.39 Q518.048 1450.39 521.243 1453.08 Q524.437 1455.77 524.437 1460.26 Q524.437 1462.39 523.627 1464.31 Q522.84 1466.2 520.733 1468.8 Q520.155 1469.47 517.053 1472.69 Q513.951 1475.88 508.303 1481.64 Z" fill="#000000" fill-rule="nonzero" fill-opacity="1" /><path clip-path="url(#clip540)" d="M544.437 1454.1 Q540.826 1454.1 538.997 1457.66 Q537.192 1461.2 537.192 1468.33 Q537.192 1475.44 538.997 1479.01 Q540.826 1482.55 544.437 1482.55 Q548.071 1482.55 549.877 1479.01 Q551.705 1475.44 551.705 1468.33 Q551.705 1461.2 549.877 1457.66 Q548.071 1454.1 544.437 1454.1 M544.437 1450.39 Q550.247 1450.39 553.303 1455 Q556.381 1459.58 556.381 1468.33 Q556.381 1477.06 553.303 1481.67 Q550.247 1486.25 544.437 1486.25 Q538.627 1486.25 535.548 1481.67 Q532.493 1477.06 532.493 1468.33 Q532.493 1459.58 535.548 1455 Q538.627 1450.39 544.437 1450.39 Z" fill="#000000" fill-rule="nonzero" fill-opacity="1" /><path clip-path="url(#clip540)" d="M958.626 1455.09 L946.821 1473.54 L958.626 1473.54 L958.626 1455.09 M957.399 1451.02 L963.279 1451.02 L963.279 1473.54 L968.21 1473.54 L968.21 1477.43 L963.279 1477.43 L963.279 1485.58 L958.626 1485.58 L958.626 1477.43 L943.025 1477.43 L943.025 1472.92 L957.399 1451.02 Z" fill="#000000" fill-rule="nonzero" fill-opacity="1" /><path clip-path="url(#clip540)" d="M985.941 1454.1 Q982.33 1454.1 980.501 1457.66 Q978.696 1461.2 978.696 1468.33 Q978.696 1475.44 980.501 1479.01 Q982.33 1482.55 985.941 1482.55 Q989.575 1482.55 991.381 1479.01 Q993.209 1475.44 993.209 1468.33 Q993.209 1461.2 991.381 1457.66 Q989.575 1454.1 985.941 1454.1 M985.941 1450.39 Q991.751 1450.39 994.807 1455 Q997.885 1459.58 997.885 1468.33 Q997.885 1477.06 994.807 1481.67 Q991.751 1486.25 985.941 1486.25 Q980.131 1486.25 977.052 1481.67 Q973.997 1477.06 973.997 1468.33 Q973.997 1459.58 977.052 1455 Q980.131 1450.39 985.941 1450.39 Z" fill="#000000" fill-rule="nonzero" fill-opacity="1" /><path clip-path="url(#clip540)" d="M1396.79 1466.44 Q1393.64 1466.44 1391.79 1468.59 Q1389.96 1470.74 1389.96 1474.49 Q1389.96 1478.22 1391.79 1480.39 Q1393.64 1482.55 1396.79 1482.55 Q1399.93 1482.55 1401.76 1480.39 Q1403.61 1478.22 1403.61 1474.49 Q1403.61 1470.74 1401.76 1468.59 Q1399.93 1466.44 1396.79 1466.44 M1406.07 1451.78 L1406.07 1456.04 Q1404.31 1455.21 1402.5 1454.77 Q1400.72 1454.33 1398.96 1454.33 Q1394.33 1454.33 1391.88 1457.45 Q1389.45 1460.58 1389.1 1466.9 Q1390.47 1464.89 1392.53 1463.82 Q1394.59 1462.73 1397.06 1462.73 Q1402.27 1462.73 1405.28 1465.9 Q1408.31 1469.05 1408.31 1474.49 Q1408.31 1479.82 1405.17 1483.03 Q1402.02 1486.25 1396.79 1486.25 Q1390.79 1486.25 1387.62 1481.67 Q1384.45 1477.06 1384.45 1468.33 Q1384.45 1460.14 1388.34 1455.28 Q1392.23 1450.39 1398.78 1450.39 Q1400.54 1450.39 1402.32 1450.74 Q1404.12 1451.09 1406.07 1451.78 Z" fill="#000000" fill-rule="nonzero" fill-opacity="1" /><path clip-path="url(#clip540)" d="M1426.37 1454.1 Q1422.76 1454.1 1420.93 1457.66 Q1419.12 1461.2 1419.12 1468.33 Q1419.12 1475.44 1420.93 1479.01 Q1422.76 1482.55 1426.37 1482.55 Q1430 1482.55 1431.81 1479.01 Q1433.64 1475.44 1433.64 1468.33 Q1433.64 1461.2 1431.81 1457.66 Q1430 1454.1 1426.37 1454.1 M1426.37 1450.39 Q1432.18 1450.39 1435.23 1455 Q1438.31 1459.58 1438.31 1468.33 Q1438.31 1477.06 1435.23 1481.67 Q1432.18 1486.25 1426.37 1486.25 Q1420.56 1486.25 1417.48 1481.67 Q1414.42 1477.06 1414.42 1468.33 Q1414.42 1459.58 1417.48 1455 Q1420.56 1450.39 1426.37 1450.39 Z" fill="#000000" fill-rule="nonzero" fill-opacity="1" /><path clip-path="url(#clip540)" d="M1837.18 1469.17 Q1833.85 1469.17 1831.92 1470.95 Q1830.03 1472.73 1830.03 1475.86 Q1830.03 1478.98 1831.92 1480.77 Q1833.85 1482.55 1837.18 1482.55 Q1840.51 1482.55 1842.43 1480.77 Q1844.35 1478.96 1844.35 1475.86 Q1844.35 1472.73 1842.43 1470.95 Q1840.53 1469.17 1837.18 1469.17 M1832.5 1467.18 Q1829.49 1466.44 1827.8 1464.38 Q1826.14 1462.32 1826.14 1459.35 Q1826.14 1455.21 1829.08 1452.8 Q1832.04 1450.39 1837.18 1450.39 Q1842.34 1450.39 1845.28 1452.8 Q1848.22 1455.21 1848.22 1459.35 Q1848.22 1462.32 1846.53 1464.38 Q1844.86 1466.44 1841.88 1467.18 Q1845.26 1467.96 1847.13 1470.26 Q1849.03 1472.55 1849.03 1475.86 Q1849.03 1480.88 1845.95 1483.57 Q1842.9 1486.25 1837.18 1486.25 Q1831.46 1486.25 1828.38 1483.57 Q1825.33 1480.88 1825.33 1475.86 Q1825.33 1472.55 1827.22 1470.26 Q1829.12 1467.96 1832.5 1467.18 M1830.79 1459.79 Q1830.79 1462.48 1832.46 1463.98 Q1834.15 1465.49 1837.18 1465.49 Q1840.19 1465.49 1841.88 1463.98 Q1843.59 1462.48 1843.59 1459.79 Q1843.59 1457.11 1841.88 1455.6 Q1840.19 1454.1 1837.18 1454.1 Q1834.15 1454.1 1832.46 1455.6 Q1830.79 1457.11 1830.79 1459.79 Z" fill="#000000" fill-rule="nonzero" fill-opacity="1" /><path clip-path="url(#clip540)" d="M1867.34 1454.1 Q1863.73 1454.1 1861.9 1457.66 Q1860.09 1461.2 1860.09 1468.33 Q1860.09 1475.44 1861.9 1479.01 Q1863.73 1482.55 1867.34 1482.55 Q1870.97 1482.55 1872.78 1479.01 Q1874.61 1475.44 1874.61 1468.33 Q1874.61 1461.2 1872.78 1457.66 Q1870.97 1454.1 1867.34 1454.1 M1867.34 1450.39 Q1873.15 1450.39 1876.21 1455 Q1879.28 1459.58 1879.28 1468.33 Q1879.28 1477.06 1876.21 1481.67 Q1873.15 1486.25 1867.34 1486.25 Q1861.53 1486.25 1858.45 1481.67 Q1855.4 1477.06 1855.4 1468.33 Q1855.4 1459.58 1858.45 1455 Q1861.53 1450.39 1867.34 1450.39 Z" fill="#000000" fill-rule="nonzero" fill-opacity="1" /><path clip-path="url(#clip540)" d="M2252.84 1481.64 L2260.48 1481.64 L2260.48 1455.28 L2252.17 1456.95 L2252.17 1452.69 L2260.43 1451.02 L2265.11 1451.02 L2265.11 1481.64 L2272.74 1481.64 L2272.74 1485.58 L2252.84 1485.58 L2252.84 1481.64 Z" fill="#000000" fill-rule="nonzero" fill-opacity="1" /><path clip-path="url(#clip540)" d="M2292.19 1454.1 Q2288.58 1454.1 2286.75 1457.66 Q2284.94 1461.2 2284.94 1468.33 Q2284.94 1475.44 2286.75 1479.01 Q2288.58 1482.55 2292.19 1482.55 Q2295.82 1482.55 2297.63 1479.01 Q2299.46 1475.44 2299.46 1468.33 Q2299.46 1461.2 2297.63 1457.66 Q2295.82 1454.1 2292.19 1454.1 M2292.19 1450.39 Q2298 1450.39 2301.06 1455 Q2304.13 1459.58 2304.13 1468.33 Q2304.13 1477.06 2301.06 1481.67 Q2298 1486.25 2292.19 1486.25 Q2286.38 1486.25 2283.3 1481.67 Q2280.24 1477.06 2280.24 1468.33 Q2280.24 1459.58 2283.3 1455 Q2286.38 1450.39 2292.19 1450.39 Z" fill="#000000" fill-rule="nonzero" fill-opacity="1" /><path clip-path="url(#clip540)" d="M2322.35 1454.1 Q2318.74 1454.1 2316.91 1457.66 Q2315.11 1461.2 2315.11 1468.33 Q2315.11 1475.44 2316.91 1479.01 Q2318.74 1482.55 2322.35 1482.55 Q2325.99 1482.55 2327.79 1479.01 Q2329.62 1475.44 2329.62 1468.33 Q2329.62 1461.2 2327.79 1457.66 Q2325.99 1454.1 2322.35 1454.1 M2322.35 1450.39 Q2328.16 1450.39 2331.22 1455 Q2334.3 1459.58 2334.3 1468.33 Q2334.3 1477.06 2331.22 1481.67 Q2328.16 1486.25 2322.35 1486.25 Q2316.54 1486.25 2313.46 1481.67 Q2310.41 1477.06 2310.41 1468.33 Q2310.41 1459.58 2313.46 1455 Q2316.54 1450.39 2322.35 1450.39 Z" fill="#000000" fill-rule="nonzero" fill-opacity="1" /><path clip-path="url(#clip540)" d="M1078.17 1520.52 L1084.6 1520.52 L1084.6 1562.63 L1107.74 1562.63 L1107.74 1568.04 L1078.17 1568.04 L1078.17 1520.52 Z" fill="#000000" fill-rule="nonzero" fill-opacity="1" /><path clip-path="url(#clip540)" d="M1130.44 1550.12 Q1123.34 1550.12 1120.6 1551.75 Q1117.86 1553.37 1117.86 1557.29 Q1117.86 1560.4 1119.9 1562.25 Q1121.97 1564.07 1125.5 1564.07 Q1130.37 1564.07 1133.3 1560.63 Q1136.26 1557.16 1136.26 1551.43 L1136.26 1550.12 L1130.44 1550.12 M1142.12 1547.71 L1142.12 1568.04 L1136.26 1568.04 L1136.26 1562.63 Q1134.26 1565.88 1131.26 1567.44 Q1128.27 1568.97 1123.94 1568.97 Q1118.47 1568.97 1115.22 1565.91 Q1112.01 1562.82 1112.01 1557.67 Q1112.01 1551.65 1116.02 1548.6 Q1120.06 1545.54 1128.05 1545.54 L1136.26 1545.54 L1136.26 1544.97 Q1136.26 1540.93 1133.59 1538.73 Q1130.95 1536.5 1126.14 1536.5 Q1123.08 1536.5 1120.19 1537.23 Q1117.29 1537.97 1114.62 1539.43 L1114.62 1534.02 Q1117.83 1532.78 1120.86 1532.17 Q1123.88 1531.54 1126.74 1531.54 Q1134.48 1531.54 1138.3 1535.55 Q1142.12 1539.56 1142.12 1547.71 Z" fill="#000000" fill-rule="nonzero" fill-opacity="1" /><path clip-path="url(#clip540)" d="M1159.97 1522.27 L1159.97 1532.4 L1172.04 1532.4 L1172.04 1536.95 L1159.97 1536.95 L1159.97 1556.3 Q1159.97 1560.66 1161.15 1561.9 Q1162.36 1563.14 1166.02 1563.14 L1172.04 1563.14 L1172.04 1568.04 L1166.02 1568.04 Q1159.24 1568.04 1156.66 1565.53 Q1154.09 1562.98 1154.09 1556.3 L1154.09 1536.95 L1149.79 1536.95 L1149.79 1532.4 L1154.09 1532.4 L1154.09 1522.27 L1159.97 1522.27 Z" fill="#000000" fill-rule="nonzero" fill-opacity="1" /><path clip-path="url(#clip540)" d="M1185.53 1522.27 L1185.53 1532.4 L1197.59 1532.4 L1197.59 1536.95 L1185.53 1536.95 L1185.53 1556.3 Q1185.53 1560.66 1186.71 1561.9 Q1187.92 1563.14 1191.58 1563.14 L1197.59 1563.14 L1197.59 1568.04 L1191.58 1568.04 Q1184.8 1568.04 1182.22 1565.53 Q1179.64 1562.98 1179.64 1556.3 L1179.64 1536.95 L1175.35 1536.95 L1175.35 1532.4 L1179.64 1532.4 L1179.64 1522.27 L1185.53 1522.27 Z" fill="#000000" fill-rule="nonzero" fill-opacity="1" /><path clip-path="url(#clip540)" d="M1205.3 1532.4 L1211.15 1532.4 L1211.15 1568.04 L1205.3 1568.04 L1205.3 1532.4 M1205.3 1518.52 L1211.15 1518.52 L1211.15 1525.93 L1205.3 1525.93 L1205.3 1518.52 Z" fill="#000000" fill-rule="nonzero" fill-opacity="1" /><path clip-path="url(#clip540)" d="M1249.06 1533.76 L1249.06 1539.24 Q1246.58 1537.87 1244.06 1537.2 Q1241.58 1536.5 1239.04 1536.5 Q1233.34 1536.5 1230.19 1540.13 Q1227.04 1543.73 1227.04 1550.25 Q1227.04 1556.78 1230.19 1560.4 Q1233.34 1564 1239.04 1564 Q1241.58 1564 1244.06 1563.33 Q1246.58 1562.63 1249.06 1561.26 L1249.06 1566.68 Q1246.61 1567.82 1243.97 1568.39 Q1241.36 1568.97 1238.4 1568.97 Q1230.35 1568.97 1225.6 1563.91 Q1220.86 1558.85 1220.86 1550.25 Q1220.86 1541.53 1225.64 1536.53 Q1230.44 1531.54 1238.78 1531.54 Q1241.49 1531.54 1244.06 1532.11 Q1246.64 1532.65 1249.06 1533.76 Z" fill="#000000" fill-rule="nonzero" fill-opacity="1" /><path clip-path="url(#clip540)" d="M1289.74 1548.76 L1289.74 1551.62 L1262.81 1551.62 Q1263.19 1557.67 1266.44 1560.85 Q1269.72 1564 1275.54 1564 Q1278.92 1564 1282.07 1563.17 Q1285.25 1562.35 1288.37 1560.69 L1288.37 1566.23 Q1285.22 1567.57 1281.91 1568.27 Q1278.6 1568.97 1275.19 1568.97 Q1266.66 1568.97 1261.67 1564 Q1256.7 1559.04 1256.7 1550.57 Q1256.7 1541.82 1261.41 1536.69 Q1266.15 1531.54 1274.17 1531.54 Q1281.37 1531.54 1285.54 1536.18 Q1289.74 1540.8 1289.74 1548.76 M1283.88 1547.04 Q1283.82 1542.23 1281.18 1539.37 Q1278.57 1536.5 1274.24 1536.5 Q1269.34 1536.5 1266.38 1539.27 Q1263.45 1542.04 1263 1547.07 L1283.88 1547.04 Z" fill="#000000" fill-rule="nonzero" fill-opacity="1" /><path clip-path="url(#clip540)" d="M1342.8 1533.45 L1342.8 1538.98 Q1340.31 1537.71 1337.64 1537.07 Q1334.97 1536.44 1332.1 1536.44 Q1327.74 1536.44 1325.55 1537.77 Q1323.38 1539.11 1323.38 1541.79 Q1323.38 1543.82 1324.94 1545 Q1326.5 1546.15 1331.21 1547.2 L1333.22 1547.64 Q1339.45 1548.98 1342.06 1551.43 Q1344.71 1553.85 1344.71 1558.21 Q1344.71 1563.17 1340.76 1566.07 Q1336.84 1568.97 1329.97 1568.97 Q1327.11 1568.97 1323.99 1568.39 Q1320.9 1567.85 1317.46 1566.74 L1317.46 1560.69 Q1320.71 1562.38 1323.86 1563.24 Q1327.01 1564.07 1330.1 1564.07 Q1334.23 1564.07 1336.46 1562.66 Q1338.69 1561.23 1338.69 1558.65 Q1338.69 1556.27 1337.07 1554.99 Q1335.48 1553.72 1330.03 1552.54 L1328 1552.07 Q1322.55 1550.92 1320.13 1548.56 Q1317.72 1546.18 1317.72 1542.04 Q1317.72 1537.01 1321.28 1534.27 Q1324.85 1531.54 1331.4 1531.54 Q1334.65 1531.54 1337.51 1532.01 Q1340.38 1532.49 1342.8 1533.45 Z" fill="#000000" fill-rule="nonzero" fill-opacity="1" /><path clip-path="url(#clip540)" d="M1354.03 1532.4 L1359.89 1532.4 L1359.89 1568.04 L1354.03 1568.04 L1354.03 1532.4 M1354.03 1518.52 L1359.89 1518.52 L1359.89 1525.93 L1354.03 1525.93 L1354.03 1518.52 Z" fill="#000000" fill-rule="nonzero" fill-opacity="1" /><path clip-path="url(#clip540)" d="M1369.6 1532.4 L1397.41 1532.4 L1397.41 1537.74 L1375.39 1563.37 L1397.41 1563.37 L1397.41 1568.04 L1368.8 1568.04 L1368.8 1562.7 L1390.83 1537.07 L1369.6 1537.07 L1369.6 1532.4 Z" fill="#000000" fill-rule="nonzero" fill-opacity="1" /><path clip-path="url(#clip540)" d="M1436.85 1548.76 L1436.85 1551.62 L1409.92 1551.62 Q1410.3 1557.67 1413.55 1560.85 Q1416.83 1564 1422.65 1564 Q1426.03 1564 1429.18 1563.17 Q1432.36 1562.35 1435.48 1560.69 L1435.48 1566.23 Q1432.33 1567.57 1429.02 1568.27 Q1425.71 1568.97 1422.3 1568.97 Q1413.77 1568.97 1408.78 1564 Q1403.81 1559.04 1403.81 1550.57 Q1403.81 1541.82 1408.52 1536.69 Q1413.26 1531.54 1421.29 1531.54 Q1428.48 1531.54 1432.65 1536.18 Q1436.85 1540.8 1436.85 1548.76 M1430.99 1547.04 Q1430.93 1542.23 1428.29 1539.37 Q1425.68 1536.5 1421.35 1536.5 Q1416.45 1536.5 1413.49 1539.27 Q1410.56 1542.04 1410.11 1547.07 L1430.99 1547.04 Z" fill="#000000" fill-rule="nonzero" fill-opacity="1" /><path clip-path="url(#clip540)" d="M1447.96 1559.96 L1454.67 1559.96 L1454.67 1565.43 L1449.45 1575.62 L1445.35 1575.62 L1447.96 1565.43 L1447.96 1559.96 Z" fill="#000000" fill-rule="nonzero" fill-opacity="1" /><path clip-path="url(#clip540)" d="M1488.16 1520.52 L1496.81 1520.52 L1517.89 1560.28 L1517.89 1520.52 L1524.12 1520.52 L1524.12 1568.04 L1515.47 1568.04 L1494.4 1528.29 L1494.4 1568.04 L1488.16 1568.04 L1488.16 1520.52 Z" fill="#000000" fill-rule="nonzero" fill-opacity="1" /><polyline clip-path="url(#clip542)" style="stroke:#000000; stroke-linecap:round; stroke-linejoin:round; stroke-width:2; stroke-opacity:0.1; fill:none" points="249.542,1386.37 2352.76,1386.37 "/>
<polyline clip-path="url(#clip542)" style="stroke:#000000; stroke-linecap:round; stroke-linejoin:round; stroke-width:2; stroke-opacity:0.1; fill:none" points="249.542,1134.29 2352.76,1134.29 "/>
<polyline clip-path="url(#clip542)" style="stroke:#000000; stroke-linecap:round; stroke-linejoin:round; stroke-width:2; stroke-opacity:0.1; fill:none" points="249.542,882.202 2352.76,882.202 "/>
<polyline clip-path="url(#clip542)" style="stroke:#000000; stroke-linecap:round; stroke-linejoin:round; stroke-width:2; stroke-opacity:0.1; fill:none" points="249.542,630.119 2352.76,630.119 "/>
<polyline clip-path="url(#clip542)" style="stroke:#000000; stroke-linecap:round; stroke-linejoin:round; stroke-width:2; stroke-opacity:0.1; fill:none" points="249.542,378.035 2352.76,378.035 "/>
<polyline clip-path="url(#clip540)" style="stroke:#000000; stroke-linecap:round; stroke-linejoin:round; stroke-width:4; stroke-opacity:1; fill:none" points="249.542,1423.18 249.542,183.952 "/>
<polyline clip-path="url(#clip540)" style="stroke:#000000; stroke-linecap:round; stroke-linejoin:round; stroke-width:4; stroke-opacity:1; fill:none" points="249.542,1386.37 268.44,1386.37 "/>
<polyline clip-path="url(#clip540)" style="stroke:#000000; stroke-linecap:round; stroke-linejoin:round; stroke-width:4; stroke-opacity:1; fill:none" points="249.542,1134.29 268.44,1134.29 "/>
<polyline clip-path="url(#clip540)" style="stroke:#000000; stroke-linecap:round; stroke-linejoin:round; stroke-width:4; stroke-opacity:1; fill:none" points="249.542,882.202 268.44,882.202 "/>
<polyline clip-path="url(#clip540)" style="stroke:#000000; stroke-linecap:round; stroke-linejoin:round; stroke-width:4; stroke-opacity:1; fill:none" points="249.542,630.119 268.44,630.119 "/>
<polyline clip-path="url(#clip540)" style="stroke:#000000; stroke-linecap:round; stroke-linejoin:round; stroke-width:4; stroke-opacity:1; fill:none" points="249.542,378.035 268.44,378.035 "/>
<path clip-path="url(#clip540)" d="M127.2 1372.17 Q123.589 1372.17 121.76 1375.73 Q119.955 1379.27 119.955 1386.4 Q119.955 1393.51 121.76 1397.08 Q123.589 1400.62 127.2 1400.62 Q130.834 1400.62 132.64 1397.08 Q134.468 1393.51 134.468 1386.4 Q134.468 1379.27 132.64 1375.73 Q130.834 1372.17 127.2 1372.17 M127.2 1368.46 Q133.01 1368.46 136.066 1373.07 Q139.144 1377.65 139.144 1386.4 Q139.144 1395.13 136.066 1399.74 Q133.01 1404.32 127.2 1404.32 Q121.39 1404.32 118.311 1399.74 Q115.256 1395.13 115.256 1386.4 Q115.256 1377.65 118.311 1373.07 Q121.39 1368.46 127.2 1368.46 Z" fill="#000000" fill-rule="nonzero" fill-opacity="1" /><path clip-path="url(#clip540)" d="M147.362 1397.77 L152.246 1397.77 L152.246 1403.65 L147.362 1403.65 L147.362 1397.77 Z" fill="#000000" fill-rule="nonzero" fill-opacity="1" /><path clip-path="url(#clip540)" d="M172.431 1372.17 Q168.82 1372.17 166.991 1375.73 Q165.186 1379.27 165.186 1386.4 Q165.186 1393.51 166.991 1397.08 Q168.82 1400.62 172.431 1400.62 Q176.065 1400.62 177.871 1397.08 Q179.7 1393.51 179.7 1386.4 Q179.7 1379.27 177.871 1375.73 Q176.065 1372.17 172.431 1372.17 M172.431 1368.46 Q178.241 1368.46 181.297 1373.07 Q184.376 1377.65 184.376 1386.4 Q184.376 1395.13 181.297 1399.74 Q178.241 1404.32 172.431 1404.32 Q166.621 1404.32 163.542 1399.74 Q160.487 1395.13 160.487 1386.4 Q160.487 1377.65 163.542 1373.07 Q166.621 1368.46 172.431 1368.46 Z" fill="#000000" fill-rule="nonzero" fill-opacity="1" /><path clip-path="url(#clip540)" d="M192.639 1369.09 L210.996 1369.09 L210.996 1373.02 L196.922 1373.02 L196.922 1381.5 Q197.94 1381.15 198.959 1380.99 Q199.977 1380.8 200.996 1380.8 Q206.783 1380.8 210.162 1383.97 Q213.542 1387.14 213.542 1392.56 Q213.542 1398.14 210.07 1401.24 Q206.598 1404.32 200.278 1404.32 Q198.102 1404.32 195.834 1403.95 Q193.588 1403.58 191.181 1402.84 L191.181 1398.14 Q193.264 1399.27 195.487 1399.83 Q197.709 1400.39 200.186 1400.39 Q204.19 1400.39 206.528 1398.28 Q208.866 1396.17 208.866 1392.56 Q208.866 1388.95 206.528 1386.84 Q204.19 1384.74 200.186 1384.74 Q198.311 1384.74 196.436 1385.15 Q194.584 1385.57 192.639 1386.45 L192.639 1369.09 Z" fill="#000000" fill-rule="nonzero" fill-opacity="1" /><path clip-path="url(#clip540)" d="M126.205 1120.08 Q122.593 1120.08 120.765 1123.65 Q118.959 1127.19 118.959 1134.32 Q118.959 1141.43 120.765 1144.99 Q122.593 1148.53 126.205 1148.53 Q129.839 1148.53 131.644 1144.99 Q133.473 1141.43 133.473 1134.32 Q133.473 1127.19 131.644 1123.65 Q129.839 1120.08 126.205 1120.08 M126.205 1116.38 Q132.015 1116.38 135.07 1120.99 Q138.149 1125.57 138.149 1134.32 Q138.149 1143.05 135.07 1147.65 Q132.015 1152.24 126.205 1152.24 Q120.394 1152.24 117.316 1147.65 Q114.26 1143.05 114.26 1134.32 Q114.26 1125.57 117.316 1120.99 Q120.394 1116.38 126.205 1116.38 Z" fill="#000000" fill-rule="nonzero" fill-opacity="1" /><path clip-path="url(#clip540)" d="M146.366 1145.69 L151.251 1145.69 L151.251 1151.57 L146.366 1151.57 L146.366 1145.69 Z" fill="#000000" fill-rule="nonzero" fill-opacity="1" /><path clip-path="url(#clip540)" d="M162.246 1147.63 L169.885 1147.63 L169.885 1121.27 L161.575 1122.93 L161.575 1118.67 L169.839 1117.01 L174.514 1117.01 L174.514 1147.63 L182.153 1147.63 L182.153 1151.57 L162.246 1151.57 L162.246 1147.63 Z" fill="#000000" fill-rule="nonzero" fill-opacity="1" /><path clip-path="url(#clip540)" d="M201.598 1120.08 Q197.987 1120.08 196.158 1123.65 Q194.352 1127.19 194.352 1134.32 Q194.352 1141.43 196.158 1144.99 Q197.987 1148.53 201.598 1148.53 Q205.232 1148.53 207.037 1144.99 Q208.866 1141.43 208.866 1134.32 Q208.866 1127.19 207.037 1123.65 Q205.232 1120.08 201.598 1120.08 M201.598 1116.38 Q207.408 1116.38 210.463 1120.99 Q213.542 1125.57 213.542 1134.32 Q213.542 1143.05 210.463 1147.65 Q207.408 1152.24 201.598 1152.24 Q195.787 1152.24 192.709 1147.65 Q189.653 1143.05 189.653 1134.32 Q189.653 1125.57 192.709 1120.99 Q195.787 1116.38 201.598 1116.38 Z" fill="#000000" fill-rule="nonzero" fill-opacity="1" /><path clip-path="url(#clip540)" d="M127.2 868.001 Q123.589 868.001 121.76 871.566 Q119.955 875.108 119.955 882.237 Q119.955 889.344 121.76 892.908 Q123.589 896.45 127.2 896.45 Q130.834 896.45 132.64 892.908 Q134.468 889.344 134.468 882.237 Q134.468 875.108 132.64 871.566 Q130.834 868.001 127.2 868.001 M127.2 864.297 Q133.01 864.297 136.066 868.904 Q139.144 873.487 139.144 882.237 Q139.144 890.964 136.066 895.57 Q133.01 900.154 127.2 900.154 Q121.39 900.154 118.311 895.57 Q115.256 890.964 115.256 882.237 Q115.256 873.487 118.311 868.904 Q121.39 864.297 127.2 864.297 Z" fill="#000000" fill-rule="nonzero" fill-opacity="1" /><path clip-path="url(#clip540)" d="M147.362 893.603 L152.246 893.603 L152.246 899.482 L147.362 899.482 L147.362 893.603 Z" fill="#000000" fill-rule="nonzero" fill-opacity="1" /><path clip-path="url(#clip540)" d="M163.241 895.547 L170.88 895.547 L170.88 869.182 L162.57 870.848 L162.57 866.589 L170.834 864.922 L175.51 864.922 L175.51 895.547 L183.149 895.547 L183.149 899.482 L163.241 899.482 L163.241 895.547 Z" fill="#000000" fill-rule="nonzero" fill-opacity="1" /><path clip-path="url(#clip540)" d="M192.639 864.922 L210.996 864.922 L210.996 868.858 L196.922 868.858 L196.922 877.33 Q197.94 876.983 198.959 876.82 Q199.977 876.635 200.996 876.635 Q206.783 876.635 210.162 879.807 Q213.542 882.978 213.542 888.394 Q213.542 893.973 210.07 897.075 Q206.598 900.154 200.278 900.154 Q198.102 900.154 195.834 899.783 Q193.588 899.413 191.181 898.672 L191.181 893.973 Q193.264 895.107 195.487 895.663 Q197.709 896.219 200.186 896.219 Q204.19 896.219 206.528 894.112 Q208.866 892.006 208.866 888.394 Q208.866 884.783 206.528 882.677 Q204.19 880.57 200.186 880.57 Q198.311 880.57 196.436 880.987 Q194.584 881.404 192.639 882.283 L192.639 864.922 Z" fill="#000000" fill-rule="nonzero" fill-opacity="1" /><path clip-path="url(#clip540)" d="M126.205 615.918 Q122.593 615.918 120.765 619.482 Q118.959 623.024 118.959 630.154 Q118.959 637.26 120.765 640.825 Q122.593 644.367 126.205 644.367 Q129.839 644.367 131.644 640.825 Q133.473 637.26 133.473 630.154 Q133.473 623.024 131.644 619.482 Q129.839 615.918 126.205 615.918 M126.205 612.214 Q132.015 612.214 135.07 616.82 Q138.149 621.404 138.149 630.154 Q138.149 638.88 135.07 643.487 Q132.015 648.07 126.205 648.07 Q120.394 648.07 117.316 643.487 Q114.26 638.88 114.26 630.154 Q114.26 621.404 117.316 616.82 Q120.394 612.214 126.205 612.214 Z" fill="#000000" fill-rule="nonzero" fill-opacity="1" /><path clip-path="url(#clip540)" d="M146.366 641.519 L151.251 641.519 L151.251 647.399 L146.366 647.399 L146.366 641.519 Z" fill="#000000" fill-rule="nonzero" fill-opacity="1" /><path clip-path="url(#clip540)" d="M165.464 643.464 L181.783 643.464 L181.783 647.399 L159.839 647.399 L159.839 643.464 Q162.501 640.709 167.084 636.08 Q171.69 631.427 172.871 630.084 Q175.116 627.561 175.996 625.825 Q176.899 624.066 176.899 622.376 Q176.899 619.621 174.954 617.885 Q173.033 616.149 169.931 616.149 Q167.732 616.149 165.278 616.913 Q162.848 617.677 160.07 619.228 L160.07 614.506 Q162.894 613.371 165.348 612.793 Q167.802 612.214 169.839 612.214 Q175.209 612.214 178.403 614.899 Q181.598 617.584 181.598 622.075 Q181.598 624.205 180.788 626.126 Q180.001 628.024 177.894 630.617 Q177.315 631.288 174.214 634.505 Q171.112 637.7 165.464 643.464 Z" fill="#000000" fill-rule="nonzero" fill-opacity="1" /><path clip-path="url(#clip540)" d="M201.598 615.918 Q197.987 615.918 196.158 619.482 Q194.352 623.024 194.352 630.154 Q194.352 637.26 196.158 640.825 Q197.987 644.367 201.598 644.367 Q205.232 644.367 207.037 640.825 Q208.866 637.26 208.866 630.154 Q208.866 623.024 207.037 619.482 Q205.232 615.918 201.598 615.918 M201.598 612.214 Q207.408 612.214 210.463 616.82 Q213.542 621.404 213.542 630.154 Q213.542 638.88 210.463 643.487 Q207.408 648.07 201.598 648.07 Q195.787 648.07 192.709 643.487 Q189.653 638.88 189.653 630.154 Q189.653 621.404 192.709 616.82 Q195.787 612.214 201.598 612.214 Z" fill="#000000" fill-rule="nonzero" fill-opacity="1" /><path clip-path="url(#clip540)" d="M127.2 363.834 Q123.589 363.834 121.76 367.399 Q119.955 370.941 119.955 378.07 Q119.955 385.177 121.76 388.741 Q123.589 392.283 127.2 392.283 Q130.834 392.283 132.64 388.741 Q134.468 385.177 134.468 378.07 Q134.468 370.941 132.64 367.399 Q130.834 363.834 127.2 363.834 M127.2 360.13 Q133.01 360.13 136.066 364.737 Q139.144 369.32 139.144 378.07 Q139.144 386.797 136.066 391.403 Q133.01 395.987 127.2 395.987 Q121.39 395.987 118.311 391.403 Q115.256 386.797 115.256 378.07 Q115.256 369.32 118.311 364.737 Q121.39 360.13 127.2 360.13 Z" fill="#000000" fill-rule="nonzero" fill-opacity="1" /><path clip-path="url(#clip540)" d="M147.362 389.436 L152.246 389.436 L152.246 395.315 L147.362 395.315 L147.362 389.436 Z" fill="#000000" fill-rule="nonzero" fill-opacity="1" /><path clip-path="url(#clip540)" d="M166.459 391.38 L182.778 391.38 L182.778 395.315 L160.834 395.315 L160.834 391.38 Q163.496 388.626 168.079 383.996 Q172.686 379.343 173.866 378.001 Q176.112 375.478 176.991 373.741 Q177.894 371.982 177.894 370.292 Q177.894 367.538 175.95 365.802 Q174.028 364.066 170.927 364.066 Q168.727 364.066 166.274 364.83 Q163.843 365.593 161.065 367.144 L161.065 362.422 Q163.89 361.288 166.343 360.709 Q168.797 360.13 170.834 360.13 Q176.204 360.13 179.399 362.816 Q182.593 365.501 182.593 369.992 Q182.593 372.121 181.783 374.042 Q180.996 375.941 178.889 378.533 Q178.311 379.204 175.209 382.422 Q172.107 385.616 166.459 391.38 Z" fill="#000000" fill-rule="nonzero" fill-opacity="1" /><path clip-path="url(#clip540)" d="M192.639 360.755 L210.996 360.755 L210.996 364.691 L196.922 364.691 L196.922 373.163 Q197.94 372.816 198.959 372.654 Q199.977 372.468 200.996 372.468 Q206.783 372.468 210.162 375.64 Q213.542 378.811 213.542 384.228 Q213.542 389.806 210.07 392.908 Q206.598 395.987 200.278 395.987 Q198.102 395.987 195.834 395.616 Q193.588 395.246 191.181 394.505 L191.181 389.806 Q193.264 390.94 195.487 391.496 Q197.709 392.052 200.186 392.052 Q204.19 392.052 206.528 389.945 Q208.866 387.839 208.866 384.228 Q208.866 380.616 206.528 378.51 Q204.19 376.404 200.186 376.404 Q198.311 376.404 196.436 376.82 Q194.584 377.237 192.639 378.116 L192.639 360.755 Z" fill="#000000" fill-rule="nonzero" fill-opacity="1" /><path clip-path="url(#clip540)" d="M14.1925 1204.92 L79.3773 1204.92 L79.3773 1210.33 L14.1925 1210.33 L14.1925 1204.92 Z" fill="#000000" fill-rule="nonzero" fill-opacity="1" /><path clip-path="url(#clip540)" d="M16.4842 1196.84 L16.4842 1156.64 L21.895 1156.64 L21.895 1173.51 L64.0042 1173.51 L64.0042 1179.97 L21.895 1179.97 L21.895 1196.84 L16.4842 1196.84 Z" fill="#000000" fill-rule="nonzero" fill-opacity="1" /><path clip-path="url(#clip540)" d="M74.8259 1123.6 L79.3773 1123.6 L79.3773 1157.47 L74.8259 1157.47 L74.8259 1123.6 Z" fill="#000000" fill-rule="nonzero" fill-opacity="1" /><path clip-path="url(#clip540)" d="M29.7248 1092.44 L35.1993 1092.44 Q33.8307 1094.92 33.1623 1097.44 Q32.4621 1099.92 32.4621 1102.47 Q32.4621 1108.17 36.0905 1111.32 Q39.6872 1114.47 46.212 1114.47 Q52.7369 1114.47 56.3653 1111.32 Q59.9619 1108.17 59.9619 1102.47 Q59.9619 1099.92 59.2935 1097.44 Q58.5933 1094.92 57.2247 1092.44 L62.6355 1092.44 Q63.7814 1094.89 64.3543 1097.53 Q64.9272 1100.14 64.9272 1103.1 Q64.9272 1111.16 59.8664 1115.9 Q54.8057 1120.64 46.212 1120.64 Q37.491 1120.64 32.4939 1115.87 Q27.4968 1111.06 27.4968 1102.72 Q27.4968 1100.02 28.0697 1097.44 Q28.6108 1094.86 29.7248 1092.44 Z" fill="#000000" fill-rule="nonzero" fill-opacity="1" /><path clip-path="url(#clip540)" d="M43.5384 1064.5 L43.5384 1047.34 L48.7583 1047.34 L48.7583 1064.5 L43.5384 1064.5 Z" fill="#000000" fill-rule="nonzero" fill-opacity="1" /><path clip-path="url(#clip540)" d="M20.8447 997.752 Q20.8447 1004.75 26.0645 1008.89 Q31.2844 1013 40.2919 1013 Q49.2675 1013 54.4874 1008.89 Q59.7073 1004.75 59.7073 997.752 Q59.7073 990.75 54.4874 986.676 Q49.2675 982.57 40.2919 982.57 Q31.2844 982.57 26.0645 986.676 Q20.8447 990.75 20.8447 997.752 M15.6248 997.752 Q15.6248 987.758 22.3406 981.774 Q29.0246 975.79 40.2919 975.79 Q51.5274 975.79 58.2432 981.774 Q64.9272 987.758 64.9272 997.752 Q64.9272 1007.78 58.2432 1013.79 Q51.5592 1019.78 40.2919 1019.78 Q29.0246 1019.78 22.3406 1013.79 Q15.6248 1007.78 15.6248 997.752 Z" fill="#000000" fill-rule="nonzero" fill-opacity="1" /><path clip-path="url(#clip540)" d="M42.4881 936.355 L64.0042 936.355 L64.0042 942.211 L42.679 942.211 Q37.6183 942.211 35.1038 944.184 Q32.5894 946.158 32.5894 950.105 Q32.5894 954.847 35.6131 957.584 Q38.6368 960.322 43.8567 960.322 L64.0042 960.322 L64.0042 966.21 L28.3562 966.21 L28.3562 960.322 L33.8944 960.322 Q30.6797 958.221 29.0883 955.388 Q27.4968 952.524 27.4968 948.8 Q27.4968 942.657 31.3163 939.506 Q35.1038 936.355 42.4881 936.355 Z" fill="#000000" fill-rule="nonzero" fill-opacity="1" /><path clip-path="url(#clip540)" d="M29.4065 901.948 L34.9447 901.948 Q33.6716 904.431 33.035 907.104 Q32.3984 909.778 32.3984 912.642 Q32.3984 917.003 33.7352 919.199 Q35.072 921.363 37.7456 921.363 Q39.7826 921.363 40.9603 919.804 Q42.1061 918.244 43.1565 913.534 L43.6021 911.528 Q44.9389 905.29 47.3897 902.68 Q49.8086 900.038 54.1691 900.038 Q59.1344 900.038 62.0308 903.985 Q64.9272 907.9 64.9272 914.775 Q64.9272 917.639 64.3543 920.759 Q63.8132 923.846 62.6992 927.283 L56.6518 927.283 Q58.3387 924.037 59.198 920.886 Q60.0256 917.735 60.0256 914.648 Q60.0256 910.51 58.6251 908.282 Q57.1929 906.054 54.6147 906.054 Q52.2276 906.054 50.9545 907.677 Q49.6813 909.269 48.5037 914.711 L48.0262 916.748 Q46.8804 922.191 44.5251 924.61 Q42.138 927.029 38.0002 927.029 Q32.9713 927.029 30.2341 923.464 Q27.4968 919.899 27.4968 913.343 Q27.4968 910.096 27.9743 907.232 Q28.4517 904.367 29.4065 901.948 Z" fill="#000000" fill-rule="nonzero" fill-opacity="1" /><path clip-path="url(#clip540)" d="M46.0847 874.512 Q46.0847 881.61 47.7079 884.347 Q49.3312 887.084 53.2461 887.084 Q56.3653 887.084 58.2114 885.047 Q60.0256 882.978 60.0256 879.445 Q60.0256 874.575 56.5881 871.647 Q53.1188 868.687 47.3897 868.687 L46.0847 868.687 L46.0847 874.512 M43.6657 862.831 L64.0042 862.831 L64.0042 868.687 L58.5933 868.687 Q61.8398 870.692 63.3994 873.684 Q64.9272 876.676 64.9272 881.005 Q64.9272 886.479 61.8716 889.726 Q58.7843 892.941 53.6281 892.941 Q47.6125 892.941 44.5569 888.93 Q41.5014 884.888 41.5014 876.899 L41.5014 868.687 L40.9285 868.687 Q36.8862 868.687 34.6901 871.361 Q32.4621 874.003 32.4621 878.809 Q32.4621 881.864 33.1941 884.761 Q33.9262 887.657 35.3903 890.331 L29.9795 890.331 Q28.7381 887.116 28.1334 884.092 Q27.4968 881.068 27.4968 878.204 Q27.4968 870.47 31.5072 866.65 Q35.5176 862.831 43.6657 862.831 Z" fill="#000000" fill-rule="nonzero" fill-opacity="1" /><path clip-path="url(#clip540)" d="M45.7664 827.31 Q39.4007 827.31 35.8996 829.952 Q32.3984 832.562 32.3984 837.304 Q32.3984 842.015 35.8996 844.657 Q39.4007 847.267 45.7664 847.267 Q52.1003 847.267 55.6014 844.657 Q59.1026 842.015 59.1026 837.304 Q59.1026 832.562 55.6014 829.952 Q52.1003 827.31 45.7664 827.31 M59.58 821.454 Q68.683 821.454 73.1071 825.496 Q77.5631 829.538 77.5631 837.877 Q77.5631 840.965 77.0857 843.702 Q76.6401 846.439 75.6852 849.017 L69.9879 849.017 Q71.3884 846.439 72.0568 843.925 Q72.7252 841.41 72.7252 838.8 Q72.7252 833.039 69.7015 830.175 Q66.7096 827.31 60.6303 827.31 L57.7339 827.31 Q60.885 829.124 62.4446 831.957 Q64.0042 834.79 64.0042 838.737 Q64.0042 845.293 59.0071 849.304 Q54.01 853.314 45.7664 853.314 Q37.491 853.314 32.4939 849.304 Q27.4968 845.293 27.4968 838.737 Q27.4968 834.79 29.0564 831.957 Q30.616 829.124 33.7671 827.31 L28.3562 827.31 L28.3562 821.454 L59.58 821.454 Z" fill="#000000" fill-rule="nonzero" fill-opacity="1" /><path clip-path="url(#clip540)" d="M44.7161 778.899 L47.5806 778.899 L47.5806 805.826 Q53.6281 805.444 56.8109 802.197 Q59.9619 798.919 59.9619 793.094 Q59.9619 789.721 59.1344 786.57 Q58.3069 783.387 56.6518 780.267 L62.1899 780.267 Q63.5267 783.419 64.227 786.729 Q64.9272 790.039 64.9272 793.445 Q64.9272 801.975 59.9619 806.972 Q54.9967 811.937 46.5303 811.937 Q37.7774 811.937 32.6531 807.226 Q27.4968 802.484 27.4968 794.463 Q27.4968 787.27 32.1438 783.1 Q36.7589 778.899 44.7161 778.899 M42.9973 784.755 Q38.1912 784.819 35.3266 787.461 Q32.4621 790.071 32.4621 794.399 Q32.4621 799.301 35.2312 802.261 Q38.0002 805.189 43.0292 805.635 L42.9973 784.755 Z" fill="#000000" fill-rule="nonzero" fill-opacity="1" /><path clip-path="url(#clip540)" d="M33.8307 748.63 Q33.2578 749.617 33.0032 750.794 Q32.7167 751.94 32.7167 753.341 Q32.7167 758.306 35.9632 760.979 Q39.1779 763.621 45.2253 763.621 L64.0042 763.621 L64.0042 769.509 L28.3562 769.509 L28.3562 763.621 L33.8944 763.621 Q30.6479 761.775 29.0883 758.815 Q27.4968 755.855 27.4968 751.622 Q27.4968 751.017 27.5923 750.285 Q27.656 749.553 27.8151 748.662 L33.8307 748.63 Z" fill="#000000" fill-rule="nonzero" fill-opacity="1" /><path clip-path="url(#clip540)" d="M16.4842 736.949 L34.149 736.949 L34.149 742.36 L16.4842 742.36 L16.4842 736.949 Z" fill="#000000" fill-rule="nonzero" fill-opacity="1" /><path clip-path="url(#clip540)" d="M29.4065 701.842 L34.9447 701.842 Q33.6716 704.325 33.035 706.998 Q32.3984 709.672 32.3984 712.536 Q32.3984 716.897 33.7352 719.093 Q35.072 721.257 37.7456 721.257 Q39.7826 721.257 40.9603 719.698 Q42.1061 718.138 43.1565 713.428 L43.6021 711.422 Q44.9389 705.184 47.3897 702.574 Q49.8086 699.932 54.1691 699.932 Q59.1344 699.932 62.0308 703.879 Q64.9272 707.794 64.9272 714.669 Q64.9272 717.533 64.3543 720.653 Q63.8132 723.74 62.6992 727.178 L56.6518 727.178 Q58.3387 723.931 59.198 720.78 Q60.0256 717.629 60.0256 714.542 Q60.0256 710.404 58.6251 708.176 Q57.1929 705.948 54.6147 705.948 Q52.2276 705.948 50.9545 707.571 Q49.6813 709.163 48.5037 714.605 L48.0262 716.642 Q46.8804 722.085 44.5251 724.504 Q42.138 726.923 38.0002 726.923 Q32.9713 726.923 30.2341 723.358 Q27.4968 719.793 27.4968 713.237 Q27.4968 709.99 27.9743 707.126 Q28.4517 704.261 29.4065 701.842 Z" fill="#000000" fill-rule="nonzero" fill-opacity="1" /><path clip-path="url(#clip540)" d="M18.0438 641.145 L24.314 641.145 Q22.5634 644.805 21.704 648.052 Q20.8447 651.298 20.8447 654.322 Q20.8447 659.574 22.8817 662.438 Q24.9187 665.271 28.6745 665.271 Q31.8255 665.271 33.4488 663.393 Q35.0402 661.483 36.0269 656.2 L36.8226 652.317 Q38.1912 645.124 41.6605 641.718 Q45.098 638.28 50.8908 638.28 Q57.7976 638.28 61.3624 642.927 Q64.9272 647.543 64.9272 656.486 Q64.9272 659.86 64.1633 663.68 Q63.3994 667.467 61.9035 671.541 L55.2831 671.541 Q57.4793 667.626 58.5933 663.871 Q59.7073 660.115 59.7073 656.486 Q59.7073 650.98 57.543 647.988 Q55.3786 644.996 51.3682 644.996 Q47.8671 644.996 45.8937 647.161 Q43.9204 649.293 42.9337 654.195 L42.1698 658.11 Q40.7375 665.303 37.682 668.518 Q34.6264 671.732 29.1837 671.732 Q22.8817 671.732 19.2532 667.308 Q15.6248 662.852 15.6248 655.054 Q15.6248 651.712 16.2295 648.243 Q16.8343 644.773 18.0438 641.145 Z" fill="#000000" fill-rule="nonzero" fill-opacity="1" /><path clip-path="url(#clip540)" d="M32.4621 614.695 Q32.4621 619.406 36.1542 622.143 Q39.8145 624.881 46.212 624.881 Q52.6095 624.881 56.3017 622.175 Q59.9619 619.438 59.9619 614.695 Q59.9619 610.017 56.2698 607.279 Q52.5777 604.542 46.212 604.542 Q39.8781 604.542 36.186 607.279 Q32.4621 610.017 32.4621 614.695 M27.4968 614.695 Q27.4968 607.057 32.4621 602.696 Q37.4273 598.336 46.212 598.336 Q54.9649 598.336 59.9619 602.696 Q64.9272 607.057 64.9272 614.695 Q64.9272 622.366 59.9619 626.727 Q54.9649 631.055 46.212 631.055 Q37.4273 631.055 32.4621 626.727 Q27.4968 622.366 27.4968 614.695 Z" fill="#000000" fill-rule="nonzero" fill-opacity="1" /><path clip-path="url(#clip540)" d="M14.479 588.628 L14.479 582.771 L64.0042 582.771 L64.0042 588.628 L14.479 588.628 Z" fill="#000000" fill-rule="nonzero" fill-opacity="1" /><path clip-path="url(#clip540)" d="M49.9359 571.122 L28.3562 571.122 L28.3562 565.266 L49.7131 565.266 Q54.7739 565.266 57.3202 563.292 Q59.8346 561.319 59.8346 557.372 Q59.8346 552.63 56.8109 549.893 Q53.7872 547.123 48.5673 547.123 L28.3562 547.123 L28.3562 541.267 L64.0042 541.267 L64.0042 547.123 L58.5296 547.123 Q61.7762 549.256 63.3676 552.089 Q64.9272 554.89 64.9272 558.614 Q64.9272 564.756 61.1078 567.939 Q57.2883 571.122 49.9359 571.122 M27.4968 556.386 L27.4968 556.386 Z" fill="#000000" fill-rule="nonzero" fill-opacity="1" /><path clip-path="url(#clip540)" d="M18.2347 523.411 L28.3562 523.411 L28.3562 511.348 L32.9077 511.348 L32.9077 523.411 L52.2594 523.411 Q56.6199 523.411 57.8613 522.234 Q59.1026 521.024 59.1026 517.364 L59.1026 511.348 L64.0042 511.348 L64.0042 517.364 Q64.0042 524.143 61.4897 526.721 Q58.9434 529.3 52.2594 529.3 L32.9077 529.3 L32.9077 533.596 L28.3562 533.596 L28.3562 529.3 L18.2347 529.3 L18.2347 523.411 Z" fill="#000000" fill-rule="nonzero" fill-opacity="1" /><path clip-path="url(#clip540)" d="M28.3562 503.646 L28.3562 497.789 L64.0042 497.789 L64.0042 503.646 L28.3562 503.646 M14.479 503.646 L14.479 497.789 L21.895 497.789 L21.895 503.646 L14.479 503.646 Z" fill="#000000" fill-rule="nonzero" fill-opacity="1" /><path clip-path="url(#clip540)" d="M32.4621 471.722 Q32.4621 476.432 36.1542 479.17 Q39.8145 481.907 46.212 481.907 Q52.6095 481.907 56.3017 479.201 Q59.9619 476.464 59.9619 471.722 Q59.9619 467.043 56.2698 464.306 Q52.5777 461.568 46.212 461.568 Q39.8781 461.568 36.186 464.306 Q32.4621 467.043 32.4621 471.722 M27.4968 471.722 Q27.4968 464.083 32.4621 459.722 Q37.4273 455.362 46.212 455.362 Q54.9649 455.362 59.9619 459.722 Q64.9272 464.083 64.9272 471.722 Q64.9272 479.392 59.9619 483.753 Q54.9649 488.082 46.212 488.082 Q37.4273 488.082 32.4621 483.753 Q27.4968 479.392 27.4968 471.722 Z" fill="#000000" fill-rule="nonzero" fill-opacity="1" /><path clip-path="url(#clip540)" d="M42.4881 416.022 L64.0042 416.022 L64.0042 421.878 L42.679 421.878 Q37.6183 421.878 35.1038 423.852 Q32.5894 425.825 32.5894 429.772 Q32.5894 434.514 35.6131 437.251 Q38.6368 439.989 43.8567 439.989 L64.0042 439.989 L64.0042 445.877 L28.3562 445.877 L28.3562 439.989 L33.8944 439.989 Q30.6797 437.888 29.0883 435.055 Q27.4968 432.191 27.4968 428.467 Q27.4968 422.324 31.3163 419.173 Q35.1038 416.022 42.4881 416.022 Z" fill="#000000" fill-rule="nonzero" fill-opacity="1" /><path clip-path="url(#clip540)" d="M14.1925 396.797 L79.3773 396.797 L79.3773 402.208 L14.1925 402.208 L14.1925 396.797 Z" fill="#000000" fill-rule="nonzero" fill-opacity="1" /><path clip-path="url(#clip540)" d="M360.549 39.9885 L360.549 87.0195 L370.433 87.0195 Q382.951 87.0195 388.744 81.3482 Q394.577 75.677 394.577 63.4432 Q394.577 51.2905 388.744 45.6598 Q382.951 39.9885 370.433 39.9885 L360.549 39.9885 M352.366 33.264 L369.178 33.264 Q386.759 33.264 394.982 40.5961 Q403.205 47.8878 403.205 63.4432 Q403.205 79.0797 394.941 86.4119 Q386.678 93.744 369.178 93.744 L352.366 93.744 L352.366 33.264 Z" fill="#000000" fill-rule="nonzero" fill-opacity="1" /><path clip-path="url(#clip540)" d="M415.925 48.3739 L423.379 48.3739 L423.379 93.744 L415.925 93.744 L415.925 48.3739 M415.925 30.7119 L423.379 30.7119 L423.379 40.1505 L415.925 40.1505 L415.925 30.7119 Z" fill="#000000" fill-rule="nonzero" fill-opacity="1" /><path clip-path="url(#clip540)" d="M461.943 30.7119 L461.943 36.9098 L454.814 36.9098 Q450.803 36.9098 449.224 38.5302 Q447.684 40.1505 447.684 44.3635 L447.684 48.3739 L459.958 48.3739 L459.958 54.1667 L447.684 54.1667 L447.684 93.744 L440.19 93.744 L440.19 54.1667 L433.06 54.1667 L433.06 48.3739 L440.19 48.3739 L440.19 45.2142 Q440.19 37.639 443.714 34.1957 Q447.239 30.7119 454.895 30.7119 L461.943 30.7119 Z" fill="#000000" fill-rule="nonzero" fill-opacity="1" /><path clip-path="url(#clip540)" d="M491.15 30.7119 L491.15 36.9098 L484.021 36.9098 Q480.01 36.9098 478.431 38.5302 Q476.891 40.1505 476.891 44.3635 L476.891 48.3739 L489.165 48.3739 L489.165 54.1667 L476.891 54.1667 L476.891 93.744 L469.397 93.744 L469.397 54.1667 L462.267 54.1667 L462.267 48.3739 L469.397 48.3739 L469.397 45.2142 Q469.397 37.639 472.921 34.1957 Q476.446 30.7119 484.102 30.7119 L491.15 30.7119 Z" fill="#000000" fill-rule="nonzero" fill-opacity="1" /><path clip-path="url(#clip540)" d="M536.196 69.1955 L536.196 72.8413 L501.926 72.8413 Q502.412 80.5381 506.544 84.589 Q510.716 88.5994 518.129 88.5994 Q522.423 88.5994 526.434 87.5461 Q530.485 86.4929 534.455 84.3864 L534.455 91.435 Q530.444 93.1364 526.231 94.0276 Q522.018 94.9188 517.684 94.9188 Q506.827 94.9188 500.467 88.5994 Q494.148 82.2799 494.148 71.5045 Q494.148 60.3645 500.143 53.8426 Q506.179 47.2801 516.388 47.2801 Q525.543 47.2801 530.849 53.1944 Q536.196 59.0683 536.196 69.1955 M528.743 67.008 Q528.662 60.8912 525.3 57.2454 Q521.978 53.5995 516.469 53.5995 Q510.23 53.5995 506.463 57.1238 Q502.736 60.6481 502.169 67.0485 L528.743 67.008 Z" fill="#000000" fill-rule="nonzero" fill-opacity="1" /><path clip-path="url(#clip540)" d="M574.721 55.3414 Q573.465 54.6123 571.966 54.2882 Q570.508 53.9236 568.725 53.9236 Q562.406 53.9236 559.003 58.0555 Q555.641 62.1469 555.641 69.8437 L555.641 93.744 L548.147 93.744 L548.147 48.3739 L555.641 48.3739 L555.641 55.4224 Q557.99 51.2905 561.758 49.3056 Q565.525 47.2801 570.913 47.2801 Q571.682 47.2801 572.614 47.4017 Q573.546 47.4827 574.68 47.6852 L574.721 55.3414 Z" fill="#000000" fill-rule="nonzero" fill-opacity="1" /><path clip-path="url(#clip540)" d="M619.524 69.1955 L619.524 72.8413 L585.253 72.8413 Q585.739 80.5381 589.871 84.589 Q594.043 88.5994 601.457 88.5994 Q605.75 88.5994 609.761 87.5461 Q613.812 86.4929 617.782 84.3864 L617.782 91.435 Q613.771 93.1364 609.558 94.0276 Q605.345 94.9188 601.011 94.9188 Q590.155 94.9188 583.795 88.5994 Q577.475 82.2799 577.475 71.5045 Q577.475 60.3645 583.471 53.8426 Q589.506 47.2801 599.715 47.2801 Q608.87 47.2801 614.176 53.1944 Q619.524 59.0683 619.524 69.1955 M612.07 67.008 Q611.989 60.8912 608.627 57.2454 Q605.305 53.5995 599.796 53.5995 Q593.557 53.5995 589.79 57.1238 Q586.063 60.6481 585.496 67.0485 L612.07 67.008 Z" fill="#000000" fill-rule="nonzero" fill-opacity="1" /><path clip-path="url(#clip540)" d="M669.471 66.3599 L669.471 93.744 L662.018 93.744 L662.018 66.6029 Q662.018 60.162 659.506 56.9618 Q656.994 53.7616 651.971 53.7616 Q645.935 53.7616 642.452 57.6099 Q638.968 61.4583 638.968 68.1018 L638.968 93.744 L631.474 93.744 L631.474 48.3739 L638.968 48.3739 L638.968 55.4224 Q641.642 51.331 645.247 49.3056 Q648.893 47.2801 653.632 47.2801 Q661.45 47.2801 665.461 52.1412 Q669.471 56.9618 669.471 66.3599 Z" fill="#000000" fill-rule="nonzero" fill-opacity="1" /><path clip-path="url(#clip540)" d="M716.988 50.1158 L716.988 57.0833 Q713.829 55.3414 710.628 54.4907 Q707.469 53.5995 704.228 53.5995 Q696.977 53.5995 692.966 58.2176 Q688.956 62.7951 688.956 71.0994 Q688.956 79.4038 692.966 84.0218 Q696.977 88.5994 704.228 88.5994 Q707.469 88.5994 710.628 87.7487 Q713.829 86.8575 716.988 85.1156 L716.988 92.0021 Q713.869 93.4604 710.507 94.1896 Q707.185 94.9188 703.418 94.9188 Q693.169 94.9188 687.133 88.4778 Q681.097 82.0369 681.097 71.0994 Q681.097 60 687.174 53.64 Q693.291 47.2801 703.904 47.2801 Q707.347 47.2801 710.628 48.0093 Q713.91 48.6979 716.988 50.1158 Z" fill="#000000" fill-rule="nonzero" fill-opacity="1" /><path clip-path="url(#clip540)" d="M768.759 69.1955 L768.759 72.8413 L734.488 72.8413 Q734.974 80.5381 739.106 84.589 Q743.279 88.5994 750.692 88.5994 Q754.986 88.5994 758.996 87.5461 Q763.047 86.4929 767.017 84.3864 L767.017 91.435 Q763.007 93.1364 758.794 94.0276 Q754.581 94.9188 750.246 94.9188 Q739.39 94.9188 733.03 88.5994 Q726.71 82.2799 726.71 71.5045 Q726.71 60.3645 732.706 53.8426 Q738.742 47.2801 748.95 47.2801 Q758.105 47.2801 763.412 53.1944 Q768.759 59.0683 768.759 69.1955 M761.305 67.008 Q761.224 60.8912 757.862 57.2454 Q754.54 53.5995 749.031 53.5995 Q742.793 53.5995 739.025 57.1238 Q735.298 60.6481 734.731 67.0485 L761.305 67.008 Z" fill="#000000" fill-rule="nonzero" fill-opacity="1" /><path clip-path="url(#clip540)" d="M839.933 71.0994 Q839.933 62.8761 836.531 58.2176 Q833.168 53.5185 827.254 53.5185 Q821.34 53.5185 817.937 58.2176 Q814.575 62.8761 814.575 71.0994 Q814.575 79.3228 817.937 84.0218 Q821.34 88.6804 827.254 88.6804 Q833.168 88.6804 836.531 84.0218 Q839.933 79.3228 839.933 71.0994 M814.575 55.2604 Q816.924 51.2095 820.489 49.2651 Q824.094 47.2801 829.077 47.2801 Q837.341 47.2801 842.485 53.8426 Q847.67 60.4051 847.67 71.0994 Q847.67 81.7938 842.485 88.3563 Q837.341 94.9188 829.077 94.9188 Q824.094 94.9188 820.489 92.9743 Q816.924 90.9894 814.575 86.9385 L814.575 93.744 L807.08 93.744 L807.08 30.7119 L814.575 30.7119 L814.575 55.2604 Z" fill="#000000" fill-rule="nonzero" fill-opacity="1" /><path clip-path="url(#clip540)" d="M898.833 69.1955 L898.833 72.8413 L864.563 72.8413 Q865.049 80.5381 869.181 84.589 Q873.353 88.5994 880.766 88.5994 Q885.06 88.5994 889.071 87.5461 Q893.122 86.4929 897.092 84.3864 L897.092 91.435 Q893.081 93.1364 888.868 94.0276 Q884.655 94.9188 880.321 94.9188 Q869.464 94.9188 863.104 88.5994 Q856.785 82.2799 856.785 71.5045 Q856.785 60.3645 862.78 53.8426 Q868.816 47.2801 879.024 47.2801 Q888.18 47.2801 893.486 53.1944 Q898.833 59.0683 898.833 69.1955 M891.38 67.008 Q891.299 60.8912 887.936 57.2454 Q884.615 53.5995 879.106 53.5995 Q872.867 53.5995 869.1 57.1238 Q865.373 60.6481 864.806 67.0485 L891.38 67.008 Z" fill="#000000" fill-rule="nonzero" fill-opacity="1" /><path clip-path="url(#clip540)" d="M918.44 35.492 L918.44 48.3739 L933.793 48.3739 L933.793 54.1667 L918.44 54.1667 L918.44 78.7962 Q918.44 84.3459 919.939 85.9258 Q921.478 87.5056 926.137 87.5056 L933.793 87.5056 L933.793 93.744 L926.137 93.744 Q917.508 93.744 914.227 90.5438 Q910.946 87.3031 910.946 78.7962 L910.946 54.1667 L905.477 54.1667 L905.477 48.3739 L910.946 48.3739 L910.946 35.492 L918.44 35.492 Z" fill="#000000" fill-rule="nonzero" fill-opacity="1" /><path clip-path="url(#clip540)" d="M939.261 48.3739 L946.715 48.3739 L956.032 83.7788 L965.309 48.3739 L974.099 48.3739 L983.416 83.7788 L992.693 48.3739 L1000.15 48.3739 L988.277 93.744 L979.487 93.744 L969.724 56.5567 L959.921 93.744 L951.131 93.744 L939.261 48.3739 Z" fill="#000000" fill-rule="nonzero" fill-opacity="1" /><path clip-path="url(#clip540)" d="M1050.26 69.1955 L1050.26 72.8413 L1015.99 72.8413 Q1016.47 80.5381 1020.6 84.589 Q1024.78 88.5994 1032.19 88.5994 Q1036.48 88.5994 1040.49 87.5461 Q1044.54 86.4929 1048.51 84.3864 L1048.51 91.435 Q1044.5 93.1364 1040.29 94.0276 Q1036.08 94.9188 1031.74 94.9188 Q1020.89 94.9188 1014.53 88.5994 Q1008.21 82.2799 1008.21 71.5045 Q1008.21 60.3645 1014.2 53.8426 Q1020.24 47.2801 1030.45 47.2801 Q1039.6 47.2801 1044.91 53.1944 Q1050.26 59.0683 1050.26 69.1955 M1042.8 67.008 Q1042.72 60.8912 1039.36 57.2454 Q1036.04 53.5995 1030.53 53.5995 Q1024.29 53.5995 1020.52 57.1238 Q1016.8 60.6481 1016.23 67.0485 L1042.8 67.008 Z" fill="#000000" fill-rule="nonzero" fill-opacity="1" /><path clip-path="url(#clip540)" d="M1101.3 69.1955 L1101.3 72.8413 L1067.03 72.8413 Q1067.51 80.5381 1071.64 84.589 Q1075.82 88.5994 1083.23 88.5994 Q1087.52 88.5994 1091.53 87.5461 Q1095.59 86.4929 1099.56 84.3864 L1099.56 91.435 Q1095.55 93.1364 1091.33 94.0276 Q1087.12 94.9188 1082.78 94.9188 Q1071.93 94.9188 1065.57 88.5994 Q1059.25 82.2799 1059.25 71.5045 Q1059.25 60.3645 1065.24 53.8426 Q1071.28 47.2801 1081.49 47.2801 Q1090.64 47.2801 1095.95 53.1944 Q1101.3 59.0683 1101.3 69.1955 M1093.84 67.008 Q1093.76 60.8912 1090.4 57.2454 Q1087.08 53.5995 1081.57 53.5995 Q1075.33 53.5995 1071.56 57.1238 Q1067.84 60.6481 1067.27 67.0485 L1093.84 67.008 Z" fill="#000000" fill-rule="nonzero" fill-opacity="1" /><path clip-path="url(#clip540)" d="M1151.25 66.3599 L1151.25 93.744 L1143.79 93.744 L1143.79 66.6029 Q1143.79 60.162 1141.28 56.9618 Q1138.77 53.7616 1133.75 53.7616 Q1127.71 53.7616 1124.23 57.6099 Q1120.74 61.4583 1120.74 68.1018 L1120.74 93.744 L1113.25 93.744 L1113.25 48.3739 L1120.74 48.3739 L1120.74 55.4224 Q1123.42 51.331 1127.02 49.3056 Q1130.67 47.2801 1135.41 47.2801 Q1143.22 47.2801 1147.23 52.1412 Q1151.25 56.9618 1151.25 66.3599 Z" fill="#000000" fill-rule="nonzero" fill-opacity="1" /><path clip-path="url(#clip540)" d="M1199.86 35.492 L1199.86 48.3739 L1215.21 48.3739 L1215.21 54.1667 L1199.86 54.1667 L1199.86 78.7962 Q1199.86 84.3459 1201.35 85.9258 Q1202.89 87.5056 1207.55 87.5056 L1215.21 87.5056 L1215.21 93.744 L1207.55 93.744 Q1198.92 93.744 1195.64 90.5438 Q1192.36 87.3031 1192.36 78.7962 L1192.36 54.1667 L1186.89 54.1667 L1186.89 48.3739 L1192.36 48.3739 L1192.36 35.492 L1199.86 35.492 Z" fill="#000000" fill-rule="nonzero" fill-opacity="1" /><path clip-path="url(#clip540)" d="M1262.73 66.3599 L1262.73 93.744 L1255.27 93.744 L1255.27 66.6029 Q1255.27 60.162 1252.76 56.9618 Q1250.25 53.7616 1245.23 53.7616 Q1239.19 53.7616 1235.71 57.6099 Q1232.22 61.4583 1232.22 68.1018 L1232.22 93.744 L1224.73 93.744 L1224.73 30.7119 L1232.22 30.7119 L1232.22 55.4224 Q1234.9 51.331 1238.5 49.3056 Q1242.15 47.2801 1246.89 47.2801 Q1254.71 47.2801 1258.72 52.1412 Q1262.73 56.9618 1262.73 66.3599 Z" fill="#000000" fill-rule="nonzero" fill-opacity="1" /><path clip-path="url(#clip540)" d="M1316.4 69.1955 L1316.4 72.8413 L1282.13 72.8413 Q1282.62 80.5381 1286.75 84.589 Q1290.92 88.5994 1298.33 88.5994 Q1302.63 88.5994 1306.64 87.5461 Q1310.69 86.4929 1314.66 84.3864 L1314.66 91.435 Q1310.65 93.1364 1306.44 94.0276 Q1302.22 94.9188 1297.89 94.9188 Q1287.03 94.9188 1280.67 88.5994 Q1274.35 82.2799 1274.35 71.5045 Q1274.35 60.3645 1280.35 53.8426 Q1286.38 47.2801 1296.59 47.2801 Q1305.75 47.2801 1311.05 53.1944 Q1316.4 59.0683 1316.4 69.1955 M1308.95 67.008 Q1308.87 60.8912 1305.5 57.2454 Q1302.18 53.5995 1296.67 53.5995 Q1290.43 53.5995 1286.67 57.1238 Q1282.94 60.6481 1282.37 67.0485 L1308.95 67.008 Z" fill="#000000" fill-rule="nonzero" fill-opacity="1" /><path clip-path="url(#clip540)" d="M1346.22 53.5995 Q1340.22 53.5995 1336.74 58.2986 Q1333.25 62.9571 1333.25 71.0994 Q1333.25 79.2418 1336.7 83.9408 Q1340.18 88.5994 1346.22 88.5994 Q1352.17 88.5994 1355.65 83.9003 Q1359.14 79.2013 1359.14 71.0994 Q1359.14 63.0381 1355.65 58.3391 Q1352.17 53.5995 1346.22 53.5995 M1346.22 47.2801 Q1355.94 47.2801 1361.49 53.5995 Q1367.04 59.9189 1367.04 71.0994 Q1367.04 82.2394 1361.49 88.5994 Q1355.94 94.9188 1346.22 94.9188 Q1336.45 94.9188 1330.9 88.5994 Q1325.39 82.2394 1325.39 71.0994 Q1325.39 59.9189 1330.9 53.5995 Q1336.45 47.2801 1346.22 47.2801 Z" fill="#000000" fill-rule="nonzero" fill-opacity="1" /><path clip-path="url(#clip540)" d="M1405.68 55.3414 Q1404.43 54.6123 1402.93 54.2882 Q1401.47 53.9236 1399.69 53.9236 Q1393.37 53.9236 1389.97 58.0555 Q1386.6 62.1469 1386.6 69.8437 L1386.6 93.744 L1379.11 93.744 L1379.11 48.3739 L1386.6 48.3739 L1386.6 55.4224 Q1388.95 51.2905 1392.72 49.3056 Q1396.49 47.2801 1401.87 47.2801 Q1402.64 47.2801 1403.58 47.4017 Q1404.51 47.4827 1405.64 47.6852 L1405.68 55.3414 Z" fill="#000000" fill-rule="nonzero" fill-opacity="1" /><path clip-path="url(#clip540)" d="M1450.49 69.1955 L1450.49 72.8413 L1416.21 72.8413 Q1416.7 80.5381 1420.83 84.589 Q1425.01 88.5994 1432.42 88.5994 Q1436.71 88.5994 1440.72 87.5461 Q1444.77 86.4929 1448.74 84.3864 L1448.74 91.435 Q1444.73 93.1364 1440.52 94.0276 Q1436.31 94.9188 1431.97 94.9188 Q1421.12 94.9188 1414.76 88.5994 Q1408.44 82.2799 1408.44 71.5045 Q1408.44 60.3645 1414.43 53.8426 Q1420.47 47.2801 1430.68 47.2801 Q1439.83 47.2801 1445.14 53.1944 Q1450.49 59.0683 1450.49 69.1955 M1443.03 67.008 Q1442.95 60.8912 1439.59 57.2454 Q1436.27 53.5995 1430.76 53.5995 Q1424.52 53.5995 1420.75 57.1238 Q1417.03 60.6481 1416.46 67.0485 L1443.03 67.008 Z" fill="#000000" fill-rule="nonzero" fill-opacity="1" /><path clip-path="url(#clip540)" d="M1470.09 35.492 L1470.09 48.3739 L1485.44 48.3739 L1485.44 54.1667 L1470.09 54.1667 L1470.09 78.7962 Q1470.09 84.3459 1471.59 85.9258 Q1473.13 87.5056 1477.79 87.5056 L1485.44 87.5056 L1485.44 93.744 L1477.79 93.744 Q1469.16 93.744 1465.88 90.5438 Q1462.6 87.3031 1462.6 78.7962 L1462.6 54.1667 L1457.13 54.1667 L1457.13 48.3739 L1462.6 48.3739 L1462.6 35.492 L1470.09 35.492 Z" fill="#000000" fill-rule="nonzero" fill-opacity="1" /><path clip-path="url(#clip540)" d="M1495.25 48.3739 L1502.7 48.3739 L1502.7 93.744 L1495.25 93.744 L1495.25 48.3739 M1495.25 30.7119 L1502.7 30.7119 L1502.7 40.1505 L1495.25 40.1505 L1495.25 30.7119 Z" fill="#000000" fill-rule="nonzero" fill-opacity="1" /><path clip-path="url(#clip540)" d="M1550.95 50.1158 L1550.95 57.0833 Q1547.79 55.3414 1544.59 54.4907 Q1541.43 53.5995 1538.19 53.5995 Q1530.94 53.5995 1526.93 58.2176 Q1522.92 62.7951 1522.92 71.0994 Q1522.92 79.4038 1526.93 84.0218 Q1530.94 88.5994 1538.19 88.5994 Q1541.43 88.5994 1544.59 87.7487 Q1547.79 86.8575 1550.95 85.1156 L1550.95 92.0021 Q1547.83 93.4604 1544.47 94.1896 Q1541.14 94.9188 1537.38 94.9188 Q1527.13 94.9188 1521.09 88.4778 Q1515.06 82.0369 1515.06 71.0994 Q1515.06 60 1521.13 53.64 Q1527.25 47.2801 1537.86 47.2801 Q1541.31 47.2801 1544.59 48.0093 Q1547.87 48.6979 1550.95 50.1158 Z" fill="#000000" fill-rule="nonzero" fill-opacity="1" /><path clip-path="url(#clip540)" d="M1584.53 70.9374 Q1575.5 70.9374 1572.01 73.0034 Q1568.53 75.0693 1568.53 80.0519 Q1568.53 84.0218 1571.12 86.3714 Q1573.75 88.6804 1578.25 88.6804 Q1584.45 88.6804 1588.18 84.3054 Q1591.94 79.8899 1591.94 72.5983 L1591.94 70.9374 L1584.53 70.9374 M1599.4 67.8587 L1599.4 93.744 L1591.94 93.744 L1591.94 86.8575 Q1589.39 90.9894 1585.58 92.9743 Q1581.78 94.9188 1576.27 94.9188 Q1569.3 94.9188 1565.17 91.0299 Q1561.08 87.1005 1561.08 80.5381 Q1561.08 72.8818 1566.18 68.993 Q1571.32 65.1041 1581.49 65.1041 L1591.94 65.1041 L1591.94 64.3749 Q1591.94 59.2303 1588.54 56.4352 Q1585.18 53.5995 1579.06 53.5995 Q1575.17 53.5995 1571.49 54.5312 Q1567.8 55.463 1564.4 57.3264 L1564.4 50.4398 Q1568.49 48.86 1572.34 48.0903 Q1576.19 47.2801 1579.83 47.2801 Q1589.67 47.2801 1594.54 52.3843 Q1599.4 57.4884 1599.4 67.8587 Z" fill="#000000" fill-rule="nonzero" fill-opacity="1" /><path clip-path="url(#clip540)" d="M1614.75 30.7119 L1622.2 30.7119 L1622.2 93.744 L1614.75 93.744 L1614.75 30.7119 Z" fill="#000000" fill-rule="nonzero" fill-opacity="1" /><path clip-path="url(#clip540)" d="M1684.79 70.9374 Q1675.76 70.9374 1672.27 73.0034 Q1668.79 75.0693 1668.79 80.0519 Q1668.79 84.0218 1671.38 86.3714 Q1674.01 88.6804 1678.51 88.6804 Q1684.71 88.6804 1688.44 84.3054 Q1692.2 79.8899 1692.2 72.5983 L1692.2 70.9374 L1684.79 70.9374 M1699.66 67.8587 L1699.66 93.744 L1692.2 93.744 L1692.2 86.8575 Q1689.65 90.9894 1685.84 92.9743 Q1682.04 94.9188 1676.53 94.9188 Q1669.56 94.9188 1665.43 91.0299 Q1661.34 87.1005 1661.34 80.5381 Q1661.34 72.8818 1666.44 68.993 Q1671.58 65.1041 1681.75 65.1041 L1692.2 65.1041 L1692.2 64.3749 Q1692.2 59.2303 1688.8 56.4352 Q1685.44 53.5995 1679.32 53.5995 Q1675.43 53.5995 1671.75 54.5312 Q1668.06 55.463 1664.66 57.3264 L1664.66 50.4398 Q1668.75 48.86 1672.6 48.0903 Q1676.44 47.2801 1680.09 47.2801 Q1689.93 47.2801 1694.8 52.3843 Q1699.66 57.4884 1699.66 67.8587 Z" fill="#000000" fill-rule="nonzero" fill-opacity="1" /><path clip-path="url(#clip540)" d="M1752.72 66.3599 L1752.72 93.744 L1745.27 93.744 L1745.27 66.6029 Q1745.27 60.162 1742.76 56.9618 Q1740.25 53.7616 1735.22 53.7616 Q1729.19 53.7616 1725.7 57.6099 Q1722.22 61.4583 1722.22 68.1018 L1722.22 93.744 L1714.73 93.744 L1714.73 48.3739 L1722.22 48.3739 L1722.22 55.4224 Q1724.89 51.331 1728.5 49.3056 Q1732.14 47.2801 1736.88 47.2801 Q1744.7 47.2801 1748.71 52.1412 Q1752.72 56.9618 1752.72 66.3599 Z" fill="#000000" fill-rule="nonzero" fill-opacity="1" /><path clip-path="url(#clip540)" d="M1797.45 55.2604 L1797.45 30.7119 L1804.9 30.7119 L1804.9 93.744 L1797.45 93.744 L1797.45 86.9385 Q1795.1 90.9894 1791.49 92.9743 Q1787.93 94.9188 1782.9 94.9188 Q1774.68 94.9188 1769.49 88.3563 Q1764.35 81.7938 1764.35 71.0994 Q1764.35 60.4051 1769.49 53.8426 Q1774.68 47.2801 1782.9 47.2801 Q1787.93 47.2801 1791.49 49.2651 Q1795.1 51.2095 1797.45 55.2604 M1772.05 71.0994 Q1772.05 79.3228 1775.41 84.0218 Q1778.81 88.6804 1784.73 88.6804 Q1790.64 88.6804 1794.04 84.0218 Q1797.45 79.3228 1797.45 71.0994 Q1797.45 62.8761 1794.04 58.2176 Q1790.64 53.5185 1784.73 53.5185 Q1778.81 53.5185 1775.41 58.2176 Q1772.05 62.8761 1772.05 71.0994 Z" fill="#000000" fill-rule="nonzero" fill-opacity="1" /><path clip-path="url(#clip540)" d="M1879.27 50.1158 L1879.27 57.0833 Q1876.11 55.3414 1872.91 54.4907 Q1869.75 53.5995 1866.51 53.5995 Q1859.26 53.5995 1855.25 58.2176 Q1851.24 62.7951 1851.24 71.0994 Q1851.24 79.4038 1855.25 84.0218 Q1859.26 88.5994 1866.51 88.5994 Q1869.75 88.5994 1872.91 87.7487 Q1876.11 86.8575 1879.27 85.1156 L1879.27 92.0021 Q1876.15 93.4604 1872.79 94.1896 Q1869.47 94.9188 1865.7 94.9188 Q1855.45 94.9188 1849.42 88.4778 Q1843.38 82.0369 1843.38 71.0994 Q1843.38 60 1849.46 53.64 Q1855.58 47.2801 1866.19 47.2801 Q1869.63 47.2801 1872.91 48.0093 Q1876.2 48.6979 1879.27 50.1158 Z" fill="#000000" fill-rule="nonzero" fill-opacity="1" /><path clip-path="url(#clip540)" d="M1909.82 53.5995 Q1903.82 53.5995 1900.34 58.2986 Q1896.85 62.9571 1896.85 71.0994 Q1896.85 79.2418 1900.3 83.9408 Q1903.78 88.5994 1909.82 88.5994 Q1915.77 88.5994 1919.26 83.9003 Q1922.74 79.2013 1922.74 71.0994 Q1922.74 63.0381 1919.26 58.3391 Q1915.77 53.5995 1909.82 53.5995 M1909.82 47.2801 Q1919.54 47.2801 1925.09 53.5995 Q1930.64 59.9189 1930.64 71.0994 Q1930.64 82.2394 1925.09 88.5994 Q1919.54 94.9188 1909.82 94.9188 Q1900.05 94.9188 1894.51 88.5994 Q1889 82.2394 1889 71.0994 Q1889 59.9189 1894.51 53.5995 Q1900.05 47.2801 1909.82 47.2801 Z" fill="#000000" fill-rule="nonzero" fill-opacity="1" /><path clip-path="url(#clip540)" d="M1978.32 57.0833 Q1981.11 52.0602 1985 49.6702 Q1988.89 47.2801 1994.16 47.2801 Q2001.25 47.2801 2005.09 52.2627 Q2008.94 57.2048 2008.94 66.3599 L2008.94 93.744 L2001.45 93.744 L2001.45 66.6029 Q2001.45 60.081 1999.14 56.9213 Q1996.83 53.7616 1992.09 53.7616 Q1986.3 53.7616 1982.94 57.6099 Q1979.57 61.4583 1979.57 68.1018 L1979.57 93.744 L1972.08 93.744 L1972.08 66.6029 Q1972.08 60.0405 1969.77 56.9213 Q1967.46 53.7616 1962.64 53.7616 Q1956.93 53.7616 1953.57 57.6504 Q1950.21 61.4988 1950.21 68.1018 L1950.21 93.744 L1942.71 93.744 L1942.71 48.3739 L1950.21 48.3739 L1950.21 55.4224 Q1952.76 51.25 1956.32 49.2651 Q1959.89 47.2801 1964.79 47.2801 Q1969.73 47.2801 1973.17 49.7917 Q1976.66 52.3032 1978.32 57.0833 Z" fill="#000000" fill-rule="nonzero" fill-opacity="1" /><path clip-path="url(#clip540)" d="M2031.02 86.9385 L2031.02 111.001 L2023.53 111.001 L2023.53 48.3739 L2031.02 48.3739 L2031.02 55.2604 Q2033.37 51.2095 2036.93 49.2651 Q2040.54 47.2801 2045.52 47.2801 Q2053.79 47.2801 2058.93 53.8426 Q2064.12 60.4051 2064.12 71.0994 Q2064.12 81.7938 2058.93 88.3563 Q2053.79 94.9188 2045.52 94.9188 Q2040.54 94.9188 2036.93 92.9743 Q2033.37 90.9894 2031.02 86.9385 M2056.38 71.0994 Q2056.38 62.8761 2052.98 58.2176 Q2049.61 53.5185 2043.7 53.5185 Q2037.79 53.5185 2034.38 58.2176 Q2031.02 62.8761 2031.02 71.0994 Q2031.02 79.3228 2034.38 84.0218 Q2037.79 88.6804 2043.7 88.6804 Q2049.61 88.6804 2052.98 84.0218 Q2056.38 79.3228 2056.38 71.0994 Z" fill="#000000" fill-rule="nonzero" fill-opacity="1" /><path clip-path="url(#clip540)" d="M2075.7 75.839 L2075.7 48.3739 L2083.16 48.3739 L2083.16 75.5554 Q2083.16 81.9964 2085.67 85.2371 Q2088.18 88.4373 2093.2 88.4373 Q2099.24 88.4373 2102.72 84.589 Q2106.25 80.7406 2106.25 74.0971 L2106.25 48.3739 L2113.7 48.3739 L2113.7 93.744 L2106.25 93.744 L2106.25 86.7764 Q2103.53 90.9084 2099.93 92.9338 Q2096.36 94.9188 2091.62 94.9188 Q2083.8 94.9188 2079.75 90.0577 Q2075.7 85.1966 2075.7 75.839 M2094.46 47.2801 L2094.46 47.2801 Z" fill="#000000" fill-rule="nonzero" fill-opacity="1" /><path clip-path="url(#clip540)" d="M2136.43 35.492 L2136.43 48.3739 L2151.78 48.3739 L2151.78 54.1667 L2136.43 54.1667 L2136.43 78.7962 Q2136.43 84.3459 2137.92 85.9258 Q2139.46 87.5056 2144.12 87.5056 L2151.78 87.5056 L2151.78 93.744 L2144.12 93.744 Q2135.49 93.744 2132.21 90.5438 Q2128.93 87.3031 2128.93 78.7962 L2128.93 54.1667 L2123.46 54.1667 L2123.46 48.3739 L2128.93 48.3739 L2128.93 35.492 L2136.43 35.492 Z" fill="#000000" fill-rule="nonzero" fill-opacity="1" /><path clip-path="url(#clip540)" d="M2200.39 69.1955 L2200.39 72.8413 L2166.12 72.8413 Q2166.6 80.5381 2170.74 84.589 Q2174.91 88.5994 2182.32 88.5994 Q2186.62 88.5994 2190.63 87.5461 Q2194.68 86.4929 2198.65 84.3864 L2198.65 91.435 Q2194.64 93.1364 2190.42 94.0276 Q2186.21 94.9188 2181.88 94.9188 Q2171.02 94.9188 2164.66 88.5994 Q2158.34 82.2799 2158.34 71.5045 Q2158.34 60.3645 2164.34 53.8426 Q2170.37 47.2801 2180.58 47.2801 Q2189.74 47.2801 2195.04 53.1944 Q2200.39 59.0683 2200.39 69.1955 M2192.94 67.008 Q2192.85 60.8912 2189.49 57.2454 Q2186.17 53.5995 2180.66 53.5995 Q2174.42 53.5995 2170.66 57.1238 Q2166.93 60.6481 2166.36 67.0485 L2192.94 67.008 Z" fill="#000000" fill-rule="nonzero" fill-opacity="1" /><path clip-path="url(#clip540)" d="M2242.48 55.2604 L2242.48 30.7119 L2249.93 30.7119 L2249.93 93.744 L2242.48 93.744 L2242.48 86.9385 Q2240.13 90.9894 2236.52 92.9743 Q2232.96 94.9188 2227.94 94.9188 Q2219.71 94.9188 2214.53 88.3563 Q2209.38 81.7938 2209.38 71.0994 Q2209.38 60.4051 2214.53 53.8426 Q2219.71 47.2801 2227.94 47.2801 Q2232.96 47.2801 2236.52 49.2651 Q2240.13 51.2095 2242.48 55.2604 M2217.08 71.0994 Q2217.08 79.3228 2220.44 84.0218 Q2223.84 88.6804 2229.76 88.6804 Q2235.67 88.6804 2239.08 84.0218 Q2242.48 79.3228 2242.48 71.0994 Q2242.48 62.8761 2239.08 58.2176 Q2235.67 53.5185 2229.76 53.5185 Q2223.84 53.5185 2220.44 58.2176 Q2217.08 62.8761 2217.08 71.0994 Z" fill="#000000" fill-rule="nonzero" fill-opacity="1" /><path clip-path="url(#clip540)" d="M809.491 147.965 L797.703 147.965 L794.3 161.495 L806.169 161.495 L809.491 147.965 M803.414 124.916 L799.201 141.727 L811.03 141.727 L815.284 124.916 L821.765 124.916 L817.593 141.727 L830.231 141.727 L830.231 147.965 L816.013 147.965 L812.691 161.495 L825.573 161.495 L825.573 167.693 L811.111 167.693 L806.898 184.464 L800.417 184.464 L804.589 167.693 L792.72 167.693 L788.548 184.464 L782.026 184.464 L786.239 167.693 L773.478 167.693 L773.478 161.495 L787.737 161.495 L791.14 147.965 L778.096 147.965 L778.096 141.727 L792.72 141.727 L796.852 124.916 L803.414 124.916 Z" fill="#000000" fill-rule="nonzero" fill-opacity="1" /><path clip-path="url(#clip540)" d="M873.333 140.431 L873.333 147.479 Q870.173 145.859 866.771 145.049 Q863.368 144.239 859.722 144.239 Q854.172 144.239 851.377 145.94 Q848.622 147.641 848.622 151.044 Q848.622 153.637 850.607 155.135 Q852.592 156.594 858.588 157.931 L861.14 158.498 Q869.08 160.199 872.401 163.318 Q875.764 166.397 875.764 171.947 Q875.764 178.266 870.74 181.952 Q865.758 185.639 857.008 185.639 Q853.362 185.639 849.392 184.91 Q845.463 184.221 841.088 182.803 L841.088 175.106 Q845.22 177.253 849.23 178.347 Q853.24 179.4 857.17 179.4 Q862.436 179.4 865.272 177.618 Q868.107 175.795 868.107 172.514 Q868.107 169.476 866.041 167.855 Q864.016 166.235 857.089 164.736 L854.496 164.128 Q847.569 162.67 844.491 159.672 Q841.412 156.634 841.412 151.368 Q841.412 144.968 845.949 141.484 Q850.486 138 858.831 138 Q862.963 138 866.608 138.608 Q870.254 139.215 873.333 140.431 Z" fill="#000000" fill-rule="nonzero" fill-opacity="1" /><path clip-path="url(#clip540)" d="M905.214 144.32 Q899.218 144.32 895.734 149.019 Q892.251 153.677 892.251 161.819 Q892.251 169.962 895.694 174.661 Q899.178 179.319 905.214 179.319 Q911.168 179.319 914.652 174.62 Q918.136 169.921 918.136 161.819 Q918.136 153.758 914.652 149.059 Q911.168 144.32 905.214 144.32 M905.214 138 Q914.936 138 920.485 144.32 Q926.035 150.639 926.035 161.819 Q926.035 172.959 920.485 179.319 Q914.936 185.639 905.214 185.639 Q895.451 185.639 889.901 179.319 Q884.392 172.959 884.392 161.819 Q884.392 150.639 889.901 144.32 Q895.451 138 905.214 138 Z" fill="#000000" fill-rule="nonzero" fill-opacity="1" /><path clip-path="url(#clip540)" d="M938.39 121.432 L945.844 121.432 L945.844 184.464 L938.39 184.464 L938.39 121.432 Z" fill="#000000" fill-rule="nonzero" fill-opacity="1" /><path clip-path="url(#clip540)" d="M960.67 166.559 L960.67 139.094 L968.124 139.094 L968.124 166.275 Q968.124 172.716 970.636 175.957 Q973.147 179.157 978.17 179.157 Q984.206 179.157 987.69 175.309 Q991.214 171.461 991.214 164.817 L991.214 139.094 L998.668 139.094 L998.668 184.464 L991.214 184.464 L991.214 177.496 Q988.5 181.628 984.895 183.654 Q981.33 185.639 976.591 185.639 Q968.772 185.639 964.721 180.778 Q960.67 175.917 960.67 166.559 M979.426 138 L979.426 138 Z" fill="#000000" fill-rule="nonzero" fill-opacity="1" /><path clip-path="url(#clip540)" d="M1021.39 126.212 L1021.39 139.094 L1036.75 139.094 L1036.75 144.887 L1021.39 144.887 L1021.39 169.516 Q1021.39 175.066 1022.89 176.646 Q1024.43 178.226 1029.09 178.226 L1036.75 178.226 L1036.75 184.464 L1029.09 184.464 Q1020.46 184.464 1017.18 181.264 Q1013.9 178.023 1013.9 169.516 L1013.9 144.887 L1008.43 144.887 L1008.43 139.094 L1013.9 139.094 L1013.9 126.212 L1021.39 126.212 Z" fill="#000000" fill-rule="nonzero" fill-opacity="1" /><path clip-path="url(#clip540)" d="M1046.55 139.094 L1054 139.094 L1054 184.464 L1046.55 184.464 L1046.55 139.094 M1046.55 121.432 L1054 121.432 L1054 130.871 L1046.55 130.871 L1046.55 121.432 Z" fill="#000000" fill-rule="nonzero" fill-opacity="1" /><path clip-path="url(#clip540)" d="M1087.18 144.32 Q1081.18 144.32 1077.7 149.019 Q1074.22 153.677 1074.22 161.819 Q1074.22 169.962 1077.66 174.661 Q1081.14 179.319 1087.18 179.319 Q1093.14 179.319 1096.62 174.62 Q1100.1 169.921 1100.1 161.819 Q1100.1 153.758 1096.62 149.059 Q1093.14 144.32 1087.18 144.32 M1087.18 138 Q1096.9 138 1102.45 144.32 Q1108 150.639 1108 161.819 Q1108 172.959 1102.45 179.319 Q1096.9 185.639 1087.18 185.639 Q1077.42 185.639 1071.87 179.319 Q1066.36 172.959 1066.36 161.819 Q1066.36 150.639 1071.87 144.32 Q1077.42 138 1087.18 138 Z" fill="#000000" fill-rule="nonzero" fill-opacity="1" /><path clip-path="url(#clip540)" d="M1158.07 157.08 L1158.07 184.464 L1150.62 184.464 L1150.62 157.323 Q1150.62 150.882 1148.11 147.682 Q1145.59 144.482 1140.57 144.482 Q1134.54 144.482 1131.05 148.33 Q1127.57 152.178 1127.57 158.822 L1127.57 184.464 L1120.07 184.464 L1120.07 139.094 L1127.57 139.094 L1127.57 146.142 Q1130.24 142.051 1133.85 140.026 Q1137.49 138 1142.23 138 Q1150.05 138 1154.06 142.861 Q1158.07 147.682 1158.07 157.08 Z" fill="#000000" fill-rule="nonzero" fill-opacity="1" /><path clip-path="url(#clip540)" d="M1201.86 140.431 L1201.86 147.479 Q1198.7 145.859 1195.3 145.049 Q1191.9 144.239 1188.25 144.239 Q1182.7 144.239 1179.91 145.94 Q1177.15 147.641 1177.15 151.044 Q1177.15 153.637 1179.14 155.135 Q1181.12 156.594 1187.12 157.931 L1189.67 158.498 Q1197.61 160.199 1200.93 163.318 Q1204.29 166.397 1204.29 171.947 Q1204.29 178.266 1199.27 181.952 Q1194.29 185.639 1185.54 185.639 Q1181.89 185.639 1177.92 184.91 Q1173.99 184.221 1169.62 182.803 L1169.62 175.106 Q1173.75 177.253 1177.76 178.347 Q1181.77 179.4 1185.7 179.4 Q1190.96 179.4 1193.8 177.618 Q1196.64 175.795 1196.64 172.514 Q1196.64 169.476 1194.57 167.855 Q1192.54 166.235 1185.62 164.736 L1183.02 164.128 Q1176.1 162.67 1173.02 159.672 Q1169.94 156.634 1169.94 151.368 Q1169.94 144.968 1174.48 141.484 Q1179.01 138 1187.36 138 Q1191.49 138 1195.14 138.608 Q1198.78 139.215 1201.86 140.431 Z" fill="#000000" fill-rule="nonzero" fill-opacity="1" /><path clip-path="url(#clip540)" d="M1238.2 139.094 L1245.65 139.094 L1254.97 174.499 L1264.25 139.094 L1273.04 139.094 L1282.35 174.499 L1291.63 139.094 L1299.08 139.094 L1287.21 184.464 L1278.42 184.464 L1268.66 147.277 L1258.86 184.464 L1250.07 184.464 L1238.2 139.094 Z" fill="#000000" fill-rule="nonzero" fill-opacity="1" /><path clip-path="url(#clip540)" d="M1310.39 139.094 L1317.84 139.094 L1317.84 184.464 L1310.39 184.464 L1310.39 139.094 M1310.39 121.432 L1317.84 121.432 L1317.84 130.871 L1310.39 130.871 L1310.39 121.432 Z" fill="#000000" fill-rule="nonzero" fill-opacity="1" /><path clip-path="url(#clip540)" d="M1340.81 126.212 L1340.81 139.094 L1356.16 139.094 L1356.16 144.887 L1340.81 144.887 L1340.81 169.516 Q1340.81 175.066 1342.31 176.646 Q1343.85 178.226 1348.5 178.226 L1356.16 178.226 L1356.16 184.464 L1348.5 184.464 Q1339.88 184.464 1336.59 181.264 Q1333.31 178.023 1333.31 169.516 L1333.31 144.887 L1327.84 144.887 L1327.84 139.094 L1333.31 139.094 L1333.31 126.212 L1340.81 126.212 Z" fill="#000000" fill-rule="nonzero" fill-opacity="1" /><path clip-path="url(#clip540)" d="M1403.68 157.08 L1403.68 184.464 L1396.22 184.464 L1396.22 157.323 Q1396.22 150.882 1393.71 147.682 Q1391.2 144.482 1386.18 144.482 Q1380.14 144.482 1376.66 148.33 Q1373.17 152.178 1373.17 158.822 L1373.17 184.464 L1365.68 184.464 L1365.68 121.432 L1373.17 121.432 L1373.17 146.142 Q1375.85 142.051 1379.45 140.026 Q1383.1 138 1387.84 138 Q1395.66 138 1399.67 142.861 Q1403.68 147.682 1403.68 157.08 Z" fill="#000000" fill-rule="nonzero" fill-opacity="1" /><path clip-path="url(#clip540)" d="M1439.57 139.094 L1447.47 139.094 L1461.65 177.172 L1475.82 139.094 L1483.72 139.094 L1466.71 184.464 L1456.58 184.464 L1439.57 139.094 Z" fill="#000000" fill-rule="nonzero" fill-opacity="1" /><path clip-path="url(#clip540)" d="M1514.63 161.657 Q1505.6 161.657 1502.11 163.723 Q1498.63 165.789 1498.63 170.772 Q1498.63 174.742 1501.22 177.091 Q1503.86 179.4 1508.35 179.4 Q1514.55 179.4 1518.28 175.025 Q1522.04 170.61 1522.04 163.318 L1522.04 161.657 L1514.63 161.657 M1529.5 158.579 L1529.5 184.464 L1522.04 184.464 L1522.04 177.577 Q1519.49 181.709 1515.68 183.694 Q1511.88 185.639 1506.37 185.639 Q1499.4 185.639 1495.27 181.75 Q1491.18 177.821 1491.18 171.258 Q1491.18 163.602 1496.28 159.713 Q1501.43 155.824 1511.59 155.824 L1522.04 155.824 L1522.04 155.095 Q1522.04 149.95 1518.64 147.155 Q1515.28 144.32 1509.16 144.32 Q1505.27 144.32 1501.59 145.251 Q1497.9 146.183 1494.5 148.046 L1494.5 141.16 Q1498.59 139.58 1502.44 138.81 Q1506.29 138 1509.93 138 Q1519.78 138 1524.64 143.104 Q1529.5 148.208 1529.5 158.579 Z" fill="#000000" fill-rule="nonzero" fill-opacity="1" /><path clip-path="url(#clip540)" d="M1571.14 146.061 Q1569.89 145.332 1568.39 145.008 Q1566.93 144.644 1565.15 144.644 Q1558.83 144.644 1555.42 148.776 Q1552.06 152.867 1552.06 160.564 L1552.06 184.464 L1544.57 184.464 L1544.57 139.094 L1552.06 139.094 L1552.06 146.142 Q1554.41 142.011 1558.18 140.026 Q1561.95 138 1567.33 138 Q1568.1 138 1569.04 138.122 Q1569.97 138.203 1571.1 138.405 L1571.14 146.061 Z" fill="#000000" fill-rule="nonzero" fill-opacity="1" /><path clip-path="url(#clip540)" d="M1597.84 188.677 Q1594.68 196.779 1591.68 199.25 Q1588.68 201.721 1583.66 201.721 L1577.7 201.721 L1577.7 195.482 L1582.08 195.482 Q1585.16 195.482 1586.86 194.024 Q1588.56 192.566 1590.63 187.138 L1591.96 183.735 L1573.61 139.094 L1581.51 139.094 L1595.69 174.58 L1609.87 139.094 L1617.77 139.094 L1597.84 188.677 Z" fill="#000000" fill-rule="nonzero" fill-opacity="1" /><path clip-path="url(#clip540)" d="M1628.06 139.094 L1635.51 139.094 L1635.51 184.464 L1628.06 184.464 L1628.06 139.094 M1628.06 121.432 L1635.51 121.432 L1635.51 130.871 L1628.06 130.871 L1628.06 121.432 Z" fill="#000000" fill-rule="nonzero" fill-opacity="1" /><path clip-path="url(#clip540)" d="M1688.82 157.08 L1688.82 184.464 L1681.37 184.464 L1681.37 157.323 Q1681.37 150.882 1678.86 147.682 Q1676.34 144.482 1671.32 144.482 Q1665.28 144.482 1661.8 148.33 Q1658.32 152.178 1658.32 158.822 L1658.32 184.464 L1650.82 184.464 L1650.82 139.094 L1658.32 139.094 L1658.32 146.142 Q1660.99 142.051 1664.6 140.026 Q1668.24 138 1672.98 138 Q1680.8 138 1684.81 142.861 Q1688.82 147.682 1688.82 157.08 Z" fill="#000000" fill-rule="nonzero" fill-opacity="1" /><path clip-path="url(#clip540)" d="M1733.54 161.252 Q1733.54 153.151 1730.18 148.695 Q1726.86 144.239 1720.82 144.239 Q1714.83 144.239 1711.47 148.695 Q1708.14 153.151 1708.14 161.252 Q1708.14 169.314 1711.47 173.77 Q1714.83 178.226 1720.82 178.226 Q1726.86 178.226 1730.18 173.77 Q1733.54 169.314 1733.54 161.252 M1741 178.833 Q1741 190.419 1735.85 196.05 Q1730.71 201.721 1720.09 201.721 Q1716.16 201.721 1712.68 201.113 Q1709.2 200.546 1705.92 199.331 L1705.92 192.08 Q1709.2 193.862 1712.4 194.713 Q1715.6 195.563 1718.92 195.563 Q1726.25 195.563 1729.9 191.715 Q1733.54 187.907 1733.54 180.17 L1733.54 176.484 Q1731.23 180.494 1727.63 182.479 Q1724.02 184.464 1719 184.464 Q1710.65 184.464 1705.55 178.104 Q1700.45 171.744 1700.45 161.252 Q1700.45 150.72 1705.55 144.36 Q1710.65 138 1719 138 Q1724.02 138 1727.63 139.985 Q1731.23 141.97 1733.54 145.98 L1733.54 139.094 L1741 139.094 L1741 178.833 Z" fill="#000000" fill-rule="nonzero" fill-opacity="1" /><path clip-path="url(#clip540)" d="M1783.04 123.984 L1794.06 123.984 L1820.88 174.58 L1820.88 123.984 L1828.82 123.984 L1828.82 184.464 L1817.8 184.464 L1790.98 133.868 L1790.98 184.464 L1783.04 184.464 L1783.04 123.984 Z" fill="#000000" fill-rule="nonzero" fill-opacity="1" /><polyline clip-path="url(#clip542)" style="stroke:#009af9; stroke-linecap:round; stroke-linejoin:round; stroke-width:4; stroke-opacity:1; fill:none" points="309.067,219.025 749.992,803.566 1190.92,1388.11 1631.84,219.025 2293.23,1388.11 "/>
</svg>
