<?xml version="1.0" encoding="utf-8"?>
<svg xmlns="http://www.w3.org/2000/svg" xmlns:xlink="http://www.w3.org/1999/xlink" width="600" height="400" viewBox="0 0 2400 1600">
<defs>
  <clipPath id="clip190">
    <rect x="0" y="0" width="2400" height="1600"/>
  </clipPath>
</defs>
<path clip-path="url(#clip190)" d="M0 1600 L2400 1600 L2400 0 L0 0  Z" fill="#ffffff" fill-rule="evenodd" fill-opacity="1"/>
<defs>
  <clipPath id="clip191">
    <rect x="480" y="0" width="1681" height="1600"/>
  </clipPath>
</defs>
<path clip-path="url(#clip190)" d="M250.028 1423.18 L2352.76 1423.18 L2352.76 166.672 L250.028 166.672  Z" fill="#ffffff" fill-rule="evenodd" fill-opacity="1"/>
<defs>
  <clipPath id="clip192">
    <rect x="250" y="166" width="2104" height="1258"/>
  </clipPath>
</defs>
<polyline clip-path="url(#clip192)" style="stroke:#000000; stroke-linecap:round; stroke-linejoin:round; stroke-width:2; stroke-opacity:0.1; fill:none" points="727.162,1423.18 727.162,166.672 "/>
<polyline clip-path="url(#clip192)" style="stroke:#000000; stroke-linecap:round; stroke-linejoin:round; stroke-width:2; stroke-opacity:0.1; fill:none" points="1249.19,1423.18 1249.19,166.672 "/>
<polyline clip-path="url(#clip192)" style="stroke:#000000; stroke-linecap:round; stroke-linejoin:round; stroke-width:2; stroke-opacity:0.1; fill:none" points="1771.22,1423.18 1771.22,166.672 "/>
<polyline clip-path="url(#clip192)" style="stroke:#000000; stroke-linecap:round; stroke-linejoin:round; stroke-width:2; stroke-opacity:0.1; fill:none" points="2293.24,1423.18 2293.24,166.672 "/>
<polyline clip-path="url(#clip190)" style="stroke:#000000; stroke-linecap:round; stroke-linejoin:round; stroke-width:4; stroke-opacity:1; fill:none" points="250.028,1423.18 2352.76,1423.18 "/>
<polyline clip-path="url(#clip190)" style="stroke:#000000; stroke-linecap:round; stroke-linejoin:round; stroke-width:4; stroke-opacity:1; fill:none" points="727.162,1423.18 727.162,1404.28 "/>
<polyline clip-path="url(#clip190)" style="stroke:#000000; stroke-linecap:round; stroke-linejoin:round; stroke-width:4; stroke-opacity:1; fill:none" points="1249.19,1423.18 1249.19,1404.28 "/>
<polyline clip-path="url(#clip190)" style="stroke:#000000; stroke-linecap:round; stroke-linejoin:round; stroke-width:4; stroke-opacity:1; fill:none" points="1771.22,1423.18 1771.22,1404.28 "/>
<polyline clip-path="url(#clip190)" style="stroke:#000000; stroke-linecap:round; stroke-linejoin:round; stroke-width:4; stroke-opacity:1; fill:none" points="2293.24,1423.18 2293.24,1404.28 "/>
<path clip-path="url(#clip190)" d="M701.861 1451.02 L720.217 1451.02 L720.217 1454.96 L706.143 1454.96 L706.143 1463.43 Q707.162 1463.08 708.18 1462.92 Q709.199 1462.73 710.217 1462.73 Q716.004 1462.73 719.384 1465.9 Q722.763 1469.08 722.763 1474.49 Q722.763 1480.07 719.291 1483.17 Q715.819 1486.25 709.5 1486.25 Q707.324 1486.25 705.055 1485.88 Q702.81 1485.51 700.402 1484.77 L700.402 1480.07 Q702.486 1481.2 704.708 1481.76 Q706.93 1482.32 709.407 1482.32 Q713.412 1482.32 715.75 1480.21 Q718.087 1478.1 718.087 1474.49 Q718.087 1470.88 715.75 1468.77 Q713.412 1466.67 709.407 1466.67 Q707.532 1466.67 705.657 1467.08 Q703.805 1467.5 701.861 1468.38 L701.861 1451.02 Z" fill="#000000" fill-rule="nonzero" fill-opacity="1" /><path clip-path="url(#clip190)" d="M741.976 1454.1 Q738.365 1454.1 736.536 1457.66 Q734.731 1461.2 734.731 1468.33 Q734.731 1475.44 736.536 1479.01 Q738.365 1482.55 741.976 1482.55 Q745.61 1482.55 747.416 1479.01 Q749.245 1475.44 749.245 1468.33 Q749.245 1461.2 747.416 1457.66 Q745.61 1454.1 741.976 1454.1 M741.976 1450.39 Q747.786 1450.39 750.842 1455 Q753.921 1459.58 753.921 1468.33 Q753.921 1477.06 750.842 1481.67 Q747.786 1486.25 741.976 1486.25 Q736.166 1486.25 733.087 1481.67 Q730.032 1477.06 730.032 1468.33 Q730.032 1459.58 733.087 1455 Q736.166 1450.39 741.976 1450.39 Z" fill="#000000" fill-rule="nonzero" fill-opacity="1" /><path clip-path="url(#clip190)" d="M1208.8 1481.64 L1216.43 1481.64 L1216.43 1455.28 L1208.12 1456.95 L1208.12 1452.69 L1216.39 1451.02 L1221.06 1451.02 L1221.06 1481.64 L1228.7 1481.64 L1228.7 1485.58 L1208.8 1485.58 L1208.8 1481.64 Z" fill="#000000" fill-rule="nonzero" fill-opacity="1" /><path clip-path="url(#clip190)" d="M1248.15 1454.1 Q1244.54 1454.1 1242.71 1457.66 Q1240.9 1461.2 1240.9 1468.33 Q1240.9 1475.44 1242.71 1479.01 Q1244.54 1482.55 1248.15 1482.55 Q1251.78 1482.55 1253.59 1479.01 Q1255.42 1475.44 1255.42 1468.33 Q1255.42 1461.2 1253.59 1457.66 Q1251.78 1454.1 1248.15 1454.1 M1248.15 1450.39 Q1253.96 1450.39 1257.01 1455 Q1260.09 1459.58 1260.09 1468.33 Q1260.09 1477.06 1257.01 1481.67 Q1253.96 1486.25 1248.15 1486.25 Q1242.34 1486.25 1239.26 1481.67 Q1236.2 1477.06 1236.2 1468.33 Q1236.2 1459.58 1239.26 1455 Q1242.34 1450.39 1248.15 1450.39 Z" fill="#000000" fill-rule="nonzero" fill-opacity="1" /><path clip-path="url(#clip190)" d="M1278.31 1454.1 Q1274.7 1454.1 1272.87 1457.66 Q1271.06 1461.2 1271.06 1468.33 Q1271.06 1475.44 1272.87 1479.01 Q1274.7 1482.55 1278.31 1482.55 Q1281.94 1482.55 1283.75 1479.01 Q1285.58 1475.44 1285.58 1468.33 Q1285.58 1461.2 1283.75 1457.66 Q1281.94 1454.1 1278.31 1454.1 M1278.31 1450.39 Q1284.12 1450.39 1287.18 1455 Q1290.25 1459.58 1290.25 1468.33 Q1290.25 1477.06 1287.18 1481.67 Q1284.12 1486.25 1278.31 1486.25 Q1272.5 1486.25 1269.42 1481.67 Q1266.37 1477.06 1266.37 1468.33 Q1266.37 1459.58 1269.42 1455 Q1272.5 1450.39 1278.31 1450.39 Z" fill="#000000" fill-rule="nonzero" fill-opacity="1" /><path clip-path="url(#clip190)" d="M1730.82 1481.64 L1738.46 1481.64 L1738.46 1455.28 L1730.15 1456.95 L1730.15 1452.69 L1738.42 1451.02 L1743.09 1451.02 L1743.09 1481.64 L1750.73 1481.64 L1750.73 1485.58 L1730.82 1485.58 L1730.82 1481.64 Z" fill="#000000" fill-rule="nonzero" fill-opacity="1" /><path clip-path="url(#clip190)" d="M1760.22 1451.02 L1778.58 1451.02 L1778.58 1454.96 L1764.5 1454.96 L1764.5 1463.43 Q1765.52 1463.08 1766.54 1462.92 Q1767.56 1462.73 1768.58 1462.73 Q1774.37 1462.73 1777.74 1465.9 Q1781.12 1469.08 1781.12 1474.49 Q1781.12 1480.07 1777.65 1483.17 Q1774.18 1486.25 1767.86 1486.25 Q1765.68 1486.25 1763.42 1485.88 Q1761.17 1485.51 1758.76 1484.77 L1758.76 1480.07 Q1760.85 1481.2 1763.07 1481.76 Q1765.29 1482.32 1767.77 1482.32 Q1771.77 1482.32 1774.11 1480.21 Q1776.45 1478.1 1776.45 1474.49 Q1776.45 1470.88 1774.11 1468.77 Q1771.77 1466.67 1767.77 1466.67 Q1765.89 1466.67 1764.02 1467.08 Q1762.17 1467.5 1760.22 1468.38 L1760.22 1451.02 Z" fill="#000000" fill-rule="nonzero" fill-opacity="1" /><path clip-path="url(#clip190)" d="M1800.34 1454.1 Q1796.73 1454.1 1794.9 1457.66 Q1793.09 1461.2 1793.09 1468.33 Q1793.09 1475.44 1794.9 1479.01 Q1796.73 1482.55 1800.34 1482.55 Q1803.97 1482.55 1805.78 1479.01 Q1807.61 1475.44 1807.61 1468.33 Q1807.61 1461.2 1805.78 1457.66 Q1803.97 1454.1 1800.34 1454.1 M1800.34 1450.39 Q1806.15 1450.39 1809.2 1455 Q1812.28 1459.58 1812.28 1468.33 Q1812.28 1477.06 1809.2 1481.67 Q1806.15 1486.25 1800.34 1486.25 Q1794.53 1486.25 1791.45 1481.67 Q1788.39 1477.06 1788.39 1468.33 Q1788.39 1459.58 1791.45 1455 Q1794.53 1450.39 1800.34 1450.39 Z" fill="#000000" fill-rule="nonzero" fill-opacity="1" /><path clip-path="url(#clip190)" d="M2256.94 1481.64 L2273.26 1481.64 L2273.26 1485.58 L2251.31 1485.58 L2251.31 1481.64 Q2253.97 1478.89 2258.56 1474.26 Q2263.16 1469.61 2264.34 1468.27 Q2266.59 1465.74 2267.47 1464.01 Q2268.37 1462.25 2268.37 1460.56 Q2268.37 1457.8 2266.43 1456.07 Q2264.51 1454.33 2261.4 1454.33 Q2259.21 1454.33 2256.75 1455.09 Q2254.32 1455.86 2251.54 1457.41 L2251.54 1452.69 Q2254.37 1451.55 2256.82 1450.97 Q2259.28 1450.39 2261.31 1450.39 Q2266.68 1450.39 2269.88 1453.08 Q2273.07 1455.77 2273.07 1460.26 Q2273.07 1462.39 2272.26 1464.31 Q2271.47 1466.2 2269.37 1468.8 Q2268.79 1469.47 2265.69 1472.69 Q2262.59 1475.88 2256.94 1481.64 Z" fill="#000000" fill-rule="nonzero" fill-opacity="1" /><path clip-path="url(#clip190)" d="M2293.07 1454.1 Q2289.46 1454.1 2287.63 1457.66 Q2285.83 1461.2 2285.83 1468.33 Q2285.83 1475.44 2287.63 1479.01 Q2289.46 1482.55 2293.07 1482.55 Q2296.71 1482.55 2298.51 1479.01 Q2300.34 1475.44 2300.34 1468.33 Q2300.34 1461.2 2298.51 1457.66 Q2296.71 1454.1 2293.07 1454.1 M2293.07 1450.39 Q2298.88 1450.39 2301.94 1455 Q2305.02 1459.58 2305.02 1468.33 Q2305.02 1477.06 2301.94 1481.67 Q2298.88 1486.25 2293.07 1486.25 Q2287.26 1486.25 2284.18 1481.67 Q2281.13 1477.06 2281.13 1468.33 Q2281.13 1459.58 2284.18 1455 Q2287.26 1450.39 2293.07 1450.39 Z" fill="#000000" fill-rule="nonzero" fill-opacity="1" /><path clip-path="url(#clip190)" d="M2323.23 1454.1 Q2319.62 1454.1 2317.79 1457.66 Q2315.99 1461.2 2315.99 1468.33 Q2315.99 1475.44 2317.79 1479.01 Q2319.62 1482.55 2323.23 1482.55 Q2326.87 1482.55 2328.67 1479.01 Q2330.5 1475.44 2330.5 1468.33 Q2330.5 1461.2 2328.67 1457.66 Q2326.87 1454.1 2323.23 1454.1 M2323.23 1450.39 Q2329.04 1450.39 2332.1 1455 Q2335.18 1459.58 2335.18 1468.33 Q2335.18 1477.06 2332.1 1481.67 Q2329.04 1486.25 2323.23 1486.25 Q2317.42 1486.25 2314.34 1481.67 Q2311.29 1477.06 2311.29 1468.33 Q2311.29 1459.58 2314.34 1455 Q2317.42 1450.39 2323.23 1450.39 Z" fill="#000000" fill-rule="nonzero" fill-opacity="1" /><path clip-path="url(#clip190)" d="M1074.71 1520.52 L1081.14 1520.52 L1081.14 1562.63 L1104.28 1562.63 L1104.28 1568.04 L1074.71 1568.04 L1074.71 1520.52 Z" fill="#000000" fill-rule="nonzero" fill-opacity="1" /><path clip-path="url(#clip190)" d="M1126.97 1550.12 Q1119.87 1550.12 1117.14 1551.75 Q1114.4 1553.37 1114.4 1557.29 Q1114.4 1560.4 1116.44 1562.25 Q1118.51 1564.07 1122.04 1564.07 Q1126.91 1564.07 1129.84 1560.63 Q1132.8 1557.16 1132.8 1551.43 L1132.8 1550.12 L1126.97 1550.12 M1138.65 1547.71 L1138.65 1568.04 L1132.8 1568.04 L1132.8 1562.63 Q1130.79 1565.88 1127.8 1567.44 Q1124.81 1568.97 1120.48 1568.97 Q1115 1568.97 1111.76 1565.91 Q1108.54 1562.82 1108.54 1557.67 Q1108.54 1551.65 1112.55 1548.6 Q1116.6 1545.54 1124.58 1545.54 L1132.8 1545.54 L1132.8 1544.97 Q1132.8 1540.93 1130.12 1538.73 Q1127.48 1536.5 1122.67 1536.5 Q1119.62 1536.5 1116.72 1537.23 Q1113.83 1537.97 1111.15 1539.43 L1111.15 1534.02 Q1114.37 1532.78 1117.39 1532.17 Q1120.41 1531.54 1123.28 1531.54 Q1131.01 1531.54 1134.83 1535.55 Q1138.65 1539.56 1138.65 1547.71 Z" fill="#000000" fill-rule="nonzero" fill-opacity="1" /><path clip-path="url(#clip190)" d="M1156.51 1522.27 L1156.51 1532.4 L1168.57 1532.4 L1168.57 1536.95 L1156.51 1536.95 L1156.51 1556.3 Q1156.51 1560.66 1157.69 1561.9 Q1158.9 1563.14 1162.56 1563.14 L1168.57 1563.14 L1168.57 1568.04 L1162.56 1568.04 Q1155.78 1568.04 1153.2 1565.53 Q1150.62 1562.98 1150.62 1556.3 L1150.62 1536.95 L1146.32 1536.95 L1146.32 1532.4 L1150.62 1532.4 L1150.62 1522.27 L1156.51 1522.27 Z" fill="#000000" fill-rule="nonzero" fill-opacity="1" /><path clip-path="url(#clip190)" d="M1182.07 1522.27 L1182.07 1532.4 L1194.13 1532.4 L1194.13 1536.95 L1182.07 1536.95 L1182.07 1556.3 Q1182.07 1560.66 1183.24 1561.9 Q1184.45 1563.14 1188.11 1563.14 L1194.13 1563.14 L1194.13 1568.04 L1188.11 1568.04 Q1181.33 1568.04 1178.76 1565.53 Q1176.18 1562.98 1176.18 1556.3 L1176.18 1536.95 L1171.88 1536.95 L1171.88 1532.4 L1176.18 1532.4 L1176.18 1522.27 L1182.07 1522.27 Z" fill="#000000" fill-rule="nonzero" fill-opacity="1" /><path clip-path="url(#clip190)" d="M1201.83 1532.4 L1207.69 1532.4 L1207.69 1568.04 L1201.83 1568.04 L1201.83 1532.4 M1201.83 1518.52 L1207.69 1518.52 L1207.69 1525.93 L1201.83 1525.93 L1201.83 1518.52 Z" fill="#000000" fill-rule="nonzero" fill-opacity="1" /><path clip-path="url(#clip190)" d="M1245.6 1533.76 L1245.6 1539.24 Q1243.11 1537.87 1240.6 1537.2 Q1238.12 1536.5 1235.57 1536.5 Q1229.87 1536.5 1226.72 1540.13 Q1223.57 1543.73 1223.57 1550.25 Q1223.57 1556.78 1226.72 1560.4 Q1229.87 1564 1235.57 1564 Q1238.12 1564 1240.6 1563.33 Q1243.11 1562.63 1245.6 1561.26 L1245.6 1566.68 Q1243.15 1567.82 1240.5 1568.39 Q1237.89 1568.97 1234.93 1568.97 Q1226.88 1568.97 1222.14 1563.91 Q1217.4 1558.85 1217.4 1550.25 Q1217.4 1541.53 1222.17 1536.53 Q1226.98 1531.54 1235.32 1531.54 Q1238.02 1531.54 1240.6 1532.11 Q1243.18 1532.65 1245.6 1533.76 Z" fill="#000000" fill-rule="nonzero" fill-opacity="1" /><path clip-path="url(#clip190)" d="M1286.27 1548.76 L1286.27 1551.62 L1259.35 1551.62 Q1259.73 1557.67 1262.97 1560.85 Q1266.25 1564 1272.08 1564 Q1275.45 1564 1278.6 1563.17 Q1281.79 1562.35 1284.9 1560.69 L1284.9 1566.23 Q1281.75 1567.57 1278.44 1568.27 Q1275.13 1568.97 1271.73 1568.97 Q1263.2 1568.97 1258.2 1564 Q1253.24 1559.04 1253.24 1550.57 Q1253.24 1541.82 1257.95 1536.69 Q1262.69 1531.54 1270.71 1531.54 Q1277.9 1531.54 1282.07 1536.18 Q1286.27 1540.8 1286.27 1548.76 M1280.42 1547.04 Q1280.35 1542.23 1277.71 1539.37 Q1275.1 1536.5 1270.77 1536.5 Q1265.87 1536.5 1262.91 1539.27 Q1259.98 1542.04 1259.54 1547.07 L1280.42 1547.04 Z" fill="#000000" fill-rule="nonzero" fill-opacity="1" /><path clip-path="url(#clip190)" d="M1345.35 1522.08 L1345.35 1528.35 Q1341.69 1526.6 1338.44 1525.74 Q1335.19 1524.88 1332.17 1524.88 Q1326.92 1524.88 1324.05 1526.92 Q1321.22 1528.96 1321.22 1532.71 Q1321.22 1535.87 1323.1 1537.49 Q1325.01 1539.08 1330.29 1540.07 L1334.18 1540.86 Q1341.37 1542.23 1344.77 1545.7 Q1348.21 1549.14 1348.21 1554.93 Q1348.21 1561.84 1343.56 1565.4 Q1338.95 1568.97 1330.01 1568.97 Q1326.63 1568.97 1322.81 1568.2 Q1319.03 1567.44 1314.95 1565.94 L1314.95 1559.32 Q1318.87 1561.52 1322.62 1562.63 Q1326.38 1563.75 1330.01 1563.75 Q1335.51 1563.75 1338.5 1561.58 Q1341.5 1559.42 1341.5 1555.41 Q1341.5 1551.91 1339.33 1549.93 Q1337.2 1547.96 1332.3 1546.97 L1328.38 1546.21 Q1321.19 1544.78 1317.97 1541.72 Q1314.76 1538.67 1314.76 1533.22 Q1314.76 1526.92 1319.18 1523.29 Q1323.64 1519.66 1331.44 1519.66 Q1334.78 1519.66 1338.25 1520.27 Q1341.72 1520.87 1345.35 1522.08 Z" fill="#000000" fill-rule="nonzero" fill-opacity="1" /><path clip-path="url(#clip190)" d="M1357.98 1532.4 L1363.84 1532.4 L1363.84 1568.04 L1357.98 1568.04 L1357.98 1532.4 M1357.98 1518.52 L1363.84 1518.52 L1363.84 1525.93 L1357.98 1525.93 L1357.98 1518.52 Z" fill="#000000" fill-rule="nonzero" fill-opacity="1" /><path clip-path="url(#clip190)" d="M1373.55 1532.4 L1401.37 1532.4 L1401.37 1537.74 L1379.34 1563.37 L1401.37 1563.37 L1401.37 1568.04 L1372.75 1568.04 L1372.75 1562.7 L1394.78 1537.07 L1373.55 1537.07 L1373.55 1532.4 Z" fill="#000000" fill-rule="nonzero" fill-opacity="1" /><path clip-path="url(#clip190)" d="M1440.8 1548.76 L1440.8 1551.62 L1413.87 1551.62 Q1414.26 1557.67 1417.5 1560.85 Q1420.78 1564 1426.61 1564 Q1429.98 1564 1433.13 1563.17 Q1436.31 1562.35 1439.43 1560.69 L1439.43 1566.23 Q1436.28 1567.57 1432.97 1568.27 Q1429.66 1568.97 1426.26 1568.97 Q1417.73 1568.97 1412.73 1564 Q1407.76 1559.04 1407.76 1550.57 Q1407.76 1541.82 1412.47 1536.69 Q1417.22 1531.54 1425.24 1531.54 Q1432.43 1531.54 1436.6 1536.18 Q1440.8 1540.8 1440.8 1548.76 M1434.94 1547.04 Q1434.88 1542.23 1432.24 1539.37 Q1429.63 1536.5 1425.3 1536.5 Q1420.4 1536.5 1417.44 1539.27 Q1414.51 1542.04 1414.07 1547.07 L1434.94 1547.04 Z" fill="#000000" fill-rule="nonzero" fill-opacity="1" /><path clip-path="url(#clip190)" d="M1451.91 1559.96 L1458.62 1559.96 L1458.62 1565.43 L1453.41 1575.62 L1449.3 1575.62 L1451.91 1565.43 L1451.91 1559.96 Z" fill="#000000" fill-rule="nonzero" fill-opacity="1" /><path clip-path="url(#clip190)" d="M1492.11 1520.52 L1500.77 1520.52 L1521.84 1560.28 L1521.84 1520.52 L1528.07 1520.52 L1528.07 1568.04 L1519.42 1568.04 L1498.35 1528.29 L1498.35 1568.04 L1492.11 1568.04 L1492.11 1520.52 Z" fill="#000000" fill-rule="nonzero" fill-opacity="1" /><polyline clip-path="url(#clip192)" style="stroke:#000000; stroke-linecap:round; stroke-linejoin:round; stroke-width:2; stroke-opacity:0.1; fill:none" points="250.028,1209.97 2352.76,1209.97 "/>
<polyline clip-path="url(#clip192)" style="stroke:#000000; stroke-linecap:round; stroke-linejoin:round; stroke-width:2; stroke-opacity:0.1; fill:none" points="250.028,989.35 2352.76,989.35 "/>
<polyline clip-path="url(#clip192)" style="stroke:#000000; stroke-linecap:round; stroke-linejoin:round; stroke-width:2; stroke-opacity:0.1; fill:none" points="250.028,768.731 2352.76,768.731 "/>
<polyline clip-path="url(#clip192)" style="stroke:#000000; stroke-linecap:round; stroke-linejoin:round; stroke-width:2; stroke-opacity:0.1; fill:none" points="250.028,548.112 2352.76,548.112 "/>
<polyline clip-path="url(#clip192)" style="stroke:#000000; stroke-linecap:round; stroke-linejoin:round; stroke-width:2; stroke-opacity:0.1; fill:none" points="250.028,327.493 2352.76,327.493 "/>
<polyline clip-path="url(#clip190)" style="stroke:#000000; stroke-linecap:round; stroke-linejoin:round; stroke-width:4; stroke-opacity:1; fill:none" points="250.028,1423.18 250.028,166.672 "/>
<polyline clip-path="url(#clip190)" style="stroke:#000000; stroke-linecap:round; stroke-linejoin:round; stroke-width:4; stroke-opacity:1; fill:none" points="250.028,1209.97 268.926,1209.97 "/>
<polyline clip-path="url(#clip190)" style="stroke:#000000; stroke-linecap:round; stroke-linejoin:round; stroke-width:4; stroke-opacity:1; fill:none" points="250.028,989.35 268.926,989.35 "/>
<polyline clip-path="url(#clip190)" style="stroke:#000000; stroke-linecap:round; stroke-linejoin:round; stroke-width:4; stroke-opacity:1; fill:none" points="250.028,768.731 268.926,768.731 "/>
<polyline clip-path="url(#clip190)" style="stroke:#000000; stroke-linecap:round; stroke-linejoin:round; stroke-width:4; stroke-opacity:1; fill:none" points="250.028,548.112 268.926,548.112 "/>
<polyline clip-path="url(#clip190)" style="stroke:#000000; stroke-linecap:round; stroke-linejoin:round; stroke-width:4; stroke-opacity:1; fill:none" points="250.028,327.493 268.926,327.493 "/>
<path clip-path="url(#clip190)" d="M127.917 1195.77 Q124.306 1195.77 122.478 1199.33 Q120.672 1202.87 120.672 1210 Q120.672 1217.11 122.478 1220.68 Q124.306 1224.22 127.917 1224.22 Q131.552 1224.22 133.357 1220.68 Q135.186 1217.11 135.186 1210 Q135.186 1202.87 133.357 1199.33 Q131.552 1195.77 127.917 1195.77 M127.917 1192.06 Q133.728 1192.06 136.783 1196.67 Q139.862 1201.25 139.862 1210 Q139.862 1218.73 136.783 1223.34 Q133.728 1227.92 127.917 1227.92 Q122.107 1227.92 119.029 1223.34 Q115.973 1218.73 115.973 1210 Q115.973 1201.25 119.029 1196.67 Q122.107 1192.06 127.917 1192.06 Z" fill="#000000" fill-rule="nonzero" fill-opacity="1" /><path clip-path="url(#clip190)" d="M148.079 1221.37 L152.964 1221.37 L152.964 1227.25 L148.079 1227.25 L148.079 1221.37 Z" fill="#000000" fill-rule="nonzero" fill-opacity="1" /><path clip-path="url(#clip190)" d="M173.149 1195.77 Q169.538 1195.77 167.709 1199.33 Q165.903 1202.87 165.903 1210 Q165.903 1217.11 167.709 1220.68 Q169.538 1224.22 173.149 1224.22 Q176.783 1224.22 178.589 1220.68 Q180.417 1217.11 180.417 1210 Q180.417 1202.87 178.589 1199.33 Q176.783 1195.77 173.149 1195.77 M173.149 1192.06 Q178.959 1192.06 182.014 1196.67 Q185.093 1201.25 185.093 1210 Q185.093 1218.73 182.014 1223.34 Q178.959 1227.92 173.149 1227.92 Q167.339 1227.92 164.26 1223.34 Q161.204 1218.73 161.204 1210 Q161.204 1201.25 164.26 1196.67 Q167.339 1192.06 173.149 1192.06 Z" fill="#000000" fill-rule="nonzero" fill-opacity="1" /><path clip-path="url(#clip190)" d="M194.121 1223.31 L201.76 1223.31 L201.76 1196.95 L193.45 1198.62 L193.45 1194.36 L201.713 1192.69 L206.389 1192.69 L206.389 1223.31 L214.028 1223.31 L214.028 1227.25 L194.121 1227.25 L194.121 1223.31 Z" fill="#000000" fill-rule="nonzero" fill-opacity="1" /><path clip-path="url(#clip190)" d="M128.288 975.149 Q124.677 975.149 122.848 978.714 Q121.043 982.256 121.043 989.385 Q121.043 996.492 122.848 1000.06 Q124.677 1003.6 128.288 1003.6 Q131.922 1003.6 133.728 1000.06 Q135.556 996.492 135.556 989.385 Q135.556 982.256 133.728 978.714 Q131.922 975.149 128.288 975.149 M128.288 971.445 Q134.098 971.445 137.154 976.052 Q140.232 980.635 140.232 989.385 Q140.232 998.112 137.154 1002.72 Q134.098 1007.3 128.288 1007.3 Q122.478 1007.3 119.399 1002.72 Q116.343 998.112 116.343 989.385 Q116.343 980.635 119.399 976.052 Q122.478 971.445 128.288 971.445 Z" fill="#000000" fill-rule="nonzero" fill-opacity="1" /><path clip-path="url(#clip190)" d="M148.45 1000.75 L153.334 1000.75 L153.334 1006.63 L148.45 1006.63 L148.45 1000.75 Z" fill="#000000" fill-rule="nonzero" fill-opacity="1" /><path clip-path="url(#clip190)" d="M173.519 975.149 Q169.908 975.149 168.079 978.714 Q166.274 982.256 166.274 989.385 Q166.274 996.492 168.079 1000.06 Q169.908 1003.6 173.519 1003.6 Q177.153 1003.6 178.959 1000.06 Q180.788 996.492 180.788 989.385 Q180.788 982.256 178.959 978.714 Q177.153 975.149 173.519 975.149 M173.519 971.445 Q179.329 971.445 182.385 976.052 Q185.463 980.635 185.463 989.385 Q185.463 998.112 182.385 1002.72 Q179.329 1007.3 173.519 1007.3 Q167.709 1007.3 164.63 1002.72 Q161.575 998.112 161.575 989.385 Q161.575 980.635 164.63 976.052 Q167.709 971.445 173.519 971.445 Z" fill="#000000" fill-rule="nonzero" fill-opacity="1" /><path clip-path="url(#clip190)" d="M197.709 1002.7 L214.028 1002.7 L214.028 1006.63 L192.084 1006.63 L192.084 1002.7 Q194.746 999.941 199.329 995.311 Q203.936 990.658 205.116 989.316 Q207.362 986.793 208.241 985.057 Q209.144 983.297 209.144 981.607 Q209.144 978.853 207.199 977.117 Q205.278 975.381 202.176 975.381 Q199.977 975.381 197.524 976.145 Q195.093 976.908 192.315 978.459 L192.315 973.737 Q195.139 972.603 197.593 972.024 Q200.047 971.445 202.084 971.445 Q207.454 971.445 210.649 974.131 Q213.843 976.816 213.843 981.307 Q213.843 983.436 213.033 985.357 Q212.246 987.256 210.139 989.848 Q209.561 990.519 206.459 993.737 Q203.357 996.931 197.709 1002.7 Z" fill="#000000" fill-rule="nonzero" fill-opacity="1" /><path clip-path="url(#clip190)" d="M127.339 754.53 Q123.728 754.53 121.899 758.095 Q120.093 761.637 120.093 768.766 Q120.093 775.873 121.899 779.437 Q123.728 782.979 127.339 782.979 Q130.973 782.979 132.779 779.437 Q134.607 775.873 134.607 768.766 Q134.607 761.637 132.779 758.095 Q130.973 754.53 127.339 754.53 M127.339 750.826 Q133.149 750.826 136.204 755.433 Q139.283 760.016 139.283 768.766 Q139.283 777.493 136.204 782.099 Q133.149 786.683 127.339 786.683 Q121.529 786.683 118.45 782.099 Q115.394 777.493 115.394 768.766 Q115.394 760.016 118.45 755.433 Q121.529 750.826 127.339 750.826 Z" fill="#000000" fill-rule="nonzero" fill-opacity="1" /><path clip-path="url(#clip190)" d="M147.501 780.132 L152.385 780.132 L152.385 786.011 L147.501 786.011 L147.501 780.132 Z" fill="#000000" fill-rule="nonzero" fill-opacity="1" /><path clip-path="url(#clip190)" d="M172.57 754.53 Q168.959 754.53 167.13 758.095 Q165.325 761.637 165.325 768.766 Q165.325 775.873 167.13 779.437 Q168.959 782.979 172.57 782.979 Q176.204 782.979 178.01 779.437 Q179.839 775.873 179.839 768.766 Q179.839 761.637 178.01 758.095 Q176.204 754.53 172.57 754.53 M172.57 750.826 Q178.38 750.826 181.436 755.433 Q184.514 760.016 184.514 768.766 Q184.514 777.493 181.436 782.099 Q178.38 786.683 172.57 786.683 Q166.76 786.683 163.681 782.099 Q160.626 777.493 160.626 768.766 Q160.626 760.016 163.681 755.433 Q166.76 750.826 172.57 750.826 Z" fill="#000000" fill-rule="nonzero" fill-opacity="1" /><path clip-path="url(#clip190)" d="M206.899 767.377 Q210.255 768.095 212.13 770.363 Q214.028 772.632 214.028 775.965 Q214.028 781.081 210.51 783.882 Q206.991 786.683 200.51 786.683 Q198.334 786.683 196.019 786.243 Q193.727 785.826 191.274 784.97 L191.274 780.456 Q193.218 781.59 195.533 782.169 Q197.848 782.748 200.371 782.748 Q204.769 782.748 207.061 781.011 Q209.375 779.275 209.375 775.965 Q209.375 772.91 207.223 771.197 Q205.093 769.461 201.274 769.461 L197.246 769.461 L197.246 765.618 L201.459 765.618 Q204.908 765.618 206.737 764.252 Q208.565 762.863 208.565 760.271 Q208.565 757.609 206.667 756.197 Q204.792 754.762 201.274 754.762 Q199.352 754.762 197.153 755.178 Q194.954 755.595 192.315 756.475 L192.315 752.308 Q194.977 751.567 197.292 751.197 Q199.63 750.826 201.69 750.826 Q207.014 750.826 210.116 753.257 Q213.218 755.664 213.218 759.785 Q213.218 762.655 211.574 764.646 Q209.931 766.613 206.899 767.377 Z" fill="#000000" fill-rule="nonzero" fill-opacity="1" /><path clip-path="url(#clip190)" d="M126.205 533.911 Q122.593 533.911 120.765 537.476 Q118.959 541.017 118.959 548.147 Q118.959 555.254 120.765 558.818 Q122.593 562.36 126.205 562.36 Q129.839 562.36 131.644 558.818 Q133.473 555.254 133.473 548.147 Q133.473 541.017 131.644 537.476 Q129.839 533.911 126.205 533.911 M126.205 530.207 Q132.015 530.207 135.07 534.814 Q138.149 539.397 138.149 548.147 Q138.149 556.874 135.07 561.48 Q132.015 566.064 126.205 566.064 Q120.394 566.064 117.316 561.48 Q114.26 556.874 114.26 548.147 Q114.26 539.397 117.316 534.814 Q120.394 530.207 126.205 530.207 Z" fill="#000000" fill-rule="nonzero" fill-opacity="1" /><path clip-path="url(#clip190)" d="M146.366 559.513 L151.251 559.513 L151.251 565.392 L146.366 565.392 L146.366 559.513 Z" fill="#000000" fill-rule="nonzero" fill-opacity="1" /><path clip-path="url(#clip190)" d="M171.436 533.911 Q167.825 533.911 165.996 537.476 Q164.19 541.017 164.19 548.147 Q164.19 555.254 165.996 558.818 Q167.825 562.36 171.436 562.36 Q175.07 562.36 176.876 558.818 Q178.704 555.254 178.704 548.147 Q178.704 541.017 176.876 537.476 Q175.07 533.911 171.436 533.911 M171.436 530.207 Q177.246 530.207 180.301 534.814 Q183.38 539.397 183.38 548.147 Q183.38 556.874 180.301 561.48 Q177.246 566.064 171.436 566.064 Q165.626 566.064 162.547 561.48 Q159.491 556.874 159.491 548.147 Q159.491 539.397 162.547 534.814 Q165.626 530.207 171.436 530.207 Z" fill="#000000" fill-rule="nonzero" fill-opacity="1" /><path clip-path="url(#clip190)" d="M204.445 534.906 L192.639 553.355 L204.445 553.355 L204.445 534.906 M203.218 530.832 L209.098 530.832 L209.098 553.355 L214.028 553.355 L214.028 557.244 L209.098 557.244 L209.098 565.392 L204.445 565.392 L204.445 557.244 L188.843 557.244 L188.843 552.73 L203.218 530.832 Z" fill="#000000" fill-rule="nonzero" fill-opacity="1" /><path clip-path="url(#clip190)" d="M127.686 313.292 Q124.075 313.292 122.246 316.857 Q120.441 320.398 120.441 327.528 Q120.441 334.634 122.246 338.199 Q124.075 341.741 127.686 341.741 Q131.32 341.741 133.126 338.199 Q134.954 334.634 134.954 327.528 Q134.954 320.398 133.126 316.857 Q131.32 313.292 127.686 313.292 M127.686 309.588 Q133.496 309.588 136.552 314.195 Q139.63 318.778 139.63 327.528 Q139.63 336.255 136.552 340.861 Q133.496 345.445 127.686 345.445 Q121.876 345.445 118.797 340.861 Q115.742 336.255 115.742 327.528 Q115.742 318.778 118.797 314.195 Q121.876 309.588 127.686 309.588 Z" fill="#000000" fill-rule="nonzero" fill-opacity="1" /><path clip-path="url(#clip190)" d="M147.848 338.894 L152.732 338.894 L152.732 344.773 L147.848 344.773 L147.848 338.894 Z" fill="#000000" fill-rule="nonzero" fill-opacity="1" /><path clip-path="url(#clip190)" d="M172.917 313.292 Q169.306 313.292 167.477 316.857 Q165.672 320.398 165.672 327.528 Q165.672 334.634 167.477 338.199 Q169.306 341.741 172.917 341.741 Q176.551 341.741 178.357 338.199 Q180.186 334.634 180.186 327.528 Q180.186 320.398 178.357 316.857 Q176.551 313.292 172.917 313.292 M172.917 309.588 Q178.727 309.588 181.783 314.195 Q184.862 318.778 184.862 327.528 Q184.862 336.255 181.783 340.861 Q178.727 345.445 172.917 345.445 Q167.107 345.445 164.028 340.861 Q160.973 336.255 160.973 327.528 Q160.973 318.778 164.028 314.195 Q167.107 309.588 172.917 309.588 Z" fill="#000000" fill-rule="nonzero" fill-opacity="1" /><path clip-path="url(#clip190)" d="M193.125 310.213 L211.482 310.213 L211.482 314.148 L197.408 314.148 L197.408 322.621 Q198.426 322.273 199.445 322.111 Q200.463 321.926 201.482 321.926 Q207.269 321.926 210.649 325.097 Q214.028 328.269 214.028 333.685 Q214.028 339.264 210.556 342.366 Q207.084 345.445 200.764 345.445 Q198.588 345.445 196.32 345.074 Q194.075 344.704 191.667 343.963 L191.667 339.264 Q193.75 340.398 195.973 340.954 Q198.195 341.509 200.672 341.509 Q204.676 341.509 207.014 339.403 Q209.352 337.296 209.352 333.685 Q209.352 330.074 207.014 327.968 Q204.676 325.861 200.672 325.861 Q198.797 325.861 196.922 326.278 Q195.07 326.695 193.125 327.574 L193.125 310.213 Z" fill="#000000" fill-rule="nonzero" fill-opacity="1" /><path clip-path="url(#clip190)" d="M29.4065 815.312 L34.9447 815.312 Q33.6716 817.795 33.035 820.468 Q32.3984 823.142 32.3984 826.007 Q32.3984 830.367 33.7352 832.563 Q35.072 834.728 37.7456 834.728 Q39.7826 834.728 40.9603 833.168 Q42.1061 831.608 43.1565 826.898 L43.6021 824.893 Q44.9389 818.654 47.3897 816.044 Q49.8086 813.402 54.1691 813.402 Q59.1344 813.402 62.0308 817.349 Q64.9272 821.264 64.9272 828.139 Q64.9272 831.004 64.3543 834.123 Q63.8132 837.21 62.6992 840.648 L56.6518 840.648 Q58.3387 837.401 59.198 834.25 Q60.0256 831.099 60.0256 828.012 Q60.0256 823.874 58.6251 821.646 Q57.1929 819.418 54.6147 819.418 Q52.2276 819.418 50.9545 821.041 Q49.6813 822.633 48.5037 828.075 L48.0262 830.112 Q46.8804 835.555 44.5251 837.974 Q42.138 840.393 38.0002 840.393 Q32.9713 840.393 30.2341 836.828 Q27.4968 833.263 27.4968 826.707 Q27.4968 823.46 27.9743 820.596 Q28.4517 817.731 29.4065 815.312 Z" fill="#000000" fill-rule="nonzero" fill-opacity="1" /><path clip-path="url(#clip190)" d="M18.2347 798.284 L28.3562 798.284 L28.3562 786.221 L32.9077 786.221 L32.9077 798.284 L52.2594 798.284 Q56.6199 798.284 57.8613 797.106 Q59.1026 795.897 59.1026 792.236 L59.1026 786.221 L64.0042 786.221 L64.0042 792.236 Q64.0042 799.016 61.4897 801.594 Q58.9434 804.172 52.2594 804.172 L32.9077 804.172 L32.9077 808.469 L28.3562 808.469 L28.3562 804.172 L18.2347 804.172 L18.2347 798.284 Z" fill="#000000" fill-rule="nonzero" fill-opacity="1" /><path clip-path="url(#clip190)" d="M33.7671 755.061 L14.479 755.061 L14.479 749.204 L64.0042 749.204 L64.0042 755.061 L58.657 755.061 Q61.8398 756.907 63.3994 759.74 Q64.9272 762.54 64.9272 766.487 Q64.9272 772.948 59.771 777.022 Q54.6147 781.065 46.212 781.065 Q37.8093 781.065 32.6531 777.022 Q27.4968 772.948 27.4968 766.487 Q27.4968 762.54 29.0564 759.74 Q30.5842 756.907 33.7671 755.061 M46.212 775.017 Q52.6732 775.017 56.3653 772.375 Q60.0256 769.702 60.0256 765.055 Q60.0256 760.408 56.3653 757.734 Q52.6732 755.061 46.212 755.061 Q39.7508 755.061 36.0905 757.734 Q32.3984 760.408 32.3984 765.055 Q32.3984 769.702 36.0905 772.375 Q39.7508 775.017 46.212 775.017 Z" fill="#000000" fill-rule="nonzero" fill-opacity="1" /><path clip-path="url(#clip190)" d="M427.213 30.2134 L427.213 37.0536 Q423.22 35.1439 419.678 34.2064 Q416.136 33.2689 412.838 33.2689 Q407.109 33.2689 403.984 35.4911 Q400.893 37.7133 400.893 41.8105 Q400.893 45.248 402.942 47.0188 Q405.025 48.7549 410.789 49.8313 L415.025 50.6994 Q422.872 52.1924 426.588 55.9771 Q430.338 59.7271 430.338 66.0465 Q430.338 73.5812 425.268 77.4701 Q420.234 81.3589 410.477 81.3589 Q406.796 81.3589 402.629 80.5256 Q398.498 79.6923 394.053 78.0603 L394.053 70.8382 Q398.324 73.234 402.421 74.4493 Q406.518 75.6645 410.477 75.6645 Q416.484 75.6645 419.747 73.3034 Q423.011 70.9423 423.011 66.5674 Q423.011 62.7479 420.65 60.5952 Q418.324 58.4424 412.977 57.366 L408.706 56.5327 Q400.859 54.9702 397.352 51.6369 Q393.845 48.3036 393.845 42.3661 Q393.845 35.4911 398.671 31.5328 Q403.532 27.5745 412.039 27.5745 Q415.685 27.5745 419.47 28.2342 Q423.254 28.8939 427.213 30.2134 Z" fill="#000000" fill-rule="nonzero" fill-opacity="1" /><path clip-path="url(#clip190)" d="M447.317 30.4217 L447.317 41.4633 L460.476 41.4633 L460.476 46.4286 L447.317 46.4286 L447.317 67.5396 Q447.317 72.2965 448.601 73.6506 Q449.921 75.0048 453.914 75.0048 L460.476 75.0048 L460.476 80.352 L453.914 80.352 Q446.518 80.352 443.706 77.609 Q440.893 74.8312 440.893 67.5396 L440.893 46.4286 L436.206 46.4286 L436.206 41.4633 L440.893 41.4633 L440.893 30.4217 L447.317 30.4217 Z" fill="#000000" fill-rule="nonzero" fill-opacity="1" /><path clip-path="url(#clip190)" d="M486.553 60.8035 Q478.81 60.8035 475.824 62.5743 Q472.837 64.3451 472.837 68.616 Q472.837 72.0187 475.06 74.0326 Q477.317 76.0117 481.171 76.0117 Q486.483 76.0117 489.678 72.2618 Q492.907 68.4771 492.907 62.2271 L492.907 60.8035 L486.553 60.8035 M499.296 58.1646 L499.296 80.352 L492.907 80.352 L492.907 74.4493 Q490.719 77.9909 487.455 79.6923 Q484.192 81.3589 479.469 81.3589 Q473.497 81.3589 469.956 78.0256 Q466.449 74.6576 466.449 69.0326 Q466.449 62.4702 470.824 59.1368 Q475.233 55.8035 483.948 55.8035 L492.907 55.8035 L492.907 55.1785 Q492.907 50.7688 489.99 48.373 Q487.108 45.9425 481.865 45.9425 Q478.532 45.9425 475.372 46.7411 Q472.212 47.5397 469.296 49.1369 L469.296 43.2341 Q472.803 41.88 476.101 41.2203 Q479.4 40.5258 482.525 40.5258 Q490.962 40.5258 495.129 44.9008 Q499.296 49.2758 499.296 58.1646 Z" fill="#000000" fill-rule="nonzero" fill-opacity="1" /><path clip-path="url(#clip190)" d="M544.781 56.8799 L544.781 80.352 L538.393 80.352 L538.393 57.0882 Q538.393 51.5674 536.24 48.8244 Q534.087 46.0814 529.782 46.0814 Q524.608 46.0814 521.622 49.3799 Q518.636 52.6785 518.636 58.373 L518.636 80.352 L512.212 80.352 L512.212 41.4633 L518.636 41.4633 L518.636 47.505 Q520.927 43.998 524.018 42.2619 Q527.143 40.5258 531.205 40.5258 Q537.907 40.5258 541.344 44.6925 Q544.781 48.8244 544.781 56.8799 Z" fill="#000000" fill-rule="nonzero" fill-opacity="1" /><path clip-path="url(#clip190)" d="M583.115 47.3661 L583.115 26.3245 L589.503 26.3245 L589.503 80.352 L583.115 80.352 L583.115 74.5187 Q581.101 77.9909 578.01 79.6923 Q574.955 81.3589 570.649 81.3589 Q563.601 81.3589 559.156 75.734 Q554.747 70.109 554.747 60.9424 Q554.747 51.7758 559.156 46.1508 Q563.601 40.5258 570.649 40.5258 Q574.955 40.5258 578.01 42.2272 Q581.101 43.8939 583.115 47.3661 M561.344 60.9424 Q561.344 67.991 564.226 72.0187 Q567.142 76.0117 572.212 76.0117 Q577.281 76.0117 580.198 72.0187 Q583.115 67.991 583.115 60.9424 Q583.115 53.8938 580.198 49.9008 Q577.281 45.873 572.212 45.873 Q567.142 45.873 564.226 49.9008 Q561.344 53.8938 561.344 60.9424 Z" fill="#000000" fill-rule="nonzero" fill-opacity="1" /><path clip-path="url(#clip190)" d="M620.337 60.8035 Q612.594 60.8035 609.608 62.5743 Q606.621 64.3451 606.621 68.616 Q606.621 72.0187 608.844 74.0326 Q611.101 76.0117 614.955 76.0117 Q620.267 76.0117 623.462 72.2618 Q626.691 68.4771 626.691 62.2271 L626.691 60.8035 L620.337 60.8035 M633.08 58.1646 L633.08 80.352 L626.691 80.352 L626.691 74.4493 Q624.503 77.9909 621.239 79.6923 Q617.976 81.3589 613.253 81.3589 Q607.281 81.3589 603.74 78.0256 Q600.233 74.6576 600.233 69.0326 Q600.233 62.4702 604.608 59.1368 Q609.017 55.8035 617.732 55.8035 L626.691 55.8035 L626.691 55.1785 Q626.691 50.7688 623.774 48.373 Q620.892 45.9425 615.649 45.9425 Q612.316 45.9425 609.156 46.7411 Q605.996 47.5397 603.08 49.1369 L603.08 43.2341 Q606.587 41.88 609.885 41.2203 Q613.184 40.5258 616.309 40.5258 Q624.746 40.5258 628.913 44.9008 Q633.08 49.2758 633.08 58.1646 Z" fill="#000000" fill-rule="nonzero" fill-opacity="1" /><path clip-path="url(#clip190)" d="M668.774 47.4355 Q667.698 46.8105 666.413 46.5327 Q665.163 46.2202 663.635 46.2202 Q658.218 46.2202 655.302 49.7619 Q652.42 53.2688 652.42 59.866 L652.42 80.352 L645.996 80.352 L645.996 41.4633 L652.42 41.4633 L652.42 47.505 Q654.434 43.9633 657.663 42.2619 Q660.892 40.5258 665.51 40.5258 Q666.17 40.5258 666.968 40.63 Q667.767 40.6994 668.739 40.873 L668.774 47.4355 Z" fill="#000000" fill-rule="nonzero" fill-opacity="1" /><path clip-path="url(#clip190)" d="M699.815 47.3661 L699.815 26.3245 L706.204 26.3245 L706.204 80.352 L699.815 80.352 L699.815 74.5187 Q697.802 77.9909 694.711 79.6923 Q691.656 81.3589 687.35 81.3589 Q680.302 81.3589 675.857 75.734 Q671.447 70.109 671.447 60.9424 Q671.447 51.7758 675.857 46.1508 Q680.302 40.5258 687.35 40.5258 Q691.656 40.5258 694.711 42.2272 Q697.802 43.8939 699.815 47.3661 M678.045 60.9424 Q678.045 67.991 680.927 72.0187 Q683.843 76.0117 688.913 76.0117 Q693.982 76.0117 696.899 72.0187 Q699.815 67.991 699.815 60.9424 Q699.815 53.8938 696.899 49.9008 Q693.982 45.873 688.913 45.873 Q683.843 45.873 680.927 49.9008 Q678.045 53.8938 678.045 60.9424 Z" fill="#000000" fill-rule="nonzero" fill-opacity="1" /><path clip-path="url(#clip190)" d="M767.558 47.3661 L767.558 26.3245 L773.947 26.3245 L773.947 80.352 L767.558 80.352 L767.558 74.5187 Q765.544 77.9909 762.454 79.6923 Q759.398 81.3589 755.093 81.3589 Q748.044 81.3589 743.6 75.734 Q739.19 70.109 739.19 60.9424 Q739.19 51.7758 743.6 46.1508 Q748.044 40.5258 755.093 40.5258 Q759.398 40.5258 762.454 42.2272 Q765.544 43.8939 767.558 47.3661 M745.787 60.9424 Q745.787 67.991 748.669 72.0187 Q751.586 76.0117 756.655 76.0117 Q761.725 76.0117 764.641 72.0187 Q767.558 67.991 767.558 60.9424 Q767.558 53.8938 764.641 49.9008 Q761.725 45.873 756.655 45.873 Q751.586 45.873 748.669 49.9008 Q745.787 53.8938 745.787 60.9424 Z" fill="#000000" fill-rule="nonzero" fill-opacity="1" /><path clip-path="url(#clip190)" d="M820.37 59.3104 L820.37 62.4354 L790.995 62.4354 Q791.412 69.0326 794.954 72.5048 Q798.53 75.9423 804.884 75.9423 Q808.565 75.9423 812.002 75.0395 Q815.474 74.1368 818.877 72.3312 L818.877 78.3728 Q815.44 79.8312 811.829 80.5951 Q808.218 81.3589 804.502 81.3589 Q795.197 81.3589 789.745 75.9423 Q784.329 70.5257 784.329 61.2896 Q784.329 51.741 789.468 46.1508 Q794.641 40.5258 803.391 40.5258 Q811.238 40.5258 815.787 45.5952 Q820.37 50.6299 820.37 59.3104 M813.981 57.4355 Q813.912 52.1924 811.03 49.0674 Q808.183 45.9425 803.461 45.9425 Q798.113 45.9425 794.884 48.9633 Q791.69 51.9841 791.204 57.4702 L813.981 57.4355 Z" fill="#000000" fill-rule="nonzero" fill-opacity="1" /><path clip-path="url(#clip190)" d="M826.273 41.4633 L833.044 41.4633 L845.197 74.102 L857.349 41.4633 L864.12 41.4633 L849.537 80.352 L840.856 80.352 L826.273 41.4633 Z" fill="#000000" fill-rule="nonzero" fill-opacity="1" /><path clip-path="url(#clip190)" d="M872.939 41.4633 L879.328 41.4633 L879.328 80.352 L872.939 80.352 L872.939 41.4633 M872.939 26.3245 L879.328 26.3245 L879.328 34.4147 L872.939 34.4147 L872.939 26.3245 Z" fill="#000000" fill-rule="nonzero" fill-opacity="1" /><path clip-path="url(#clip190)" d="M910.37 60.8035 Q902.627 60.8035 899.641 62.5743 Q896.655 64.3451 896.655 68.616 Q896.655 72.0187 898.877 74.0326 Q901.134 76.0117 904.988 76.0117 Q910.3 76.0117 913.495 72.2618 Q916.724 68.4771 916.724 62.2271 L916.724 60.8035 L910.37 60.8035 M923.113 58.1646 L923.113 80.352 L916.724 80.352 L916.724 74.4493 Q914.536 77.9909 911.273 79.6923 Q908.009 81.3589 903.287 81.3589 Q897.314 81.3589 893.773 78.0256 Q890.266 74.6576 890.266 69.0326 Q890.266 62.4702 894.641 59.1368 Q899.05 55.8035 907.766 55.8035 L916.724 55.8035 L916.724 55.1785 Q916.724 50.7688 913.807 48.373 Q910.925 45.9425 905.682 45.9425 Q902.349 45.9425 899.189 46.7411 Q896.03 47.5397 893.113 49.1369 L893.113 43.2341 Q896.62 41.88 899.918 41.2203 Q903.217 40.5258 906.342 40.5258 Q914.78 40.5258 918.946 44.9008 Q923.113 49.2758 923.113 58.1646 Z" fill="#000000" fill-rule="nonzero" fill-opacity="1" /><path clip-path="url(#clip190)" d="M942.592 30.4217 L942.592 41.4633 L955.752 41.4633 L955.752 46.4286 L942.592 46.4286 L942.592 67.5396 Q942.592 72.2965 943.877 73.6506 Q945.196 75.0048 949.189 75.0048 L955.752 75.0048 L955.752 80.352 L949.189 80.352 Q941.793 80.352 938.981 77.609 Q936.168 74.8312 936.168 67.5396 L936.168 46.4286 L931.481 46.4286 L931.481 41.4633 L936.168 41.4633 L936.168 30.4217 L942.592 30.4217 Z" fill="#000000" fill-rule="nonzero" fill-opacity="1" /><path clip-path="url(#clip190)" d="M964.154 41.4633 L970.543 41.4633 L970.543 80.352 L964.154 80.352 L964.154 41.4633 M964.154 26.3245 L970.543 26.3245 L970.543 34.4147 L964.154 34.4147 L964.154 26.3245 Z" fill="#000000" fill-rule="nonzero" fill-opacity="1" /><path clip-path="url(#clip190)" d="M998.98 45.9425 Q993.842 45.9425 990.855 49.9702 Q987.869 53.9633 987.869 60.9424 Q987.869 67.9215 990.821 71.9493 Q993.807 75.9423 998.98 75.9423 Q1004.08 75.9423 1007.07 71.9145 Q1010.06 67.8868 1010.06 60.9424 Q1010.06 54.0327 1007.07 50.0049 Q1004.08 45.9425 998.98 45.9425 M998.98 40.5258 Q1007.31 40.5258 1012.07 45.9425 Q1016.83 51.3591 1016.83 60.9424 Q1016.83 70.4909 1012.07 75.9423 Q1007.31 81.3589 998.98 81.3589 Q990.612 81.3589 985.856 75.9423 Q981.133 70.4909 981.133 60.9424 Q981.133 51.3591 985.856 45.9425 Q990.612 40.5258 998.98 40.5258 Z" fill="#000000" fill-rule="nonzero" fill-opacity="1" /><path clip-path="url(#clip190)" d="M1059.74 56.8799 L1059.74 80.352 L1053.36 80.352 L1053.36 57.0882 Q1053.36 51.5674 1051.2 48.8244 Q1049.05 46.0814 1044.74 46.0814 Q1039.57 46.0814 1036.58 49.3799 Q1033.6 52.6785 1033.6 58.373 L1033.6 80.352 L1027.17 80.352 L1027.17 41.4633 L1033.6 41.4633 L1033.6 47.505 Q1035.89 43.998 1038.98 42.2619 Q1042.11 40.5258 1046.17 40.5258 Q1052.87 40.5258 1056.31 44.6925 Q1059.74 48.8244 1059.74 56.8799 Z" fill="#000000" fill-rule="nonzero" fill-opacity="1" /><path clip-path="url(#clip190)" d="M1110.16 45.9425 Q1105.02 45.9425 1102.04 49.9702 Q1099.05 53.9633 1099.05 60.9424 Q1099.05 67.9215 1102 71.9493 Q1104.99 75.9423 1110.16 75.9423 Q1115.26 75.9423 1118.25 71.9145 Q1121.24 67.8868 1121.24 60.9424 Q1121.24 54.0327 1118.25 50.0049 Q1115.26 45.9425 1110.16 45.9425 M1110.16 40.5258 Q1118.49 40.5258 1123.25 45.9425 Q1128.01 51.3591 1128.01 60.9424 Q1128.01 70.4909 1123.25 75.9423 Q1118.49 81.3589 1110.16 81.3589 Q1101.79 81.3589 1097.04 75.9423 Q1092.31 70.4909 1092.31 60.9424 Q1092.31 51.3591 1097.04 45.9425 Q1101.79 40.5258 1110.16 40.5258 Z" fill="#000000" fill-rule="nonzero" fill-opacity="1" /><path clip-path="url(#clip190)" d="M1158.29 26.3245 L1158.29 31.637 L1152.17 31.637 Q1148.74 31.637 1147.38 33.0259 Q1146.06 34.4147 1146.06 38.0258 L1146.06 41.4633 L1156.58 41.4633 L1156.58 46.4286 L1146.06 46.4286 L1146.06 80.352 L1139.64 80.352 L1139.64 46.4286 L1133.53 46.4286 L1133.53 41.4633 L1139.64 41.4633 L1139.64 38.755 Q1139.64 32.262 1142.66 29.3106 Q1145.68 26.3245 1152.24 26.3245 L1158.29 26.3245 Z" fill="#000000" fill-rule="nonzero" fill-opacity="1" /><path clip-path="url(#clip190)" d="M1216.51 48.9286 Q1218.91 44.623 1222.24 42.5744 Q1225.58 40.5258 1230.09 40.5258 Q1236.17 40.5258 1239.47 44.7966 Q1242.76 49.0327 1242.76 56.8799 L1242.76 80.352 L1236.34 80.352 L1236.34 57.0882 Q1236.34 51.498 1234.36 48.7897 Q1232.38 46.0814 1228.32 46.0814 Q1223.35 46.0814 1220.47 49.3799 Q1217.59 52.6785 1217.59 58.373 L1217.59 80.352 L1211.17 80.352 L1211.17 57.0882 Q1211.17 51.4633 1209.19 48.7897 Q1207.21 46.0814 1203.08 46.0814 Q1198.18 46.0814 1195.3 49.4147 Q1192.42 52.7133 1192.42 58.373 L1192.42 80.352 L1185.99 80.352 L1185.99 41.4633 L1192.42 41.4633 L1192.42 47.505 Q1194.6 43.9286 1197.66 42.2272 Q1200.72 40.5258 1204.92 40.5258 Q1209.15 40.5258 1212.1 42.6786 Q1215.09 44.8314 1216.51 48.9286 Z" fill="#000000" fill-rule="nonzero" fill-opacity="1" /><path clip-path="url(#clip190)" d="M1288.77 59.3104 L1288.77 62.4354 L1259.4 62.4354 Q1259.81 69.0326 1263.35 72.5048 Q1266.93 75.9423 1273.28 75.9423 Q1276.97 75.9423 1280.4 75.0395 Q1283.87 74.1368 1287.28 72.3312 L1287.28 78.3728 Q1283.84 79.8312 1280.23 80.5951 Q1276.62 81.3589 1272.9 81.3589 Q1263.6 81.3589 1258.15 75.9423 Q1252.73 70.5257 1252.73 61.2896 Q1252.73 51.741 1257.87 46.1508 Q1263.04 40.5258 1271.79 40.5258 Q1279.64 40.5258 1284.19 45.5952 Q1288.77 50.6299 1288.77 59.3104 M1282.38 57.4355 Q1282.31 52.1924 1279.43 49.0674 Q1276.58 45.9425 1271.86 45.9425 Q1266.51 45.9425 1263.28 48.9633 Q1260.09 51.9841 1259.6 57.4702 L1282.38 57.4355 Z" fill="#000000" fill-rule="nonzero" fill-opacity="1" /><path clip-path="url(#clip190)" d="M1316.93 60.8035 Q1309.19 60.8035 1306.2 62.5743 Q1303.21 64.3451 1303.21 68.616 Q1303.21 72.0187 1305.44 74.0326 Q1307.69 76.0117 1311.55 76.0117 Q1316.86 76.0117 1320.06 72.2618 Q1323.28 68.4771 1323.28 62.2271 L1323.28 60.8035 L1316.93 60.8035 M1329.67 58.1646 L1329.67 80.352 L1323.28 80.352 L1323.28 74.4493 Q1321.1 77.9909 1317.83 79.6923 Q1314.57 81.3589 1309.85 81.3589 Q1303.87 81.3589 1300.33 78.0256 Q1296.83 74.6576 1296.83 69.0326 Q1296.83 62.4702 1301.2 59.1368 Q1305.61 55.8035 1314.33 55.8035 L1323.28 55.8035 L1323.28 55.1785 Q1323.28 50.7688 1320.37 48.373 Q1317.49 45.9425 1312.24 45.9425 Q1308.91 45.9425 1305.75 46.7411 Q1302.59 47.5397 1299.67 49.1369 L1299.67 43.2341 Q1303.18 41.88 1306.48 41.2203 Q1309.78 40.5258 1312.9 40.5258 Q1321.34 40.5258 1325.51 44.9008 Q1329.67 49.2758 1329.67 58.1646 Z" fill="#000000" fill-rule="nonzero" fill-opacity="1" /><path clip-path="url(#clip190)" d="M1375.16 56.8799 L1375.16 80.352 L1368.77 80.352 L1368.77 57.0882 Q1368.77 51.5674 1366.62 48.8244 Q1364.46 46.0814 1360.16 46.0814 Q1354.99 46.0814 1352 49.3799 Q1349.01 52.6785 1349.01 58.373 L1349.01 80.352 L1342.59 80.352 L1342.59 41.4633 L1349.01 41.4633 L1349.01 47.505 Q1351.3 43.998 1354.4 42.2619 Q1357.52 40.5258 1361.58 40.5258 Q1368.28 40.5258 1371.72 44.6925 Q1375.16 48.8244 1375.16 56.8799 Z" fill="#000000" fill-rule="nonzero" fill-opacity="1" /><path clip-path="url(#clip190)" d="M1440.78 48.9286 Q1443.18 44.623 1446.51 42.5744 Q1449.85 40.5258 1454.36 40.5258 Q1460.44 40.5258 1463.73 44.7966 Q1467.03 49.0327 1467.03 56.8799 L1467.03 80.352 L1460.61 80.352 L1460.61 57.0882 Q1460.61 51.498 1458.63 48.7897 Q1456.65 46.0814 1452.59 46.0814 Q1447.62 46.0814 1444.74 49.3799 Q1441.86 52.6785 1441.86 58.373 L1441.86 80.352 L1435.44 80.352 L1435.44 57.0882 Q1435.44 51.4633 1433.46 48.7897 Q1431.48 46.0814 1427.35 46.0814 Q1422.45 46.0814 1419.57 49.4147 Q1416.69 52.7133 1416.69 58.373 L1416.69 80.352 L1410.26 80.352 L1410.26 41.4633 L1416.69 41.4633 L1416.69 47.505 Q1418.87 43.9286 1421.93 42.2272 Q1424.99 40.5258 1429.19 40.5258 Q1433.42 40.5258 1436.37 42.6786 Q1439.36 44.8314 1440.78 48.9286 Z" fill="#000000" fill-rule="nonzero" fill-opacity="1" /><path clip-path="url(#clip190)" d="M1497.45 60.8035 Q1489.71 60.8035 1486.72 62.5743 Q1483.73 64.3451 1483.73 68.616 Q1483.73 72.0187 1485.96 74.0326 Q1488.21 76.0117 1492.07 76.0117 Q1497.38 76.0117 1500.57 72.2618 Q1503.8 68.4771 1503.8 62.2271 L1503.8 60.8035 L1497.45 60.8035 M1510.19 58.1646 L1510.19 80.352 L1503.8 80.352 L1503.8 74.4493 Q1501.62 77.9909 1498.35 79.6923 Q1495.09 81.3589 1490.37 81.3589 Q1484.39 81.3589 1480.85 78.0256 Q1477.35 74.6576 1477.35 69.0326 Q1477.35 62.4702 1481.72 59.1368 Q1486.13 55.8035 1494.85 55.8035 L1503.8 55.8035 L1503.8 55.1785 Q1503.8 50.7688 1500.89 48.373 Q1498.01 45.9425 1492.76 45.9425 Q1489.43 45.9425 1486.27 46.7411 Q1483.11 47.5397 1480.19 49.1369 L1480.19 43.2341 Q1483.7 41.88 1487 41.2203 Q1490.3 40.5258 1493.42 40.5258 Q1501.86 40.5258 1506.03 44.9008 Q1510.19 49.2758 1510.19 58.1646 Z" fill="#000000" fill-rule="nonzero" fill-opacity="1" /><path clip-path="url(#clip190)" d="M1548.94 60.4563 Q1548.94 53.5119 1546.06 49.6924 Q1543.21 45.873 1538.04 45.873 Q1532.9 45.873 1530.02 49.6924 Q1527.17 53.5119 1527.17 60.4563 Q1527.17 67.366 1530.02 71.1854 Q1532.9 75.0048 1538.04 75.0048 Q1543.21 75.0048 1546.06 71.1854 Q1548.94 67.366 1548.94 60.4563 M1555.33 75.5256 Q1555.33 85.4561 1550.92 90.2825 Q1546.51 95.1436 1537.42 95.1436 Q1534.05 95.1436 1531.06 94.6228 Q1528.07 94.1366 1525.26 93.095 L1525.26 86.8797 Q1528.07 88.4075 1530.82 89.1367 Q1533.56 89.8658 1536.41 89.8658 Q1542.69 89.8658 1545.82 86.5672 Q1548.94 83.3034 1548.94 76.6715 L1548.94 73.5118 Q1546.96 76.9492 1543.87 78.6506 Q1540.78 80.352 1536.48 80.352 Q1529.32 80.352 1524.95 74.9006 Q1520.57 69.4493 1520.57 60.4563 Q1520.57 51.4285 1524.95 45.9772 Q1529.32 40.5258 1536.48 40.5258 Q1540.78 40.5258 1543.87 42.2272 Q1546.96 43.9286 1548.94 47.3661 L1548.94 41.4633 L1555.33 41.4633 L1555.33 75.5256 Z" fill="#000000" fill-rule="nonzero" fill-opacity="1" /><path clip-path="url(#clip190)" d="M1600.82 56.8799 L1600.82 80.352 L1594.43 80.352 L1594.43 57.0882 Q1594.43 51.5674 1592.28 48.8244 Q1590.12 46.0814 1585.82 46.0814 Q1580.64 46.0814 1577.66 49.3799 Q1574.67 52.6785 1574.67 58.373 L1574.67 80.352 L1568.25 80.352 L1568.25 41.4633 L1574.67 41.4633 L1574.67 47.505 Q1576.96 43.998 1580.05 42.2619 Q1583.18 40.5258 1587.24 40.5258 Q1593.94 40.5258 1597.38 44.6925 Q1600.82 48.8244 1600.82 56.8799 Z" fill="#000000" fill-rule="nonzero" fill-opacity="1" /><path clip-path="url(#clip190)" d="M1646.82 59.3104 L1646.82 62.4354 L1617.45 62.4354 Q1617.87 69.0326 1621.41 72.5048 Q1624.98 75.9423 1631.34 75.9423 Q1635.02 75.9423 1638.46 75.0395 Q1641.93 74.1368 1645.33 72.3312 L1645.33 78.3728 Q1641.89 79.8312 1638.28 80.5951 Q1634.67 81.3589 1630.96 81.3589 Q1621.65 81.3589 1616.2 75.9423 Q1610.78 70.5257 1610.78 61.2896 Q1610.78 51.741 1615.92 46.1508 Q1621.1 40.5258 1629.85 40.5258 Q1637.69 40.5258 1642.24 45.5952 Q1646.82 50.6299 1646.82 59.3104 M1640.44 57.4355 Q1640.37 52.1924 1637.48 49.0674 Q1634.64 45.9425 1629.91 45.9425 Q1624.57 45.9425 1621.34 48.9633 Q1618.14 51.9841 1617.66 57.4702 L1640.44 57.4355 Z" fill="#000000" fill-rule="nonzero" fill-opacity="1" /><path clip-path="url(#clip190)" d="M1663.63 30.4217 L1663.63 41.4633 L1676.79 41.4633 L1676.79 46.4286 L1663.63 46.4286 L1663.63 67.5396 Q1663.63 72.2965 1664.91 73.6506 Q1666.23 75.0048 1670.23 75.0048 L1676.79 75.0048 L1676.79 80.352 L1670.23 80.352 Q1662.83 80.352 1660.02 77.609 Q1657.21 74.8312 1657.21 67.5396 L1657.21 46.4286 L1652.52 46.4286 L1652.52 41.4633 L1657.21 41.4633 L1657.21 30.4217 L1663.63 30.4217 Z" fill="#000000" fill-rule="nonzero" fill-opacity="1" /><path clip-path="url(#clip190)" d="M1685.19 41.4633 L1691.58 41.4633 L1691.58 80.352 L1685.19 80.352 L1685.19 41.4633 M1685.19 26.3245 L1691.58 26.3245 L1691.58 34.4147 L1685.19 34.4147 L1685.19 26.3245 Z" fill="#000000" fill-rule="nonzero" fill-opacity="1" /><path clip-path="url(#clip190)" d="M1729.74 42.6091 L1729.74 48.6508 Q1727.03 47.2619 1724.12 46.5675 Q1721.2 45.873 1718.07 45.873 Q1713.32 45.873 1710.92 47.3313 Q1708.56 48.7897 1708.56 51.7063 Q1708.56 53.9285 1710.26 55.2132 Q1711.96 56.4632 1717.1 57.6091 L1719.29 58.0952 Q1726.09 59.5535 1728.94 62.2271 Q1731.82 64.866 1731.82 69.6229 Q1731.82 75.0395 1727.52 78.1992 Q1723.25 81.3589 1715.75 81.3589 Q1712.62 81.3589 1709.22 80.7339 Q1705.85 80.1437 1702.1 78.9284 L1702.1 72.3312 Q1705.64 74.1715 1709.08 75.109 Q1712.52 76.0117 1715.89 76.0117 Q1720.4 76.0117 1722.83 74.484 Q1725.26 72.9215 1725.26 70.109 Q1725.26 67.5048 1723.49 66.116 Q1721.75 64.7271 1715.82 63.4424 L1713.59 62.9215 Q1707.66 61.6715 1705.02 59.1021 Q1702.38 56.498 1702.38 51.9841 Q1702.38 46.498 1706.27 43.5119 Q1710.16 40.5258 1717.31 40.5258 Q1720.85 40.5258 1723.98 41.0467 Q1727.1 41.5675 1729.74 42.6091 Z" fill="#000000" fill-rule="nonzero" fill-opacity="1" /><path clip-path="url(#clip190)" d="M1759.67 60.8035 Q1751.93 60.8035 1748.94 62.5743 Q1745.96 64.3451 1745.96 68.616 Q1745.96 72.0187 1748.18 74.0326 Q1750.43 76.0117 1754.29 76.0117 Q1759.6 76.0117 1762.8 72.2618 Q1766.02 68.4771 1766.02 62.2271 L1766.02 60.8035 L1759.67 60.8035 M1772.41 58.1646 L1772.41 80.352 L1766.02 80.352 L1766.02 74.4493 Q1763.84 77.9909 1760.57 79.6923 Q1757.31 81.3589 1752.59 81.3589 Q1746.62 81.3589 1743.07 78.0256 Q1739.57 74.6576 1739.57 69.0326 Q1739.57 62.4702 1743.94 59.1368 Q1748.35 55.8035 1757.07 55.8035 L1766.02 55.8035 L1766.02 55.1785 Q1766.02 50.7688 1763.11 48.373 Q1760.23 45.9425 1754.98 45.9425 Q1751.65 45.9425 1748.49 46.7411 Q1745.33 47.5397 1742.41 49.1369 L1742.41 43.2341 Q1745.92 41.88 1749.22 41.2203 Q1752.52 40.5258 1755.64 40.5258 Q1764.08 40.5258 1768.25 44.9008 Q1772.41 49.2758 1772.41 58.1646 Z" fill="#000000" fill-rule="nonzero" fill-opacity="1" /><path clip-path="url(#clip190)" d="M1791.89 30.4217 L1791.89 41.4633 L1805.05 41.4633 L1805.05 46.4286 L1791.89 46.4286 L1791.89 67.5396 Q1791.89 72.2965 1793.18 73.6506 Q1794.5 75.0048 1798.49 75.0048 L1805.05 75.0048 L1805.05 80.352 L1798.49 80.352 Q1791.09 80.352 1788.28 77.609 Q1785.47 74.8312 1785.47 67.5396 L1785.47 46.4286 L1780.78 46.4286 L1780.78 41.4633 L1785.47 41.4633 L1785.47 30.4217 L1791.89 30.4217 Z" fill="#000000" fill-rule="nonzero" fill-opacity="1" /><path clip-path="url(#clip190)" d="M1813.46 41.4633 L1819.84 41.4633 L1819.84 80.352 L1813.46 80.352 L1813.46 41.4633 M1813.46 26.3245 L1819.84 26.3245 L1819.84 34.4147 L1813.46 34.4147 L1813.46 26.3245 Z" fill="#000000" fill-rule="nonzero" fill-opacity="1" /><path clip-path="url(#clip190)" d="M1848.28 45.9425 Q1843.14 45.9425 1840.16 49.9702 Q1837.17 53.9633 1837.17 60.9424 Q1837.17 67.9215 1840.12 71.9493 Q1843.11 75.9423 1848.28 75.9423 Q1853.39 75.9423 1856.37 71.9145 Q1859.36 67.8868 1859.36 60.9424 Q1859.36 54.0327 1856.37 50.0049 Q1853.39 45.9425 1848.28 45.9425 M1848.28 40.5258 Q1856.61 40.5258 1861.37 45.9425 Q1866.13 51.3591 1866.13 60.9424 Q1866.13 70.4909 1861.37 75.9423 Q1856.61 81.3589 1848.28 81.3589 Q1839.91 81.3589 1835.16 75.9423 Q1830.43 70.4909 1830.43 60.9424 Q1830.43 51.3591 1835.16 45.9425 Q1839.91 40.5258 1848.28 40.5258 Z" fill="#000000" fill-rule="nonzero" fill-opacity="1" /><path clip-path="url(#clip190)" d="M1909.05 56.8799 L1909.05 80.352 L1902.66 80.352 L1902.66 57.0882 Q1902.66 51.5674 1900.5 48.8244 Q1898.35 46.0814 1894.05 46.0814 Q1888.87 46.0814 1885.89 49.3799 Q1882.9 52.6785 1882.9 58.373 L1882.9 80.352 L1876.48 80.352 L1876.48 41.4633 L1882.9 41.4633 L1882.9 47.505 Q1885.19 43.998 1888.28 42.2619 Q1891.41 40.5258 1895.47 40.5258 Q1902.17 40.5258 1905.61 44.6925 Q1909.05 48.8244 1909.05 56.8799 Z" fill="#000000" fill-rule="nonzero" fill-opacity="1" /><path clip-path="url(#clip190)" d="M1964.08 26.3245 L1964.08 31.637 L1957.97 31.637 Q1954.53 31.637 1953.18 33.0259 Q1951.86 34.4147 1951.86 38.0258 L1951.86 41.4633 L1962.38 41.4633 L1962.38 46.4286 L1951.86 46.4286 L1951.86 80.352 L1945.43 80.352 L1945.43 46.4286 L1939.32 46.4286 L1939.32 41.4633 L1945.43 41.4633 L1945.43 38.755 Q1945.43 32.262 1948.45 29.3106 Q1951.48 26.3245 1958.04 26.3245 L1964.08 26.3245 Z" fill="#000000" fill-rule="nonzero" fill-opacity="1" /><path clip-path="url(#clip190)" d="M1984.5 45.9425 Q1979.36 45.9425 1976.37 49.9702 Q1973.38 53.9633 1973.38 60.9424 Q1973.38 67.9215 1976.34 71.9493 Q1979.32 75.9423 1984.5 75.9423 Q1989.6 75.9423 1992.59 71.9145 Q1995.57 67.8868 1995.57 60.9424 Q1995.57 54.0327 1992.59 50.0049 Q1989.6 45.9425 1984.5 45.9425 M1984.5 40.5258 Q1992.83 40.5258 1997.59 45.9425 Q2002.34 51.3591 2002.34 60.9424 Q2002.34 70.4909 1997.59 75.9423 Q1992.83 81.3589 1984.5 81.3589 Q1976.13 81.3589 1971.37 75.9423 Q1966.65 70.4909 1966.65 60.9424 Q1966.65 51.3591 1971.37 45.9425 Q1976.13 40.5258 1984.5 40.5258 Z" fill="#000000" fill-rule="nonzero" fill-opacity="1" /><path clip-path="url(#clip190)" d="M2035.47 47.4355 Q2034.39 46.8105 2033.11 46.5327 Q2031.86 46.2202 2030.33 46.2202 Q2024.91 46.2202 2022 49.7619 Q2019.11 53.2688 2019.11 59.866 L2019.11 80.352 L2012.69 80.352 L2012.69 41.4633 L2019.11 41.4633 L2019.11 47.505 Q2021.13 43.9633 2024.36 42.2619 Q2027.59 40.5258 2032.2 40.5258 Q2032.86 40.5258 2033.66 40.63 Q2034.46 40.6994 2035.43 40.873 L2035.47 47.4355 Z" fill="#000000" fill-rule="nonzero" fill-opacity="1" /><path clip-path="url(#clip190)" d="M2064.77 26.3245 L2071.16 26.3245 L2071.16 80.352 L2064.77 80.352 L2064.77 26.3245 Z" fill="#000000" fill-rule="nonzero" fill-opacity="1" /><path clip-path="url(#clip190)" d="M2102.2 60.8035 Q2094.46 60.8035 2091.47 62.5743 Q2088.49 64.3451 2088.49 68.616 Q2088.49 72.0187 2090.71 74.0326 Q2092.97 76.0117 2096.82 76.0117 Q2102.13 76.0117 2105.33 72.2618 Q2108.56 68.4771 2108.56 62.2271 L2108.56 60.8035 L2102.2 60.8035 M2114.95 58.1646 L2114.95 80.352 L2108.56 80.352 L2108.56 74.4493 Q2106.37 77.9909 2103.11 79.6923 Q2099.84 81.3589 2095.12 81.3589 Q2089.15 81.3589 2085.61 78.0256 Q2082.1 74.6576 2082.1 69.0326 Q2082.1 62.4702 2086.47 59.1368 Q2090.88 55.8035 2099.6 55.8035 L2108.56 55.8035 L2108.56 55.1785 Q2108.56 50.7688 2105.64 48.373 Q2102.76 45.9425 2097.52 45.9425 Q2094.18 45.9425 2091.02 46.7411 Q2087.86 47.5397 2084.95 49.1369 L2084.95 43.2341 Q2088.45 41.88 2091.75 41.2203 Q2095.05 40.5258 2098.18 40.5258 Q2106.61 40.5258 2110.78 44.9008 Q2114.95 49.2758 2114.95 58.1646 Z" fill="#000000" fill-rule="nonzero" fill-opacity="1" /><path clip-path="url(#clip190)" d="M2152.9 42.6091 L2152.9 48.6508 Q2150.19 47.2619 2147.27 46.5675 Q2144.36 45.873 2141.23 45.873 Q2136.47 45.873 2134.08 47.3313 Q2131.72 48.7897 2131.72 51.7063 Q2131.72 53.9285 2133.42 55.2132 Q2135.12 56.4632 2140.26 57.6091 L2142.45 58.0952 Q2149.25 59.5535 2152.1 62.2271 Q2154.98 64.866 2154.98 69.6229 Q2154.98 75.0395 2150.68 78.1992 Q2146.4 81.3589 2138.9 81.3589 Q2135.78 81.3589 2132.38 80.7339 Q2129.01 80.1437 2125.26 78.9284 L2125.26 72.3312 Q2128.8 74.1715 2132.24 75.109 Q2135.68 76.0117 2139.04 76.0117 Q2143.56 76.0117 2145.99 74.484 Q2148.42 72.9215 2148.42 70.109 Q2148.42 67.5048 2146.65 66.116 Q2144.91 64.7271 2138.97 63.4424 L2136.75 62.9215 Q2130.81 61.6715 2128.18 59.1021 Q2125.54 56.498 2125.54 51.9841 Q2125.54 46.498 2129.43 43.5119 Q2133.31 40.5258 2140.47 40.5258 Q2144.01 40.5258 2147.13 41.0467 Q2150.26 41.5675 2152.9 42.6091 Z" fill="#000000" fill-rule="nonzero" fill-opacity="1" /><path clip-path="url(#clip190)" d="M2171.47 30.4217 L2171.47 41.4633 L2184.63 41.4633 L2184.63 46.4286 L2171.47 46.4286 L2171.47 67.5396 Q2171.47 72.2965 2172.76 73.6506 Q2174.08 75.0048 2178.07 75.0048 L2184.63 75.0048 L2184.63 80.352 L2178.07 80.352 Q2170.68 80.352 2167.86 77.609 Q2165.05 74.8312 2165.05 67.5396 L2165.05 46.4286 L2160.36 46.4286 L2160.36 41.4633 L2165.05 41.4633 L2165.05 30.4217 L2171.47 30.4217 Z" fill="#000000" fill-rule="nonzero" fill-opacity="1" /><path clip-path="url(#clip190)" d="M412.629 152.209 L424.088 152.209 L424.088 112.661 L411.622 115.161 L411.622 108.772 L424.018 106.272 L431.032 106.272 L431.032 152.209 L442.49 152.209 L442.49 158.112 L412.629 158.112 L412.629 152.209 Z" fill="#000000" fill-rule="nonzero" fill-opacity="1" /><path clip-path="url(#clip190)" d="M471.657 110.89 Q466.24 110.89 463.497 116.237 Q460.789 121.55 460.789 132.244 Q460.789 142.904 463.497 148.251 Q466.24 153.563 471.657 153.563 Q477.108 153.563 479.817 148.251 Q482.56 142.904 482.56 132.244 Q482.56 121.55 479.817 116.237 Q477.108 110.89 471.657 110.89 M471.657 105.335 Q480.372 105.335 484.955 112.244 Q489.573 119.119 489.573 132.244 Q489.573 145.334 484.955 152.244 Q480.372 159.119 471.657 159.119 Q462.942 159.119 458.324 152.244 Q453.74 145.334 453.74 132.244 Q453.74 119.119 458.324 112.244 Q462.942 105.335 471.657 105.335 Z" fill="#000000" fill-rule="nonzero" fill-opacity="1" /><path clip-path="url(#clip190)" d="M548.393 120.369 L548.393 126.411 Q545.684 125.022 542.768 124.327 Q539.851 123.633 536.726 123.633 Q531.969 123.633 529.573 125.091 Q527.212 126.55 527.212 129.466 Q527.212 131.689 528.914 132.973 Q530.615 134.223 535.754 135.369 L537.941 135.855 Q544.747 137.314 547.594 139.987 Q550.476 142.626 550.476 147.383 Q550.476 152.8 546.17 155.959 Q541.9 159.119 534.4 159.119 Q531.275 159.119 527.872 158.494 Q524.504 157.904 520.754 156.688 L520.754 150.091 Q524.295 151.931 527.733 152.869 Q531.17 153.772 534.538 153.772 Q539.052 153.772 541.483 152.244 Q543.913 150.681 543.913 147.869 Q543.913 145.265 542.143 143.876 Q540.407 142.487 534.469 141.202 L532.247 140.682 Q526.309 139.432 523.67 136.862 Q521.032 134.258 521.032 129.744 Q521.032 124.258 524.92 121.272 Q528.809 118.286 535.962 118.286 Q539.504 118.286 542.629 118.807 Q545.754 119.327 548.393 120.369 Z" fill="#000000" fill-rule="nonzero" fill-opacity="1" /><path clip-path="url(#clip190)" d="M566.969 108.182 L566.969 119.223 L580.129 119.223 L580.129 124.189 L566.969 124.189 L566.969 145.3 Q566.969 150.056 568.254 151.411 Q569.573 152.765 573.566 152.765 L580.129 152.765 L580.129 158.112 L573.566 158.112 Q566.17 158.112 563.358 155.369 Q560.545 152.591 560.545 145.3 L560.545 124.189 L555.858 124.189 L555.858 119.223 L560.545 119.223 L560.545 108.182 L566.969 108.182 Z" fill="#000000" fill-rule="nonzero" fill-opacity="1" /><path clip-path="url(#clip190)" d="M621.795 137.07 L621.795 140.195 L592.42 140.195 Q592.837 146.793 596.378 150.265 Q599.955 153.702 606.309 153.702 Q609.989 153.702 613.427 152.8 Q616.899 151.897 620.302 150.091 L620.302 156.133 Q616.864 157.591 613.253 158.355 Q609.642 159.119 605.927 159.119 Q596.621 159.119 591.17 153.702 Q585.753 148.286 585.753 139.05 Q585.753 129.501 590.892 123.911 Q596.066 118.286 604.816 118.286 Q612.663 118.286 617.212 123.355 Q621.795 128.39 621.795 137.07 M615.406 135.195 Q615.337 129.952 612.455 126.827 Q609.608 123.702 604.885 123.702 Q599.538 123.702 596.309 126.723 Q593.115 129.744 592.628 135.23 L615.406 135.195 Z" fill="#000000" fill-rule="nonzero" fill-opacity="1" /><path clip-path="url(#clip190)" d="M638.462 152.279 L638.462 172.904 L632.038 172.904 L632.038 119.223 L638.462 119.223 L638.462 125.126 Q640.475 121.654 643.531 119.987 Q646.621 118.286 650.892 118.286 Q657.975 118.286 662.385 123.911 Q666.829 129.536 666.829 138.702 Q666.829 147.869 662.385 153.494 Q657.975 159.119 650.892 159.119 Q646.621 159.119 643.531 157.452 Q640.475 155.751 638.462 152.279 M660.198 138.702 Q660.198 131.654 657.281 127.661 Q654.399 123.633 649.33 123.633 Q644.26 123.633 641.343 127.661 Q638.462 131.654 638.462 138.702 Q638.462 145.751 641.343 149.779 Q644.26 153.772 649.33 153.772 Q654.399 153.772 657.281 149.779 Q660.198 145.751 660.198 138.702 Z" fill="#000000" fill-rule="nonzero" fill-opacity="1" /><path clip-path="url(#clip190)" d="M702.211 120.369 L702.211 126.411 Q699.503 125.022 696.586 124.327 Q693.67 123.633 690.545 123.633 Q685.788 123.633 683.392 125.091 Q681.031 126.55 681.031 129.466 Q681.031 131.689 682.732 132.973 Q684.434 134.223 689.572 135.369 L691.76 135.855 Q698.565 137.314 701.413 139.987 Q704.295 142.626 704.295 147.383 Q704.295 152.8 699.989 155.959 Q695.718 159.119 688.218 159.119 Q685.093 159.119 681.69 158.494 Q678.322 157.904 674.572 156.688 L674.572 150.091 Q678.114 151.931 681.552 152.869 Q684.989 153.772 688.357 153.772 Q692.871 153.772 695.302 152.244 Q697.732 150.681 697.732 147.869 Q697.732 145.265 695.961 143.876 Q694.225 142.487 688.288 141.202 L686.065 140.682 Q680.128 139.432 677.489 136.862 Q674.85 134.258 674.85 129.744 Q674.85 124.258 678.739 121.272 Q682.628 118.286 689.781 118.286 Q693.322 118.286 696.447 118.807 Q699.572 119.327 702.211 120.369 Z" fill="#000000" fill-rule="nonzero" fill-opacity="1" /><path clip-path="url(#clip190)" d="M737.072 119.223 L743.461 119.223 L743.461 158.112 L737.072 158.112 L737.072 119.223 M737.072 104.085 L743.461 104.085 L743.461 112.175 L737.072 112.175 L737.072 104.085 Z" fill="#000000" fill-rule="nonzero" fill-opacity="1" /><path clip-path="url(#clip190)" d="M789.155 134.64 L789.155 158.112 L782.766 158.112 L782.766 134.848 Q782.766 129.327 780.614 126.584 Q778.461 123.841 774.155 123.841 Q768.982 123.841 765.996 127.14 Q763.009 130.439 763.009 136.133 L763.009 158.112 L756.586 158.112 L756.586 119.223 L763.009 119.223 L763.009 125.265 Q765.301 121.758 768.391 120.022 Q771.516 118.286 775.579 118.286 Q782.28 118.286 785.718 122.452 Q789.155 126.584 789.155 134.64 Z" fill="#000000" fill-rule="nonzero" fill-opacity="1" /><path clip-path="url(#clip190)" d="M824.78 106.272 L835.231 106.272 L848.46 141.55 L861.759 106.272 L872.21 106.272 L872.21 158.112 L865.37 158.112 L865.37 112.591 L852.002 148.147 L844.953 148.147 L831.586 112.591 L831.586 158.112 L824.78 158.112 L824.78 106.272 Z" fill="#000000" fill-rule="nonzero" fill-opacity="1" /><path clip-path="url(#clip190)" d="M900.925 123.702 Q895.787 123.702 892.8 127.73 Q889.814 131.723 889.814 138.702 Q889.814 145.682 892.766 149.709 Q895.752 153.702 900.925 153.702 Q906.03 153.702 909.016 149.675 Q912.002 145.647 912.002 138.702 Q912.002 131.793 909.016 127.765 Q906.03 123.702 900.925 123.702 M900.925 118.286 Q909.259 118.286 914.016 123.702 Q918.773 129.119 918.773 138.702 Q918.773 148.251 914.016 153.702 Q909.259 159.119 900.925 159.119 Q892.557 159.119 887.8 153.702 Q883.078 148.251 883.078 138.702 Q883.078 129.119 887.8 123.702 Q892.557 118.286 900.925 118.286 Z" fill="#000000" fill-rule="nonzero" fill-opacity="1" /><path clip-path="url(#clip190)" d="M961.689 134.64 L961.689 158.112 L955.3 158.112 L955.3 134.848 Q955.3 129.327 953.147 126.584 Q950.995 123.841 946.689 123.841 Q941.515 123.841 938.529 127.14 Q935.543 130.439 935.543 136.133 L935.543 158.112 L929.12 158.112 L929.12 119.223 L935.543 119.223 L935.543 125.265 Q937.835 121.758 940.925 120.022 Q944.05 118.286 948.113 118.286 Q954.814 118.286 958.252 122.452 Q961.689 126.584 961.689 134.64 Z" fill="#000000" fill-rule="nonzero" fill-opacity="1" /><path clip-path="url(#clip190)" d="M980.751 108.182 L980.751 119.223 L993.911 119.223 L993.911 124.189 L980.751 124.189 L980.751 145.3 Q980.751 150.056 982.036 151.411 Q983.356 152.765 987.349 152.765 L993.911 152.765 L993.911 158.112 L987.349 158.112 Q979.953 158.112 977.14 155.369 Q974.328 152.591 974.328 145.3 L974.328 124.189 L969.64 124.189 L969.64 119.223 L974.328 119.223 L974.328 108.182 L980.751 108.182 Z" fill="#000000" fill-rule="nonzero" fill-opacity="1" /><path clip-path="url(#clip190)" d="M1035.58 137.07 L1035.58 140.195 L1006.2 140.195 Q1006.62 146.793 1010.16 150.265 Q1013.74 153.702 1020.09 153.702 Q1023.77 153.702 1027.21 152.8 Q1030.68 151.897 1034.08 150.091 L1034.08 156.133 Q1030.65 157.591 1027.04 158.355 Q1023.42 159.119 1019.71 159.119 Q1010.4 159.119 1004.95 153.702 Q999.536 148.286 999.536 139.05 Q999.536 129.501 1004.67 123.911 Q1009.85 118.286 1018.6 118.286 Q1026.45 118.286 1030.99 123.355 Q1035.58 128.39 1035.58 137.07 M1029.19 135.195 Q1029.12 129.952 1026.24 126.827 Q1023.39 123.702 1018.67 123.702 Q1013.32 123.702 1010.09 126.723 Q1006.9 129.744 1006.41 135.23 L1029.19 135.195 Z" fill="#000000" fill-rule="nonzero" fill-opacity="1" /><path clip-path="url(#clip190)" d="M1107.76 110.265 L1107.76 117.661 Q1104.22 114.362 1100.2 112.73 Q1096.2 111.098 1091.69 111.098 Q1082.8 111.098 1078.08 116.55 Q1073.36 121.966 1073.36 132.244 Q1073.36 142.487 1078.08 147.938 Q1082.8 153.355 1091.69 153.355 Q1096.2 153.355 1100.2 151.723 Q1104.22 150.091 1107.76 146.793 L1107.76 154.119 Q1104.08 156.619 1099.95 157.869 Q1095.85 159.119 1091.27 159.119 Q1079.5 159.119 1072.73 151.931 Q1065.96 144.709 1065.96 132.244 Q1065.96 119.744 1072.73 112.557 Q1079.5 105.335 1091.27 105.335 Q1095.92 105.335 1100.02 106.584 Q1104.15 107.8 1107.76 110.265 Z" fill="#000000" fill-rule="nonzero" fill-opacity="1" /><path clip-path="url(#clip190)" d="M1135.99 138.563 Q1128.25 138.563 1125.26 140.334 Q1122.28 142.105 1122.28 146.376 Q1122.28 149.779 1124.5 151.793 Q1126.76 153.772 1130.61 153.772 Q1135.92 153.772 1139.12 150.022 Q1142.35 146.237 1142.35 139.987 L1142.35 138.563 L1135.99 138.563 M1148.74 135.925 L1148.74 158.112 L1142.35 158.112 L1142.35 152.209 Q1140.16 155.751 1136.9 157.452 Q1133.63 159.119 1128.91 159.119 Q1122.94 159.119 1119.4 155.786 Q1115.89 152.418 1115.89 146.793 Q1115.89 140.23 1120.26 136.897 Q1124.67 133.564 1133.39 133.564 L1142.35 133.564 L1142.35 132.939 Q1142.35 128.529 1139.43 126.133 Q1136.55 123.702 1131.31 123.702 Q1127.97 123.702 1124.81 124.501 Q1121.65 125.3 1118.74 126.897 L1118.74 120.994 Q1122.24 119.64 1125.54 118.98 Q1128.84 118.286 1131.97 118.286 Q1140.4 118.286 1144.57 122.661 Q1148.74 127.036 1148.74 135.925 Z" fill="#000000" fill-rule="nonzero" fill-opacity="1" /><path clip-path="url(#clip190)" d="M1184.43 125.196 Q1183.35 124.571 1182.07 124.293 Q1180.82 123.98 1179.29 123.98 Q1173.88 123.98 1170.96 127.522 Q1168.08 131.029 1168.08 137.626 L1168.08 158.112 L1161.65 158.112 L1161.65 119.223 L1168.08 119.223 L1168.08 125.265 Q1170.09 121.723 1173.32 120.022 Q1176.55 118.286 1181.17 118.286 Q1181.83 118.286 1182.63 118.39 Q1183.42 118.459 1184.4 118.633 L1184.43 125.196 Z" fill="#000000" fill-rule="nonzero" fill-opacity="1" /><path clip-path="url(#clip190)" d="M1191.13 104.085 L1197.52 104.085 L1197.52 158.112 L1191.13 158.112 L1191.13 104.085 Z" fill="#000000" fill-rule="nonzero" fill-opacity="1" /><path clip-path="url(#clip190)" d="M1225.96 123.702 Q1220.82 123.702 1217.83 127.73 Q1214.85 131.723 1214.85 138.702 Q1214.85 145.682 1217.8 149.709 Q1220.78 153.702 1225.96 153.702 Q1231.06 153.702 1234.05 149.675 Q1237.03 145.647 1237.03 138.702 Q1237.03 131.793 1234.05 127.765 Q1231.06 123.702 1225.96 123.702 M1225.96 118.286 Q1234.29 118.286 1239.05 123.702 Q1243.81 129.119 1243.81 138.702 Q1243.81 148.251 1239.05 153.702 Q1234.29 159.119 1225.96 159.119 Q1217.59 159.119 1212.83 153.702 Q1208.11 148.251 1208.11 138.702 Q1208.11 129.119 1212.83 123.702 Q1217.59 118.286 1225.96 118.286 Z" fill="#000000" fill-rule="nonzero" fill-opacity="1" /><path clip-path="url(#clip190)" d="M1304.99 120.716 L1304.99 126.689 Q1302.28 125.196 1299.53 124.466 Q1296.83 123.702 1294.05 123.702 Q1287.83 123.702 1284.4 127.661 Q1280.96 131.584 1280.96 138.702 Q1280.96 145.82 1284.4 149.779 Q1287.83 153.702 1294.05 153.702 Q1296.83 153.702 1299.53 152.973 Q1302.28 152.209 1304.99 150.716 L1304.99 156.619 Q1302.31 157.869 1299.43 158.494 Q1296.58 159.119 1293.35 159.119 Q1284.57 159.119 1279.4 153.598 Q1274.22 148.077 1274.22 138.702 Q1274.22 129.189 1279.43 123.737 Q1284.67 118.286 1293.77 118.286 Q1296.72 118.286 1299.53 118.911 Q1302.35 119.501 1304.99 120.716 Z" fill="#000000" fill-rule="nonzero" fill-opacity="1" /><path clip-path="url(#clip190)" d="M1348.42 134.64 L1348.42 158.112 L1342.03 158.112 L1342.03 134.848 Q1342.03 129.327 1339.88 126.584 Q1337.73 123.841 1333.42 123.841 Q1328.25 123.841 1325.26 127.14 Q1322.28 130.439 1322.28 136.133 L1322.28 158.112 L1315.85 158.112 L1315.85 104.085 L1322.28 104.085 L1322.28 125.265 Q1324.57 121.758 1327.66 120.022 Q1330.78 118.286 1334.85 118.286 Q1341.55 118.286 1344.99 122.452 Q1348.42 126.584 1348.42 134.64 Z" fill="#000000" fill-rule="nonzero" fill-opacity="1" /><path clip-path="url(#clip190)" d="M1378.84 138.563 Q1371.1 138.563 1368.11 140.334 Q1365.12 142.105 1365.12 146.376 Q1365.12 149.779 1367.35 151.793 Q1369.6 153.772 1373.46 153.772 Q1378.77 153.772 1381.96 150.022 Q1385.19 146.237 1385.19 139.987 L1385.19 138.563 L1378.84 138.563 M1391.58 135.925 L1391.58 158.112 L1385.19 158.112 L1385.19 152.209 Q1383.01 155.751 1379.74 157.452 Q1376.48 159.119 1371.76 159.119 Q1365.78 159.119 1362.24 155.786 Q1358.74 152.418 1358.74 146.793 Q1358.74 140.23 1363.11 136.897 Q1367.52 133.564 1376.24 133.564 L1385.19 133.564 L1385.19 132.939 Q1385.19 128.529 1382.28 126.133 Q1379.4 123.702 1374.15 123.702 Q1370.82 123.702 1367.66 124.501 Q1364.5 125.3 1361.58 126.897 L1361.58 120.994 Q1365.09 119.64 1368.39 118.98 Q1371.69 118.286 1374.81 118.286 Q1383.25 118.286 1387.42 122.661 Q1391.58 127.036 1391.58 135.925 Z" fill="#000000" fill-rule="nonzero" fill-opacity="1" /><path clip-path="url(#clip190)" d="M1404.74 119.223 L1411.13 119.223 L1411.13 158.112 L1404.74 158.112 L1404.74 119.223 M1404.74 104.085 L1411.13 104.085 L1411.13 112.175 L1404.74 112.175 L1404.74 104.085 Z" fill="#000000" fill-rule="nonzero" fill-opacity="1" /><path clip-path="url(#clip190)" d="M1456.83 134.64 L1456.83 158.112 L1450.44 158.112 L1450.44 134.848 Q1450.44 129.327 1448.28 126.584 Q1446.13 123.841 1441.83 123.841 Q1436.65 123.841 1433.67 127.14 Q1430.68 130.439 1430.68 136.133 L1430.68 158.112 L1424.26 158.112 L1424.26 119.223 L1430.68 119.223 L1430.68 125.265 Q1432.97 121.758 1436.06 120.022 Q1439.19 118.286 1443.25 118.286 Q1449.95 118.286 1453.39 122.452 Q1456.83 126.584 1456.83 134.64 Z" fill="#000000" fill-rule="nonzero" fill-opacity="1" /><path clip-path="url(#clip190)" d="M1488.46 119.223 L1494.85 119.223 L1502.83 149.57 L1510.78 119.223 L1518.32 119.223 L1526.3 149.57 L1534.26 119.223 L1540.64 119.223 L1530.47 158.112 L1522.94 158.112 L1514.57 126.237 L1506.17 158.112 L1498.63 158.112 L1488.46 119.223 Z" fill="#000000" fill-rule="nonzero" fill-opacity="1" /><path clip-path="url(#clip190)" d="M1550.33 119.223 L1556.72 119.223 L1556.72 158.112 L1550.33 158.112 L1550.33 119.223 M1550.33 104.085 L1556.72 104.085 L1556.72 112.175 L1550.33 112.175 L1550.33 104.085 Z" fill="#000000" fill-rule="nonzero" fill-opacity="1" /><path clip-path="url(#clip190)" d="M1576.41 108.182 L1576.41 119.223 L1589.57 119.223 L1589.57 124.189 L1576.41 124.189 L1576.41 145.3 Q1576.41 150.056 1577.69 151.411 Q1579.01 152.765 1583.01 152.765 L1589.57 152.765 L1589.57 158.112 L1583.01 158.112 Q1575.61 158.112 1572.8 155.369 Q1569.98 152.591 1569.98 145.3 L1569.98 124.189 L1565.3 124.189 L1565.3 119.223 L1569.98 119.223 L1569.98 108.182 L1576.41 108.182 Z" fill="#000000" fill-rule="nonzero" fill-opacity="1" /><path clip-path="url(#clip190)" d="M1630.3 134.64 L1630.3 158.112 L1623.91 158.112 L1623.91 134.848 Q1623.91 129.327 1621.75 126.584 Q1619.6 123.841 1615.3 123.841 Q1610.12 123.841 1607.14 127.14 Q1604.15 130.439 1604.15 136.133 L1604.15 158.112 L1597.73 158.112 L1597.73 104.085 L1604.15 104.085 L1604.15 125.265 Q1606.44 121.758 1609.53 120.022 Q1612.66 118.286 1616.72 118.286 Q1623.42 118.286 1626.86 122.452 Q1630.3 126.584 1630.3 134.64 Z" fill="#000000" fill-rule="nonzero" fill-opacity="1" /><path clip-path="url(#clip190)" d="M1661.06 119.223 L1667.83 119.223 L1679.98 151.862 L1692.14 119.223 L1698.91 119.223 L1684.32 158.112 L1675.64 158.112 L1661.06 119.223 Z" fill="#000000" fill-rule="nonzero" fill-opacity="1" /><path clip-path="url(#clip190)" d="M1725.4 138.563 Q1717.66 138.563 1714.67 140.334 Q1711.68 142.105 1711.68 146.376 Q1711.68 149.779 1713.91 151.793 Q1716.16 153.772 1720.02 153.772 Q1725.33 153.772 1728.53 150.022 Q1731.75 146.237 1731.75 139.987 L1731.75 138.563 L1725.4 138.563 M1738.14 135.925 L1738.14 158.112 L1731.75 158.112 L1731.75 152.209 Q1729.57 155.751 1726.3 157.452 Q1723.04 159.119 1718.32 159.119 Q1712.34 159.119 1708.8 155.786 Q1705.3 152.418 1705.3 146.793 Q1705.3 140.23 1709.67 136.897 Q1714.08 133.564 1722.8 133.564 L1731.75 133.564 L1731.75 132.939 Q1731.75 128.529 1728.84 126.133 Q1725.96 123.702 1720.71 123.702 Q1717.38 123.702 1714.22 124.501 Q1711.06 125.3 1708.14 126.897 L1708.14 120.994 Q1711.65 119.64 1714.95 118.98 Q1718.25 118.286 1721.37 118.286 Q1729.81 118.286 1733.98 122.661 Q1738.14 127.036 1738.14 135.925 Z" fill="#000000" fill-rule="nonzero" fill-opacity="1" /><path clip-path="url(#clip190)" d="M1773.84 125.196 Q1772.76 124.571 1771.48 124.293 Q1770.23 123.98 1768.7 123.98 Q1763.28 123.98 1760.37 127.522 Q1757.48 131.029 1757.48 137.626 L1757.48 158.112 L1751.06 158.112 L1751.06 119.223 L1757.48 119.223 L1757.48 125.265 Q1759.5 121.723 1762.73 120.022 Q1765.96 118.286 1770.57 118.286 Q1771.23 118.286 1772.03 118.39 Q1772.83 118.459 1773.8 118.633 L1773.84 125.196 Z" fill="#000000" fill-rule="nonzero" fill-opacity="1" /><path clip-path="url(#clip190)" d="M1796.72 161.723 Q1794.01 168.667 1791.44 170.786 Q1788.87 172.904 1784.57 172.904 L1779.46 172.904 L1779.46 167.556 L1783.21 167.556 Q1785.85 167.556 1787.31 166.306 Q1788.77 165.056 1790.54 160.404 L1791.68 157.487 L1775.96 119.223 L1782.73 119.223 L1794.88 149.64 L1807.03 119.223 L1813.8 119.223 L1796.72 161.723 Z" fill="#000000" fill-rule="nonzero" fill-opacity="1" /><path clip-path="url(#clip190)" d="M1822.62 119.223 L1829.01 119.223 L1829.01 158.112 L1822.62 158.112 L1822.62 119.223 M1822.62 104.085 L1829.01 104.085 L1829.01 112.175 L1822.62 112.175 L1822.62 104.085 Z" fill="#000000" fill-rule="nonzero" fill-opacity="1" /><path clip-path="url(#clip190)" d="M1874.7 134.64 L1874.7 158.112 L1868.32 158.112 L1868.32 134.848 Q1868.32 129.327 1866.16 126.584 Q1864.01 123.841 1859.71 123.841 Q1854.53 123.841 1851.55 127.14 Q1848.56 130.439 1848.56 136.133 L1848.56 158.112 L1842.14 158.112 L1842.14 119.223 L1848.56 119.223 L1848.56 125.265 Q1850.85 121.758 1853.94 120.022 Q1857.07 118.286 1861.13 118.286 Q1867.83 118.286 1871.27 122.452 Q1874.7 126.584 1874.7 134.64 Z" fill="#000000" fill-rule="nonzero" fill-opacity="1" /><path clip-path="url(#clip190)" d="M1913.04 138.216 Q1913.04 131.272 1910.16 127.452 Q1907.31 123.633 1902.14 123.633 Q1897 123.633 1894.11 127.452 Q1891.27 131.272 1891.27 138.216 Q1891.27 145.126 1894.11 148.945 Q1897 152.765 1902.14 152.765 Q1907.31 152.765 1910.16 148.945 Q1913.04 145.126 1913.04 138.216 M1919.43 153.286 Q1919.43 163.216 1915.02 168.043 Q1910.61 172.904 1901.51 172.904 Q1898.14 172.904 1895.16 172.383 Q1892.17 171.897 1889.36 170.855 L1889.36 164.64 Q1892.17 166.168 1894.91 166.897 Q1897.66 167.626 1900.5 167.626 Q1906.79 167.626 1909.91 164.327 Q1913.04 161.063 1913.04 154.431 L1913.04 151.272 Q1911.06 154.709 1907.97 156.411 Q1904.88 158.112 1900.57 158.112 Q1893.42 158.112 1889.05 152.661 Q1884.67 147.209 1884.67 138.216 Q1884.67 129.189 1889.05 123.737 Q1893.42 118.286 1900.57 118.286 Q1904.88 118.286 1907.97 119.987 Q1911.06 121.689 1913.04 125.126 L1913.04 119.223 L1919.43 119.223 L1919.43 153.286 Z" fill="#000000" fill-rule="nonzero" fill-opacity="1" /><path clip-path="url(#clip190)" d="M1955.47 106.272 L1964.91 106.272 L1987.9 149.64 L1987.9 106.272 L1994.7 106.272 L1994.7 158.112 L1985.26 158.112 L1962.27 114.744 L1962.27 158.112 L1955.47 158.112 L1955.47 106.272 Z" fill="#000000" fill-rule="nonzero" fill-opacity="1" /><path clip-path="url(#clip190)" d="M2010.02 149.293 L2017.34 149.293 L2017.34 155.265 L2011.65 166.376 L2007.17 166.376 L2010.02 155.265 L2010.02 149.293 Z" fill="#000000" fill-rule="nonzero" fill-opacity="1" /><path clip-path="url(#clip190)" d="M2046.68 106.272 L2090.54 106.272 L2090.54 112.175 L2072.13 112.175 L2072.13 158.112 L2065.09 158.112 L2065.09 112.175 L2046.68 112.175 L2046.68 106.272 Z" fill="#000000" fill-rule="nonzero" fill-opacity="1" /><path clip-path="url(#clip190)" d="M2097.86 125.821 L2142.38 125.821 L2142.38 131.654 L2097.86 131.654 L2097.86 125.821 M2097.86 139.987 L2142.38 139.987 L2142.38 145.89 L2097.86 145.89 L2097.86 139.987 Z" fill="#000000" fill-rule="nonzero" fill-opacity="1" /><path clip-path="url(#clip190)" d="M2176.79 112.383 L2159.08 140.057 L2176.79 140.057 L2176.79 112.383 M2174.95 106.272 L2183.77 106.272 L2183.77 140.057 L2191.16 140.057 L2191.16 145.89 L2183.77 145.89 L2183.77 158.112 L2176.79 158.112 L2176.79 145.89 L2153.38 145.89 L2153.38 139.119 L2174.95 106.272 Z" fill="#000000" fill-rule="nonzero" fill-opacity="1" /><polyline clip-path="url(#clip192)" style="stroke:#009af9; stroke-linecap:round; stroke-linejoin:round; stroke-width:4; stroke-opacity:1; fill:none" points="309.539,202.234 518.35,1135.3 727.162,1152.92 935.973,1202.16 1249.19,1310.93 1562.41,1343.6 1771.22,1344.07 1980.03,1387.62 2293.24,1382.51 "/>
</svg>
