<?xml version="1.0" encoding="utf-8"?>
<svg xmlns="http://www.w3.org/2000/svg" xmlns:xlink="http://www.w3.org/1999/xlink" width="600" height="400" viewBox="0 0 2400 1600">
<defs>
  <clipPath id="clip410">
    <rect x="0" y="0" width="2400" height="1600"/>
  </clipPath>
</defs>
<path clip-path="url(#clip410)" d="M0 1600 L2400 1600 L2400 0 L0 0  Z" fill="#ffffff" fill-rule="evenodd" fill-opacity="1"/>
<defs>
  <clipPath id="clip411">
    <rect x="480" y="0" width="1681" height="1600"/>
  </clipPath>
</defs>
<path clip-path="url(#clip410)" d="M279.704 1423.18 L2352.76 1423.18 L2352.76 166.672 L279.704 166.672  Z" fill="#ffffff" fill-rule="evenodd" fill-opacity="1"/>
<defs>
  <clipPath id="clip412">
    <rect x="279" y="166" width="2074" height="1258"/>
  </clipPath>
</defs>
<polyline clip-path="url(#clip412)" style="stroke:#000000; stroke-linecap:round; stroke-linejoin:round; stroke-width:2; stroke-opacity:0.1; fill:none" points="750.103,1423.18 750.103,166.672 "/>
<polyline clip-path="url(#clip412)" style="stroke:#000000; stroke-linecap:round; stroke-linejoin:round; stroke-width:2; stroke-opacity:0.1; fill:none" points="1264.76,1423.18 1264.76,166.672 "/>
<polyline clip-path="url(#clip412)" style="stroke:#000000; stroke-linecap:round; stroke-linejoin:round; stroke-width:2; stroke-opacity:0.1; fill:none" points="1779.42,1423.18 1779.42,166.672 "/>
<polyline clip-path="url(#clip412)" style="stroke:#000000; stroke-linecap:round; stroke-linejoin:round; stroke-width:2; stroke-opacity:0.1; fill:none" points="2294.08,1423.18 2294.08,166.672 "/>
<polyline clip-path="url(#clip410)" style="stroke:#000000; stroke-linecap:round; stroke-linejoin:round; stroke-width:4; stroke-opacity:1; fill:none" points="279.704,1423.18 2352.76,1423.18 "/>
<polyline clip-path="url(#clip410)" style="stroke:#000000; stroke-linecap:round; stroke-linejoin:round; stroke-width:4; stroke-opacity:1; fill:none" points="750.103,1423.18 750.103,1404.28 "/>
<polyline clip-path="url(#clip410)" style="stroke:#000000; stroke-linecap:round; stroke-linejoin:round; stroke-width:4; stroke-opacity:1; fill:none" points="1264.76,1423.18 1264.76,1404.28 "/>
<polyline clip-path="url(#clip410)" style="stroke:#000000; stroke-linecap:round; stroke-linejoin:round; stroke-width:4; stroke-opacity:1; fill:none" points="1779.42,1423.18 1779.42,1404.28 "/>
<polyline clip-path="url(#clip410)" style="stroke:#000000; stroke-linecap:round; stroke-linejoin:round; stroke-width:4; stroke-opacity:1; fill:none" points="2294.08,1423.18 2294.08,1404.28 "/>
<path clip-path="url(#clip410)" d="M724.803 1451.02 L743.159 1451.02 L743.159 1454.96 L729.085 1454.96 L729.085 1463.43 Q730.104 1463.08 731.122 1462.92 Q732.141 1462.73 733.159 1462.73 Q738.946 1462.73 742.326 1465.9 Q745.705 1469.08 745.705 1474.49 Q745.705 1480.07 742.233 1483.17 Q738.761 1486.25 732.442 1486.25 Q730.266 1486.25 727.997 1485.88 Q725.752 1485.51 723.344 1484.77 L723.344 1480.07 Q725.428 1481.2 727.65 1481.76 Q729.872 1482.32 732.349 1482.32 Q736.354 1482.32 738.692 1480.21 Q741.029 1478.1 741.029 1474.49 Q741.029 1470.88 738.692 1468.77 Q736.354 1466.67 732.349 1466.67 Q730.474 1466.67 728.599 1467.08 Q726.747 1467.5 724.803 1468.38 L724.803 1451.02 Z" fill="#000000" fill-rule="nonzero" fill-opacity="1" /><path clip-path="url(#clip410)" d="M764.918 1454.1 Q761.307 1454.1 759.478 1457.66 Q757.673 1461.2 757.673 1468.33 Q757.673 1475.44 759.478 1479.01 Q761.307 1482.55 764.918 1482.55 Q768.552 1482.55 770.358 1479.01 Q772.187 1475.44 772.187 1468.33 Q772.187 1461.2 770.358 1457.66 Q768.552 1454.1 764.918 1454.1 M764.918 1450.39 Q770.728 1450.39 773.784 1455 Q776.863 1459.58 776.863 1468.33 Q776.863 1477.06 773.784 1481.67 Q770.728 1486.25 764.918 1486.25 Q759.108 1486.25 756.029 1481.67 Q752.974 1477.06 752.974 1468.33 Q752.974 1459.58 756.029 1455 Q759.108 1450.39 764.918 1450.39 Z" fill="#000000" fill-rule="nonzero" fill-opacity="1" /><path clip-path="url(#clip410)" d="M1224.37 1481.64 L1232.01 1481.64 L1232.01 1455.28 L1223.7 1456.95 L1223.7 1452.69 L1231.96 1451.02 L1236.64 1451.02 L1236.64 1481.64 L1244.28 1481.64 L1244.28 1485.58 L1224.37 1485.58 L1224.37 1481.64 Z" fill="#000000" fill-rule="nonzero" fill-opacity="1" /><path clip-path="url(#clip410)" d="M1263.72 1454.1 Q1260.11 1454.1 1258.28 1457.66 Q1256.48 1461.2 1256.48 1468.33 Q1256.48 1475.44 1258.28 1479.01 Q1260.11 1482.55 1263.72 1482.55 Q1267.36 1482.55 1269.16 1479.01 Q1270.99 1475.44 1270.99 1468.33 Q1270.99 1461.2 1269.16 1457.66 Q1267.36 1454.1 1263.72 1454.1 M1263.72 1450.39 Q1269.53 1450.39 1272.59 1455 Q1275.67 1459.58 1275.67 1468.33 Q1275.67 1477.06 1272.59 1481.67 Q1269.53 1486.25 1263.72 1486.25 Q1257.91 1486.25 1254.83 1481.67 Q1251.78 1477.06 1251.78 1468.33 Q1251.78 1459.58 1254.83 1455 Q1257.91 1450.39 1263.72 1450.39 Z" fill="#000000" fill-rule="nonzero" fill-opacity="1" /><path clip-path="url(#clip410)" d="M1293.88 1454.1 Q1290.27 1454.1 1288.44 1457.66 Q1286.64 1461.2 1286.64 1468.33 Q1286.64 1475.44 1288.44 1479.01 Q1290.27 1482.55 1293.88 1482.55 Q1297.52 1482.55 1299.32 1479.01 Q1301.15 1475.44 1301.15 1468.33 Q1301.15 1461.2 1299.32 1457.66 Q1297.52 1454.1 1293.88 1454.1 M1293.88 1450.39 Q1299.69 1450.39 1302.75 1455 Q1305.83 1459.58 1305.83 1468.33 Q1305.83 1477.06 1302.75 1481.67 Q1299.69 1486.25 1293.88 1486.25 Q1288.07 1486.25 1285 1481.67 Q1281.94 1477.06 1281.94 1468.33 Q1281.94 1459.58 1285 1455 Q1288.07 1450.39 1293.88 1450.39 Z" fill="#000000" fill-rule="nonzero" fill-opacity="1" /><path clip-path="url(#clip410)" d="M1739.03 1481.64 L1746.67 1481.64 L1746.67 1455.28 L1738.36 1456.95 L1738.36 1452.69 L1746.62 1451.02 L1751.3 1451.02 L1751.3 1481.64 L1758.94 1481.64 L1758.94 1485.58 L1739.03 1485.58 L1739.03 1481.64 Z" fill="#000000" fill-rule="nonzero" fill-opacity="1" /><path clip-path="url(#clip410)" d="M1768.43 1451.02 L1786.79 1451.02 L1786.79 1454.96 L1772.71 1454.96 L1772.71 1463.43 Q1773.73 1463.08 1774.75 1462.92 Q1775.77 1462.73 1776.79 1462.73 Q1782.57 1462.73 1785.95 1465.9 Q1789.33 1469.08 1789.33 1474.49 Q1789.33 1480.07 1785.86 1483.17 Q1782.39 1486.25 1776.07 1486.25 Q1773.89 1486.25 1771.62 1485.88 Q1769.38 1485.51 1766.97 1484.77 L1766.97 1480.07 Q1769.05 1481.2 1771.28 1481.76 Q1773.5 1482.32 1775.98 1482.32 Q1779.98 1482.32 1782.32 1480.21 Q1784.66 1478.1 1784.66 1474.49 Q1784.66 1470.88 1782.32 1468.77 Q1779.98 1466.67 1775.98 1466.67 Q1774.1 1466.67 1772.23 1467.08 Q1770.37 1467.5 1768.43 1468.38 L1768.43 1451.02 Z" fill="#000000" fill-rule="nonzero" fill-opacity="1" /><path clip-path="url(#clip410)" d="M1808.54 1454.1 Q1804.93 1454.1 1803.1 1457.66 Q1801.3 1461.2 1801.3 1468.33 Q1801.3 1475.44 1803.1 1479.01 Q1804.93 1482.55 1808.54 1482.55 Q1812.18 1482.55 1813.98 1479.01 Q1815.81 1475.44 1815.81 1468.33 Q1815.81 1461.2 1813.98 1457.66 Q1812.18 1454.1 1808.54 1454.1 M1808.54 1450.39 Q1814.35 1450.39 1817.41 1455 Q1820.49 1459.58 1820.49 1468.33 Q1820.49 1477.06 1817.41 1481.67 Q1814.35 1486.25 1808.54 1486.25 Q1802.73 1486.25 1799.66 1481.67 Q1796.6 1477.06 1796.6 1468.33 Q1796.6 1459.58 1799.66 1455 Q1802.73 1450.39 1808.54 1450.39 Z" fill="#000000" fill-rule="nonzero" fill-opacity="1" /><path clip-path="url(#clip410)" d="M2257.78 1481.64 L2274.1 1481.64 L2274.1 1485.58 L2252.15 1485.58 L2252.15 1481.64 Q2254.81 1478.89 2259.4 1474.26 Q2264 1469.61 2265.18 1468.27 Q2267.43 1465.74 2268.31 1464.01 Q2269.21 1462.25 2269.21 1460.56 Q2269.21 1457.8 2267.27 1456.07 Q2265.35 1454.33 2262.24 1454.33 Q2260.05 1454.33 2257.59 1455.09 Q2255.16 1455.86 2252.38 1457.41 L2252.38 1452.69 Q2255.21 1451.55 2257.66 1450.97 Q2260.11 1450.39 2262.15 1450.39 Q2267.52 1450.39 2270.72 1453.08 Q2273.91 1455.77 2273.91 1460.26 Q2273.91 1462.39 2273.1 1464.31 Q2272.31 1466.2 2270.21 1468.8 Q2269.63 1469.47 2266.53 1472.69 Q2263.43 1475.88 2257.78 1481.64 Z" fill="#000000" fill-rule="nonzero" fill-opacity="1" /><path clip-path="url(#clip410)" d="M2293.91 1454.1 Q2290.3 1454.1 2288.47 1457.66 Q2286.67 1461.2 2286.67 1468.33 Q2286.67 1475.44 2288.47 1479.01 Q2290.3 1482.55 2293.91 1482.55 Q2297.55 1482.55 2299.35 1479.01 Q2301.18 1475.44 2301.18 1468.33 Q2301.18 1461.2 2299.35 1457.66 Q2297.55 1454.1 2293.91 1454.1 M2293.91 1450.39 Q2299.72 1450.39 2302.78 1455 Q2305.86 1459.58 2305.86 1468.33 Q2305.86 1477.06 2302.78 1481.67 Q2299.72 1486.25 2293.91 1486.25 Q2288.1 1486.25 2285.02 1481.67 Q2281.97 1477.06 2281.97 1468.33 Q2281.97 1459.58 2285.02 1455 Q2288.1 1450.39 2293.91 1450.39 Z" fill="#000000" fill-rule="nonzero" fill-opacity="1" /><path clip-path="url(#clip410)" d="M2324.07 1454.1 Q2320.46 1454.1 2318.63 1457.66 Q2316.83 1461.2 2316.83 1468.33 Q2316.83 1475.44 2318.63 1479.01 Q2320.46 1482.55 2324.07 1482.55 Q2327.71 1482.55 2329.51 1479.01 Q2331.34 1475.44 2331.34 1468.33 Q2331.34 1461.2 2329.51 1457.66 Q2327.71 1454.1 2324.07 1454.1 M2324.07 1450.39 Q2329.88 1450.39 2332.94 1455 Q2336.02 1459.58 2336.02 1468.33 Q2336.02 1477.06 2332.94 1481.67 Q2329.88 1486.25 2324.07 1486.25 Q2318.26 1486.25 2315.18 1481.67 Q2312.13 1477.06 2312.13 1468.33 Q2312.13 1459.58 2315.18 1455 Q2318.26 1450.39 2324.07 1450.39 Z" fill="#000000" fill-rule="nonzero" fill-opacity="1" /><path clip-path="url(#clip410)" d="M1093.26 1520.52 L1099.68 1520.52 L1099.68 1562.63 L1122.82 1562.63 L1122.82 1568.04 L1093.26 1568.04 L1093.26 1520.52 Z" fill="#000000" fill-rule="nonzero" fill-opacity="1" /><path clip-path="url(#clip410)" d="M1145.52 1550.12 Q1138.42 1550.12 1135.68 1551.75 Q1132.95 1553.37 1132.95 1557.29 Q1132.95 1560.4 1134.98 1562.25 Q1137.05 1564.07 1140.58 1564.07 Q1145.45 1564.07 1148.38 1560.63 Q1151.34 1557.16 1151.34 1551.43 L1151.34 1550.12 L1145.52 1550.12 M1157.2 1547.71 L1157.2 1568.04 L1151.34 1568.04 L1151.34 1562.63 Q1149.34 1565.88 1146.35 1567.44 Q1143.35 1568.97 1139.02 1568.97 Q1133.55 1568.97 1130.3 1565.91 Q1127.09 1562.82 1127.09 1557.67 Q1127.09 1551.65 1131.1 1548.6 Q1135.14 1545.54 1143.13 1545.54 L1151.34 1545.54 L1151.34 1544.97 Q1151.34 1540.93 1148.67 1538.73 Q1146.03 1536.5 1141.22 1536.5 Q1138.17 1536.5 1135.27 1537.23 Q1132.37 1537.97 1129.7 1539.43 L1129.7 1534.02 Q1132.91 1532.78 1135.94 1532.17 Q1138.96 1531.54 1141.83 1531.54 Q1149.56 1531.54 1153.38 1535.55 Q1157.2 1539.56 1157.2 1547.71 Z" fill="#000000" fill-rule="nonzero" fill-opacity="1" /><path clip-path="url(#clip410)" d="M1175.05 1522.27 L1175.05 1532.4 L1187.12 1532.4 L1187.12 1536.95 L1175.05 1536.95 L1175.05 1556.3 Q1175.05 1560.66 1176.23 1561.9 Q1177.44 1563.14 1181.1 1563.14 L1187.12 1563.14 L1187.12 1568.04 L1181.1 1568.04 Q1174.32 1568.04 1171.74 1565.53 Q1169.17 1562.98 1169.17 1556.3 L1169.17 1536.95 L1164.87 1536.95 L1164.87 1532.4 L1169.17 1532.4 L1169.17 1522.27 L1175.05 1522.27 Z" fill="#000000" fill-rule="nonzero" fill-opacity="1" /><path clip-path="url(#clip410)" d="M1200.61 1522.27 L1200.61 1532.4 L1212.68 1532.4 L1212.68 1536.95 L1200.61 1536.95 L1200.61 1556.3 Q1200.61 1560.66 1201.79 1561.9 Q1203 1563.14 1206.66 1563.14 L1212.68 1563.14 L1212.68 1568.04 L1206.66 1568.04 Q1199.88 1568.04 1197.3 1565.53 Q1194.72 1562.98 1194.72 1556.3 L1194.72 1536.95 L1190.43 1536.95 L1190.43 1532.4 L1194.72 1532.4 L1194.72 1522.27 L1200.61 1522.27 Z" fill="#000000" fill-rule="nonzero" fill-opacity="1" /><path clip-path="url(#clip410)" d="M1220.38 1532.4 L1226.23 1532.4 L1226.23 1568.04 L1220.38 1568.04 L1220.38 1532.4 M1220.38 1518.52 L1226.23 1518.52 L1226.23 1525.93 L1220.38 1525.93 L1220.38 1518.52 Z" fill="#000000" fill-rule="nonzero" fill-opacity="1" /><path clip-path="url(#clip410)" d="M1264.14 1533.76 L1264.14 1539.24 Q1261.66 1537.87 1259.15 1537.2 Q1256.66 1536.5 1254.12 1536.5 Q1248.42 1536.5 1245.27 1540.13 Q1242.12 1543.73 1242.12 1550.25 Q1242.12 1556.78 1245.27 1560.4 Q1248.42 1564 1254.12 1564 Q1256.66 1564 1259.15 1563.33 Q1261.66 1562.63 1264.14 1561.26 L1264.14 1566.68 Q1261.69 1567.82 1259.05 1568.39 Q1256.44 1568.97 1253.48 1568.97 Q1245.43 1568.97 1240.68 1563.91 Q1235.94 1558.85 1235.94 1550.25 Q1235.94 1541.53 1240.72 1536.53 Q1245.52 1531.54 1253.86 1531.54 Q1256.57 1531.54 1259.15 1532.11 Q1261.72 1532.65 1264.14 1533.76 Z" fill="#000000" fill-rule="nonzero" fill-opacity="1" /><path clip-path="url(#clip410)" d="M1304.82 1548.76 L1304.82 1551.62 L1277.89 1551.62 Q1278.27 1557.67 1281.52 1560.85 Q1284.8 1564 1290.62 1564 Q1294 1564 1297.15 1563.17 Q1300.33 1562.35 1303.45 1560.69 L1303.45 1566.23 Q1300.3 1567.57 1296.99 1568.27 Q1293.68 1568.97 1290.27 1568.97 Q1281.74 1568.97 1276.75 1564 Q1271.78 1559.04 1271.78 1550.57 Q1271.78 1541.82 1276.49 1536.69 Q1281.23 1531.54 1289.26 1531.54 Q1296.45 1531.54 1300.62 1536.18 Q1304.82 1540.8 1304.82 1548.76 M1298.96 1547.04 Q1298.9 1542.23 1296.26 1539.37 Q1293.65 1536.5 1289.32 1536.5 Q1284.42 1536.5 1281.46 1539.27 Q1278.53 1542.04 1278.08 1547.07 L1298.96 1547.04 Z" fill="#000000" fill-rule="nonzero" fill-opacity="1" /><path clip-path="url(#clip410)" d="M1357.88 1533.45 L1357.88 1538.98 Q1355.39 1537.71 1352.72 1537.07 Q1350.05 1536.44 1347.18 1536.44 Q1342.82 1536.44 1340.63 1537.77 Q1338.46 1539.11 1338.46 1541.79 Q1338.46 1543.82 1340.02 1545 Q1341.58 1546.15 1346.29 1547.2 L1348.3 1547.64 Q1354.54 1548.98 1357.15 1551.43 Q1359.79 1553.85 1359.79 1558.21 Q1359.79 1563.17 1355.84 1566.07 Q1351.93 1568.97 1345.05 1568.97 Q1342.19 1568.97 1339.07 1568.39 Q1335.98 1567.85 1332.54 1566.74 L1332.54 1560.69 Q1335.79 1562.38 1338.94 1563.24 Q1342.09 1564.07 1345.18 1564.07 Q1349.32 1564.07 1351.54 1562.66 Q1353.77 1561.23 1353.77 1558.65 Q1353.77 1556.27 1352.15 1554.99 Q1350.56 1553.72 1345.11 1552.54 L1343.08 1552.07 Q1337.63 1550.92 1335.22 1548.56 Q1332.8 1546.18 1332.8 1542.04 Q1332.8 1537.01 1336.36 1534.27 Q1339.93 1531.54 1346.48 1531.54 Q1349.73 1531.54 1352.59 1532.01 Q1355.46 1532.49 1357.88 1533.45 Z" fill="#000000" fill-rule="nonzero" fill-opacity="1" /><path clip-path="url(#clip410)" d="M1369.11 1532.4 L1374.97 1532.4 L1374.97 1568.04 L1369.11 1568.04 L1369.11 1532.4 M1369.11 1518.52 L1374.97 1518.52 L1374.97 1525.93 L1369.11 1525.93 L1369.11 1518.52 Z" fill="#000000" fill-rule="nonzero" fill-opacity="1" /><path clip-path="url(#clip410)" d="M1384.68 1532.4 L1412.5 1532.4 L1412.5 1537.74 L1390.47 1563.37 L1412.5 1563.37 L1412.5 1568.04 L1383.88 1568.04 L1383.88 1562.7 L1405.91 1537.07 L1384.68 1537.07 L1384.68 1532.4 Z" fill="#000000" fill-rule="nonzero" fill-opacity="1" /><path clip-path="url(#clip410)" d="M1451.93 1548.76 L1451.93 1551.62 L1425 1551.62 Q1425.39 1557.67 1428.63 1560.85 Q1431.91 1564 1437.74 1564 Q1441.11 1564 1444.26 1563.17 Q1447.44 1562.35 1450.56 1560.69 L1450.56 1566.23 Q1447.41 1567.57 1444.1 1568.27 Q1440.79 1568.97 1437.39 1568.97 Q1428.86 1568.97 1423.86 1564 Q1418.89 1559.04 1418.89 1550.57 Q1418.89 1541.82 1423.6 1536.69 Q1428.35 1531.54 1436.37 1531.54 Q1443.56 1531.54 1447.73 1536.18 Q1451.93 1540.8 1451.93 1548.76 M1446.07 1547.04 Q1446.01 1542.23 1443.37 1539.37 Q1440.76 1536.5 1436.43 1536.5 Q1431.53 1536.5 1428.57 1539.27 Q1425.64 1542.04 1425.19 1547.07 L1446.07 1547.04 Z" fill="#000000" fill-rule="nonzero" fill-opacity="1" /><path clip-path="url(#clip410)" d="M1463.04 1559.96 L1469.75 1559.96 L1469.75 1565.43 L1464.53 1575.62 L1460.43 1575.62 L1463.04 1565.43 L1463.04 1559.96 Z" fill="#000000" fill-rule="nonzero" fill-opacity="1" /><path clip-path="url(#clip410)" d="M1503.24 1520.52 L1511.9 1520.52 L1532.97 1560.28 L1532.97 1520.52 L1539.2 1520.52 L1539.2 1568.04 L1530.55 1568.04 L1509.48 1528.29 L1509.48 1568.04 L1503.24 1568.04 L1503.24 1520.52 Z" fill="#000000" fill-rule="nonzero" fill-opacity="1" /><polyline clip-path="url(#clip412)" style="stroke:#000000; stroke-linecap:round; stroke-linejoin:round; stroke-width:2; stroke-opacity:0.1; fill:none" points="279.704,1296.76 2352.76,1296.76 "/>
<polyline clip-path="url(#clip412)" style="stroke:#000000; stroke-linecap:round; stroke-linejoin:round; stroke-width:2; stroke-opacity:0.1; fill:none" points="279.704,1116.01 2352.76,1116.01 "/>
<polyline clip-path="url(#clip412)" style="stroke:#000000; stroke-linecap:round; stroke-linejoin:round; stroke-width:2; stroke-opacity:0.1; fill:none" points="279.704,935.255 2352.76,935.255 "/>
<polyline clip-path="url(#clip412)" style="stroke:#000000; stroke-linecap:round; stroke-linejoin:round; stroke-width:2; stroke-opacity:0.1; fill:none" points="279.704,754.5 2352.76,754.5 "/>
<polyline clip-path="url(#clip412)" style="stroke:#000000; stroke-linecap:round; stroke-linejoin:round; stroke-width:2; stroke-opacity:0.1; fill:none" points="279.704,573.745 2352.76,573.745 "/>
<polyline clip-path="url(#clip412)" style="stroke:#000000; stroke-linecap:round; stroke-linejoin:round; stroke-width:2; stroke-opacity:0.1; fill:none" points="279.704,392.991 2352.76,392.991 "/>
<polyline clip-path="url(#clip412)" style="stroke:#000000; stroke-linecap:round; stroke-linejoin:round; stroke-width:2; stroke-opacity:0.1; fill:none" points="279.704,212.236 2352.76,212.236 "/>
<polyline clip-path="url(#clip410)" style="stroke:#000000; stroke-linecap:round; stroke-linejoin:round; stroke-width:4; stroke-opacity:1; fill:none" points="279.704,1423.18 279.704,166.672 "/>
<polyline clip-path="url(#clip410)" style="stroke:#000000; stroke-linecap:round; stroke-linejoin:round; stroke-width:4; stroke-opacity:1; fill:none" points="279.704,1296.76 298.602,1296.76 "/>
<polyline clip-path="url(#clip410)" style="stroke:#000000; stroke-linecap:round; stroke-linejoin:round; stroke-width:4; stroke-opacity:1; fill:none" points="279.704,1116.01 298.602,1116.01 "/>
<polyline clip-path="url(#clip410)" style="stroke:#000000; stroke-linecap:round; stroke-linejoin:round; stroke-width:4; stroke-opacity:1; fill:none" points="279.704,935.255 298.602,935.255 "/>
<polyline clip-path="url(#clip410)" style="stroke:#000000; stroke-linecap:round; stroke-linejoin:round; stroke-width:4; stroke-opacity:1; fill:none" points="279.704,754.5 298.602,754.5 "/>
<polyline clip-path="url(#clip410)" style="stroke:#000000; stroke-linecap:round; stroke-linejoin:round; stroke-width:4; stroke-opacity:1; fill:none" points="279.704,573.745 298.602,573.745 "/>
<polyline clip-path="url(#clip410)" style="stroke:#000000; stroke-linecap:round; stroke-linejoin:round; stroke-width:4; stroke-opacity:1; fill:none" points="279.704,392.991 298.602,392.991 "/>
<polyline clip-path="url(#clip410)" style="stroke:#000000; stroke-linecap:round; stroke-linejoin:round; stroke-width:4; stroke-opacity:1; fill:none" points="279.704,212.236 298.602,212.236 "/>
<path clip-path="url(#clip410)" d="M127.2 1282.56 Q123.589 1282.56 121.76 1286.13 Q119.955 1289.67 119.955 1296.8 Q119.955 1303.91 121.76 1307.47 Q123.589 1311.01 127.2 1311.01 Q130.834 1311.01 132.64 1307.47 Q134.468 1303.91 134.468 1296.8 Q134.468 1289.67 132.64 1286.13 Q130.834 1282.56 127.2 1282.56 M127.2 1278.86 Q133.01 1278.86 136.066 1283.47 Q139.144 1288.05 139.144 1296.8 Q139.144 1305.53 136.066 1310.13 Q133.01 1314.72 127.2 1314.72 Q121.39 1314.72 118.311 1310.13 Q115.256 1305.53 115.256 1296.8 Q115.256 1288.05 118.311 1283.47 Q121.39 1278.86 127.2 1278.86 Z" fill="#000000" fill-rule="nonzero" fill-opacity="1" /><path clip-path="url(#clip410)" d="M147.362 1308.16 L152.246 1308.16 L152.246 1314.04 L147.362 1314.04 L147.362 1308.16 Z" fill="#000000" fill-rule="nonzero" fill-opacity="1" /><path clip-path="url(#clip410)" d="M172.431 1282.56 Q168.82 1282.56 166.991 1286.13 Q165.186 1289.67 165.186 1296.8 Q165.186 1303.91 166.991 1307.47 Q168.82 1311.01 172.431 1311.01 Q176.065 1311.01 177.871 1307.47 Q179.7 1303.91 179.7 1296.8 Q179.7 1289.67 177.871 1286.13 Q176.065 1282.56 172.431 1282.56 M172.431 1278.86 Q178.241 1278.86 181.297 1283.47 Q184.376 1288.05 184.376 1296.8 Q184.376 1305.53 181.297 1310.13 Q178.241 1314.72 172.431 1314.72 Q166.621 1314.72 163.542 1310.13 Q160.487 1305.53 160.487 1296.8 Q160.487 1288.05 163.542 1283.47 Q166.621 1278.86 172.431 1278.86 Z" fill="#000000" fill-rule="nonzero" fill-opacity="1" /><path clip-path="url(#clip410)" d="M202.593 1282.56 Q198.982 1282.56 197.153 1286.13 Q195.348 1289.67 195.348 1296.8 Q195.348 1303.91 197.153 1307.47 Q198.982 1311.01 202.593 1311.01 Q206.227 1311.01 208.033 1307.47 Q209.861 1303.91 209.861 1296.8 Q209.861 1289.67 208.033 1286.13 Q206.227 1282.56 202.593 1282.56 M202.593 1278.86 Q208.403 1278.86 211.459 1283.47 Q214.537 1288.05 214.537 1296.8 Q214.537 1305.53 211.459 1310.13 Q208.403 1314.72 202.593 1314.72 Q196.783 1314.72 193.704 1310.13 Q190.649 1305.53 190.649 1296.8 Q190.649 1288.05 193.704 1283.47 Q196.783 1278.86 202.593 1278.86 Z" fill="#000000" fill-rule="nonzero" fill-opacity="1" /><path clip-path="url(#clip410)" d="M222.801 1279.48 L241.158 1279.48 L241.158 1283.42 L227.084 1283.42 L227.084 1291.89 Q228.102 1291.54 229.121 1291.38 Q230.139 1291.2 231.158 1291.2 Q236.945 1291.2 240.324 1294.37 Q243.704 1297.54 243.704 1302.96 Q243.704 1308.53 240.232 1311.64 Q236.76 1314.72 230.44 1314.72 Q228.264 1314.72 225.996 1314.35 Q223.75 1313.97 221.343 1313.23 L221.343 1308.53 Q223.426 1309.67 225.648 1310.22 Q227.871 1310.78 230.347 1310.78 Q234.352 1310.78 236.69 1308.67 Q239.028 1306.57 239.028 1302.96 Q239.028 1299.35 236.69 1297.24 Q234.352 1295.13 230.347 1295.13 Q228.473 1295.13 226.598 1295.55 Q224.746 1295.97 222.801 1296.85 L222.801 1279.48 Z" fill="#000000" fill-rule="nonzero" fill-opacity="1" /><path clip-path="url(#clip410)" d="M126.205 1101.81 Q122.593 1101.81 120.765 1105.37 Q118.959 1108.91 118.959 1116.04 Q118.959 1123.15 120.765 1126.72 Q122.593 1130.26 126.205 1130.26 Q129.839 1130.26 131.644 1126.72 Q133.473 1123.15 133.473 1116.04 Q133.473 1108.91 131.644 1105.37 Q129.839 1101.81 126.205 1101.81 M126.205 1098.1 Q132.015 1098.1 135.07 1102.71 Q138.149 1107.29 138.149 1116.04 Q138.149 1124.77 135.07 1129.38 Q132.015 1133.96 126.205 1133.96 Q120.394 1133.96 117.316 1129.38 Q114.26 1124.77 114.26 1116.04 Q114.26 1107.29 117.316 1102.71 Q120.394 1098.1 126.205 1098.1 Z" fill="#000000" fill-rule="nonzero" fill-opacity="1" /><path clip-path="url(#clip410)" d="M146.366 1127.41 L151.251 1127.41 L151.251 1133.29 L146.366 1133.29 L146.366 1127.41 Z" fill="#000000" fill-rule="nonzero" fill-opacity="1" /><path clip-path="url(#clip410)" d="M171.436 1101.81 Q167.825 1101.81 165.996 1105.37 Q164.19 1108.91 164.19 1116.04 Q164.19 1123.15 165.996 1126.72 Q167.825 1130.26 171.436 1130.26 Q175.07 1130.26 176.876 1126.72 Q178.704 1123.15 178.704 1116.04 Q178.704 1108.91 176.876 1105.37 Q175.07 1101.81 171.436 1101.81 M171.436 1098.1 Q177.246 1098.1 180.301 1102.71 Q183.38 1107.29 183.38 1116.04 Q183.38 1124.77 180.301 1129.38 Q177.246 1133.96 171.436 1133.96 Q165.626 1133.96 162.547 1129.38 Q159.491 1124.77 159.491 1116.04 Q159.491 1107.29 162.547 1102.71 Q165.626 1098.1 171.436 1098.1 Z" fill="#000000" fill-rule="nonzero" fill-opacity="1" /><path clip-path="url(#clip410)" d="M192.408 1129.35 L200.047 1129.35 L200.047 1102.99 L191.737 1104.66 L191.737 1100.4 L200 1098.73 L204.676 1098.73 L204.676 1129.35 L212.315 1129.35 L212.315 1133.29 L192.408 1133.29 L192.408 1129.35 Z" fill="#000000" fill-rule="nonzero" fill-opacity="1" /><path clip-path="url(#clip410)" d="M231.76 1101.81 Q228.148 1101.81 226.32 1105.37 Q224.514 1108.91 224.514 1116.04 Q224.514 1123.15 226.32 1126.72 Q228.148 1130.26 231.76 1130.26 Q235.394 1130.26 237.199 1126.72 Q239.028 1123.15 239.028 1116.04 Q239.028 1108.91 237.199 1105.37 Q235.394 1101.81 231.76 1101.81 M231.76 1098.1 Q237.57 1098.1 240.625 1102.71 Q243.704 1107.29 243.704 1116.04 Q243.704 1124.77 240.625 1129.38 Q237.57 1133.96 231.76 1133.96 Q225.949 1133.96 222.871 1129.38 Q219.815 1124.77 219.815 1116.04 Q219.815 1107.29 222.871 1102.71 Q225.949 1098.1 231.76 1098.1 Z" fill="#000000" fill-rule="nonzero" fill-opacity="1" /><path clip-path="url(#clip410)" d="M127.2 921.054 Q123.589 921.054 121.76 924.618 Q119.955 928.16 119.955 935.29 Q119.955 942.396 121.76 945.961 Q123.589 949.502 127.2 949.502 Q130.834 949.502 132.64 945.961 Q134.468 942.396 134.468 935.29 Q134.468 928.16 132.64 924.618 Q130.834 921.054 127.2 921.054 M127.2 917.35 Q133.01 917.35 136.066 921.956 Q139.144 926.54 139.144 935.29 Q139.144 944.016 136.066 948.623 Q133.01 953.206 127.2 953.206 Q121.39 953.206 118.311 948.623 Q115.256 944.016 115.256 935.29 Q115.256 926.54 118.311 921.956 Q121.39 917.35 127.2 917.35 Z" fill="#000000" fill-rule="nonzero" fill-opacity="1" /><path clip-path="url(#clip410)" d="M147.362 946.655 L152.246 946.655 L152.246 952.535 L147.362 952.535 L147.362 946.655 Z" fill="#000000" fill-rule="nonzero" fill-opacity="1" /><path clip-path="url(#clip410)" d="M172.431 921.054 Q168.82 921.054 166.991 924.618 Q165.186 928.16 165.186 935.29 Q165.186 942.396 166.991 945.961 Q168.82 949.502 172.431 949.502 Q176.065 949.502 177.871 945.961 Q179.7 942.396 179.7 935.29 Q179.7 928.16 177.871 924.618 Q176.065 921.054 172.431 921.054 M172.431 917.35 Q178.241 917.35 181.297 921.956 Q184.376 926.54 184.376 935.29 Q184.376 944.016 181.297 948.623 Q178.241 953.206 172.431 953.206 Q166.621 953.206 163.542 948.623 Q160.487 944.016 160.487 935.29 Q160.487 926.54 163.542 921.956 Q166.621 917.35 172.431 917.35 Z" fill="#000000" fill-rule="nonzero" fill-opacity="1" /><path clip-path="url(#clip410)" d="M193.403 948.6 L201.042 948.6 L201.042 922.234 L192.732 923.901 L192.732 919.641 L200.996 917.975 L205.672 917.975 L205.672 948.6 L213.311 948.6 L213.311 952.535 L193.403 952.535 L193.403 948.6 Z" fill="#000000" fill-rule="nonzero" fill-opacity="1" /><path clip-path="url(#clip410)" d="M222.801 917.975 L241.158 917.975 L241.158 921.91 L227.084 921.91 L227.084 930.382 Q228.102 930.035 229.121 929.873 Q230.139 929.688 231.158 929.688 Q236.945 929.688 240.324 932.859 Q243.704 936.03 243.704 941.447 Q243.704 947.026 240.232 950.127 Q236.76 953.206 230.44 953.206 Q228.264 953.206 225.996 952.836 Q223.75 952.465 221.343 951.725 L221.343 947.026 Q223.426 948.16 225.648 948.715 Q227.871 949.271 230.347 949.271 Q234.352 949.271 236.69 947.164 Q239.028 945.058 239.028 941.447 Q239.028 937.836 236.69 935.729 Q234.352 933.623 230.347 933.623 Q228.473 933.623 226.598 934.04 Q224.746 934.456 222.801 935.336 L222.801 917.975 Z" fill="#000000" fill-rule="nonzero" fill-opacity="1" /><path clip-path="url(#clip410)" d="M126.205 740.299 Q122.593 740.299 120.765 743.864 Q118.959 747.405 118.959 754.535 Q118.959 761.641 120.765 765.206 Q122.593 768.748 126.205 768.748 Q129.839 768.748 131.644 765.206 Q133.473 761.641 133.473 754.535 Q133.473 747.405 131.644 743.864 Q129.839 740.299 126.205 740.299 M126.205 736.595 Q132.015 736.595 135.07 741.202 Q138.149 745.785 138.149 754.535 Q138.149 763.262 135.07 767.868 Q132.015 772.451 126.205 772.451 Q120.394 772.451 117.316 767.868 Q114.26 763.262 114.26 754.535 Q114.26 745.785 117.316 741.202 Q120.394 736.595 126.205 736.595 Z" fill="#000000" fill-rule="nonzero" fill-opacity="1" /><path clip-path="url(#clip410)" d="M146.366 765.901 L151.251 765.901 L151.251 771.78 L146.366 771.78 L146.366 765.901 Z" fill="#000000" fill-rule="nonzero" fill-opacity="1" /><path clip-path="url(#clip410)" d="M171.436 740.299 Q167.825 740.299 165.996 743.864 Q164.19 747.405 164.19 754.535 Q164.19 761.641 165.996 765.206 Q167.825 768.748 171.436 768.748 Q175.07 768.748 176.876 765.206 Q178.704 761.641 178.704 754.535 Q178.704 747.405 176.876 743.864 Q175.07 740.299 171.436 740.299 M171.436 736.595 Q177.246 736.595 180.301 741.202 Q183.38 745.785 183.38 754.535 Q183.38 763.262 180.301 767.868 Q177.246 772.451 171.436 772.451 Q165.626 772.451 162.547 767.868 Q159.491 763.262 159.491 754.535 Q159.491 745.785 162.547 741.202 Q165.626 736.595 171.436 736.595 Z" fill="#000000" fill-rule="nonzero" fill-opacity="1" /><path clip-path="url(#clip410)" d="M195.625 767.845 L211.945 767.845 L211.945 771.78 L190 771.78 L190 767.845 Q192.663 765.09 197.246 760.461 Q201.852 755.808 203.033 754.465 Q205.278 751.942 206.158 750.206 Q207.061 748.447 207.061 746.757 Q207.061 744.003 205.116 742.266 Q203.195 740.53 200.093 740.53 Q197.894 740.53 195.44 741.294 Q193.01 742.058 190.232 743.609 L190.232 738.887 Q193.056 737.753 195.51 737.174 Q197.963 736.595 200 736.595 Q205.371 736.595 208.565 739.28 Q211.76 741.965 211.76 746.456 Q211.76 748.586 210.949 750.507 Q210.162 752.405 208.056 754.998 Q207.477 755.669 204.375 758.887 Q201.274 762.081 195.625 767.845 Z" fill="#000000" fill-rule="nonzero" fill-opacity="1" /><path clip-path="url(#clip410)" d="M231.76 740.299 Q228.148 740.299 226.32 743.864 Q224.514 747.405 224.514 754.535 Q224.514 761.641 226.32 765.206 Q228.148 768.748 231.76 768.748 Q235.394 768.748 237.199 765.206 Q239.028 761.641 239.028 754.535 Q239.028 747.405 237.199 743.864 Q235.394 740.299 231.76 740.299 M231.76 736.595 Q237.57 736.595 240.625 741.202 Q243.704 745.785 243.704 754.535 Q243.704 763.262 240.625 767.868 Q237.57 772.451 231.76 772.451 Q225.949 772.451 222.871 767.868 Q219.815 763.262 219.815 754.535 Q219.815 745.785 222.871 741.202 Q225.949 736.595 231.76 736.595 Z" fill="#000000" fill-rule="nonzero" fill-opacity="1" /><path clip-path="url(#clip410)" d="M127.2 559.544 Q123.589 559.544 121.76 563.109 Q119.955 566.651 119.955 573.78 Q119.955 580.887 121.76 584.451 Q123.589 587.993 127.2 587.993 Q130.834 587.993 132.64 584.451 Q134.468 580.887 134.468 573.78 Q134.468 566.651 132.64 563.109 Q130.834 559.544 127.2 559.544 M127.2 555.84 Q133.01 555.84 136.066 560.447 Q139.144 565.03 139.144 573.78 Q139.144 582.507 136.066 587.113 Q133.01 591.697 127.2 591.697 Q121.39 591.697 118.311 587.113 Q115.256 582.507 115.256 573.78 Q115.256 565.03 118.311 560.447 Q121.39 555.84 127.2 555.84 Z" fill="#000000" fill-rule="nonzero" fill-opacity="1" /><path clip-path="url(#clip410)" d="M147.362 585.146 L152.246 585.146 L152.246 591.025 L147.362 591.025 L147.362 585.146 Z" fill="#000000" fill-rule="nonzero" fill-opacity="1" /><path clip-path="url(#clip410)" d="M172.431 559.544 Q168.82 559.544 166.991 563.109 Q165.186 566.651 165.186 573.78 Q165.186 580.887 166.991 584.451 Q168.82 587.993 172.431 587.993 Q176.065 587.993 177.871 584.451 Q179.7 580.887 179.7 573.78 Q179.7 566.651 177.871 563.109 Q176.065 559.544 172.431 559.544 M172.431 555.84 Q178.241 555.84 181.297 560.447 Q184.376 565.03 184.376 573.78 Q184.376 582.507 181.297 587.113 Q178.241 591.697 172.431 591.697 Q166.621 591.697 163.542 587.113 Q160.487 582.507 160.487 573.78 Q160.487 565.03 163.542 560.447 Q166.621 555.84 172.431 555.84 Z" fill="#000000" fill-rule="nonzero" fill-opacity="1" /><path clip-path="url(#clip410)" d="M196.621 587.09 L212.94 587.09 L212.94 591.025 L190.996 591.025 L190.996 587.09 Q193.658 584.336 198.241 579.706 Q202.848 575.053 204.028 573.711 Q206.274 571.188 207.153 569.451 Q208.056 567.692 208.056 566.002 Q208.056 563.248 206.112 561.512 Q204.19 559.776 201.088 559.776 Q198.889 559.776 196.436 560.539 Q194.005 561.303 191.227 562.854 L191.227 558.132 Q194.051 556.998 196.505 556.419 Q198.959 555.84 200.996 555.84 Q206.366 555.84 209.561 558.526 Q212.755 561.211 212.755 565.702 Q212.755 567.831 211.945 569.752 Q211.158 571.651 209.051 574.243 Q208.473 574.914 205.371 578.132 Q202.269 581.326 196.621 587.09 Z" fill="#000000" fill-rule="nonzero" fill-opacity="1" /><path clip-path="url(#clip410)" d="M222.801 556.465 L241.158 556.465 L241.158 560.401 L227.084 560.401 L227.084 568.873 Q228.102 568.526 229.121 568.364 Q230.139 568.178 231.158 568.178 Q236.945 568.178 240.324 571.35 Q243.704 574.521 243.704 579.938 Q243.704 585.516 240.232 588.618 Q236.76 591.697 230.44 591.697 Q228.264 591.697 225.996 591.326 Q223.75 590.956 221.343 590.215 L221.343 585.516 Q223.426 586.65 225.648 587.206 Q227.871 587.762 230.347 587.762 Q234.352 587.762 236.69 585.655 Q239.028 583.549 239.028 579.938 Q239.028 576.326 236.69 574.22 Q234.352 572.114 230.347 572.114 Q228.473 572.114 226.598 572.53 Q224.746 572.947 222.801 573.826 L222.801 556.465 Z" fill="#000000" fill-rule="nonzero" fill-opacity="1" /><path clip-path="url(#clip410)" d="M126.205 378.789 Q122.593 378.789 120.765 382.354 Q118.959 385.896 118.959 393.025 Q118.959 400.132 120.765 403.697 Q122.593 407.238 126.205 407.238 Q129.839 407.238 131.644 403.697 Q133.473 400.132 133.473 393.025 Q133.473 385.896 131.644 382.354 Q129.839 378.789 126.205 378.789 M126.205 375.086 Q132.015 375.086 135.07 379.692 Q138.149 384.276 138.149 393.025 Q138.149 401.752 135.07 406.359 Q132.015 410.942 126.205 410.942 Q120.394 410.942 117.316 406.359 Q114.26 401.752 114.26 393.025 Q114.26 384.276 117.316 379.692 Q120.394 375.086 126.205 375.086 Z" fill="#000000" fill-rule="nonzero" fill-opacity="1" /><path clip-path="url(#clip410)" d="M146.366 404.391 L151.251 404.391 L151.251 410.271 L146.366 410.271 L146.366 404.391 Z" fill="#000000" fill-rule="nonzero" fill-opacity="1" /><path clip-path="url(#clip410)" d="M171.436 378.789 Q167.825 378.789 165.996 382.354 Q164.19 385.896 164.19 393.025 Q164.19 400.132 165.996 403.697 Q167.825 407.238 171.436 407.238 Q175.07 407.238 176.876 403.697 Q178.704 400.132 178.704 393.025 Q178.704 385.896 176.876 382.354 Q175.07 378.789 171.436 378.789 M171.436 375.086 Q177.246 375.086 180.301 379.692 Q183.38 384.276 183.38 393.025 Q183.38 401.752 180.301 406.359 Q177.246 410.942 171.436 410.942 Q165.626 410.942 162.547 406.359 Q159.491 401.752 159.491 393.025 Q159.491 384.276 162.547 379.692 Q165.626 375.086 171.436 375.086 Z" fill="#000000" fill-rule="nonzero" fill-opacity="1" /><path clip-path="url(#clip410)" d="M205.764 391.637 Q209.121 392.354 210.996 394.623 Q212.894 396.891 212.894 400.225 Q212.894 405.34 209.375 408.141 Q205.857 410.942 199.375 410.942 Q197.2 410.942 194.885 410.502 Q192.593 410.086 190.139 409.229 L190.139 404.715 Q192.084 405.849 194.399 406.428 Q196.713 407.007 199.237 407.007 Q203.635 407.007 205.926 405.271 Q208.241 403.535 208.241 400.225 Q208.241 397.169 206.088 395.456 Q203.959 393.72 200.139 393.72 L196.112 393.72 L196.112 389.877 L200.325 389.877 Q203.774 389.877 205.602 388.512 Q207.431 387.123 207.431 384.53 Q207.431 381.868 205.533 380.456 Q203.658 379.021 200.139 379.021 Q198.218 379.021 196.019 379.438 Q193.82 379.854 191.181 380.734 L191.181 376.567 Q193.843 375.826 196.158 375.456 Q198.496 375.086 200.556 375.086 Q205.88 375.086 208.982 377.516 Q212.084 379.924 212.084 384.044 Q212.084 386.914 210.44 388.905 Q208.797 390.873 205.764 391.637 Z" fill="#000000" fill-rule="nonzero" fill-opacity="1" /><path clip-path="url(#clip410)" d="M231.76 378.789 Q228.148 378.789 226.32 382.354 Q224.514 385.896 224.514 393.025 Q224.514 400.132 226.32 403.697 Q228.148 407.238 231.76 407.238 Q235.394 407.238 237.199 403.697 Q239.028 400.132 239.028 393.025 Q239.028 385.896 237.199 382.354 Q235.394 378.789 231.76 378.789 M231.76 375.086 Q237.57 375.086 240.625 379.692 Q243.704 384.276 243.704 393.025 Q243.704 401.752 240.625 406.359 Q237.57 410.942 231.76 410.942 Q225.949 410.942 222.871 406.359 Q219.815 401.752 219.815 393.025 Q219.815 384.276 222.871 379.692 Q225.949 375.086 231.76 375.086 Z" fill="#000000" fill-rule="nonzero" fill-opacity="1" /><path clip-path="url(#clip410)" d="M127.2 198.035 Q123.589 198.035 121.76 201.6 Q119.955 205.141 119.955 212.271 Q119.955 219.377 121.76 222.942 Q123.589 226.484 127.2 226.484 Q130.834 226.484 132.64 222.942 Q134.468 219.377 134.468 212.271 Q134.468 205.141 132.64 201.6 Q130.834 198.035 127.2 198.035 M127.2 194.331 Q133.01 194.331 136.066 198.938 Q139.144 203.521 139.144 212.271 Q139.144 220.998 136.066 225.604 Q133.01 230.187 127.2 230.187 Q121.39 230.187 118.311 225.604 Q115.256 220.998 115.256 212.271 Q115.256 203.521 118.311 198.938 Q121.39 194.331 127.2 194.331 Z" fill="#000000" fill-rule="nonzero" fill-opacity="1" /><path clip-path="url(#clip410)" d="M147.362 223.636 L152.246 223.636 L152.246 229.516 L147.362 229.516 L147.362 223.636 Z" fill="#000000" fill-rule="nonzero" fill-opacity="1" /><path clip-path="url(#clip410)" d="M172.431 198.035 Q168.82 198.035 166.991 201.6 Q165.186 205.141 165.186 212.271 Q165.186 219.377 166.991 222.942 Q168.82 226.484 172.431 226.484 Q176.065 226.484 177.871 222.942 Q179.7 219.377 179.7 212.271 Q179.7 205.141 177.871 201.6 Q176.065 198.035 172.431 198.035 M172.431 194.331 Q178.241 194.331 181.297 198.938 Q184.376 203.521 184.376 212.271 Q184.376 220.998 181.297 225.604 Q178.241 230.187 172.431 230.187 Q166.621 230.187 163.542 225.604 Q160.487 220.998 160.487 212.271 Q160.487 203.521 163.542 198.938 Q166.621 194.331 172.431 194.331 Z" fill="#000000" fill-rule="nonzero" fill-opacity="1" /><path clip-path="url(#clip410)" d="M206.76 210.882 Q210.116 211.599 211.991 213.868 Q213.889 216.136 213.889 219.47 Q213.889 224.586 210.371 227.386 Q206.852 230.187 200.371 230.187 Q198.195 230.187 195.88 229.748 Q193.588 229.331 191.135 228.474 L191.135 223.961 Q193.079 225.095 195.394 225.673 Q197.709 226.252 200.232 226.252 Q204.63 226.252 206.922 224.516 Q209.237 222.78 209.237 219.47 Q209.237 216.414 207.084 214.701 Q204.954 212.965 201.135 212.965 L197.107 212.965 L197.107 209.123 L201.32 209.123 Q204.769 209.123 206.598 207.757 Q208.426 206.368 208.426 203.775 Q208.426 201.113 206.528 199.701 Q204.653 198.266 201.135 198.266 Q199.213 198.266 197.014 198.683 Q194.815 199.1 192.176 199.979 L192.176 195.813 Q194.838 195.072 197.153 194.701 Q199.491 194.331 201.551 194.331 Q206.875 194.331 209.977 196.762 Q213.079 199.169 213.079 203.289 Q213.079 206.16 211.436 208.15 Q209.792 210.118 206.76 210.882 Z" fill="#000000" fill-rule="nonzero" fill-opacity="1" /><path clip-path="url(#clip410)" d="M222.801 194.956 L241.158 194.956 L241.158 198.891 L227.084 198.891 L227.084 207.363 Q228.102 207.016 229.121 206.854 Q230.139 206.669 231.158 206.669 Q236.945 206.669 240.324 209.84 Q243.704 213.012 243.704 218.428 Q243.704 224.007 240.232 227.109 Q236.76 230.187 230.44 230.187 Q228.264 230.187 225.996 229.817 Q223.75 229.447 221.343 228.706 L221.343 224.007 Q223.426 225.141 225.648 225.697 Q227.871 226.252 230.347 226.252 Q234.352 226.252 236.69 224.146 Q239.028 222.039 239.028 218.428 Q239.028 214.817 236.69 212.711 Q234.352 210.604 230.347 210.604 Q228.473 210.604 226.598 211.021 Q224.746 211.437 222.801 212.317 L222.801 194.956 Z" fill="#000000" fill-rule="nonzero" fill-opacity="1" /><path clip-path="url(#clip410)" d="M29.4065 815.312 L34.9447 815.312 Q33.6716 817.795 33.035 820.468 Q32.3984 823.142 32.3984 826.007 Q32.3984 830.367 33.7352 832.563 Q35.072 834.728 37.7456 834.728 Q39.7826 834.728 40.9603 833.168 Q42.1061 831.608 43.1565 826.898 L43.6021 824.893 Q44.9389 818.654 47.3897 816.044 Q49.8086 813.402 54.1691 813.402 Q59.1344 813.402 62.0308 817.349 Q64.9272 821.264 64.9272 828.139 Q64.9272 831.004 64.3543 834.123 Q63.8132 837.21 62.6992 840.648 L56.6518 840.648 Q58.3387 837.401 59.198 834.25 Q60.0256 831.099 60.0256 828.012 Q60.0256 823.874 58.6251 821.646 Q57.1929 819.418 54.6147 819.418 Q52.2276 819.418 50.9545 821.041 Q49.6813 822.633 48.5037 828.075 L48.0262 830.112 Q46.8804 835.555 44.5251 837.974 Q42.138 840.393 38.0002 840.393 Q32.9713 840.393 30.2341 836.828 Q27.4968 833.263 27.4968 826.707 Q27.4968 823.46 27.9743 820.596 Q28.4517 817.731 29.4065 815.312 Z" fill="#000000" fill-rule="nonzero" fill-opacity="1" /><path clip-path="url(#clip410)" d="M18.2347 798.284 L28.3562 798.284 L28.3562 786.221 L32.9077 786.221 L32.9077 798.284 L52.2594 798.284 Q56.6199 798.284 57.8613 797.106 Q59.1026 795.897 59.1026 792.236 L59.1026 786.221 L64.0042 786.221 L64.0042 792.236 Q64.0042 799.016 61.4897 801.594 Q58.9434 804.172 52.2594 804.172 L32.9077 804.172 L32.9077 808.469 L28.3562 808.469 L28.3562 804.172 L18.2347 804.172 L18.2347 798.284 Z" fill="#000000" fill-rule="nonzero" fill-opacity="1" /><path clip-path="url(#clip410)" d="M33.7671 755.061 L14.479 755.061 L14.479 749.204 L64.0042 749.204 L64.0042 755.061 L58.657 755.061 Q61.8398 756.907 63.3994 759.74 Q64.9272 762.54 64.9272 766.487 Q64.9272 772.948 59.771 777.022 Q54.6147 781.065 46.212 781.065 Q37.8093 781.065 32.6531 777.022 Q27.4968 772.948 27.4968 766.487 Q27.4968 762.54 29.0564 759.74 Q30.5842 756.907 33.7671 755.061 M46.212 775.017 Q52.6732 775.017 56.3653 772.375 Q60.0256 769.702 60.0256 765.055 Q60.0256 760.408 56.3653 757.734 Q52.6732 755.061 46.212 755.061 Q39.7508 755.061 36.0905 757.734 Q32.3984 760.408 32.3984 765.055 Q32.3984 769.702 36.0905 772.375 Q39.7508 775.017 46.212 775.017 Z" fill="#000000" fill-rule="nonzero" fill-opacity="1" /><path clip-path="url(#clip410)" d="M385.506 30.2134 L385.506 37.0536 Q381.513 35.1439 377.971 34.2064 Q374.429 33.2689 371.131 33.2689 Q365.402 33.2689 362.277 35.4911 Q359.186 37.7133 359.186 41.8105 Q359.186 45.248 361.235 47.0188 Q363.318 48.7549 369.082 49.8313 L373.318 50.6994 Q381.165 52.1924 384.881 55.9771 Q388.631 59.7271 388.631 66.0465 Q388.631 73.5812 383.561 77.4701 Q378.527 81.3589 368.77 81.3589 Q365.089 81.3589 360.923 80.5256 Q356.791 79.6923 352.346 78.0603 L352.346 70.8382 Q356.617 73.234 360.714 74.4493 Q364.811 75.6645 368.77 75.6645 Q374.777 75.6645 378.04 73.3034 Q381.304 70.9423 381.304 66.5674 Q381.304 62.7479 378.943 60.5952 Q376.617 58.4424 371.27 57.366 L366.999 56.5327 Q359.152 54.9702 355.645 51.6369 Q352.138 48.3036 352.138 42.3661 Q352.138 35.4911 356.964 31.5328 Q361.825 27.5745 370.332 27.5745 Q373.978 27.5745 377.763 28.2342 Q381.547 28.8939 385.506 30.2134 Z" fill="#000000" fill-rule="nonzero" fill-opacity="1" /><path clip-path="url(#clip410)" d="M405.61 30.4217 L405.61 41.4633 L418.769 41.4633 L418.769 46.4286 L405.61 46.4286 L405.61 67.5396 Q405.61 72.2965 406.895 73.6506 Q408.214 75.0048 412.207 75.0048 L418.769 75.0048 L418.769 80.352 L412.207 80.352 Q404.811 80.352 401.999 77.609 Q399.186 74.8312 399.186 67.5396 L399.186 46.4286 L394.499 46.4286 L394.499 41.4633 L399.186 41.4633 L399.186 30.4217 L405.61 30.4217 Z" fill="#000000" fill-rule="nonzero" fill-opacity="1" /><path clip-path="url(#clip410)" d="M444.846 60.8035 Q437.103 60.8035 434.117 62.5743 Q431.13 64.3451 431.13 68.616 Q431.13 72.0187 433.353 74.0326 Q435.61 76.0117 439.464 76.0117 Q444.776 76.0117 447.971 72.2618 Q451.2 68.4771 451.2 62.2271 L451.2 60.8035 L444.846 60.8035 M457.589 58.1646 L457.589 80.352 L451.2 80.352 L451.2 74.4493 Q449.012 77.9909 445.748 79.6923 Q442.485 81.3589 437.762 81.3589 Q431.79 81.3589 428.249 78.0256 Q424.742 74.6576 424.742 69.0326 Q424.742 62.4702 429.117 59.1368 Q433.526 55.8035 442.242 55.8035 L451.2 55.8035 L451.2 55.1785 Q451.2 50.7688 448.283 48.373 Q445.401 45.9425 440.158 45.9425 Q436.825 45.9425 433.665 46.7411 Q430.505 47.5397 427.589 49.1369 L427.589 43.2341 Q431.096 41.88 434.394 41.2203 Q437.693 40.5258 440.818 40.5258 Q449.255 40.5258 453.422 44.9008 Q457.589 49.2758 457.589 58.1646 Z" fill="#000000" fill-rule="nonzero" fill-opacity="1" /><path clip-path="url(#clip410)" d="M503.075 56.8799 L503.075 80.352 L496.686 80.352 L496.686 57.0882 Q496.686 51.5674 494.533 48.8244 Q492.38 46.0814 488.075 46.0814 Q482.901 46.0814 479.915 49.3799 Q476.929 52.6785 476.929 58.373 L476.929 80.352 L470.505 80.352 L470.505 41.4633 L476.929 41.4633 L476.929 47.505 Q479.221 43.998 482.311 42.2619 Q485.436 40.5258 489.498 40.5258 Q496.2 40.5258 499.637 44.6925 Q503.075 48.8244 503.075 56.8799 Z" fill="#000000" fill-rule="nonzero" fill-opacity="1" /><path clip-path="url(#clip410)" d="M541.408 47.3661 L541.408 26.3245 L547.797 26.3245 L547.797 80.352 L541.408 80.352 L541.408 74.5187 Q539.394 77.9909 536.304 79.6923 Q533.248 81.3589 528.942 81.3589 Q521.894 81.3589 517.449 75.734 Q513.04 70.109 513.04 60.9424 Q513.04 51.7758 517.449 46.1508 Q521.894 40.5258 528.942 40.5258 Q533.248 40.5258 536.304 42.2272 Q539.394 43.8939 541.408 47.3661 M519.637 60.9424 Q519.637 67.991 522.519 72.0187 Q525.436 76.0117 530.505 76.0117 Q535.574 76.0117 538.491 72.0187 Q541.408 67.991 541.408 60.9424 Q541.408 53.8938 538.491 49.9008 Q535.574 45.873 530.505 45.873 Q525.436 45.873 522.519 49.9008 Q519.637 53.8938 519.637 60.9424 Z" fill="#000000" fill-rule="nonzero" fill-opacity="1" /><path clip-path="url(#clip410)" d="M578.63 60.8035 Q570.887 60.8035 567.901 62.5743 Q564.914 64.3451 564.914 68.616 Q564.914 72.0187 567.137 74.0326 Q569.394 76.0117 573.248 76.0117 Q578.56 76.0117 581.755 72.2618 Q584.984 68.4771 584.984 62.2271 L584.984 60.8035 L578.63 60.8035 M591.373 58.1646 L591.373 80.352 L584.984 80.352 L584.984 74.4493 Q582.796 77.9909 579.532 79.6923 Q576.269 81.3589 571.546 81.3589 Q565.574 81.3589 562.033 78.0256 Q558.526 74.6576 558.526 69.0326 Q558.526 62.4702 562.901 59.1368 Q567.31 55.8035 576.026 55.8035 L584.984 55.8035 L584.984 55.1785 Q584.984 50.7688 582.067 48.373 Q579.185 45.9425 573.942 45.9425 Q570.609 45.9425 567.449 46.7411 Q564.289 47.5397 561.373 49.1369 L561.373 43.2341 Q564.88 41.88 568.178 41.2203 Q571.477 40.5258 574.602 40.5258 Q583.039 40.5258 587.206 44.9008 Q591.373 49.2758 591.373 58.1646 Z" fill="#000000" fill-rule="nonzero" fill-opacity="1" /><path clip-path="url(#clip410)" d="M627.067 47.4355 Q625.991 46.8105 624.706 46.5327 Q623.456 46.2202 621.928 46.2202 Q616.511 46.2202 613.595 49.7619 Q610.713 53.2688 610.713 59.866 L610.713 80.352 L604.289 80.352 L604.289 41.4633 L610.713 41.4633 L610.713 47.505 Q612.727 43.9633 615.956 42.2619 Q619.185 40.5258 623.803 40.5258 Q624.463 40.5258 625.261 40.63 Q626.06 40.6994 627.032 40.873 L627.067 47.4355 Z" fill="#000000" fill-rule="nonzero" fill-opacity="1" /><path clip-path="url(#clip410)" d="M658.108 47.3661 L658.108 26.3245 L664.497 26.3245 L664.497 80.352 L658.108 80.352 L658.108 74.5187 Q656.095 77.9909 653.004 79.6923 Q649.949 81.3589 645.643 81.3589 Q638.595 81.3589 634.15 75.734 Q629.741 70.109 629.741 60.9424 Q629.741 51.7758 634.15 46.1508 Q638.595 40.5258 645.643 40.5258 Q649.949 40.5258 653.004 42.2272 Q656.095 43.8939 658.108 47.3661 M636.338 60.9424 Q636.338 67.991 639.22 72.0187 Q642.136 76.0117 647.206 76.0117 Q652.275 76.0117 655.192 72.0187 Q658.108 67.991 658.108 60.9424 Q658.108 53.8938 655.192 49.9008 Q652.275 45.873 647.206 45.873 Q642.136 45.873 639.22 49.9008 Q636.338 53.8938 636.338 60.9424 Z" fill="#000000" fill-rule="nonzero" fill-opacity="1" /><path clip-path="url(#clip410)" d="M725.851 47.3661 L725.851 26.3245 L732.24 26.3245 L732.24 80.352 L725.851 80.352 L725.851 74.5187 Q723.837 77.9909 720.747 79.6923 Q717.691 81.3589 713.386 81.3589 Q706.337 81.3589 701.893 75.734 Q697.483 70.109 697.483 60.9424 Q697.483 51.7758 701.893 46.1508 Q706.337 40.5258 713.386 40.5258 Q717.691 40.5258 720.747 42.2272 Q723.837 43.8939 725.851 47.3661 M704.08 60.9424 Q704.08 67.991 706.962 72.0187 Q709.879 76.0117 714.948 76.0117 Q720.018 76.0117 722.934 72.0187 Q725.851 67.991 725.851 60.9424 Q725.851 53.8938 722.934 49.9008 Q720.018 45.873 714.948 45.873 Q709.879 45.873 706.962 49.9008 Q704.08 53.8938 704.08 60.9424 Z" fill="#000000" fill-rule="nonzero" fill-opacity="1" /><path clip-path="url(#clip410)" d="M778.663 59.3104 L778.663 62.4354 L749.289 62.4354 Q749.705 69.0326 753.247 72.5048 Q756.823 75.9423 763.177 75.9423 Q766.858 75.9423 770.295 75.0395 Q773.768 74.1368 777.17 72.3312 L777.17 78.3728 Q773.733 79.8312 770.122 80.5951 Q766.511 81.3589 762.795 81.3589 Q753.49 81.3589 748.039 75.9423 Q742.622 70.5257 742.622 61.2896 Q742.622 51.741 747.761 46.1508 Q752.934 40.5258 761.684 40.5258 Q769.531 40.5258 774.08 45.5952 Q778.663 50.6299 778.663 59.3104 M772.274 57.4355 Q772.205 52.1924 769.323 49.0674 Q766.476 45.9425 761.754 45.9425 Q756.407 45.9425 753.177 48.9633 Q749.983 51.9841 749.497 57.4702 L772.274 57.4355 Z" fill="#000000" fill-rule="nonzero" fill-opacity="1" /><path clip-path="url(#clip410)" d="M784.566 41.4633 L791.337 41.4633 L803.49 74.102 L815.642 41.4633 L822.413 41.4633 L807.83 80.352 L799.149 80.352 L784.566 41.4633 Z" fill="#000000" fill-rule="nonzero" fill-opacity="1" /><path clip-path="url(#clip410)" d="M831.233 41.4633 L837.621 41.4633 L837.621 80.352 L831.233 80.352 L831.233 41.4633 M831.233 26.3245 L837.621 26.3245 L837.621 34.4147 L831.233 34.4147 L831.233 26.3245 Z" fill="#000000" fill-rule="nonzero" fill-opacity="1" /><path clip-path="url(#clip410)" d="M868.663 60.8035 Q860.92 60.8035 857.934 62.5743 Q854.948 64.3451 854.948 68.616 Q854.948 72.0187 857.17 74.0326 Q859.427 76.0117 863.281 76.0117 Q868.593 76.0117 871.788 72.2618 Q875.017 68.4771 875.017 62.2271 L875.017 60.8035 L868.663 60.8035 M881.406 58.1646 L881.406 80.352 L875.017 80.352 L875.017 74.4493 Q872.83 77.9909 869.566 79.6923 Q866.302 81.3589 861.58 81.3589 Q855.607 81.3589 852.066 78.0256 Q848.559 74.6576 848.559 69.0326 Q848.559 62.4702 852.934 59.1368 Q857.343 55.8035 866.059 55.8035 L875.017 55.8035 L875.017 55.1785 Q875.017 50.7688 872.1 48.373 Q869.218 45.9425 863.975 45.9425 Q860.642 45.9425 857.482 46.7411 Q854.323 47.5397 851.406 49.1369 L851.406 43.2341 Q854.913 41.88 858.212 41.2203 Q861.51 40.5258 864.635 40.5258 Q873.073 40.5258 877.239 44.9008 Q881.406 49.2758 881.406 58.1646 Z" fill="#000000" fill-rule="nonzero" fill-opacity="1" /><path clip-path="url(#clip410)" d="M900.885 30.4217 L900.885 41.4633 L914.045 41.4633 L914.045 46.4286 L900.885 46.4286 L900.885 67.5396 Q900.885 72.2965 902.17 73.6506 Q903.489 75.0048 907.482 75.0048 L914.045 75.0048 L914.045 80.352 L907.482 80.352 Q900.086 80.352 897.274 77.609 Q894.461 74.8312 894.461 67.5396 L894.461 46.4286 L889.774 46.4286 L889.774 41.4633 L894.461 41.4633 L894.461 30.4217 L900.885 30.4217 Z" fill="#000000" fill-rule="nonzero" fill-opacity="1" /><path clip-path="url(#clip410)" d="M922.447 41.4633 L928.836 41.4633 L928.836 80.352 L922.447 80.352 L922.447 41.4633 M922.447 26.3245 L928.836 26.3245 L928.836 34.4147 L922.447 34.4147 L922.447 26.3245 Z" fill="#000000" fill-rule="nonzero" fill-opacity="1" /><path clip-path="url(#clip410)" d="M957.273 45.9425 Q952.135 45.9425 949.149 49.9702 Q946.162 53.9633 946.162 60.9424 Q946.162 67.9215 949.114 71.9493 Q952.1 75.9423 957.273 75.9423 Q962.378 75.9423 965.364 71.9145 Q968.35 67.8868 968.35 60.9424 Q968.35 54.0327 965.364 50.0049 Q962.378 45.9425 957.273 45.9425 M957.273 40.5258 Q965.607 40.5258 970.364 45.9425 Q975.121 51.3591 975.121 60.9424 Q975.121 70.4909 970.364 75.9423 Q965.607 81.3589 957.273 81.3589 Q948.905 81.3589 944.149 75.9423 Q939.426 70.4909 939.426 60.9424 Q939.426 51.3591 944.149 45.9425 Q948.905 40.5258 957.273 40.5258 Z" fill="#000000" fill-rule="nonzero" fill-opacity="1" /><path clip-path="url(#clip410)" d="M1018.04 56.8799 L1018.04 80.352 L1011.65 80.352 L1011.65 57.0882 Q1011.65 51.5674 1009.5 48.8244 Q1007.34 46.0814 1003.04 46.0814 Q997.864 46.0814 994.877 49.3799 Q991.891 52.6785 991.891 58.373 L991.891 80.352 L985.468 80.352 L985.468 41.4633 L991.891 41.4633 L991.891 47.505 Q994.183 43.998 997.273 42.2619 Q1000.4 40.5258 1004.46 40.5258 Q1011.16 40.5258 1014.6 44.6925 Q1018.04 48.8244 1018.04 56.8799 Z" fill="#000000" fill-rule="nonzero" fill-opacity="1" /><path clip-path="url(#clip410)" d="M1068.45 45.9425 Q1063.31 45.9425 1060.33 49.9702 Q1057.34 53.9633 1057.34 60.9424 Q1057.34 67.9215 1060.29 71.9493 Q1063.28 75.9423 1068.45 75.9423 Q1073.56 75.9423 1076.54 71.9145 Q1079.53 67.8868 1079.53 60.9424 Q1079.53 54.0327 1076.54 50.0049 Q1073.56 45.9425 1068.45 45.9425 M1068.45 40.5258 Q1076.79 40.5258 1081.54 45.9425 Q1086.3 51.3591 1086.3 60.9424 Q1086.3 70.4909 1081.54 75.9423 Q1076.79 81.3589 1068.45 81.3589 Q1060.09 81.3589 1055.33 75.9423 Q1050.61 70.4909 1050.61 60.9424 Q1050.61 51.3591 1055.33 45.9425 Q1060.09 40.5258 1068.45 40.5258 Z" fill="#000000" fill-rule="nonzero" fill-opacity="1" /><path clip-path="url(#clip410)" d="M1116.58 26.3245 L1116.58 31.637 L1110.47 31.637 Q1107.03 31.637 1105.68 33.0259 Q1104.36 34.4147 1104.36 38.0258 L1104.36 41.4633 L1114.88 41.4633 L1114.88 46.4286 L1104.36 46.4286 L1104.36 80.352 L1097.93 80.352 L1097.93 46.4286 L1091.82 46.4286 L1091.82 41.4633 L1097.93 41.4633 L1097.93 38.755 Q1097.93 32.262 1100.95 29.3106 Q1103.97 26.3245 1110.54 26.3245 L1116.58 26.3245 Z" fill="#000000" fill-rule="nonzero" fill-opacity="1" /><path clip-path="url(#clip410)" d="M1174.81 48.9286 Q1177.2 44.623 1180.54 42.5744 Q1183.87 40.5258 1188.38 40.5258 Q1194.46 40.5258 1197.76 44.7966 Q1201.06 49.0327 1201.06 56.8799 L1201.06 80.352 L1194.63 80.352 L1194.63 57.0882 Q1194.63 51.498 1192.65 48.7897 Q1190.68 46.0814 1186.61 46.0814 Q1181.65 46.0814 1178.77 49.3799 Q1175.88 52.6785 1175.88 58.373 L1175.88 80.352 L1169.46 80.352 L1169.46 57.0882 Q1169.46 51.4633 1167.48 48.7897 Q1165.5 46.0814 1161.37 46.0814 Q1156.47 46.0814 1153.59 49.4147 Q1150.71 52.7133 1150.71 58.373 L1150.71 80.352 L1144.29 80.352 L1144.29 41.4633 L1150.71 41.4633 L1150.71 47.505 Q1152.9 43.9286 1155.95 42.2272 Q1159.01 40.5258 1163.21 40.5258 Q1167.45 40.5258 1170.4 42.6786 Q1173.38 44.8314 1174.81 48.9286 Z" fill="#000000" fill-rule="nonzero" fill-opacity="1" /><path clip-path="url(#clip410)" d="M1247.06 59.3104 L1247.06 62.4354 L1217.69 62.4354 Q1218.11 69.0326 1221.65 72.5048 Q1225.22 75.9423 1231.58 75.9423 Q1235.26 75.9423 1238.7 75.0395 Q1242.17 74.1368 1245.57 72.3312 L1245.57 78.3728 Q1242.13 79.8312 1238.52 80.5951 Q1234.91 81.3589 1231.2 81.3589 Q1221.89 81.3589 1216.44 75.9423 Q1211.02 70.5257 1211.02 61.2896 Q1211.02 51.741 1216.16 46.1508 Q1221.33 40.5258 1230.08 40.5258 Q1237.93 40.5258 1242.48 45.5952 Q1247.06 50.6299 1247.06 59.3104 M1240.67 57.4355 Q1240.61 52.1924 1237.72 49.0674 Q1234.88 45.9425 1230.15 45.9425 Q1224.81 45.9425 1221.58 48.9633 Q1218.38 51.9841 1217.9 57.4702 L1240.67 57.4355 Z" fill="#000000" fill-rule="nonzero" fill-opacity="1" /><path clip-path="url(#clip410)" d="M1275.22 60.8035 Q1267.48 60.8035 1264.49 62.5743 Q1261.51 64.3451 1261.51 68.616 Q1261.51 72.0187 1263.73 74.0326 Q1265.99 76.0117 1269.84 76.0117 Q1275.15 76.0117 1278.35 72.2618 Q1281.58 68.4771 1281.58 62.2271 L1281.58 60.8035 L1275.22 60.8035 M1287.97 58.1646 L1287.97 80.352 L1281.58 80.352 L1281.58 74.4493 Q1279.39 77.9909 1276.13 79.6923 Q1272.86 81.3589 1268.14 81.3589 Q1262.17 81.3589 1258.63 78.0256 Q1255.12 74.6576 1255.12 69.0326 Q1255.12 62.4702 1259.49 59.1368 Q1263.9 55.8035 1272.62 55.8035 L1281.58 55.8035 L1281.58 55.1785 Q1281.58 50.7688 1278.66 48.373 Q1275.78 45.9425 1270.54 45.9425 Q1267.2 45.9425 1264.04 46.7411 Q1260.88 47.5397 1257.97 49.1369 L1257.97 43.2341 Q1261.47 41.88 1264.77 41.2203 Q1268.07 40.5258 1271.2 40.5258 Q1279.63 40.5258 1283.8 44.9008 Q1287.97 49.2758 1287.97 58.1646 Z" fill="#000000" fill-rule="nonzero" fill-opacity="1" /><path clip-path="url(#clip410)" d="M1333.45 56.8799 L1333.45 80.352 L1327.06 80.352 L1327.06 57.0882 Q1327.06 51.5674 1324.91 48.8244 Q1322.76 46.0814 1318.45 46.0814 Q1313.28 46.0814 1310.29 49.3799 Q1307.31 52.6785 1307.31 58.373 L1307.31 80.352 L1300.88 80.352 L1300.88 41.4633 L1307.31 41.4633 L1307.31 47.505 Q1309.6 43.998 1312.69 42.2619 Q1315.81 40.5258 1319.88 40.5258 Q1326.58 40.5258 1330.01 44.6925 Q1333.45 48.8244 1333.45 56.8799 Z" fill="#000000" fill-rule="nonzero" fill-opacity="1" /><path clip-path="url(#clip410)" d="M1399.08 48.9286 Q1401.47 44.623 1404.81 42.5744 Q1408.14 40.5258 1412.65 40.5258 Q1418.73 40.5258 1422.03 44.7966 Q1425.33 49.0327 1425.33 56.8799 L1425.33 80.352 L1418.9 80.352 L1418.9 57.0882 Q1418.9 51.498 1416.92 48.7897 Q1414.94 46.0814 1410.88 46.0814 Q1405.92 46.0814 1403.03 49.3799 Q1400.15 52.6785 1400.15 58.373 L1400.15 80.352 L1393.73 80.352 L1393.73 57.0882 Q1393.73 51.4633 1391.75 48.7897 Q1389.77 46.0814 1385.64 46.0814 Q1380.74 46.0814 1377.86 49.4147 Q1374.98 52.7133 1374.98 58.373 L1374.98 80.352 L1368.56 80.352 L1368.56 41.4633 L1374.98 41.4633 L1374.98 47.505 Q1377.17 43.9286 1380.22 42.2272 Q1383.28 40.5258 1387.48 40.5258 Q1391.72 40.5258 1394.67 42.6786 Q1397.65 44.8314 1399.08 48.9286 Z" fill="#000000" fill-rule="nonzero" fill-opacity="1" /><path clip-path="url(#clip410)" d="M1455.74 60.8035 Q1448 60.8035 1445.01 62.5743 Q1442.03 64.3451 1442.03 68.616 Q1442.03 72.0187 1444.25 74.0326 Q1446.51 76.0117 1450.36 76.0117 Q1455.67 76.0117 1458.87 72.2618 Q1462.1 68.4771 1462.1 62.2271 L1462.1 60.8035 L1455.74 60.8035 M1468.49 58.1646 L1468.49 80.352 L1462.1 80.352 L1462.1 74.4493 Q1459.91 77.9909 1456.65 79.6923 Q1453.38 81.3589 1448.66 81.3589 Q1442.69 81.3589 1439.15 78.0256 Q1435.64 74.6576 1435.64 69.0326 Q1435.64 62.4702 1440.01 59.1368 Q1444.42 55.8035 1453.14 55.8035 L1462.1 55.8035 L1462.1 55.1785 Q1462.1 50.7688 1459.18 48.373 Q1456.3 45.9425 1451.06 45.9425 Q1447.72 45.9425 1444.56 46.7411 Q1441.4 47.5397 1438.49 49.1369 L1438.49 43.2341 Q1441.99 41.88 1445.29 41.2203 Q1448.59 40.5258 1451.72 40.5258 Q1460.15 40.5258 1464.32 44.9008 Q1468.49 49.2758 1468.49 58.1646 Z" fill="#000000" fill-rule="nonzero" fill-opacity="1" /><path clip-path="url(#clip410)" d="M1507.24 60.4563 Q1507.24 53.5119 1504.35 49.6924 Q1501.51 45.873 1496.33 45.873 Q1491.19 45.873 1488.31 49.6924 Q1485.47 53.5119 1485.47 60.4563 Q1485.47 67.366 1488.31 71.1854 Q1491.19 75.0048 1496.33 75.0048 Q1501.51 75.0048 1504.35 71.1854 Q1507.24 67.366 1507.24 60.4563 M1513.62 75.5256 Q1513.62 85.4561 1509.21 90.2825 Q1504.81 95.1436 1495.71 95.1436 Q1492.34 95.1436 1489.35 94.6228 Q1486.37 94.1366 1483.56 93.095 L1483.56 86.8797 Q1486.37 88.4075 1489.11 89.1367 Q1491.85 89.8658 1494.7 89.8658 Q1500.99 89.8658 1504.11 86.5672 Q1507.24 83.3034 1507.24 76.6715 L1507.24 73.5118 Q1505.26 76.9492 1502.17 78.6506 Q1499.08 80.352 1494.77 80.352 Q1487.62 80.352 1483.24 74.9006 Q1478.87 69.4493 1478.87 60.4563 Q1478.87 51.4285 1483.24 45.9772 Q1487.62 40.5258 1494.77 40.5258 Q1499.08 40.5258 1502.17 42.2272 Q1505.26 43.9286 1507.24 47.3661 L1507.24 41.4633 L1513.62 41.4633 L1513.62 75.5256 Z" fill="#000000" fill-rule="nonzero" fill-opacity="1" /><path clip-path="url(#clip410)" d="M1559.11 56.8799 L1559.11 80.352 L1552.72 80.352 L1552.72 57.0882 Q1552.72 51.5674 1550.57 48.8244 Q1548.42 46.0814 1544.11 46.0814 Q1538.94 46.0814 1535.95 49.3799 Q1532.96 52.6785 1532.96 58.373 L1532.96 80.352 L1526.54 80.352 L1526.54 41.4633 L1532.96 41.4633 L1532.96 47.505 Q1535.26 43.998 1538.35 42.2619 Q1541.47 40.5258 1545.53 40.5258 Q1552.24 40.5258 1555.67 44.6925 Q1559.11 48.8244 1559.11 56.8799 Z" fill="#000000" fill-rule="nonzero" fill-opacity="1" /><path clip-path="url(#clip410)" d="M1605.12 59.3104 L1605.12 62.4354 L1575.74 62.4354 Q1576.16 69.0326 1579.7 72.5048 Q1583.28 75.9423 1589.63 75.9423 Q1593.31 75.9423 1596.75 75.0395 Q1600.22 74.1368 1603.62 72.3312 L1603.62 78.3728 Q1600.19 79.8312 1596.58 80.5951 Q1592.96 81.3589 1589.25 81.3589 Q1579.94 81.3589 1574.49 75.9423 Q1569.08 70.5257 1569.08 61.2896 Q1569.08 51.741 1574.21 46.1508 Q1579.39 40.5258 1588.14 40.5258 Q1595.99 40.5258 1600.53 45.5952 Q1605.12 50.6299 1605.12 59.3104 M1598.73 57.4355 Q1598.66 52.1924 1595.78 49.0674 Q1592.93 45.9425 1588.21 45.9425 Q1582.86 45.9425 1579.63 48.9633 Q1576.44 51.9841 1575.95 57.4702 L1598.73 57.4355 Z" fill="#000000" fill-rule="nonzero" fill-opacity="1" /><path clip-path="url(#clip410)" d="M1621.92 30.4217 L1621.92 41.4633 L1635.08 41.4633 L1635.08 46.4286 L1621.92 46.4286 L1621.92 67.5396 Q1621.92 72.2965 1623.21 73.6506 Q1624.53 75.0048 1628.52 75.0048 L1635.08 75.0048 L1635.08 80.352 L1628.52 80.352 Q1621.12 80.352 1618.31 77.609 Q1615.5 74.8312 1615.5 67.5396 L1615.5 46.4286 L1610.81 46.4286 L1610.81 41.4633 L1615.5 41.4633 L1615.5 30.4217 L1621.92 30.4217 Z" fill="#000000" fill-rule="nonzero" fill-opacity="1" /><path clip-path="url(#clip410)" d="M1643.49 41.4633 L1649.87 41.4633 L1649.87 80.352 L1643.49 80.352 L1643.49 41.4633 M1643.49 26.3245 L1649.87 26.3245 L1649.87 34.4147 L1643.49 34.4147 L1643.49 26.3245 Z" fill="#000000" fill-rule="nonzero" fill-opacity="1" /><path clip-path="url(#clip410)" d="M1688.03 42.6091 L1688.03 48.6508 Q1685.33 47.2619 1682.41 46.5675 Q1679.49 45.873 1676.37 45.873 Q1671.61 45.873 1669.21 47.3313 Q1666.85 48.7897 1666.85 51.7063 Q1666.85 53.9285 1668.55 55.2132 Q1670.26 56.4632 1675.39 57.6091 L1677.58 58.0952 Q1684.39 59.5535 1687.23 62.2271 Q1690.12 64.866 1690.12 69.6229 Q1690.12 75.0395 1685.81 78.1992 Q1681.54 81.3589 1674.04 81.3589 Q1670.92 81.3589 1667.51 80.7339 Q1664.14 80.1437 1660.39 78.9284 L1660.39 72.3312 Q1663.94 74.1715 1667.37 75.109 Q1670.81 76.0117 1674.18 76.0117 Q1678.69 76.0117 1681.12 74.484 Q1683.55 72.9215 1683.55 70.109 Q1683.55 67.5048 1681.78 66.116 Q1680.05 64.7271 1674.11 63.4424 L1671.89 62.9215 Q1665.95 61.6715 1663.31 59.1021 Q1660.67 56.498 1660.67 51.9841 Q1660.67 46.498 1664.56 43.5119 Q1668.45 40.5258 1675.6 40.5258 Q1679.14 40.5258 1682.27 41.0467 Q1685.39 41.5675 1688.03 42.6091 Z" fill="#000000" fill-rule="nonzero" fill-opacity="1" /><path clip-path="url(#clip410)" d="M1717.96 60.8035 Q1710.22 60.8035 1707.23 62.5743 Q1704.25 64.3451 1704.25 68.616 Q1704.25 72.0187 1706.47 74.0326 Q1708.73 76.0117 1712.58 76.0117 Q1717.89 76.0117 1721.09 72.2618 Q1724.32 68.4771 1724.32 62.2271 L1724.32 60.8035 L1717.96 60.8035 M1730.71 58.1646 L1730.71 80.352 L1724.32 80.352 L1724.32 74.4493 Q1722.13 77.9909 1718.87 79.6923 Q1715.6 81.3589 1710.88 81.3589 Q1704.91 81.3589 1701.37 78.0256 Q1697.86 74.6576 1697.86 69.0326 Q1697.86 62.4702 1702.23 59.1368 Q1706.64 55.8035 1715.36 55.8035 L1724.32 55.8035 L1724.32 55.1785 Q1724.32 50.7688 1721.4 48.373 Q1718.52 45.9425 1713.28 45.9425 Q1709.94 45.9425 1706.78 46.7411 Q1703.62 47.5397 1700.71 49.1369 L1700.71 43.2341 Q1704.21 41.88 1707.51 41.2203 Q1710.81 40.5258 1713.94 40.5258 Q1722.37 40.5258 1726.54 44.9008 Q1730.71 49.2758 1730.71 58.1646 Z" fill="#000000" fill-rule="nonzero" fill-opacity="1" /><path clip-path="url(#clip410)" d="M1750.19 30.4217 L1750.19 41.4633 L1763.35 41.4633 L1763.35 46.4286 L1750.19 46.4286 L1750.19 67.5396 Q1750.19 72.2965 1751.47 73.6506 Q1752.79 75.0048 1756.78 75.0048 L1763.35 75.0048 L1763.35 80.352 L1756.78 80.352 Q1749.39 80.352 1746.57 77.609 Q1743.76 74.8312 1743.76 67.5396 L1743.76 46.4286 L1739.07 46.4286 L1739.07 41.4633 L1743.76 41.4633 L1743.76 30.4217 L1750.19 30.4217 Z" fill="#000000" fill-rule="nonzero" fill-opacity="1" /><path clip-path="url(#clip410)" d="M1771.75 41.4633 L1778.14 41.4633 L1778.14 80.352 L1771.75 80.352 L1771.75 41.4633 M1771.75 26.3245 L1778.14 26.3245 L1778.14 34.4147 L1771.75 34.4147 L1771.75 26.3245 Z" fill="#000000" fill-rule="nonzero" fill-opacity="1" /><path clip-path="url(#clip410)" d="M1806.57 45.9425 Q1801.44 45.9425 1798.45 49.9702 Q1795.46 53.9633 1795.46 60.9424 Q1795.46 67.9215 1798.41 71.9493 Q1801.4 75.9423 1806.57 75.9423 Q1811.68 75.9423 1814.66 71.9145 Q1817.65 67.8868 1817.65 60.9424 Q1817.65 54.0327 1814.66 50.0049 Q1811.68 45.9425 1806.57 45.9425 M1806.57 40.5258 Q1814.91 40.5258 1819.66 45.9425 Q1824.42 51.3591 1824.42 60.9424 Q1824.42 70.4909 1819.66 75.9423 Q1814.91 81.3589 1806.57 81.3589 Q1798.21 81.3589 1793.45 75.9423 Q1788.73 70.4909 1788.73 60.9424 Q1788.73 51.3591 1793.45 45.9425 Q1798.21 40.5258 1806.57 40.5258 Z" fill="#000000" fill-rule="nonzero" fill-opacity="1" /><path clip-path="url(#clip410)" d="M1867.34 56.8799 L1867.34 80.352 L1860.95 80.352 L1860.95 57.0882 Q1860.95 51.5674 1858.8 48.8244 Q1856.64 46.0814 1852.34 46.0814 Q1847.16 46.0814 1844.18 49.3799 Q1841.19 52.6785 1841.19 58.373 L1841.19 80.352 L1834.77 80.352 L1834.77 41.4633 L1841.19 41.4633 L1841.19 47.505 Q1843.48 43.998 1846.57 42.2619 Q1849.7 40.5258 1853.76 40.5258 Q1860.46 40.5258 1863.9 44.6925 Q1867.34 48.8244 1867.34 56.8799 Z" fill="#000000" fill-rule="nonzero" fill-opacity="1" /><path clip-path="url(#clip410)" d="M1922.37 26.3245 L1922.37 31.637 L1916.26 31.637 Q1912.82 31.637 1911.47 33.0259 Q1910.15 34.4147 1910.15 38.0258 L1910.15 41.4633 L1920.67 41.4633 L1920.67 46.4286 L1910.15 46.4286 L1910.15 80.352 L1903.73 80.352 L1903.73 46.4286 L1897.62 46.4286 L1897.62 41.4633 L1903.73 41.4633 L1903.73 38.755 Q1903.73 32.262 1906.75 29.3106 Q1909.77 26.3245 1916.33 26.3245 L1922.37 26.3245 Z" fill="#000000" fill-rule="nonzero" fill-opacity="1" /><path clip-path="url(#clip410)" d="M1942.79 45.9425 Q1937.65 45.9425 1934.66 49.9702 Q1931.68 53.9633 1931.68 60.9424 Q1931.68 67.9215 1934.63 71.9493 Q1937.62 75.9423 1942.79 75.9423 Q1947.89 75.9423 1950.88 71.9145 Q1953.87 67.8868 1953.87 60.9424 Q1953.87 54.0327 1950.88 50.0049 Q1947.89 45.9425 1942.79 45.9425 M1942.79 40.5258 Q1951.12 40.5258 1955.88 45.9425 Q1960.64 51.3591 1960.64 60.9424 Q1960.64 70.4909 1955.88 75.9423 Q1951.12 81.3589 1942.79 81.3589 Q1934.42 81.3589 1929.66 75.9423 Q1924.94 70.4909 1924.94 60.9424 Q1924.94 51.3591 1929.66 45.9425 Q1934.42 40.5258 1942.79 40.5258 Z" fill="#000000" fill-rule="nonzero" fill-opacity="1" /><path clip-path="url(#clip410)" d="M1993.76 47.4355 Q1992.68 46.8105 1991.4 46.5327 Q1990.15 46.2202 1988.62 46.2202 Q1983.21 46.2202 1980.29 49.7619 Q1977.41 53.2688 1977.41 59.866 L1977.41 80.352 L1970.98 80.352 L1970.98 41.4633 L1977.41 41.4633 L1977.41 47.505 Q1979.42 43.9633 1982.65 42.2619 Q1985.88 40.5258 1990.5 40.5258 Q1991.16 40.5258 1991.96 40.63 Q1992.75 40.6994 1993.73 40.873 L1993.76 47.4355 Z" fill="#000000" fill-rule="nonzero" fill-opacity="1" /><path clip-path="url(#clip410)" d="M2023.07 26.3245 L2029.46 26.3245 L2029.46 80.352 L2023.07 80.352 L2023.07 26.3245 Z" fill="#000000" fill-rule="nonzero" fill-opacity="1" /><path clip-path="url(#clip410)" d="M2060.5 60.8035 Q2052.75 60.8035 2049.77 62.5743 Q2046.78 64.3451 2046.78 68.616 Q2046.78 72.0187 2049 74.0326 Q2051.26 76.0117 2055.11 76.0117 Q2060.43 76.0117 2063.62 72.2618 Q2066.85 68.4771 2066.85 62.2271 L2066.85 60.8035 L2060.5 60.8035 M2073.24 58.1646 L2073.24 80.352 L2066.85 80.352 L2066.85 74.4493 Q2064.66 77.9909 2061.4 79.6923 Q2058.14 81.3589 2053.41 81.3589 Q2047.44 81.3589 2043.9 78.0256 Q2040.39 74.6576 2040.39 69.0326 Q2040.39 62.4702 2044.77 59.1368 Q2049.18 55.8035 2057.89 55.8035 L2066.85 55.8035 L2066.85 55.1785 Q2066.85 50.7688 2063.93 48.373 Q2061.05 45.9425 2055.81 45.9425 Q2052.48 45.9425 2049.32 46.7411 Q2046.16 47.5397 2043.24 49.1369 L2043.24 43.2341 Q2046.75 41.88 2050.05 41.2203 Q2053.34 40.5258 2056.47 40.5258 Q2064.91 40.5258 2069.07 44.9008 Q2073.24 49.2758 2073.24 58.1646 Z" fill="#000000" fill-rule="nonzero" fill-opacity="1" /><path clip-path="url(#clip410)" d="M2111.19 42.6091 L2111.19 48.6508 Q2108.48 47.2619 2105.57 46.5675 Q2102.65 45.873 2099.52 45.873 Q2094.77 45.873 2092.37 47.3313 Q2090.01 48.7897 2090.01 51.7063 Q2090.01 53.9285 2091.71 55.2132 Q2093.41 56.4632 2098.55 57.6091 L2100.74 58.0952 Q2107.55 59.5535 2110.39 62.2271 Q2113.27 64.866 2113.27 69.6229 Q2113.27 75.0395 2108.97 78.1992 Q2104.7 81.3589 2097.2 81.3589 Q2094.07 81.3589 2090.67 80.7339 Q2087.3 80.1437 2083.55 78.9284 L2083.55 72.3312 Q2087.09 74.1715 2090.53 75.109 Q2093.97 76.0117 2097.34 76.0117 Q2101.85 76.0117 2104.28 74.484 Q2106.71 72.9215 2106.71 70.109 Q2106.71 67.5048 2104.94 66.116 Q2103.2 64.7271 2097.27 63.4424 L2095.05 62.9215 Q2089.11 61.6715 2086.47 59.1021 Q2083.83 56.498 2083.83 51.9841 Q2083.83 46.498 2087.72 43.5119 Q2091.61 40.5258 2098.76 40.5258 Q2102.3 40.5258 2105.43 41.0467 Q2108.55 41.5675 2111.19 42.6091 Z" fill="#000000" fill-rule="nonzero" fill-opacity="1" /><path clip-path="url(#clip410)" d="M2129.77 30.4217 L2129.77 41.4633 L2142.93 41.4633 L2142.93 46.4286 L2129.77 46.4286 L2129.77 67.5396 Q2129.77 72.2965 2131.05 73.6506 Q2132.37 75.0048 2136.36 75.0048 L2142.93 75.0048 L2142.93 80.352 L2136.36 80.352 Q2128.97 80.352 2126.16 77.609 Q2123.34 74.8312 2123.34 67.5396 L2123.34 46.4286 L2118.66 46.4286 L2118.66 41.4633 L2123.34 41.4633 L2123.34 30.4217 L2129.77 30.4217 Z" fill="#000000" fill-rule="nonzero" fill-opacity="1" /><path clip-path="url(#clip410)" d="M2176.05 74.4493 L2187.51 74.4493 L2187.51 34.9009 L2175.04 37.4008 L2175.04 31.012 L2187.44 28.512 L2194.45 28.512 L2194.45 74.4493 L2205.91 74.4493 L2205.91 80.352 L2176.05 80.352 L2176.05 74.4493 Z" fill="#000000" fill-rule="nonzero" fill-opacity="1" /><path clip-path="url(#clip410)" d="M2235.08 33.13 Q2229.66 33.13 2226.92 38.4772 Q2224.21 43.7897 2224.21 54.4841 Q2224.21 65.1437 2226.92 70.4909 Q2229.66 75.8034 2235.08 75.8034 Q2240.53 75.8034 2243.24 70.4909 Q2245.98 65.1437 2245.98 54.4841 Q2245.98 43.7897 2243.24 38.4772 Q2240.53 33.13 2235.08 33.13 M2235.08 27.5745 Q2243.79 27.5745 2248.38 34.4842 Q2253 41.3592 2253 54.4841 Q2253 67.5743 2248.38 74.484 Q2243.79 81.3589 2235.08 81.3589 Q2226.36 81.3589 2221.75 74.484 Q2217.16 67.5743 2217.16 54.4841 Q2217.16 41.3592 2221.75 34.4842 Q2226.36 27.5745 2235.08 27.5745 Z" fill="#000000" fill-rule="nonzero" fill-opacity="1" /><path clip-path="url(#clip410)" d="M322.346 120.369 L322.346 126.411 Q319.638 125.022 316.721 124.327 Q313.805 123.633 310.68 123.633 Q305.923 123.633 303.527 125.091 Q301.166 126.55 301.166 129.466 Q301.166 131.689 302.867 132.973 Q304.569 134.223 309.708 135.369 L311.895 135.855 Q318.701 137.314 321.548 139.987 Q324.43 142.626 324.43 147.383 Q324.43 152.8 320.124 155.959 Q315.853 159.119 308.353 159.119 Q305.228 159.119 301.826 158.494 Q298.458 157.904 294.708 156.688 L294.708 150.091 Q298.249 151.931 301.687 152.869 Q305.124 153.772 308.492 153.772 Q313.006 153.772 315.437 152.244 Q317.867 150.681 317.867 147.869 Q317.867 145.265 316.096 143.876 Q314.36 142.487 308.423 141.202 L306.201 140.682 Q300.263 139.432 297.624 136.862 Q294.985 134.258 294.985 129.744 Q294.985 124.258 298.874 121.272 Q302.763 118.286 309.916 118.286 Q313.458 118.286 316.582 118.807 Q319.707 119.327 322.346 120.369 Z" fill="#000000" fill-rule="nonzero" fill-opacity="1" /><path clip-path="url(#clip410)" d="M340.923 108.182 L340.923 119.223 L354.082 119.223 L354.082 124.189 L340.923 124.189 L340.923 145.3 Q340.923 150.056 342.207 151.411 Q343.527 152.765 347.52 152.765 L354.082 152.765 L354.082 158.112 L347.52 158.112 Q340.124 158.112 337.312 155.369 Q334.499 152.591 334.499 145.3 L334.499 124.189 L329.812 124.189 L329.812 119.223 L334.499 119.223 L334.499 108.182 L340.923 108.182 Z" fill="#000000" fill-rule="nonzero" fill-opacity="1" /><path clip-path="url(#clip410)" d="M395.749 137.07 L395.749 140.195 L366.374 140.195 Q366.791 146.793 370.332 150.265 Q373.909 153.702 380.263 153.702 Q383.943 153.702 387.381 152.8 Q390.853 151.897 394.256 150.091 L394.256 156.133 Q390.818 157.591 387.207 158.355 Q383.596 159.119 379.881 159.119 Q370.575 159.119 365.124 153.702 Q359.707 148.286 359.707 139.05 Q359.707 129.501 364.846 123.911 Q370.02 118.286 378.77 118.286 Q386.617 118.286 391.165 123.355 Q395.749 128.39 395.749 137.07 M389.36 135.195 Q389.29 129.952 386.409 126.827 Q383.561 123.702 378.839 123.702 Q373.492 123.702 370.263 126.723 Q367.068 129.744 366.582 135.23 L389.36 135.195 Z" fill="#000000" fill-rule="nonzero" fill-opacity="1" /><path clip-path="url(#clip410)" d="M412.415 152.279 L412.415 172.904 L405.992 172.904 L405.992 119.223 L412.415 119.223 L412.415 125.126 Q414.429 121.654 417.485 119.987 Q420.575 118.286 424.846 118.286 Q431.929 118.286 436.339 123.911 Q440.783 129.536 440.783 138.702 Q440.783 147.869 436.339 153.494 Q431.929 159.119 424.846 159.119 Q420.575 159.119 417.485 157.452 Q414.429 155.751 412.415 152.279 M434.151 138.702 Q434.151 131.654 431.235 127.661 Q428.353 123.633 423.283 123.633 Q418.214 123.633 415.297 127.661 Q412.415 131.654 412.415 138.702 Q412.415 145.751 415.297 149.779 Q418.214 153.772 423.283 153.772 Q428.353 153.772 431.235 149.779 Q434.151 145.751 434.151 138.702 Z" fill="#000000" fill-rule="nonzero" fill-opacity="1" /><path clip-path="url(#clip410)" d="M476.165 120.369 L476.165 126.411 Q473.457 125.022 470.54 124.327 Q467.623 123.633 464.498 123.633 Q459.741 123.633 457.346 125.091 Q454.985 126.55 454.985 129.466 Q454.985 131.689 456.686 132.973 Q458.387 134.223 463.526 135.369 L465.714 135.855 Q472.519 137.314 475.366 139.987 Q478.248 142.626 478.248 147.383 Q478.248 152.8 473.943 155.959 Q469.672 159.119 462.172 159.119 Q459.047 159.119 455.644 158.494 Q452.276 157.904 448.526 156.688 L448.526 150.091 Q452.068 151.931 455.505 152.869 Q458.943 153.772 462.311 153.772 Q466.825 153.772 469.255 152.244 Q471.686 150.681 471.686 147.869 Q471.686 145.265 469.915 143.876 Q468.179 142.487 462.241 141.202 L460.019 140.682 Q454.082 139.432 451.443 136.862 Q448.804 134.258 448.804 129.744 Q448.804 124.258 452.693 121.272 Q456.582 118.286 463.734 118.286 Q467.276 118.286 470.401 118.807 Q473.526 119.327 476.165 120.369 Z" fill="#000000" fill-rule="nonzero" fill-opacity="1" /><path clip-path="url(#clip410)" d="M511.026 119.223 L517.415 119.223 L517.415 158.112 L511.026 158.112 L511.026 119.223 M511.026 104.085 L517.415 104.085 L517.415 112.175 L511.026 112.175 L511.026 104.085 Z" fill="#000000" fill-rule="nonzero" fill-opacity="1" /><path clip-path="url(#clip410)" d="M563.109 134.64 L563.109 158.112 L556.72 158.112 L556.72 134.848 Q556.72 129.327 554.567 126.584 Q552.415 123.841 548.109 123.841 Q542.935 123.841 539.949 127.14 Q536.963 130.439 536.963 136.133 L536.963 158.112 L530.54 158.112 L530.54 119.223 L536.963 119.223 L536.963 125.265 Q539.255 121.758 542.345 120.022 Q545.47 118.286 549.533 118.286 Q556.234 118.286 559.671 122.452 Q563.109 126.584 563.109 134.64 Z" fill="#000000" fill-rule="nonzero" fill-opacity="1" /><path clip-path="url(#clip410)" d="M598.734 106.272 L609.185 106.272 L622.414 141.55 L635.713 106.272 L646.164 106.272 L646.164 158.112 L639.324 158.112 L639.324 112.591 L625.956 148.147 L618.907 148.147 L605.539 112.591 L605.539 158.112 L598.734 158.112 L598.734 106.272 Z" fill="#000000" fill-rule="nonzero" fill-opacity="1" /><path clip-path="url(#clip410)" d="M674.879 123.702 Q669.74 123.702 666.754 127.73 Q663.768 131.723 663.768 138.702 Q663.768 145.682 666.719 149.709 Q669.706 153.702 674.879 153.702 Q679.983 153.702 682.969 149.675 Q685.956 145.647 685.956 138.702 Q685.956 131.793 682.969 127.765 Q679.983 123.702 674.879 123.702 M674.879 118.286 Q683.212 118.286 687.969 123.702 Q692.726 129.119 692.726 138.702 Q692.726 148.251 687.969 153.702 Q683.212 159.119 674.879 159.119 Q666.511 159.119 661.754 153.702 Q657.032 148.251 657.032 138.702 Q657.032 129.119 661.754 123.702 Q666.511 118.286 674.879 118.286 Z" fill="#000000" fill-rule="nonzero" fill-opacity="1" /><path clip-path="url(#clip410)" d="M735.643 134.64 L735.643 158.112 L729.254 158.112 L729.254 134.848 Q729.254 129.327 727.101 126.584 Q724.948 123.841 720.643 123.841 Q715.469 123.841 712.483 127.14 Q709.497 130.439 709.497 136.133 L709.497 158.112 L703.073 158.112 L703.073 119.223 L709.497 119.223 L709.497 125.265 Q711.789 121.758 714.879 120.022 Q718.004 118.286 722.066 118.286 Q728.768 118.286 732.205 122.452 Q735.643 126.584 735.643 134.64 Z" fill="#000000" fill-rule="nonzero" fill-opacity="1" /><path clip-path="url(#clip410)" d="M754.705 108.182 L754.705 119.223 L767.865 119.223 L767.865 124.189 L754.705 124.189 L754.705 145.3 Q754.705 150.056 755.99 151.411 Q757.309 152.765 761.302 152.765 L767.865 152.765 L767.865 158.112 L761.302 158.112 Q753.907 158.112 751.094 155.369 Q748.282 152.591 748.282 145.3 L748.282 124.189 L743.594 124.189 L743.594 119.223 L748.282 119.223 L748.282 108.182 L754.705 108.182 Z" fill="#000000" fill-rule="nonzero" fill-opacity="1" /><path clip-path="url(#clip410)" d="M809.531 137.07 L809.531 140.195 L780.156 140.195 Q780.573 146.793 784.115 150.265 Q787.691 153.702 794.045 153.702 Q797.726 153.702 801.163 152.8 Q804.635 151.897 808.038 150.091 L808.038 156.133 Q804.601 157.591 800.99 158.355 Q797.379 159.119 793.663 159.119 Q784.358 159.119 778.906 153.702 Q773.49 148.286 773.49 139.05 Q773.49 129.501 778.629 123.911 Q783.802 118.286 792.552 118.286 Q800.399 118.286 804.948 123.355 Q809.531 128.39 809.531 137.07 M803.142 135.195 Q803.073 129.952 800.191 126.827 Q797.344 123.702 792.622 123.702 Q787.274 123.702 784.045 126.723 Q780.851 129.744 780.365 135.23 L803.142 135.195 Z" fill="#000000" fill-rule="nonzero" fill-opacity="1" /><path clip-path="url(#clip410)" d="M881.718 110.265 L881.718 117.661 Q878.177 114.362 874.149 112.73 Q870.156 111.098 865.642 111.098 Q856.753 111.098 852.031 116.55 Q847.309 121.966 847.309 132.244 Q847.309 142.487 852.031 147.938 Q856.753 153.355 865.642 153.355 Q870.156 153.355 874.149 151.723 Q878.177 150.091 881.718 146.793 L881.718 154.119 Q878.038 156.619 873.906 157.869 Q869.809 159.119 865.225 159.119 Q853.455 159.119 846.684 151.931 Q839.913 144.709 839.913 132.244 Q839.913 119.744 846.684 112.557 Q853.455 105.335 865.225 105.335 Q869.878 105.335 873.975 106.584 Q878.107 107.8 881.718 110.265 Z" fill="#000000" fill-rule="nonzero" fill-opacity="1" /><path clip-path="url(#clip410)" d="M909.947 138.563 Q902.204 138.563 899.218 140.334 Q896.232 142.105 896.232 146.376 Q896.232 149.779 898.454 151.793 Q900.711 153.772 904.565 153.772 Q909.878 153.772 913.072 150.022 Q916.301 146.237 916.301 139.987 L916.301 138.563 L909.947 138.563 M922.69 135.925 L922.69 158.112 L916.301 158.112 L916.301 152.209 Q914.114 155.751 910.85 157.452 Q907.586 159.119 902.864 159.119 Q896.892 159.119 893.35 155.786 Q889.843 152.418 889.843 146.793 Q889.843 140.23 894.218 136.897 Q898.628 133.564 907.343 133.564 L916.301 133.564 L916.301 132.939 Q916.301 128.529 913.385 126.133 Q910.503 123.702 905.26 123.702 Q901.927 123.702 898.767 124.501 Q895.607 125.3 892.691 126.897 L892.691 120.994 Q896.197 119.64 899.496 118.98 Q902.795 118.286 905.92 118.286 Q914.357 118.286 918.524 122.661 Q922.69 127.036 922.69 135.925 Z" fill="#000000" fill-rule="nonzero" fill-opacity="1" /><path clip-path="url(#clip410)" d="M958.385 125.196 Q957.308 124.571 956.024 124.293 Q954.774 123.98 953.246 123.98 Q947.829 123.98 944.912 127.522 Q942.031 131.029 942.031 137.626 L942.031 158.112 L935.607 158.112 L935.607 119.223 L942.031 119.223 L942.031 125.265 Q944.044 121.723 947.274 120.022 Q950.503 118.286 955.121 118.286 Q955.78 118.286 956.579 118.39 Q957.378 118.459 958.35 118.633 L958.385 125.196 Z" fill="#000000" fill-rule="nonzero" fill-opacity="1" /><path clip-path="url(#clip410)" d="M965.086 104.085 L971.475 104.085 L971.475 158.112 L965.086 158.112 L965.086 104.085 Z" fill="#000000" fill-rule="nonzero" fill-opacity="1" /><path clip-path="url(#clip410)" d="M999.912 123.702 Q994.773 123.702 991.787 127.73 Q988.801 131.723 988.801 138.702 Q988.801 145.682 991.752 149.709 Q994.739 153.702 999.912 153.702 Q1005.02 153.702 1008 149.675 Q1010.99 145.647 1010.99 138.702 Q1010.99 131.793 1008 127.765 Q1005.02 123.702 999.912 123.702 M999.912 118.286 Q1008.25 118.286 1013 123.702 Q1017.76 129.119 1017.76 138.702 Q1017.76 148.251 1013 153.702 Q1008.25 159.119 999.912 159.119 Q991.544 159.119 986.787 153.702 Q982.065 148.251 982.065 138.702 Q982.065 129.119 986.787 123.702 Q991.544 118.286 999.912 118.286 Z" fill="#000000" fill-rule="nonzero" fill-opacity="1" /><path clip-path="url(#clip410)" d="M1078.94 120.716 L1078.94 126.689 Q1076.23 125.196 1073.49 124.466 Q1070.78 123.702 1068 123.702 Q1061.79 123.702 1058.35 127.661 Q1054.91 131.584 1054.91 138.702 Q1054.91 145.82 1058.35 149.779 Q1061.79 153.702 1068 153.702 Q1070.78 153.702 1073.49 152.973 Q1076.23 152.209 1078.94 150.716 L1078.94 156.619 Q1076.27 157.869 1073.38 158.494 Q1070.54 159.119 1067.31 159.119 Q1058.52 159.119 1053.35 153.598 Q1048.18 148.077 1048.18 138.702 Q1048.18 129.189 1053.38 123.737 Q1058.63 118.286 1067.72 118.286 Q1070.68 118.286 1073.49 118.911 Q1076.3 119.501 1078.94 120.716 Z" fill="#000000" fill-rule="nonzero" fill-opacity="1" /><path clip-path="url(#clip410)" d="M1122.38 134.64 L1122.38 158.112 L1115.99 158.112 L1115.99 134.848 Q1115.99 129.327 1113.84 126.584 Q1111.68 123.841 1107.38 123.841 Q1102.2 123.841 1099.22 127.14 Q1096.23 130.439 1096.23 136.133 L1096.23 158.112 L1089.81 158.112 L1089.81 104.085 L1096.23 104.085 L1096.23 125.265 Q1098.52 121.758 1101.61 120.022 Q1104.74 118.286 1108.8 118.286 Q1115.5 118.286 1118.94 122.452 Q1122.38 126.584 1122.38 134.64 Z" fill="#000000" fill-rule="nonzero" fill-opacity="1" /><path clip-path="url(#clip410)" d="M1152.79 138.563 Q1145.05 138.563 1142.06 140.334 Q1139.08 142.105 1139.08 146.376 Q1139.08 149.779 1141.3 151.793 Q1143.56 153.772 1147.41 153.772 Q1152.72 153.772 1155.92 150.022 Q1159.15 146.237 1159.15 139.987 L1159.15 138.563 L1152.79 138.563 M1165.54 135.925 L1165.54 158.112 L1159.15 158.112 L1159.15 152.209 Q1156.96 155.751 1153.7 157.452 Q1150.43 159.119 1145.71 159.119 Q1139.74 159.119 1136.2 155.786 Q1132.69 152.418 1132.69 146.793 Q1132.69 140.23 1137.06 136.897 Q1141.47 133.564 1150.19 133.564 L1159.15 133.564 L1159.15 132.939 Q1159.15 128.529 1156.23 126.133 Q1153.35 123.702 1148.11 123.702 Q1144.77 123.702 1141.61 124.501 Q1138.45 125.3 1135.54 126.897 L1135.54 120.994 Q1139.04 119.64 1142.34 118.98 Q1145.64 118.286 1148.77 118.286 Q1157.2 118.286 1161.37 122.661 Q1165.54 127.036 1165.54 135.925 Z" fill="#000000" fill-rule="nonzero" fill-opacity="1" /><path clip-path="url(#clip410)" d="M1178.7 119.223 L1185.08 119.223 L1185.08 158.112 L1178.7 158.112 L1178.7 119.223 M1178.7 104.085 L1185.08 104.085 L1185.08 112.175 L1178.7 112.175 L1178.7 104.085 Z" fill="#000000" fill-rule="nonzero" fill-opacity="1" /><path clip-path="url(#clip410)" d="M1230.78 134.64 L1230.78 158.112 L1224.39 158.112 L1224.39 134.848 Q1224.39 129.327 1222.24 126.584 Q1220.08 123.841 1215.78 123.841 Q1210.61 123.841 1207.62 127.14 Q1204.63 130.439 1204.63 136.133 L1204.63 158.112 L1198.21 158.112 L1198.21 119.223 L1204.63 119.223 L1204.63 125.265 Q1206.92 121.758 1210.02 120.022 Q1213.14 118.286 1217.2 118.286 Q1223.9 118.286 1227.34 122.452 Q1230.78 126.584 1230.78 134.64 Z" fill="#000000" fill-rule="nonzero" fill-opacity="1" /><path clip-path="url(#clip410)" d="M1262.41 119.223 L1268.8 119.223 L1276.79 149.57 L1284.74 119.223 L1292.27 119.223 L1300.26 149.57 L1308.21 119.223 L1314.6 119.223 L1304.42 158.112 L1296.89 158.112 L1288.52 126.237 L1280.12 158.112 L1272.58 158.112 L1262.41 119.223 Z" fill="#000000" fill-rule="nonzero" fill-opacity="1" /><path clip-path="url(#clip410)" d="M1324.29 119.223 L1330.67 119.223 L1330.67 158.112 L1324.29 158.112 L1324.29 119.223 M1324.29 104.085 L1330.67 104.085 L1330.67 112.175 L1324.29 112.175 L1324.29 104.085 Z" fill="#000000" fill-rule="nonzero" fill-opacity="1" /><path clip-path="url(#clip410)" d="M1350.36 108.182 L1350.36 119.223 L1363.52 119.223 L1363.52 124.189 L1350.36 124.189 L1350.36 145.3 Q1350.36 150.056 1351.65 151.411 Q1352.97 152.765 1356.96 152.765 L1363.52 152.765 L1363.52 158.112 L1356.96 158.112 Q1349.56 158.112 1346.75 155.369 Q1343.94 152.591 1343.94 145.3 L1343.94 124.189 L1339.25 124.189 L1339.25 119.223 L1343.94 119.223 L1343.94 108.182 L1350.36 108.182 Z" fill="#000000" fill-rule="nonzero" fill-opacity="1" /><path clip-path="url(#clip410)" d="M1404.25 134.64 L1404.25 158.112 L1397.86 158.112 L1397.86 134.848 Q1397.86 129.327 1395.71 126.584 Q1393.56 123.841 1389.25 123.841 Q1384.08 123.841 1381.09 127.14 Q1378.1 130.439 1378.1 136.133 L1378.1 158.112 L1371.68 158.112 L1371.68 104.085 L1378.1 104.085 L1378.1 125.265 Q1380.4 121.758 1383.49 120.022 Q1386.61 118.286 1390.67 118.286 Q1397.38 118.286 1400.81 122.452 Q1404.25 126.584 1404.25 134.64 Z" fill="#000000" fill-rule="nonzero" fill-opacity="1" /><path clip-path="url(#clip410)" d="M1435.01 119.223 L1441.78 119.223 L1453.94 151.862 L1466.09 119.223 L1472.86 119.223 L1458.28 158.112 L1449.6 158.112 L1435.01 119.223 Z" fill="#000000" fill-rule="nonzero" fill-opacity="1" /><path clip-path="url(#clip410)" d="M1499.35 138.563 Q1491.61 138.563 1488.62 140.334 Q1485.64 142.105 1485.64 146.376 Q1485.64 149.779 1487.86 151.793 Q1490.12 153.772 1493.97 153.772 Q1499.28 153.772 1502.48 150.022 Q1505.71 146.237 1505.71 139.987 L1505.71 138.563 L1499.35 138.563 M1512.1 135.925 L1512.1 158.112 L1505.71 158.112 L1505.71 152.209 Q1503.52 155.751 1500.26 157.452 Q1496.99 159.119 1492.27 159.119 Q1486.3 159.119 1482.76 155.786 Q1479.25 152.418 1479.25 146.793 Q1479.25 140.23 1483.62 136.897 Q1488.03 133.564 1496.75 133.564 L1505.71 133.564 L1505.71 132.939 Q1505.71 128.529 1502.79 126.133 Q1499.91 123.702 1494.67 123.702 Q1491.33 123.702 1488.17 124.501 Q1485.01 125.3 1482.1 126.897 L1482.1 120.994 Q1485.6 119.64 1488.9 118.98 Q1492.2 118.286 1495.33 118.286 Q1503.76 118.286 1507.93 122.661 Q1512.1 127.036 1512.1 135.925 Z" fill="#000000" fill-rule="nonzero" fill-opacity="1" /><path clip-path="url(#clip410)" d="M1547.79 125.196 Q1546.71 124.571 1545.43 124.293 Q1544.18 123.98 1542.65 123.98 Q1537.24 123.98 1534.32 127.522 Q1531.44 131.029 1531.44 137.626 L1531.44 158.112 L1525.01 158.112 L1525.01 119.223 L1531.44 119.223 L1531.44 125.265 Q1533.45 121.723 1536.68 120.022 Q1539.91 118.286 1544.53 118.286 Q1545.19 118.286 1545.99 118.39 Q1546.78 118.459 1547.76 118.633 L1547.79 125.196 Z" fill="#000000" fill-rule="nonzero" fill-opacity="1" /><path clip-path="url(#clip410)" d="M1570.67 161.723 Q1567.96 168.667 1565.4 170.786 Q1562.83 172.904 1558.52 172.904 L1553.42 172.904 L1553.42 167.556 L1557.17 167.556 Q1559.8 167.556 1561.26 166.306 Q1562.72 165.056 1564.49 160.404 L1565.64 157.487 L1549.91 119.223 L1556.68 119.223 L1568.83 149.64 L1580.99 119.223 L1587.76 119.223 L1570.67 161.723 Z" fill="#000000" fill-rule="nonzero" fill-opacity="1" /><path clip-path="url(#clip410)" d="M1596.58 119.223 L1602.96 119.223 L1602.96 158.112 L1596.58 158.112 L1596.58 119.223 M1596.58 104.085 L1602.96 104.085 L1602.96 112.175 L1596.58 112.175 L1596.58 104.085 Z" fill="#000000" fill-rule="nonzero" fill-opacity="1" /><path clip-path="url(#clip410)" d="M1648.66 134.64 L1648.66 158.112 L1642.27 158.112 L1642.27 134.848 Q1642.27 129.327 1640.12 126.584 Q1637.96 123.841 1633.66 123.841 Q1628.49 123.841 1625.5 127.14 Q1622.51 130.439 1622.51 136.133 L1622.51 158.112 L1616.09 158.112 L1616.09 119.223 L1622.51 119.223 L1622.51 125.265 Q1624.8 121.758 1627.89 120.022 Q1631.02 118.286 1635.08 118.286 Q1641.78 118.286 1645.22 122.452 Q1648.66 126.584 1648.66 134.64 Z" fill="#000000" fill-rule="nonzero" fill-opacity="1" /><path clip-path="url(#clip410)" d="M1686.99 138.216 Q1686.99 131.272 1684.11 127.452 Q1681.26 123.633 1676.09 123.633 Q1670.95 123.633 1668.07 127.452 Q1665.22 131.272 1665.22 138.216 Q1665.22 145.126 1668.07 148.945 Q1670.95 152.765 1676.09 152.765 Q1681.26 152.765 1684.11 148.945 Q1686.99 145.126 1686.99 138.216 M1693.38 153.286 Q1693.38 163.216 1688.97 168.043 Q1684.56 172.904 1675.46 172.904 Q1672.1 172.904 1669.11 172.383 Q1666.12 171.897 1663.31 170.855 L1663.31 164.64 Q1666.12 166.168 1668.87 166.897 Q1671.61 167.626 1674.46 167.626 Q1680.74 167.626 1683.87 164.327 Q1686.99 161.063 1686.99 154.431 L1686.99 151.272 Q1685.01 154.709 1681.92 156.411 Q1678.83 158.112 1674.53 158.112 Q1667.37 158.112 1663 152.661 Q1658.62 147.209 1658.62 138.216 Q1658.62 129.189 1663 123.737 Q1667.37 118.286 1674.53 118.286 Q1678.83 118.286 1681.92 119.987 Q1685.01 121.689 1686.99 125.126 L1686.99 119.223 L1693.38 119.223 L1693.38 153.286 Z" fill="#000000" fill-rule="nonzero" fill-opacity="1" /><path clip-path="url(#clip410)" d="M1729.42 106.272 L1738.87 106.272 L1761.85 149.64 L1761.85 106.272 L1768.66 106.272 L1768.66 158.112 L1759.21 158.112 L1736.23 114.744 L1736.23 158.112 L1729.42 158.112 L1729.42 106.272 Z" fill="#000000" fill-rule="nonzero" fill-opacity="1" /><path clip-path="url(#clip410)" d="M1783.97 149.293 L1791.3 149.293 L1791.3 155.265 L1785.6 166.376 L1781.12 166.376 L1783.97 155.265 L1783.97 149.293 Z" fill="#000000" fill-rule="nonzero" fill-opacity="1" /><path clip-path="url(#clip410)" d="M1820.64 106.272 L1864.49 106.272 L1864.49 112.175 L1846.09 112.175 L1846.09 158.112 L1839.04 158.112 L1839.04 112.175 L1820.64 112.175 L1820.64 106.272 Z" fill="#000000" fill-rule="nonzero" fill-opacity="1" /><path clip-path="url(#clip410)" d="M1871.82 125.821 L1916.33 125.821 L1916.33 131.654 L1871.82 131.654 L1871.82 125.821 M1871.82 139.987 L1916.33 139.987 L1916.33 145.89 L1871.82 145.89 L1871.82 139.987 Z" fill="#000000" fill-rule="nonzero" fill-opacity="1" /><path clip-path="url(#clip410)" d="M1950.74 112.383 L1933.03 140.057 L1950.74 140.057 L1950.74 112.383 M1948.9 106.272 L1957.72 106.272 L1957.72 140.057 L1965.12 140.057 L1965.12 145.89 L1957.72 145.89 L1957.72 158.112 L1950.74 158.112 L1950.74 145.89 L1927.34 145.89 L1927.34 139.119 L1948.9 106.272 Z" fill="#000000" fill-rule="nonzero" fill-opacity="1" /><path clip-path="url(#clip410)" d="M1977.44 149.293 L1984.77 149.293 L1984.77 155.265 L1979.07 166.376 L1974.59 166.376 L1977.44 155.265 L1977.44 149.293 Z" fill="#000000" fill-rule="nonzero" fill-opacity="1" /><path clip-path="url(#clip410)" d="M2021.02 119.223 L2027.41 119.223 L2027.41 158.112 L2021.02 158.112 L2021.02 119.223 M2021.02 104.085 L2027.41 104.085 L2027.41 112.175 L2021.02 112.175 L2021.02 104.085 Z" fill="#000000" fill-rule="nonzero" fill-opacity="1" /><path clip-path="url(#clip410)" d="M2041.61 125.821 L2086.12 125.821 L2086.12 131.654 L2041.61 131.654 L2041.61 125.821 M2041.61 139.987 L2086.12 139.987 L2086.12 145.89 L2041.61 145.89 L2041.61 139.987 Z" fill="#000000" fill-rule="nonzero" fill-opacity="1" /><path clip-path="url(#clip410)" d="M2102.48 152.209 L2113.93 152.209 L2113.93 112.661 L2101.47 115.161 L2101.47 108.772 L2113.86 106.272 L2120.88 106.272 L2120.88 152.209 L2132.34 152.209 L2132.34 158.112 L2102.48 158.112 L2102.48 152.209 Z" fill="#000000" fill-rule="nonzero" fill-opacity="1" /><path clip-path="url(#clip410)" d="M2161.5 110.89 Q2156.09 110.89 2153.34 116.237 Q2150.64 121.55 2150.64 132.244 Q2150.64 142.904 2153.34 148.251 Q2156.09 153.563 2161.5 153.563 Q2166.95 153.563 2169.66 148.251 Q2172.41 142.904 2172.41 132.244 Q2172.41 121.55 2169.66 116.237 Q2166.95 110.89 2161.5 110.89 M2161.5 105.335 Q2170.22 105.335 2174.8 112.244 Q2179.42 119.119 2179.42 132.244 Q2179.42 145.334 2174.8 152.244 Q2170.22 159.119 2161.5 159.119 Q2152.79 159.119 2148.17 152.244 Q2143.59 145.334 2143.59 132.244 Q2143.59 119.119 2148.17 112.244 Q2152.79 105.335 2161.5 105.335 Z" fill="#000000" fill-rule="nonzero" fill-opacity="1" /><path clip-path="url(#clip410)" d="M2192.48 149.293 L2199.8 149.293 L2199.8 155.265 L2194.11 166.376 L2189.63 166.376 L2192.48 155.265 L2192.48 149.293 Z" fill="#000000" fill-rule="nonzero" fill-opacity="1" /><path clip-path="url(#clip410)" d="M2229.35 110.89 Q2223.93 110.89 2221.19 116.237 Q2218.48 121.55 2218.48 132.244 Q2218.48 142.904 2221.19 148.251 Q2223.93 153.563 2229.35 153.563 Q2234.8 153.563 2237.51 148.251 Q2240.25 142.904 2240.25 132.244 Q2240.25 121.55 2237.51 116.237 Q2234.8 110.89 2229.35 110.89 M2229.35 105.335 Q2238.07 105.335 2242.65 112.244 Q2247.27 119.119 2247.27 132.244 Q2247.27 145.334 2242.65 152.244 Q2238.07 159.119 2229.35 159.119 Q2220.63 159.119 2216.02 152.244 Q2211.43 145.334 2211.43 132.244 Q2211.43 119.119 2216.02 112.244 Q2220.63 105.335 2229.35 105.335 Z" fill="#000000" fill-rule="nonzero" fill-opacity="1" /><path clip-path="url(#clip410)" d="M2274.59 110.89 Q2269.18 110.89 2266.43 116.237 Q2263.72 121.55 2263.72 132.244 Q2263.72 142.904 2266.43 148.251 Q2269.18 153.563 2274.59 153.563 Q2280.04 153.563 2282.75 148.251 Q2285.5 142.904 2285.5 132.244 Q2285.5 121.55 2282.75 116.237 Q2280.04 110.89 2274.59 110.89 M2274.59 105.335 Q2283.31 105.335 2287.89 112.244 Q2292.51 119.119 2292.51 132.244 Q2292.51 145.334 2287.89 152.244 Q2283.31 159.119 2274.59 159.119 Q2265.88 159.119 2261.26 152.244 Q2256.68 145.334 2256.68 132.244 Q2256.68 119.119 2261.26 112.244 Q2265.88 105.335 2274.59 105.335 Z" fill="#000000" fill-rule="nonzero" fill-opacity="1" /><path clip-path="url(#clip410)" d="M2319.84 110.89 Q2314.42 110.89 2311.68 116.237 Q2308.97 121.55 2308.97 132.244 Q2308.97 142.904 2311.68 148.251 Q2314.42 153.563 2319.84 153.563 Q2325.29 153.563 2328 148.251 Q2330.74 142.904 2330.74 132.244 Q2330.74 121.55 2328 116.237 Q2325.29 110.89 2319.84 110.89 M2319.84 105.335 Q2328.55 105.335 2333.13 112.244 Q2337.75 119.119 2337.75 132.244 Q2337.75 145.334 2333.13 152.244 Q2328.55 159.119 2319.84 159.119 Q2311.12 159.119 2306.5 152.244 Q2301.92 145.334 2301.92 132.244 Q2301.92 119.119 2306.5 112.244 Q2311.12 105.335 2319.84 105.335 Z" fill="#000000" fill-rule="nonzero" fill-opacity="1" /><polyline clip-path="url(#clip412)" style="stroke:#009af9; stroke-linecap:round; stroke-linejoin:round; stroke-width:4; stroke-opacity:1; fill:none" points="338.375,202.234 544.239,1100.71 750.103,1049.75 955.968,1319.67 1264.76,1318.13 1779.42,1351.33 2294.08,1387.62 "/>
</svg>
