<?xml version="1.0" encoding="utf-8"?>
<svg xmlns="http://www.w3.org/2000/svg" xmlns:xlink="http://www.w3.org/1999/xlink" width="600" height="400" viewBox="0 0 2400 1600">
<defs>
  <clipPath id="clip290">
    <rect x="0" y="0" width="2400" height="1600"/>
  </clipPath>
</defs>
<path clip-path="url(#clip290)" d="M0 1600 L2400 1600 L2400 0 L0 0  Z" fill="#ffffff" fill-rule="evenodd" fill-opacity="1"/>
<defs>
  <clipPath id="clip291">
    <rect x="480" y="0" width="1681" height="1600"/>
  </clipPath>
</defs>
<path clip-path="url(#clip290)" d="M250.028 1423.18 L2352.76 1423.18 L2352.76 166.672 L250.028 166.672  Z" fill="#ffffff" fill-rule="evenodd" fill-opacity="1"/>
<defs>
  <clipPath id="clip292">
    <rect x="250" y="166" width="2104" height="1258"/>
  </clipPath>
</defs>
<polyline clip-path="url(#clip292)" style="stroke:#000000; stroke-linecap:round; stroke-linejoin:round; stroke-width:2; stroke-opacity:0.1; fill:none" points="727.162,1423.18 727.162,166.672 "/>
<polyline clip-path="url(#clip292)" style="stroke:#000000; stroke-linecap:round; stroke-linejoin:round; stroke-width:2; stroke-opacity:0.1; fill:none" points="1249.19,1423.18 1249.19,166.672 "/>
<polyline clip-path="url(#clip292)" style="stroke:#000000; stroke-linecap:round; stroke-linejoin:round; stroke-width:2; stroke-opacity:0.1; fill:none" points="1771.22,1423.18 1771.22,166.672 "/>
<polyline clip-path="url(#clip292)" style="stroke:#000000; stroke-linecap:round; stroke-linejoin:round; stroke-width:2; stroke-opacity:0.1; fill:none" points="2293.24,1423.18 2293.24,166.672 "/>
<polyline clip-path="url(#clip290)" style="stroke:#000000; stroke-linecap:round; stroke-linejoin:round; stroke-width:4; stroke-opacity:1; fill:none" points="250.028,1423.18 2352.76,1423.18 "/>
<polyline clip-path="url(#clip290)" style="stroke:#000000; stroke-linecap:round; stroke-linejoin:round; stroke-width:4; stroke-opacity:1; fill:none" points="727.162,1423.18 727.162,1404.28 "/>
<polyline clip-path="url(#clip290)" style="stroke:#000000; stroke-linecap:round; stroke-linejoin:round; stroke-width:4; stroke-opacity:1; fill:none" points="1249.19,1423.18 1249.19,1404.28 "/>
<polyline clip-path="url(#clip290)" style="stroke:#000000; stroke-linecap:round; stroke-linejoin:round; stroke-width:4; stroke-opacity:1; fill:none" points="1771.22,1423.18 1771.22,1404.28 "/>
<polyline clip-path="url(#clip290)" style="stroke:#000000; stroke-linecap:round; stroke-linejoin:round; stroke-width:4; stroke-opacity:1; fill:none" points="2293.24,1423.18 2293.24,1404.28 "/>
<path clip-path="url(#clip290)" d="M701.861 1451.02 L720.217 1451.02 L720.217 1454.96 L706.143 1454.96 L706.143 1463.43 Q707.162 1463.08 708.18 1462.92 Q709.199 1462.73 710.217 1462.73 Q716.004 1462.73 719.384 1465.9 Q722.763 1469.08 722.763 1474.49 Q722.763 1480.07 719.291 1483.17 Q715.819 1486.25 709.5 1486.25 Q707.324 1486.25 705.055 1485.88 Q702.81 1485.51 700.402 1484.77 L700.402 1480.07 Q702.486 1481.2 704.708 1481.76 Q706.93 1482.32 709.407 1482.32 Q713.412 1482.32 715.75 1480.21 Q718.087 1478.1 718.087 1474.49 Q718.087 1470.88 715.75 1468.77 Q713.412 1466.67 709.407 1466.67 Q707.532 1466.67 705.657 1467.08 Q703.805 1467.5 701.861 1468.38 L701.861 1451.02 Z" fill="#000000" fill-rule="nonzero" fill-opacity="1" /><path clip-path="url(#clip290)" d="M741.976 1454.1 Q738.365 1454.1 736.536 1457.66 Q734.731 1461.2 734.731 1468.33 Q734.731 1475.44 736.536 1479.01 Q738.365 1482.55 741.976 1482.55 Q745.61 1482.55 747.416 1479.01 Q749.245 1475.44 749.245 1468.33 Q749.245 1461.2 747.416 1457.66 Q745.61 1454.1 741.976 1454.1 M741.976 1450.39 Q747.786 1450.39 750.842 1455 Q753.921 1459.58 753.921 1468.33 Q753.921 1477.06 750.842 1481.67 Q747.786 1486.25 741.976 1486.25 Q736.166 1486.25 733.087 1481.67 Q730.032 1477.06 730.032 1468.33 Q730.032 1459.58 733.087 1455 Q736.166 1450.39 741.976 1450.39 Z" fill="#000000" fill-rule="nonzero" fill-opacity="1" /><path clip-path="url(#clip290)" d="M1208.8 1481.64 L1216.43 1481.64 L1216.43 1455.28 L1208.12 1456.95 L1208.12 1452.69 L1216.39 1451.02 L1221.06 1451.02 L1221.06 1481.64 L1228.7 1481.64 L1228.7 1485.58 L1208.8 1485.58 L1208.8 1481.64 Z" fill="#000000" fill-rule="nonzero" fill-opacity="1" /><path clip-path="url(#clip290)" d="M1248.15 1454.1 Q1244.54 1454.1 1242.71 1457.66 Q1240.9 1461.2 1240.9 1468.33 Q1240.9 1475.44 1242.71 1479.01 Q1244.54 1482.55 1248.15 1482.55 Q1251.78 1482.55 1253.59 1479.01 Q1255.42 1475.44 1255.42 1468.33 Q1255.42 1461.2 1253.59 1457.66 Q1251.78 1454.1 1248.15 1454.1 M1248.15 1450.39 Q1253.96 1450.39 1257.01 1455 Q1260.09 1459.58 1260.09 1468.33 Q1260.09 1477.06 1257.01 1481.67 Q1253.96 1486.25 1248.15 1486.25 Q1242.34 1486.25 1239.26 1481.67 Q1236.2 1477.06 1236.2 1468.33 Q1236.2 1459.58 1239.26 1455 Q1242.34 1450.39 1248.15 1450.39 Z" fill="#000000" fill-rule="nonzero" fill-opacity="1" /><path clip-path="url(#clip290)" d="M1278.31 1454.1 Q1274.7 1454.1 1272.87 1457.66 Q1271.06 1461.2 1271.06 1468.33 Q1271.06 1475.44 1272.87 1479.01 Q1274.7 1482.55 1278.31 1482.55 Q1281.94 1482.55 1283.75 1479.01 Q1285.58 1475.44 1285.58 1468.33 Q1285.58 1461.2 1283.75 1457.66 Q1281.94 1454.1 1278.31 1454.1 M1278.31 1450.39 Q1284.12 1450.39 1287.18 1455 Q1290.25 1459.58 1290.25 1468.33 Q1290.25 1477.06 1287.18 1481.67 Q1284.12 1486.25 1278.31 1486.25 Q1272.5 1486.25 1269.42 1481.67 Q1266.37 1477.06 1266.37 1468.33 Q1266.37 1459.58 1269.42 1455 Q1272.5 1450.39 1278.31 1450.39 Z" fill="#000000" fill-rule="nonzero" fill-opacity="1" /><path clip-path="url(#clip290)" d="M1730.82 1481.64 L1738.46 1481.64 L1738.46 1455.28 L1730.15 1456.95 L1730.15 1452.69 L1738.42 1451.02 L1743.09 1451.02 L1743.09 1481.64 L1750.73 1481.64 L1750.73 1485.58 L1730.82 1485.58 L1730.82 1481.64 Z" fill="#000000" fill-rule="nonzero" fill-opacity="1" /><path clip-path="url(#clip290)" d="M1760.22 1451.02 L1778.58 1451.02 L1778.58 1454.96 L1764.5 1454.96 L1764.5 1463.43 Q1765.52 1463.08 1766.54 1462.92 Q1767.56 1462.73 1768.58 1462.73 Q1774.37 1462.73 1777.74 1465.9 Q1781.12 1469.08 1781.12 1474.49 Q1781.12 1480.07 1777.65 1483.17 Q1774.18 1486.25 1767.86 1486.25 Q1765.68 1486.25 1763.42 1485.88 Q1761.17 1485.51 1758.76 1484.77 L1758.76 1480.07 Q1760.85 1481.2 1763.07 1481.76 Q1765.29 1482.32 1767.77 1482.32 Q1771.77 1482.32 1774.11 1480.21 Q1776.45 1478.1 1776.45 1474.49 Q1776.45 1470.88 1774.11 1468.77 Q1771.77 1466.67 1767.77 1466.67 Q1765.89 1466.67 1764.02 1467.08 Q1762.17 1467.5 1760.22 1468.38 L1760.22 1451.02 Z" fill="#000000" fill-rule="nonzero" fill-opacity="1" /><path clip-path="url(#clip290)" d="M1800.34 1454.1 Q1796.73 1454.1 1794.9 1457.66 Q1793.09 1461.2 1793.09 1468.33 Q1793.09 1475.44 1794.9 1479.01 Q1796.73 1482.55 1800.34 1482.55 Q1803.97 1482.55 1805.78 1479.01 Q1807.61 1475.44 1807.61 1468.33 Q1807.61 1461.2 1805.78 1457.66 Q1803.97 1454.1 1800.34 1454.1 M1800.34 1450.39 Q1806.15 1450.39 1809.2 1455 Q1812.28 1459.58 1812.28 1468.33 Q1812.28 1477.06 1809.2 1481.67 Q1806.15 1486.25 1800.34 1486.25 Q1794.53 1486.25 1791.45 1481.67 Q1788.39 1477.06 1788.39 1468.33 Q1788.39 1459.58 1791.45 1455 Q1794.53 1450.39 1800.34 1450.39 Z" fill="#000000" fill-rule="nonzero" fill-opacity="1" /><path clip-path="url(#clip290)" d="M2256.94 1481.64 L2273.26 1481.64 L2273.26 1485.58 L2251.31 1485.58 L2251.31 1481.64 Q2253.97 1478.89 2258.56 1474.26 Q2263.16 1469.61 2264.34 1468.27 Q2266.59 1465.74 2267.47 1464.01 Q2268.37 1462.25 2268.37 1460.56 Q2268.37 1457.8 2266.43 1456.07 Q2264.51 1454.33 2261.4 1454.33 Q2259.21 1454.33 2256.75 1455.09 Q2254.32 1455.86 2251.54 1457.41 L2251.54 1452.69 Q2254.37 1451.55 2256.82 1450.97 Q2259.28 1450.39 2261.31 1450.39 Q2266.68 1450.39 2269.88 1453.08 Q2273.07 1455.77 2273.07 1460.26 Q2273.07 1462.39 2272.26 1464.31 Q2271.47 1466.2 2269.37 1468.8 Q2268.79 1469.47 2265.69 1472.69 Q2262.59 1475.88 2256.94 1481.64 Z" fill="#000000" fill-rule="nonzero" fill-opacity="1" /><path clip-path="url(#clip290)" d="M2293.07 1454.1 Q2289.46 1454.1 2287.63 1457.66 Q2285.83 1461.2 2285.83 1468.33 Q2285.83 1475.44 2287.63 1479.01 Q2289.46 1482.55 2293.07 1482.55 Q2296.71 1482.55 2298.51 1479.01 Q2300.34 1475.44 2300.34 1468.33 Q2300.34 1461.2 2298.51 1457.66 Q2296.71 1454.1 2293.07 1454.1 M2293.07 1450.39 Q2298.88 1450.39 2301.94 1455 Q2305.02 1459.58 2305.02 1468.33 Q2305.02 1477.06 2301.94 1481.67 Q2298.88 1486.25 2293.07 1486.25 Q2287.26 1486.25 2284.18 1481.67 Q2281.13 1477.06 2281.13 1468.33 Q2281.13 1459.58 2284.18 1455 Q2287.26 1450.39 2293.07 1450.39 Z" fill="#000000" fill-rule="nonzero" fill-opacity="1" /><path clip-path="url(#clip290)" d="M2323.23 1454.1 Q2319.62 1454.1 2317.79 1457.66 Q2315.99 1461.2 2315.99 1468.33 Q2315.99 1475.44 2317.79 1479.01 Q2319.62 1482.55 2323.23 1482.55 Q2326.87 1482.55 2328.67 1479.01 Q2330.5 1475.44 2330.5 1468.33 Q2330.5 1461.2 2328.67 1457.66 Q2326.87 1454.1 2323.23 1454.1 M2323.23 1450.39 Q2329.04 1450.39 2332.1 1455 Q2335.18 1459.58 2335.18 1468.33 Q2335.18 1477.06 2332.1 1481.67 Q2329.04 1486.25 2323.23 1486.25 Q2317.42 1486.25 2314.34 1481.67 Q2311.29 1477.06 2311.29 1468.33 Q2311.29 1459.58 2314.34 1455 Q2317.42 1450.39 2323.23 1450.39 Z" fill="#000000" fill-rule="nonzero" fill-opacity="1" /><path clip-path="url(#clip290)" d="M1078.42 1520.52 L1084.85 1520.52 L1084.85 1562.63 L1107.99 1562.63 L1107.99 1568.04 L1078.42 1568.04 L1078.42 1520.52 Z" fill="#000000" fill-rule="nonzero" fill-opacity="1" /><path clip-path="url(#clip290)" d="M1130.68 1550.12 Q1123.58 1550.12 1120.84 1551.75 Q1118.11 1553.37 1118.11 1557.29 Q1118.11 1560.4 1120.14 1562.25 Q1122.21 1564.07 1125.75 1564.07 Q1130.62 1564.07 1133.54 1560.63 Q1136.5 1557.16 1136.5 1551.43 L1136.5 1550.12 L1130.68 1550.12 M1142.36 1547.71 L1142.36 1568.04 L1136.5 1568.04 L1136.5 1562.63 Q1134.5 1565.88 1131.51 1567.44 Q1128.52 1568.97 1124.19 1568.97 Q1118.71 1568.97 1115.47 1565.91 Q1112.25 1562.82 1112.25 1557.67 Q1112.25 1551.65 1116.26 1548.6 Q1120.3 1545.54 1128.29 1545.54 L1136.5 1545.54 L1136.5 1544.97 Q1136.5 1540.93 1133.83 1538.73 Q1131.19 1536.5 1126.38 1536.5 Q1123.33 1536.5 1120.43 1537.23 Q1117.53 1537.97 1114.86 1539.43 L1114.86 1534.02 Q1118.08 1532.78 1121.1 1532.17 Q1124.12 1531.54 1126.99 1531.54 Q1134.72 1531.54 1138.54 1535.55 Q1142.36 1539.56 1142.36 1547.71 Z" fill="#000000" fill-rule="nonzero" fill-opacity="1" /><path clip-path="url(#clip290)" d="M1160.22 1522.27 L1160.22 1532.4 L1172.28 1532.4 L1172.28 1536.95 L1160.22 1536.95 L1160.22 1556.3 Q1160.22 1560.66 1161.39 1561.9 Q1162.6 1563.14 1166.26 1563.14 L1172.28 1563.14 L1172.28 1568.04 L1166.26 1568.04 Q1159.48 1568.04 1156.91 1565.53 Q1154.33 1562.98 1154.33 1556.3 L1154.33 1536.95 L1150.03 1536.95 L1150.03 1532.4 L1154.33 1532.4 L1154.33 1522.27 L1160.22 1522.27 Z" fill="#000000" fill-rule="nonzero" fill-opacity="1" /><path clip-path="url(#clip290)" d="M1185.77 1522.27 L1185.77 1532.4 L1197.84 1532.4 L1197.84 1536.95 L1185.77 1536.95 L1185.77 1556.3 Q1185.77 1560.66 1186.95 1561.9 Q1188.16 1563.14 1191.82 1563.14 L1197.84 1563.14 L1197.84 1568.04 L1191.82 1568.04 Q1185.04 1568.04 1182.46 1565.53 Q1179.89 1562.98 1179.89 1556.3 L1179.89 1536.95 L1175.59 1536.95 L1175.59 1532.4 L1179.89 1532.4 L1179.89 1522.27 L1185.77 1522.27 Z" fill="#000000" fill-rule="nonzero" fill-opacity="1" /><path clip-path="url(#clip290)" d="M1205.54 1532.4 L1211.4 1532.4 L1211.4 1568.04 L1205.54 1568.04 L1205.54 1532.4 M1205.54 1518.52 L1211.4 1518.52 L1211.4 1525.93 L1205.54 1525.93 L1205.54 1518.52 Z" fill="#000000" fill-rule="nonzero" fill-opacity="1" /><path clip-path="url(#clip290)" d="M1249.3 1533.76 L1249.3 1539.24 Q1246.82 1537.87 1244.31 1537.2 Q1241.82 1536.5 1239.28 1536.5 Q1233.58 1536.5 1230.43 1540.13 Q1227.28 1543.73 1227.28 1550.25 Q1227.28 1556.78 1230.43 1560.4 Q1233.58 1564 1239.28 1564 Q1241.82 1564 1244.31 1563.33 Q1246.82 1562.63 1249.3 1561.26 L1249.3 1566.68 Q1246.85 1567.82 1244.21 1568.39 Q1241.6 1568.97 1238.64 1568.97 Q1230.59 1568.97 1225.85 1563.91 Q1221.1 1558.85 1221.1 1550.25 Q1221.1 1541.53 1225.88 1536.53 Q1230.68 1531.54 1239.02 1531.54 Q1241.73 1531.54 1244.31 1532.11 Q1246.89 1532.65 1249.3 1533.76 Z" fill="#000000" fill-rule="nonzero" fill-opacity="1" /><path clip-path="url(#clip290)" d="M1289.98 1548.76 L1289.98 1551.62 L1263.05 1551.62 Q1263.44 1557.67 1266.68 1560.85 Q1269.96 1564 1275.79 1564 Q1279.16 1564 1282.31 1563.17 Q1285.49 1562.35 1288.61 1560.69 L1288.61 1566.23 Q1285.46 1567.57 1282.15 1568.27 Q1278.84 1568.97 1275.44 1568.97 Q1266.91 1568.97 1261.91 1564 Q1256.94 1559.04 1256.94 1550.57 Q1256.94 1541.82 1261.65 1536.69 Q1266.4 1531.54 1274.42 1531.54 Q1281.61 1531.54 1285.78 1536.18 Q1289.98 1540.8 1289.98 1548.76 M1284.13 1547.04 Q1284.06 1542.23 1281.42 1539.37 Q1278.81 1536.5 1274.48 1536.5 Q1269.58 1536.5 1266.62 1539.27 Q1263.69 1542.04 1263.25 1547.07 L1284.13 1547.04 Z" fill="#000000" fill-rule="nonzero" fill-opacity="1" /><path clip-path="url(#clip290)" d="M1343.04 1533.45 L1343.04 1538.98 Q1340.56 1537.71 1337.88 1537.07 Q1335.21 1536.44 1332.35 1536.44 Q1327.98 1536.44 1325.79 1537.77 Q1323.62 1539.11 1323.62 1541.79 Q1323.62 1543.82 1325.18 1545 Q1326.74 1546.15 1331.45 1547.2 L1333.46 1547.64 Q1339.7 1548.98 1342.31 1551.43 Q1344.95 1553.85 1344.95 1558.21 Q1344.95 1563.17 1341 1566.07 Q1337.09 1568.97 1330.21 1568.97 Q1327.35 1568.97 1324.23 1568.39 Q1321.14 1567.85 1317.7 1566.74 L1317.7 1560.69 Q1320.95 1562.38 1324.1 1563.24 Q1327.25 1564.07 1330.34 1564.07 Q1334.48 1564.07 1336.71 1562.66 Q1338.93 1561.23 1338.93 1558.65 Q1338.93 1556.27 1337.31 1554.99 Q1335.72 1553.72 1330.28 1552.54 L1328.24 1552.07 Q1322.8 1550.92 1320.38 1548.56 Q1317.96 1546.18 1317.96 1542.04 Q1317.96 1537.01 1321.52 1534.27 Q1325.09 1531.54 1331.65 1531.54 Q1334.89 1531.54 1337.76 1532.01 Q1340.62 1532.49 1343.04 1533.45 Z" fill="#000000" fill-rule="nonzero" fill-opacity="1" /><path clip-path="url(#clip290)" d="M1354.28 1532.4 L1360.13 1532.4 L1360.13 1568.04 L1354.28 1568.04 L1354.28 1532.4 M1354.28 1518.52 L1360.13 1518.52 L1360.13 1525.93 L1354.28 1525.93 L1354.28 1518.52 Z" fill="#000000" fill-rule="nonzero" fill-opacity="1" /><path clip-path="url(#clip290)" d="M1369.84 1532.4 L1397.66 1532.4 L1397.66 1537.74 L1375.63 1563.37 L1397.66 1563.37 L1397.66 1568.04 L1369.04 1568.04 L1369.04 1562.7 L1391.07 1537.07 L1369.84 1537.07 L1369.84 1532.4 Z" fill="#000000" fill-rule="nonzero" fill-opacity="1" /><path clip-path="url(#clip290)" d="M1437.09 1548.76 L1437.09 1551.62 L1410.17 1551.62 Q1410.55 1557.67 1413.79 1560.85 Q1417.07 1564 1422.9 1564 Q1426.27 1564 1429.42 1563.17 Q1432.61 1562.35 1435.72 1560.69 L1435.72 1566.23 Q1432.57 1567.57 1429.26 1568.27 Q1425.95 1568.97 1422.55 1568.97 Q1414.02 1568.97 1409.02 1564 Q1404.05 1559.04 1404.05 1550.57 Q1404.05 1541.82 1408.77 1536.69 Q1413.51 1531.54 1421.53 1531.54 Q1428.72 1531.54 1432.89 1536.18 Q1437.09 1540.8 1437.09 1548.76 M1431.24 1547.04 Q1431.17 1542.23 1428.53 1539.37 Q1425.92 1536.5 1421.59 1536.5 Q1416.69 1536.5 1413.73 1539.27 Q1410.8 1542.04 1410.36 1547.07 L1431.24 1547.04 Z" fill="#000000" fill-rule="nonzero" fill-opacity="1" /><path clip-path="url(#clip290)" d="M1448.2 1559.96 L1454.92 1559.96 L1454.92 1565.43 L1449.7 1575.62 L1445.59 1575.62 L1448.2 1565.43 L1448.2 1559.96 Z" fill="#000000" fill-rule="nonzero" fill-opacity="1" /><path clip-path="url(#clip290)" d="M1488.4 1520.52 L1497.06 1520.52 L1518.13 1560.28 L1518.13 1520.52 L1524.37 1520.52 L1524.37 1568.04 L1515.71 1568.04 L1494.64 1528.29 L1494.64 1568.04 L1488.4 1568.04 L1488.4 1520.52 Z" fill="#000000" fill-rule="nonzero" fill-opacity="1" /><polyline clip-path="url(#clip292)" style="stroke:#000000; stroke-linecap:round; stroke-linejoin:round; stroke-width:2; stroke-opacity:0.1; fill:none" points="250.028,1159 2352.76,1159 "/>
<polyline clip-path="url(#clip292)" style="stroke:#000000; stroke-linecap:round; stroke-linejoin:round; stroke-width:2; stroke-opacity:0.1; fill:none" points="250.028,845.837 2352.76,845.837 "/>
<polyline clip-path="url(#clip292)" style="stroke:#000000; stroke-linecap:round; stroke-linejoin:round; stroke-width:2; stroke-opacity:0.1; fill:none" points="250.028,532.675 2352.76,532.675 "/>
<polyline clip-path="url(#clip292)" style="stroke:#000000; stroke-linecap:round; stroke-linejoin:round; stroke-width:2; stroke-opacity:0.1; fill:none" points="250.028,219.512 2352.76,219.512 "/>
<polyline clip-path="url(#clip290)" style="stroke:#000000; stroke-linecap:round; stroke-linejoin:round; stroke-width:4; stroke-opacity:1; fill:none" points="250.028,1423.18 250.028,166.672 "/>
<polyline clip-path="url(#clip290)" style="stroke:#000000; stroke-linecap:round; stroke-linejoin:round; stroke-width:4; stroke-opacity:1; fill:none" points="250.028,1159 268.926,1159 "/>
<polyline clip-path="url(#clip290)" style="stroke:#000000; stroke-linecap:round; stroke-linejoin:round; stroke-width:4; stroke-opacity:1; fill:none" points="250.028,845.837 268.926,845.837 "/>
<polyline clip-path="url(#clip290)" style="stroke:#000000; stroke-linecap:round; stroke-linejoin:round; stroke-width:4; stroke-opacity:1; fill:none" points="250.028,532.675 268.926,532.675 "/>
<polyline clip-path="url(#clip290)" style="stroke:#000000; stroke-linecap:round; stroke-linejoin:round; stroke-width:4; stroke-opacity:1; fill:none" points="250.028,219.512 268.926,219.512 "/>
<path clip-path="url(#clip290)" d="M127.917 1144.8 Q124.306 1144.8 122.478 1148.36 Q120.672 1151.9 120.672 1159.03 Q120.672 1166.14 122.478 1169.7 Q124.306 1173.25 127.917 1173.25 Q131.552 1173.25 133.357 1169.7 Q135.186 1166.14 135.186 1159.03 Q135.186 1151.9 133.357 1148.36 Q131.552 1144.8 127.917 1144.8 M127.917 1141.09 Q133.728 1141.09 136.783 1145.7 Q139.862 1150.28 139.862 1159.03 Q139.862 1167.76 136.783 1172.37 Q133.728 1176.95 127.917 1176.95 Q122.107 1176.95 119.029 1172.37 Q115.973 1167.76 115.973 1159.03 Q115.973 1150.28 119.029 1145.7 Q122.107 1141.09 127.917 1141.09 Z" fill="#000000" fill-rule="nonzero" fill-opacity="1" /><path clip-path="url(#clip290)" d="M148.079 1170.4 L152.964 1170.4 L152.964 1176.28 L148.079 1176.28 L148.079 1170.4 Z" fill="#000000" fill-rule="nonzero" fill-opacity="1" /><path clip-path="url(#clip290)" d="M173.149 1144.8 Q169.538 1144.8 167.709 1148.36 Q165.903 1151.9 165.903 1159.03 Q165.903 1166.14 167.709 1169.7 Q169.538 1173.25 173.149 1173.25 Q176.783 1173.25 178.589 1169.7 Q180.417 1166.14 180.417 1159.03 Q180.417 1151.9 178.589 1148.36 Q176.783 1144.8 173.149 1144.8 M173.149 1141.09 Q178.959 1141.09 182.014 1145.7 Q185.093 1150.28 185.093 1159.03 Q185.093 1167.76 182.014 1172.37 Q178.959 1176.95 173.149 1176.95 Q167.339 1176.95 164.26 1172.37 Q161.204 1167.76 161.204 1159.03 Q161.204 1150.28 164.26 1145.7 Q167.339 1141.09 173.149 1141.09 Z" fill="#000000" fill-rule="nonzero" fill-opacity="1" /><path clip-path="url(#clip290)" d="M194.121 1172.34 L201.76 1172.34 L201.76 1145.98 L193.45 1147.64 L193.45 1143.39 L201.713 1141.72 L206.389 1141.72 L206.389 1172.34 L214.028 1172.34 L214.028 1176.28 L194.121 1176.28 L194.121 1172.34 Z" fill="#000000" fill-rule="nonzero" fill-opacity="1" /><path clip-path="url(#clip290)" d="M128.288 831.635 Q124.677 831.635 122.848 835.2 Q121.043 838.742 121.043 845.872 Q121.043 852.978 122.848 856.543 Q124.677 860.084 128.288 860.084 Q131.922 860.084 133.728 856.543 Q135.556 852.978 135.556 845.872 Q135.556 838.742 133.728 835.2 Q131.922 831.635 128.288 831.635 M128.288 827.932 Q134.098 827.932 137.154 832.538 Q140.232 837.122 140.232 845.872 Q140.232 854.598 137.154 859.205 Q134.098 863.788 128.288 863.788 Q122.478 863.788 119.399 859.205 Q116.343 854.598 116.343 845.872 Q116.343 837.122 119.399 832.538 Q122.478 827.932 128.288 827.932 Z" fill="#000000" fill-rule="nonzero" fill-opacity="1" /><path clip-path="url(#clip290)" d="M148.45 857.237 L153.334 857.237 L153.334 863.117 L148.45 863.117 L148.45 857.237 Z" fill="#000000" fill-rule="nonzero" fill-opacity="1" /><path clip-path="url(#clip290)" d="M173.519 831.635 Q169.908 831.635 168.079 835.2 Q166.274 838.742 166.274 845.872 Q166.274 852.978 168.079 856.543 Q169.908 860.084 173.519 860.084 Q177.153 860.084 178.959 856.543 Q180.788 852.978 180.788 845.872 Q180.788 838.742 178.959 835.2 Q177.153 831.635 173.519 831.635 M173.519 827.932 Q179.329 827.932 182.385 832.538 Q185.463 837.122 185.463 845.872 Q185.463 854.598 182.385 859.205 Q179.329 863.788 173.519 863.788 Q167.709 863.788 164.63 859.205 Q161.575 854.598 161.575 845.872 Q161.575 837.122 164.63 832.538 Q167.709 827.932 173.519 827.932 Z" fill="#000000" fill-rule="nonzero" fill-opacity="1" /><path clip-path="url(#clip290)" d="M197.709 859.182 L214.028 859.182 L214.028 863.117 L192.084 863.117 L192.084 859.182 Q194.746 856.427 199.329 851.797 Q203.936 847.145 205.116 845.802 Q207.362 843.279 208.241 841.543 Q209.144 839.784 209.144 838.094 Q209.144 835.339 207.199 833.603 Q205.278 831.867 202.176 831.867 Q199.977 831.867 197.524 832.631 Q195.093 833.395 192.315 834.946 L192.315 830.223 Q195.139 829.089 197.593 828.511 Q200.047 827.932 202.084 827.932 Q207.454 827.932 210.649 830.617 Q213.843 833.302 213.843 837.793 Q213.843 839.922 213.033 841.844 Q212.246 843.742 210.139 846.334 Q209.561 847.006 206.459 850.223 Q203.357 853.418 197.709 859.182 Z" fill="#000000" fill-rule="nonzero" fill-opacity="1" /><path clip-path="url(#clip290)" d="M127.339 518.473 Q123.728 518.473 121.899 522.038 Q120.093 525.58 120.093 532.709 Q120.093 539.816 121.899 543.381 Q123.728 546.922 127.339 546.922 Q130.973 546.922 132.779 543.381 Q134.607 539.816 134.607 532.709 Q134.607 525.58 132.779 522.038 Q130.973 518.473 127.339 518.473 M127.339 514.77 Q133.149 514.77 136.204 519.376 Q139.283 523.959 139.283 532.709 Q139.283 541.436 136.204 546.043 Q133.149 550.626 127.339 550.626 Q121.529 550.626 118.45 546.043 Q115.394 541.436 115.394 532.709 Q115.394 523.959 118.45 519.376 Q121.529 514.77 127.339 514.77 Z" fill="#000000" fill-rule="nonzero" fill-opacity="1" /><path clip-path="url(#clip290)" d="M147.501 544.075 L152.385 544.075 L152.385 549.955 L147.501 549.955 L147.501 544.075 Z" fill="#000000" fill-rule="nonzero" fill-opacity="1" /><path clip-path="url(#clip290)" d="M172.57 518.473 Q168.959 518.473 167.13 522.038 Q165.325 525.58 165.325 532.709 Q165.325 539.816 167.13 543.381 Q168.959 546.922 172.57 546.922 Q176.204 546.922 178.01 543.381 Q179.839 539.816 179.839 532.709 Q179.839 525.58 178.01 522.038 Q176.204 518.473 172.57 518.473 M172.57 514.77 Q178.38 514.77 181.436 519.376 Q184.514 523.959 184.514 532.709 Q184.514 541.436 181.436 546.043 Q178.38 550.626 172.57 550.626 Q166.76 550.626 163.681 546.043 Q160.626 541.436 160.626 532.709 Q160.626 523.959 163.681 519.376 Q166.76 514.77 172.57 514.77 Z" fill="#000000" fill-rule="nonzero" fill-opacity="1" /><path clip-path="url(#clip290)" d="M206.899 531.32 Q210.255 532.038 212.13 534.307 Q214.028 536.575 214.028 539.908 Q214.028 545.024 210.51 547.825 Q206.991 550.626 200.51 550.626 Q198.334 550.626 196.019 550.186 Q193.727 549.769 191.274 548.913 L191.274 544.399 Q193.218 545.533 195.533 546.112 Q197.848 546.691 200.371 546.691 Q204.769 546.691 207.061 544.955 Q209.375 543.219 209.375 539.908 Q209.375 536.853 207.223 535.14 Q205.093 533.404 201.274 533.404 L197.246 533.404 L197.246 529.561 L201.459 529.561 Q204.908 529.561 206.737 528.195 Q208.565 526.807 208.565 524.214 Q208.565 521.552 206.667 520.14 Q204.792 518.705 201.274 518.705 Q199.352 518.705 197.153 519.121 Q194.954 519.538 192.315 520.418 L192.315 516.251 Q194.977 515.51 197.292 515.14 Q199.63 514.77 201.69 514.77 Q207.014 514.77 210.116 517.2 Q213.218 519.608 213.218 523.728 Q213.218 526.598 211.574 528.589 Q209.931 530.557 206.899 531.32 Z" fill="#000000" fill-rule="nonzero" fill-opacity="1" /><path clip-path="url(#clip290)" d="M126.205 205.311 Q122.593 205.311 120.765 208.876 Q118.959 212.418 118.959 219.547 Q118.959 226.654 120.765 230.218 Q122.593 233.76 126.205 233.76 Q129.839 233.76 131.644 230.218 Q133.473 226.654 133.473 219.547 Q133.473 212.418 131.644 208.876 Q129.839 205.311 126.205 205.311 M126.205 201.607 Q132.015 201.607 135.07 206.214 Q138.149 210.797 138.149 219.547 Q138.149 228.274 135.07 232.88 Q132.015 237.464 126.205 237.464 Q120.394 237.464 117.316 232.88 Q114.26 228.274 114.26 219.547 Q114.26 210.797 117.316 206.214 Q120.394 201.607 126.205 201.607 Z" fill="#000000" fill-rule="nonzero" fill-opacity="1" /><path clip-path="url(#clip290)" d="M146.366 230.913 L151.251 230.913 L151.251 236.792 L146.366 236.792 L146.366 230.913 Z" fill="#000000" fill-rule="nonzero" fill-opacity="1" /><path clip-path="url(#clip290)" d="M171.436 205.311 Q167.825 205.311 165.996 208.876 Q164.19 212.418 164.19 219.547 Q164.19 226.654 165.996 230.218 Q167.825 233.76 171.436 233.76 Q175.07 233.76 176.876 230.218 Q178.704 226.654 178.704 219.547 Q178.704 212.418 176.876 208.876 Q175.07 205.311 171.436 205.311 M171.436 201.607 Q177.246 201.607 180.301 206.214 Q183.38 210.797 183.38 219.547 Q183.38 228.274 180.301 232.88 Q177.246 237.464 171.436 237.464 Q165.626 237.464 162.547 232.88 Q159.491 228.274 159.491 219.547 Q159.491 210.797 162.547 206.214 Q165.626 201.607 171.436 201.607 Z" fill="#000000" fill-rule="nonzero" fill-opacity="1" /><path clip-path="url(#clip290)" d="M204.445 206.306 L192.639 224.755 L204.445 224.755 L204.445 206.306 M203.218 202.232 L209.098 202.232 L209.098 224.755 L214.028 224.755 L214.028 228.644 L209.098 228.644 L209.098 236.792 L204.445 236.792 L204.445 228.644 L188.843 228.644 L188.843 224.13 L203.218 202.232 Z" fill="#000000" fill-rule="nonzero" fill-opacity="1" /><path clip-path="url(#clip290)" d="M29.4065 815.312 L34.9447 815.312 Q33.6716 817.795 33.035 820.468 Q32.3984 823.142 32.3984 826.007 Q32.3984 830.367 33.7352 832.563 Q35.072 834.728 37.7456 834.728 Q39.7826 834.728 40.9603 833.168 Q42.1061 831.608 43.1565 826.898 L43.6021 824.893 Q44.9389 818.654 47.3897 816.044 Q49.8086 813.402 54.1691 813.402 Q59.1344 813.402 62.0308 817.349 Q64.9272 821.264 64.9272 828.139 Q64.9272 831.004 64.3543 834.123 Q63.8132 837.21 62.6992 840.648 L56.6518 840.648 Q58.3387 837.401 59.198 834.25 Q60.0256 831.099 60.0256 828.012 Q60.0256 823.874 58.6251 821.646 Q57.1929 819.418 54.6147 819.418 Q52.2276 819.418 50.9545 821.041 Q49.6813 822.633 48.5037 828.075 L48.0262 830.112 Q46.8804 835.555 44.5251 837.974 Q42.138 840.393 38.0002 840.393 Q32.9713 840.393 30.2341 836.828 Q27.4968 833.263 27.4968 826.707 Q27.4968 823.46 27.9743 820.596 Q28.4517 817.731 29.4065 815.312 Z" fill="#000000" fill-rule="nonzero" fill-opacity="1" /><path clip-path="url(#clip290)" d="M18.2347 798.284 L28.3562 798.284 L28.3562 786.221 L32.9077 786.221 L32.9077 798.284 L52.2594 798.284 Q56.6199 798.284 57.8613 797.106 Q59.1026 795.897 59.1026 792.236 L59.1026 786.221 L64.0042 786.221 L64.0042 792.236 Q64.0042 799.016 61.4897 801.594 Q58.9434 804.172 52.2594 804.172 L32.9077 804.172 L32.9077 808.469 L28.3562 808.469 L28.3562 804.172 L18.2347 804.172 L18.2347 798.284 Z" fill="#000000" fill-rule="nonzero" fill-opacity="1" /><path clip-path="url(#clip290)" d="M33.7671 755.061 L14.479 755.061 L14.479 749.204 L64.0042 749.204 L64.0042 755.061 L58.657 755.061 Q61.8398 756.907 63.3994 759.74 Q64.9272 762.54 64.9272 766.487 Q64.9272 772.948 59.771 777.022 Q54.6147 781.065 46.212 781.065 Q37.8093 781.065 32.6531 777.022 Q27.4968 772.948 27.4968 766.487 Q27.4968 762.54 29.0564 759.74 Q30.5842 756.907 33.7671 755.061 M46.212 775.017 Q52.6732 775.017 56.3653 772.375 Q60.0256 769.702 60.0256 765.055 Q60.0256 760.408 56.3653 757.734 Q52.6732 755.061 46.212 755.061 Q39.7508 755.061 36.0905 757.734 Q32.3984 760.408 32.3984 765.055 Q32.3984 769.702 36.0905 772.375 Q39.7508 775.017 46.212 775.017 Z" fill="#000000" fill-rule="nonzero" fill-opacity="1" /><path clip-path="url(#clip290)" d="M370.668 30.2134 L370.668 37.0536 Q366.675 35.1439 363.133 34.2064 Q359.592 33.2689 356.293 33.2689 Q350.564 33.2689 347.439 35.4911 Q344.349 37.7133 344.349 41.8105 Q344.349 45.248 346.397 47.0188 Q348.48 48.7549 354.244 49.8313 L358.48 50.6994 Q366.328 52.1924 370.043 55.9771 Q373.793 59.7271 373.793 66.0465 Q373.793 73.5812 368.723 77.4701 Q363.689 81.3589 353.932 81.3589 Q350.251 81.3589 346.085 80.5256 Q341.953 79.6923 337.508 78.0603 L337.508 70.8382 Q341.779 73.234 345.876 74.4493 Q349.974 75.6645 353.932 75.6645 Q359.939 75.6645 363.203 73.3034 Q366.466 70.9423 366.466 66.5674 Q366.466 62.7479 364.105 60.5952 Q361.779 58.4424 356.432 57.366 L352.161 56.5327 Q344.314 54.9702 340.807 51.6369 Q337.3 48.3036 337.3 42.3661 Q337.3 35.4911 342.126 31.5328 Q346.987 27.5745 355.494 27.5745 Q359.14 27.5745 362.925 28.2342 Q366.71 28.8939 370.668 30.2134 Z" fill="#000000" fill-rule="nonzero" fill-opacity="1" /><path clip-path="url(#clip290)" d="M390.772 30.4217 L390.772 41.4633 L403.932 41.4633 L403.932 46.4286 L390.772 46.4286 L390.772 67.5396 Q390.772 72.2965 392.057 73.6506 Q393.376 75.0048 397.369 75.0048 L403.932 75.0048 L403.932 80.352 L397.369 80.352 Q389.973 80.352 387.161 77.609 Q384.348 74.8312 384.348 67.5396 L384.348 46.4286 L379.661 46.4286 L379.661 41.4633 L384.348 41.4633 L384.348 30.4217 L390.772 30.4217 Z" fill="#000000" fill-rule="nonzero" fill-opacity="1" /><path clip-path="url(#clip290)" d="M430.008 60.8035 Q422.265 60.8035 419.279 62.5743 Q416.293 64.3451 416.293 68.616 Q416.293 72.0187 418.515 74.0326 Q420.772 76.0117 424.626 76.0117 Q429.938 76.0117 433.133 72.2618 Q436.362 68.4771 436.362 62.2271 L436.362 60.8035 L430.008 60.8035 M442.751 58.1646 L442.751 80.352 L436.362 80.352 L436.362 74.4493 Q434.174 77.9909 430.911 79.6923 Q427.647 81.3589 422.925 81.3589 Q416.952 81.3589 413.411 78.0256 Q409.904 74.6576 409.904 69.0326 Q409.904 62.4702 414.279 59.1368 Q418.688 55.8035 427.404 55.8035 L436.362 55.8035 L436.362 55.1785 Q436.362 50.7688 433.445 48.373 Q430.563 45.9425 425.32 45.9425 Q421.987 45.9425 418.827 46.7411 Q415.668 47.5397 412.751 49.1369 L412.751 43.2341 Q416.258 41.88 419.556 41.2203 Q422.855 40.5258 425.98 40.5258 Q434.418 40.5258 438.584 44.9008 Q442.751 49.2758 442.751 58.1646 Z" fill="#000000" fill-rule="nonzero" fill-opacity="1" /><path clip-path="url(#clip290)" d="M488.237 56.8799 L488.237 80.352 L481.848 80.352 L481.848 57.0882 Q481.848 51.5674 479.695 48.8244 Q477.542 46.0814 473.237 46.0814 Q468.063 46.0814 465.077 49.3799 Q462.091 52.6785 462.091 58.373 L462.091 80.352 L455.667 80.352 L455.667 41.4633 L462.091 41.4633 L462.091 47.505 Q464.383 43.998 467.473 42.2619 Q470.598 40.5258 474.66 40.5258 Q481.362 40.5258 484.799 44.6925 Q488.237 48.8244 488.237 56.8799 Z" fill="#000000" fill-rule="nonzero" fill-opacity="1" /><path clip-path="url(#clip290)" d="M526.57 47.3661 L526.57 26.3245 L532.959 26.3245 L532.959 80.352 L526.57 80.352 L526.57 74.5187 Q524.556 77.9909 521.466 79.6923 Q518.41 81.3589 514.105 81.3589 Q507.056 81.3589 502.612 75.734 Q498.202 70.109 498.202 60.9424 Q498.202 51.7758 502.612 46.1508 Q507.056 40.5258 514.105 40.5258 Q518.41 40.5258 521.466 42.2272 Q524.556 43.8939 526.57 47.3661 M504.799 60.9424 Q504.799 67.991 507.681 72.0187 Q510.598 76.0117 515.667 76.0117 Q520.736 76.0117 523.653 72.0187 Q526.57 67.991 526.57 60.9424 Q526.57 53.8938 523.653 49.9008 Q520.736 45.873 515.667 45.873 Q510.598 45.873 507.681 49.9008 Q504.799 53.8938 504.799 60.9424 Z" fill="#000000" fill-rule="nonzero" fill-opacity="1" /><path clip-path="url(#clip290)" d="M563.792 60.8035 Q556.049 60.8035 553.063 62.5743 Q550.077 64.3451 550.077 68.616 Q550.077 72.0187 552.299 74.0326 Q554.556 76.0117 558.41 76.0117 Q563.722 76.0117 566.917 72.2618 Q570.146 68.4771 570.146 62.2271 L570.146 60.8035 L563.792 60.8035 M576.535 58.1646 L576.535 80.352 L570.146 80.352 L570.146 74.4493 Q567.958 77.9909 564.695 79.6923 Q561.431 81.3589 556.709 81.3589 Q550.736 81.3589 547.195 78.0256 Q543.688 74.6576 543.688 69.0326 Q543.688 62.4702 548.063 59.1368 Q552.472 55.8035 561.188 55.8035 L570.146 55.8035 L570.146 55.1785 Q570.146 50.7688 567.229 48.373 Q564.347 45.9425 559.104 45.9425 Q555.771 45.9425 552.611 46.7411 Q549.452 47.5397 546.535 49.1369 L546.535 43.2341 Q550.042 41.88 553.34 41.2203 Q556.639 40.5258 559.764 40.5258 Q568.202 40.5258 572.368 44.9008 Q576.535 49.2758 576.535 58.1646 Z" fill="#000000" fill-rule="nonzero" fill-opacity="1" /><path clip-path="url(#clip290)" d="M612.229 47.4355 Q611.153 46.8105 609.868 46.5327 Q608.618 46.2202 607.09 46.2202 Q601.674 46.2202 598.757 49.7619 Q595.875 53.2688 595.875 59.866 L595.875 80.352 L589.451 80.352 L589.451 41.4633 L595.875 41.4633 L595.875 47.505 Q597.889 43.9633 601.118 42.2619 Q604.347 40.5258 608.965 40.5258 Q609.625 40.5258 610.424 40.63 Q611.222 40.6994 612.194 40.873 L612.229 47.4355 Z" fill="#000000" fill-rule="nonzero" fill-opacity="1" /><path clip-path="url(#clip290)" d="M643.271 47.3661 L643.271 26.3245 L649.659 26.3245 L649.659 80.352 L643.271 80.352 L643.271 74.5187 Q641.257 77.9909 638.166 79.6923 Q635.111 81.3589 630.805 81.3589 Q623.757 81.3589 619.312 75.734 Q614.903 70.109 614.903 60.9424 Q614.903 51.7758 619.312 46.1508 Q623.757 40.5258 630.805 40.5258 Q635.111 40.5258 638.166 42.2272 Q641.257 43.8939 643.271 47.3661 M621.5 60.9424 Q621.5 67.991 624.382 72.0187 Q627.298 76.0117 632.368 76.0117 Q637.437 76.0117 640.354 72.0187 Q643.271 67.991 643.271 60.9424 Q643.271 53.8938 640.354 49.9008 Q637.437 45.873 632.368 45.873 Q627.298 45.873 624.382 49.9008 Q621.5 53.8938 621.5 60.9424 Z" fill="#000000" fill-rule="nonzero" fill-opacity="1" /><path clip-path="url(#clip290)" d="M711.013 47.3661 L711.013 26.3245 L717.402 26.3245 L717.402 80.352 L711.013 80.352 L711.013 74.5187 Q708.999 77.9909 705.909 79.6923 Q702.854 81.3589 698.548 81.3589 Q691.499 81.3589 687.055 75.734 Q682.645 70.109 682.645 60.9424 Q682.645 51.7758 687.055 46.1508 Q691.499 40.5258 698.548 40.5258 Q702.854 40.5258 705.909 42.2272 Q708.999 43.8939 711.013 47.3661 M689.243 60.9424 Q689.243 67.991 692.124 72.0187 Q695.041 76.0117 700.111 76.0117 Q705.18 76.0117 708.097 72.0187 Q711.013 67.991 711.013 60.9424 Q711.013 53.8938 708.097 49.9008 Q705.18 45.873 700.111 45.873 Q695.041 45.873 692.124 49.9008 Q689.243 53.8938 689.243 60.9424 Z" fill="#000000" fill-rule="nonzero" fill-opacity="1" /><path clip-path="url(#clip290)" d="M763.825 59.3104 L763.825 62.4354 L734.451 62.4354 Q734.867 69.0326 738.409 72.5048 Q741.985 75.9423 748.339 75.9423 Q752.02 75.9423 755.457 75.0395 Q758.93 74.1368 762.332 72.3312 L762.332 78.3728 Q758.895 79.8312 755.284 80.5951 Q751.673 81.3589 747.957 81.3589 Q738.652 81.3589 733.201 75.9423 Q727.784 70.5257 727.784 61.2896 Q727.784 51.741 732.923 46.1508 Q738.096 40.5258 746.846 40.5258 Q754.694 40.5258 759.242 45.5952 Q763.825 50.6299 763.825 59.3104 M757.437 57.4355 Q757.367 52.1924 754.485 49.0674 Q751.638 45.9425 746.916 45.9425 Q741.569 45.9425 738.339 48.9633 Q735.145 51.9841 734.659 57.4702 L757.437 57.4355 Z" fill="#000000" fill-rule="nonzero" fill-opacity="1" /><path clip-path="url(#clip290)" d="M769.728 41.4633 L776.499 41.4633 L788.652 74.102 L800.804 41.4633 L807.575 41.4633 L792.992 80.352 L784.311 80.352 L769.728 41.4633 Z" fill="#000000" fill-rule="nonzero" fill-opacity="1" /><path clip-path="url(#clip290)" d="M816.395 41.4633 L822.783 41.4633 L822.783 80.352 L816.395 80.352 L816.395 41.4633 M816.395 26.3245 L822.783 26.3245 L822.783 34.4147 L816.395 34.4147 L816.395 26.3245 Z" fill="#000000" fill-rule="nonzero" fill-opacity="1" /><path clip-path="url(#clip290)" d="M853.825 60.8035 Q846.082 60.8035 843.096 62.5743 Q840.11 64.3451 840.11 68.616 Q840.11 72.0187 842.332 74.0326 Q844.589 76.0117 848.443 76.0117 Q853.756 76.0117 856.95 72.2618 Q860.179 68.4771 860.179 62.2271 L860.179 60.8035 L853.825 60.8035 M866.568 58.1646 L866.568 80.352 L860.179 80.352 L860.179 74.4493 Q857.992 77.9909 854.728 79.6923 Q851.464 81.3589 846.742 81.3589 Q840.769 81.3589 837.228 78.0256 Q833.721 74.6576 833.721 69.0326 Q833.721 62.4702 838.096 59.1368 Q842.506 55.8035 851.221 55.8035 L860.179 55.8035 L860.179 55.1785 Q860.179 50.7688 857.262 48.373 Q854.381 45.9425 849.138 45.9425 Q845.804 45.9425 842.644 46.7411 Q839.485 47.5397 836.568 49.1369 L836.568 43.2341 Q840.075 41.88 843.374 41.2203 Q846.672 40.5258 849.797 40.5258 Q858.235 40.5258 862.401 44.9008 Q866.568 49.2758 866.568 58.1646 Z" fill="#000000" fill-rule="nonzero" fill-opacity="1" /><path clip-path="url(#clip290)" d="M886.047 30.4217 L886.047 41.4633 L899.207 41.4633 L899.207 46.4286 L886.047 46.4286 L886.047 67.5396 Q886.047 72.2965 887.332 73.6506 Q888.651 75.0048 892.644 75.0048 L899.207 75.0048 L899.207 80.352 L892.644 80.352 Q885.248 80.352 882.436 77.609 Q879.623 74.8312 879.623 67.5396 L879.623 46.4286 L874.936 46.4286 L874.936 41.4633 L879.623 41.4633 L879.623 30.4217 L886.047 30.4217 Z" fill="#000000" fill-rule="nonzero" fill-opacity="1" /><path clip-path="url(#clip290)" d="M907.609 41.4633 L913.998 41.4633 L913.998 80.352 L907.609 80.352 L907.609 41.4633 M907.609 26.3245 L913.998 26.3245 L913.998 34.4147 L907.609 34.4147 L907.609 26.3245 Z" fill="#000000" fill-rule="nonzero" fill-opacity="1" /><path clip-path="url(#clip290)" d="M942.436 45.9425 Q937.297 45.9425 934.311 49.9702 Q931.325 53.9633 931.325 60.9424 Q931.325 67.9215 934.276 71.9493 Q937.262 75.9423 942.436 75.9423 Q947.54 75.9423 950.526 71.9145 Q953.512 67.8868 953.512 60.9424 Q953.512 54.0327 950.526 50.0049 Q947.54 45.9425 942.436 45.9425 M942.436 40.5258 Q950.769 40.5258 955.526 45.9425 Q960.283 51.3591 960.283 60.9424 Q960.283 70.4909 955.526 75.9423 Q950.769 81.3589 942.436 81.3589 Q934.068 81.3589 929.311 75.9423 Q924.588 70.4909 924.588 60.9424 Q924.588 51.3591 929.311 45.9425 Q934.068 40.5258 942.436 40.5258 Z" fill="#000000" fill-rule="nonzero" fill-opacity="1" /><path clip-path="url(#clip290)" d="M1003.2 56.8799 L1003.2 80.352 L996.81 80.352 L996.81 57.0882 Q996.81 51.5674 994.658 48.8244 Q992.505 46.0814 988.199 46.0814 Q983.026 46.0814 980.04 49.3799 Q977.053 52.6785 977.053 58.373 L977.053 80.352 L970.63 80.352 L970.63 41.4633 L977.053 41.4633 L977.053 47.505 Q979.345 43.998 982.435 42.2619 Q985.56 40.5258 989.623 40.5258 Q996.324 40.5258 999.762 44.6925 Q1003.2 48.8244 1003.2 56.8799 Z" fill="#000000" fill-rule="nonzero" fill-opacity="1" /><path clip-path="url(#clip290)" d="M1053.62 45.9425 Q1048.48 45.9425 1045.49 49.9702 Q1042.5 53.9633 1042.5 60.9424 Q1042.5 67.9215 1045.46 71.9493 Q1048.44 75.9423 1053.62 75.9423 Q1058.72 75.9423 1061.71 71.9145 Q1064.69 67.8868 1064.69 60.9424 Q1064.69 54.0327 1061.71 50.0049 Q1058.72 45.9425 1053.62 45.9425 M1053.62 40.5258 Q1061.95 40.5258 1066.71 45.9425 Q1071.46 51.3591 1071.46 60.9424 Q1071.46 70.4909 1066.71 75.9423 Q1061.95 81.3589 1053.62 81.3589 Q1045.25 81.3589 1040.49 75.9423 Q1035.77 70.4909 1035.77 60.9424 Q1035.77 51.3591 1040.49 45.9425 Q1045.25 40.5258 1053.62 40.5258 Z" fill="#000000" fill-rule="nonzero" fill-opacity="1" /><path clip-path="url(#clip290)" d="M1101.74 26.3245 L1101.74 31.637 L1095.63 31.637 Q1092.19 31.637 1090.84 33.0259 Q1089.52 34.4147 1089.52 38.0258 L1089.52 41.4633 L1100.04 41.4633 L1100.04 46.4286 L1089.52 46.4286 L1089.52 80.352 L1083.09 80.352 L1083.09 46.4286 L1076.98 46.4286 L1076.98 41.4633 L1083.09 41.4633 L1083.09 38.755 Q1083.09 32.262 1086.12 29.3106 Q1089.14 26.3245 1095.7 26.3245 L1101.74 26.3245 Z" fill="#000000" fill-rule="nonzero" fill-opacity="1" /><path clip-path="url(#clip290)" d="M1159.97 48.9286 Q1162.36 44.623 1165.7 42.5744 Q1169.03 40.5258 1173.55 40.5258 Q1179.62 40.5258 1182.92 44.7966 Q1186.22 49.0327 1186.22 56.8799 L1186.22 80.352 L1179.8 80.352 L1179.8 57.0882 Q1179.8 51.498 1177.82 48.7897 Q1175.84 46.0814 1171.77 46.0814 Q1166.81 46.0814 1163.93 49.3799 Q1161.05 52.6785 1161.05 58.373 L1161.05 80.352 L1154.62 80.352 L1154.62 57.0882 Q1154.62 51.4633 1152.64 48.7897 Q1150.66 46.0814 1146.53 46.0814 Q1141.64 46.0814 1138.75 49.4147 Q1135.87 52.7133 1135.87 58.373 L1135.87 80.352 L1129.45 80.352 L1129.45 41.4633 L1135.87 41.4633 L1135.87 47.505 Q1138.06 43.9286 1141.12 42.2272 Q1144.17 40.5258 1148.37 40.5258 Q1152.61 40.5258 1155.56 42.6786 Q1158.55 44.8314 1159.97 48.9286 Z" fill="#000000" fill-rule="nonzero" fill-opacity="1" /><path clip-path="url(#clip290)" d="M1232.23 59.3104 L1232.23 62.4354 L1202.85 62.4354 Q1203.27 69.0326 1206.81 72.5048 Q1210.39 75.9423 1216.74 75.9423 Q1220.42 75.9423 1223.86 75.0395 Q1227.33 74.1368 1230.73 72.3312 L1230.73 78.3728 Q1227.3 79.8312 1223.68 80.5951 Q1220.07 81.3589 1216.36 81.3589 Q1207.05 81.3589 1201.6 75.9423 Q1196.18 70.5257 1196.18 61.2896 Q1196.18 51.741 1201.32 46.1508 Q1206.5 40.5258 1215.25 40.5258 Q1223.09 40.5258 1227.64 45.5952 Q1232.23 50.6299 1232.23 59.3104 M1225.84 57.4355 Q1225.77 52.1924 1222.89 49.0674 Q1220.04 45.9425 1215.32 45.9425 Q1209.97 45.9425 1206.74 48.9633 Q1203.55 51.9841 1203.06 57.4702 L1225.84 57.4355 Z" fill="#000000" fill-rule="nonzero" fill-opacity="1" /><path clip-path="url(#clip290)" d="M1260.39 60.8035 Q1252.64 60.8035 1249.66 62.5743 Q1246.67 64.3451 1246.67 68.616 Q1246.67 72.0187 1248.89 74.0326 Q1251.15 76.0117 1255 76.0117 Q1260.32 76.0117 1263.51 72.2618 Q1266.74 68.4771 1266.74 62.2271 L1266.74 60.8035 L1260.39 60.8035 M1273.13 58.1646 L1273.13 80.352 L1266.74 80.352 L1266.74 74.4493 Q1264.55 77.9909 1261.29 79.6923 Q1258.02 81.3589 1253.3 81.3589 Q1247.33 81.3589 1243.79 78.0256 Q1240.28 74.6576 1240.28 69.0326 Q1240.28 62.4702 1244.66 59.1368 Q1249.07 55.8035 1257.78 55.8035 L1266.74 55.8035 L1266.74 55.1785 Q1266.74 50.7688 1263.82 48.373 Q1260.94 45.9425 1255.7 45.9425 Q1252.36 45.9425 1249.2 46.7411 Q1246.05 47.5397 1243.13 49.1369 L1243.13 43.2341 Q1246.64 41.88 1249.93 41.2203 Q1253.23 40.5258 1256.36 40.5258 Q1264.79 40.5258 1268.96 44.9008 Q1273.13 49.2758 1273.13 58.1646 Z" fill="#000000" fill-rule="nonzero" fill-opacity="1" /><path clip-path="url(#clip290)" d="M1318.61 56.8799 L1318.61 80.352 L1312.23 80.352 L1312.23 57.0882 Q1312.23 51.5674 1310.07 48.8244 Q1307.92 46.0814 1303.61 46.0814 Q1298.44 46.0814 1295.45 49.3799 Q1292.47 52.6785 1292.47 58.373 L1292.47 80.352 L1286.04 80.352 L1286.04 41.4633 L1292.47 41.4633 L1292.47 47.505 Q1294.76 43.998 1297.85 42.2619 Q1300.98 40.5258 1305.04 40.5258 Q1311.74 40.5258 1315.18 44.6925 Q1318.61 48.8244 1318.61 56.8799 Z" fill="#000000" fill-rule="nonzero" fill-opacity="1" /><path clip-path="url(#clip290)" d="M1384.24 48.9286 Q1386.63 44.623 1389.97 42.5744 Q1393.3 40.5258 1397.82 40.5258 Q1403.89 40.5258 1407.19 44.7966 Q1410.49 49.0327 1410.49 56.8799 L1410.49 80.352 L1404.07 80.352 L1404.07 57.0882 Q1404.07 51.498 1402.09 48.7897 Q1400.11 46.0814 1396.04 46.0814 Q1391.08 46.0814 1388.2 49.3799 Q1385.32 52.6785 1385.32 58.373 L1385.32 80.352 L1378.89 80.352 L1378.89 57.0882 Q1378.89 51.4633 1376.91 48.7897 Q1374.93 46.0814 1370.8 46.0814 Q1365.91 46.0814 1363.02 49.4147 Q1360.14 52.7133 1360.14 58.373 L1360.14 80.352 L1353.72 80.352 L1353.72 41.4633 L1360.14 41.4633 L1360.14 47.505 Q1362.33 43.9286 1365.38 42.2272 Q1368.44 40.5258 1372.64 40.5258 Q1376.88 40.5258 1379.83 42.6786 Q1382.82 44.8314 1384.24 48.9286 Z" fill="#000000" fill-rule="nonzero" fill-opacity="1" /><path clip-path="url(#clip290)" d="M1440.91 60.8035 Q1433.16 60.8035 1430.18 62.5743 Q1427.19 64.3451 1427.19 68.616 Q1427.19 72.0187 1429.41 74.0326 Q1431.67 76.0117 1435.52 76.0117 Q1440.84 76.0117 1444.03 72.2618 Q1447.26 68.4771 1447.26 62.2271 L1447.26 60.8035 L1440.91 60.8035 M1453.65 58.1646 L1453.65 80.352 L1447.26 80.352 L1447.26 74.4493 Q1445.07 77.9909 1441.81 79.6923 Q1438.54 81.3589 1433.82 81.3589 Q1427.85 81.3589 1424.31 78.0256 Q1420.8 74.6576 1420.8 69.0326 Q1420.8 62.4702 1425.18 59.1368 Q1429.59 55.8035 1438.3 55.8035 L1447.26 55.8035 L1447.26 55.1785 Q1447.26 50.7688 1444.34 48.373 Q1441.46 45.9425 1436.22 45.9425 Q1432.88 45.9425 1429.72 46.7411 Q1426.56 47.5397 1423.65 49.1369 L1423.65 43.2341 Q1427.16 41.88 1430.45 41.2203 Q1433.75 40.5258 1436.88 40.5258 Q1445.31 40.5258 1449.48 44.9008 Q1453.65 49.2758 1453.65 58.1646 Z" fill="#000000" fill-rule="nonzero" fill-opacity="1" /><path clip-path="url(#clip290)" d="M1492.4 60.4563 Q1492.4 53.5119 1489.52 49.6924 Q1486.67 45.873 1481.5 45.873 Q1476.36 45.873 1473.47 49.6924 Q1470.63 53.5119 1470.63 60.4563 Q1470.63 67.366 1473.47 71.1854 Q1476.36 75.0048 1481.5 75.0048 Q1486.67 75.0048 1489.52 71.1854 Q1492.4 67.366 1492.4 60.4563 M1498.79 75.5256 Q1498.79 85.4561 1494.38 90.2825 Q1489.97 95.1436 1480.87 95.1436 Q1477.5 95.1436 1474.52 94.6228 Q1471.53 94.1366 1468.72 93.095 L1468.72 86.8797 Q1471.53 88.4075 1474.27 89.1367 Q1477.02 89.8658 1479.86 89.8658 Q1486.15 89.8658 1489.27 86.5672 Q1492.4 83.3034 1492.4 76.6715 L1492.4 73.5118 Q1490.42 76.9492 1487.33 78.6506 Q1484.24 80.352 1479.93 80.352 Q1472.78 80.352 1468.41 74.9006 Q1464.03 69.4493 1464.03 60.4563 Q1464.03 51.4285 1468.41 45.9772 Q1472.78 40.5258 1479.93 40.5258 Q1484.24 40.5258 1487.33 42.2272 Q1490.42 43.9286 1492.4 47.3661 L1492.4 41.4633 L1498.79 41.4633 L1498.79 75.5256 Z" fill="#000000" fill-rule="nonzero" fill-opacity="1" /><path clip-path="url(#clip290)" d="M1544.27 56.8799 L1544.27 80.352 L1537.88 80.352 L1537.88 57.0882 Q1537.88 51.5674 1535.73 48.8244 Q1533.58 46.0814 1529.27 46.0814 Q1524.1 46.0814 1521.11 49.3799 Q1518.13 52.6785 1518.13 58.373 L1518.13 80.352 L1511.7 80.352 L1511.7 41.4633 L1518.13 41.4633 L1518.13 47.505 Q1520.42 43.998 1523.51 42.2619 Q1526.63 40.5258 1530.7 40.5258 Q1537.4 40.5258 1540.84 44.6925 Q1544.27 48.8244 1544.27 56.8799 Z" fill="#000000" fill-rule="nonzero" fill-opacity="1" /><path clip-path="url(#clip290)" d="M1590.28 59.3104 L1590.28 62.4354 L1560.9 62.4354 Q1561.32 69.0326 1564.86 72.5048 Q1568.44 75.9423 1574.79 75.9423 Q1578.47 75.9423 1581.91 75.0395 Q1585.38 74.1368 1588.79 72.3312 L1588.79 78.3728 Q1585.35 79.8312 1581.74 80.5951 Q1578.13 81.3589 1574.41 81.3589 Q1565.11 81.3589 1559.65 75.9423 Q1554.24 70.5257 1554.24 61.2896 Q1554.24 51.741 1559.38 46.1508 Q1564.55 40.5258 1573.3 40.5258 Q1581.15 40.5258 1585.7 45.5952 Q1590.28 50.6299 1590.28 59.3104 M1583.89 57.4355 Q1583.82 52.1924 1580.94 49.0674 Q1578.09 45.9425 1573.37 45.9425 Q1568.02 45.9425 1564.79 48.9633 Q1561.6 51.9841 1561.11 57.4702 L1583.89 57.4355 Z" fill="#000000" fill-rule="nonzero" fill-opacity="1" /><path clip-path="url(#clip290)" d="M1607.08 30.4217 L1607.08 41.4633 L1620.24 41.4633 L1620.24 46.4286 L1607.08 46.4286 L1607.08 67.5396 Q1607.08 72.2965 1608.37 73.6506 Q1609.69 75.0048 1613.68 75.0048 L1620.24 75.0048 L1620.24 80.352 L1613.68 80.352 Q1606.29 80.352 1603.47 77.609 Q1600.66 74.8312 1600.66 67.5396 L1600.66 46.4286 L1595.97 46.4286 L1595.97 41.4633 L1600.66 41.4633 L1600.66 30.4217 L1607.08 30.4217 Z" fill="#000000" fill-rule="nonzero" fill-opacity="1" /><path clip-path="url(#clip290)" d="M1628.65 41.4633 L1635.04 41.4633 L1635.04 80.352 L1628.65 80.352 L1628.65 41.4633 M1628.65 26.3245 L1635.04 26.3245 L1635.04 34.4147 L1628.65 34.4147 L1628.65 26.3245 Z" fill="#000000" fill-rule="nonzero" fill-opacity="1" /><path clip-path="url(#clip290)" d="M1673.2 42.6091 L1673.2 48.6508 Q1670.49 47.2619 1667.57 46.5675 Q1664.65 45.873 1661.53 45.873 Q1656.77 45.873 1654.38 47.3313 Q1652.02 48.7897 1652.02 51.7063 Q1652.02 53.9285 1653.72 55.2132 Q1655.42 56.4632 1660.56 57.6091 L1662.74 58.0952 Q1669.55 59.5535 1672.4 62.2271 Q1675.28 64.866 1675.28 69.6229 Q1675.28 75.0395 1670.97 78.1992 Q1666.7 81.3589 1659.2 81.3589 Q1656.08 81.3589 1652.67 80.7339 Q1649.31 80.1437 1645.56 78.9284 L1645.56 72.3312 Q1649.1 74.1715 1652.54 75.109 Q1655.97 76.0117 1659.34 76.0117 Q1663.86 76.0117 1666.29 74.484 Q1668.72 72.9215 1668.72 70.109 Q1668.72 67.5048 1666.95 66.116 Q1665.21 64.7271 1659.27 63.4424 L1657.05 62.9215 Q1651.11 61.6715 1648.47 59.1021 Q1645.83 56.498 1645.83 51.9841 Q1645.83 46.498 1649.72 43.5119 Q1653.61 40.5258 1660.77 40.5258 Q1664.31 40.5258 1667.43 41.0467 Q1670.56 41.5675 1673.2 42.6091 Z" fill="#000000" fill-rule="nonzero" fill-opacity="1" /><path clip-path="url(#clip290)" d="M1703.13 60.8035 Q1695.38 60.8035 1692.4 62.5743 Q1689.41 64.3451 1689.41 68.616 Q1689.41 72.0187 1691.63 74.0326 Q1693.89 76.0117 1697.74 76.0117 Q1703.06 76.0117 1706.25 72.2618 Q1709.48 68.4771 1709.48 62.2271 L1709.48 60.8035 L1703.13 60.8035 M1715.87 58.1646 L1715.87 80.352 L1709.48 80.352 L1709.48 74.4493 Q1707.29 77.9909 1704.03 79.6923 Q1700.76 81.3589 1696.04 81.3589 Q1690.07 81.3589 1686.53 78.0256 Q1683.02 74.6576 1683.02 69.0326 Q1683.02 62.4702 1687.4 59.1368 Q1691.81 55.8035 1700.52 55.8035 L1709.48 55.8035 L1709.48 55.1785 Q1709.48 50.7688 1706.56 48.373 Q1703.68 45.9425 1698.44 45.9425 Q1695.11 45.9425 1691.95 46.7411 Q1688.79 47.5397 1685.87 49.1369 L1685.87 43.2341 Q1689.38 41.88 1692.67 41.2203 Q1695.97 40.5258 1699.1 40.5258 Q1707.54 40.5258 1711.7 44.9008 Q1715.87 49.2758 1715.87 58.1646 Z" fill="#000000" fill-rule="nonzero" fill-opacity="1" /><path clip-path="url(#clip290)" d="M1735.35 30.4217 L1735.35 41.4633 L1748.51 41.4633 L1748.51 46.4286 L1735.35 46.4286 L1735.35 67.5396 Q1735.35 72.2965 1736.63 73.6506 Q1737.95 75.0048 1741.95 75.0048 L1748.51 75.0048 L1748.51 80.352 L1741.95 80.352 Q1734.55 80.352 1731.74 77.609 Q1728.92 74.8312 1728.92 67.5396 L1728.92 46.4286 L1724.24 46.4286 L1724.24 41.4633 L1728.92 41.4633 L1728.92 30.4217 L1735.35 30.4217 Z" fill="#000000" fill-rule="nonzero" fill-opacity="1" /><path clip-path="url(#clip290)" d="M1756.91 41.4633 L1763.3 41.4633 L1763.3 80.352 L1756.91 80.352 L1756.91 41.4633 M1756.91 26.3245 L1763.3 26.3245 L1763.3 34.4147 L1756.91 34.4147 L1756.91 26.3245 Z" fill="#000000" fill-rule="nonzero" fill-opacity="1" /><path clip-path="url(#clip290)" d="M1791.74 45.9425 Q1786.6 45.9425 1783.61 49.9702 Q1780.63 53.9633 1780.63 60.9424 Q1780.63 67.9215 1783.58 71.9493 Q1786.56 75.9423 1791.74 75.9423 Q1796.84 75.9423 1799.83 71.9145 Q1802.81 67.8868 1802.81 60.9424 Q1802.81 54.0327 1799.83 50.0049 Q1796.84 45.9425 1791.74 45.9425 M1791.74 40.5258 Q1800.07 40.5258 1804.83 45.9425 Q1809.58 51.3591 1809.58 60.9424 Q1809.58 70.4909 1804.83 75.9423 Q1800.07 81.3589 1791.74 81.3589 Q1783.37 81.3589 1778.61 75.9423 Q1773.89 70.4909 1773.89 60.9424 Q1773.89 51.3591 1778.61 45.9425 Q1783.37 40.5258 1791.74 40.5258 Z" fill="#000000" fill-rule="nonzero" fill-opacity="1" /><path clip-path="url(#clip290)" d="M1852.5 56.8799 L1852.5 80.352 L1846.11 80.352 L1846.11 57.0882 Q1846.11 51.5674 1843.96 48.8244 Q1841.81 46.0814 1837.5 46.0814 Q1832.33 46.0814 1829.34 49.3799 Q1826.35 52.6785 1826.35 58.373 L1826.35 80.352 L1819.93 80.352 L1819.93 41.4633 L1826.35 41.4633 L1826.35 47.505 Q1828.65 43.998 1831.74 42.2619 Q1834.86 40.5258 1838.92 40.5258 Q1845.63 40.5258 1849.06 44.6925 Q1852.5 48.8244 1852.5 56.8799 Z" fill="#000000" fill-rule="nonzero" fill-opacity="1" /><path clip-path="url(#clip290)" d="M1907.53 26.3245 L1907.53 31.637 L1901.42 31.637 Q1897.99 31.637 1896.63 33.0259 Q1895.31 34.4147 1895.31 38.0258 L1895.31 41.4633 L1905.83 41.4633 L1905.83 46.4286 L1895.31 46.4286 L1895.31 80.352 L1888.89 80.352 L1888.89 46.4286 L1882.78 46.4286 L1882.78 41.4633 L1888.89 41.4633 L1888.89 38.755 Q1888.89 32.262 1891.91 29.3106 Q1894.93 26.3245 1901.49 26.3245 L1907.53 26.3245 Z" fill="#000000" fill-rule="nonzero" fill-opacity="1" /><path clip-path="url(#clip290)" d="M1927.95 45.9425 Q1922.81 45.9425 1919.83 49.9702 Q1916.84 53.9633 1916.84 60.9424 Q1916.84 67.9215 1919.79 71.9493 Q1922.78 75.9423 1927.95 75.9423 Q1933.06 75.9423 1936.04 71.9145 Q1939.03 67.8868 1939.03 60.9424 Q1939.03 54.0327 1936.04 50.0049 Q1933.06 45.9425 1927.95 45.9425 M1927.95 40.5258 Q1936.28 40.5258 1941.04 45.9425 Q1945.8 51.3591 1945.8 60.9424 Q1945.8 70.4909 1941.04 75.9423 Q1936.28 81.3589 1927.95 81.3589 Q1919.58 81.3589 1914.83 75.9423 Q1910.1 70.4909 1910.1 60.9424 Q1910.1 51.3591 1914.83 45.9425 Q1919.58 40.5258 1927.95 40.5258 Z" fill="#000000" fill-rule="nonzero" fill-opacity="1" /><path clip-path="url(#clip290)" d="M1978.92 47.4355 Q1977.85 46.8105 1976.56 46.5327 Q1975.31 46.2202 1973.78 46.2202 Q1968.37 46.2202 1965.45 49.7619 Q1962.57 53.2688 1962.57 59.866 L1962.57 80.352 L1956.15 80.352 L1956.15 41.4633 L1962.57 41.4633 L1962.57 47.505 Q1964.58 43.9633 1967.81 42.2619 Q1971.04 40.5258 1975.66 40.5258 Q1976.32 40.5258 1977.12 40.63 Q1977.92 40.6994 1978.89 40.873 L1978.92 47.4355 Z" fill="#000000" fill-rule="nonzero" fill-opacity="1" /><path clip-path="url(#clip290)" d="M2008.23 26.3245 L2014.62 26.3245 L2014.62 80.352 L2008.23 80.352 L2008.23 26.3245 Z" fill="#000000" fill-rule="nonzero" fill-opacity="1" /><path clip-path="url(#clip290)" d="M2045.66 60.8035 Q2037.92 60.8035 2034.93 62.5743 Q2031.94 64.3451 2031.94 68.616 Q2031.94 72.0187 2034.17 74.0326 Q2036.42 76.0117 2040.28 76.0117 Q2045.59 76.0117 2048.78 72.2618 Q2052.01 68.4771 2052.01 62.2271 L2052.01 60.8035 L2045.66 60.8035 M2058.4 58.1646 L2058.4 80.352 L2052.01 80.352 L2052.01 74.4493 Q2049.83 77.9909 2046.56 79.6923 Q2043.3 81.3589 2038.58 81.3589 Q2032.6 81.3589 2029.06 78.0256 Q2025.55 74.6576 2025.55 69.0326 Q2025.55 62.4702 2029.93 59.1368 Q2034.34 55.8035 2043.05 55.8035 L2052.01 55.8035 L2052.01 55.1785 Q2052.01 50.7688 2049.1 48.373 Q2046.21 45.9425 2040.97 45.9425 Q2037.64 45.9425 2034.48 46.7411 Q2031.32 47.5397 2028.4 49.1369 L2028.4 43.2341 Q2031.91 41.88 2035.21 41.2203 Q2038.51 40.5258 2041.63 40.5258 Q2050.07 40.5258 2054.24 44.9008 Q2058.4 49.2758 2058.4 58.1646 Z" fill="#000000" fill-rule="nonzero" fill-opacity="1" /><path clip-path="url(#clip290)" d="M2096.35 42.6091 L2096.35 48.6508 Q2093.64 47.2619 2090.73 46.5675 Q2087.81 45.873 2084.69 45.873 Q2079.93 45.873 2077.53 47.3313 Q2075.17 48.7897 2075.17 51.7063 Q2075.17 53.9285 2076.87 55.2132 Q2078.58 56.4632 2083.71 57.6091 L2085.9 58.0952 Q2092.71 59.5535 2095.55 62.2271 Q2098.44 64.866 2098.44 69.6229 Q2098.44 75.0395 2094.13 78.1992 Q2089.86 81.3589 2082.36 81.3589 Q2079.24 81.3589 2075.83 80.7339 Q2072.46 80.1437 2068.71 78.9284 L2068.71 72.3312 Q2072.26 74.1715 2075.69 75.109 Q2079.13 76.0117 2082.5 76.0117 Q2087.01 76.0117 2089.44 74.484 Q2091.87 72.9215 2091.87 70.109 Q2091.87 67.5048 2090.1 66.116 Q2088.37 64.7271 2082.43 63.4424 L2080.21 62.9215 Q2074.27 61.6715 2071.63 59.1021 Q2068.99 56.498 2068.99 51.9841 Q2068.99 46.498 2072.88 43.5119 Q2076.77 40.5258 2083.92 40.5258 Q2087.46 40.5258 2090.59 41.0467 Q2093.71 41.5675 2096.35 42.6091 Z" fill="#000000" fill-rule="nonzero" fill-opacity="1" /><path clip-path="url(#clip290)" d="M2114.93 30.4217 L2114.93 41.4633 L2128.09 41.4633 L2128.09 46.4286 L2114.93 46.4286 L2114.93 67.5396 Q2114.93 72.2965 2116.21 73.6506 Q2117.53 75.0048 2121.53 75.0048 L2128.09 75.0048 L2128.09 80.352 L2121.53 80.352 Q2114.13 80.352 2111.32 77.609 Q2108.51 74.8312 2108.51 67.5396 L2108.51 46.4286 L2103.82 46.4286 L2103.82 41.4633 L2108.51 41.4633 L2108.51 30.4217 L2114.93 30.4217 Z" fill="#000000" fill-rule="nonzero" fill-opacity="1" /><path clip-path="url(#clip290)" d="M2161.21 74.4493 L2172.67 74.4493 L2172.67 34.9009 L2160.21 37.4008 L2160.21 31.012 L2172.6 28.512 L2179.62 28.512 L2179.62 74.4493 L2191.07 74.4493 L2191.07 80.352 L2161.21 80.352 L2161.21 74.4493 Z" fill="#000000" fill-rule="nonzero" fill-opacity="1" /><path clip-path="url(#clip290)" d="M2220.24 33.13 Q2214.82 33.13 2212.08 38.4772 Q2209.37 43.7897 2209.37 54.4841 Q2209.37 65.1437 2212.08 70.4909 Q2214.82 75.8034 2220.24 75.8034 Q2225.69 75.8034 2228.4 70.4909 Q2231.14 65.1437 2231.14 54.4841 Q2231.14 43.7897 2228.4 38.4772 Q2225.69 33.13 2220.24 33.13 M2220.24 27.5745 Q2228.96 27.5745 2233.54 34.4842 Q2238.16 41.3592 2238.16 54.4841 Q2238.16 67.5743 2233.54 74.484 Q2228.96 81.3589 2220.24 81.3589 Q2211.53 81.3589 2206.91 74.484 Q2202.32 67.5743 2202.32 54.4841 Q2202.32 41.3592 2206.91 34.4842 Q2211.53 27.5745 2220.24 27.5745 Z" fill="#000000" fill-rule="nonzero" fill-opacity="1" /><path clip-path="url(#clip290)" d="M281.762 126.827 L271.658 126.827 L268.741 138.425 L278.915 138.425 L281.762 126.827 M276.554 107.071 L272.943 121.48 L283.082 121.48 L286.727 107.071 L292.283 107.071 L288.706 121.48 L299.54 121.48 L299.54 126.827 L287.352 126.827 L284.505 138.425 L295.547 138.425 L295.547 143.737 L283.151 143.737 L279.54 158.112 L273.984 158.112 L277.561 143.737 L267.387 143.737 L263.811 158.112 L258.221 158.112 L261.832 143.737 L250.894 143.737 L250.894 138.425 L263.116 138.425 L266.033 126.827 L254.852 126.827 L254.852 121.48 L267.387 121.48 L270.929 107.071 L276.554 107.071 Z" fill="#000000" fill-rule="nonzero" fill-opacity="1" /><path clip-path="url(#clip290)" d="M336.484 120.369 L336.484 126.411 Q333.776 125.022 330.859 124.327 Q327.942 123.633 324.817 123.633 Q320.06 123.633 317.665 125.091 Q315.304 126.55 315.304 129.466 Q315.304 131.689 317.005 132.973 Q318.706 134.223 323.845 135.369 L326.033 135.855 Q332.838 137.314 335.685 139.987 Q338.567 142.626 338.567 147.383 Q338.567 152.8 334.262 155.959 Q329.991 159.119 322.491 159.119 Q319.366 159.119 315.963 158.494 Q312.595 157.904 308.845 156.688 L308.845 150.091 Q312.387 151.931 315.824 152.869 Q319.262 153.772 322.63 153.772 Q327.144 153.772 329.574 152.244 Q332.005 150.681 332.005 147.869 Q332.005 145.265 330.234 143.876 Q328.498 142.487 322.56 141.202 L320.338 140.682 Q314.401 139.432 311.762 136.862 Q309.123 134.258 309.123 129.744 Q309.123 124.258 313.012 121.272 Q316.901 118.286 324.054 118.286 Q327.595 118.286 330.72 118.807 Q333.845 119.327 336.484 120.369 Z" fill="#000000" fill-rule="nonzero" fill-opacity="1" /><path clip-path="url(#clip290)" d="M355.06 108.182 L355.06 119.223 L368.22 119.223 L368.22 124.189 L355.06 124.189 L355.06 145.3 Q355.06 150.056 356.345 151.411 Q357.664 152.765 361.657 152.765 L368.22 152.765 L368.22 158.112 L361.657 158.112 Q354.262 158.112 351.449 155.369 Q348.637 152.591 348.637 145.3 L348.637 124.189 L343.949 124.189 L343.949 119.223 L348.637 119.223 L348.637 108.182 L355.06 108.182 Z" fill="#000000" fill-rule="nonzero" fill-opacity="1" /><path clip-path="url(#clip290)" d="M409.886 137.07 L409.886 140.195 L380.512 140.195 Q380.928 146.793 384.47 150.265 Q388.046 153.702 394.4 153.702 Q398.081 153.702 401.518 152.8 Q404.991 151.897 408.393 150.091 L408.393 156.133 Q404.956 157.591 401.345 158.355 Q397.734 159.119 394.018 159.119 Q384.713 159.119 379.262 153.702 Q373.845 148.286 373.845 139.05 Q373.845 129.501 378.984 123.911 Q384.157 118.286 392.907 118.286 Q400.754 118.286 405.303 123.355 Q409.886 128.39 409.886 137.07 M403.498 135.195 Q403.428 129.952 400.546 126.827 Q397.699 123.702 392.977 123.702 Q387.63 123.702 384.4 126.723 Q381.206 129.744 380.72 135.23 L403.498 135.195 Z" fill="#000000" fill-rule="nonzero" fill-opacity="1" /><path clip-path="url(#clip290)" d="M426.553 152.279 L426.553 172.904 L420.129 172.904 L420.129 119.223 L426.553 119.223 L426.553 125.126 Q428.567 121.654 431.622 119.987 Q434.713 118.286 438.983 118.286 Q446.067 118.286 450.476 123.911 Q454.921 129.536 454.921 138.702 Q454.921 147.869 450.476 153.494 Q446.067 159.119 438.983 159.119 Q434.713 159.119 431.622 157.452 Q428.567 155.751 426.553 152.279 M448.289 138.702 Q448.289 131.654 445.372 127.661 Q442.49 123.633 437.421 123.633 Q432.352 123.633 429.435 127.661 Q426.553 131.654 426.553 138.702 Q426.553 145.751 429.435 149.779 Q432.352 153.772 437.421 153.772 Q442.49 153.772 445.372 149.779 Q448.289 145.751 448.289 138.702 Z" fill="#000000" fill-rule="nonzero" fill-opacity="1" /><path clip-path="url(#clip290)" d="M490.303 120.369 L490.303 126.411 Q487.594 125.022 484.678 124.327 Q481.761 123.633 478.636 123.633 Q473.879 123.633 471.483 125.091 Q469.122 126.55 469.122 129.466 Q469.122 131.689 470.824 132.973 Q472.525 134.223 477.664 135.369 L479.851 135.855 Q486.657 137.314 489.504 139.987 Q492.386 142.626 492.386 147.383 Q492.386 152.8 488.08 155.959 Q483.81 159.119 476.31 159.119 Q473.185 159.119 469.782 158.494 Q466.414 157.904 462.664 156.688 L462.664 150.091 Q466.206 151.931 469.643 152.869 Q473.08 153.772 476.449 153.772 Q480.962 153.772 483.393 152.244 Q485.823 150.681 485.823 147.869 Q485.823 145.265 484.053 143.876 Q482.317 142.487 476.379 141.202 L474.157 140.682 Q468.219 139.432 465.581 136.862 Q462.942 134.258 462.942 129.744 Q462.942 124.258 466.831 121.272 Q470.719 118.286 477.872 118.286 Q481.414 118.286 484.539 118.807 Q487.664 119.327 490.303 120.369 Z" fill="#000000" fill-rule="nonzero" fill-opacity="1" /><path clip-path="url(#clip290)" d="M525.164 119.223 L531.552 119.223 L531.552 158.112 L525.164 158.112 L525.164 119.223 M525.164 104.085 L531.552 104.085 L531.552 112.175 L525.164 112.175 L525.164 104.085 Z" fill="#000000" fill-rule="nonzero" fill-opacity="1" /><path clip-path="url(#clip290)" d="M577.247 134.64 L577.247 158.112 L570.858 158.112 L570.858 134.848 Q570.858 129.327 568.705 126.584 Q566.552 123.841 562.247 123.841 Q557.073 123.841 554.087 127.14 Q551.101 130.439 551.101 136.133 L551.101 158.112 L544.677 158.112 L544.677 119.223 L551.101 119.223 L551.101 125.265 Q553.393 121.758 556.483 120.022 Q559.608 118.286 563.67 118.286 Q570.372 118.286 573.809 122.452 Q577.247 126.584 577.247 134.64 Z" fill="#000000" fill-rule="nonzero" fill-opacity="1" /><path clip-path="url(#clip290)" d="M612.871 106.272 L623.323 106.272 L636.552 141.55 L649.85 106.272 L660.302 106.272 L660.302 158.112 L653.461 158.112 L653.461 112.591 L640.093 148.147 L633.045 148.147 L619.677 112.591 L619.677 158.112 L612.871 158.112 L612.871 106.272 Z" fill="#000000" fill-rule="nonzero" fill-opacity="1" /><path clip-path="url(#clip290)" d="M689.017 123.702 Q683.878 123.702 680.892 127.73 Q677.906 131.723 677.906 138.702 Q677.906 145.682 680.857 149.709 Q683.843 153.702 689.017 153.702 Q694.121 153.702 697.107 149.675 Q700.093 145.647 700.093 138.702 Q700.093 131.793 697.107 127.765 Q694.121 123.702 689.017 123.702 M689.017 118.286 Q697.35 118.286 702.107 123.702 Q706.864 129.119 706.864 138.702 Q706.864 148.251 702.107 153.702 Q697.35 159.119 689.017 159.119 Q680.649 159.119 675.892 153.702 Q671.17 148.251 671.17 138.702 Q671.17 129.119 675.892 123.702 Q680.649 118.286 689.017 118.286 Z" fill="#000000" fill-rule="nonzero" fill-opacity="1" /><path clip-path="url(#clip290)" d="M749.78 134.64 L749.78 158.112 L743.392 158.112 L743.392 134.848 Q743.392 129.327 741.239 126.584 Q739.086 123.841 734.78 123.841 Q729.607 123.841 726.621 127.14 Q723.635 130.439 723.635 136.133 L723.635 158.112 L717.211 158.112 L717.211 119.223 L723.635 119.223 L723.635 125.265 Q725.926 121.758 729.017 120.022 Q732.142 118.286 736.204 118.286 Q742.905 118.286 746.343 122.452 Q749.78 126.584 749.78 134.64 Z" fill="#000000" fill-rule="nonzero" fill-opacity="1" /><path clip-path="url(#clip290)" d="M768.843 108.182 L768.843 119.223 L782.002 119.223 L782.002 124.189 L768.843 124.189 L768.843 145.3 Q768.843 150.056 770.128 151.411 Q771.447 152.765 775.44 152.765 L782.002 152.765 L782.002 158.112 L775.44 158.112 Q768.044 158.112 765.232 155.369 Q762.419 152.591 762.419 145.3 L762.419 124.189 L757.732 124.189 L757.732 119.223 L762.419 119.223 L762.419 108.182 L768.843 108.182 Z" fill="#000000" fill-rule="nonzero" fill-opacity="1" /><path clip-path="url(#clip290)" d="M823.669 137.07 L823.669 140.195 L794.294 140.195 Q794.711 146.793 798.252 150.265 Q801.829 153.702 808.183 153.702 Q811.863 153.702 815.301 152.8 Q818.773 151.897 822.176 150.091 L822.176 156.133 Q818.738 157.591 815.127 158.355 Q811.516 159.119 807.801 159.119 Q798.495 159.119 793.044 153.702 Q787.627 148.286 787.627 139.05 Q787.627 129.501 792.766 123.911 Q797.94 118.286 806.69 118.286 Q814.537 118.286 819.086 123.355 Q823.669 128.39 823.669 137.07 M817.28 135.195 Q817.211 129.952 814.329 126.827 Q811.481 123.702 806.759 123.702 Q801.412 123.702 798.183 126.723 Q794.988 129.744 794.502 135.23 L817.28 135.195 Z" fill="#000000" fill-rule="nonzero" fill-opacity="1" /><path clip-path="url(#clip290)" d="M895.856 110.265 L895.856 117.661 Q892.314 114.362 888.287 112.73 Q884.294 111.098 879.78 111.098 Q870.891 111.098 866.169 116.55 Q861.446 121.966 861.446 132.244 Q861.446 142.487 866.169 147.938 Q870.891 153.355 879.78 153.355 Q884.294 153.355 888.287 151.723 Q892.314 150.091 895.856 146.793 L895.856 154.119 Q892.175 156.619 888.044 157.869 Q883.946 159.119 879.363 159.119 Q867.592 159.119 860.821 151.931 Q854.051 144.709 854.051 132.244 Q854.051 119.744 860.821 112.557 Q867.592 105.335 879.363 105.335 Q884.016 105.335 888.113 106.584 Q892.245 107.8 895.856 110.265 Z" fill="#000000" fill-rule="nonzero" fill-opacity="1" /><path clip-path="url(#clip290)" d="M924.085 138.563 Q916.342 138.563 913.356 140.334 Q910.37 142.105 910.37 146.376 Q910.37 149.779 912.592 151.793 Q914.849 153.772 918.703 153.772 Q924.016 153.772 927.21 150.022 Q930.439 146.237 930.439 139.987 L930.439 138.563 L924.085 138.563 M936.828 135.925 L936.828 158.112 L930.439 158.112 L930.439 152.209 Q928.252 155.751 924.988 157.452 Q921.724 159.119 917.002 159.119 Q911.03 159.119 907.488 155.786 Q903.981 152.418 903.981 146.793 Q903.981 140.23 908.356 136.897 Q912.766 133.564 921.481 133.564 L930.439 133.564 L930.439 132.939 Q930.439 128.529 927.522 126.133 Q924.641 123.702 919.398 123.702 Q916.064 123.702 912.905 124.501 Q909.745 125.3 906.828 126.897 L906.828 120.994 Q910.335 119.64 913.634 118.98 Q916.932 118.286 920.057 118.286 Q928.495 118.286 932.661 122.661 Q936.828 127.036 936.828 135.925 Z" fill="#000000" fill-rule="nonzero" fill-opacity="1" /><path clip-path="url(#clip290)" d="M972.522 125.196 Q971.446 124.571 970.161 124.293 Q968.911 123.98 967.383 123.98 Q961.967 123.98 959.05 127.522 Q956.168 131.029 956.168 137.626 L956.168 158.112 L949.745 158.112 L949.745 119.223 L956.168 119.223 L956.168 125.265 Q958.182 121.723 961.411 120.022 Q964.64 118.286 969.258 118.286 Q969.918 118.286 970.717 118.39 Q971.515 118.459 972.488 118.633 L972.522 125.196 Z" fill="#000000" fill-rule="nonzero" fill-opacity="1" /><path clip-path="url(#clip290)" d="M979.224 104.085 L985.612 104.085 L985.612 158.112 L979.224 158.112 L979.224 104.085 Z" fill="#000000" fill-rule="nonzero" fill-opacity="1" /><path clip-path="url(#clip290)" d="M1014.05 123.702 Q1008.91 123.702 1005.92 127.73 Q1002.94 131.723 1002.94 138.702 Q1002.94 145.682 1005.89 149.709 Q1008.88 153.702 1014.05 153.702 Q1019.15 153.702 1022.14 149.675 Q1025.13 145.647 1025.13 138.702 Q1025.13 131.793 1022.14 127.765 Q1019.15 123.702 1014.05 123.702 M1014.05 118.286 Q1022.38 118.286 1027.14 123.702 Q1031.9 129.119 1031.9 138.702 Q1031.9 148.251 1027.14 153.702 Q1022.38 159.119 1014.05 159.119 Q1005.68 159.119 1000.92 153.702 Q996.203 148.251 996.203 138.702 Q996.203 129.119 1000.92 123.702 Q1005.68 118.286 1014.05 118.286 Z" fill="#000000" fill-rule="nonzero" fill-opacity="1" /><path clip-path="url(#clip290)" d="M1093.08 120.716 L1093.08 126.689 Q1090.37 125.196 1087.63 124.466 Q1084.92 123.702 1082.14 123.702 Q1075.92 123.702 1072.49 127.661 Q1069.05 131.584 1069.05 138.702 Q1069.05 145.82 1072.49 149.779 Q1075.92 153.702 1082.14 153.702 Q1084.92 153.702 1087.63 152.973 Q1090.37 152.209 1093.08 150.716 L1093.08 156.619 Q1090.4 157.869 1087.52 158.494 Q1084.67 159.119 1081.45 159.119 Q1072.66 159.119 1067.49 153.598 Q1062.31 148.077 1062.31 138.702 Q1062.31 129.189 1067.52 123.737 Q1072.76 118.286 1081.86 118.286 Q1084.81 118.286 1087.63 118.911 Q1090.44 119.501 1093.08 120.716 Z" fill="#000000" fill-rule="nonzero" fill-opacity="1" /><path clip-path="url(#clip290)" d="M1136.51 134.64 L1136.51 158.112 L1130.13 158.112 L1130.13 134.848 Q1130.13 129.327 1127.97 126.584 Q1125.82 123.841 1121.51 123.841 Q1116.34 123.841 1113.35 127.14 Q1110.37 130.439 1110.37 136.133 L1110.37 158.112 L1103.95 158.112 L1103.95 104.085 L1110.37 104.085 L1110.37 125.265 Q1112.66 121.758 1115.75 120.022 Q1118.88 118.286 1122.94 118.286 Q1129.64 118.286 1133.08 122.452 Q1136.51 126.584 1136.51 134.64 Z" fill="#000000" fill-rule="nonzero" fill-opacity="1" /><path clip-path="url(#clip290)" d="M1166.93 138.563 Q1159.19 138.563 1156.2 140.334 Q1153.22 142.105 1153.22 146.376 Q1153.22 149.779 1155.44 151.793 Q1157.69 153.772 1161.55 153.772 Q1166.86 153.772 1170.06 150.022 Q1173.29 146.237 1173.29 139.987 L1173.29 138.563 L1166.93 138.563 M1179.67 135.925 L1179.67 158.112 L1173.29 158.112 L1173.29 152.209 Q1171.1 155.751 1167.83 157.452 Q1164.57 159.119 1159.85 159.119 Q1153.88 159.119 1150.33 155.786 Q1146.83 152.418 1146.83 146.793 Q1146.83 140.23 1151.2 136.897 Q1155.61 133.564 1164.33 133.564 L1173.29 133.564 L1173.29 132.939 Q1173.29 128.529 1170.37 126.133 Q1167.49 123.702 1162.24 123.702 Q1158.91 123.702 1155.75 124.501 Q1152.59 125.3 1149.67 126.897 L1149.67 120.994 Q1153.18 119.64 1156.48 118.98 Q1159.78 118.286 1162.9 118.286 Q1171.34 118.286 1175.51 122.661 Q1179.67 127.036 1179.67 135.925 Z" fill="#000000" fill-rule="nonzero" fill-opacity="1" /><path clip-path="url(#clip290)" d="M1192.83 119.223 L1199.22 119.223 L1199.22 158.112 L1192.83 158.112 L1192.83 119.223 M1192.83 104.085 L1199.22 104.085 L1199.22 112.175 L1192.83 112.175 L1192.83 104.085 Z" fill="#000000" fill-rule="nonzero" fill-opacity="1" /><path clip-path="url(#clip290)" d="M1244.92 134.64 L1244.92 158.112 L1238.53 158.112 L1238.53 134.848 Q1238.53 129.327 1236.38 126.584 Q1234.22 123.841 1229.92 123.841 Q1224.74 123.841 1221.76 127.14 Q1218.77 130.439 1218.77 136.133 L1218.77 158.112 L1212.35 158.112 L1212.35 119.223 L1218.77 119.223 L1218.77 125.265 Q1221.06 121.758 1224.15 120.022 Q1227.28 118.286 1231.34 118.286 Q1238.04 118.286 1241.48 122.452 Q1244.92 126.584 1244.92 134.64 Z" fill="#000000" fill-rule="nonzero" fill-opacity="1" /><path clip-path="url(#clip290)" d="M1276.55 119.223 L1282.94 119.223 L1290.92 149.57 L1298.87 119.223 L1306.41 119.223 L1314.4 149.57 L1322.35 119.223 L1328.74 119.223 L1318.56 158.112 L1311.03 158.112 L1302.66 126.237 L1294.26 158.112 L1286.72 158.112 L1276.55 119.223 Z" fill="#000000" fill-rule="nonzero" fill-opacity="1" /><path clip-path="url(#clip290)" d="M1338.42 119.223 L1344.81 119.223 L1344.81 158.112 L1338.42 158.112 L1338.42 119.223 M1338.42 104.085 L1344.81 104.085 L1344.81 112.175 L1338.42 112.175 L1338.42 104.085 Z" fill="#000000" fill-rule="nonzero" fill-opacity="1" /><path clip-path="url(#clip290)" d="M1364.5 108.182 L1364.5 119.223 L1377.66 119.223 L1377.66 124.189 L1364.5 124.189 L1364.5 145.3 Q1364.5 150.056 1365.78 151.411 Q1367.1 152.765 1371.1 152.765 L1377.66 152.765 L1377.66 158.112 L1371.1 158.112 Q1363.7 158.112 1360.89 155.369 Q1358.08 152.591 1358.08 145.3 L1358.08 124.189 L1353.39 124.189 L1353.39 119.223 L1358.08 119.223 L1358.08 108.182 L1364.5 108.182 Z" fill="#000000" fill-rule="nonzero" fill-opacity="1" /><path clip-path="url(#clip290)" d="M1418.39 134.64 L1418.39 158.112 L1412 158.112 L1412 134.848 Q1412 129.327 1409.85 126.584 Q1407.69 123.841 1403.39 123.841 Q1398.21 123.841 1395.23 127.14 Q1392.24 130.439 1392.24 136.133 L1392.24 158.112 L1385.82 158.112 L1385.82 104.085 L1392.24 104.085 L1392.24 125.265 Q1394.53 121.758 1397.62 120.022 Q1400.75 118.286 1404.81 118.286 Q1411.51 118.286 1414.95 122.452 Q1418.39 126.584 1418.39 134.64 Z" fill="#000000" fill-rule="nonzero" fill-opacity="1" /><path clip-path="url(#clip290)" d="M1449.15 119.223 L1455.92 119.223 L1468.08 151.862 L1480.23 119.223 L1487 119.223 L1472.42 158.112 L1463.73 158.112 L1449.15 119.223 Z" fill="#000000" fill-rule="nonzero" fill-opacity="1" /><path clip-path="url(#clip290)" d="M1513.49 138.563 Q1505.75 138.563 1502.76 140.334 Q1499.78 142.105 1499.78 146.376 Q1499.78 149.779 1502 151.793 Q1504.26 153.772 1508.11 153.772 Q1513.42 153.772 1516.62 150.022 Q1519.85 146.237 1519.85 139.987 L1519.85 138.563 L1513.49 138.563 M1526.23 135.925 L1526.23 158.112 L1519.85 158.112 L1519.85 152.209 Q1517.66 155.751 1514.39 157.452 Q1511.13 159.119 1506.41 159.119 Q1500.44 159.119 1496.89 155.786 Q1493.39 152.418 1493.39 146.793 Q1493.39 140.23 1497.76 136.897 Q1502.17 133.564 1510.89 133.564 L1519.85 133.564 L1519.85 132.939 Q1519.85 128.529 1516.93 126.133 Q1514.05 123.702 1508.8 123.702 Q1505.47 123.702 1502.31 124.501 Q1499.15 125.3 1496.23 126.897 L1496.23 120.994 Q1499.74 119.64 1503.04 118.98 Q1506.34 118.286 1509.46 118.286 Q1517.9 118.286 1522.07 122.661 Q1526.23 127.036 1526.23 135.925 Z" fill="#000000" fill-rule="nonzero" fill-opacity="1" /><path clip-path="url(#clip290)" d="M1561.93 125.196 Q1560.85 124.571 1559.57 124.293 Q1558.32 123.98 1556.79 123.98 Q1551.37 123.98 1548.46 127.522 Q1545.57 131.029 1545.57 137.626 L1545.57 158.112 L1539.15 158.112 L1539.15 119.223 L1545.57 119.223 L1545.57 125.265 Q1547.59 121.723 1550.82 120.022 Q1554.05 118.286 1558.66 118.286 Q1559.32 118.286 1560.12 118.39 Q1560.92 118.459 1561.89 118.633 L1561.93 125.196 Z" fill="#000000" fill-rule="nonzero" fill-opacity="1" /><path clip-path="url(#clip290)" d="M1584.81 161.723 Q1582.1 168.667 1579.53 170.786 Q1576.96 172.904 1572.66 172.904 L1567.55 172.904 L1567.55 167.556 L1571.3 167.556 Q1573.94 167.556 1575.4 166.306 Q1576.86 165.056 1578.63 160.404 L1579.78 157.487 L1564.05 119.223 L1570.82 119.223 L1582.97 149.64 L1595.12 119.223 L1601.89 119.223 L1584.81 161.723 Z" fill="#000000" fill-rule="nonzero" fill-opacity="1" /><path clip-path="url(#clip290)" d="M1610.71 119.223 L1617.1 119.223 L1617.1 158.112 L1610.71 158.112 L1610.71 119.223 M1610.71 104.085 L1617.1 104.085 L1617.1 112.175 L1610.71 112.175 L1610.71 104.085 Z" fill="#000000" fill-rule="nonzero" fill-opacity="1" /><path clip-path="url(#clip290)" d="M1662.8 134.64 L1662.8 158.112 L1656.41 158.112 L1656.41 134.848 Q1656.41 129.327 1654.25 126.584 Q1652.1 123.841 1647.8 123.841 Q1642.62 123.841 1639.64 127.14 Q1636.65 130.439 1636.65 136.133 L1636.65 158.112 L1630.23 158.112 L1630.23 119.223 L1636.65 119.223 L1636.65 125.265 Q1638.94 121.758 1642.03 120.022 Q1645.16 118.286 1649.22 118.286 Q1655.92 118.286 1659.36 122.452 Q1662.8 126.584 1662.8 134.64 Z" fill="#000000" fill-rule="nonzero" fill-opacity="1" /><path clip-path="url(#clip290)" d="M1701.13 138.216 Q1701.13 131.272 1698.25 127.452 Q1695.4 123.633 1690.23 123.633 Q1685.09 123.633 1682.21 127.452 Q1679.36 131.272 1679.36 138.216 Q1679.36 145.126 1682.21 148.945 Q1685.09 152.765 1690.23 152.765 Q1695.4 152.765 1698.25 148.945 Q1701.13 145.126 1701.13 138.216 M1707.52 153.286 Q1707.52 163.216 1703.11 168.043 Q1698.7 172.904 1689.6 172.904 Q1686.23 172.904 1683.25 172.383 Q1680.26 171.897 1677.45 170.855 L1677.45 164.64 Q1680.26 166.168 1683 166.897 Q1685.75 167.626 1688.59 167.626 Q1694.88 167.626 1698 164.327 Q1701.13 161.063 1701.13 154.431 L1701.13 151.272 Q1699.15 154.709 1696.06 156.411 Q1692.97 158.112 1688.66 158.112 Q1681.51 158.112 1677.14 152.661 Q1672.76 147.209 1672.76 138.216 Q1672.76 129.189 1677.14 123.737 Q1681.51 118.286 1688.66 118.286 Q1692.97 118.286 1696.06 119.987 Q1699.15 121.689 1701.13 125.126 L1701.13 119.223 L1707.52 119.223 L1707.52 153.286 Z" fill="#000000" fill-rule="nonzero" fill-opacity="1" /><path clip-path="url(#clip290)" d="M1743.56 106.272 L1753 106.272 L1775.99 149.64 L1775.99 106.272 L1782.8 106.272 L1782.8 158.112 L1773.35 158.112 L1750.37 114.744 L1750.37 158.112 L1743.56 158.112 L1743.56 106.272 Z" fill="#000000" fill-rule="nonzero" fill-opacity="1" /><path clip-path="url(#clip290)" d="M1798.11 149.293 L1805.43 149.293 L1805.43 155.265 L1799.74 166.376 L1795.26 166.376 L1798.11 155.265 L1798.11 149.293 Z" fill="#000000" fill-rule="nonzero" fill-opacity="1" /><path clip-path="url(#clip290)" d="M1834.77 106.272 L1878.63 106.272 L1878.63 112.175 L1860.23 112.175 L1860.23 158.112 L1853.18 158.112 L1853.18 112.175 L1834.77 112.175 L1834.77 106.272 Z" fill="#000000" fill-rule="nonzero" fill-opacity="1" /><path clip-path="url(#clip290)" d="M1885.95 125.821 L1930.47 125.821 L1930.47 131.654 L1885.95 131.654 L1885.95 125.821 M1885.95 139.987 L1930.47 139.987 L1930.47 145.89 L1885.95 145.89 L1885.95 139.987 Z" fill="#000000" fill-rule="nonzero" fill-opacity="1" /><path clip-path="url(#clip290)" d="M1964.88 112.383 L1947.17 140.057 L1964.88 140.057 L1964.88 112.383 M1963.04 106.272 L1971.86 106.272 L1971.86 140.057 L1979.25 140.057 L1979.25 145.89 L1971.86 145.89 L1971.86 158.112 L1964.88 158.112 L1964.88 145.89 L1941.48 145.89 L1941.48 139.119 L1963.04 106.272 Z" fill="#000000" fill-rule="nonzero" fill-opacity="1" /><path clip-path="url(#clip290)" d="M1991.58 149.293 L1998.91 149.293 L1998.91 155.265 L1993.21 166.376 L1988.73 166.376 L1991.58 155.265 L1991.58 149.293 Z" fill="#000000" fill-rule="nonzero" fill-opacity="1" /><path clip-path="url(#clip290)" d="M2035.16 119.223 L2041.54 119.223 L2041.54 158.112 L2035.16 158.112 L2035.16 119.223 M2035.16 104.085 L2041.54 104.085 L2041.54 112.175 L2035.16 112.175 L2035.16 104.085 Z" fill="#000000" fill-rule="nonzero" fill-opacity="1" /><path clip-path="url(#clip290)" d="M2055.75 125.821 L2100.26 125.821 L2100.26 131.654 L2055.75 131.654 L2055.75 125.821 M2055.75 139.987 L2100.26 139.987 L2100.26 145.89 L2055.75 145.89 L2055.75 139.987 Z" fill="#000000" fill-rule="nonzero" fill-opacity="1" /><path clip-path="url(#clip290)" d="M2116.61 152.209 L2128.07 152.209 L2128.07 112.661 L2115.61 115.161 L2115.61 108.772 L2128 106.272 L2135.02 106.272 L2135.02 152.209 L2146.47 152.209 L2146.47 158.112 L2116.61 158.112 L2116.61 152.209 Z" fill="#000000" fill-rule="nonzero" fill-opacity="1" /><path clip-path="url(#clip290)" d="M2175.64 110.89 Q2170.22 110.89 2167.48 116.237 Q2164.77 121.55 2164.77 132.244 Q2164.77 142.904 2167.48 148.251 Q2170.22 153.563 2175.64 153.563 Q2181.09 153.563 2183.8 148.251 Q2186.54 142.904 2186.54 132.244 Q2186.54 121.55 2183.8 116.237 Q2181.09 110.89 2175.64 110.89 M2175.64 105.335 Q2184.36 105.335 2188.94 112.244 Q2193.56 119.119 2193.56 132.244 Q2193.56 145.334 2188.94 152.244 Q2184.36 159.119 2175.64 159.119 Q2166.93 159.119 2162.31 152.244 Q2157.72 145.334 2157.72 132.244 Q2157.72 119.119 2162.31 112.244 Q2166.93 105.335 2175.64 105.335 Z" fill="#000000" fill-rule="nonzero" fill-opacity="1" /><path clip-path="url(#clip290)" d="M2206.61 149.293 L2213.94 149.293 L2213.94 155.265 L2208.24 166.376 L2203.77 166.376 L2206.61 155.265 L2206.61 149.293 Z" fill="#000000" fill-rule="nonzero" fill-opacity="1" /><path clip-path="url(#clip290)" d="M2243.49 110.89 Q2238.07 110.89 2235.33 116.237 Q2232.62 121.55 2232.62 132.244 Q2232.62 142.904 2235.33 148.251 Q2238.07 153.563 2243.49 153.563 Q2248.94 153.563 2251.65 148.251 Q2254.39 142.904 2254.39 132.244 Q2254.39 121.55 2251.65 116.237 Q2248.94 110.89 2243.49 110.89 M2243.49 105.335 Q2252.2 105.335 2256.79 112.244 Q2261.4 119.119 2261.4 132.244 Q2261.4 145.334 2256.79 152.244 Q2252.2 159.119 2243.49 159.119 Q2234.77 159.119 2230.15 152.244 Q2225.57 145.334 2225.57 132.244 Q2225.57 119.119 2230.15 112.244 Q2234.77 105.335 2243.49 105.335 Z" fill="#000000" fill-rule="nonzero" fill-opacity="1" /><path clip-path="url(#clip290)" d="M2288.73 110.89 Q2283.31 110.89 2280.57 116.237 Q2277.86 121.55 2277.86 132.244 Q2277.86 142.904 2280.57 148.251 Q2283.31 153.563 2288.73 153.563 Q2294.18 153.563 2296.89 148.251 Q2299.63 142.904 2299.63 132.244 Q2299.63 121.55 2296.89 116.237 Q2294.18 110.89 2288.73 110.89 M2288.73 105.335 Q2297.45 105.335 2302.03 112.244 Q2306.65 119.119 2306.65 132.244 Q2306.65 145.334 2302.03 152.244 Q2297.45 159.119 2288.73 159.119 Q2280.02 159.119 2275.4 152.244 Q2270.81 145.334 2270.81 132.244 Q2270.81 119.119 2275.4 112.244 Q2280.02 105.335 2288.73 105.335 Z" fill="#000000" fill-rule="nonzero" fill-opacity="1" /><path clip-path="url(#clip290)" d="M2333.97 110.89 Q2328.56 110.89 2325.81 116.237 Q2323.11 121.55 2323.11 132.244 Q2323.11 142.904 2325.81 148.251 Q2328.56 153.563 2333.97 153.563 Q2339.42 153.563 2342.13 148.251 Q2344.88 142.904 2344.88 132.244 Q2344.88 121.55 2342.13 116.237 Q2339.42 110.89 2333.97 110.89 M2333.97 105.335 Q2342.69 105.335 2347.27 112.244 Q2351.89 119.119 2351.89 132.244 Q2351.89 145.334 2347.27 152.244 Q2342.69 159.119 2333.97 159.119 Q2325.26 159.119 2320.64 152.244 Q2316.06 145.334 2316.06 132.244 Q2316.06 119.119 2320.64 112.244 Q2325.26 105.335 2333.97 105.335 Z" fill="#000000" fill-rule="nonzero" fill-opacity="1" /><polyline clip-path="url(#clip292)" style="stroke:#009af9; stroke-linecap:round; stroke-linejoin:round; stroke-width:4; stroke-opacity:1; fill:none" points="309.539,202.234 518.35,1026.56 727.162,1270.91 1249.19,1379.36 1771.22,1346.27 2293.24,1387.62 "/>
</svg>
