<?xml version="1.0" encoding="utf-8"?>
<svg xmlns="http://www.w3.org/2000/svg" xmlns:xlink="http://www.w3.org/1999/xlink" width="600" height="400" viewBox="0 0 2400 1600">
<defs>
  <clipPath id="clip690">
    <rect x="0" y="0" width="2400" height="1600"/>
  </clipPath>
</defs>
<path clip-path="url(#clip690)" d="M0 1600 L2400 1600 L2400 0 L0 0  Z" fill="#ffffff" fill-rule="evenodd" fill-opacity="1"/>
<defs>
  <clipPath id="clip691">
    <rect x="480" y="0" width="1681" height="1600"/>
  </clipPath>
</defs>
<path clip-path="url(#clip690)" d="M219.866 1423.18 L2352.76 1423.18 L2352.76 183.952 L219.866 183.952  Z" fill="#ffffff" fill-rule="evenodd" fill-opacity="1"/>
<defs>
  <clipPath id="clip692">
    <rect x="219" y="183" width="2134" height="1240"/>
  </clipPath>
</defs>
<polyline clip-path="url(#clip692)" style="stroke:#000000; stroke-linecap:round; stroke-linejoin:round; stroke-width:2; stroke-opacity:0.1; fill:none" points="503.804,1423.18 503.804,183.952 "/>
<polyline clip-path="url(#clip692)" style="stroke:#000000; stroke-linecap:round; stroke-linejoin:round; stroke-width:2; stroke-opacity:0.1; fill:none" points="950.951,1423.18 950.951,183.952 "/>
<polyline clip-path="url(#clip692)" style="stroke:#000000; stroke-linecap:round; stroke-linejoin:round; stroke-width:2; stroke-opacity:0.1; fill:none" points="1398.1,1423.18 1398.1,183.952 "/>
<polyline clip-path="url(#clip692)" style="stroke:#000000; stroke-linecap:round; stroke-linejoin:round; stroke-width:2; stroke-opacity:0.1; fill:none" points="1845.24,1423.18 1845.24,183.952 "/>
<polyline clip-path="url(#clip692)" style="stroke:#000000; stroke-linecap:round; stroke-linejoin:round; stroke-width:2; stroke-opacity:0.1; fill:none" points="2292.39,1423.18 2292.39,183.952 "/>
<polyline clip-path="url(#clip690)" style="stroke:#000000; stroke-linecap:round; stroke-linejoin:round; stroke-width:4; stroke-opacity:1; fill:none" points="219.866,1423.18 2352.76,1423.18 "/>
<polyline clip-path="url(#clip690)" style="stroke:#000000; stroke-linecap:round; stroke-linejoin:round; stroke-width:4; stroke-opacity:1; fill:none" points="503.804,1423.18 503.804,1404.28 "/>
<polyline clip-path="url(#clip690)" style="stroke:#000000; stroke-linecap:round; stroke-linejoin:round; stroke-width:4; stroke-opacity:1; fill:none" points="950.951,1423.18 950.951,1404.28 "/>
<polyline clip-path="url(#clip690)" style="stroke:#000000; stroke-linecap:round; stroke-linejoin:round; stroke-width:4; stroke-opacity:1; fill:none" points="1398.1,1423.18 1398.1,1404.28 "/>
<polyline clip-path="url(#clip690)" style="stroke:#000000; stroke-linecap:round; stroke-linejoin:round; stroke-width:4; stroke-opacity:1; fill:none" points="1845.24,1423.18 1845.24,1404.28 "/>
<polyline clip-path="url(#clip690)" style="stroke:#000000; stroke-linecap:round; stroke-linejoin:round; stroke-width:4; stroke-opacity:1; fill:none" points="2292.39,1423.18 2292.39,1404.28 "/>
<path clip-path="url(#clip690)" d="M482.578 1481.64 L498.897 1481.64 L498.897 1485.58 L476.953 1485.58 L476.953 1481.64 Q479.615 1478.89 484.198 1474.26 Q488.804 1469.61 489.985 1468.27 Q492.23 1465.74 493.11 1464.01 Q494.013 1462.25 494.013 1460.56 Q494.013 1457.8 492.068 1456.07 Q490.147 1454.33 487.045 1454.33 Q484.846 1454.33 482.392 1455.09 Q479.962 1455.86 477.184 1457.41 L477.184 1452.69 Q480.008 1451.55 482.462 1450.97 Q484.916 1450.39 486.953 1450.39 Q492.323 1450.39 495.517 1453.08 Q498.712 1455.77 498.712 1460.26 Q498.712 1462.39 497.902 1464.31 Q497.115 1466.2 495.008 1468.8 Q494.429 1469.47 491.328 1472.69 Q488.226 1475.88 482.578 1481.64 Z" fill="#000000" fill-rule="nonzero" fill-opacity="1" /><path clip-path="url(#clip690)" d="M518.712 1454.1 Q515.101 1454.1 513.272 1457.66 Q511.466 1461.2 511.466 1468.33 Q511.466 1475.44 513.272 1479.01 Q515.101 1482.55 518.712 1482.55 Q522.346 1482.55 524.152 1479.01 Q525.98 1475.44 525.98 1468.33 Q525.98 1461.2 524.152 1457.66 Q522.346 1454.1 518.712 1454.1 M518.712 1450.39 Q524.522 1450.39 527.577 1455 Q530.656 1459.58 530.656 1468.33 Q530.656 1477.06 527.577 1481.67 Q524.522 1486.25 518.712 1486.25 Q512.902 1486.25 509.823 1481.67 Q506.767 1477.06 506.767 1468.33 Q506.767 1459.58 509.823 1455 Q512.902 1450.39 518.712 1450.39 Z" fill="#000000" fill-rule="nonzero" fill-opacity="1" /><path clip-path="url(#clip690)" d="M939.122 1455.09 L927.317 1473.54 L939.122 1473.54 L939.122 1455.09 M937.896 1451.02 L943.775 1451.02 L943.775 1473.54 L948.706 1473.54 L948.706 1477.43 L943.775 1477.43 L943.775 1485.58 L939.122 1485.58 L939.122 1477.43 L923.521 1477.43 L923.521 1472.92 L937.896 1451.02 Z" fill="#000000" fill-rule="nonzero" fill-opacity="1" /><path clip-path="url(#clip690)" d="M966.437 1454.1 Q962.826 1454.1 960.997 1457.66 Q959.192 1461.2 959.192 1468.33 Q959.192 1475.44 960.997 1479.01 Q962.826 1482.55 966.437 1482.55 Q970.071 1482.55 971.877 1479.01 Q973.706 1475.44 973.706 1468.33 Q973.706 1461.2 971.877 1457.66 Q970.071 1454.1 966.437 1454.1 M966.437 1450.39 Q972.247 1450.39 975.303 1455 Q978.381 1459.58 978.381 1468.33 Q978.381 1477.06 975.303 1481.67 Q972.247 1486.25 966.437 1486.25 Q960.627 1486.25 957.548 1481.67 Q954.493 1477.06 954.493 1468.33 Q954.493 1459.58 957.548 1455 Q960.627 1450.39 966.437 1450.39 Z" fill="#000000" fill-rule="nonzero" fill-opacity="1" /><path clip-path="url(#clip690)" d="M1383.5 1466.44 Q1380.35 1466.44 1378.5 1468.59 Q1376.67 1470.74 1376.67 1474.49 Q1376.67 1478.22 1378.5 1480.39 Q1380.35 1482.55 1383.5 1482.55 Q1386.65 1482.55 1388.48 1480.39 Q1390.33 1478.22 1390.33 1474.49 Q1390.33 1470.74 1388.48 1468.59 Q1386.65 1466.44 1383.5 1466.44 M1392.79 1451.78 L1392.79 1456.04 Q1391.03 1455.21 1389.22 1454.77 Q1387.44 1454.33 1385.68 1454.33 Q1381.05 1454.33 1378.6 1457.45 Q1376.17 1460.58 1375.82 1466.9 Q1377.18 1464.89 1379.24 1463.82 Q1381.3 1462.73 1383.78 1462.73 Q1388.99 1462.73 1392 1465.9 Q1395.03 1469.05 1395.03 1474.49 Q1395.03 1479.82 1391.88 1483.03 Q1388.73 1486.25 1383.5 1486.25 Q1377.51 1486.25 1374.34 1481.67 Q1371.17 1477.06 1371.17 1468.33 Q1371.17 1460.14 1375.05 1455.28 Q1378.94 1450.39 1385.49 1450.39 Q1387.25 1450.39 1389.04 1450.74 Q1390.84 1451.09 1392.79 1451.78 Z" fill="#000000" fill-rule="nonzero" fill-opacity="1" /><path clip-path="url(#clip690)" d="M1413.09 1454.1 Q1409.48 1454.1 1407.65 1457.66 Q1405.84 1461.2 1405.84 1468.33 Q1405.84 1475.44 1407.65 1479.01 Q1409.48 1482.55 1413.09 1482.55 Q1416.72 1482.55 1418.53 1479.01 Q1420.35 1475.44 1420.35 1468.33 Q1420.35 1461.2 1418.53 1457.66 Q1416.72 1454.1 1413.09 1454.1 M1413.09 1450.39 Q1418.9 1450.39 1421.95 1455 Q1425.03 1459.58 1425.03 1468.33 Q1425.03 1477.06 1421.95 1481.67 Q1418.9 1486.25 1413.09 1486.25 Q1407.28 1486.25 1404.2 1481.67 Q1401.14 1477.06 1401.14 1468.33 Q1401.14 1459.58 1404.2 1455 Q1407.28 1450.39 1413.09 1450.39 Z" fill="#000000" fill-rule="nonzero" fill-opacity="1" /><path clip-path="url(#clip690)" d="M1830.12 1469.17 Q1826.78 1469.17 1824.86 1470.95 Q1822.96 1472.73 1822.96 1475.86 Q1822.96 1478.98 1824.86 1480.77 Q1826.78 1482.55 1830.12 1482.55 Q1833.45 1482.55 1835.37 1480.77 Q1837.29 1478.96 1837.29 1475.86 Q1837.29 1472.73 1835.37 1470.95 Q1833.47 1469.17 1830.12 1469.17 M1825.44 1467.18 Q1822.43 1466.44 1820.74 1464.38 Q1819.08 1462.32 1819.08 1459.35 Q1819.08 1455.21 1822.02 1452.8 Q1824.98 1450.39 1830.12 1450.39 Q1835.28 1450.39 1838.22 1452.8 Q1841.16 1455.21 1841.16 1459.35 Q1841.16 1462.32 1839.47 1464.38 Q1837.8 1466.44 1834.82 1467.18 Q1838.2 1467.96 1840.07 1470.26 Q1841.97 1472.55 1841.97 1475.86 Q1841.97 1480.88 1838.89 1483.57 Q1835.83 1486.25 1830.12 1486.25 Q1824.4 1486.25 1821.32 1483.57 Q1818.27 1480.88 1818.27 1475.86 Q1818.27 1472.55 1820.16 1470.26 Q1822.06 1467.96 1825.44 1467.18 M1823.73 1459.79 Q1823.73 1462.48 1825.39 1463.98 Q1827.08 1465.49 1830.12 1465.49 Q1833.13 1465.49 1834.82 1463.98 Q1836.53 1462.48 1836.53 1459.79 Q1836.53 1457.11 1834.82 1455.6 Q1833.13 1454.1 1830.12 1454.1 Q1827.08 1454.1 1825.39 1455.6 Q1823.73 1457.11 1823.73 1459.79 Z" fill="#000000" fill-rule="nonzero" fill-opacity="1" /><path clip-path="url(#clip690)" d="M1860.28 1454.1 Q1856.67 1454.1 1854.84 1457.66 Q1853.03 1461.2 1853.03 1468.33 Q1853.03 1475.44 1854.84 1479.01 Q1856.67 1482.55 1860.28 1482.55 Q1863.91 1482.55 1865.72 1479.01 Q1867.55 1475.44 1867.55 1468.33 Q1867.55 1461.2 1865.72 1457.66 Q1863.91 1454.1 1860.28 1454.1 M1860.28 1450.39 Q1866.09 1450.39 1869.14 1455 Q1872.22 1459.58 1872.22 1468.33 Q1872.22 1477.06 1869.14 1481.67 Q1866.09 1486.25 1860.28 1486.25 Q1854.47 1486.25 1851.39 1481.67 Q1848.33 1477.06 1848.33 1468.33 Q1848.33 1459.58 1851.39 1455 Q1854.47 1450.39 1860.28 1450.39 Z" fill="#000000" fill-rule="nonzero" fill-opacity="1" /><path clip-path="url(#clip690)" d="M2252 1481.64 L2259.64 1481.64 L2259.64 1455.28 L2251.33 1456.95 L2251.33 1452.69 L2259.59 1451.02 L2264.27 1451.02 L2264.27 1481.64 L2271.91 1481.64 L2271.91 1485.58 L2252 1485.58 L2252 1481.64 Z" fill="#000000" fill-rule="nonzero" fill-opacity="1" /><path clip-path="url(#clip690)" d="M2291.35 1454.1 Q2287.74 1454.1 2285.91 1457.66 Q2284.1 1461.2 2284.1 1468.33 Q2284.1 1475.44 2285.91 1479.01 Q2287.74 1482.55 2291.35 1482.55 Q2294.98 1482.55 2296.79 1479.01 Q2298.62 1475.44 2298.62 1468.33 Q2298.62 1461.2 2296.79 1457.66 Q2294.98 1454.1 2291.35 1454.1 M2291.35 1450.39 Q2297.16 1450.39 2300.22 1455 Q2303.29 1459.58 2303.29 1468.33 Q2303.29 1477.06 2300.22 1481.67 Q2297.16 1486.25 2291.35 1486.25 Q2285.54 1486.25 2282.46 1481.67 Q2279.41 1477.06 2279.41 1468.33 Q2279.41 1459.58 2282.46 1455 Q2285.54 1450.39 2291.35 1450.39 Z" fill="#000000" fill-rule="nonzero" fill-opacity="1" /><path clip-path="url(#clip690)" d="M2321.51 1454.1 Q2317.9 1454.1 2316.07 1457.66 Q2314.27 1461.2 2314.27 1468.33 Q2314.27 1475.44 2316.07 1479.01 Q2317.9 1482.55 2321.51 1482.55 Q2325.15 1482.55 2326.95 1479.01 Q2328.78 1475.44 2328.78 1468.33 Q2328.78 1461.2 2326.95 1457.66 Q2325.15 1454.1 2321.51 1454.1 M2321.51 1450.39 Q2327.32 1450.39 2330.38 1455 Q2333.46 1459.58 2333.46 1468.33 Q2333.46 1477.06 2330.38 1481.67 Q2327.32 1486.25 2321.51 1486.25 Q2315.7 1486.25 2312.62 1481.67 Q2309.57 1477.06 2309.57 1468.33 Q2309.57 1459.58 2312.62 1455 Q2315.7 1450.39 2321.51 1450.39 Z" fill="#000000" fill-rule="nonzero" fill-opacity="1" /><path clip-path="url(#clip690)" d="M1063.34 1520.52 L1069.77 1520.52 L1069.77 1562.63 L1092.91 1562.63 L1092.91 1568.04 L1063.34 1568.04 L1063.34 1520.52 Z" fill="#000000" fill-rule="nonzero" fill-opacity="1" /><path clip-path="url(#clip690)" d="M1115.6 1550.12 Q1108.5 1550.12 1105.76 1551.75 Q1103.03 1553.37 1103.03 1557.29 Q1103.03 1560.4 1105.06 1562.25 Q1107.13 1564.07 1110.67 1564.07 Q1115.54 1564.07 1118.46 1560.63 Q1121.42 1557.16 1121.42 1551.43 L1121.42 1550.12 L1115.6 1550.12 M1127.28 1547.71 L1127.28 1568.04 L1121.42 1568.04 L1121.42 1562.63 Q1119.42 1565.88 1116.43 1567.44 Q1113.43 1568.97 1109.11 1568.97 Q1103.63 1568.97 1100.38 1565.91 Q1097.17 1562.82 1097.17 1557.67 Q1097.17 1551.65 1101.18 1548.6 Q1105.22 1545.54 1113.21 1545.54 L1121.42 1545.54 L1121.42 1544.97 Q1121.42 1540.93 1118.75 1538.73 Q1116.11 1536.5 1111.3 1536.5 Q1108.25 1536.5 1105.35 1537.23 Q1102.45 1537.97 1099.78 1539.43 L1099.78 1534.02 Q1102.99 1532.78 1106.02 1532.17 Q1109.04 1531.54 1111.91 1531.54 Q1119.64 1531.54 1123.46 1535.55 Q1127.28 1539.56 1127.28 1547.71 Z" fill="#000000" fill-rule="nonzero" fill-opacity="1" /><path clip-path="url(#clip690)" d="M1145.14 1522.27 L1145.14 1532.4 L1157.2 1532.4 L1157.2 1536.95 L1145.14 1536.95 L1145.14 1556.3 Q1145.14 1560.66 1146.31 1561.9 Q1147.52 1563.14 1151.18 1563.14 L1157.2 1563.14 L1157.2 1568.04 L1151.18 1568.04 Q1144.4 1568.04 1141.83 1565.53 Q1139.25 1562.98 1139.25 1556.3 L1139.25 1536.95 L1134.95 1536.95 L1134.95 1532.4 L1139.25 1532.4 L1139.25 1522.27 L1145.14 1522.27 Z" fill="#000000" fill-rule="nonzero" fill-opacity="1" /><path clip-path="url(#clip690)" d="M1170.69 1522.27 L1170.69 1532.4 L1182.76 1532.4 L1182.76 1536.95 L1170.69 1536.95 L1170.69 1556.3 Q1170.69 1560.66 1171.87 1561.9 Q1173.08 1563.14 1176.74 1563.14 L1182.76 1563.14 L1182.76 1568.04 L1176.74 1568.04 Q1169.96 1568.04 1167.38 1565.53 Q1164.81 1562.98 1164.81 1556.3 L1164.81 1536.95 L1160.51 1536.95 L1160.51 1532.4 L1164.81 1532.4 L1164.81 1522.27 L1170.69 1522.27 Z" fill="#000000" fill-rule="nonzero" fill-opacity="1" /><path clip-path="url(#clip690)" d="M1190.46 1532.4 L1196.32 1532.4 L1196.32 1568.04 L1190.46 1568.04 L1190.46 1532.4 M1190.46 1518.52 L1196.32 1518.52 L1196.32 1525.93 L1190.46 1525.93 L1190.46 1518.52 Z" fill="#000000" fill-rule="nonzero" fill-opacity="1" /><path clip-path="url(#clip690)" d="M1234.22 1533.76 L1234.22 1539.24 Q1231.74 1537.87 1229.23 1537.2 Q1226.74 1536.5 1224.2 1536.5 Q1218.5 1536.5 1215.35 1540.13 Q1212.2 1543.73 1212.2 1550.25 Q1212.2 1556.78 1215.35 1560.4 Q1218.5 1564 1224.2 1564 Q1226.74 1564 1229.23 1563.33 Q1231.74 1562.63 1234.22 1561.26 L1234.22 1566.68 Q1231.77 1567.82 1229.13 1568.39 Q1226.52 1568.97 1223.56 1568.97 Q1215.51 1568.97 1210.77 1563.91 Q1206.02 1558.85 1206.02 1550.25 Q1206.02 1541.53 1210.8 1536.53 Q1215.6 1531.54 1223.94 1531.54 Q1226.65 1531.54 1229.23 1532.11 Q1231.8 1532.65 1234.22 1533.76 Z" fill="#000000" fill-rule="nonzero" fill-opacity="1" /><path clip-path="url(#clip690)" d="M1274.9 1548.76 L1274.9 1551.62 L1247.97 1551.62 Q1248.36 1557.67 1251.6 1560.85 Q1254.88 1564 1260.71 1564 Q1264.08 1564 1267.23 1563.17 Q1270.41 1562.35 1273.53 1560.69 L1273.53 1566.23 Q1270.38 1567.57 1267.07 1568.27 Q1263.76 1568.97 1260.35 1568.97 Q1251.82 1568.97 1246.83 1564 Q1241.86 1559.04 1241.86 1550.57 Q1241.86 1541.82 1246.57 1536.69 Q1251.32 1531.54 1259.34 1531.54 Q1266.53 1531.54 1270.7 1536.18 Q1274.9 1540.8 1274.9 1548.76 M1269.04 1547.04 Q1268.98 1542.23 1266.34 1539.37 Q1263.73 1536.5 1259.4 1536.5 Q1254.5 1536.5 1251.54 1539.27 Q1248.61 1542.04 1248.16 1547.07 L1269.04 1547.04 Z" fill="#000000" fill-rule="nonzero" fill-opacity="1" /><path clip-path="url(#clip690)" d="M1327.96 1533.45 L1327.96 1538.98 Q1325.48 1537.71 1322.8 1537.07 Q1320.13 1536.44 1317.26 1536.44 Q1312.9 1536.44 1310.71 1537.77 Q1308.54 1539.11 1308.54 1541.79 Q1308.54 1543.82 1310.1 1545 Q1311.66 1546.15 1316.37 1547.2 L1318.38 1547.64 Q1324.62 1548.98 1327.23 1551.43 Q1329.87 1553.85 1329.87 1558.21 Q1329.87 1563.17 1325.92 1566.07 Q1322.01 1568.97 1315.13 1568.97 Q1312.27 1568.97 1309.15 1568.39 Q1306.06 1567.85 1302.62 1566.74 L1302.62 1560.69 Q1305.87 1562.38 1309.02 1563.24 Q1312.17 1564.07 1315.26 1564.07 Q1319.4 1564.07 1321.62 1562.66 Q1323.85 1561.23 1323.85 1558.65 Q1323.85 1556.27 1322.23 1554.99 Q1320.64 1553.72 1315.2 1552.54 L1313.16 1552.07 Q1307.72 1550.92 1305.3 1548.56 Q1302.88 1546.18 1302.88 1542.04 Q1302.88 1537.01 1306.44 1534.27 Q1310.01 1531.54 1316.56 1531.54 Q1319.81 1531.54 1322.68 1532.01 Q1325.54 1532.49 1327.96 1533.45 Z" fill="#000000" fill-rule="nonzero" fill-opacity="1" /><path clip-path="url(#clip690)" d="M1339.19 1532.4 L1345.05 1532.4 L1345.05 1568.04 L1339.19 1568.04 L1339.19 1532.4 M1339.19 1518.52 L1345.05 1518.52 L1345.05 1525.93 L1339.19 1525.93 L1339.19 1518.52 Z" fill="#000000" fill-rule="nonzero" fill-opacity="1" /><path clip-path="url(#clip690)" d="M1354.76 1532.4 L1382.58 1532.4 L1382.58 1537.74 L1360.55 1563.37 L1382.58 1563.37 L1382.58 1568.04 L1353.96 1568.04 L1353.96 1562.7 L1375.99 1537.07 L1354.76 1537.07 L1354.76 1532.4 Z" fill="#000000" fill-rule="nonzero" fill-opacity="1" /><path clip-path="url(#clip690)" d="M1422.01 1548.76 L1422.01 1551.62 L1395.09 1551.62 Q1395.47 1557.67 1398.71 1560.85 Q1401.99 1564 1407.82 1564 Q1411.19 1564 1414.34 1563.17 Q1417.52 1562.35 1420.64 1560.69 L1420.64 1566.23 Q1417.49 1567.57 1414.18 1568.27 Q1410.87 1568.97 1407.47 1568.97 Q1398.94 1568.97 1393.94 1564 Q1388.97 1559.04 1388.97 1550.57 Q1388.97 1541.82 1393.68 1536.69 Q1398.43 1531.54 1406.45 1531.54 Q1413.64 1531.54 1417.81 1536.18 Q1422.01 1540.8 1422.01 1548.76 M1416.16 1547.04 Q1416.09 1542.23 1413.45 1539.37 Q1410.84 1536.5 1406.51 1536.5 Q1401.61 1536.5 1398.65 1539.27 Q1395.72 1542.04 1395.28 1547.07 L1416.16 1547.04 Z" fill="#000000" fill-rule="nonzero" fill-opacity="1" /><path clip-path="url(#clip690)" d="M1433.12 1559.96 L1439.84 1559.96 L1439.84 1565.43 L1434.62 1575.62 L1430.51 1575.62 L1433.12 1565.43 L1433.12 1559.96 Z" fill="#000000" fill-rule="nonzero" fill-opacity="1" /><path clip-path="url(#clip690)" d="M1473.32 1520.52 L1481.98 1520.52 L1503.05 1560.28 L1503.05 1520.52 L1509.29 1520.52 L1509.29 1568.04 L1500.63 1568.04 L1479.56 1528.29 L1479.56 1568.04 L1473.32 1568.04 L1473.32 1520.52 Z" fill="#000000" fill-rule="nonzero" fill-opacity="1" /><polyline clip-path="url(#clip692)" style="stroke:#000000; stroke-linecap:round; stroke-linejoin:round; stroke-width:2; stroke-opacity:0.1; fill:none" points="219.866,1331.45 2352.76,1331.45 "/>
<polyline clip-path="url(#clip692)" style="stroke:#000000; stroke-linecap:round; stroke-linejoin:round; stroke-width:2; stroke-opacity:0.1; fill:none" points="219.866,1163.39 2352.76,1163.39 "/>
<polyline clip-path="url(#clip692)" style="stroke:#000000; stroke-linecap:round; stroke-linejoin:round; stroke-width:2; stroke-opacity:0.1; fill:none" points="219.866,995.339 2352.76,995.339 "/>
<polyline clip-path="url(#clip692)" style="stroke:#000000; stroke-linecap:round; stroke-linejoin:round; stroke-width:2; stroke-opacity:0.1; fill:none" points="219.866,827.283 2352.76,827.283 "/>
<polyline clip-path="url(#clip692)" style="stroke:#000000; stroke-linecap:round; stroke-linejoin:round; stroke-width:2; stroke-opacity:0.1; fill:none" points="219.866,659.228 2352.76,659.228 "/>
<polyline clip-path="url(#clip692)" style="stroke:#000000; stroke-linecap:round; stroke-linejoin:round; stroke-width:2; stroke-opacity:0.1; fill:none" points="219.866,491.172 2352.76,491.172 "/>
<polyline clip-path="url(#clip692)" style="stroke:#000000; stroke-linecap:round; stroke-linejoin:round; stroke-width:2; stroke-opacity:0.1; fill:none" points="219.866,323.116 2352.76,323.116 "/>
<polyline clip-path="url(#clip690)" style="stroke:#000000; stroke-linecap:round; stroke-linejoin:round; stroke-width:4; stroke-opacity:1; fill:none" points="219.866,1423.18 219.866,183.952 "/>
<polyline clip-path="url(#clip690)" style="stroke:#000000; stroke-linecap:round; stroke-linejoin:round; stroke-width:4; stroke-opacity:1; fill:none" points="219.866,1331.45 238.764,1331.45 "/>
<polyline clip-path="url(#clip690)" style="stroke:#000000; stroke-linecap:round; stroke-linejoin:round; stroke-width:4; stroke-opacity:1; fill:none" points="219.866,1163.39 238.764,1163.39 "/>
<polyline clip-path="url(#clip690)" style="stroke:#000000; stroke-linecap:round; stroke-linejoin:round; stroke-width:4; stroke-opacity:1; fill:none" points="219.866,995.339 238.764,995.339 "/>
<polyline clip-path="url(#clip690)" style="stroke:#000000; stroke-linecap:round; stroke-linejoin:round; stroke-width:4; stroke-opacity:1; fill:none" points="219.866,827.283 238.764,827.283 "/>
<polyline clip-path="url(#clip690)" style="stroke:#000000; stroke-linecap:round; stroke-linejoin:round; stroke-width:4; stroke-opacity:1; fill:none" points="219.866,659.228 238.764,659.228 "/>
<polyline clip-path="url(#clip690)" style="stroke:#000000; stroke-linecap:round; stroke-linejoin:round; stroke-width:4; stroke-opacity:1; fill:none" points="219.866,491.172 238.764,491.172 "/>
<polyline clip-path="url(#clip690)" style="stroke:#000000; stroke-linecap:round; stroke-linejoin:round; stroke-width:4; stroke-opacity:1; fill:none" points="219.866,323.116 238.764,323.116 "/>
<path clip-path="url(#clip690)" d="M127.917 1317.25 Q124.306 1317.25 122.478 1320.81 Q120.672 1324.36 120.672 1331.49 Q120.672 1338.59 122.478 1342.16 Q124.306 1345.7 127.917 1345.7 Q131.552 1345.7 133.357 1342.16 Q135.186 1338.59 135.186 1331.49 Q135.186 1324.36 133.357 1320.81 Q131.552 1317.25 127.917 1317.25 M127.917 1313.55 Q133.728 1313.55 136.783 1318.15 Q139.862 1322.74 139.862 1331.49 Q139.862 1340.21 136.783 1344.82 Q133.728 1349.4 127.917 1349.4 Q122.107 1349.4 119.029 1344.82 Q115.973 1340.21 115.973 1331.49 Q115.973 1322.74 119.029 1318.15 Q122.107 1313.55 127.917 1313.55 Z" fill="#000000" fill-rule="nonzero" fill-opacity="1" /><path clip-path="url(#clip690)" d="M148.079 1342.85 L152.964 1342.85 L152.964 1348.73 L148.079 1348.73 L148.079 1342.85 Z" fill="#000000" fill-rule="nonzero" fill-opacity="1" /><path clip-path="url(#clip690)" d="M163.959 1344.8 L171.598 1344.8 L171.598 1318.43 L163.288 1320.1 L163.288 1315.84 L171.552 1314.17 L176.227 1314.17 L176.227 1344.8 L183.866 1344.8 L183.866 1348.73 L163.959 1348.73 L163.959 1344.8 Z" fill="#000000" fill-rule="nonzero" fill-opacity="1" /><path clip-path="url(#clip690)" d="M128.288 1149.19 Q124.677 1149.19 122.848 1152.76 Q121.043 1156.3 121.043 1163.43 Q121.043 1170.54 122.848 1174.1 Q124.677 1177.64 128.288 1177.64 Q131.922 1177.64 133.728 1174.1 Q135.556 1170.54 135.556 1163.43 Q135.556 1156.3 133.728 1152.76 Q131.922 1149.19 128.288 1149.19 M128.288 1145.49 Q134.098 1145.49 137.154 1150.1 Q140.232 1154.68 140.232 1163.43 Q140.232 1172.16 137.154 1176.76 Q134.098 1181.35 128.288 1181.35 Q122.478 1181.35 119.399 1176.76 Q116.343 1172.16 116.343 1163.43 Q116.343 1154.68 119.399 1150.1 Q122.478 1145.49 128.288 1145.49 Z" fill="#000000" fill-rule="nonzero" fill-opacity="1" /><path clip-path="url(#clip690)" d="M148.45 1174.8 L153.334 1174.8 L153.334 1180.67 L148.45 1180.67 L148.45 1174.8 Z" fill="#000000" fill-rule="nonzero" fill-opacity="1" /><path clip-path="url(#clip690)" d="M167.547 1176.74 L183.866 1176.74 L183.866 1180.67 L161.922 1180.67 L161.922 1176.74 Q164.584 1173.98 169.167 1169.36 Q173.774 1164.7 174.954 1163.36 Q177.2 1160.84 178.079 1159.1 Q178.982 1157.34 178.982 1155.65 Q178.982 1152.9 177.038 1151.16 Q175.116 1149.42 172.014 1149.42 Q169.815 1149.42 167.362 1150.19 Q164.931 1150.95 162.153 1152.5 L162.153 1147.78 Q164.977 1146.65 167.431 1146.07 Q169.885 1145.49 171.922 1145.49 Q177.292 1145.49 180.487 1148.17 Q183.681 1150.86 183.681 1155.35 Q183.681 1157.48 182.871 1159.4 Q182.084 1161.3 179.977 1163.89 Q179.399 1164.56 176.297 1167.78 Q173.195 1170.98 167.547 1176.74 Z" fill="#000000" fill-rule="nonzero" fill-opacity="1" /><path clip-path="url(#clip690)" d="M127.339 981.138 Q123.728 981.138 121.899 984.703 Q120.093 988.244 120.093 995.374 Q120.093 1002.48 121.899 1006.05 Q123.728 1009.59 127.339 1009.59 Q130.973 1009.59 132.779 1006.05 Q134.607 1002.48 134.607 995.374 Q134.607 988.244 132.779 984.703 Q130.973 981.138 127.339 981.138 M127.339 977.434 Q133.149 977.434 136.204 982.041 Q139.283 986.624 139.283 995.374 Q139.283 1004.1 136.204 1008.71 Q133.149 1013.29 127.339 1013.29 Q121.529 1013.29 118.45 1008.71 Q115.394 1004.1 115.394 995.374 Q115.394 986.624 118.45 982.041 Q121.529 977.434 127.339 977.434 Z" fill="#000000" fill-rule="nonzero" fill-opacity="1" /><path clip-path="url(#clip690)" d="M147.501 1006.74 L152.385 1006.74 L152.385 1012.62 L147.501 1012.62 L147.501 1006.74 Z" fill="#000000" fill-rule="nonzero" fill-opacity="1" /><path clip-path="url(#clip690)" d="M176.737 993.985 Q180.093 994.703 181.968 996.971 Q183.866 999.24 183.866 1002.57 Q183.866 1007.69 180.348 1010.49 Q176.829 1013.29 170.348 1013.29 Q168.172 1013.29 165.857 1012.85 Q163.565 1012.43 161.112 1011.58 L161.112 1007.06 Q163.056 1008.2 165.371 1008.78 Q167.686 1009.36 170.209 1009.36 Q174.607 1009.36 176.899 1007.62 Q179.214 1005.88 179.214 1002.57 Q179.214 999.517 177.061 997.804 Q174.931 996.068 171.112 996.068 L167.084 996.068 L167.084 992.226 L171.297 992.226 Q174.746 992.226 176.575 990.86 Q178.403 989.471 178.403 986.878 Q178.403 984.216 176.505 982.804 Q174.63 981.369 171.112 981.369 Q169.19 981.369 166.991 981.786 Q164.792 982.203 162.153 983.082 L162.153 978.916 Q164.815 978.175 167.13 977.804 Q169.468 977.434 171.528 977.434 Q176.852 977.434 179.954 979.865 Q183.056 982.272 183.056 986.392 Q183.056 989.263 181.413 991.253 Q179.769 993.221 176.737 993.985 Z" fill="#000000" fill-rule="nonzero" fill-opacity="1" /><path clip-path="url(#clip690)" d="M126.205 813.082 Q122.593 813.082 120.765 816.647 Q118.959 820.189 118.959 827.318 Q118.959 834.425 120.765 837.989 Q122.593 841.531 126.205 841.531 Q129.839 841.531 131.644 837.989 Q133.473 834.425 133.473 827.318 Q133.473 820.189 131.644 816.647 Q129.839 813.082 126.205 813.082 M126.205 809.378 Q132.015 809.378 135.07 813.985 Q138.149 818.568 138.149 827.318 Q138.149 836.045 135.07 840.651 Q132.015 845.235 126.205 845.235 Q120.394 845.235 117.316 840.651 Q114.26 836.045 114.26 827.318 Q114.26 818.568 117.316 813.985 Q120.394 809.378 126.205 809.378 Z" fill="#000000" fill-rule="nonzero" fill-opacity="1" /><path clip-path="url(#clip690)" d="M146.366 838.684 L151.251 838.684 L151.251 844.563 L146.366 844.563 L146.366 838.684 Z" fill="#000000" fill-rule="nonzero" fill-opacity="1" /><path clip-path="url(#clip690)" d="M174.283 814.077 L162.477 832.526 L174.283 832.526 L174.283 814.077 M173.056 810.003 L178.936 810.003 L178.936 832.526 L183.866 832.526 L183.866 836.415 L178.936 836.415 L178.936 844.563 L174.283 844.563 L174.283 836.415 L158.681 836.415 L158.681 831.901 L173.056 810.003 Z" fill="#000000" fill-rule="nonzero" fill-opacity="1" /><path clip-path="url(#clip690)" d="M127.686 645.026 Q124.075 645.026 122.246 648.591 Q120.441 652.133 120.441 659.263 Q120.441 666.369 122.246 669.934 Q124.075 673.475 127.686 673.475 Q131.32 673.475 133.126 669.934 Q134.954 666.369 134.954 659.263 Q134.954 652.133 133.126 648.591 Q131.32 645.026 127.686 645.026 M127.686 641.323 Q133.496 641.323 136.552 645.929 Q139.63 650.513 139.63 659.263 Q139.63 667.989 136.552 672.596 Q133.496 677.179 127.686 677.179 Q121.876 677.179 118.797 672.596 Q115.742 667.989 115.742 659.263 Q115.742 650.513 118.797 645.929 Q121.876 641.323 127.686 641.323 Z" fill="#000000" fill-rule="nonzero" fill-opacity="1" /><path clip-path="url(#clip690)" d="M147.848 670.628 L152.732 670.628 L152.732 676.508 L147.848 676.508 L147.848 670.628 Z" fill="#000000" fill-rule="nonzero" fill-opacity="1" /><path clip-path="url(#clip690)" d="M162.964 641.948 L181.32 641.948 L181.32 645.883 L167.246 645.883 L167.246 654.355 Q168.264 654.008 169.283 653.846 Q170.302 653.661 171.32 653.661 Q177.107 653.661 180.487 656.832 Q183.866 660.003 183.866 665.42 Q183.866 670.999 180.394 674.1 Q176.922 677.179 170.602 677.179 Q168.427 677.179 166.158 676.809 Q163.913 676.438 161.505 675.698 L161.505 670.999 Q163.589 672.133 165.811 672.688 Q168.033 673.244 170.51 673.244 Q174.514 673.244 176.852 671.137 Q179.19 669.031 179.19 665.42 Q179.19 661.809 176.852 659.702 Q174.514 657.596 170.51 657.596 Q168.635 657.596 166.76 658.013 Q164.908 658.429 162.964 659.309 L162.964 641.948 Z" fill="#000000" fill-rule="nonzero" fill-opacity="1" /><path clip-path="url(#clip690)" d="M126.529 476.971 Q122.918 476.971 121.089 480.536 Q119.283 484.077 119.283 491.207 Q119.283 498.313 121.089 501.878 Q122.918 505.42 126.529 505.42 Q130.163 505.42 131.968 501.878 Q133.797 498.313 133.797 491.207 Q133.797 484.077 131.968 480.536 Q130.163 476.971 126.529 476.971 M126.529 473.267 Q132.339 473.267 135.394 477.874 Q138.473 482.457 138.473 491.207 Q138.473 499.934 135.394 504.54 Q132.339 509.123 126.529 509.123 Q120.718 509.123 117.64 504.54 Q114.584 499.934 114.584 491.207 Q114.584 482.457 117.64 477.874 Q120.718 473.267 126.529 473.267 Z" fill="#000000" fill-rule="nonzero" fill-opacity="1" /><path clip-path="url(#clip690)" d="M146.691 502.573 L151.575 502.573 L151.575 508.452 L146.691 508.452 L146.691 502.573 Z" fill="#000000" fill-rule="nonzero" fill-opacity="1" /><path clip-path="url(#clip690)" d="M172.339 489.309 Q169.19 489.309 167.339 491.461 Q165.51 493.614 165.51 497.364 Q165.51 501.091 167.339 503.267 Q169.19 505.42 172.339 505.42 Q175.487 505.42 177.315 503.267 Q179.167 501.091 179.167 497.364 Q179.167 493.614 177.315 491.461 Q175.487 489.309 172.339 489.309 M181.621 474.656 L181.621 478.915 Q179.862 478.082 178.056 477.642 Q176.274 477.202 174.514 477.202 Q169.885 477.202 167.431 480.327 Q165.001 483.452 164.653 489.772 Q166.019 487.758 168.079 486.693 Q170.139 485.605 172.616 485.605 Q177.825 485.605 180.834 488.776 Q183.866 491.924 183.866 497.364 Q183.866 502.688 180.718 505.906 Q177.57 509.123 172.339 509.123 Q166.343 509.123 163.172 504.54 Q160.001 499.934 160.001 491.207 Q160.001 483.012 163.89 478.151 Q167.778 473.267 174.329 473.267 Q176.089 473.267 177.871 473.614 Q179.676 473.962 181.621 474.656 Z" fill="#000000" fill-rule="nonzero" fill-opacity="1" /><path clip-path="url(#clip690)" d="M127.593 308.915 Q123.982 308.915 122.154 312.48 Q120.348 316.022 120.348 323.151 Q120.348 330.258 122.154 333.822 Q123.982 337.364 127.593 337.364 Q131.228 337.364 133.033 333.822 Q134.862 330.258 134.862 323.151 Q134.862 316.022 133.033 312.48 Q131.228 308.915 127.593 308.915 M127.593 305.211 Q133.404 305.211 136.459 309.818 Q139.538 314.401 139.538 323.151 Q139.538 331.878 136.459 336.484 Q133.404 341.068 127.593 341.068 Q121.783 341.068 118.705 336.484 Q115.649 331.878 115.649 323.151 Q115.649 314.401 118.705 309.818 Q121.783 305.211 127.593 305.211 Z" fill="#000000" fill-rule="nonzero" fill-opacity="1" /><path clip-path="url(#clip690)" d="M147.755 334.517 L152.64 334.517 L152.64 340.396 L147.755 340.396 L147.755 334.517 Z" fill="#000000" fill-rule="nonzero" fill-opacity="1" /><path clip-path="url(#clip690)" d="M161.644 305.836 L183.866 305.836 L183.866 307.827 L171.32 340.396 L166.436 340.396 L178.241 309.772 L161.644 309.772 L161.644 305.836 Z" fill="#000000" fill-rule="nonzero" fill-opacity="1" /><path clip-path="url(#clip690)" d="M14.1925 1204.92 L79.3773 1204.92 L79.3773 1210.33 L14.1925 1210.33 L14.1925 1204.92 Z" fill="#000000" fill-rule="nonzero" fill-opacity="1" /><path clip-path="url(#clip690)" d="M16.4842 1196.84 L16.4842 1156.64 L21.895 1156.64 L21.895 1173.51 L64.0042 1173.51 L64.0042 1179.97 L21.895 1179.97 L21.895 1196.84 L16.4842 1196.84 Z" fill="#000000" fill-rule="nonzero" fill-opacity="1" /><path clip-path="url(#clip690)" d="M74.8259 1123.6 L79.3773 1123.6 L79.3773 1157.47 L74.8259 1157.47 L74.8259 1123.6 Z" fill="#000000" fill-rule="nonzero" fill-opacity="1" /><path clip-path="url(#clip690)" d="M29.7248 1092.44 L35.1993 1092.44 Q33.8307 1094.92 33.1623 1097.44 Q32.4621 1099.92 32.4621 1102.47 Q32.4621 1108.17 36.0905 1111.32 Q39.6872 1114.47 46.212 1114.47 Q52.7369 1114.47 56.3653 1111.32 Q59.9619 1108.17 59.9619 1102.47 Q59.9619 1099.92 59.2935 1097.44 Q58.5933 1094.92 57.2247 1092.44 L62.6355 1092.44 Q63.7814 1094.89 64.3543 1097.53 Q64.9272 1100.14 64.9272 1103.1 Q64.9272 1111.16 59.8664 1115.9 Q54.8057 1120.64 46.212 1120.64 Q37.491 1120.64 32.4939 1115.87 Q27.4968 1111.06 27.4968 1102.72 Q27.4968 1100.02 28.0697 1097.44 Q28.6108 1094.86 29.7248 1092.44 Z" fill="#000000" fill-rule="nonzero" fill-opacity="1" /><path clip-path="url(#clip690)" d="M43.5384 1064.5 L43.5384 1047.34 L48.7583 1047.34 L48.7583 1064.5 L43.5384 1064.5 Z" fill="#000000" fill-rule="nonzero" fill-opacity="1" /><path clip-path="url(#clip690)" d="M20.8447 997.752 Q20.8447 1004.75 26.0645 1008.89 Q31.2844 1013 40.2919 1013 Q49.2675 1013 54.4874 1008.89 Q59.7073 1004.75 59.7073 997.752 Q59.7073 990.75 54.4874 986.676 Q49.2675 982.57 40.2919 982.57 Q31.2844 982.57 26.0645 986.676 Q20.8447 990.75 20.8447 997.752 M15.6248 997.752 Q15.6248 987.758 22.3406 981.774 Q29.0246 975.79 40.2919 975.79 Q51.5274 975.79 58.2432 981.774 Q64.9272 987.758 64.9272 997.752 Q64.9272 1007.78 58.2432 1013.79 Q51.5592 1019.78 40.2919 1019.78 Q29.0246 1019.78 22.3406 1013.79 Q15.6248 1007.78 15.6248 997.752 Z" fill="#000000" fill-rule="nonzero" fill-opacity="1" /><path clip-path="url(#clip690)" d="M42.4881 936.355 L64.0042 936.355 L64.0042 942.211 L42.679 942.211 Q37.6183 942.211 35.1038 944.184 Q32.5894 946.158 32.5894 950.105 Q32.5894 954.847 35.6131 957.584 Q38.6368 960.322 43.8567 960.322 L64.0042 960.322 L64.0042 966.21 L28.3562 966.21 L28.3562 960.322 L33.8944 960.322 Q30.6797 958.221 29.0883 955.388 Q27.4968 952.524 27.4968 948.8 Q27.4968 942.657 31.3163 939.506 Q35.1038 936.355 42.4881 936.355 Z" fill="#000000" fill-rule="nonzero" fill-opacity="1" /><path clip-path="url(#clip690)" d="M29.4065 901.948 L34.9447 901.948 Q33.6716 904.431 33.035 907.104 Q32.3984 909.778 32.3984 912.642 Q32.3984 917.003 33.7352 919.199 Q35.072 921.363 37.7456 921.363 Q39.7826 921.363 40.9603 919.804 Q42.1061 918.244 43.1565 913.534 L43.6021 911.528 Q44.9389 905.29 47.3897 902.68 Q49.8086 900.038 54.1691 900.038 Q59.1344 900.038 62.0308 903.985 Q64.9272 907.9 64.9272 914.775 Q64.9272 917.639 64.3543 920.759 Q63.8132 923.846 62.6992 927.283 L56.6518 927.283 Q58.3387 924.037 59.198 920.886 Q60.0256 917.735 60.0256 914.648 Q60.0256 910.51 58.6251 908.282 Q57.1929 906.054 54.6147 906.054 Q52.2276 906.054 50.9545 907.677 Q49.6813 909.269 48.5037 914.711 L48.0262 916.748 Q46.8804 922.191 44.5251 924.61 Q42.138 927.029 38.0002 927.029 Q32.9713 927.029 30.2341 923.464 Q27.4968 919.899 27.4968 913.343 Q27.4968 910.096 27.9743 907.232 Q28.4517 904.367 29.4065 901.948 Z" fill="#000000" fill-rule="nonzero" fill-opacity="1" /><path clip-path="url(#clip690)" d="M46.0847 874.512 Q46.0847 881.61 47.7079 884.347 Q49.3312 887.084 53.2461 887.084 Q56.3653 887.084 58.2114 885.047 Q60.0256 882.978 60.0256 879.445 Q60.0256 874.575 56.5881 871.647 Q53.1188 868.687 47.3897 868.687 L46.0847 868.687 L46.0847 874.512 M43.6657 862.831 L64.0042 862.831 L64.0042 868.687 L58.5933 868.687 Q61.8398 870.692 63.3994 873.684 Q64.9272 876.676 64.9272 881.005 Q64.9272 886.479 61.8716 889.726 Q58.7843 892.941 53.6281 892.941 Q47.6125 892.941 44.5569 888.93 Q41.5014 884.888 41.5014 876.899 L41.5014 868.687 L40.9285 868.687 Q36.8862 868.687 34.6901 871.361 Q32.4621 874.003 32.4621 878.809 Q32.4621 881.864 33.1941 884.761 Q33.9262 887.657 35.3903 890.331 L29.9795 890.331 Q28.7381 887.116 28.1334 884.092 Q27.4968 881.068 27.4968 878.204 Q27.4968 870.47 31.5072 866.65 Q35.5176 862.831 43.6657 862.831 Z" fill="#000000" fill-rule="nonzero" fill-opacity="1" /><path clip-path="url(#clip690)" d="M45.7664 827.31 Q39.4007 827.31 35.8996 829.952 Q32.3984 832.562 32.3984 837.304 Q32.3984 842.015 35.8996 844.657 Q39.4007 847.267 45.7664 847.267 Q52.1003 847.267 55.6014 844.657 Q59.1026 842.015 59.1026 837.304 Q59.1026 832.562 55.6014 829.952 Q52.1003 827.31 45.7664 827.31 M59.58 821.454 Q68.683 821.454 73.1071 825.496 Q77.5631 829.538 77.5631 837.877 Q77.5631 840.965 77.0857 843.702 Q76.6401 846.439 75.6852 849.017 L69.9879 849.017 Q71.3884 846.439 72.0568 843.925 Q72.7252 841.41 72.7252 838.8 Q72.7252 833.039 69.7015 830.175 Q66.7096 827.31 60.6303 827.31 L57.7339 827.31 Q60.885 829.124 62.4446 831.957 Q64.0042 834.79 64.0042 838.737 Q64.0042 845.293 59.0071 849.304 Q54.01 853.314 45.7664 853.314 Q37.491 853.314 32.4939 849.304 Q27.4968 845.293 27.4968 838.737 Q27.4968 834.79 29.0564 831.957 Q30.616 829.124 33.7671 827.31 L28.3562 827.31 L28.3562 821.454 L59.58 821.454 Z" fill="#000000" fill-rule="nonzero" fill-opacity="1" /><path clip-path="url(#clip690)" d="M44.7161 778.899 L47.5806 778.899 L47.5806 805.826 Q53.6281 805.444 56.8109 802.197 Q59.9619 798.919 59.9619 793.094 Q59.9619 789.721 59.1344 786.57 Q58.3069 783.387 56.6518 780.267 L62.1899 780.267 Q63.5267 783.419 64.227 786.729 Q64.9272 790.039 64.9272 793.445 Q64.9272 801.975 59.9619 806.972 Q54.9967 811.937 46.5303 811.937 Q37.7774 811.937 32.6531 807.226 Q27.4968 802.484 27.4968 794.463 Q27.4968 787.27 32.1438 783.1 Q36.7589 778.899 44.7161 778.899 M42.9973 784.755 Q38.1912 784.819 35.3266 787.461 Q32.4621 790.071 32.4621 794.399 Q32.4621 799.301 35.2312 802.261 Q38.0002 805.189 43.0292 805.635 L42.9973 784.755 Z" fill="#000000" fill-rule="nonzero" fill-opacity="1" /><path clip-path="url(#clip690)" d="M33.8307 748.63 Q33.2578 749.617 33.0032 750.794 Q32.7167 751.94 32.7167 753.341 Q32.7167 758.306 35.9632 760.979 Q39.1779 763.621 45.2253 763.621 L64.0042 763.621 L64.0042 769.509 L28.3562 769.509 L28.3562 763.621 L33.8944 763.621 Q30.6479 761.775 29.0883 758.815 Q27.4968 755.855 27.4968 751.622 Q27.4968 751.017 27.5923 750.285 Q27.656 749.553 27.8151 748.662 L33.8307 748.63 Z" fill="#000000" fill-rule="nonzero" fill-opacity="1" /><path clip-path="url(#clip690)" d="M16.4842 736.949 L34.149 736.949 L34.149 742.36 L16.4842 742.36 L16.4842 736.949 Z" fill="#000000" fill-rule="nonzero" fill-opacity="1" /><path clip-path="url(#clip690)" d="M29.4065 701.842 L34.9447 701.842 Q33.6716 704.325 33.035 706.998 Q32.3984 709.672 32.3984 712.536 Q32.3984 716.897 33.7352 719.093 Q35.072 721.257 37.7456 721.257 Q39.7826 721.257 40.9603 719.698 Q42.1061 718.138 43.1565 713.428 L43.6021 711.422 Q44.9389 705.184 47.3897 702.574 Q49.8086 699.932 54.1691 699.932 Q59.1344 699.932 62.0308 703.879 Q64.9272 707.794 64.9272 714.669 Q64.9272 717.533 64.3543 720.653 Q63.8132 723.74 62.6992 727.178 L56.6518 727.178 Q58.3387 723.931 59.198 720.78 Q60.0256 717.629 60.0256 714.542 Q60.0256 710.404 58.6251 708.176 Q57.1929 705.948 54.6147 705.948 Q52.2276 705.948 50.9545 707.571 Q49.6813 709.163 48.5037 714.605 L48.0262 716.642 Q46.8804 722.085 44.5251 724.504 Q42.138 726.923 38.0002 726.923 Q32.9713 726.923 30.2341 723.358 Q27.4968 719.793 27.4968 713.237 Q27.4968 709.99 27.9743 707.126 Q28.4517 704.261 29.4065 701.842 Z" fill="#000000" fill-rule="nonzero" fill-opacity="1" /><path clip-path="url(#clip690)" d="M18.0438 641.145 L24.314 641.145 Q22.5634 644.805 21.704 648.052 Q20.8447 651.298 20.8447 654.322 Q20.8447 659.574 22.8817 662.438 Q24.9187 665.271 28.6745 665.271 Q31.8255 665.271 33.4488 663.393 Q35.0402 661.483 36.0269 656.2 L36.8226 652.317 Q38.1912 645.124 41.6605 641.718 Q45.098 638.28 50.8908 638.28 Q57.7976 638.28 61.3624 642.927 Q64.9272 647.543 64.9272 656.486 Q64.9272 659.86 64.1633 663.68 Q63.3994 667.467 61.9035 671.541 L55.2831 671.541 Q57.4793 667.626 58.5933 663.871 Q59.7073 660.115 59.7073 656.486 Q59.7073 650.98 57.543 647.988 Q55.3786 644.996 51.3682 644.996 Q47.8671 644.996 45.8937 647.161 Q43.9204 649.293 42.9337 654.195 L42.1698 658.11 Q40.7375 665.303 37.682 668.518 Q34.6264 671.732 29.1837 671.732 Q22.8817 671.732 19.2532 667.308 Q15.6248 662.852 15.6248 655.054 Q15.6248 651.712 16.2295 648.243 Q16.8343 644.773 18.0438 641.145 Z" fill="#000000" fill-rule="nonzero" fill-opacity="1" /><path clip-path="url(#clip690)" d="M32.4621 614.695 Q32.4621 619.406 36.1542 622.143 Q39.8145 624.881 46.212 624.881 Q52.6095 624.881 56.3017 622.175 Q59.9619 619.438 59.9619 614.695 Q59.9619 610.017 56.2698 607.279 Q52.5777 604.542 46.212 604.542 Q39.8781 604.542 36.186 607.279 Q32.4621 610.017 32.4621 614.695 M27.4968 614.695 Q27.4968 607.057 32.4621 602.696 Q37.4273 598.336 46.212 598.336 Q54.9649 598.336 59.9619 602.696 Q64.9272 607.057 64.9272 614.695 Q64.9272 622.366 59.9619 626.727 Q54.9649 631.055 46.212 631.055 Q37.4273 631.055 32.4621 626.727 Q27.4968 622.366 27.4968 614.695 Z" fill="#000000" fill-rule="nonzero" fill-opacity="1" /><path clip-path="url(#clip690)" d="M14.479 588.628 L14.479 582.771 L64.0042 582.771 L64.0042 588.628 L14.479 588.628 Z" fill="#000000" fill-rule="nonzero" fill-opacity="1" /><path clip-path="url(#clip690)" d="M49.9359 571.122 L28.3562 571.122 L28.3562 565.266 L49.7131 565.266 Q54.7739 565.266 57.3202 563.292 Q59.8346 561.319 59.8346 557.372 Q59.8346 552.63 56.8109 549.893 Q53.7872 547.123 48.5673 547.123 L28.3562 547.123 L28.3562 541.267 L64.0042 541.267 L64.0042 547.123 L58.5296 547.123 Q61.7762 549.256 63.3676 552.089 Q64.9272 554.89 64.9272 558.614 Q64.9272 564.756 61.1078 567.939 Q57.2883 571.122 49.9359 571.122 M27.4968 556.386 L27.4968 556.386 Z" fill="#000000" fill-rule="nonzero" fill-opacity="1" /><path clip-path="url(#clip690)" d="M18.2347 523.411 L28.3562 523.411 L28.3562 511.348 L32.9077 511.348 L32.9077 523.411 L52.2594 523.411 Q56.6199 523.411 57.8613 522.234 Q59.1026 521.024 59.1026 517.364 L59.1026 511.348 L64.0042 511.348 L64.0042 517.364 Q64.0042 524.143 61.4897 526.721 Q58.9434 529.3 52.2594 529.3 L32.9077 529.3 L32.9077 533.596 L28.3562 533.596 L28.3562 529.3 L18.2347 529.3 L18.2347 523.411 Z" fill="#000000" fill-rule="nonzero" fill-opacity="1" /><path clip-path="url(#clip690)" d="M28.3562 503.646 L28.3562 497.789 L64.0042 497.789 L64.0042 503.646 L28.3562 503.646 M14.479 503.646 L14.479 497.789 L21.895 497.789 L21.895 503.646 L14.479 503.646 Z" fill="#000000" fill-rule="nonzero" fill-opacity="1" /><path clip-path="url(#clip690)" d="M32.4621 471.722 Q32.4621 476.432 36.1542 479.17 Q39.8145 481.907 46.212 481.907 Q52.6095 481.907 56.3017 479.201 Q59.9619 476.464 59.9619 471.722 Q59.9619 467.043 56.2698 464.306 Q52.5777 461.568 46.212 461.568 Q39.8781 461.568 36.186 464.306 Q32.4621 467.043 32.4621 471.722 M27.4968 471.722 Q27.4968 464.083 32.4621 459.722 Q37.4273 455.362 46.212 455.362 Q54.9649 455.362 59.9619 459.722 Q64.9272 464.083 64.9272 471.722 Q64.9272 479.392 59.9619 483.753 Q54.9649 488.082 46.212 488.082 Q37.4273 488.082 32.4621 483.753 Q27.4968 479.392 27.4968 471.722 Z" fill="#000000" fill-rule="nonzero" fill-opacity="1" /><path clip-path="url(#clip690)" d="M42.4881 416.022 L64.0042 416.022 L64.0042 421.878 L42.679 421.878 Q37.6183 421.878 35.1038 423.852 Q32.5894 425.825 32.5894 429.772 Q32.5894 434.514 35.6131 437.251 Q38.6368 439.989 43.8567 439.989 L64.0042 439.989 L64.0042 445.877 L28.3562 445.877 L28.3562 439.989 L33.8944 439.989 Q30.6797 437.888 29.0883 435.055 Q27.4968 432.191 27.4968 428.467 Q27.4968 422.324 31.3163 419.173 Q35.1038 416.022 42.4881 416.022 Z" fill="#000000" fill-rule="nonzero" fill-opacity="1" /><path clip-path="url(#clip690)" d="M14.1925 396.797 L79.3773 396.797 L79.3773 402.208 L14.1925 402.208 L14.1925 396.797 Z" fill="#000000" fill-rule="nonzero" fill-opacity="1" /><path clip-path="url(#clip690)" d="M345.711 39.9885 L345.711 87.0195 L355.596 87.0195 Q368.113 87.0195 373.906 81.3482 Q379.739 75.677 379.739 63.4432 Q379.739 51.2905 373.906 45.6598 Q368.113 39.9885 355.596 39.9885 L345.711 39.9885 M337.529 33.264 L354.34 33.264 Q371.921 33.264 380.144 40.5961 Q388.367 47.8878 388.367 63.4432 Q388.367 79.0797 380.104 86.4119 Q371.84 93.744 354.34 93.744 L337.529 93.744 L337.529 33.264 Z" fill="#000000" fill-rule="nonzero" fill-opacity="1" /><path clip-path="url(#clip690)" d="M401.087 48.3739 L408.541 48.3739 L408.541 93.744 L401.087 93.744 L401.087 48.3739 M401.087 30.7119 L408.541 30.7119 L408.541 40.1505 L401.087 40.1505 L401.087 30.7119 Z" fill="#000000" fill-rule="nonzero" fill-opacity="1" /><path clip-path="url(#clip690)" d="M447.106 30.7119 L447.106 36.9098 L439.976 36.9098 Q435.966 36.9098 434.386 38.5302 Q432.846 40.1505 432.846 44.3635 L432.846 48.3739 L445.121 48.3739 L445.121 54.1667 L432.846 54.1667 L432.846 93.744 L425.352 93.744 L425.352 54.1667 L418.223 54.1667 L418.223 48.3739 L425.352 48.3739 L425.352 45.2142 Q425.352 37.639 428.876 34.1957 Q432.401 30.7119 440.057 30.7119 L447.106 30.7119 Z" fill="#000000" fill-rule="nonzero" fill-opacity="1" /><path clip-path="url(#clip690)" d="M476.313 30.7119 L476.313 36.9098 L469.183 36.9098 Q465.173 36.9098 463.593 38.5302 Q462.053 40.1505 462.053 44.3635 L462.053 48.3739 L474.328 48.3739 L474.328 54.1667 L462.053 54.1667 L462.053 93.744 L454.559 93.744 L454.559 54.1667 L447.43 54.1667 L447.43 48.3739 L454.559 48.3739 L454.559 45.2142 Q454.559 37.639 458.083 34.1957 Q461.608 30.7119 469.264 30.7119 L476.313 30.7119 Z" fill="#000000" fill-rule="nonzero" fill-opacity="1" /><path clip-path="url(#clip690)" d="M521.359 69.1955 L521.359 72.8413 L487.088 72.8413 Q487.574 80.5381 491.706 84.589 Q495.878 88.5994 503.292 88.5994 Q507.586 88.5994 511.596 87.5461 Q515.647 86.4929 519.617 84.3864 L519.617 91.435 Q515.606 93.1364 511.393 94.0276 Q507.18 94.9188 502.846 94.9188 Q491.99 94.9188 485.63 88.5994 Q479.31 82.2799 479.31 71.5045 Q479.31 60.3645 485.306 53.8426 Q491.341 47.2801 501.55 47.2801 Q510.705 47.2801 516.011 53.1944 Q521.359 59.0683 521.359 69.1955 M513.905 67.008 Q513.824 60.8912 510.462 57.2454 Q507.14 53.5995 501.631 53.5995 Q495.392 53.5995 491.625 57.1238 Q487.898 60.6481 487.331 67.0485 L513.905 67.008 Z" fill="#000000" fill-rule="nonzero" fill-opacity="1" /><path clip-path="url(#clip690)" d="M559.883 55.3414 Q558.627 54.6123 557.128 54.2882 Q555.67 53.9236 553.887 53.9236 Q547.568 53.9236 544.165 58.0555 Q540.803 62.1469 540.803 69.8437 L540.803 93.744 L533.309 93.744 L533.309 48.3739 L540.803 48.3739 L540.803 55.4224 Q543.152 51.2905 546.92 49.3056 Q550.687 47.2801 556.075 47.2801 Q556.845 47.2801 557.776 47.4017 Q558.708 47.4827 559.842 47.6852 L559.883 55.3414 Z" fill="#000000" fill-rule="nonzero" fill-opacity="1" /><path clip-path="url(#clip690)" d="M604.686 69.1955 L604.686 72.8413 L570.415 72.8413 Q570.901 80.5381 575.033 84.589 Q579.205 88.5994 586.619 88.5994 Q590.913 88.5994 594.923 87.5461 Q598.974 86.4929 602.944 84.3864 L602.944 91.435 Q598.933 93.1364 594.72 94.0276 Q590.508 94.9188 586.173 94.9188 Q575.317 94.9188 568.957 88.5994 Q562.637 82.2799 562.637 71.5045 Q562.637 60.3645 568.633 53.8426 Q574.668 47.2801 584.877 47.2801 Q594.032 47.2801 599.338 53.1944 Q604.686 59.0683 604.686 69.1955 M597.232 67.008 Q597.151 60.8912 593.789 57.2454 Q590.467 53.5995 584.958 53.5995 Q578.719 53.5995 574.952 57.1238 Q571.225 60.6481 570.658 67.0485 L597.232 67.008 Z" fill="#000000" fill-rule="nonzero" fill-opacity="1" /><path clip-path="url(#clip690)" d="M654.633 66.3599 L654.633 93.744 L647.18 93.744 L647.18 66.6029 Q647.18 60.162 644.668 56.9618 Q642.157 53.7616 637.133 53.7616 Q631.098 53.7616 627.614 57.6099 Q624.13 61.4583 624.13 68.1018 L624.13 93.744 L616.636 93.744 L616.636 48.3739 L624.13 48.3739 L624.13 55.4224 Q626.804 51.331 630.409 49.3056 Q634.055 47.2801 638.794 47.2801 Q646.613 47.2801 650.623 52.1412 Q654.633 56.9618 654.633 66.3599 Z" fill="#000000" fill-rule="nonzero" fill-opacity="1" /><path clip-path="url(#clip690)" d="M702.15 50.1158 L702.15 57.0833 Q698.991 55.3414 695.791 54.4907 Q692.631 53.5995 689.39 53.5995 Q682.139 53.5995 678.129 58.2176 Q674.118 62.7951 674.118 71.0994 Q674.118 79.4038 678.129 84.0218 Q682.139 88.5994 689.39 88.5994 Q692.631 88.5994 695.791 87.7487 Q698.991 86.8575 702.15 85.1156 L702.15 92.0021 Q699.031 93.4604 695.669 94.1896 Q692.347 94.9188 688.58 94.9188 Q678.331 94.9188 672.295 88.4778 Q666.259 82.0369 666.259 71.0994 Q666.259 60 672.336 53.64 Q678.453 47.2801 689.066 47.2801 Q692.509 47.2801 695.791 48.0093 Q699.072 48.6979 702.15 50.1158 Z" fill="#000000" fill-rule="nonzero" fill-opacity="1" /><path clip-path="url(#clip690)" d="M753.921 69.1955 L753.921 72.8413 L719.65 72.8413 Q720.136 80.5381 724.268 84.589 Q728.441 88.5994 735.854 88.5994 Q740.148 88.5994 744.158 87.5461 Q748.209 86.4929 752.179 84.3864 L752.179 91.435 Q748.169 93.1364 743.956 94.0276 Q739.743 94.9188 735.408 94.9188 Q724.552 94.9188 718.192 88.5994 Q711.873 82.2799 711.873 71.5045 Q711.873 60.3645 717.868 53.8426 Q723.904 47.2801 734.112 47.2801 Q743.267 47.2801 748.574 53.1944 Q753.921 59.0683 753.921 69.1955 M746.467 67.008 Q746.386 60.8912 743.024 57.2454 Q739.702 53.5995 734.193 53.5995 Q727.955 53.5995 724.187 57.1238 Q720.461 60.6481 719.893 67.0485 L746.467 67.008 Z" fill="#000000" fill-rule="nonzero" fill-opacity="1" /><path clip-path="url(#clip690)" d="M825.095 71.0994 Q825.095 62.8761 821.693 58.2176 Q818.33 53.5185 812.416 53.5185 Q806.502 53.5185 803.099 58.2176 Q799.737 62.8761 799.737 71.0994 Q799.737 79.3228 803.099 84.0218 Q806.502 88.6804 812.416 88.6804 Q818.33 88.6804 821.693 84.0218 Q825.095 79.3228 825.095 71.0994 M799.737 55.2604 Q802.086 51.2095 805.651 49.2651 Q809.256 47.2801 814.239 47.2801 Q822.503 47.2801 827.647 53.8426 Q832.833 60.4051 832.833 71.0994 Q832.833 81.7938 827.647 88.3563 Q822.503 94.9188 814.239 94.9188 Q809.256 94.9188 805.651 92.9743 Q802.086 90.9894 799.737 86.9385 L799.737 93.744 L792.243 93.744 L792.243 30.7119 L799.737 30.7119 L799.737 55.2604 Z" fill="#000000" fill-rule="nonzero" fill-opacity="1" /><path clip-path="url(#clip690)" d="M883.996 69.1955 L883.996 72.8413 L849.725 72.8413 Q850.211 80.5381 854.343 84.589 Q858.515 88.5994 865.929 88.5994 Q870.222 88.5994 874.233 87.5461 Q878.284 86.4929 882.254 84.3864 L882.254 91.435 Q878.243 93.1364 874.03 94.0276 Q869.817 94.9188 865.483 94.9188 Q854.626 94.9188 848.267 88.5994 Q841.947 82.2799 841.947 71.5045 Q841.947 60.3645 847.942 53.8426 Q853.978 47.2801 864.187 47.2801 Q873.342 47.2801 878.648 53.1944 Q883.996 59.0683 883.996 69.1955 M876.542 67.008 Q876.461 60.8912 873.099 57.2454 Q869.777 53.5995 864.268 53.5995 Q858.029 53.5995 854.262 57.1238 Q850.535 60.6481 849.968 67.0485 L876.542 67.008 Z" fill="#000000" fill-rule="nonzero" fill-opacity="1" /><path clip-path="url(#clip690)" d="M903.602 35.492 L903.602 48.3739 L918.955 48.3739 L918.955 54.1667 L903.602 54.1667 L903.602 78.7962 Q903.602 84.3459 905.101 85.9258 Q906.64 87.5056 911.299 87.5056 L918.955 87.5056 L918.955 93.744 L911.299 93.744 Q902.67 93.744 899.389 90.5438 Q896.108 87.3031 896.108 78.7962 L896.108 54.1667 L890.639 54.1667 L890.639 48.3739 L896.108 48.3739 L896.108 35.492 L903.602 35.492 Z" fill="#000000" fill-rule="nonzero" fill-opacity="1" /><path clip-path="url(#clip690)" d="M924.424 48.3739 L931.877 48.3739 L941.194 83.7788 L950.471 48.3739 L959.261 48.3739 L968.578 83.7788 L977.855 48.3739 L985.309 48.3739 L973.439 93.744 L964.649 93.744 L954.886 56.5567 L945.083 93.744 L936.293 93.744 L924.424 48.3739 Z" fill="#000000" fill-rule="nonzero" fill-opacity="1" /><path clip-path="url(#clip690)" d="M1035.42 69.1955 L1035.42 72.8413 L1001.15 72.8413 Q1001.63 80.5381 1005.77 84.589 Q1009.94 88.5994 1017.35 88.5994 Q1021.65 88.5994 1025.66 87.5461 Q1029.71 86.4929 1033.68 84.3864 L1033.68 91.435 Q1029.67 93.1364 1025.45 94.0276 Q1021.24 94.9188 1016.91 94.9188 Q1006.05 94.9188 999.689 88.5994 Q993.37 82.2799 993.37 71.5045 Q993.37 60.3645 999.365 53.8426 Q1005.4 47.2801 1015.61 47.2801 Q1024.76 47.2801 1030.07 53.1944 Q1035.42 59.0683 1035.42 69.1955 M1027.96 67.008 Q1027.88 60.8912 1024.52 57.2454 Q1021.2 53.5995 1015.69 53.5995 Q1009.45 53.5995 1005.68 57.1238 Q1001.96 60.6481 1001.39 67.0485 L1027.96 67.008 Z" fill="#000000" fill-rule="nonzero" fill-opacity="1" /><path clip-path="url(#clip690)" d="M1086.46 69.1955 L1086.46 72.8413 L1052.19 72.8413 Q1052.68 80.5381 1056.81 84.589 Q1060.98 88.5994 1068.39 88.5994 Q1072.69 88.5994 1076.7 87.5461 Q1080.75 86.4929 1084.72 84.3864 L1084.72 91.435 Q1080.71 93.1364 1076.49 94.0276 Q1072.28 94.9188 1067.95 94.9188 Q1057.09 94.9188 1050.73 88.5994 Q1044.41 82.2799 1044.41 71.5045 Q1044.41 60.3645 1050.41 53.8426 Q1056.44 47.2801 1066.65 47.2801 Q1075.81 47.2801 1081.11 53.1944 Q1086.46 59.0683 1086.46 69.1955 M1079.01 67.008 Q1078.93 60.8912 1075.56 57.2454 Q1072.24 53.5995 1066.73 53.5995 Q1060.49 53.5995 1056.73 57.1238 Q1053 60.6481 1052.43 67.0485 L1079.01 67.008 Z" fill="#000000" fill-rule="nonzero" fill-opacity="1" /><path clip-path="url(#clip690)" d="M1136.41 66.3599 L1136.41 93.744 L1128.95 93.744 L1128.95 66.6029 Q1128.95 60.162 1126.44 56.9618 Q1123.93 53.7616 1118.91 53.7616 Q1112.87 53.7616 1109.39 57.6099 Q1105.9 61.4583 1105.9 68.1018 L1105.9 93.744 L1098.41 93.744 L1098.41 48.3739 L1105.9 48.3739 L1105.9 55.4224 Q1108.58 51.331 1112.18 49.3056 Q1115.83 47.2801 1120.57 47.2801 Q1128.39 47.2801 1132.4 52.1412 Q1136.41 56.9618 1136.41 66.3599 Z" fill="#000000" fill-rule="nonzero" fill-opacity="1" /><path clip-path="url(#clip690)" d="M1185.02 35.492 L1185.02 48.3739 L1200.37 48.3739 L1200.37 54.1667 L1185.02 54.1667 L1185.02 78.7962 Q1185.02 84.3459 1186.52 85.9258 Q1188.06 87.5056 1192.71 87.5056 L1200.37 87.5056 L1200.37 93.744 L1192.71 93.744 Q1184.09 93.744 1180.81 90.5438 Q1177.52 87.3031 1177.52 78.7962 L1177.52 54.1667 L1172.06 54.1667 L1172.06 48.3739 L1177.52 48.3739 L1177.52 35.492 L1185.02 35.492 Z" fill="#000000" fill-rule="nonzero" fill-opacity="1" /><path clip-path="url(#clip690)" d="M1247.89 66.3599 L1247.89 93.744 L1240.43 93.744 L1240.43 66.6029 Q1240.43 60.162 1237.92 56.9618 Q1235.41 53.7616 1230.39 53.7616 Q1224.35 53.7616 1220.87 57.6099 Q1217.38 61.4583 1217.38 68.1018 L1217.38 93.744 L1209.89 93.744 L1209.89 30.7119 L1217.38 30.7119 L1217.38 55.4224 Q1220.06 51.331 1223.66 49.3056 Q1227.31 47.2801 1232.05 47.2801 Q1239.87 47.2801 1243.88 52.1412 Q1247.89 56.9618 1247.89 66.3599 Z" fill="#000000" fill-rule="nonzero" fill-opacity="1" /><path clip-path="url(#clip690)" d="M1301.56 69.1955 L1301.56 72.8413 L1267.29 72.8413 Q1267.78 80.5381 1271.91 84.589 Q1276.08 88.5994 1283.5 88.5994 Q1287.79 88.5994 1291.8 87.5461 Q1295.85 86.4929 1299.82 84.3864 L1299.82 91.435 Q1295.81 93.1364 1291.6 94.0276 Q1287.38 94.9188 1283.05 94.9188 Q1272.19 94.9188 1265.83 88.5994 Q1259.51 82.2799 1259.51 71.5045 Q1259.51 60.3645 1265.51 53.8426 Q1271.55 47.2801 1281.75 47.2801 Q1290.91 47.2801 1296.22 53.1944 Q1301.56 59.0683 1301.56 69.1955 M1294.11 67.008 Q1294.03 60.8912 1290.67 57.2454 Q1287.34 53.5995 1281.83 53.5995 Q1275.6 53.5995 1271.83 57.1238 Q1268.1 60.6481 1267.54 67.0485 L1294.11 67.008 Z" fill="#000000" fill-rule="nonzero" fill-opacity="1" /><path clip-path="url(#clip690)" d="M1331.38 53.5995 Q1325.38 53.5995 1321.9 58.2986 Q1318.41 62.9571 1318.41 71.0994 Q1318.41 79.2418 1321.86 83.9408 Q1325.34 88.5994 1331.38 88.5994 Q1337.33 88.5994 1340.82 83.9003 Q1344.3 79.2013 1344.3 71.0994 Q1344.3 63.0381 1340.82 58.3391 Q1337.33 53.5995 1331.38 53.5995 M1331.38 47.2801 Q1341.1 47.2801 1346.65 53.5995 Q1352.2 59.9189 1352.2 71.0994 Q1352.2 82.2394 1346.65 88.5994 Q1341.1 94.9188 1331.38 94.9188 Q1321.61 94.9188 1316.06 88.5994 Q1310.56 82.2394 1310.56 71.0994 Q1310.56 59.9189 1316.06 53.5995 Q1321.61 47.2801 1331.38 47.2801 Z" fill="#000000" fill-rule="nonzero" fill-opacity="1" /><path clip-path="url(#clip690)" d="M1390.84 55.3414 Q1389.59 54.6123 1388.09 54.2882 Q1386.63 53.9236 1384.85 53.9236 Q1378.53 53.9236 1375.13 58.0555 Q1371.76 62.1469 1371.76 69.8437 L1371.76 93.744 L1364.27 93.744 L1364.27 48.3739 L1371.76 48.3739 L1371.76 55.4224 Q1374.11 51.2905 1377.88 49.3056 Q1381.65 47.2801 1387.04 47.2801 Q1387.81 47.2801 1388.74 47.4017 Q1389.67 47.4827 1390.8 47.6852 L1390.84 55.3414 Z" fill="#000000" fill-rule="nonzero" fill-opacity="1" /><path clip-path="url(#clip690)" d="M1435.65 69.1955 L1435.65 72.8413 L1401.38 72.8413 Q1401.86 80.5381 1406 84.589 Q1410.17 88.5994 1417.58 88.5994 Q1421.87 88.5994 1425.88 87.5461 Q1429.94 86.4929 1433.91 84.3864 L1433.91 91.435 Q1429.9 93.1364 1425.68 94.0276 Q1421.47 94.9188 1417.14 94.9188 Q1406.28 94.9188 1399.92 88.5994 Q1393.6 82.2799 1393.6 71.5045 Q1393.6 60.3645 1399.59 53.8426 Q1405.63 47.2801 1415.84 47.2801 Q1424.99 47.2801 1430.3 53.1944 Q1435.65 59.0683 1435.65 69.1955 M1428.19 67.008 Q1428.11 60.8912 1424.75 57.2454 Q1421.43 53.5995 1415.92 53.5995 Q1409.68 53.5995 1405.91 57.1238 Q1402.19 60.6481 1401.62 67.0485 L1428.19 67.008 Z" fill="#000000" fill-rule="nonzero" fill-opacity="1" /><path clip-path="url(#clip690)" d="M1455.25 35.492 L1455.25 48.3739 L1470.61 48.3739 L1470.61 54.1667 L1455.25 54.1667 L1455.25 78.7962 Q1455.25 84.3459 1456.75 85.9258 Q1458.29 87.5056 1462.95 87.5056 L1470.61 87.5056 L1470.61 93.744 L1462.95 93.744 Q1454.32 93.744 1451.04 90.5438 Q1447.76 87.3031 1447.76 78.7962 L1447.76 54.1667 L1442.29 54.1667 L1442.29 48.3739 L1447.76 48.3739 L1447.76 35.492 L1455.25 35.492 Z" fill="#000000" fill-rule="nonzero" fill-opacity="1" /><path clip-path="url(#clip690)" d="M1480.41 48.3739 L1487.86 48.3739 L1487.86 93.744 L1480.41 93.744 L1480.41 48.3739 M1480.41 30.7119 L1487.86 30.7119 L1487.86 40.1505 L1480.41 40.1505 L1480.41 30.7119 Z" fill="#000000" fill-rule="nonzero" fill-opacity="1" /><path clip-path="url(#clip690)" d="M1536.11 50.1158 L1536.11 57.0833 Q1532.95 55.3414 1529.75 54.4907 Q1526.59 53.5995 1523.35 53.5995 Q1516.1 53.5995 1512.09 58.2176 Q1508.08 62.7951 1508.08 71.0994 Q1508.08 79.4038 1512.09 84.0218 Q1516.1 88.5994 1523.35 88.5994 Q1526.59 88.5994 1529.75 87.7487 Q1532.95 86.8575 1536.11 85.1156 L1536.11 92.0021 Q1532.99 93.4604 1529.63 94.1896 Q1526.31 94.9188 1522.54 94.9188 Q1512.29 94.9188 1506.25 88.4778 Q1500.22 82.0369 1500.22 71.0994 Q1500.22 60 1506.3 53.64 Q1512.41 47.2801 1523.03 47.2801 Q1526.47 47.2801 1529.75 48.0093 Q1533.03 48.6979 1536.11 50.1158 Z" fill="#000000" fill-rule="nonzero" fill-opacity="1" /><path clip-path="url(#clip690)" d="M1569.69 70.9374 Q1560.66 70.9374 1557.17 73.0034 Q1553.69 75.0693 1553.69 80.0519 Q1553.69 84.0218 1556.28 86.3714 Q1558.92 88.6804 1563.41 88.6804 Q1569.61 88.6804 1573.34 84.3054 Q1577.11 79.8899 1577.11 72.5983 L1577.11 70.9374 L1569.69 70.9374 M1584.56 67.8587 L1584.56 93.744 L1577.11 93.744 L1577.11 86.8575 Q1574.55 90.9894 1570.75 92.9743 Q1566.94 94.9188 1561.43 94.9188 Q1554.46 94.9188 1550.33 91.0299 Q1546.24 87.1005 1546.24 80.5381 Q1546.24 72.8818 1551.34 68.993 Q1556.49 65.1041 1566.65 65.1041 L1577.11 65.1041 L1577.11 64.3749 Q1577.11 59.2303 1573.7 56.4352 Q1570.34 53.5995 1564.22 53.5995 Q1560.33 53.5995 1556.65 54.5312 Q1552.96 55.463 1549.56 57.3264 L1549.56 50.4398 Q1553.65 48.86 1557.5 48.0903 Q1561.35 47.2801 1564.99 47.2801 Q1574.84 47.2801 1579.7 52.3843 Q1584.56 57.4884 1584.56 67.8587 Z" fill="#000000" fill-rule="nonzero" fill-opacity="1" /><path clip-path="url(#clip690)" d="M1599.91 30.7119 L1607.37 30.7119 L1607.37 93.744 L1599.91 93.744 L1599.91 30.7119 Z" fill="#000000" fill-rule="nonzero" fill-opacity="1" /><path clip-path="url(#clip690)" d="M1669.95 70.9374 Q1660.92 70.9374 1657.43 73.0034 Q1653.95 75.0693 1653.95 80.0519 Q1653.95 84.0218 1656.54 86.3714 Q1659.18 88.6804 1663.67 88.6804 Q1669.87 88.6804 1673.6 84.3054 Q1677.37 79.8899 1677.37 72.5983 L1677.37 70.9374 L1669.95 70.9374 M1684.82 67.8587 L1684.82 93.744 L1677.37 93.744 L1677.37 86.8575 Q1674.81 90.9894 1671.01 92.9743 Q1667.2 94.9188 1661.69 94.9188 Q1654.72 94.9188 1650.59 91.0299 Q1646.5 87.1005 1646.5 80.5381 Q1646.5 72.8818 1651.6 68.993 Q1656.75 65.1041 1666.91 65.1041 L1677.37 65.1041 L1677.37 64.3749 Q1677.37 59.2303 1673.96 56.4352 Q1670.6 53.5995 1664.48 53.5995 Q1660.59 53.5995 1656.91 54.5312 Q1653.22 55.463 1649.82 57.3264 L1649.82 50.4398 Q1653.91 48.86 1657.76 48.0903 Q1661.61 47.2801 1665.25 47.2801 Q1675.1 47.2801 1679.96 52.3843 Q1684.82 57.4884 1684.82 67.8587 Z" fill="#000000" fill-rule="nonzero" fill-opacity="1" /><path clip-path="url(#clip690)" d="M1737.89 66.3599 L1737.89 93.744 L1730.43 93.744 L1730.43 66.6029 Q1730.43 60.162 1727.92 56.9618 Q1725.41 53.7616 1720.39 53.7616 Q1714.35 53.7616 1710.87 57.6099 Q1707.38 61.4583 1707.38 68.1018 L1707.38 93.744 L1699.89 93.744 L1699.89 48.3739 L1707.38 48.3739 L1707.38 55.4224 Q1710.06 51.331 1713.66 49.3056 Q1717.31 47.2801 1722.05 47.2801 Q1729.86 47.2801 1733.88 52.1412 Q1737.89 56.9618 1737.89 66.3599 Z" fill="#000000" fill-rule="nonzero" fill-opacity="1" /><path clip-path="url(#clip690)" d="M1782.61 55.2604 L1782.61 30.7119 L1790.06 30.7119 L1790.06 93.744 L1782.61 93.744 L1782.61 86.9385 Q1780.26 90.9894 1776.65 92.9743 Q1773.09 94.9188 1768.06 94.9188 Q1759.84 94.9188 1754.66 88.3563 Q1749.51 81.7938 1749.51 71.0994 Q1749.51 60.4051 1754.66 53.8426 Q1759.84 47.2801 1768.06 47.2801 Q1773.09 47.2801 1776.65 49.2651 Q1780.26 51.2095 1782.61 55.2604 M1757.21 71.0994 Q1757.21 79.3228 1760.57 84.0218 Q1763.97 88.6804 1769.89 88.6804 Q1775.8 88.6804 1779.2 84.0218 Q1782.61 79.3228 1782.61 71.0994 Q1782.61 62.8761 1779.2 58.2176 Q1775.8 53.5185 1769.89 53.5185 Q1763.97 53.5185 1760.57 58.2176 Q1757.21 62.8761 1757.21 71.0994 Z" fill="#000000" fill-rule="nonzero" fill-opacity="1" /><path clip-path="url(#clip690)" d="M1864.44 50.1158 L1864.44 57.0833 Q1861.28 55.3414 1858.08 54.4907 Q1854.92 53.5995 1851.68 53.5995 Q1844.42 53.5995 1840.41 58.2176 Q1836.4 62.7951 1836.4 71.0994 Q1836.4 79.4038 1840.41 84.0218 Q1844.42 88.5994 1851.68 88.5994 Q1854.92 88.5994 1858.08 87.7487 Q1861.28 86.8575 1864.44 85.1156 L1864.44 92.0021 Q1861.32 93.4604 1857.95 94.1896 Q1854.63 94.9188 1850.87 94.9188 Q1840.62 94.9188 1834.58 88.4778 Q1828.54 82.0369 1828.54 71.0994 Q1828.54 60 1834.62 53.64 Q1840.74 47.2801 1851.35 47.2801 Q1854.79 47.2801 1858.08 48.0093 Q1861.36 48.6979 1864.44 50.1158 Z" fill="#000000" fill-rule="nonzero" fill-opacity="1" /><path clip-path="url(#clip690)" d="M1894.98 53.5995 Q1888.98 53.5995 1885.5 58.2986 Q1882.02 62.9571 1882.02 71.0994 Q1882.02 79.2418 1885.46 83.9408 Q1888.94 88.5994 1894.98 88.5994 Q1900.93 88.5994 1904.42 83.9003 Q1907.9 79.2013 1907.9 71.0994 Q1907.9 63.0381 1904.42 58.3391 Q1900.93 53.5995 1894.98 53.5995 M1894.98 47.2801 Q1904.7 47.2801 1910.25 53.5995 Q1915.8 59.9189 1915.8 71.0994 Q1915.8 82.2394 1910.25 88.5994 Q1904.7 94.9188 1894.98 94.9188 Q1885.22 94.9188 1879.67 88.5994 Q1874.16 82.2394 1874.16 71.0994 Q1874.16 59.9189 1879.67 53.5995 Q1885.22 47.2801 1894.98 47.2801 Z" fill="#000000" fill-rule="nonzero" fill-opacity="1" /><path clip-path="url(#clip690)" d="M1963.48 57.0833 Q1966.28 52.0602 1970.16 49.6702 Q1974.05 47.2801 1979.32 47.2801 Q1986.41 47.2801 1990.26 52.2627 Q1994.11 57.2048 1994.11 66.3599 L1994.11 93.744 L1986.61 93.744 L1986.61 66.6029 Q1986.61 60.081 1984.3 56.9213 Q1981.99 53.7616 1977.25 53.7616 Q1971.46 53.7616 1968.1 57.6099 Q1964.74 61.4583 1964.74 68.1018 L1964.74 93.744 L1957.24 93.744 L1957.24 66.6029 Q1957.24 60.0405 1954.93 56.9213 Q1952.62 53.7616 1947.8 53.7616 Q1942.09 53.7616 1938.73 57.6504 Q1935.37 61.4988 1935.37 68.1018 L1935.37 93.744 L1927.87 93.744 L1927.87 48.3739 L1935.37 48.3739 L1935.37 55.4224 Q1937.92 51.25 1941.48 49.2651 Q1945.05 47.2801 1949.95 47.2801 Q1954.89 47.2801 1958.34 49.7917 Q1961.82 52.3032 1963.48 57.0833 Z" fill="#000000" fill-rule="nonzero" fill-opacity="1" /><path clip-path="url(#clip690)" d="M2016.18 86.9385 L2016.18 111.001 L2008.69 111.001 L2008.69 48.3739 L2016.18 48.3739 L2016.18 55.2604 Q2018.53 51.2095 2022.1 49.2651 Q2025.7 47.2801 2030.68 47.2801 Q2038.95 47.2801 2044.09 53.8426 Q2049.28 60.4051 2049.28 71.0994 Q2049.28 81.7938 2044.09 88.3563 Q2038.95 94.9188 2030.68 94.9188 Q2025.7 94.9188 2022.1 92.9743 Q2018.53 90.9894 2016.18 86.9385 M2041.54 71.0994 Q2041.54 62.8761 2038.14 58.2176 Q2034.78 53.5185 2028.86 53.5185 Q2022.95 53.5185 2019.55 58.2176 Q2016.18 62.8761 2016.18 71.0994 Q2016.18 79.3228 2019.55 84.0218 Q2022.95 88.6804 2028.86 88.6804 Q2034.78 88.6804 2038.14 84.0218 Q2041.54 79.3228 2041.54 71.0994 Z" fill="#000000" fill-rule="nonzero" fill-opacity="1" /><path clip-path="url(#clip690)" d="M2060.86 75.839 L2060.86 48.3739 L2068.32 48.3739 L2068.32 75.5554 Q2068.32 81.9964 2070.83 85.2371 Q2073.34 88.4373 2078.36 88.4373 Q2084.4 88.4373 2087.88 84.589 Q2091.41 80.7406 2091.41 74.0971 L2091.41 48.3739 L2098.86 48.3739 L2098.86 93.744 L2091.41 93.744 L2091.41 86.7764 Q2088.69 90.9084 2085.09 92.9338 Q2081.52 94.9188 2076.78 94.9188 Q2068.97 94.9188 2064.92 90.0577 Q2060.86 85.1966 2060.86 75.839 M2079.62 47.2801 L2079.62 47.2801 Z" fill="#000000" fill-rule="nonzero" fill-opacity="1" /><path clip-path="url(#clip690)" d="M2121.59 35.492 L2121.59 48.3739 L2136.94 48.3739 L2136.94 54.1667 L2121.59 54.1667 L2121.59 78.7962 Q2121.59 84.3459 2123.09 85.9258 Q2124.63 87.5056 2129.28 87.5056 L2136.94 87.5056 L2136.94 93.744 L2129.28 93.744 Q2120.66 93.744 2117.37 90.5438 Q2114.09 87.3031 2114.09 78.7962 L2114.09 54.1667 L2108.62 54.1667 L2108.62 48.3739 L2114.09 48.3739 L2114.09 35.492 L2121.59 35.492 Z" fill="#000000" fill-rule="nonzero" fill-opacity="1" /><path clip-path="url(#clip690)" d="M2185.55 69.1955 L2185.55 72.8413 L2151.28 72.8413 Q2151.77 80.5381 2155.9 84.589 Q2160.07 88.5994 2167.48 88.5994 Q2171.78 88.5994 2175.79 87.5461 Q2179.84 86.4929 2183.81 84.3864 L2183.81 91.435 Q2179.8 93.1364 2175.59 94.0276 Q2171.37 94.9188 2167.04 94.9188 Q2156.18 94.9188 2149.82 88.5994 Q2143.5 82.2799 2143.5 71.5045 Q2143.5 60.3645 2149.5 53.8426 Q2155.53 47.2801 2165.74 47.2801 Q2174.9 47.2801 2180.2 53.1944 Q2185.55 59.0683 2185.55 69.1955 M2178.1 67.008 Q2178.02 60.8912 2174.65 57.2454 Q2171.33 53.5995 2165.82 53.5995 Q2159.58 53.5995 2155.82 57.1238 Q2152.09 60.6481 2151.52 67.0485 L2178.1 67.008 Z" fill="#000000" fill-rule="nonzero" fill-opacity="1" /><path clip-path="url(#clip690)" d="M2227.64 55.2604 L2227.64 30.7119 L2235.09 30.7119 L2235.09 93.744 L2227.64 93.744 L2227.64 86.9385 Q2225.29 90.9894 2221.69 92.9743 Q2218.12 94.9188 2213.1 94.9188 Q2204.87 94.9188 2199.69 88.3563 Q2194.54 81.7938 2194.54 71.0994 Q2194.54 60.4051 2199.69 53.8426 Q2204.87 47.2801 2213.1 47.2801 Q2218.12 47.2801 2221.69 49.2651 Q2225.29 51.2095 2227.64 55.2604 M2202.24 71.0994 Q2202.24 79.3228 2205.6 84.0218 Q2209.01 88.6804 2214.92 88.6804 Q2220.83 88.6804 2224.24 84.0218 Q2227.64 79.3228 2227.64 71.0994 Q2227.64 62.8761 2224.24 58.2176 Q2220.83 53.5185 2214.92 53.5185 Q2209.01 53.5185 2205.6 58.2176 Q2202.24 62.8761 2202.24 71.0994 Z" fill="#000000" fill-rule="nonzero" fill-opacity="1" /><path clip-path="url(#clip690)" d="M645.154 140.431 L645.154 147.479 Q641.995 145.859 638.592 145.049 Q635.189 144.239 631.543 144.239 Q625.993 144.239 623.198 145.94 Q620.444 147.641 620.444 151.044 Q620.444 153.637 622.429 155.135 Q624.414 156.594 630.409 157.931 L632.961 158.498 Q640.901 160.199 644.223 163.318 Q647.585 166.397 647.585 171.947 Q647.585 178.266 642.562 181.952 Q637.579 185.639 628.829 185.639 Q625.183 185.639 621.213 184.91 Q617.284 184.221 612.909 182.803 L612.909 175.106 Q617.041 177.253 621.051 178.347 Q625.062 179.4 628.991 179.4 Q634.257 179.4 637.093 177.618 Q639.929 175.795 639.929 172.514 Q639.929 169.476 637.863 167.855 Q635.837 166.235 628.91 164.736 L626.318 164.128 Q619.39 162.67 616.312 159.672 Q613.233 156.634 613.233 151.368 Q613.233 144.968 617.77 141.484 Q622.307 138 630.652 138 Q634.784 138 638.43 138.608 Q642.076 139.215 645.154 140.431 Z" fill="#000000" fill-rule="nonzero" fill-opacity="1" /><path clip-path="url(#clip690)" d="M677.035 144.32 Q671.039 144.32 667.556 149.019 Q664.072 153.677 664.072 161.819 Q664.072 169.962 667.515 174.661 Q670.999 179.319 677.035 179.319 Q682.99 179.319 686.473 174.62 Q689.957 169.921 689.957 161.819 Q689.957 153.758 686.473 149.059 Q682.99 144.32 677.035 144.32 M677.035 138 Q686.757 138 692.307 144.32 Q697.856 150.639 697.856 161.819 Q697.856 172.959 692.307 179.319 Q686.757 185.639 677.035 185.639 Q667.272 185.639 661.722 179.319 Q656.213 172.959 656.213 161.819 Q656.213 150.639 661.722 144.32 Q667.272 138 677.035 138 Z" fill="#000000" fill-rule="nonzero" fill-opacity="1" /><path clip-path="url(#clip690)" d="M710.212 121.432 L717.665 121.432 L717.665 184.464 L710.212 184.464 L710.212 121.432 Z" fill="#000000" fill-rule="nonzero" fill-opacity="1" /><path clip-path="url(#clip690)" d="M732.492 166.559 L732.492 139.094 L739.945 139.094 L739.945 166.275 Q739.945 172.716 742.457 175.957 Q744.969 179.157 749.992 179.157 Q756.027 179.157 759.511 175.309 Q763.036 171.461 763.036 164.817 L763.036 139.094 L770.489 139.094 L770.489 184.464 L763.036 184.464 L763.036 177.496 Q760.321 181.628 756.716 183.654 Q753.151 185.639 748.412 185.639 Q740.594 185.639 736.543 180.778 Q732.492 175.917 732.492 166.559 M751.247 138 L751.247 138 Z" fill="#000000" fill-rule="nonzero" fill-opacity="1" /><path clip-path="url(#clip690)" d="M793.215 126.212 L793.215 139.094 L808.568 139.094 L808.568 144.887 L793.215 144.887 L793.215 169.516 Q793.215 175.066 794.714 176.646 Q796.253 178.226 800.911 178.226 L808.568 178.226 L808.568 184.464 L800.911 184.464 Q792.283 184.464 789.002 181.264 Q785.721 178.023 785.721 169.516 L785.721 144.887 L780.252 144.887 L780.252 139.094 L785.721 139.094 L785.721 126.212 L793.215 126.212 Z" fill="#000000" fill-rule="nonzero" fill-opacity="1" /><path clip-path="url(#clip690)" d="M818.371 139.094 L825.825 139.094 L825.825 184.464 L818.371 184.464 L818.371 139.094 M818.371 121.432 L825.825 121.432 L825.825 130.871 L818.371 130.871 L818.371 121.432 Z" fill="#000000" fill-rule="nonzero" fill-opacity="1" /><path clip-path="url(#clip690)" d="M859.001 144.32 Q853.006 144.32 849.522 149.019 Q846.039 153.677 846.039 161.819 Q846.039 169.962 849.482 174.661 Q852.966 179.319 859.001 179.319 Q864.956 179.319 868.44 174.62 Q871.924 169.921 871.924 161.819 Q871.924 153.758 868.44 149.059 Q864.956 144.32 859.001 144.32 M859.001 138 Q868.724 138 874.273 144.32 Q879.823 150.639 879.823 161.819 Q879.823 172.959 874.273 179.319 Q868.724 185.639 859.001 185.639 Q849.239 185.639 843.689 179.319 Q838.18 172.959 838.18 161.819 Q838.18 150.639 843.689 144.32 Q849.239 138 859.001 138 Z" fill="#000000" fill-rule="nonzero" fill-opacity="1" /><path clip-path="url(#clip690)" d="M929.892 157.08 L929.892 184.464 L922.439 184.464 L922.439 157.323 Q922.439 150.882 919.927 147.682 Q917.415 144.482 912.392 144.482 Q906.357 144.482 902.873 148.33 Q899.389 152.178 899.389 158.822 L899.389 184.464 L891.895 184.464 L891.895 139.094 L899.389 139.094 L899.389 146.142 Q902.063 142.051 905.668 140.026 Q909.314 138 914.053 138 Q921.871 138 925.882 142.861 Q929.892 147.682 929.892 157.08 Z" fill="#000000" fill-rule="nonzero" fill-opacity="1" /><path clip-path="url(#clip690)" d="M973.683 140.431 L973.683 147.479 Q970.523 145.859 967.12 145.049 Q963.717 144.239 960.072 144.239 Q954.522 144.239 951.727 145.94 Q948.972 147.641 948.972 151.044 Q948.972 153.637 950.957 155.135 Q952.942 156.594 958.937 157.931 L961.489 158.498 Q969.429 160.199 972.751 163.318 Q976.113 166.397 976.113 171.947 Q976.113 178.266 971.09 181.952 Q966.107 185.639 957.357 185.639 Q953.712 185.639 949.742 184.91 Q945.812 184.221 941.437 182.803 L941.437 175.106 Q945.569 177.253 949.58 178.347 Q953.59 179.4 957.519 179.4 Q962.786 179.4 965.621 177.618 Q968.457 175.795 968.457 172.514 Q968.457 169.476 966.391 167.855 Q964.365 166.235 957.438 164.736 L954.846 164.128 Q947.919 162.67 944.84 159.672 Q941.761 156.634 941.761 151.368 Q941.761 144.968 946.298 141.484 Q950.835 138 959.18 138 Q963.312 138 966.958 138.608 Q970.604 139.215 973.683 140.431 Z" fill="#000000" fill-rule="nonzero" fill-opacity="1" /><path clip-path="url(#clip690)" d="M1010.02 139.094 L1017.47 139.094 L1026.79 174.499 L1036.07 139.094 L1044.86 139.094 L1054.17 174.499 L1063.45 139.094 L1070.9 139.094 L1059.04 184.464 L1050.24 184.464 L1040.48 147.277 L1030.68 184.464 L1021.89 184.464 L1010.02 139.094 Z" fill="#000000" fill-rule="nonzero" fill-opacity="1" /><path clip-path="url(#clip690)" d="M1082.21 139.094 L1089.66 139.094 L1089.66 184.464 L1082.21 184.464 L1082.21 139.094 M1082.21 121.432 L1089.66 121.432 L1089.66 130.871 L1082.21 130.871 L1082.21 121.432 Z" fill="#000000" fill-rule="nonzero" fill-opacity="1" /><path clip-path="url(#clip690)" d="M1112.63 126.212 L1112.63 139.094 L1127.98 139.094 L1127.98 144.887 L1112.63 144.887 L1112.63 169.516 Q1112.63 175.066 1114.13 176.646 Q1115.67 178.226 1120.33 178.226 L1127.98 178.226 L1127.98 184.464 L1120.33 184.464 Q1111.7 184.464 1108.42 181.264 Q1105.13 178.023 1105.13 169.516 L1105.13 144.887 L1099.67 144.887 L1099.67 139.094 L1105.13 139.094 L1105.13 126.212 L1112.63 126.212 Z" fill="#000000" fill-rule="nonzero" fill-opacity="1" /><path clip-path="url(#clip690)" d="M1175.5 157.08 L1175.5 184.464 L1168.04 184.464 L1168.04 157.323 Q1168.04 150.882 1165.53 147.682 Q1163.02 144.482 1158 144.482 Q1151.96 144.482 1148.48 148.33 Q1145 152.178 1145 158.822 L1145 184.464 L1137.5 184.464 L1137.5 121.432 L1145 121.432 L1145 146.142 Q1147.67 142.051 1151.27 140.026 Q1154.92 138 1159.66 138 Q1167.48 138 1171.49 142.861 Q1175.5 147.682 1175.5 157.08 Z" fill="#000000" fill-rule="nonzero" fill-opacity="1" /><path clip-path="url(#clip690)" d="M1211.39 139.094 L1219.29 139.094 L1233.47 177.172 L1247.65 139.094 L1255.54 139.094 L1238.53 184.464 L1228.4 184.464 L1211.39 139.094 Z" fill="#000000" fill-rule="nonzero" fill-opacity="1" /><path clip-path="url(#clip690)" d="M1286.45 161.657 Q1277.42 161.657 1273.94 163.723 Q1270.45 165.789 1270.45 170.772 Q1270.45 174.742 1273.04 177.091 Q1275.68 179.4 1280.17 179.4 Q1286.37 179.4 1290.1 175.025 Q1293.87 170.61 1293.87 163.318 L1293.87 161.657 L1286.45 161.657 M1301.32 158.579 L1301.32 184.464 L1293.87 184.464 L1293.87 177.577 Q1291.31 181.709 1287.51 183.694 Q1283.7 185.639 1278.19 185.639 Q1271.22 185.639 1267.09 181.75 Q1263 177.821 1263 171.258 Q1263 163.602 1268.1 159.713 Q1273.25 155.824 1283.41 155.824 L1293.87 155.824 L1293.87 155.095 Q1293.87 149.95 1290.46 147.155 Q1287.1 144.32 1280.98 144.32 Q1277.1 144.32 1273.41 145.251 Q1269.72 146.183 1266.32 148.046 L1266.32 141.16 Q1270.41 139.58 1274.26 138.81 Q1278.11 138 1281.75 138 Q1291.6 138 1296.46 143.104 Q1301.32 148.208 1301.32 158.579 Z" fill="#000000" fill-rule="nonzero" fill-opacity="1" /><path clip-path="url(#clip690)" d="M1342.96 146.061 Q1341.71 145.332 1340.21 145.008 Q1338.75 144.644 1336.97 144.644 Q1330.65 144.644 1327.25 148.776 Q1323.88 152.867 1323.88 160.564 L1323.88 184.464 L1316.39 184.464 L1316.39 139.094 L1323.88 139.094 L1323.88 146.142 Q1326.23 142.011 1330 140.026 Q1333.77 138 1339.16 138 Q1339.92 138 1340.86 138.122 Q1341.79 138.203 1342.92 138.405 L1342.96 146.061 Z" fill="#000000" fill-rule="nonzero" fill-opacity="1" /><path clip-path="url(#clip690)" d="M1369.66 188.677 Q1366.5 196.779 1363.5 199.25 Q1360.5 201.721 1355.48 201.721 L1349.53 201.721 L1349.53 195.482 L1353.9 195.482 Q1356.98 195.482 1358.68 194.024 Q1360.38 192.566 1362.45 187.138 L1363.78 183.735 L1345.43 139.094 L1353.33 139.094 L1367.51 174.58 L1381.69 139.094 L1389.59 139.094 L1369.66 188.677 Z" fill="#000000" fill-rule="nonzero" fill-opacity="1" /><path clip-path="url(#clip690)" d="M1399.88 139.094 L1407.33 139.094 L1407.33 184.464 L1399.88 184.464 L1399.88 139.094 M1399.88 121.432 L1407.33 121.432 L1407.33 130.871 L1399.88 130.871 L1399.88 121.432 Z" fill="#000000" fill-rule="nonzero" fill-opacity="1" /><path clip-path="url(#clip690)" d="M1460.64 157.08 L1460.64 184.464 L1453.19 184.464 L1453.19 157.323 Q1453.19 150.882 1450.68 147.682 Q1448.16 144.482 1443.14 144.482 Q1437.11 144.482 1433.62 148.33 Q1430.14 152.178 1430.14 158.822 L1430.14 184.464 L1422.64 184.464 L1422.64 139.094 L1430.14 139.094 L1430.14 146.142 Q1432.81 142.051 1436.42 140.026 Q1440.06 138 1444.8 138 Q1452.62 138 1456.63 142.861 Q1460.64 147.682 1460.64 157.08 Z" fill="#000000" fill-rule="nonzero" fill-opacity="1" /><path clip-path="url(#clip690)" d="M1505.36 161.252 Q1505.36 153.151 1502 148.695 Q1498.68 144.239 1492.64 144.239 Q1486.65 144.239 1483.29 148.695 Q1479.96 153.151 1479.96 161.252 Q1479.96 169.314 1483.29 173.77 Q1486.65 178.226 1492.64 178.226 Q1498.68 178.226 1502 173.77 Q1505.36 169.314 1505.36 161.252 M1512.82 178.833 Q1512.82 190.419 1507.67 196.05 Q1502.53 201.721 1491.91 201.721 Q1487.99 201.721 1484.5 201.113 Q1481.02 200.546 1477.74 199.331 L1477.74 192.08 Q1481.02 193.862 1484.22 194.713 Q1487.42 195.563 1490.74 195.563 Q1498.07 195.563 1501.72 191.715 Q1505.36 187.907 1505.36 180.17 L1505.36 176.484 Q1503.05 180.494 1499.45 182.479 Q1495.84 184.464 1490.82 184.464 Q1482.48 184.464 1477.37 178.104 Q1472.27 171.744 1472.27 161.252 Q1472.27 150.72 1477.37 144.36 Q1482.48 138 1490.82 138 Q1495.84 138 1499.45 139.985 Q1503.05 141.97 1505.36 145.98 L1505.36 139.094 L1512.82 139.094 L1512.82 178.833 Z" fill="#000000" fill-rule="nonzero" fill-opacity="1" /><path clip-path="url(#clip690)" d="M1554.87 123.984 L1565.88 123.984 L1592.7 174.58 L1592.7 123.984 L1600.64 123.984 L1600.64 184.464 L1589.62 184.464 L1562.81 133.868 L1562.81 184.464 L1554.87 184.464 L1554.87 123.984 Z" fill="#000000" fill-rule="nonzero" fill-opacity="1" /><path clip-path="url(#clip690)" d="M1618.51 174.175 L1627.05 174.175 L1627.05 181.142 L1620.41 194.105 L1615.18 194.105 L1618.51 181.142 L1618.51 174.175 Z" fill="#000000" fill-rule="nonzero" fill-opacity="1" /><path clip-path="url(#clip690)" d="M1669.34 139.094 L1676.8 139.094 L1676.8 184.464 L1669.34 184.464 L1669.34 139.094 M1669.34 121.432 L1676.8 121.432 L1676.8 130.871 L1669.34 130.871 L1669.34 121.432 Z" fill="#000000" fill-rule="nonzero" fill-opacity="1" /><path clip-path="url(#clip690)" d="M1693.37 146.791 L1745.3 146.791 L1745.3 153.596 L1693.37 153.596 L1693.37 146.791 M1693.37 163.318 L1745.3 163.318 L1745.3 170.205 L1693.37 170.205 L1693.37 163.318 Z" fill="#000000" fill-rule="nonzero" fill-opacity="1" /><path clip-path="url(#clip690)" d="M1764.38 177.577 L1777.75 177.577 L1777.75 131.438 L1763.2 134.354 L1763.2 126.901 L1777.67 123.984 L1785.85 123.984 L1785.85 177.577 L1799.22 177.577 L1799.22 184.464 L1764.38 184.464 L1764.38 177.577 Z" fill="#000000" fill-rule="nonzero" fill-opacity="1" /><path clip-path="url(#clip690)" d="M1833.24 129.372 Q1826.92 129.372 1823.72 135.61 Q1820.56 141.808 1820.56 154.285 Q1820.56 166.721 1823.72 172.959 Q1826.92 179.157 1833.24 179.157 Q1839.6 179.157 1842.76 172.959 Q1845.96 166.721 1845.96 154.285 Q1845.96 141.808 1842.76 135.61 Q1839.6 129.372 1833.24 129.372 M1833.24 122.89 Q1843.41 122.89 1848.76 130.952 Q1854.15 138.972 1854.15 154.285 Q1854.15 169.557 1848.76 177.618 Q1843.41 185.639 1833.24 185.639 Q1823.08 185.639 1817.69 177.618 Q1812.34 169.557 1812.34 154.285 Q1812.34 138.972 1817.69 130.952 Q1823.08 122.89 1833.24 122.89 Z" fill="#000000" fill-rule="nonzero" fill-opacity="1" /><path clip-path="url(#clip690)" d="M1886.03 129.372 Q1879.71 129.372 1876.51 135.61 Q1873.35 141.808 1873.35 154.285 Q1873.35 166.721 1876.51 172.959 Q1879.71 179.157 1886.03 179.157 Q1892.39 179.157 1895.55 172.959 Q1898.75 166.721 1898.75 154.285 Q1898.75 141.808 1895.55 135.61 Q1892.39 129.372 1886.03 129.372 M1886.03 122.89 Q1896.19 122.89 1901.54 130.952 Q1906.93 138.972 1906.93 154.285 Q1906.93 169.557 1901.54 177.618 Q1896.19 185.639 1886.03 185.639 Q1875.86 185.639 1870.47 177.618 Q1865.12 169.557 1865.12 154.285 Q1865.12 138.972 1870.47 130.952 Q1875.86 122.89 1886.03 122.89 Z" fill="#000000" fill-rule="nonzero" fill-opacity="1" /><path clip-path="url(#clip690)" d="M1938.81 129.372 Q1932.49 129.372 1929.29 135.61 Q1926.13 141.808 1926.13 154.285 Q1926.13 166.721 1929.29 172.959 Q1932.49 179.157 1938.81 179.157 Q1945.17 179.157 1948.33 172.959 Q1951.53 166.721 1951.53 154.285 Q1951.53 141.808 1948.33 135.61 Q1945.17 129.372 1938.81 129.372 M1938.81 122.89 Q1948.98 122.89 1954.33 130.952 Q1959.71 138.972 1959.71 154.285 Q1959.71 169.557 1954.33 177.618 Q1948.98 185.639 1938.81 185.639 Q1928.64 185.639 1923.26 177.618 Q1917.91 169.557 1917.91 154.285 Q1917.91 138.972 1923.26 130.952 Q1928.64 122.89 1938.81 122.89 Z" fill="#000000" fill-rule="nonzero" fill-opacity="1" /><polyline clip-path="url(#clip692)" style="stroke:#009af9; stroke-linecap:round; stroke-linejoin:round; stroke-width:4; stroke-opacity:1; fill:none" points="280.231,636.669 727.378,1026.36 1174.52,1026.36 1621.67,219.025 2292.39,1388.11 "/>
</svg>
