<?xml version="1.0" encoding="utf-8"?>
<svg xmlns="http://www.w3.org/2000/svg" xmlns:xlink="http://www.w3.org/1999/xlink" width="600" height="400" viewBox="0 0 2400 1600">
<defs>
  <clipPath id="clip950">
    <rect x="0" y="0" width="2400" height="1600"/>
  </clipPath>
</defs>
<path clip-path="url(#clip950)" d="M0 1600 L2400 1600 L2400 0 L0 0  Z" fill="#ffffff" fill-rule="evenodd" fill-opacity="1"/>
<defs>
  <clipPath id="clip951">
    <rect x="480" y="0" width="1681" height="1600"/>
  </clipPath>
</defs>
<path clip-path="url(#clip950)" d="M219.38 1423.18 L2352.76 1423.18 L2352.76 183.952 L219.38 183.952  Z" fill="#ffffff" fill-rule="evenodd" fill-opacity="1"/>
<defs>
  <clipPath id="clip952">
    <rect x="219" y="183" width="2134" height="1240"/>
  </clipPath>
</defs>
<polyline clip-path="url(#clip952)" style="stroke:#000000; stroke-linecap:round; stroke-linejoin:round; stroke-width:2; stroke-opacity:0.1; fill:none" points="259.429,1423.18 259.429,183.952 "/>
<polyline clip-path="url(#clip952)" style="stroke:#000000; stroke-linecap:round; stroke-linejoin:round; stroke-width:2; stroke-opacity:0.1; fill:none" points="767.666,1423.18 767.666,183.952 "/>
<polyline clip-path="url(#clip952)" style="stroke:#000000; stroke-linecap:round; stroke-linejoin:round; stroke-width:2; stroke-opacity:0.1; fill:none" points="1275.9,1423.18 1275.9,183.952 "/>
<polyline clip-path="url(#clip952)" style="stroke:#000000; stroke-linecap:round; stroke-linejoin:round; stroke-width:2; stroke-opacity:0.1; fill:none" points="1784.14,1423.18 1784.14,183.952 "/>
<polyline clip-path="url(#clip952)" style="stroke:#000000; stroke-linecap:round; stroke-linejoin:round; stroke-width:2; stroke-opacity:0.1; fill:none" points="2292.38,1423.18 2292.38,183.952 "/>
<polyline clip-path="url(#clip950)" style="stroke:#000000; stroke-linecap:round; stroke-linejoin:round; stroke-width:4; stroke-opacity:1; fill:none" points="219.38,1423.18 2352.76,1423.18 "/>
<polyline clip-path="url(#clip950)" style="stroke:#000000; stroke-linecap:round; stroke-linejoin:round; stroke-width:4; stroke-opacity:1; fill:none" points="259.429,1423.18 259.429,1404.28 "/>
<polyline clip-path="url(#clip950)" style="stroke:#000000; stroke-linecap:round; stroke-linejoin:round; stroke-width:4; stroke-opacity:1; fill:none" points="767.666,1423.18 767.666,1404.28 "/>
<polyline clip-path="url(#clip950)" style="stroke:#000000; stroke-linecap:round; stroke-linejoin:round; stroke-width:4; stroke-opacity:1; fill:none" points="1275.9,1423.18 1275.9,1404.28 "/>
<polyline clip-path="url(#clip950)" style="stroke:#000000; stroke-linecap:round; stroke-linejoin:round; stroke-width:4; stroke-opacity:1; fill:none" points="1784.14,1423.18 1784.14,1404.28 "/>
<polyline clip-path="url(#clip950)" style="stroke:#000000; stroke-linecap:round; stroke-linejoin:round; stroke-width:4; stroke-opacity:1; fill:none" points="2292.38,1423.18 2292.38,1404.28 "/>
<path clip-path="url(#clip950)" d="M259.429 1454.1 Q255.818 1454.1 253.989 1457.66 Q252.184 1461.2 252.184 1468.33 Q252.184 1475.44 253.989 1479.01 Q255.818 1482.55 259.429 1482.55 Q263.063 1482.55 264.869 1479.01 Q266.698 1475.44 266.698 1468.33 Q266.698 1461.2 264.869 1457.66 Q263.063 1454.1 259.429 1454.1 M259.429 1450.39 Q265.239 1450.39 268.295 1455 Q271.374 1459.58 271.374 1468.33 Q271.374 1477.06 268.295 1481.67 Q265.239 1486.25 259.429 1486.25 Q253.619 1486.25 250.54 1481.67 Q247.485 1477.06 247.485 1468.33 Q247.485 1459.58 250.54 1455 Q253.619 1450.39 259.429 1450.39 Z" fill="#000000" fill-rule="nonzero" fill-opacity="1" /><path clip-path="url(#clip950)" d="M716.278 1481.64 L732.597 1481.64 L732.597 1485.58 L710.653 1485.58 L710.653 1481.64 Q713.315 1478.89 717.898 1474.26 Q722.504 1469.61 723.685 1468.27 Q725.93 1465.74 726.81 1464.01 Q727.713 1462.25 727.713 1460.56 Q727.713 1457.8 725.768 1456.07 Q723.847 1454.33 720.745 1454.33 Q718.546 1454.33 716.092 1455.09 Q713.662 1455.86 710.884 1457.41 L710.884 1452.69 Q713.708 1451.55 716.162 1450.97 Q718.616 1450.39 720.653 1450.39 Q726.023 1450.39 729.217 1453.08 Q732.412 1455.77 732.412 1460.26 Q732.412 1462.39 731.602 1464.31 Q730.815 1466.2 728.708 1468.8 Q728.129 1469.47 725.028 1472.69 Q721.926 1475.88 716.278 1481.64 Z" fill="#000000" fill-rule="nonzero" fill-opacity="1" /><path clip-path="url(#clip950)" d="M742.458 1451.02 L760.814 1451.02 L760.814 1454.96 L746.74 1454.96 L746.74 1463.43 Q747.759 1463.08 748.777 1462.92 Q749.796 1462.73 750.815 1462.73 Q756.602 1462.73 759.981 1465.9 Q763.361 1469.08 763.361 1474.49 Q763.361 1480.07 759.889 1483.17 Q756.416 1486.25 750.097 1486.25 Q747.921 1486.25 745.652 1485.88 Q743.407 1485.51 741 1484.77 L741 1480.07 Q743.083 1481.2 745.305 1481.76 Q747.527 1482.32 750.004 1482.32 Q754.009 1482.32 756.347 1480.21 Q758.685 1478.1 758.685 1474.49 Q758.685 1470.88 756.347 1468.77 Q754.009 1466.67 750.004 1466.67 Q748.129 1466.67 746.254 1467.08 Q744.402 1467.5 742.458 1468.38 L742.458 1451.02 Z" fill="#000000" fill-rule="nonzero" fill-opacity="1" /><path clip-path="url(#clip950)" d="M782.574 1454.1 Q778.962 1454.1 777.134 1457.66 Q775.328 1461.2 775.328 1468.33 Q775.328 1475.44 777.134 1479.01 Q778.962 1482.55 782.574 1482.55 Q786.208 1482.55 788.013 1479.01 Q789.842 1475.44 789.842 1468.33 Q789.842 1461.2 788.013 1457.66 Q786.208 1454.1 782.574 1454.1 M782.574 1450.39 Q788.384 1450.39 791.439 1455 Q794.518 1459.58 794.518 1468.33 Q794.518 1477.06 791.439 1481.67 Q788.384 1486.25 782.574 1486.25 Q776.763 1486.25 773.685 1481.67 Q770.629 1477.06 770.629 1468.33 Q770.629 1459.58 773.685 1455 Q776.763 1450.39 782.574 1450.39 Z" fill="#000000" fill-rule="nonzero" fill-opacity="1" /><path clip-path="url(#clip950)" d="M812.735 1454.1 Q809.124 1454.1 807.296 1457.66 Q805.49 1461.2 805.49 1468.33 Q805.49 1475.44 807.296 1479.01 Q809.124 1482.55 812.735 1482.55 Q816.37 1482.55 818.175 1479.01 Q820.004 1475.44 820.004 1468.33 Q820.004 1461.2 818.175 1457.66 Q816.37 1454.1 812.735 1454.1 M812.735 1450.39 Q818.546 1450.39 821.601 1455 Q824.68 1459.58 824.68 1468.33 Q824.68 1477.06 821.601 1481.67 Q818.546 1486.25 812.735 1486.25 Q806.925 1486.25 803.847 1481.67 Q800.791 1477.06 800.791 1468.33 Q800.791 1459.58 803.847 1455 Q806.925 1450.39 812.735 1450.39 Z" fill="#000000" fill-rule="nonzero" fill-opacity="1" /><path clip-path="url(#clip950)" d="M1220.44 1451.02 L1238.8 1451.02 L1238.8 1454.96 L1224.72 1454.96 L1224.72 1463.43 Q1225.74 1463.08 1226.76 1462.92 Q1227.78 1462.73 1228.8 1462.73 Q1234.58 1462.73 1237.96 1465.9 Q1241.34 1469.08 1241.34 1474.49 Q1241.34 1480.07 1237.87 1483.17 Q1234.4 1486.25 1228.08 1486.25 Q1225.9 1486.25 1223.64 1485.88 Q1221.39 1485.51 1218.98 1484.77 L1218.98 1480.07 Q1221.07 1481.2 1223.29 1481.76 Q1225.51 1482.32 1227.99 1482.32 Q1231.99 1482.32 1234.33 1480.21 Q1236.67 1478.1 1236.67 1474.49 Q1236.67 1470.88 1234.33 1468.77 Q1231.99 1466.67 1227.99 1466.67 Q1226.11 1466.67 1224.24 1467.08 Q1222.39 1467.5 1220.44 1468.38 L1220.44 1451.02 Z" fill="#000000" fill-rule="nonzero" fill-opacity="1" /><path clip-path="url(#clip950)" d="M1260.56 1454.1 Q1256.95 1454.1 1255.12 1457.66 Q1253.31 1461.2 1253.31 1468.33 Q1253.31 1475.44 1255.12 1479.01 Q1256.95 1482.55 1260.56 1482.55 Q1264.19 1482.55 1266 1479.01 Q1267.82 1475.44 1267.82 1468.33 Q1267.82 1461.2 1266 1457.66 Q1264.19 1454.1 1260.56 1454.1 M1260.56 1450.39 Q1266.37 1450.39 1269.42 1455 Q1272.5 1459.58 1272.5 1468.33 Q1272.5 1477.06 1269.42 1481.67 Q1266.37 1486.25 1260.56 1486.25 Q1254.75 1486.25 1251.67 1481.67 Q1248.61 1477.06 1248.61 1468.33 Q1248.61 1459.58 1251.67 1455 Q1254.75 1450.39 1260.56 1450.39 Z" fill="#000000" fill-rule="nonzero" fill-opacity="1" /><path clip-path="url(#clip950)" d="M1290.72 1454.1 Q1287.11 1454.1 1285.28 1457.66 Q1283.47 1461.2 1283.47 1468.33 Q1283.47 1475.44 1285.28 1479.01 Q1287.11 1482.55 1290.72 1482.55 Q1294.35 1482.55 1296.16 1479.01 Q1297.99 1475.44 1297.99 1468.33 Q1297.99 1461.2 1296.16 1457.66 Q1294.35 1454.1 1290.72 1454.1 M1290.72 1450.39 Q1296.53 1450.39 1299.58 1455 Q1302.66 1459.58 1302.66 1468.33 Q1302.66 1477.06 1299.58 1481.67 Q1296.53 1486.25 1290.72 1486.25 Q1284.91 1486.25 1281.83 1481.67 Q1278.77 1477.06 1278.77 1468.33 Q1278.77 1459.58 1281.83 1455 Q1284.91 1450.39 1290.72 1450.39 Z" fill="#000000" fill-rule="nonzero" fill-opacity="1" /><path clip-path="url(#clip950)" d="M1320.88 1454.1 Q1317.27 1454.1 1315.44 1457.66 Q1313.63 1461.2 1313.63 1468.33 Q1313.63 1475.44 1315.44 1479.01 Q1317.27 1482.55 1320.88 1482.55 Q1324.51 1482.55 1326.32 1479.01 Q1328.15 1475.44 1328.15 1468.33 Q1328.15 1461.2 1326.32 1457.66 Q1324.51 1454.1 1320.88 1454.1 M1320.88 1450.39 Q1326.69 1450.39 1329.75 1455 Q1332.82 1459.58 1332.82 1468.33 Q1332.82 1477.06 1329.75 1481.67 Q1326.69 1486.25 1320.88 1486.25 Q1315.07 1486.25 1311.99 1481.67 Q1308.94 1477.06 1308.94 1468.33 Q1308.94 1459.58 1311.99 1455 Q1315.07 1450.39 1320.88 1450.39 Z" fill="#000000" fill-rule="nonzero" fill-opacity="1" /><path clip-path="url(#clip950)" d="M1727.34 1451.02 L1749.56 1451.02 L1749.56 1453.01 L1737.01 1485.58 L1732.13 1485.58 L1743.93 1454.96 L1727.34 1454.96 L1727.34 1451.02 Z" fill="#000000" fill-rule="nonzero" fill-opacity="1" /><path clip-path="url(#clip950)" d="M1758.72 1451.02 L1777.08 1451.02 L1777.08 1454.96 L1763.01 1454.96 L1763.01 1463.43 Q1764.02 1463.08 1765.04 1462.92 Q1766.06 1462.73 1767.08 1462.73 Q1772.87 1462.73 1776.25 1465.9 Q1779.63 1469.08 1779.63 1474.49 Q1779.63 1480.07 1776.15 1483.17 Q1772.68 1486.25 1766.36 1486.25 Q1764.19 1486.25 1761.92 1485.88 Q1759.67 1485.51 1757.27 1484.77 L1757.27 1480.07 Q1759.35 1481.2 1761.57 1481.76 Q1763.79 1482.32 1766.27 1482.32 Q1770.27 1482.32 1772.61 1480.21 Q1774.95 1478.1 1774.95 1474.49 Q1774.95 1470.88 1772.61 1468.77 Q1770.27 1466.67 1766.27 1466.67 Q1764.4 1466.67 1762.52 1467.08 Q1760.67 1467.5 1758.72 1468.38 L1758.72 1451.02 Z" fill="#000000" fill-rule="nonzero" fill-opacity="1" /><path clip-path="url(#clip950)" d="M1798.84 1454.1 Q1795.23 1454.1 1793.4 1457.66 Q1791.59 1461.2 1791.59 1468.33 Q1791.59 1475.44 1793.4 1479.01 Q1795.23 1482.55 1798.84 1482.55 Q1802.47 1482.55 1804.28 1479.01 Q1806.11 1475.44 1806.11 1468.33 Q1806.11 1461.2 1804.28 1457.66 Q1802.47 1454.1 1798.84 1454.1 M1798.84 1450.39 Q1804.65 1450.39 1807.71 1455 Q1810.78 1459.58 1810.78 1468.33 Q1810.78 1477.06 1807.71 1481.67 Q1804.65 1486.25 1798.84 1486.25 Q1793.03 1486.25 1789.95 1481.67 Q1786.89 1477.06 1786.89 1468.33 Q1786.89 1459.58 1789.95 1455 Q1793.03 1450.39 1798.84 1450.39 Z" fill="#000000" fill-rule="nonzero" fill-opacity="1" /><path clip-path="url(#clip950)" d="M1829 1454.1 Q1825.39 1454.1 1823.56 1457.66 Q1821.76 1461.2 1821.76 1468.33 Q1821.76 1475.44 1823.56 1479.01 Q1825.39 1482.55 1829 1482.55 Q1832.64 1482.55 1834.44 1479.01 Q1836.27 1475.44 1836.27 1468.33 Q1836.27 1461.2 1834.44 1457.66 Q1832.64 1454.1 1829 1454.1 M1829 1450.39 Q1834.81 1450.39 1837.87 1455 Q1840.95 1459.58 1840.95 1468.33 Q1840.95 1477.06 1837.87 1481.67 Q1834.81 1486.25 1829 1486.25 Q1823.19 1486.25 1820.11 1481.67 Q1817.06 1477.06 1817.06 1468.33 Q1817.06 1459.58 1820.11 1455 Q1823.19 1450.39 1829 1450.39 Z" fill="#000000" fill-rule="nonzero" fill-opacity="1" /><path clip-path="url(#clip950)" d="M2221.82 1481.64 L2229.46 1481.64 L2229.46 1455.28 L2221.15 1456.95 L2221.15 1452.69 L2229.41 1451.02 L2234.09 1451.02 L2234.09 1481.64 L2241.73 1481.64 L2241.73 1485.58 L2221.82 1485.58 L2221.82 1481.64 Z" fill="#000000" fill-rule="nonzero" fill-opacity="1" /><path clip-path="url(#clip950)" d="M2261.17 1454.1 Q2257.56 1454.1 2255.73 1457.66 Q2253.93 1461.2 2253.93 1468.33 Q2253.93 1475.44 2255.73 1479.01 Q2257.56 1482.55 2261.17 1482.55 Q2264.81 1482.55 2266.61 1479.01 Q2268.44 1475.44 2268.44 1468.33 Q2268.44 1461.2 2266.61 1457.66 Q2264.81 1454.1 2261.17 1454.1 M2261.17 1450.39 Q2266.98 1450.39 2270.04 1455 Q2273.12 1459.58 2273.12 1468.33 Q2273.12 1477.06 2270.04 1481.67 Q2266.98 1486.25 2261.17 1486.25 Q2255.36 1486.25 2252.28 1481.67 Q2249.23 1477.06 2249.23 1468.33 Q2249.23 1459.58 2252.28 1455 Q2255.36 1450.39 2261.17 1450.39 Z" fill="#000000" fill-rule="nonzero" fill-opacity="1" /><path clip-path="url(#clip950)" d="M2291.34 1454.1 Q2287.72 1454.1 2285.9 1457.66 Q2284.09 1461.2 2284.09 1468.33 Q2284.09 1475.44 2285.9 1479.01 Q2287.72 1482.55 2291.34 1482.55 Q2294.97 1482.55 2296.78 1479.01 Q2298.6 1475.44 2298.6 1468.33 Q2298.6 1461.2 2296.78 1457.66 Q2294.97 1454.1 2291.34 1454.1 M2291.34 1450.39 Q2297.15 1450.39 2300.2 1455 Q2303.28 1459.58 2303.28 1468.33 Q2303.28 1477.06 2300.2 1481.67 Q2297.15 1486.25 2291.34 1486.25 Q2285.53 1486.25 2282.45 1481.67 Q2279.39 1477.06 2279.39 1468.33 Q2279.39 1459.58 2282.45 1455 Q2285.53 1450.39 2291.34 1450.39 Z" fill="#000000" fill-rule="nonzero" fill-opacity="1" /><path clip-path="url(#clip950)" d="M2321.5 1454.1 Q2317.89 1454.1 2316.06 1457.66 Q2314.25 1461.2 2314.25 1468.33 Q2314.25 1475.44 2316.06 1479.01 Q2317.89 1482.55 2321.5 1482.55 Q2325.13 1482.55 2326.94 1479.01 Q2328.77 1475.44 2328.77 1468.33 Q2328.77 1461.2 2326.94 1457.66 Q2325.13 1454.1 2321.5 1454.1 M2321.5 1450.39 Q2327.31 1450.39 2330.36 1455 Q2333.44 1459.58 2333.44 1468.33 Q2333.44 1477.06 2330.36 1481.67 Q2327.31 1486.25 2321.5 1486.25 Q2315.69 1486.25 2312.61 1481.67 Q2309.55 1477.06 2309.55 1468.33 Q2309.55 1459.58 2312.61 1455 Q2315.69 1450.39 2321.5 1450.39 Z" fill="#000000" fill-rule="nonzero" fill-opacity="1" /><path clip-path="url(#clip950)" d="M2351.66 1454.1 Q2348.05 1454.1 2346.22 1457.66 Q2344.41 1461.2 2344.41 1468.33 Q2344.41 1475.44 2346.22 1479.01 Q2348.05 1482.55 2351.66 1482.55 Q2355.29 1482.55 2357.1 1479.01 Q2358.93 1475.44 2358.93 1468.33 Q2358.93 1461.2 2357.1 1457.66 Q2355.29 1454.1 2351.66 1454.1 M2351.66 1450.39 Q2357.47 1450.39 2360.53 1455 Q2363.6 1459.58 2363.6 1468.33 Q2363.6 1477.06 2360.53 1481.67 Q2357.47 1486.25 2351.66 1486.25 Q2345.85 1486.25 2342.77 1481.67 Q2339.72 1477.06 2339.72 1468.33 Q2339.72 1459.58 2342.77 1455 Q2345.85 1450.39 2351.66 1450.39 Z" fill="#000000" fill-rule="nonzero" fill-opacity="1" /><path clip-path="url(#clip950)" d="M744.33 1520.52 L752.988 1520.52 L774.058 1560.28 L774.058 1520.52 L780.297 1520.52 L780.297 1568.04 L771.639 1568.04 L750.569 1528.29 L750.569 1568.04 L744.33 1568.04 L744.33 1520.52 Z" fill="#000000" fill-rule="nonzero" fill-opacity="1" /><path clip-path="url(#clip950)" d="M792.232 1553.98 L792.232 1532.4 L798.089 1532.4 L798.089 1553.75 Q798.089 1558.81 800.062 1561.36 Q802.036 1563.87 805.982 1563.87 Q810.725 1563.87 813.462 1560.85 Q816.231 1557.83 816.231 1552.61 L816.231 1532.4 L822.088 1532.4 L822.088 1568.04 L816.231 1568.04 L816.231 1562.57 Q814.099 1565.82 811.266 1567.41 Q808.465 1568.97 804.741 1568.97 Q798.598 1568.97 795.415 1565.15 Q792.232 1561.33 792.232 1553.98 M806.969 1531.54 L806.969 1531.54 Z" fill="#000000" fill-rule="nonzero" fill-opacity="1" /><path clip-path="url(#clip950)" d="M861.905 1539.24 Q864.101 1535.29 867.157 1533.41 Q870.212 1531.54 874.35 1531.54 Q879.92 1531.54 882.944 1535.45 Q885.967 1539.33 885.967 1546.53 L885.967 1568.04 L880.079 1568.04 L880.079 1546.72 Q880.079 1541.59 878.265 1539.11 Q876.451 1536.63 872.727 1536.63 Q868.175 1536.63 865.534 1539.65 Q862.892 1542.68 862.892 1547.9 L862.892 1568.04 L857.003 1568.04 L857.003 1546.72 Q857.003 1541.56 855.189 1539.11 Q853.375 1536.63 849.587 1536.63 Q845.1 1536.63 842.458 1539.68 Q839.816 1542.71 839.816 1547.9 L839.816 1568.04 L833.928 1568.04 L833.928 1532.4 L839.816 1532.4 L839.816 1537.93 Q841.821 1534.66 844.622 1533.1 Q847.423 1531.54 851.274 1531.54 Q855.157 1531.54 857.863 1533.51 Q860.6 1535.48 861.905 1539.24 Z" fill="#000000" fill-rule="nonzero" fill-opacity="1" /><path clip-path="url(#clip950)" d="M923.239 1550.25 Q923.239 1543.79 920.565 1540.13 Q917.923 1536.44 913.276 1536.44 Q908.629 1536.44 905.956 1540.13 Q903.314 1543.79 903.314 1550.25 Q903.314 1556.71 905.956 1560.4 Q908.629 1564.07 913.276 1564.07 Q917.923 1564.07 920.565 1560.4 Q923.239 1556.71 923.239 1550.25 M903.314 1537.81 Q905.16 1534.62 907.961 1533.1 Q910.794 1531.54 914.709 1531.54 Q921.202 1531.54 925.244 1536.69 Q929.318 1541.85 929.318 1550.25 Q929.318 1558.65 925.244 1563.81 Q921.202 1568.97 914.709 1568.97 Q910.794 1568.97 907.961 1567.44 Q905.16 1565.88 903.314 1562.7 L903.314 1568.04 L897.426 1568.04 L897.426 1518.52 L903.314 1518.52 L903.314 1537.81 Z" fill="#000000" fill-rule="nonzero" fill-opacity="1" /><path clip-path="url(#clip950)" d="M969.517 1548.76 L969.517 1551.62 L942.59 1551.62 Q942.972 1557.67 946.219 1560.85 Q949.497 1564 955.322 1564 Q958.696 1564 961.847 1563.17 Q965.03 1562.35 968.149 1560.69 L968.149 1566.23 Q964.998 1567.57 961.688 1568.27 Q958.377 1568.97 954.972 1568.97 Q946.442 1568.97 941.445 1564 Q936.479 1559.04 936.479 1550.57 Q936.479 1541.82 941.19 1536.69 Q945.932 1531.54 953.953 1531.54 Q961.146 1531.54 965.316 1536.18 Q969.517 1540.8 969.517 1548.76 M963.661 1547.04 Q963.597 1542.23 960.955 1539.37 Q958.346 1536.5 954.017 1536.5 Q949.115 1536.5 946.155 1539.27 Q943.227 1542.04 942.781 1547.07 L963.661 1547.04 Z" fill="#000000" fill-rule="nonzero" fill-opacity="1" /><path clip-path="url(#clip950)" d="M999.786 1537.87 Q998.8 1537.3 997.622 1537.04 Q996.476 1536.76 995.076 1536.76 Q990.11 1536.76 987.437 1540 Q984.795 1543.22 984.795 1549.27 L984.795 1568.04 L978.907 1568.04 L978.907 1532.4 L984.795 1532.4 L984.795 1537.93 Q986.641 1534.69 989.601 1533.13 Q992.561 1531.54 996.794 1531.54 Q997.399 1531.54 998.131 1531.63 Q998.863 1531.7 999.754 1531.85 L999.786 1537.87 Z" fill="#000000" fill-rule="nonzero" fill-opacity="1" /><path clip-path="url(#clip950)" d="M1040.46 1536.5 Q1035.75 1536.5 1033.02 1540.19 Q1030.28 1543.85 1030.28 1550.25 Q1030.28 1556.65 1032.98 1560.34 Q1035.72 1564 1040.46 1564 Q1045.14 1564 1047.88 1560.31 Q1050.62 1556.62 1050.62 1550.25 Q1050.62 1543.92 1047.88 1540.23 Q1045.14 1536.5 1040.46 1536.5 M1040.46 1531.54 Q1048.1 1531.54 1052.46 1536.5 Q1056.82 1541.47 1056.82 1550.25 Q1056.82 1559 1052.46 1564 Q1048.1 1568.97 1040.46 1568.97 Q1032.79 1568.97 1028.43 1564 Q1024.1 1559 1024.1 1550.25 Q1024.1 1541.47 1028.43 1536.5 Q1032.79 1531.54 1040.46 1531.54 Z" fill="#000000" fill-rule="nonzero" fill-opacity="1" /><path clip-path="url(#clip950)" d="M1084.58 1518.52 L1084.58 1523.39 L1078.98 1523.39 Q1075.82 1523.39 1074.58 1524.66 Q1073.37 1525.93 1073.37 1529.24 L1073.37 1532.4 L1083.02 1532.4 L1083.02 1536.95 L1073.37 1536.95 L1073.37 1568.04 L1067.49 1568.04 L1067.49 1536.95 L1061.88 1536.95 L1061.88 1532.4 L1067.49 1532.4 L1067.49 1529.91 Q1067.49 1523.96 1070.25 1521.26 Q1073.02 1518.52 1079.04 1518.52 L1084.58 1518.52 Z" fill="#000000" fill-rule="nonzero" fill-opacity="1" /><path clip-path="url(#clip950)" d="M1110.45 1520.52 L1120.03 1520.52 L1132.16 1552.86 L1144.35 1520.52 L1153.93 1520.52 L1153.93 1568.04 L1147.66 1568.04 L1147.66 1526.32 L1135.41 1558.91 L1128.95 1558.91 L1116.69 1526.32 L1116.69 1568.04 L1110.45 1568.04 L1110.45 1520.52 Z" fill="#000000" fill-rule="nonzero" fill-opacity="1" /><path clip-path="url(#clip950)" d="M1180.25 1536.5 Q1175.54 1536.5 1172.81 1540.19 Q1170.07 1543.85 1170.07 1550.25 Q1170.07 1556.65 1172.77 1560.34 Q1175.51 1564 1180.25 1564 Q1184.93 1564 1187.67 1560.31 Q1190.41 1556.62 1190.41 1550.25 Q1190.41 1543.92 1187.67 1540.23 Q1184.93 1536.5 1180.25 1536.5 M1180.25 1531.54 Q1187.89 1531.54 1192.25 1536.5 Q1196.61 1541.47 1196.61 1550.25 Q1196.61 1559 1192.25 1564 Q1187.89 1568.97 1180.25 1568.97 Q1172.58 1568.97 1168.22 1564 Q1163.89 1559 1163.89 1550.25 Q1163.89 1541.47 1168.22 1536.5 Q1172.58 1531.54 1180.25 1531.54 Z" fill="#000000" fill-rule="nonzero" fill-opacity="1" /><path clip-path="url(#clip950)" d="M1235.95 1546.53 L1235.95 1568.04 L1230.1 1568.04 L1230.1 1546.72 Q1230.1 1541.66 1228.12 1539.14 Q1226.15 1536.63 1222.2 1536.63 Q1217.46 1536.63 1214.72 1539.65 Q1211.99 1542.68 1211.99 1547.9 L1211.99 1568.04 L1206.1 1568.04 L1206.1 1532.4 L1211.99 1532.4 L1211.99 1537.93 Q1214.09 1534.72 1216.92 1533.13 Q1219.79 1531.54 1223.51 1531.54 Q1229.65 1531.54 1232.8 1535.36 Q1235.95 1539.14 1235.95 1546.53 Z" fill="#000000" fill-rule="nonzero" fill-opacity="1" /><path clip-path="url(#clip950)" d="M1253.43 1522.27 L1253.43 1532.4 L1265.49 1532.4 L1265.49 1536.95 L1253.43 1536.95 L1253.43 1556.3 Q1253.43 1560.66 1254.61 1561.9 Q1255.82 1563.14 1259.48 1563.14 L1265.49 1563.14 L1265.49 1568.04 L1259.48 1568.04 Q1252.7 1568.04 1250.12 1565.53 Q1247.54 1562.98 1247.54 1556.3 L1247.54 1536.95 L1243.24 1536.95 L1243.24 1532.4 L1247.54 1532.4 L1247.54 1522.27 L1253.43 1522.27 Z" fill="#000000" fill-rule="nonzero" fill-opacity="1" /><path clip-path="url(#clip950)" d="M1303.69 1548.76 L1303.69 1551.62 L1276.76 1551.62 Q1277.14 1557.67 1280.39 1560.85 Q1283.66 1564 1289.49 1564 Q1292.86 1564 1296.01 1563.17 Q1299.2 1562.35 1302.32 1560.69 L1302.32 1566.23 Q1299.17 1567.57 1295.86 1568.27 Q1292.55 1568.97 1289.14 1568.97 Q1280.61 1568.97 1275.61 1564 Q1270.65 1559.04 1270.65 1550.57 Q1270.65 1541.82 1275.36 1536.69 Q1280.1 1531.54 1288.12 1531.54 Q1295.31 1531.54 1299.48 1536.18 Q1303.69 1540.8 1303.69 1548.76 M1297.83 1547.04 Q1297.77 1542.23 1295.12 1539.37 Q1292.51 1536.5 1288.18 1536.5 Q1283.28 1536.5 1280.32 1539.27 Q1277.39 1542.04 1276.95 1547.07 L1297.83 1547.04 Z" fill="#000000" fill-rule="nonzero" fill-opacity="1" /><path clip-path="url(#clip950)" d="M1310.34 1547.58 L1327.49 1547.58 L1327.49 1552.8 L1310.34 1552.8 L1310.34 1547.58 Z" fill="#000000" fill-rule="nonzero" fill-opacity="1" /><path clip-path="url(#clip950)" d="M1372.66 1524.18 L1372.66 1530.96 Q1369.41 1527.94 1365.72 1526.44 Q1362.06 1524.95 1357.92 1524.95 Q1349.77 1524.95 1345.44 1529.95 Q1341.12 1534.91 1341.12 1544.33 Q1341.12 1553.72 1345.44 1558.72 Q1349.77 1563.68 1357.92 1563.68 Q1362.06 1563.68 1365.72 1562.19 Q1369.41 1560.69 1372.66 1557.67 L1372.66 1564.38 Q1369.28 1566.68 1365.5 1567.82 Q1361.74 1568.97 1357.54 1568.97 Q1346.75 1568.97 1340.54 1562.38 Q1334.34 1555.76 1334.34 1544.33 Q1334.34 1532.87 1340.54 1526.28 Q1346.75 1519.66 1357.54 1519.66 Q1361.8 1519.66 1365.56 1520.81 Q1369.35 1521.92 1372.66 1524.18 Z" fill="#000000" fill-rule="nonzero" fill-opacity="1" /><path clip-path="url(#clip950)" d="M1398.53 1550.12 Q1391.44 1550.12 1388.7 1551.75 Q1385.96 1553.37 1385.96 1557.29 Q1385.96 1560.4 1388 1562.25 Q1390.07 1564.07 1393.6 1564.07 Q1398.47 1564.07 1401.4 1560.63 Q1404.36 1557.16 1404.36 1551.43 L1404.36 1550.12 L1398.53 1550.12 M1410.22 1547.71 L1410.22 1568.04 L1404.36 1568.04 L1404.36 1562.63 Q1402.35 1565.88 1399.36 1567.44 Q1396.37 1568.97 1392.04 1568.97 Q1386.57 1568.97 1383.32 1565.91 Q1380.11 1562.82 1380.11 1557.67 Q1380.11 1551.65 1384.12 1548.6 Q1388.16 1545.54 1396.15 1545.54 L1404.36 1545.54 L1404.36 1544.97 Q1404.36 1540.93 1401.69 1538.73 Q1399.04 1536.5 1394.24 1536.5 Q1391.18 1536.5 1388.29 1537.23 Q1385.39 1537.97 1382.72 1539.43 L1382.72 1534.02 Q1385.93 1532.78 1388.95 1532.17 Q1391.98 1531.54 1394.84 1531.54 Q1402.58 1531.54 1406.4 1535.55 Q1410.22 1539.56 1410.22 1547.71 Z" fill="#000000" fill-rule="nonzero" fill-opacity="1" /><path clip-path="url(#clip950)" d="M1442.93 1537.87 Q1441.95 1537.3 1440.77 1537.04 Q1439.62 1536.76 1438.22 1536.76 Q1433.26 1536.76 1430.59 1540 Q1427.94 1543.22 1427.94 1549.27 L1427.94 1568.04 L1422.06 1568.04 L1422.06 1532.4 L1427.94 1532.4 L1427.94 1537.93 Q1429.79 1534.69 1432.75 1533.13 Q1435.71 1531.54 1439.94 1531.54 Q1440.55 1531.54 1441.28 1531.63 Q1442.01 1531.7 1442.9 1531.85 L1442.93 1537.87 Z" fill="#000000" fill-rule="nonzero" fill-opacity="1" /><path clip-path="url(#clip950)" d="M1449.08 1518.52 L1454.93 1518.52 L1454.93 1568.04 L1449.08 1568.04 L1449.08 1518.52 Z" fill="#000000" fill-rule="nonzero" fill-opacity="1" /><path clip-path="url(#clip950)" d="M1481 1536.5 Q1476.29 1536.5 1473.55 1540.19 Q1470.82 1543.85 1470.82 1550.25 Q1470.82 1556.65 1473.52 1560.34 Q1476.26 1564 1481 1564 Q1485.68 1564 1488.42 1560.31 Q1491.16 1556.62 1491.16 1550.25 Q1491.16 1543.92 1488.42 1540.23 Q1485.68 1536.5 1481 1536.5 M1481 1531.54 Q1488.64 1531.54 1493 1536.5 Q1497.36 1541.47 1497.36 1550.25 Q1497.36 1559 1493 1564 Q1488.64 1568.97 1481 1568.97 Q1473.33 1568.97 1468.97 1564 Q1464.64 1559 1464.64 1550.25 Q1464.64 1541.47 1468.97 1536.5 Q1473.33 1531.54 1481 1531.54 Z" fill="#000000" fill-rule="nonzero" fill-opacity="1" /><path clip-path="url(#clip950)" d="M1527.79 1532.4 L1533.65 1532.4 L1533.65 1568.04 L1527.79 1568.04 L1527.79 1532.4 M1527.79 1518.52 L1533.65 1518.52 L1533.65 1525.93 L1527.79 1525.93 L1527.79 1518.52 Z" fill="#000000" fill-rule="nonzero" fill-opacity="1" /><path clip-path="url(#clip950)" d="M1551.69 1522.27 L1551.69 1532.4 L1563.76 1532.4 L1563.76 1536.95 L1551.69 1536.95 L1551.69 1556.3 Q1551.69 1560.66 1552.87 1561.9 Q1554.08 1563.14 1557.74 1563.14 L1563.76 1563.14 L1563.76 1568.04 L1557.74 1568.04 Q1550.96 1568.04 1548.38 1565.53 Q1545.8 1562.98 1545.8 1556.3 L1545.8 1536.95 L1541.51 1536.95 L1541.51 1532.4 L1545.8 1532.4 L1545.8 1522.27 L1551.69 1522.27 Z" fill="#000000" fill-rule="nonzero" fill-opacity="1" /><path clip-path="url(#clip950)" d="M1601.95 1548.76 L1601.95 1551.62 L1575.02 1551.62 Q1575.41 1557.67 1578.65 1560.85 Q1581.93 1564 1587.75 1564 Q1591.13 1564 1594.28 1563.17 Q1597.46 1562.35 1600.58 1560.69 L1600.58 1566.23 Q1597.43 1567.57 1594.12 1568.27 Q1590.81 1568.97 1587.4 1568.97 Q1578.87 1568.97 1573.88 1564 Q1568.91 1559.04 1568.91 1550.57 Q1568.91 1541.82 1573.62 1536.69 Q1578.37 1531.54 1586.39 1531.54 Q1593.58 1531.54 1597.75 1536.18 Q1601.95 1540.8 1601.95 1548.76 M1596.09 1547.04 Q1596.03 1542.23 1593.39 1539.37 Q1590.78 1536.5 1586.45 1536.5 Q1581.55 1536.5 1578.59 1539.27 Q1575.66 1542.04 1575.21 1547.07 L1596.09 1547.04 Z" fill="#000000" fill-rule="nonzero" fill-opacity="1" /><path clip-path="url(#clip950)" d="M1632.22 1537.87 Q1631.23 1537.3 1630.05 1537.04 Q1628.91 1536.76 1627.51 1536.76 Q1622.54 1536.76 1619.87 1540 Q1617.23 1543.22 1617.23 1549.27 L1617.23 1568.04 L1611.34 1568.04 L1611.34 1532.4 L1617.23 1532.4 L1617.23 1537.93 Q1619.07 1534.69 1622.03 1533.13 Q1624.99 1531.54 1629.23 1531.54 Q1629.83 1531.54 1630.56 1531.63 Q1631.3 1531.7 1632.19 1531.85 L1632.22 1537.87 Z" fill="#000000" fill-rule="nonzero" fill-opacity="1" /><path clip-path="url(#clip950)" d="M1654.56 1550.12 Q1647.47 1550.12 1644.73 1551.75 Q1641.99 1553.37 1641.99 1557.29 Q1641.99 1560.4 1644.03 1562.25 Q1646.1 1564.07 1649.63 1564.07 Q1654.5 1564.07 1657.43 1560.63 Q1660.39 1557.16 1660.39 1551.43 L1660.39 1550.12 L1654.56 1550.12 M1666.24 1547.71 L1666.24 1568.04 L1660.39 1568.04 L1660.39 1562.63 Q1658.38 1565.88 1655.39 1567.44 Q1652.4 1568.97 1648.07 1568.97 Q1642.6 1568.97 1639.35 1565.91 Q1636.13 1562.82 1636.13 1557.67 Q1636.13 1551.65 1640.14 1548.6 Q1644.19 1545.54 1652.18 1545.54 L1660.39 1545.54 L1660.39 1544.97 Q1660.39 1540.93 1657.71 1538.73 Q1655.07 1536.5 1650.27 1536.5 Q1647.21 1536.5 1644.31 1537.23 Q1641.42 1537.97 1638.74 1539.43 L1638.74 1534.02 Q1641.96 1532.78 1644.98 1532.17 Q1648.01 1531.54 1650.87 1531.54 Q1658.61 1531.54 1662.42 1535.55 Q1666.24 1539.56 1666.24 1547.71 Z" fill="#000000" fill-rule="nonzero" fill-opacity="1" /><path clip-path="url(#clip950)" d="M1684.1 1522.27 L1684.1 1532.4 L1696.16 1532.4 L1696.16 1536.95 L1684.1 1536.95 L1684.1 1556.3 Q1684.1 1560.66 1685.28 1561.9 Q1686.49 1563.14 1690.15 1563.14 L1696.16 1563.14 L1696.16 1568.04 L1690.15 1568.04 Q1683.37 1568.04 1680.79 1565.53 Q1678.21 1562.98 1678.21 1556.3 L1678.21 1536.95 L1673.91 1536.95 L1673.91 1532.4 L1678.21 1532.4 L1678.21 1522.27 L1684.1 1522.27 Z" fill="#000000" fill-rule="nonzero" fill-opacity="1" /><path clip-path="url(#clip950)" d="M1703.87 1532.4 L1709.72 1532.4 L1709.72 1568.04 L1703.87 1568.04 L1703.87 1532.4 M1703.87 1518.52 L1709.72 1518.52 L1709.72 1525.93 L1703.87 1525.93 L1703.87 1518.52 Z" fill="#000000" fill-rule="nonzero" fill-opacity="1" /><path clip-path="url(#clip950)" d="M1735.79 1536.5 Q1731.08 1536.5 1728.34 1540.19 Q1725.6 1543.85 1725.6 1550.25 Q1725.6 1556.65 1728.31 1560.34 Q1731.05 1564 1735.79 1564 Q1740.47 1564 1743.21 1560.31 Q1745.94 1556.62 1745.94 1550.25 Q1745.94 1543.92 1743.21 1540.23 Q1740.47 1536.5 1735.79 1536.5 M1735.79 1531.54 Q1743.43 1531.54 1747.79 1536.5 Q1752.15 1541.47 1752.15 1550.25 Q1752.15 1559 1747.79 1564 Q1743.43 1568.97 1735.79 1568.97 Q1728.12 1568.97 1723.76 1564 Q1719.43 1559 1719.43 1550.25 Q1719.43 1541.47 1723.76 1536.5 Q1728.12 1531.54 1735.79 1531.54 Z" fill="#000000" fill-rule="nonzero" fill-opacity="1" /><path clip-path="url(#clip950)" d="M1791.49 1546.53 L1791.49 1568.04 L1785.63 1568.04 L1785.63 1546.72 Q1785.63 1541.66 1783.66 1539.14 Q1781.69 1536.63 1777.74 1536.63 Q1773 1536.63 1770.26 1539.65 Q1767.52 1542.68 1767.52 1547.9 L1767.52 1568.04 L1761.63 1568.04 L1761.63 1532.4 L1767.52 1532.4 L1767.52 1537.93 Q1769.62 1534.72 1772.46 1533.13 Q1775.32 1531.54 1779.04 1531.54 Q1785.19 1531.54 1788.34 1535.36 Q1791.49 1539.14 1791.49 1546.53 Z" fill="#000000" fill-rule="nonzero" fill-opacity="1" /><path clip-path="url(#clip950)" d="M1825.9 1533.45 L1825.9 1538.98 Q1823.41 1537.71 1820.74 1537.07 Q1818.07 1536.44 1815.2 1536.44 Q1810.84 1536.44 1808.64 1537.77 Q1806.48 1539.11 1806.48 1541.79 Q1806.48 1543.82 1808.04 1545 Q1809.6 1546.15 1814.31 1547.2 L1816.32 1547.64 Q1822.55 1548.98 1825.16 1551.43 Q1827.81 1553.85 1827.81 1558.21 Q1827.81 1563.17 1823.86 1566.07 Q1819.94 1568.97 1813.07 1568.97 Q1810.2 1568.97 1807.09 1568.39 Q1804 1567.85 1800.56 1566.74 L1800.56 1560.69 Q1803.81 1562.38 1806.96 1563.24 Q1810.11 1564.07 1813.2 1564.07 Q1817.33 1564.07 1819.56 1562.66 Q1821.79 1561.23 1821.79 1558.65 Q1821.79 1556.27 1820.17 1554.99 Q1818.58 1553.72 1813.13 1552.54 L1811.1 1552.07 Q1805.65 1550.92 1803.23 1548.56 Q1800.81 1546.18 1800.81 1542.04 Q1800.81 1537.01 1804.38 1534.27 Q1807.94 1531.54 1814.5 1531.54 Q1817.75 1531.54 1820.61 1532.01 Q1823.48 1532.49 1825.9 1533.45 Z" fill="#000000" fill-rule="nonzero" fill-opacity="1" /><polyline clip-path="url(#clip952)" style="stroke:#000000; stroke-linecap:round; stroke-linejoin:round; stroke-width:2; stroke-opacity:0.1; fill:none" points="219.38,1421.49 2352.76,1421.49 "/>
<polyline clip-path="url(#clip952)" style="stroke:#000000; stroke-linecap:round; stroke-linejoin:round; stroke-width:2; stroke-opacity:0.1; fill:none" points="219.38,1085.38 2352.76,1085.38 "/>
<polyline clip-path="url(#clip952)" style="stroke:#000000; stroke-linecap:round; stroke-linejoin:round; stroke-width:2; stroke-opacity:0.1; fill:none" points="219.38,749.264 2352.76,749.264 "/>
<polyline clip-path="url(#clip952)" style="stroke:#000000; stroke-linecap:round; stroke-linejoin:round; stroke-width:2; stroke-opacity:0.1; fill:none" points="219.38,413.153 2352.76,413.153 "/>
<polyline clip-path="url(#clip950)" style="stroke:#000000; stroke-linecap:round; stroke-linejoin:round; stroke-width:4; stroke-opacity:1; fill:none" points="219.38,1423.18 219.38,183.952 "/>
<polyline clip-path="url(#clip950)" style="stroke:#000000; stroke-linecap:round; stroke-linejoin:round; stroke-width:4; stroke-opacity:1; fill:none" points="219.38,1421.49 238.278,1421.49 "/>
<polyline clip-path="url(#clip950)" style="stroke:#000000; stroke-linecap:round; stroke-linejoin:round; stroke-width:4; stroke-opacity:1; fill:none" points="219.38,1085.38 238.278,1085.38 "/>
<polyline clip-path="url(#clip950)" style="stroke:#000000; stroke-linecap:round; stroke-linejoin:round; stroke-width:4; stroke-opacity:1; fill:none" points="219.38,749.264 238.278,749.264 "/>
<polyline clip-path="url(#clip950)" style="stroke:#000000; stroke-linecap:round; stroke-linejoin:round; stroke-width:4; stroke-opacity:1; fill:none" points="219.38,413.153 238.278,413.153 "/>
<path clip-path="url(#clip950)" d="M126.205 1407.29 Q122.593 1407.29 120.765 1410.85 Q118.959 1414.39 118.959 1421.52 Q118.959 1428.63 120.765 1432.19 Q122.593 1435.73 126.205 1435.73 Q129.839 1435.73 131.644 1432.19 Q133.473 1428.63 133.473 1421.52 Q133.473 1414.39 131.644 1410.85 Q129.839 1407.29 126.205 1407.29 M126.205 1403.58 Q132.015 1403.58 135.07 1408.19 Q138.149 1412.77 138.149 1421.52 Q138.149 1430.25 135.07 1434.85 Q132.015 1439.44 126.205 1439.44 Q120.394 1439.44 117.316 1434.85 Q114.26 1430.25 114.26 1421.52 Q114.26 1412.77 117.316 1408.19 Q120.394 1403.58 126.205 1403.58 Z" fill="#000000" fill-rule="nonzero" fill-opacity="1" /><path clip-path="url(#clip950)" d="M146.366 1432.89 L151.251 1432.89 L151.251 1438.77 L146.366 1438.77 L146.366 1432.89 Z" fill="#000000" fill-rule="nonzero" fill-opacity="1" /><path clip-path="url(#clip950)" d="M171.436 1407.29 Q167.825 1407.29 165.996 1410.85 Q164.19 1414.39 164.19 1421.52 Q164.19 1428.63 165.996 1432.19 Q167.825 1435.73 171.436 1435.73 Q175.07 1435.73 176.876 1432.19 Q178.704 1428.63 178.704 1421.52 Q178.704 1414.39 176.876 1410.85 Q175.07 1407.29 171.436 1407.29 M171.436 1403.58 Q177.246 1403.58 180.301 1408.19 Q183.38 1412.77 183.38 1421.52 Q183.38 1430.25 180.301 1434.85 Q177.246 1439.44 171.436 1439.44 Q165.626 1439.44 162.547 1434.85 Q159.491 1430.25 159.491 1421.52 Q159.491 1412.77 162.547 1408.19 Q165.626 1403.58 171.436 1403.58 Z" fill="#000000" fill-rule="nonzero" fill-opacity="1" /><path clip-path="url(#clip950)" d="M127.2 1071.17 Q123.589 1071.17 121.76 1074.74 Q119.955 1078.28 119.955 1085.41 Q119.955 1092.52 121.76 1096.08 Q123.589 1099.62 127.2 1099.62 Q130.834 1099.62 132.64 1096.08 Q134.468 1092.52 134.468 1085.41 Q134.468 1078.28 132.64 1074.74 Q130.834 1071.17 127.2 1071.17 M127.2 1067.47 Q133.01 1067.47 136.066 1072.08 Q139.144 1076.66 139.144 1085.41 Q139.144 1094.14 136.066 1098.74 Q133.01 1103.33 127.2 1103.33 Q121.39 1103.33 118.311 1098.74 Q115.256 1094.14 115.256 1085.41 Q115.256 1076.66 118.311 1072.08 Q121.39 1067.47 127.2 1067.47 Z" fill="#000000" fill-rule="nonzero" fill-opacity="1" /><path clip-path="url(#clip950)" d="M147.362 1096.78 L152.246 1096.78 L152.246 1102.66 L147.362 1102.66 L147.362 1096.78 Z" fill="#000000" fill-rule="nonzero" fill-opacity="1" /><path clip-path="url(#clip950)" d="M162.477 1068.1 L180.834 1068.1 L180.834 1072.03 L166.76 1072.03 L166.76 1080.5 Q167.778 1080.16 168.797 1079.99 Q169.815 1079.81 170.834 1079.81 Q176.621 1079.81 180.001 1082.98 Q183.38 1086.15 183.38 1091.57 Q183.38 1097.15 179.908 1100.25 Q176.436 1103.33 170.116 1103.33 Q167.94 1103.33 165.672 1102.96 Q163.427 1102.59 161.019 1101.85 L161.019 1097.15 Q163.102 1098.28 165.325 1098.84 Q167.547 1099.39 170.024 1099.39 Q174.028 1099.39 176.366 1097.29 Q178.704 1095.18 178.704 1091.57 Q178.704 1087.96 176.366 1085.85 Q174.028 1083.74 170.024 1083.74 Q168.149 1083.74 166.274 1084.16 Q164.422 1084.58 162.477 1085.46 L162.477 1068.1 Z" fill="#000000" fill-rule="nonzero" fill-opacity="1" /><path clip-path="url(#clip950)" d="M117.015 762.609 L124.654 762.609 L124.654 736.243 L116.343 737.91 L116.343 733.651 L124.607 731.984 L129.283 731.984 L129.283 762.609 L136.922 762.609 L136.922 766.544 L117.015 766.544 L117.015 762.609 Z" fill="#000000" fill-rule="nonzero" fill-opacity="1" /><path clip-path="url(#clip950)" d="M146.366 760.665 L151.251 760.665 L151.251 766.544 L146.366 766.544 L146.366 760.665 Z" fill="#000000" fill-rule="nonzero" fill-opacity="1" /><path clip-path="url(#clip950)" d="M171.436 735.063 Q167.825 735.063 165.996 738.628 Q164.19 742.169 164.19 749.299 Q164.19 756.405 165.996 759.97 Q167.825 763.512 171.436 763.512 Q175.07 763.512 176.876 759.97 Q178.704 756.405 178.704 749.299 Q178.704 742.169 176.876 738.628 Q175.07 735.063 171.436 735.063 M171.436 731.359 Q177.246 731.359 180.301 735.966 Q183.38 740.549 183.38 749.299 Q183.38 758.026 180.301 762.632 Q177.246 767.215 171.436 767.215 Q165.626 767.215 162.547 762.632 Q159.491 758.026 159.491 749.299 Q159.491 740.549 162.547 735.966 Q165.626 731.359 171.436 731.359 Z" fill="#000000" fill-rule="nonzero" fill-opacity="1" /><path clip-path="url(#clip950)" d="M118.01 426.498 L125.649 426.498 L125.649 400.132 L117.339 401.799 L117.339 397.54 L125.603 395.873 L130.279 395.873 L130.279 426.498 L137.917 426.498 L137.917 430.433 L118.01 430.433 L118.01 426.498 Z" fill="#000000" fill-rule="nonzero" fill-opacity="1" /><path clip-path="url(#clip950)" d="M147.362 424.553 L152.246 424.553 L152.246 430.433 L147.362 430.433 L147.362 424.553 Z" fill="#000000" fill-rule="nonzero" fill-opacity="1" /><path clip-path="url(#clip950)" d="M162.477 395.873 L180.834 395.873 L180.834 399.808 L166.76 399.808 L166.76 408.28 Q167.778 407.933 168.797 407.771 Q169.815 407.586 170.834 407.586 Q176.621 407.586 180.001 410.757 Q183.38 413.928 183.38 419.345 Q183.38 424.924 179.908 428.025 Q176.436 431.104 170.116 431.104 Q167.94 431.104 165.672 430.734 Q163.427 430.363 161.019 429.623 L161.019 424.924 Q163.102 426.058 165.325 426.613 Q167.547 427.169 170.024 427.169 Q174.028 427.169 176.366 425.063 Q178.704 422.956 178.704 419.345 Q178.704 415.734 176.366 413.627 Q174.028 411.521 170.024 411.521 Q168.149 411.521 166.274 411.938 Q164.422 412.354 162.477 413.234 L162.477 395.873 Z" fill="#000000" fill-rule="nonzero" fill-opacity="1" /><path clip-path="url(#clip950)" d="M14.1925 1201.22 L79.3773 1201.22 L79.3773 1206.63 L14.1925 1206.63 L14.1925 1201.22 Z" fill="#000000" fill-rule="nonzero" fill-opacity="1" /><path clip-path="url(#clip950)" d="M16.4842 1193.13 L16.4842 1152.93 L21.895 1152.93 L21.895 1169.8 L64.0042 1169.8 L64.0042 1176.26 L21.895 1176.26 L21.895 1193.13 L16.4842 1193.13 Z" fill="#000000" fill-rule="nonzero" fill-opacity="1" /><path clip-path="url(#clip950)" d="M74.8259 1119.89 L79.3773 1119.89 L79.3773 1153.76 L74.8259 1153.76 L74.8259 1119.89 Z" fill="#000000" fill-rule="nonzero" fill-opacity="1" /><path clip-path="url(#clip950)" d="M29.7248 1088.73 L35.1993 1088.73 Q33.8307 1091.22 33.1623 1093.73 Q32.4621 1096.21 32.4621 1098.76 Q32.4621 1104.46 36.0905 1107.61 Q39.6872 1110.76 46.212 1110.76 Q52.7369 1110.76 56.3653 1107.61 Q59.9619 1104.46 59.9619 1098.76 Q59.9619 1096.21 59.2935 1093.73 Q58.5933 1091.22 57.2247 1088.73 L62.6355 1088.73 Q63.7814 1091.18 64.3543 1093.83 Q64.9272 1096.44 64.9272 1099.4 Q64.9272 1107.45 59.8664 1112.19 Q54.8057 1116.93 46.212 1116.93 Q37.491 1116.93 32.4939 1112.16 Q27.4968 1107.35 27.4968 1099.01 Q27.4968 1096.31 28.0697 1093.73 Q28.6108 1091.15 29.7248 1088.73 Z" fill="#000000" fill-rule="nonzero" fill-opacity="1" /><path clip-path="url(#clip950)" d="M43.5384 1060.79 L43.5384 1043.63 L48.7583 1043.63 L48.7583 1060.79 L43.5384 1060.79 Z" fill="#000000" fill-rule="nonzero" fill-opacity="1" /><path clip-path="url(#clip950)" d="M20.8447 994.044 Q20.8447 1001.05 26.0645 1005.18 Q31.2844 1009.29 40.2919 1009.29 Q49.2675 1009.29 54.4874 1005.18 Q59.7073 1001.05 59.7073 994.044 Q59.7073 987.042 54.4874 982.968 Q49.2675 978.862 40.2919 978.862 Q31.2844 978.862 26.0645 982.968 Q20.8447 987.042 20.8447 994.044 M15.6248 994.044 Q15.6248 984.05 22.3406 978.066 Q29.0246 972.082 40.2919 972.082 Q51.5274 972.082 58.2432 978.066 Q64.9272 984.05 64.9272 994.044 Q64.9272 1004.07 58.2432 1010.09 Q51.5592 1016.07 40.2919 1016.07 Q29.0246 1016.07 22.3406 1010.09 Q15.6248 1004.07 15.6248 994.044 Z" fill="#000000" fill-rule="nonzero" fill-opacity="1" /><path clip-path="url(#clip950)" d="M42.4881 932.647 L64.0042 932.647 L64.0042 938.503 L42.679 938.503 Q37.6183 938.503 35.1038 940.476 Q32.5894 942.45 32.5894 946.397 Q32.5894 951.139 35.6131 953.876 Q38.6368 956.613 43.8567 956.613 L64.0042 956.613 L64.0042 962.502 L28.3562 962.502 L28.3562 956.613 L33.8944 956.613 Q30.6797 954.513 29.0883 951.68 Q27.4968 948.815 27.4968 945.092 Q27.4968 938.949 31.3163 935.798 Q35.1038 932.647 42.4881 932.647 Z" fill="#000000" fill-rule="nonzero" fill-opacity="1" /><path clip-path="url(#clip950)" d="M29.4065 898.24 L34.9447 898.24 Q33.6716 900.723 33.035 903.396 Q32.3984 906.07 32.3984 908.934 Q32.3984 913.295 33.7352 915.491 Q35.072 917.655 37.7456 917.655 Q39.7826 917.655 40.9603 916.096 Q42.1061 914.536 43.1565 909.826 L43.6021 907.82 Q44.9389 901.582 47.3897 898.972 Q49.8086 896.33 54.1691 896.33 Q59.1344 896.33 62.0308 900.277 Q64.9272 904.192 64.9272 911.067 Q64.9272 913.931 64.3543 917.051 Q63.8132 920.138 62.6992 923.575 L56.6518 923.575 Q58.3387 920.329 59.198 917.178 Q60.0256 914.027 60.0256 910.94 Q60.0256 906.802 58.6251 904.574 Q57.1929 902.346 54.6147 902.346 Q52.2276 902.346 50.9545 903.969 Q49.6813 905.561 48.5037 911.003 L48.0262 913.04 Q46.8804 918.483 44.5251 920.902 Q42.138 923.321 38.0002 923.321 Q32.9713 923.321 30.2341 919.756 Q27.4968 916.191 27.4968 909.635 Q27.4968 906.388 27.9743 903.523 Q28.4517 900.659 29.4065 898.24 Z" fill="#000000" fill-rule="nonzero" fill-opacity="1" /><path clip-path="url(#clip950)" d="M46.0847 870.804 Q46.0847 877.902 47.7079 880.639 Q49.3312 883.376 53.2461 883.376 Q56.3653 883.376 58.2114 881.339 Q60.0256 879.27 60.0256 875.737 Q60.0256 870.867 56.5881 867.939 Q53.1188 864.979 47.3897 864.979 L46.0847 864.979 L46.0847 870.804 M43.6657 859.123 L64.0042 859.123 L64.0042 864.979 L58.5933 864.979 Q61.8398 866.984 63.3994 869.976 Q64.9272 872.968 64.9272 877.297 Q64.9272 882.771 61.8716 886.018 Q58.7843 889.232 53.6281 889.232 Q47.6125 889.232 44.5569 885.222 Q41.5014 881.18 41.5014 873.191 L41.5014 864.979 L40.9285 864.979 Q36.8862 864.979 34.6901 867.653 Q32.4621 870.295 32.4621 875.101 Q32.4621 878.156 33.1941 881.053 Q33.9262 883.949 35.3903 886.623 L29.9795 886.623 Q28.7381 883.408 28.1334 880.384 Q27.4968 877.36 27.4968 874.496 Q27.4968 866.762 31.5072 862.942 Q35.5176 859.123 43.6657 859.123 Z" fill="#000000" fill-rule="nonzero" fill-opacity="1" /><path clip-path="url(#clip950)" d="M45.7664 823.602 Q39.4007 823.602 35.8996 826.244 Q32.3984 828.854 32.3984 833.596 Q32.3984 838.307 35.8996 840.949 Q39.4007 843.559 45.7664 843.559 Q52.1003 843.559 55.6014 840.949 Q59.1026 838.307 59.1026 833.596 Q59.1026 828.854 55.6014 826.244 Q52.1003 823.602 45.7664 823.602 M59.58 817.746 Q68.683 817.746 73.1071 821.788 Q77.5631 825.83 77.5631 834.169 Q77.5631 837.256 77.0857 839.994 Q76.6401 842.731 75.6852 845.309 L69.9879 845.309 Q71.3884 842.731 72.0568 840.217 Q72.7252 837.702 72.7252 835.092 Q72.7252 829.331 69.7015 826.467 Q66.7096 823.602 60.6303 823.602 L57.7339 823.602 Q60.885 825.416 62.4446 828.249 Q64.0042 831.082 64.0042 835.028 Q64.0042 841.585 59.0071 845.596 Q54.01 849.606 45.7664 849.606 Q37.491 849.606 32.4939 845.596 Q27.4968 841.585 27.4968 835.028 Q27.4968 831.082 29.0564 828.249 Q30.616 825.416 33.7671 823.602 L28.3562 823.602 L28.3562 817.746 L59.58 817.746 Z" fill="#000000" fill-rule="nonzero" fill-opacity="1" /><path clip-path="url(#clip950)" d="M44.7161 775.191 L47.5806 775.191 L47.5806 802.118 Q53.6281 801.736 56.8109 798.489 Q59.9619 795.211 59.9619 789.386 Q59.9619 786.013 59.1344 782.862 Q58.3069 779.679 56.6518 776.559 L62.1899 776.559 Q63.5267 779.71 64.227 783.021 Q64.9272 786.331 64.9272 789.736 Q64.9272 798.267 59.9619 803.264 Q54.9967 808.229 46.5303 808.229 Q37.7774 808.229 32.6531 803.518 Q27.4968 798.776 27.4968 790.755 Q27.4968 783.562 32.1438 779.392 Q36.7589 775.191 44.7161 775.191 M42.9973 781.047 Q38.1912 781.111 35.3266 783.753 Q32.4621 786.363 32.4621 790.691 Q32.4621 795.593 35.2312 798.553 Q38.0002 801.481 43.0292 801.927 L42.9973 781.047 Z" fill="#000000" fill-rule="nonzero" fill-opacity="1" /><path clip-path="url(#clip950)" d="M33.8307 744.922 Q33.2578 745.909 33.0032 747.086 Q32.7167 748.232 32.7167 749.633 Q32.7167 754.598 35.9632 757.271 Q39.1779 759.913 45.2253 759.913 L64.0042 759.913 L64.0042 765.801 L28.3562 765.801 L28.3562 759.913 L33.8944 759.913 Q30.6479 758.067 29.0883 755.107 Q27.4968 752.147 27.4968 747.914 Q27.4968 747.309 27.5923 746.577 Q27.656 745.845 27.8151 744.954 L33.8307 744.922 Z" fill="#000000" fill-rule="nonzero" fill-opacity="1" /><path clip-path="url(#clip950)" d="M16.4842 733.241 L34.149 733.241 L34.149 738.652 L16.4842 738.652 L16.4842 733.241 Z" fill="#000000" fill-rule="nonzero" fill-opacity="1" /><path clip-path="url(#clip950)" d="M29.4065 698.134 L34.9447 698.134 Q33.6716 700.617 33.035 703.29 Q32.3984 705.964 32.3984 708.828 Q32.3984 713.189 33.7352 715.385 Q35.072 717.549 37.7456 717.549 Q39.7826 717.549 40.9603 715.99 Q42.1061 714.43 43.1565 709.72 L43.6021 707.714 Q44.9389 701.476 47.3897 698.866 Q49.8086 696.224 54.1691 696.224 Q59.1344 696.224 62.0308 700.171 Q64.9272 704.086 64.9272 710.961 Q64.9272 713.825 64.3543 716.945 Q63.8132 720.032 62.6992 723.469 L56.6518 723.469 Q58.3387 720.223 59.198 717.072 Q60.0256 713.921 60.0256 710.834 Q60.0256 706.696 58.6251 704.468 Q57.1929 702.24 54.6147 702.24 Q52.2276 702.24 50.9545 703.863 Q49.6813 705.455 48.5037 710.897 L48.0262 712.934 Q46.8804 718.377 44.5251 720.796 Q42.138 723.215 38.0002 723.215 Q32.9713 723.215 30.2341 719.65 Q27.4968 716.085 27.4968 709.529 Q27.4968 706.282 27.9743 703.418 Q28.4517 700.553 29.4065 698.134 Z" fill="#000000" fill-rule="nonzero" fill-opacity="1" /><path clip-path="url(#clip950)" d="M29.4065 643.453 L34.9447 643.453 Q33.6716 645.935 33.035 648.609 Q32.3984 651.282 32.3984 654.147 Q32.3984 658.507 33.7352 660.704 Q35.072 662.868 37.7456 662.868 Q39.7826 662.868 40.9603 661.308 Q42.1061 659.749 43.1565 655.038 L43.6021 653.033 Q44.9389 646.795 47.3897 644.185 Q49.8086 641.543 54.1691 641.543 Q59.1344 641.543 62.0308 645.49 Q64.9272 649.404 64.9272 656.279 Q64.9272 659.144 64.3543 662.263 Q63.8132 665.351 62.6992 668.788 L56.6518 668.788 Q58.3387 665.542 59.198 662.391 Q60.0256 659.24 60.0256 656.152 Q60.0256 652.014 58.6251 649.786 Q57.1929 647.558 54.6147 647.558 Q52.2276 647.558 50.9545 649.182 Q49.6813 650.773 48.5037 656.216 L48.0262 658.253 Q46.8804 663.695 44.5251 666.114 Q42.138 668.533 38.0002 668.533 Q32.9713 668.533 30.2341 664.969 Q27.4968 661.404 27.4968 654.847 Q27.4968 651.601 27.9743 648.736 Q28.4517 645.872 29.4065 643.453 Z" fill="#000000" fill-rule="nonzero" fill-opacity="1" /><path clip-path="url(#clip950)" d="M32.4621 618.403 Q32.4621 623.114 36.1542 625.851 Q39.8145 628.589 46.212 628.589 Q52.6095 628.589 56.3017 625.883 Q59.9619 623.146 59.9619 618.403 Q59.9619 613.725 56.2698 610.987 Q52.5777 608.25 46.212 608.25 Q39.8781 608.25 36.186 610.987 Q32.4621 613.725 32.4621 618.403 M27.4968 618.403 Q27.4968 610.765 32.4621 606.404 Q37.4273 602.044 46.212 602.044 Q54.9649 602.044 59.9619 606.404 Q64.9272 610.765 64.9272 618.403 Q64.9272 626.074 59.9619 630.435 Q54.9649 634.763 46.212 634.763 Q37.4273 634.763 32.4621 630.435 Q27.4968 626.074 27.4968 618.403 Z" fill="#000000" fill-rule="nonzero" fill-opacity="1" /><path clip-path="url(#clip950)" d="M14.479 592.336 L14.479 586.479 L64.0042 586.479 L64.0042 592.336 L14.479 592.336 Z" fill="#000000" fill-rule="nonzero" fill-opacity="1" /><path clip-path="url(#clip950)" d="M49.9359 574.83 L28.3562 574.83 L28.3562 568.974 L49.7131 568.974 Q54.7739 568.974 57.3202 567 Q59.8346 565.027 59.8346 561.08 Q59.8346 556.338 56.8109 553.601 Q53.7872 550.832 48.5673 550.832 L28.3562 550.832 L28.3562 544.975 L64.0042 544.975 L64.0042 550.832 L58.5296 550.832 Q61.7762 552.964 63.3676 555.797 Q64.9272 558.598 64.9272 562.322 Q64.9272 568.465 61.1078 571.647 Q57.2883 574.83 49.9359 574.83 M27.4968 560.094 L27.4968 560.094 Z" fill="#000000" fill-rule="nonzero" fill-opacity="1" /><path clip-path="url(#clip950)" d="M18.2347 527.119 L28.3562 527.119 L28.3562 515.056 L32.9077 515.056 L32.9077 527.119 L52.2594 527.119 Q56.6199 527.119 57.8613 525.942 Q59.1026 524.732 59.1026 521.072 L59.1026 515.056 L64.0042 515.056 L64.0042 521.072 Q64.0042 527.851 61.4897 530.429 Q58.9434 533.008 52.2594 533.008 L32.9077 533.008 L32.9077 537.304 L28.3562 537.304 L28.3562 533.008 L18.2347 533.008 L18.2347 527.119 Z" fill="#000000" fill-rule="nonzero" fill-opacity="1" /><path clip-path="url(#clip950)" d="M28.3562 507.354 L28.3562 501.497 L64.0042 501.497 L64.0042 507.354 L28.3562 507.354 M14.479 507.354 L14.479 501.497 L21.895 501.497 L21.895 507.354 L14.479 507.354 Z" fill="#000000" fill-rule="nonzero" fill-opacity="1" /><path clip-path="url(#clip950)" d="M32.4621 475.43 Q32.4621 480.14 36.1542 482.878 Q39.8145 485.615 46.212 485.615 Q52.6095 485.615 56.3017 482.909 Q59.9619 480.172 59.9619 475.43 Q59.9619 470.751 56.2698 468.014 Q52.5777 465.276 46.212 465.276 Q39.8781 465.276 36.186 468.014 Q32.4621 470.751 32.4621 475.43 M27.4968 475.43 Q27.4968 467.791 32.4621 463.43 Q37.4273 459.07 46.212 459.07 Q54.9649 459.07 59.9619 463.43 Q64.9272 467.791 64.9272 475.43 Q64.9272 483.1 59.9619 487.461 Q54.9649 491.79 46.212 491.79 Q37.4273 491.79 32.4621 487.461 Q27.4968 483.1 27.4968 475.43 Z" fill="#000000" fill-rule="nonzero" fill-opacity="1" /><path clip-path="url(#clip950)" d="M42.4881 419.73 L64.0042 419.73 L64.0042 425.586 L42.679 425.586 Q37.6183 425.586 35.1038 427.56 Q32.5894 429.533 32.5894 433.48 Q32.5894 438.222 35.6131 440.959 Q38.6368 443.697 43.8567 443.697 L64.0042 443.697 L64.0042 449.585 L28.3562 449.585 L28.3562 443.697 L33.8944 443.697 Q30.6797 441.596 29.0883 438.763 Q27.4968 435.899 27.4968 432.175 Q27.4968 426.032 31.3163 422.881 Q35.1038 419.73 42.4881 419.73 Z" fill="#000000" fill-rule="nonzero" fill-opacity="1" /><path clip-path="url(#clip950)" d="M14.1925 400.505 L79.3773 400.505 L79.3773 405.916 L14.1925 405.916 L14.1925 400.505 Z" fill="#000000" fill-rule="nonzero" fill-opacity="1" /><path clip-path="url(#clip950)" d="M462.114 39.9885 L462.114 62.7141 L472.403 62.7141 Q478.115 62.7141 481.234 59.7569 Q484.354 56.7998 484.354 51.331 Q484.354 45.9028 481.234 42.9457 Q478.115 39.9885 472.403 39.9885 L462.114 39.9885 M453.931 33.264 L472.403 33.264 Q482.571 33.264 487.756 37.882 Q492.982 42.4596 492.982 51.331 Q492.982 60.2835 487.756 64.8611 Q482.571 69.4386 472.403 69.4386 L462.114 69.4386 L462.114 93.744 L453.931 93.744 L453.931 33.264 Z" fill="#000000" fill-rule="nonzero" fill-opacity="1" /><path clip-path="url(#clip950)" d="M503.636 30.7119 L511.09 30.7119 L511.09 93.744 L503.636 93.744 L503.636 30.7119 Z" fill="#000000" fill-rule="nonzero" fill-opacity="1" /><path clip-path="url(#clip950)" d="M544.266 53.5995 Q538.271 53.5995 534.787 58.2986 Q531.304 62.9571 531.304 71.0994 Q531.304 79.2418 534.747 83.9408 Q538.231 88.5994 544.266 88.5994 Q550.221 88.5994 553.705 83.9003 Q557.189 79.2013 557.189 71.0994 Q557.189 63.0381 553.705 58.3391 Q550.221 53.5995 544.266 53.5995 M544.266 47.2801 Q553.989 47.2801 559.538 53.5995 Q565.088 59.9189 565.088 71.0994 Q565.088 82.2394 559.538 88.5994 Q553.989 94.9188 544.266 94.9188 Q534.504 94.9188 528.954 88.5994 Q523.445 82.2394 523.445 71.0994 Q523.445 59.9189 528.954 53.5995 Q534.504 47.2801 544.266 47.2801 Z" fill="#000000" fill-rule="nonzero" fill-opacity="1" /><path clip-path="url(#clip950)" d="M584.816 35.492 L584.816 48.3739 L600.169 48.3739 L600.169 54.1667 L584.816 54.1667 L584.816 78.7962 Q584.816 84.3459 586.315 85.9258 Q587.854 87.5056 592.513 87.5056 L600.169 87.5056 L600.169 93.744 L592.513 93.744 Q583.884 93.744 580.603 90.5438 Q577.322 87.3031 577.322 78.7962 L577.322 54.1667 L571.853 54.1667 L571.853 48.3739 L577.322 48.3739 L577.322 35.492 L584.816 35.492 Z" fill="#000000" fill-rule="nonzero" fill-opacity="1" /><path clip-path="url(#clip950)" d="M617.345 35.492 L617.345 48.3739 L632.698 48.3739 L632.698 54.1667 L617.345 54.1667 L617.345 78.7962 Q617.345 84.3459 618.844 85.9258 Q620.383 87.5056 625.041 87.5056 L632.698 87.5056 L632.698 93.744 L625.041 93.744 Q616.413 93.744 613.132 90.5438 Q609.851 87.3031 609.851 78.7962 L609.851 54.1667 L604.382 54.1667 L604.382 48.3739 L609.851 48.3739 L609.851 35.492 L617.345 35.492 Z" fill="#000000" fill-rule="nonzero" fill-opacity="1" /><path clip-path="url(#clip950)" d="M642.501 48.3739 L649.955 48.3739 L649.955 93.744 L642.501 93.744 L642.501 48.3739 M642.501 30.7119 L649.955 30.7119 L649.955 40.1505 L642.501 40.1505 L642.501 30.7119 Z" fill="#000000" fill-rule="nonzero" fill-opacity="1" /><path clip-path="url(#clip950)" d="M703.264 66.3599 L703.264 93.744 L695.811 93.744 L695.811 66.6029 Q695.811 60.162 693.299 56.9618 Q690.788 53.7616 685.765 53.7616 Q679.729 53.7616 676.245 57.6099 Q672.761 61.4583 672.761 68.1018 L672.761 93.744 L665.267 93.744 L665.267 48.3739 L672.761 48.3739 L672.761 55.4224 Q675.435 51.331 679.04 49.3056 Q682.686 47.2801 687.425 47.2801 Q695.244 47.2801 699.254 52.1412 Q703.264 56.9618 703.264 66.3599 Z" fill="#000000" fill-rule="nonzero" fill-opacity="1" /><path clip-path="url(#clip950)" d="M747.986 70.5323 Q747.986 62.4305 744.624 57.9745 Q741.302 53.5185 735.267 53.5185 Q729.271 53.5185 725.909 57.9745 Q722.587 62.4305 722.587 70.5323 Q722.587 78.5936 725.909 83.0496 Q729.271 87.5056 735.267 87.5056 Q741.302 87.5056 744.624 83.0496 Q747.986 78.5936 747.986 70.5323 M755.44 88.1132 Q755.44 99.6988 750.295 105.33 Q745.151 111.001 734.537 111.001 Q730.608 111.001 727.124 110.393 Q723.64 109.826 720.359 108.611 L720.359 101.36 Q723.64 103.142 726.841 103.993 Q730.041 104.843 733.363 104.843 Q740.695 104.843 744.341 100.995 Q747.986 97.1873 747.986 89.45 L747.986 85.7637 Q745.677 89.7741 742.072 91.7591 Q738.467 93.744 733.444 93.744 Q725.099 93.744 719.995 87.3841 Q714.891 81.0242 714.891 70.5323 Q714.891 60 719.995 53.64 Q725.099 47.2801 733.444 47.2801 Q738.467 47.2801 742.072 49.2651 Q745.677 51.25 747.986 55.2604 L747.986 48.3739 L755.44 48.3739 L755.44 88.1132 Z" fill="#000000" fill-rule="nonzero" fill-opacity="1" /><path clip-path="url(#clip950)" d="M804.537 35.492 L804.537 48.3739 L819.89 48.3739 L819.89 54.1667 L804.537 54.1667 L804.537 78.7962 Q804.537 84.3459 806.036 85.9258 Q807.575 87.5056 812.234 87.5056 L819.89 87.5056 L819.89 93.744 L812.234 93.744 Q803.605 93.744 800.324 90.5438 Q797.043 87.3031 797.043 78.7962 L797.043 54.1667 L791.574 54.1667 L791.574 48.3739 L797.043 48.3739 L797.043 35.492 L804.537 35.492 Z" fill="#000000" fill-rule="nonzero" fill-opacity="1" /><path clip-path="url(#clip950)" d="M867.407 66.3599 L867.407 93.744 L859.953 93.744 L859.953 66.6029 Q859.953 60.162 857.442 56.9618 Q854.93 53.7616 849.907 53.7616 Q843.871 53.7616 840.388 57.6099 Q836.904 61.4583 836.904 68.1018 L836.904 93.744 L829.41 93.744 L829.41 30.7119 L836.904 30.7119 L836.904 55.4224 Q839.577 51.331 843.183 49.3056 Q846.828 47.2801 851.568 47.2801 Q859.386 47.2801 863.397 52.1412 Q867.407 56.9618 867.407 66.3599 Z" fill="#000000" fill-rule="nonzero" fill-opacity="1" /><path clip-path="url(#clip950)" d="M921.082 69.1955 L921.082 72.8413 L886.811 72.8413 Q887.297 80.5381 891.429 84.589 Q895.601 88.5994 903.015 88.5994 Q907.308 88.5994 911.319 87.5461 Q915.37 86.4929 919.34 84.3864 L919.34 91.435 Q915.329 93.1364 911.116 94.0276 Q906.903 94.9188 902.569 94.9188 Q891.713 94.9188 885.353 88.5994 Q879.033 82.2799 879.033 71.5045 Q879.033 60.3645 885.029 53.8426 Q891.064 47.2801 901.273 47.2801 Q910.428 47.2801 915.734 53.1944 Q921.082 59.0683 921.082 69.1955 M913.628 67.008 Q913.547 60.8912 910.185 57.2454 Q906.863 53.5995 901.354 53.5995 Q895.115 53.5995 891.348 57.1238 Q887.621 60.6481 887.054 67.0485 L913.628 67.008 Z" fill="#000000" fill-rule="nonzero" fill-opacity="1" /><path clip-path="url(#clip950)" d="M989.542 55.2604 L989.542 30.7119 L996.996 30.7119 L996.996 93.744 L989.542 93.744 L989.542 86.9385 Q987.192 90.9894 983.587 92.9743 Q980.022 94.9188 974.999 94.9188 Q966.776 94.9188 961.591 88.3563 Q956.446 81.7938 956.446 71.0994 Q956.446 60.4051 961.591 53.8426 Q966.776 47.2801 974.999 47.2801 Q980.022 47.2801 983.587 49.2651 Q987.192 51.2095 989.542 55.2604 M964.143 71.0994 Q964.143 79.3228 967.505 84.0218 Q970.908 88.6804 976.822 88.6804 Q982.736 88.6804 986.139 84.0218 Q989.542 79.3228 989.542 71.0994 Q989.542 62.8761 986.139 58.2176 Q982.736 53.5185 976.822 53.5185 Q970.908 53.5185 967.505 58.2176 Q964.143 62.8761 964.143 71.0994 Z" fill="#000000" fill-rule="nonzero" fill-opacity="1" /><path clip-path="url(#clip950)" d="M1012.35 48.3739 L1019.8 48.3739 L1019.8 93.744 L1012.35 93.744 L1012.35 48.3739 M1012.35 30.7119 L1019.8 30.7119 L1019.8 40.1505 L1012.35 40.1505 L1012.35 30.7119 Z" fill="#000000" fill-rule="nonzero" fill-opacity="1" /><path clip-path="url(#clip950)" d="M1058.37 30.7119 L1058.37 36.9098 L1051.24 36.9098 Q1047.23 36.9098 1045.65 38.5302 Q1044.11 40.1505 1044.11 44.3635 L1044.11 48.3739 L1056.38 48.3739 L1056.38 54.1667 L1044.11 54.1667 L1044.11 93.744 L1036.61 93.744 L1036.61 54.1667 L1029.48 54.1667 L1029.48 48.3739 L1036.61 48.3739 L1036.61 45.2142 Q1036.61 37.639 1040.14 34.1957 Q1043.66 30.7119 1051.32 30.7119 L1058.37 30.7119 Z" fill="#000000" fill-rule="nonzero" fill-opacity="1" /><path clip-path="url(#clip950)" d="M1087.57 30.7119 L1087.57 36.9098 L1080.44 36.9098 Q1076.43 36.9098 1074.85 38.5302 Q1073.31 40.1505 1073.31 44.3635 L1073.31 48.3739 L1085.59 48.3739 L1085.59 54.1667 L1073.31 54.1667 L1073.31 93.744 L1065.82 93.744 L1065.82 54.1667 L1058.69 54.1667 L1058.69 48.3739 L1065.82 48.3739 L1065.82 45.2142 Q1065.82 37.639 1069.34 34.1957 Q1072.87 30.7119 1080.53 30.7119 L1087.57 30.7119 Z" fill="#000000" fill-rule="nonzero" fill-opacity="1" /><path clip-path="url(#clip950)" d="M1132.62 69.1955 L1132.62 72.8413 L1098.35 72.8413 Q1098.84 80.5381 1102.97 84.589 Q1107.14 88.5994 1114.55 88.5994 Q1118.85 88.5994 1122.86 87.5461 Q1126.91 86.4929 1130.88 84.3864 L1130.88 91.435 Q1126.87 93.1364 1122.65 94.0276 Q1118.44 94.9188 1114.11 94.9188 Q1103.25 94.9188 1096.89 88.5994 Q1090.57 82.2799 1090.57 71.5045 Q1090.57 60.3645 1096.57 53.8426 Q1102.6 47.2801 1112.81 47.2801 Q1121.97 47.2801 1127.27 53.1944 Q1132.62 59.0683 1132.62 69.1955 M1125.17 67.008 Q1125.09 60.8912 1121.72 57.2454 Q1118.4 53.5995 1112.89 53.5995 Q1106.65 53.5995 1102.89 57.1238 Q1099.16 60.6481 1098.59 67.0485 L1125.17 67.008 Z" fill="#000000" fill-rule="nonzero" fill-opacity="1" /><path clip-path="url(#clip950)" d="M1171.14 55.3414 Q1169.89 54.6123 1168.39 54.2882 Q1166.93 53.9236 1165.15 53.9236 Q1158.83 53.9236 1155.43 58.0555 Q1152.06 62.1469 1152.06 69.8437 L1152.06 93.744 L1144.57 93.744 L1144.57 48.3739 L1152.06 48.3739 L1152.06 55.4224 Q1154.41 51.2905 1158.18 49.3056 Q1161.95 47.2801 1167.34 47.2801 Q1168.11 47.2801 1169.04 47.4017 Q1169.97 47.4827 1171.1 47.6852 L1171.14 55.3414 Z" fill="#000000" fill-rule="nonzero" fill-opacity="1" /><path clip-path="url(#clip950)" d="M1215.95 69.1955 L1215.95 72.8413 L1181.68 72.8413 Q1182.16 80.5381 1186.29 84.589 Q1190.47 88.5994 1197.88 88.5994 Q1202.17 88.5994 1206.18 87.5461 Q1210.24 86.4929 1214.2 84.3864 L1214.2 91.435 Q1210.19 93.1364 1205.98 94.0276 Q1201.77 94.9188 1197.43 94.9188 Q1186.58 94.9188 1180.22 88.5994 Q1173.9 82.2799 1173.9 71.5045 Q1173.9 60.3645 1179.89 53.8426 Q1185.93 47.2801 1196.14 47.2801 Q1205.29 47.2801 1210.6 53.1944 Q1215.95 59.0683 1215.95 69.1955 M1208.49 67.008 Q1208.41 60.8912 1205.05 57.2454 Q1201.73 53.5995 1196.22 53.5995 Q1189.98 53.5995 1186.21 57.1238 Q1182.49 60.6481 1181.92 67.0485 L1208.49 67.008 Z" fill="#000000" fill-rule="nonzero" fill-opacity="1" /><path clip-path="url(#clip950)" d="M1265.89 66.3599 L1265.89 93.744 L1258.44 93.744 L1258.44 66.6029 Q1258.44 60.162 1255.93 56.9618 Q1253.42 53.7616 1248.39 53.7616 Q1242.36 53.7616 1238.87 57.6099 Q1235.39 61.4583 1235.39 68.1018 L1235.39 93.744 L1227.9 93.744 L1227.9 48.3739 L1235.39 48.3739 L1235.39 55.4224 Q1238.06 51.331 1241.67 49.3056 Q1245.32 47.2801 1250.06 47.2801 Q1257.87 47.2801 1261.88 52.1412 Q1265.89 56.9618 1265.89 66.3599 Z" fill="#000000" fill-rule="nonzero" fill-opacity="1" /><path clip-path="url(#clip950)" d="M1313.41 50.1158 L1313.41 57.0833 Q1310.25 55.3414 1307.05 54.4907 Q1303.89 53.5995 1300.65 53.5995 Q1293.4 53.5995 1289.39 58.2176 Q1285.38 62.7951 1285.38 71.0994 Q1285.38 79.4038 1289.39 84.0218 Q1293.4 88.5994 1300.65 88.5994 Q1303.89 88.5994 1307.05 87.7487 Q1310.25 86.8575 1313.41 85.1156 L1313.41 92.0021 Q1310.29 93.4604 1306.93 94.1896 Q1303.61 94.9188 1299.84 94.9188 Q1289.59 94.9188 1283.56 88.4778 Q1277.52 82.0369 1277.52 71.0994 Q1277.52 60 1283.6 53.64 Q1289.71 47.2801 1300.33 47.2801 Q1303.77 47.2801 1307.05 48.0093 Q1310.33 48.6979 1313.41 50.1158 Z" fill="#000000" fill-rule="nonzero" fill-opacity="1" /><path clip-path="url(#clip950)" d="M1365.18 69.1955 L1365.18 72.8413 L1330.91 72.8413 Q1331.4 80.5381 1335.53 84.589 Q1339.7 88.5994 1347.12 88.5994 Q1351.41 88.5994 1355.42 87.5461 Q1359.47 86.4929 1363.44 84.3864 L1363.44 91.435 Q1359.43 93.1364 1355.22 94.0276 Q1351 94.9188 1346.67 94.9188 Q1335.81 94.9188 1329.45 88.5994 Q1323.13 82.2799 1323.13 71.5045 Q1323.13 60.3645 1329.13 53.8426 Q1335.16 47.2801 1345.37 47.2801 Q1354.53 47.2801 1359.83 53.1944 Q1365.18 59.0683 1365.18 69.1955 M1357.73 67.008 Q1357.65 60.8912 1354.29 57.2454 Q1350.96 53.5995 1345.45 53.5995 Q1339.22 53.5995 1335.45 57.1238 Q1331.72 60.6481 1331.15 67.0485 L1357.73 67.008 Z" fill="#000000" fill-rule="nonzero" fill-opacity="1" /><path clip-path="url(#clip950)" d="M1403.79 48.3739 L1411.24 48.3739 L1411.24 93.744 L1403.79 93.744 L1403.79 48.3739 M1403.79 30.7119 L1411.24 30.7119 L1411.24 40.1505 L1403.79 40.1505 L1403.79 30.7119 Z" fill="#000000" fill-rule="nonzero" fill-opacity="1" /><path clip-path="url(#clip950)" d="M1464.55 66.3599 L1464.55 93.744 L1457.1 93.744 L1457.1 66.6029 Q1457.1 60.162 1454.59 56.9618 Q1452.07 53.7616 1447.05 53.7616 Q1441.02 53.7616 1437.53 57.6099 Q1434.05 61.4583 1434.05 68.1018 L1434.05 93.744 L1426.55 93.744 L1426.55 48.3739 L1434.05 48.3739 L1434.05 55.4224 Q1436.72 51.331 1440.33 49.3056 Q1443.97 47.2801 1448.71 47.2801 Q1456.53 47.2801 1460.54 52.1412 Q1464.55 56.9618 1464.55 66.3599 Z" fill="#000000" fill-rule="nonzero" fill-opacity="1" /><path clip-path="url(#clip950)" d="M1513.16 35.492 L1513.16 48.3739 L1528.51 48.3739 L1528.51 54.1667 L1513.16 54.1667 L1513.16 78.7962 Q1513.16 84.3459 1514.66 85.9258 Q1516.2 87.5056 1520.86 87.5056 L1528.51 87.5056 L1528.51 93.744 L1520.86 93.744 Q1512.23 93.744 1508.95 90.5438 Q1505.67 87.3031 1505.67 78.7962 L1505.67 54.1667 L1500.2 54.1667 L1500.2 48.3739 L1505.67 48.3739 L1505.67 35.492 L1513.16 35.492 Z" fill="#000000" fill-rule="nonzero" fill-opacity="1" /><path clip-path="url(#clip950)" d="M1576.03 66.3599 L1576.03 93.744 L1568.58 93.744 L1568.58 66.6029 Q1568.58 60.162 1566.07 56.9618 Q1563.55 53.7616 1558.53 53.7616 Q1552.5 53.7616 1549.01 57.6099 Q1545.53 61.4583 1545.53 68.1018 L1545.53 93.744 L1538.03 93.744 L1538.03 30.7119 L1545.53 30.7119 L1545.53 55.4224 Q1548.2 51.331 1551.81 49.3056 Q1555.45 47.2801 1560.19 47.2801 Q1568.01 47.2801 1572.02 52.1412 Q1576.03 56.9618 1576.03 66.3599 Z" fill="#000000" fill-rule="nonzero" fill-opacity="1" /><path clip-path="url(#clip950)" d="M1629.71 69.1955 L1629.71 72.8413 L1595.44 72.8413 Q1595.92 80.5381 1600.05 84.589 Q1604.23 88.5994 1611.64 88.5994 Q1615.93 88.5994 1619.94 87.5461 Q1623.99 86.4929 1627.96 84.3864 L1627.96 91.435 Q1623.95 93.1364 1619.74 94.0276 Q1615.53 94.9188 1611.19 94.9188 Q1600.34 94.9188 1593.98 88.5994 Q1587.66 82.2799 1587.66 71.5045 Q1587.66 60.3645 1593.65 53.8426 Q1599.69 47.2801 1609.9 47.2801 Q1619.05 47.2801 1624.36 53.1944 Q1629.71 59.0683 1629.71 69.1955 M1622.25 67.008 Q1622.17 60.8912 1618.81 57.2454 Q1615.49 53.5995 1609.98 53.5995 Q1603.74 53.5995 1599.97 57.1238 Q1596.25 60.6481 1595.68 67.0485 L1622.25 67.008 Z" fill="#000000" fill-rule="nonzero" fill-opacity="1" /><path clip-path="url(#clip950)" d="M1659.52 53.5995 Q1653.53 53.5995 1650.04 58.2986 Q1646.56 62.9571 1646.56 71.0994 Q1646.56 79.2418 1650 83.9408 Q1653.49 88.5994 1659.52 88.5994 Q1665.48 88.5994 1668.96 83.9003 Q1672.44 79.2013 1672.44 71.0994 Q1672.44 63.0381 1668.96 58.3391 Q1665.48 53.5995 1659.52 53.5995 M1659.52 47.2801 Q1669.24 47.2801 1674.79 53.5995 Q1680.34 59.9189 1680.34 71.0994 Q1680.34 82.2394 1674.79 88.5994 Q1669.24 94.9188 1659.52 94.9188 Q1649.76 94.9188 1644.21 88.5994 Q1638.7 82.2394 1638.7 71.0994 Q1638.7 59.9189 1644.21 53.5995 Q1649.76 47.2801 1659.52 47.2801 Z" fill="#000000" fill-rule="nonzero" fill-opacity="1" /><path clip-path="url(#clip950)" d="M1718.99 55.3414 Q1717.73 54.6123 1716.23 54.2882 Q1714.78 53.9236 1712.99 53.9236 Q1706.67 53.9236 1703.27 58.0555 Q1699.91 62.1469 1699.91 69.8437 L1699.91 93.744 L1692.41 93.744 L1692.41 48.3739 L1699.91 48.3739 L1699.91 55.4224 Q1702.26 51.2905 1706.03 49.3056 Q1709.79 47.2801 1715.18 47.2801 Q1715.95 47.2801 1716.88 47.4017 Q1717.81 47.4827 1718.95 47.6852 L1718.99 55.3414 Z" fill="#000000" fill-rule="nonzero" fill-opacity="1" /><path clip-path="url(#clip950)" d="M1763.79 69.1955 L1763.79 72.8413 L1729.52 72.8413 Q1730.01 80.5381 1734.14 84.589 Q1738.31 88.5994 1745.72 88.5994 Q1750.02 88.5994 1754.03 87.5461 Q1758.08 86.4929 1762.05 84.3864 L1762.05 91.435 Q1758.04 93.1364 1753.83 94.0276 Q1749.61 94.9188 1745.28 94.9188 Q1734.42 94.9188 1728.06 88.5994 Q1721.74 82.2799 1721.74 71.5045 Q1721.74 60.3645 1727.74 53.8426 Q1733.77 47.2801 1743.98 47.2801 Q1753.14 47.2801 1758.44 53.1944 Q1763.79 59.0683 1763.79 69.1955 M1756.34 67.008 Q1756.26 60.8912 1752.89 57.2454 Q1749.57 53.5995 1744.06 53.5995 Q1737.82 53.5995 1734.06 57.1238 Q1730.33 60.6481 1729.76 67.0485 L1756.34 67.008 Z" fill="#000000" fill-rule="nonzero" fill-opacity="1" /><path clip-path="url(#clip950)" d="M1783.4 35.492 L1783.4 48.3739 L1798.75 48.3739 L1798.75 54.1667 L1783.4 54.1667 L1783.4 78.7962 Q1783.4 84.3459 1784.9 85.9258 Q1786.44 87.5056 1791.09 87.5056 L1798.75 87.5056 L1798.75 93.744 L1791.09 93.744 Q1782.47 93.744 1779.18 90.5438 Q1775.9 87.3031 1775.9 78.7962 L1775.9 54.1667 L1770.43 54.1667 L1770.43 48.3739 L1775.9 48.3739 L1775.9 35.492 L1783.4 35.492 Z" fill="#000000" fill-rule="nonzero" fill-opacity="1" /><path clip-path="url(#clip950)" d="M1808.55 48.3739 L1816.01 48.3739 L1816.01 93.744 L1808.55 93.744 L1808.55 48.3739 M1808.55 30.7119 L1816.01 30.7119 L1816.01 40.1505 L1808.55 40.1505 L1808.55 30.7119 Z" fill="#000000" fill-rule="nonzero" fill-opacity="1" /><path clip-path="url(#clip950)" d="M1864.25 50.1158 L1864.25 57.0833 Q1861.09 55.3414 1857.89 54.4907 Q1854.73 53.5995 1851.49 53.5995 Q1844.24 53.5995 1840.23 58.2176 Q1836.22 62.7951 1836.22 71.0994 Q1836.22 79.4038 1840.23 84.0218 Q1844.24 88.5994 1851.49 88.5994 Q1854.73 88.5994 1857.89 87.7487 Q1861.09 86.8575 1864.25 85.1156 L1864.25 92.0021 Q1861.13 93.4604 1857.77 94.1896 Q1854.45 94.9188 1850.68 94.9188 Q1840.43 94.9188 1834.4 88.4778 Q1828.36 82.0369 1828.36 71.0994 Q1828.36 60 1834.44 53.64 Q1840.56 47.2801 1851.17 47.2801 Q1854.61 47.2801 1857.89 48.0093 Q1861.17 48.6979 1864.25 50.1158 Z" fill="#000000" fill-rule="nonzero" fill-opacity="1" /><path clip-path="url(#clip950)" d="M1897.84 70.9374 Q1888.8 70.9374 1885.32 73.0034 Q1881.83 75.0693 1881.83 80.0519 Q1881.83 84.0218 1884.43 86.3714 Q1887.06 88.6804 1891.56 88.6804 Q1897.75 88.6804 1901.48 84.3054 Q1905.25 79.8899 1905.25 72.5983 L1905.25 70.9374 L1897.84 70.9374 M1912.7 67.8587 L1912.7 93.744 L1905.25 93.744 L1905.25 86.8575 Q1902.7 90.9894 1898.89 92.9743 Q1895.08 94.9188 1889.57 94.9188 Q1882.6 94.9188 1878.47 91.0299 Q1874.38 87.1005 1874.38 80.5381 Q1874.38 72.8818 1879.48 68.993 Q1884.63 65.1041 1894.8 65.1041 L1905.25 65.1041 L1905.25 64.3749 Q1905.25 59.2303 1901.85 56.4352 Q1898.48 53.5995 1892.37 53.5995 Q1888.48 53.5995 1884.79 54.5312 Q1881.11 55.463 1877.7 57.3264 L1877.7 50.4398 Q1881.79 48.86 1885.64 48.0903 Q1889.49 47.2801 1893.14 47.2801 Q1902.98 47.2801 1907.84 52.3843 Q1912.7 57.4884 1912.7 67.8587 Z" fill="#000000" fill-rule="nonzero" fill-opacity="1" /><path clip-path="url(#clip950)" d="M1928.06 30.7119 L1935.51 30.7119 L1935.51 93.744 L1928.06 93.744 L1928.06 30.7119 Z" fill="#000000" fill-rule="nonzero" fill-opacity="1" /><path clip-path="url(#clip950)" d="M1998.1 70.9374 Q1989.06 70.9374 1985.58 73.0034 Q1982.09 75.0693 1982.09 80.0519 Q1982.09 84.0218 1984.69 86.3714 Q1987.32 88.6804 1991.82 88.6804 Q1998.01 88.6804 2001.74 84.3054 Q2005.51 79.8899 2005.51 72.5983 L2005.51 70.9374 L1998.1 70.9374 M2012.96 67.8587 L2012.96 93.744 L2005.51 93.744 L2005.51 86.8575 Q2002.96 90.9894 1999.15 92.9743 Q1995.34 94.9188 1989.83 94.9188 Q1982.86 94.9188 1978.73 91.0299 Q1974.64 87.1005 1974.64 80.5381 Q1974.64 72.8818 1979.74 68.993 Q1984.89 65.1041 1995.06 65.1041 L2005.51 65.1041 L2005.51 64.3749 Q2005.51 59.2303 2002.11 56.4352 Q1998.74 53.5995 1992.63 53.5995 Q1988.74 53.5995 1985.05 54.5312 Q1981.37 55.463 1977.96 57.3264 L1977.96 50.4398 Q1982.05 48.86 1985.9 48.0903 Q1989.75 47.2801 1993.4 47.2801 Q2003.24 47.2801 2008.1 52.3843 Q2012.96 57.4884 2012.96 67.8587 Z" fill="#000000" fill-rule="nonzero" fill-opacity="1" /><path clip-path="url(#clip950)" d="M2066.03 66.3599 L2066.03 93.744 L2058.58 93.744 L2058.58 66.6029 Q2058.58 60.162 2056.06 56.9618 Q2053.55 53.7616 2048.53 53.7616 Q2042.49 53.7616 2039.01 57.6099 Q2035.53 61.4583 2035.53 68.1018 L2035.53 93.744 L2028.03 93.744 L2028.03 48.3739 L2035.53 48.3739 L2035.53 55.4224 Q2038.2 51.331 2041.8 49.3056 Q2045.45 47.2801 2050.19 47.2801 Q2058.01 47.2801 2062.02 52.1412 Q2066.03 56.9618 2066.03 66.3599 Z" fill="#000000" fill-rule="nonzero" fill-opacity="1" /><path clip-path="url(#clip950)" d="M2110.75 55.2604 L2110.75 30.7119 L2118.2 30.7119 L2118.2 93.744 L2110.75 93.744 L2110.75 86.9385 Q2108.4 90.9894 2104.8 92.9743 Q2101.23 94.9188 2096.21 94.9188 Q2087.99 94.9188 2082.8 88.3563 Q2077.66 81.7938 2077.66 71.0994 Q2077.66 60.4051 2082.8 53.8426 Q2087.99 47.2801 2096.21 47.2801 Q2101.23 47.2801 2104.8 49.2651 Q2108.4 51.2095 2110.75 55.2604 M2085.35 71.0994 Q2085.35 79.3228 2088.71 84.0218 Q2092.12 88.6804 2098.03 88.6804 Q2103.95 88.6804 2107.35 84.0218 Q2110.75 79.3228 2110.75 71.0994 Q2110.75 62.8761 2107.35 58.2176 Q2103.95 53.5185 2098.03 53.5185 Q2092.12 53.5185 2088.71 58.2176 Q2085.35 62.8761 2085.35 71.0994 Z" fill="#000000" fill-rule="nonzero" fill-opacity="1" /><path clip-path="url(#clip950)" d="M232.286 140.836 L232.286 147.803 Q229.126 146.061 225.926 145.211 Q222.766 144.32 219.526 144.32 Q212.275 144.32 208.264 148.938 Q204.254 153.515 204.254 161.819 Q204.254 170.124 208.264 174.742 Q212.275 179.319 219.526 179.319 Q222.766 179.319 225.926 178.469 Q229.126 177.577 232.286 175.836 L232.286 182.722 Q229.167 184.18 225.805 184.91 Q222.483 185.639 218.716 185.639 Q208.467 185.639 202.431 179.198 Q196.395 172.757 196.395 161.819 Q196.395 150.72 202.471 144.36 Q208.588 138 219.202 138 Q222.645 138 225.926 138.729 Q229.207 139.418 232.286 140.836 Z" fill="#000000" fill-rule="nonzero" fill-opacity="1" /><path clip-path="url(#clip950)" d="M262.83 144.32 Q256.835 144.32 253.351 149.019 Q249.867 153.677 249.867 161.819 Q249.867 169.962 253.31 174.661 Q256.794 179.319 262.83 179.319 Q268.785 179.319 272.268 174.62 Q275.752 169.921 275.752 161.819 Q275.752 153.758 272.268 149.059 Q268.785 144.32 262.83 144.32 M262.83 138 Q272.552 138 278.102 144.32 Q283.652 150.639 283.652 161.819 Q283.652 172.959 278.102 179.319 Q272.552 185.639 262.83 185.639 Q253.067 185.639 247.517 179.319 Q242.008 172.959 242.008 161.819 Q242.008 150.639 247.517 144.32 Q253.067 138 262.83 138 Z" fill="#000000" fill-rule="nonzero" fill-opacity="1" /><path clip-path="url(#clip950)" d="M331.331 147.803 Q334.126 142.78 338.015 140.39 Q341.904 138 347.17 138 Q354.259 138 358.107 142.983 Q361.956 147.925 361.956 157.08 L361.956 184.464 L354.461 184.464 L354.461 157.323 Q354.461 150.801 352.152 147.641 Q349.843 144.482 345.104 144.482 Q339.311 144.482 335.949 148.33 Q332.586 152.178 332.586 158.822 L332.586 184.464 L325.092 184.464 L325.092 157.323 Q325.092 150.76 322.783 147.641 Q320.474 144.482 315.654 144.482 Q309.942 144.482 306.58 148.37 Q303.217 152.219 303.217 158.822 L303.217 184.464 L295.723 184.464 L295.723 139.094 L303.217 139.094 L303.217 146.142 Q305.769 141.97 309.334 139.985 Q312.899 138 317.801 138 Q322.743 138 326.186 140.512 Q329.67 143.023 331.331 147.803 Z" fill="#000000" fill-rule="nonzero" fill-opacity="1" /><path clip-path="url(#clip950)" d="M384.033 177.658 L384.033 201.721 L376.539 201.721 L376.539 139.094 L384.033 139.094 L384.033 145.98 Q386.382 141.93 389.947 139.985 Q393.553 138 398.535 138 Q406.799 138 411.944 144.563 Q417.129 151.125 417.129 161.819 Q417.129 172.514 411.944 179.076 Q406.799 185.639 398.535 185.639 Q393.553 185.639 389.947 183.694 Q386.382 181.709 384.033 177.658 M409.392 161.819 Q409.392 153.596 405.989 148.938 Q402.627 144.239 396.712 144.239 Q390.798 144.239 387.395 148.938 Q384.033 153.596 384.033 161.819 Q384.033 170.043 387.395 174.742 Q390.798 179.4 396.712 179.4 Q402.627 179.4 405.989 174.742 Q409.392 170.043 409.392 161.819 Z" fill="#000000" fill-rule="nonzero" fill-opacity="1" /><path clip-path="url(#clip950)" d="M428.714 166.559 L428.714 139.094 L436.168 139.094 L436.168 166.275 Q436.168 172.716 438.68 175.957 Q441.191 179.157 446.214 179.157 Q452.25 179.157 455.734 175.309 Q459.258 171.461 459.258 164.817 L459.258 139.094 L466.712 139.094 L466.712 184.464 L459.258 184.464 L459.258 177.496 Q456.544 181.628 452.939 183.654 Q449.374 185.639 444.634 185.639 Q436.816 185.639 432.765 180.778 Q428.714 175.917 428.714 166.559 M447.47 138 L447.47 138 Z" fill="#000000" fill-rule="nonzero" fill-opacity="1" /><path clip-path="url(#clip950)" d="M489.437 126.212 L489.437 139.094 L504.79 139.094 L504.79 144.887 L489.437 144.887 L489.437 169.516 Q489.437 175.066 490.936 176.646 Q492.476 178.226 497.134 178.226 L504.79 178.226 L504.79 184.464 L497.134 184.464 Q488.506 184.464 485.225 181.264 Q481.943 178.023 481.943 169.516 L481.943 144.887 L476.475 144.887 L476.475 139.094 L481.943 139.094 L481.943 126.212 L489.437 126.212 Z" fill="#000000" fill-rule="nonzero" fill-opacity="1" /><path clip-path="url(#clip950)" d="M553.401 159.916 L553.401 163.561 L519.131 163.561 Q519.617 171.258 523.749 175.309 Q527.921 179.319 535.334 179.319 Q539.628 179.319 543.639 178.266 Q547.689 177.213 551.659 175.106 L551.659 182.155 Q547.649 183.856 543.436 184.748 Q539.223 185.639 534.889 185.639 Q524.032 185.639 517.672 179.319 Q511.353 173 511.353 162.225 Q511.353 151.085 517.348 144.563 Q523.384 138 533.592 138 Q542.747 138 548.054 143.914 Q553.401 149.788 553.401 159.916 M545.948 157.728 Q545.867 151.611 542.504 147.965 Q539.183 144.32 533.673 144.32 Q527.435 144.32 523.668 147.844 Q519.941 151.368 519.374 157.769 L545.948 157.728 Z" fill="#000000" fill-rule="nonzero" fill-opacity="1" /><path clip-path="url(#clip950)" d="M595.49 145.98 L595.49 121.432 L602.944 121.432 L602.944 184.464 L595.49 184.464 L595.49 177.658 Q593.141 181.709 589.535 183.694 Q585.971 185.639 580.947 185.639 Q572.724 185.639 567.539 179.076 Q562.394 172.514 562.394 161.819 Q562.394 151.125 567.539 144.563 Q572.724 138 580.947 138 Q585.971 138 589.535 139.985 Q593.141 141.93 595.49 145.98 M570.091 161.819 Q570.091 170.043 573.453 174.742 Q576.856 179.4 582.77 179.4 Q588.685 179.4 592.087 174.742 Q595.49 170.043 595.49 161.819 Q595.49 153.596 592.087 148.938 Q588.685 144.239 582.77 144.239 Q576.856 144.239 573.453 148.938 Q570.091 153.596 570.091 161.819 Z" fill="#000000" fill-rule="nonzero" fill-opacity="1" /><path clip-path="url(#clip950)" d="M673.592 140.431 L673.592 147.479 Q670.432 145.859 667.029 145.049 Q663.626 144.239 659.981 144.239 Q654.431 144.239 651.636 145.94 Q648.881 147.641 648.881 151.044 Q648.881 153.637 650.866 155.135 Q652.851 156.594 658.846 157.931 L661.398 158.498 Q669.338 160.199 672.66 163.318 Q676.022 166.397 676.022 171.947 Q676.022 178.266 670.999 181.952 Q666.016 185.639 657.266 185.639 Q653.621 185.639 649.651 184.91 Q645.721 184.221 641.346 182.803 L641.346 175.106 Q645.478 177.253 649.489 178.347 Q653.499 179.4 657.428 179.4 Q662.695 179.4 665.53 177.618 Q668.366 175.795 668.366 172.514 Q668.366 169.476 666.3 167.855 Q664.274 166.235 657.347 164.736 L654.755 164.128 Q647.828 162.67 644.749 159.672 Q641.67 156.634 641.67 151.368 Q641.67 144.968 646.207 141.484 Q650.744 138 659.089 138 Q663.221 138 666.867 138.608 Q670.513 139.215 673.592 140.431 Z" fill="#000000" fill-rule="nonzero" fill-opacity="1" /><path clip-path="url(#clip950)" d="M705.472 144.32 Q699.477 144.32 695.993 149.019 Q692.509 153.677 692.509 161.819 Q692.509 169.962 695.953 174.661 Q699.436 179.319 705.472 179.319 Q711.427 179.319 714.911 174.62 Q718.395 169.921 718.395 161.819 Q718.395 153.758 714.911 149.059 Q711.427 144.32 705.472 144.32 M705.472 138 Q715.194 138 720.744 144.32 Q726.294 150.639 726.294 161.819 Q726.294 172.959 720.744 179.319 Q715.194 185.639 705.472 185.639 Q695.71 185.639 690.16 179.319 Q684.651 172.959 684.651 161.819 Q684.651 150.639 690.16 144.32 Q695.71 138 705.472 138 Z" fill="#000000" fill-rule="nonzero" fill-opacity="1" /><path clip-path="url(#clip950)" d="M738.649 121.432 L746.103 121.432 L746.103 184.464 L738.649 184.464 L738.649 121.432 Z" fill="#000000" fill-rule="nonzero" fill-opacity="1" /><path clip-path="url(#clip950)" d="M760.929 166.559 L760.929 139.094 L768.383 139.094 L768.383 166.275 Q768.383 172.716 770.894 175.957 Q773.406 179.157 778.429 179.157 Q784.465 179.157 787.949 175.309 Q791.473 171.461 791.473 164.817 L791.473 139.094 L798.927 139.094 L798.927 184.464 L791.473 184.464 L791.473 177.496 Q788.759 181.628 785.153 183.654 Q781.589 185.639 776.849 185.639 Q769.031 185.639 764.98 180.778 Q760.929 175.917 760.929 166.559 M779.685 138 L779.685 138 Z" fill="#000000" fill-rule="nonzero" fill-opacity="1" /><path clip-path="url(#clip950)" d="M821.652 126.212 L821.652 139.094 L837.005 139.094 L837.005 144.887 L821.652 144.887 L821.652 169.516 Q821.652 175.066 823.151 176.646 Q824.69 178.226 829.349 178.226 L837.005 178.226 L837.005 184.464 L829.349 184.464 Q820.72 184.464 817.439 181.264 Q814.158 178.023 814.158 169.516 L814.158 144.887 L808.689 144.887 L808.689 139.094 L814.158 139.094 L814.158 126.212 L821.652 126.212 Z" fill="#000000" fill-rule="nonzero" fill-opacity="1" /><path clip-path="url(#clip950)" d="M846.808 139.094 L854.262 139.094 L854.262 184.464 L846.808 184.464 L846.808 139.094 M846.808 121.432 L854.262 121.432 L854.262 130.871 L846.808 130.871 L846.808 121.432 Z" fill="#000000" fill-rule="nonzero" fill-opacity="1" /><path clip-path="url(#clip950)" d="M887.439 144.32 Q881.443 144.32 877.96 149.019 Q874.476 153.677 874.476 161.819 Q874.476 169.962 877.919 174.661 Q881.403 179.319 887.439 179.319 Q893.394 179.319 896.877 174.62 Q900.361 169.921 900.361 161.819 Q900.361 153.758 896.877 149.059 Q893.394 144.32 887.439 144.32 M887.439 138 Q897.161 138 902.711 144.32 Q908.26 150.639 908.26 161.819 Q908.26 172.959 902.711 179.319 Q897.161 185.639 887.439 185.639 Q877.676 185.639 872.126 179.319 Q866.617 172.959 866.617 161.819 Q866.617 150.639 872.126 144.32 Q877.676 138 887.439 138 Z" fill="#000000" fill-rule="nonzero" fill-opacity="1" /><path clip-path="url(#clip950)" d="M958.33 157.08 L958.33 184.464 L950.876 184.464 L950.876 157.323 Q950.876 150.882 948.364 147.682 Q945.853 144.482 940.83 144.482 Q934.794 144.482 931.31 148.33 Q927.826 152.178 927.826 158.822 L927.826 184.464 L920.332 184.464 L920.332 139.094 L927.826 139.094 L927.826 146.142 Q930.5 142.051 934.105 140.026 Q937.751 138 942.491 138 Q950.309 138 954.319 142.861 Q958.33 147.682 958.33 157.08 Z" fill="#000000" fill-rule="nonzero" fill-opacity="1" /><path clip-path="url(#clip950)" d="M1002.12 140.431 L1002.12 147.479 Q998.96 145.859 995.557 145.049 Q992.155 144.239 988.509 144.239 Q982.959 144.239 980.164 145.94 Q977.409 147.641 977.409 151.044 Q977.409 153.637 979.394 155.135 Q981.379 156.594 987.375 157.931 L989.927 158.498 Q997.866 160.199 1001.19 163.318 Q1004.55 166.397 1004.55 171.947 Q1004.55 178.266 999.527 181.952 Q994.545 185.639 985.795 185.639 Q982.149 185.639 978.179 184.91 Q974.25 184.221 969.875 182.803 L969.875 175.106 Q974.007 177.253 978.017 178.347 Q982.027 179.4 985.957 179.4 Q991.223 179.4 994.059 177.618 Q996.894 175.795 996.894 172.514 Q996.894 169.476 994.828 167.855 Q992.803 166.235 985.876 164.736 L983.283 164.128 Q976.356 162.67 973.277 159.672 Q970.199 156.634 970.199 151.368 Q970.199 144.968 974.736 141.484 Q979.273 138 987.618 138 Q991.75 138 995.395 138.608 Q999.041 139.215 1002.12 140.431 Z" fill="#000000" fill-rule="nonzero" fill-opacity="1" /><path clip-path="url(#clip950)" d="M1063.41 161.657 Q1054.38 161.657 1050.89 163.723 Q1047.41 165.789 1047.41 170.772 Q1047.41 174.742 1050 177.091 Q1052.63 179.4 1057.13 179.4 Q1063.33 179.4 1067.06 175.025 Q1070.82 170.61 1070.82 163.318 L1070.82 161.657 L1063.41 161.657 M1078.28 158.579 L1078.28 184.464 L1070.82 184.464 L1070.82 177.577 Q1068.27 181.709 1064.46 183.694 Q1060.66 185.639 1055.15 185.639 Q1048.18 185.639 1044.05 181.75 Q1039.96 177.821 1039.96 171.258 Q1039.96 163.602 1045.06 159.713 Q1050.2 155.824 1060.37 155.824 L1070.82 155.824 L1070.82 155.095 Q1070.82 149.95 1067.42 147.155 Q1064.06 144.32 1057.94 144.32 Q1054.05 144.32 1050.37 145.251 Q1046.68 146.183 1043.28 148.046 L1043.28 141.16 Q1047.37 139.58 1051.22 138.81 Q1055.07 138 1058.71 138 Q1068.55 138 1073.42 143.104 Q1078.28 148.208 1078.28 158.579 Z" fill="#000000" fill-rule="nonzero" fill-opacity="1" /><path clip-path="url(#clip950)" d="M1123.48 161.252 Q1123.48 153.151 1120.12 148.695 Q1116.8 144.239 1110.77 144.239 Q1104.77 144.239 1101.41 148.695 Q1098.09 153.151 1098.09 161.252 Q1098.09 169.314 1101.41 173.77 Q1104.77 178.226 1110.77 178.226 Q1116.8 178.226 1120.12 173.77 Q1123.48 169.314 1123.48 161.252 M1130.94 178.833 Q1130.94 190.419 1125.79 196.05 Q1120.65 201.721 1110.04 201.721 Q1106.11 201.721 1102.62 201.113 Q1099.14 200.546 1095.86 199.331 L1095.86 192.08 Q1099.14 193.862 1102.34 194.713 Q1105.54 195.563 1108.86 195.563 Q1116.19 195.563 1119.84 191.715 Q1123.48 187.907 1123.48 180.17 L1123.48 176.484 Q1121.18 180.494 1117.57 182.479 Q1113.97 184.464 1108.94 184.464 Q1100.6 184.464 1095.49 178.104 Q1090.39 171.744 1090.39 161.252 Q1090.39 150.72 1095.49 144.36 Q1100.6 138 1108.94 138 Q1113.97 138 1117.57 139.985 Q1121.18 141.97 1123.48 145.98 L1123.48 139.094 L1130.94 139.094 L1130.94 178.833 Z" fill="#000000" fill-rule="nonzero" fill-opacity="1" /><path clip-path="url(#clip950)" d="M1166.91 161.657 Q1157.88 161.657 1154.39 163.723 Q1150.91 165.789 1150.91 170.772 Q1150.91 174.742 1153.5 177.091 Q1156.14 179.4 1160.63 179.4 Q1166.83 179.4 1170.56 175.025 Q1174.32 170.61 1174.32 163.318 L1174.32 161.657 L1166.91 161.657 M1181.78 158.579 L1181.78 184.464 L1174.32 184.464 L1174.32 177.577 Q1171.77 181.709 1167.96 183.694 Q1164.16 185.639 1158.65 185.639 Q1151.68 185.639 1147.55 181.75 Q1143.46 177.821 1143.46 171.258 Q1143.46 163.602 1148.56 159.713 Q1153.7 155.824 1163.87 155.824 L1174.32 155.824 L1174.32 155.095 Q1174.32 149.95 1170.92 147.155 Q1167.56 144.32 1161.44 144.32 Q1157.55 144.32 1153.87 145.251 Q1150.18 146.183 1146.78 148.046 L1146.78 141.16 Q1150.87 139.58 1154.72 138.81 Q1158.57 138 1162.21 138 Q1172.06 138 1176.92 143.104 Q1181.78 148.208 1181.78 158.579 Z" fill="#000000" fill-rule="nonzero" fill-opacity="1" /><path clip-path="url(#clip950)" d="M1197.13 139.094 L1204.58 139.094 L1204.58 184.464 L1197.13 184.464 L1197.13 139.094 M1197.13 121.432 L1204.58 121.432 L1204.58 130.871 L1197.13 130.871 L1197.13 121.432 Z" fill="#000000" fill-rule="nonzero" fill-opacity="1" /><path clip-path="url(#clip950)" d="M1257.89 157.08 L1257.89 184.464 L1250.44 184.464 L1250.44 157.323 Q1250.44 150.882 1247.93 147.682 Q1245.42 144.482 1240.39 144.482 Q1234.36 144.482 1230.87 148.33 Q1227.39 152.178 1227.39 158.822 L1227.39 184.464 L1219.9 184.464 L1219.9 139.094 L1227.39 139.094 L1227.39 146.142 Q1230.06 142.051 1233.67 140.026 Q1237.32 138 1242.05 138 Q1249.87 138 1253.88 142.861 Q1257.89 147.682 1257.89 157.08 Z" fill="#000000" fill-rule="nonzero" fill-opacity="1" /><path clip-path="url(#clip950)" d="M1301.68 140.431 L1301.68 147.479 Q1298.52 145.859 1295.12 145.049 Q1291.72 144.239 1288.07 144.239 Q1282.52 144.239 1279.73 145.94 Q1276.97 147.641 1276.97 151.044 Q1276.97 153.637 1278.96 155.135 Q1280.94 156.594 1286.94 157.931 L1289.49 158.498 Q1297.43 160.199 1300.75 163.318 Q1304.11 166.397 1304.11 171.947 Q1304.11 178.266 1299.09 181.952 Q1294.11 185.639 1285.36 185.639 Q1281.71 185.639 1277.74 184.91 Q1273.81 184.221 1269.44 182.803 L1269.44 175.106 Q1273.57 177.253 1277.58 178.347 Q1281.59 179.4 1285.52 179.4 Q1290.79 179.4 1293.62 177.618 Q1296.46 175.795 1296.46 172.514 Q1296.46 169.476 1294.39 167.855 Q1292.37 166.235 1285.44 164.736 L1282.85 164.128 Q1275.92 162.67 1272.84 159.672 Q1269.76 156.634 1269.76 151.368 Q1269.76 144.968 1274.3 141.484 Q1278.84 138 1287.18 138 Q1291.31 138 1294.96 138.608 Q1298.61 139.215 1301.68 140.431 Z" fill="#000000" fill-rule="nonzero" fill-opacity="1" /><path clip-path="url(#clip950)" d="M1323.36 126.212 L1323.36 139.094 L1338.71 139.094 L1338.71 144.887 L1323.36 144.887 L1323.36 169.516 Q1323.36 175.066 1324.86 176.646 Q1326.39 178.226 1331.05 178.226 L1338.71 178.226 L1338.71 184.464 L1331.05 184.464 Q1322.42 184.464 1319.14 181.264 Q1315.86 178.023 1315.86 169.516 L1315.86 144.887 L1310.39 144.887 L1310.39 139.094 L1315.86 139.094 L1315.86 126.212 L1323.36 126.212 Z" fill="#000000" fill-rule="nonzero" fill-opacity="1" /><path clip-path="url(#clip950)" d="M1382.26 126.212 L1382.26 139.094 L1397.61 139.094 L1397.61 144.887 L1382.26 144.887 L1382.26 169.516 Q1382.26 175.066 1383.76 176.646 Q1385.29 178.226 1389.95 178.226 L1397.61 178.226 L1397.61 184.464 L1389.95 184.464 Q1381.33 184.464 1378.04 181.264 Q1374.76 178.023 1374.76 169.516 L1374.76 144.887 L1369.29 144.887 L1369.29 139.094 L1374.76 139.094 L1374.76 126.212 L1382.26 126.212 Z" fill="#000000" fill-rule="nonzero" fill-opacity="1" /><path clip-path="url(#clip950)" d="M1445.13 157.08 L1445.13 184.464 L1437.67 184.464 L1437.67 157.323 Q1437.67 150.882 1435.16 147.682 Q1432.65 144.482 1427.63 144.482 Q1421.59 144.482 1418.11 148.33 Q1414.62 152.178 1414.62 158.822 L1414.62 184.464 L1407.13 184.464 L1407.13 121.432 L1414.62 121.432 L1414.62 146.142 Q1417.3 142.051 1420.9 140.026 Q1424.55 138 1429.29 138 Q1437.11 138 1441.12 142.861 Q1445.13 147.682 1445.13 157.08 Z" fill="#000000" fill-rule="nonzero" fill-opacity="1" /><path clip-path="url(#clip950)" d="M1498.8 159.916 L1498.8 163.561 L1464.53 163.561 Q1465.02 171.258 1469.15 175.309 Q1473.32 179.319 1480.73 179.319 Q1485.03 179.319 1489.04 178.266 Q1493.09 177.213 1497.06 175.106 L1497.06 182.155 Q1493.05 183.856 1488.84 184.748 Q1484.62 185.639 1480.29 185.639 Q1469.43 185.639 1463.07 179.319 Q1456.75 173 1456.75 162.225 Q1456.75 151.085 1462.75 144.563 Q1468.78 138 1478.99 138 Q1488.15 138 1493.45 143.914 Q1498.8 149.788 1498.8 159.916 M1491.35 157.728 Q1491.27 151.611 1487.9 147.965 Q1484.58 144.32 1479.07 144.32 Q1472.83 144.32 1469.07 147.844 Q1465.34 151.368 1464.77 157.769 L1491.35 157.728 Z" fill="#000000" fill-rule="nonzero" fill-opacity="1" /><path clip-path="url(#clip950)" d="M1575.12 157.08 L1575.12 184.464 L1567.67 184.464 L1567.67 157.323 Q1567.67 150.882 1565.16 147.682 Q1562.64 144.482 1557.62 144.482 Q1551.58 144.482 1548.1 148.33 Q1544.62 152.178 1544.62 158.822 L1544.62 184.464 L1537.12 184.464 L1537.12 139.094 L1544.62 139.094 L1544.62 146.142 Q1547.29 142.051 1550.9 140.026 Q1554.54 138 1559.28 138 Q1567.1 138 1571.11 142.861 Q1575.12 147.682 1575.12 157.08 Z" fill="#000000" fill-rule="nonzero" fill-opacity="1" /><path clip-path="url(#clip950)" d="M1589.22 166.559 L1589.22 139.094 L1596.67 139.094 L1596.67 166.275 Q1596.67 172.716 1599.18 175.957 Q1601.69 179.157 1606.72 179.157 Q1612.75 179.157 1616.24 175.309 Q1619.76 171.461 1619.76 164.817 L1619.76 139.094 L1627.21 139.094 L1627.21 184.464 L1619.76 184.464 L1619.76 177.496 Q1617.05 181.628 1613.44 183.654 Q1609.88 185.639 1605.14 185.639 Q1597.32 185.639 1593.27 180.778 Q1589.22 175.917 1589.22 166.559 M1607.97 138 L1607.97 138 Z" fill="#000000" fill-rule="nonzero" fill-opacity="1" /><path clip-path="url(#clip950)" d="M1677.89 147.803 Q1680.69 142.78 1684.58 140.39 Q1688.46 138 1693.73 138 Q1700.82 138 1704.67 142.983 Q1708.52 147.925 1708.52 157.08 L1708.52 184.464 L1701.02 184.464 L1701.02 157.323 Q1701.02 150.801 1698.71 147.641 Q1696.4 144.482 1691.66 144.482 Q1685.87 144.482 1682.51 148.33 Q1679.15 152.178 1679.15 158.822 L1679.15 184.464 L1671.65 184.464 L1671.65 157.323 Q1671.65 150.76 1669.34 147.641 Q1667.04 144.482 1662.21 144.482 Q1656.5 144.482 1653.14 148.37 Q1649.78 152.219 1649.78 158.822 L1649.78 184.464 L1642.28 184.464 L1642.28 139.094 L1649.78 139.094 L1649.78 146.142 Q1652.33 141.97 1655.9 139.985 Q1659.46 138 1664.36 138 Q1669.3 138 1672.75 140.512 Q1676.23 143.023 1677.89 147.803 Z" fill="#000000" fill-rule="nonzero" fill-opacity="1" /><path clip-path="url(#clip950)" d="M1755.95 161.819 Q1755.95 153.596 1752.55 148.938 Q1749.19 144.239 1743.27 144.239 Q1737.36 144.239 1733.96 148.938 Q1730.59 153.596 1730.59 161.819 Q1730.59 170.043 1733.96 174.742 Q1737.36 179.4 1743.27 179.4 Q1749.19 179.4 1752.55 174.742 Q1755.95 170.043 1755.95 161.819 M1730.59 145.98 Q1732.94 141.93 1736.51 139.985 Q1740.11 138 1745.1 138 Q1753.36 138 1758.5 144.563 Q1763.69 151.125 1763.69 161.819 Q1763.69 172.514 1758.5 179.076 Q1753.36 185.639 1745.1 185.639 Q1740.11 185.639 1736.51 183.694 Q1732.94 181.709 1730.59 177.658 L1730.59 184.464 L1723.1 184.464 L1723.1 121.432 L1730.59 121.432 L1730.59 145.98 Z" fill="#000000" fill-rule="nonzero" fill-opacity="1" /><path clip-path="url(#clip950)" d="M1814.85 159.916 L1814.85 163.561 L1780.58 163.561 Q1781.07 171.258 1785.2 175.309 Q1789.37 179.319 1796.79 179.319 Q1801.08 179.319 1805.09 178.266 Q1809.14 177.213 1813.11 175.106 L1813.11 182.155 Q1809.1 183.856 1804.89 184.748 Q1800.67 185.639 1796.34 185.639 Q1785.48 185.639 1779.12 179.319 Q1772.8 173 1772.8 162.225 Q1772.8 151.085 1778.8 144.563 Q1784.84 138 1795.04 138 Q1804.2 138 1809.51 143.914 Q1814.85 149.788 1814.85 159.916 M1807.4 157.728 Q1807.32 151.611 1803.96 147.965 Q1800.63 144.32 1795.12 144.32 Q1788.89 144.32 1785.12 147.844 Q1781.39 151.368 1780.83 157.769 L1807.4 157.728 Z" fill="#000000" fill-rule="nonzero" fill-opacity="1" /><path clip-path="url(#clip950)" d="M1853.38 146.061 Q1852.12 145.332 1850.62 145.008 Q1849.16 144.644 1847.38 144.644 Q1841.06 144.644 1837.66 148.776 Q1834.3 152.867 1834.3 160.564 L1834.3 184.464 L1826.8 184.464 L1826.8 139.094 L1834.3 139.094 L1834.3 146.142 Q1836.65 142.011 1840.41 140.026 Q1844.18 138 1849.57 138 Q1850.34 138 1851.27 138.122 Q1852.2 138.203 1853.34 138.405 L1853.38 146.061 Z" fill="#000000" fill-rule="nonzero" fill-opacity="1" /><path clip-path="url(#clip950)" d="M1905.15 144.32 Q1899.15 144.32 1895.67 149.019 Q1892.18 153.677 1892.18 161.819 Q1892.18 169.962 1895.63 174.661 Q1899.11 179.319 1905.15 179.319 Q1911.1 179.319 1914.59 174.62 Q1918.07 169.921 1918.07 161.819 Q1918.07 153.758 1914.59 149.059 Q1911.1 144.32 1905.15 144.32 M1905.15 138 Q1914.87 138 1920.42 144.32 Q1925.97 150.639 1925.97 161.819 Q1925.97 172.959 1920.42 179.319 Q1914.87 185.639 1905.15 185.639 Q1895.38 185.639 1889.84 179.319 Q1884.33 172.959 1884.33 161.819 Q1884.33 150.639 1889.84 144.32 Q1895.38 138 1905.15 138 Z" fill="#000000" fill-rule="nonzero" fill-opacity="1" /><path clip-path="url(#clip950)" d="M1961.29 121.432 L1961.29 127.63 L1954.16 127.63 Q1950.15 127.63 1948.57 129.25 Q1947.03 130.871 1947.03 135.083 L1947.03 139.094 L1959.31 139.094 L1959.31 144.887 L1947.03 144.887 L1947.03 184.464 L1939.54 184.464 L1939.54 144.887 L1932.41 144.887 L1932.41 139.094 L1939.54 139.094 L1939.54 135.934 Q1939.54 128.359 1943.06 124.916 Q1946.59 121.432 1954.24 121.432 L1961.29 121.432 Z" fill="#000000" fill-rule="nonzero" fill-opacity="1" /><path clip-path="url(#clip950)" d="M1993.9 139.094 L2001.36 139.094 L2001.36 184.464 L1993.9 184.464 L1993.9 139.094 M1993.9 121.432 L2001.36 121.432 L2001.36 130.871 L1993.9 130.871 L1993.9 121.432 Z" fill="#000000" fill-rule="nonzero" fill-opacity="1" /><path clip-path="url(#clip950)" d="M2024.33 126.212 L2024.33 139.094 L2039.68 139.094 L2039.68 144.887 L2024.33 144.887 L2024.33 169.516 Q2024.33 175.066 2025.82 176.646 Q2027.36 178.226 2032.02 178.226 L2039.68 178.226 L2039.68 184.464 L2032.02 184.464 Q2023.39 184.464 2020.11 181.264 Q2016.83 178.023 2016.83 169.516 L2016.83 144.887 L2011.36 144.887 L2011.36 139.094 L2016.83 139.094 L2016.83 126.212 L2024.33 126.212 Z" fill="#000000" fill-rule="nonzero" fill-opacity="1" /><path clip-path="url(#clip950)" d="M2088.29 159.916 L2088.29 163.561 L2054.02 163.561 Q2054.5 171.258 2058.64 175.309 Q2062.81 179.319 2070.22 179.319 Q2074.52 179.319 2078.53 178.266 Q2082.58 177.213 2086.55 175.106 L2086.55 182.155 Q2082.54 183.856 2078.32 184.748 Q2074.11 185.639 2069.78 185.639 Q2058.92 185.639 2052.56 179.319 Q2046.24 173 2046.24 162.225 Q2046.24 151.085 2052.24 144.563 Q2058.27 138 2068.48 138 Q2077.63 138 2082.94 143.914 Q2088.29 149.788 2088.29 159.916 M2080.84 157.728 Q2080.75 151.611 2077.39 147.965 Q2074.07 144.32 2068.56 144.32 Q2062.32 144.32 2058.56 147.844 Q2054.83 151.368 2054.26 157.769 L2080.84 157.728 Z" fill="#000000" fill-rule="nonzero" fill-opacity="1" /><path clip-path="url(#clip950)" d="M2126.81 146.061 Q2125.56 145.332 2124.06 145.008 Q2122.6 144.644 2120.82 144.644 Q2114.5 144.644 2111.1 148.776 Q2107.73 152.867 2107.73 160.564 L2107.73 184.464 L2100.24 184.464 L2100.24 139.094 L2107.73 139.094 L2107.73 146.142 Q2110.08 142.011 2113.85 140.026 Q2117.62 138 2123.01 138 Q2123.77 138 2124.71 138.122 Q2125.64 138.203 2126.77 138.405 L2126.81 146.061 Z" fill="#000000" fill-rule="nonzero" fill-opacity="1" /><path clip-path="url(#clip950)" d="M2155.25 161.657 Q2146.22 161.657 2142.73 163.723 Q2139.25 165.789 2139.25 170.772 Q2139.25 174.742 2141.84 177.091 Q2144.47 179.4 2148.97 179.4 Q2155.17 179.4 2158.9 175.025 Q2162.66 170.61 2162.66 163.318 L2162.66 161.657 L2155.25 161.657 M2170.12 158.579 L2170.12 184.464 L2162.66 184.464 L2162.66 177.577 Q2160.11 181.709 2156.3 183.694 Q2152.5 185.639 2146.99 185.639 Q2140.02 185.639 2135.89 181.75 Q2131.8 177.821 2131.8 171.258 Q2131.8 163.602 2136.9 159.713 Q2142.04 155.824 2152.21 155.824 L2162.66 155.824 L2162.66 155.095 Q2162.66 149.95 2159.26 147.155 Q2155.9 144.32 2149.78 144.32 Q2145.89 144.32 2142.21 145.251 Q2138.52 146.183 2135.12 148.046 L2135.12 141.16 Q2139.21 139.58 2143.06 138.81 Q2146.91 138 2150.55 138 Q2160.39 138 2165.26 143.104 Q2170.12 148.208 2170.12 158.579 Z" fill="#000000" fill-rule="nonzero" fill-opacity="1" /><path clip-path="url(#clip950)" d="M2192.84 126.212 L2192.84 139.094 L2208.2 139.094 L2208.2 144.887 L2192.84 144.887 L2192.84 169.516 Q2192.84 175.066 2194.34 176.646 Q2195.88 178.226 2200.54 178.226 L2208.2 178.226 L2208.2 184.464 L2200.54 184.464 Q2191.91 184.464 2188.63 181.264 Q2185.35 178.023 2185.35 169.516 L2185.35 144.887 L2179.88 144.887 L2179.88 139.094 L2185.35 139.094 L2185.35 126.212 L2192.84 126.212 Z" fill="#000000" fill-rule="nonzero" fill-opacity="1" /><path clip-path="url(#clip950)" d="M2218 139.094 L2225.45 139.094 L2225.45 184.464 L2218 184.464 L2218 139.094 M2218 121.432 L2225.45 121.432 L2225.45 130.871 L2218 130.871 L2218 121.432 Z" fill="#000000" fill-rule="nonzero" fill-opacity="1" /><path clip-path="url(#clip950)" d="M2258.63 144.32 Q2252.63 144.32 2249.15 149.019 Q2245.67 153.677 2245.67 161.819 Q2245.67 169.962 2249.11 174.661 Q2252.59 179.319 2258.63 179.319 Q2264.58 179.319 2268.07 174.62 Q2271.55 169.921 2271.55 161.819 Q2271.55 153.758 2268.07 149.059 Q2264.58 144.32 2258.63 144.32 M2258.63 138 Q2268.35 138 2273.9 144.32 Q2279.45 150.639 2279.45 161.819 Q2279.45 172.959 2273.9 179.319 Q2268.35 185.639 2258.63 185.639 Q2248.87 185.639 2243.32 179.319 Q2237.81 172.959 2237.81 161.819 Q2237.81 150.639 2243.32 144.32 Q2248.87 138 2258.63 138 Z" fill="#000000" fill-rule="nonzero" fill-opacity="1" /><path clip-path="url(#clip950)" d="M2329.52 157.08 L2329.52 184.464 L2322.07 184.464 L2322.07 157.323 Q2322.07 150.882 2319.55 147.682 Q2317.04 144.482 2312.02 144.482 Q2305.98 144.482 2302.5 148.33 Q2299.02 152.178 2299.02 158.822 L2299.02 184.464 L2291.52 184.464 L2291.52 139.094 L2299.02 139.094 L2299.02 146.142 Q2301.69 142.051 2305.3 140.026 Q2308.94 138 2313.68 138 Q2321.5 138 2325.51 142.861 Q2329.52 147.682 2329.52 157.08 Z" fill="#000000" fill-rule="nonzero" fill-opacity="1" /><path clip-path="url(#clip950)" d="M2373.31 140.431 L2373.31 147.479 Q2370.15 145.859 2366.75 145.049 Q2363.35 144.239 2359.7 144.239 Q2354.15 144.239 2351.35 145.94 Q2348.6 147.641 2348.6 151.044 Q2348.6 153.637 2350.58 155.135 Q2352.57 156.594 2358.57 157.931 L2361.12 158.498 Q2369.06 160.199 2372.38 163.318 Q2375.74 166.397 2375.74 171.947 Q2375.74 178.266 2370.72 181.952 Q2365.74 185.639 2356.99 185.639 Q2353.34 185.639 2349.37 184.91 Q2345.44 184.221 2341.07 182.803 L2341.07 175.106 Q2345.2 177.253 2349.21 178.347 Q2353.22 179.4 2357.15 179.4 Q2362.41 179.4 2365.25 177.618 Q2368.08 175.795 2368.08 172.514 Q2368.08 169.476 2366.02 167.855 Q2363.99 166.235 2357.07 164.736 L2354.47 164.128 Q2347.55 162.67 2344.47 159.672 Q2341.39 156.634 2341.39 151.368 Q2341.39 144.968 2345.93 141.484 Q2350.46 138 2358.81 138 Q2362.94 138 2366.59 138.608 Q2370.23 139.215 2373.31 140.431 Z" fill="#000000" fill-rule="nonzero" fill-opacity="1" /><polyline clip-path="url(#clip952)" style="stroke:#009af9; stroke-linecap:round; stroke-linejoin:round; stroke-width:4; stroke-opacity:1; fill:none" points="279.759,219.025 462.724,1388.11 1275.9,1290.68 2292.38,1388.11 "/>
</svg>
