<?xml version="1.0" encoding="utf-8"?>
<svg xmlns="http://www.w3.org/2000/svg" xmlns:xlink="http://www.w3.org/1999/xlink" width="600" height="400" viewBox="0 0 2400 1600">
<defs>
  <clipPath id="clip610">
    <rect x="0" y="0" width="2400" height="1600"/>
  </clipPath>
</defs>
<path clip-path="url(#clip610)" d="M0 1600 L2400 1600 L2400 0 L0 0  Z" fill="#ffffff" fill-rule="evenodd" fill-opacity="1"/>
<defs>
  <clipPath id="clip611">
    <rect x="480" y="0" width="1681" height="1600"/>
  </clipPath>
</defs>
<path clip-path="url(#clip610)" d="M250.028 1423.18 L2352.76 1423.18 L2352.76 183.952 L250.028 183.952  Z" fill="#ffffff" fill-rule="evenodd" fill-opacity="1"/>
<defs>
  <clipPath id="clip612">
    <rect x="250" y="183" width="2104" height="1240"/>
  </clipPath>
</defs>
<polyline clip-path="url(#clip612)" style="stroke:#000000; stroke-linecap:round; stroke-linejoin:round; stroke-width:2; stroke-opacity:0.1; fill:none" points="529.951,1423.18 529.951,183.952 "/>
<polyline clip-path="url(#clip612)" style="stroke:#000000; stroke-linecap:round; stroke-linejoin:round; stroke-width:2; stroke-opacity:0.1; fill:none" points="970.774,1423.18 970.774,183.952 "/>
<polyline clip-path="url(#clip612)" style="stroke:#000000; stroke-linecap:round; stroke-linejoin:round; stroke-width:2; stroke-opacity:0.1; fill:none" points="1411.6,1423.18 1411.6,183.952 "/>
<polyline clip-path="url(#clip612)" style="stroke:#000000; stroke-linecap:round; stroke-linejoin:round; stroke-width:2; stroke-opacity:0.1; fill:none" points="1852.42,1423.18 1852.42,183.952 "/>
<polyline clip-path="url(#clip612)" style="stroke:#000000; stroke-linecap:round; stroke-linejoin:round; stroke-width:2; stroke-opacity:0.1; fill:none" points="2293.24,1423.18 2293.24,183.952 "/>
<polyline clip-path="url(#clip610)" style="stroke:#000000; stroke-linecap:round; stroke-linejoin:round; stroke-width:4; stroke-opacity:1; fill:none" points="250.028,1423.18 2352.76,1423.18 "/>
<polyline clip-path="url(#clip610)" style="stroke:#000000; stroke-linecap:round; stroke-linejoin:round; stroke-width:4; stroke-opacity:1; fill:none" points="529.951,1423.18 529.951,1404.28 "/>
<polyline clip-path="url(#clip610)" style="stroke:#000000; stroke-linecap:round; stroke-linejoin:round; stroke-width:4; stroke-opacity:1; fill:none" points="970.774,1423.18 970.774,1404.28 "/>
<polyline clip-path="url(#clip610)" style="stroke:#000000; stroke-linecap:round; stroke-linejoin:round; stroke-width:4; stroke-opacity:1; fill:none" points="1411.6,1423.18 1411.6,1404.28 "/>
<polyline clip-path="url(#clip610)" style="stroke:#000000; stroke-linecap:round; stroke-linejoin:round; stroke-width:4; stroke-opacity:1; fill:none" points="1852.42,1423.18 1852.42,1404.28 "/>
<polyline clip-path="url(#clip610)" style="stroke:#000000; stroke-linecap:round; stroke-linejoin:round; stroke-width:4; stroke-opacity:1; fill:none" points="2293.24,1423.18 2293.24,1404.28 "/>
<path clip-path="url(#clip610)" d="M508.724 1481.64 L525.044 1481.64 L525.044 1485.58 L503.099 1485.58 L503.099 1481.64 Q505.761 1478.89 510.345 1474.26 Q514.951 1469.61 516.132 1468.27 Q518.377 1465.74 519.257 1464.01 Q520.159 1462.25 520.159 1460.56 Q520.159 1457.8 518.215 1456.07 Q516.294 1454.33 513.192 1454.33 Q510.993 1454.33 508.539 1455.09 Q506.109 1455.86 503.331 1457.41 L503.331 1452.69 Q506.155 1451.55 508.609 1450.97 Q511.062 1450.39 513.099 1450.39 Q518.47 1450.39 521.664 1453.08 Q524.858 1455.77 524.858 1460.26 Q524.858 1462.39 524.048 1464.31 Q523.261 1466.2 521.155 1468.8 Q520.576 1469.47 517.474 1472.69 Q514.372 1475.88 508.724 1481.64 Z" fill="#000000" fill-rule="nonzero" fill-opacity="1" /><path clip-path="url(#clip610)" d="M544.858 1454.1 Q541.247 1454.1 539.419 1457.66 Q537.613 1461.2 537.613 1468.33 Q537.613 1475.44 539.419 1479.01 Q541.247 1482.55 544.858 1482.55 Q548.493 1482.55 550.298 1479.01 Q552.127 1475.44 552.127 1468.33 Q552.127 1461.2 550.298 1457.66 Q548.493 1454.1 544.858 1454.1 M544.858 1450.39 Q550.669 1450.39 553.724 1455 Q556.803 1459.58 556.803 1468.33 Q556.803 1477.06 553.724 1481.67 Q550.669 1486.25 544.858 1486.25 Q539.048 1486.25 535.97 1481.67 Q532.914 1477.06 532.914 1468.33 Q532.914 1459.58 535.97 1455 Q539.048 1450.39 544.858 1450.39 Z" fill="#000000" fill-rule="nonzero" fill-opacity="1" /><path clip-path="url(#clip610)" d="M958.946 1455.09 L947.14 1473.54 L958.946 1473.54 L958.946 1455.09 M957.719 1451.02 L963.599 1451.02 L963.599 1473.54 L968.529 1473.54 L968.529 1477.43 L963.599 1477.43 L963.599 1485.58 L958.946 1485.58 L958.946 1477.43 L943.344 1477.43 L943.344 1472.92 L957.719 1451.02 Z" fill="#000000" fill-rule="nonzero" fill-opacity="1" /><path clip-path="url(#clip610)" d="M986.26 1454.1 Q982.649 1454.1 980.821 1457.66 Q979.015 1461.2 979.015 1468.33 Q979.015 1475.44 980.821 1479.01 Q982.649 1482.55 986.26 1482.55 Q989.895 1482.55 991.7 1479.01 Q993.529 1475.44 993.529 1468.33 Q993.529 1461.2 991.7 1457.66 Q989.895 1454.1 986.26 1454.1 M986.26 1450.39 Q992.071 1450.39 995.126 1455 Q998.205 1459.58 998.205 1468.33 Q998.205 1477.06 995.126 1481.67 Q992.071 1486.25 986.26 1486.25 Q980.45 1486.25 977.372 1481.67 Q974.316 1477.06 974.316 1468.33 Q974.316 1459.58 977.372 1455 Q980.45 1450.39 986.26 1450.39 Z" fill="#000000" fill-rule="nonzero" fill-opacity="1" /><path clip-path="url(#clip610)" d="M1397 1466.44 Q1393.85 1466.44 1392 1468.59 Q1390.17 1470.74 1390.17 1474.49 Q1390.17 1478.22 1392 1480.39 Q1393.85 1482.55 1397 1482.55 Q1400.15 1482.55 1401.98 1480.39 Q1403.83 1478.22 1403.83 1474.49 Q1403.83 1470.74 1401.98 1468.59 Q1400.15 1466.44 1397 1466.44 M1406.29 1451.78 L1406.29 1456.04 Q1404.53 1455.21 1402.72 1454.77 Q1400.94 1454.33 1399.18 1454.33 Q1394.55 1454.33 1392.1 1457.45 Q1389.67 1460.58 1389.32 1466.9 Q1390.68 1464.89 1392.74 1463.82 Q1394.8 1462.73 1397.28 1462.73 Q1402.49 1462.73 1405.5 1465.9 Q1408.53 1469.05 1408.53 1474.49 Q1408.53 1479.82 1405.38 1483.03 Q1402.23 1486.25 1397 1486.25 Q1391.01 1486.25 1387.84 1481.67 Q1384.67 1477.06 1384.67 1468.33 Q1384.67 1460.14 1388.55 1455.28 Q1392.44 1450.39 1398.99 1450.39 Q1400.75 1450.39 1402.54 1450.74 Q1404.34 1451.09 1406.29 1451.78 Z" fill="#000000" fill-rule="nonzero" fill-opacity="1" /><path clip-path="url(#clip610)" d="M1426.59 1454.1 Q1422.98 1454.1 1421.15 1457.66 Q1419.34 1461.2 1419.34 1468.33 Q1419.34 1475.44 1421.15 1479.01 Q1422.98 1482.55 1426.59 1482.55 Q1430.22 1482.55 1432.03 1479.01 Q1433.85 1475.44 1433.85 1468.33 Q1433.85 1461.2 1432.03 1457.66 Q1430.22 1454.1 1426.59 1454.1 M1426.59 1450.39 Q1432.4 1450.39 1435.45 1455 Q1438.53 1459.58 1438.53 1468.33 Q1438.53 1477.06 1435.45 1481.67 Q1432.4 1486.25 1426.59 1486.25 Q1420.78 1486.25 1417.7 1481.67 Q1414.64 1477.06 1414.64 1468.33 Q1414.64 1459.58 1417.7 1455 Q1420.78 1450.39 1426.59 1450.39 Z" fill="#000000" fill-rule="nonzero" fill-opacity="1" /><path clip-path="url(#clip610)" d="M1837.29 1469.17 Q1833.96 1469.17 1832.04 1470.95 Q1830.14 1472.73 1830.14 1475.86 Q1830.14 1478.98 1832.04 1480.77 Q1833.96 1482.55 1837.29 1482.55 Q1840.63 1482.55 1842.55 1480.77 Q1844.47 1478.96 1844.47 1475.86 Q1844.47 1472.73 1842.55 1470.95 Q1840.65 1469.17 1837.29 1469.17 M1832.62 1467.18 Q1829.61 1466.44 1827.92 1464.38 Q1826.25 1462.32 1826.25 1459.35 Q1826.25 1455.21 1829.19 1452.8 Q1832.16 1450.39 1837.29 1450.39 Q1842.46 1450.39 1845.4 1452.8 Q1848.34 1455.21 1848.34 1459.35 Q1848.34 1462.32 1846.65 1464.38 Q1844.98 1466.44 1841.99 1467.18 Q1845.37 1467.96 1847.25 1470.26 Q1849.15 1472.55 1849.15 1475.86 Q1849.15 1480.88 1846.07 1483.57 Q1843.01 1486.25 1837.29 1486.25 Q1831.58 1486.25 1828.5 1483.57 Q1825.44 1480.88 1825.44 1475.86 Q1825.44 1472.55 1827.34 1470.26 Q1829.24 1467.96 1832.62 1467.18 M1830.91 1459.79 Q1830.91 1462.48 1832.57 1463.98 Q1834.26 1465.49 1837.29 1465.49 Q1840.3 1465.49 1841.99 1463.98 Q1843.71 1462.48 1843.71 1459.79 Q1843.71 1457.11 1841.99 1455.6 Q1840.3 1454.1 1837.29 1454.1 Q1834.26 1454.1 1832.57 1455.6 Q1830.91 1457.11 1830.91 1459.79 Z" fill="#000000" fill-rule="nonzero" fill-opacity="1" /><path clip-path="url(#clip610)" d="M1867.46 1454.1 Q1863.84 1454.1 1862.02 1457.66 Q1860.21 1461.2 1860.21 1468.33 Q1860.21 1475.44 1862.02 1479.01 Q1863.84 1482.55 1867.46 1482.55 Q1871.09 1482.55 1872.9 1479.01 Q1874.72 1475.44 1874.72 1468.33 Q1874.72 1461.2 1872.9 1457.66 Q1871.09 1454.1 1867.46 1454.1 M1867.46 1450.39 Q1873.27 1450.39 1876.32 1455 Q1879.4 1459.58 1879.4 1468.33 Q1879.4 1477.06 1876.32 1481.67 Q1873.27 1486.25 1867.46 1486.25 Q1861.65 1486.25 1858.57 1481.67 Q1855.51 1477.06 1855.51 1468.33 Q1855.51 1459.58 1858.57 1455 Q1861.65 1450.39 1867.46 1450.39 Z" fill="#000000" fill-rule="nonzero" fill-opacity="1" /><path clip-path="url(#clip610)" d="M2252.85 1481.64 L2260.49 1481.64 L2260.49 1455.28 L2252.18 1456.95 L2252.18 1452.69 L2260.44 1451.02 L2265.12 1451.02 L2265.12 1481.64 L2272.76 1481.64 L2272.76 1485.58 L2252.85 1485.58 L2252.85 1481.64 Z" fill="#000000" fill-rule="nonzero" fill-opacity="1" /><path clip-path="url(#clip610)" d="M2292.2 1454.1 Q2288.59 1454.1 2286.76 1457.66 Q2284.96 1461.2 2284.96 1468.33 Q2284.96 1475.44 2286.76 1479.01 Q2288.59 1482.55 2292.2 1482.55 Q2295.84 1482.55 2297.64 1479.01 Q2299.47 1475.44 2299.47 1468.33 Q2299.47 1461.2 2297.64 1457.66 Q2295.84 1454.1 2292.2 1454.1 M2292.2 1450.39 Q2298.01 1450.39 2301.07 1455 Q2304.15 1459.58 2304.15 1468.33 Q2304.15 1477.06 2301.07 1481.67 Q2298.01 1486.25 2292.2 1486.25 Q2286.39 1486.25 2283.31 1481.67 Q2280.26 1477.06 2280.26 1468.33 Q2280.26 1459.58 2283.31 1455 Q2286.39 1450.39 2292.2 1450.39 Z" fill="#000000" fill-rule="nonzero" fill-opacity="1" /><path clip-path="url(#clip610)" d="M2322.36 1454.1 Q2318.75 1454.1 2316.93 1457.66 Q2315.12 1461.2 2315.12 1468.33 Q2315.12 1475.44 2316.93 1479.01 Q2318.75 1482.55 2322.36 1482.55 Q2326 1482.55 2327.8 1479.01 Q2329.63 1475.44 2329.63 1468.33 Q2329.63 1461.2 2327.8 1457.66 Q2326 1454.1 2322.36 1454.1 M2322.36 1450.39 Q2328.18 1450.39 2331.23 1455 Q2334.31 1459.58 2334.31 1468.33 Q2334.31 1477.06 2331.23 1481.67 Q2328.18 1486.25 2322.36 1486.25 Q2316.55 1486.25 2313.48 1481.67 Q2310.42 1477.06 2310.42 1468.33 Q2310.42 1459.58 2313.48 1455 Q2316.55 1450.39 2322.36 1450.39 Z" fill="#000000" fill-rule="nonzero" fill-opacity="1" /><path clip-path="url(#clip610)" d="M1078.42 1520.52 L1084.85 1520.52 L1084.85 1562.63 L1107.99 1562.63 L1107.99 1568.04 L1078.42 1568.04 L1078.42 1520.52 Z" fill="#000000" fill-rule="nonzero" fill-opacity="1" /><path clip-path="url(#clip610)" d="M1130.68 1550.12 Q1123.58 1550.12 1120.84 1551.75 Q1118.11 1553.37 1118.11 1557.29 Q1118.11 1560.4 1120.14 1562.25 Q1122.21 1564.07 1125.75 1564.07 Q1130.62 1564.07 1133.54 1560.63 Q1136.5 1557.16 1136.5 1551.43 L1136.5 1550.12 L1130.68 1550.12 M1142.36 1547.71 L1142.36 1568.04 L1136.5 1568.04 L1136.5 1562.63 Q1134.5 1565.88 1131.51 1567.44 Q1128.52 1568.97 1124.19 1568.97 Q1118.71 1568.97 1115.47 1565.91 Q1112.25 1562.82 1112.25 1557.67 Q1112.25 1551.65 1116.26 1548.6 Q1120.3 1545.54 1128.29 1545.54 L1136.5 1545.54 L1136.5 1544.97 Q1136.5 1540.93 1133.83 1538.73 Q1131.19 1536.5 1126.38 1536.5 Q1123.33 1536.5 1120.43 1537.23 Q1117.53 1537.97 1114.86 1539.43 L1114.86 1534.02 Q1118.08 1532.78 1121.1 1532.17 Q1124.12 1531.54 1126.99 1531.54 Q1134.72 1531.54 1138.54 1535.55 Q1142.36 1539.56 1142.36 1547.71 Z" fill="#000000" fill-rule="nonzero" fill-opacity="1" /><path clip-path="url(#clip610)" d="M1160.22 1522.27 L1160.22 1532.4 L1172.28 1532.4 L1172.28 1536.95 L1160.22 1536.95 L1160.22 1556.3 Q1160.22 1560.66 1161.39 1561.9 Q1162.6 1563.14 1166.26 1563.14 L1172.28 1563.14 L1172.28 1568.04 L1166.26 1568.04 Q1159.48 1568.04 1156.91 1565.53 Q1154.33 1562.98 1154.33 1556.3 L1154.33 1536.95 L1150.03 1536.95 L1150.03 1532.4 L1154.33 1532.4 L1154.33 1522.27 L1160.22 1522.27 Z" fill="#000000" fill-rule="nonzero" fill-opacity="1" /><path clip-path="url(#clip610)" d="M1185.77 1522.27 L1185.77 1532.4 L1197.84 1532.4 L1197.84 1536.95 L1185.77 1536.95 L1185.77 1556.3 Q1185.77 1560.66 1186.95 1561.9 Q1188.16 1563.14 1191.82 1563.14 L1197.84 1563.14 L1197.84 1568.04 L1191.82 1568.04 Q1185.04 1568.04 1182.46 1565.53 Q1179.89 1562.98 1179.89 1556.3 L1179.89 1536.95 L1175.59 1536.95 L1175.59 1532.4 L1179.89 1532.4 L1179.89 1522.27 L1185.77 1522.27 Z" fill="#000000" fill-rule="nonzero" fill-opacity="1" /><path clip-path="url(#clip610)" d="M1205.54 1532.4 L1211.4 1532.4 L1211.4 1568.04 L1205.54 1568.04 L1205.54 1532.4 M1205.54 1518.52 L1211.4 1518.52 L1211.4 1525.93 L1205.54 1525.93 L1205.54 1518.52 Z" fill="#000000" fill-rule="nonzero" fill-opacity="1" /><path clip-path="url(#clip610)" d="M1249.3 1533.76 L1249.3 1539.24 Q1246.82 1537.87 1244.31 1537.2 Q1241.82 1536.5 1239.28 1536.5 Q1233.58 1536.5 1230.43 1540.13 Q1227.28 1543.73 1227.28 1550.25 Q1227.28 1556.78 1230.43 1560.4 Q1233.58 1564 1239.28 1564 Q1241.82 1564 1244.31 1563.33 Q1246.82 1562.63 1249.3 1561.26 L1249.3 1566.68 Q1246.85 1567.82 1244.21 1568.39 Q1241.6 1568.97 1238.64 1568.97 Q1230.59 1568.97 1225.85 1563.91 Q1221.1 1558.85 1221.1 1550.25 Q1221.1 1541.53 1225.88 1536.53 Q1230.68 1531.54 1239.02 1531.54 Q1241.73 1531.54 1244.31 1532.11 Q1246.89 1532.65 1249.3 1533.76 Z" fill="#000000" fill-rule="nonzero" fill-opacity="1" /><path clip-path="url(#clip610)" d="M1289.98 1548.76 L1289.98 1551.62 L1263.05 1551.62 Q1263.44 1557.67 1266.68 1560.85 Q1269.96 1564 1275.79 1564 Q1279.16 1564 1282.31 1563.17 Q1285.49 1562.35 1288.61 1560.69 L1288.61 1566.23 Q1285.46 1567.57 1282.15 1568.27 Q1278.84 1568.97 1275.44 1568.97 Q1266.91 1568.97 1261.91 1564 Q1256.94 1559.04 1256.94 1550.57 Q1256.94 1541.82 1261.65 1536.69 Q1266.4 1531.54 1274.42 1531.54 Q1281.61 1531.54 1285.78 1536.18 Q1289.98 1540.8 1289.98 1548.76 M1284.13 1547.04 Q1284.06 1542.23 1281.42 1539.37 Q1278.81 1536.5 1274.48 1536.5 Q1269.58 1536.5 1266.62 1539.27 Q1263.69 1542.04 1263.25 1547.07 L1284.13 1547.04 Z" fill="#000000" fill-rule="nonzero" fill-opacity="1" /><path clip-path="url(#clip610)" d="M1343.04 1533.45 L1343.04 1538.98 Q1340.56 1537.71 1337.88 1537.07 Q1335.21 1536.44 1332.35 1536.44 Q1327.98 1536.44 1325.79 1537.77 Q1323.62 1539.11 1323.62 1541.79 Q1323.62 1543.82 1325.18 1545 Q1326.74 1546.15 1331.45 1547.2 L1333.46 1547.64 Q1339.7 1548.98 1342.31 1551.43 Q1344.95 1553.85 1344.95 1558.21 Q1344.95 1563.17 1341 1566.07 Q1337.09 1568.97 1330.21 1568.97 Q1327.35 1568.97 1324.23 1568.39 Q1321.14 1567.85 1317.7 1566.74 L1317.7 1560.69 Q1320.95 1562.38 1324.1 1563.24 Q1327.25 1564.07 1330.34 1564.07 Q1334.48 1564.07 1336.71 1562.66 Q1338.93 1561.23 1338.93 1558.65 Q1338.93 1556.27 1337.31 1554.99 Q1335.72 1553.72 1330.28 1552.54 L1328.24 1552.07 Q1322.8 1550.92 1320.38 1548.56 Q1317.96 1546.18 1317.96 1542.04 Q1317.96 1537.01 1321.52 1534.27 Q1325.09 1531.54 1331.65 1531.54 Q1334.89 1531.54 1337.76 1532.01 Q1340.62 1532.49 1343.04 1533.45 Z" fill="#000000" fill-rule="nonzero" fill-opacity="1" /><path clip-path="url(#clip610)" d="M1354.28 1532.4 L1360.13 1532.4 L1360.13 1568.04 L1354.28 1568.04 L1354.28 1532.4 M1354.28 1518.52 L1360.13 1518.52 L1360.13 1525.93 L1354.28 1525.93 L1354.28 1518.52 Z" fill="#000000" fill-rule="nonzero" fill-opacity="1" /><path clip-path="url(#clip610)" d="M1369.84 1532.4 L1397.66 1532.4 L1397.66 1537.74 L1375.63 1563.37 L1397.66 1563.37 L1397.66 1568.04 L1369.04 1568.04 L1369.04 1562.7 L1391.07 1537.07 L1369.84 1537.07 L1369.84 1532.4 Z" fill="#000000" fill-rule="nonzero" fill-opacity="1" /><path clip-path="url(#clip610)" d="M1437.09 1548.76 L1437.09 1551.62 L1410.17 1551.62 Q1410.55 1557.67 1413.79 1560.85 Q1417.07 1564 1422.9 1564 Q1426.27 1564 1429.42 1563.17 Q1432.61 1562.35 1435.72 1560.69 L1435.72 1566.23 Q1432.57 1567.57 1429.26 1568.27 Q1425.95 1568.97 1422.55 1568.97 Q1414.02 1568.97 1409.02 1564 Q1404.05 1559.04 1404.05 1550.57 Q1404.05 1541.82 1408.77 1536.69 Q1413.51 1531.54 1421.53 1531.54 Q1428.72 1531.54 1432.89 1536.18 Q1437.09 1540.8 1437.09 1548.76 M1431.24 1547.04 Q1431.17 1542.23 1428.53 1539.37 Q1425.92 1536.5 1421.59 1536.5 Q1416.69 1536.5 1413.73 1539.27 Q1410.8 1542.04 1410.36 1547.07 L1431.24 1547.04 Z" fill="#000000" fill-rule="nonzero" fill-opacity="1" /><path clip-path="url(#clip610)" d="M1448.2 1559.96 L1454.92 1559.96 L1454.92 1565.43 L1449.7 1575.62 L1445.59 1575.62 L1448.2 1565.43 L1448.2 1559.96 Z" fill="#000000" fill-rule="nonzero" fill-opacity="1" /><path clip-path="url(#clip610)" d="M1488.4 1520.52 L1497.06 1520.52 L1518.13 1560.28 L1518.13 1520.52 L1524.37 1520.52 L1524.37 1568.04 L1515.71 1568.04 L1494.64 1528.29 L1494.64 1568.04 L1488.4 1568.04 L1488.4 1520.52 Z" fill="#000000" fill-rule="nonzero" fill-opacity="1" /><polyline clip-path="url(#clip612)" style="stroke:#000000; stroke-linecap:round; stroke-linejoin:round; stroke-width:2; stroke-opacity:0.1; fill:none" points="250.028,1296.88 2352.76,1296.88 "/>
<polyline clip-path="url(#clip612)" style="stroke:#000000; stroke-linecap:round; stroke-linejoin:round; stroke-width:2; stroke-opacity:0.1; fill:none" points="250.028,1120.52 2352.76,1120.52 "/>
<polyline clip-path="url(#clip612)" style="stroke:#000000; stroke-linecap:round; stroke-linejoin:round; stroke-width:2; stroke-opacity:0.1; fill:none" points="250.028,944.149 2352.76,944.149 "/>
<polyline clip-path="url(#clip612)" style="stroke:#000000; stroke-linecap:round; stroke-linejoin:round; stroke-width:2; stroke-opacity:0.1; fill:none" points="250.028,767.781 2352.76,767.781 "/>
<polyline clip-path="url(#clip612)" style="stroke:#000000; stroke-linecap:round; stroke-linejoin:round; stroke-width:2; stroke-opacity:0.1; fill:none" points="250.028,591.414 2352.76,591.414 "/>
<polyline clip-path="url(#clip612)" style="stroke:#000000; stroke-linecap:round; stroke-linejoin:round; stroke-width:2; stroke-opacity:0.1; fill:none" points="250.028,415.046 2352.76,415.046 "/>
<polyline clip-path="url(#clip612)" style="stroke:#000000; stroke-linecap:round; stroke-linejoin:round; stroke-width:2; stroke-opacity:0.1; fill:none" points="250.028,238.679 2352.76,238.679 "/>
<polyline clip-path="url(#clip610)" style="stroke:#000000; stroke-linecap:round; stroke-linejoin:round; stroke-width:4; stroke-opacity:1; fill:none" points="250.028,1423.18 250.028,183.952 "/>
<polyline clip-path="url(#clip610)" style="stroke:#000000; stroke-linecap:round; stroke-linejoin:round; stroke-width:4; stroke-opacity:1; fill:none" points="250.028,1296.88 268.926,1296.88 "/>
<polyline clip-path="url(#clip610)" style="stroke:#000000; stroke-linecap:round; stroke-linejoin:round; stroke-width:4; stroke-opacity:1; fill:none" points="250.028,1120.52 268.926,1120.52 "/>
<polyline clip-path="url(#clip610)" style="stroke:#000000; stroke-linecap:round; stroke-linejoin:round; stroke-width:4; stroke-opacity:1; fill:none" points="250.028,944.149 268.926,944.149 "/>
<polyline clip-path="url(#clip610)" style="stroke:#000000; stroke-linecap:round; stroke-linejoin:round; stroke-width:4; stroke-opacity:1; fill:none" points="250.028,767.781 268.926,767.781 "/>
<polyline clip-path="url(#clip610)" style="stroke:#000000; stroke-linecap:round; stroke-linejoin:round; stroke-width:4; stroke-opacity:1; fill:none" points="250.028,591.414 268.926,591.414 "/>
<polyline clip-path="url(#clip610)" style="stroke:#000000; stroke-linecap:round; stroke-linejoin:round; stroke-width:4; stroke-opacity:1; fill:none" points="250.028,415.046 268.926,415.046 "/>
<polyline clip-path="url(#clip610)" style="stroke:#000000; stroke-linecap:round; stroke-linejoin:round; stroke-width:4; stroke-opacity:1; fill:none" points="250.028,238.679 268.926,238.679 "/>
<path clip-path="url(#clip610)" d="M126.529 1282.68 Q122.918 1282.68 121.089 1286.25 Q119.283 1289.79 119.283 1296.92 Q119.283 1304.02 121.089 1307.59 Q122.918 1311.13 126.529 1311.13 Q130.163 1311.13 131.968 1307.59 Q133.797 1304.02 133.797 1296.92 Q133.797 1289.79 131.968 1286.25 Q130.163 1282.68 126.529 1282.68 M126.529 1278.98 Q132.339 1278.98 135.394 1283.59 Q138.473 1288.17 138.473 1296.92 Q138.473 1305.65 135.394 1310.25 Q132.339 1314.83 126.529 1314.83 Q120.718 1314.83 117.64 1310.25 Q114.584 1305.65 114.584 1296.92 Q114.584 1288.17 117.64 1283.59 Q120.718 1278.98 126.529 1278.98 Z" fill="#000000" fill-rule="nonzero" fill-opacity="1" /><path clip-path="url(#clip610)" d="M146.691 1308.28 L151.575 1308.28 L151.575 1314.16 L146.691 1314.16 L146.691 1308.28 Z" fill="#000000" fill-rule="nonzero" fill-opacity="1" /><path clip-path="url(#clip610)" d="M171.76 1282.68 Q168.149 1282.68 166.32 1286.25 Q164.515 1289.79 164.515 1296.92 Q164.515 1304.02 166.32 1307.59 Q168.149 1311.13 171.76 1311.13 Q175.394 1311.13 177.2 1307.59 Q179.028 1304.02 179.028 1296.92 Q179.028 1289.79 177.2 1286.25 Q175.394 1282.68 171.76 1282.68 M171.76 1278.98 Q177.57 1278.98 180.626 1283.59 Q183.704 1288.17 183.704 1296.92 Q183.704 1305.65 180.626 1310.25 Q177.57 1314.83 171.76 1314.83 Q165.95 1314.83 162.871 1310.25 Q159.815 1305.65 159.815 1296.92 Q159.815 1288.17 162.871 1283.59 Q165.95 1278.98 171.76 1278.98 Z" fill="#000000" fill-rule="nonzero" fill-opacity="1" /><path clip-path="url(#clip610)" d="M202.5 1295.02 Q199.352 1295.02 197.5 1297.17 Q195.672 1299.33 195.672 1303.08 Q195.672 1306.8 197.5 1308.98 Q199.352 1311.13 202.5 1311.13 Q205.649 1311.13 207.477 1308.98 Q209.329 1306.8 209.329 1303.08 Q209.329 1299.33 207.477 1297.17 Q205.649 1295.02 202.5 1295.02 M211.783 1280.37 L211.783 1284.63 Q210.024 1283.79 208.218 1283.35 Q206.436 1282.91 204.676 1282.91 Q200.047 1282.91 197.593 1286.04 Q195.163 1289.16 194.815 1295.48 Q196.181 1293.47 198.241 1292.4 Q200.301 1291.32 202.778 1291.32 Q207.987 1291.32 210.996 1294.49 Q214.028 1297.64 214.028 1303.08 Q214.028 1308.4 210.88 1311.62 Q207.732 1314.83 202.5 1314.83 Q196.505 1314.83 193.334 1310.25 Q190.163 1305.65 190.163 1296.92 Q190.163 1288.72 194.051 1283.86 Q197.94 1278.98 204.491 1278.98 Q206.25 1278.98 208.033 1279.33 Q209.838 1279.67 211.783 1280.37 Z" fill="#000000" fill-rule="nonzero" fill-opacity="1" /><path clip-path="url(#clip610)" d="M126.783 1106.31 Q123.172 1106.31 121.343 1109.88 Q119.538 1113.42 119.538 1120.55 Q119.538 1127.66 121.343 1131.22 Q123.172 1134.76 126.783 1134.76 Q130.417 1134.76 132.223 1131.22 Q134.052 1127.66 134.052 1120.55 Q134.052 1113.42 132.223 1109.88 Q130.417 1106.31 126.783 1106.31 M126.783 1102.61 Q132.593 1102.61 135.649 1107.22 Q138.728 1111.8 138.728 1120.55 Q138.728 1129.28 135.649 1133.88 Q132.593 1138.47 126.783 1138.47 Q120.973 1138.47 117.894 1133.88 Q114.839 1129.28 114.839 1120.55 Q114.839 1111.8 117.894 1107.22 Q120.973 1102.61 126.783 1102.61 Z" fill="#000000" fill-rule="nonzero" fill-opacity="1" /><path clip-path="url(#clip610)" d="M146.945 1131.92 L151.829 1131.92 L151.829 1137.8 L146.945 1137.8 L146.945 1131.92 Z" fill="#000000" fill-rule="nonzero" fill-opacity="1" /><path clip-path="url(#clip610)" d="M172.014 1106.31 Q168.403 1106.31 166.575 1109.88 Q164.769 1113.42 164.769 1120.55 Q164.769 1127.66 166.575 1131.22 Q168.403 1134.76 172.014 1134.76 Q175.649 1134.76 177.454 1131.22 Q179.283 1127.66 179.283 1120.55 Q179.283 1113.42 177.454 1109.88 Q175.649 1106.31 172.014 1106.31 M172.014 1102.61 Q177.825 1102.61 180.88 1107.22 Q183.959 1111.8 183.959 1120.55 Q183.959 1129.28 180.88 1133.88 Q177.825 1138.47 172.014 1138.47 Q166.204 1138.47 163.126 1133.88 Q160.07 1129.28 160.07 1120.55 Q160.07 1111.8 163.126 1107.22 Q166.204 1102.61 172.014 1102.61 Z" fill="#000000" fill-rule="nonzero" fill-opacity="1" /><path clip-path="url(#clip610)" d="M202.176 1121.38 Q198.843 1121.38 196.922 1123.17 Q195.024 1124.95 195.024 1128.07 Q195.024 1131.2 196.922 1132.98 Q198.843 1134.76 202.176 1134.76 Q205.51 1134.76 207.431 1132.98 Q209.352 1131.18 209.352 1128.07 Q209.352 1124.95 207.431 1123.17 Q205.533 1121.38 202.176 1121.38 M197.5 1119.39 Q194.491 1118.65 192.801 1116.59 Q191.135 1114.53 191.135 1111.57 Q191.135 1107.43 194.075 1105.02 Q197.037 1102.61 202.176 1102.61 Q207.338 1102.61 210.278 1105.02 Q213.218 1107.43 213.218 1111.57 Q213.218 1114.53 211.528 1116.59 Q209.861 1118.65 206.875 1119.39 Q210.255 1120.18 212.13 1122.47 Q214.028 1124.76 214.028 1128.07 Q214.028 1133.1 210.949 1135.78 Q207.894 1138.47 202.176 1138.47 Q196.459 1138.47 193.38 1135.78 Q190.325 1133.1 190.325 1128.07 Q190.325 1124.76 192.223 1122.47 Q194.121 1120.18 197.5 1119.39 M195.787 1112.01 Q195.787 1114.69 197.454 1116.2 Q199.144 1117.7 202.176 1117.7 Q205.186 1117.7 206.875 1116.2 Q208.588 1114.69 208.588 1112.01 Q208.588 1109.32 206.875 1107.82 Q205.186 1106.31 202.176 1106.31 Q199.144 1106.31 197.454 1107.82 Q195.787 1109.32 195.787 1112.01 Z" fill="#000000" fill-rule="nonzero" fill-opacity="1" /><path clip-path="url(#clip610)" d="M126.691 929.947 Q123.08 929.947 121.251 933.512 Q119.445 937.054 119.445 944.183 Q119.445 951.29 121.251 954.855 Q123.08 958.396 126.691 958.396 Q130.325 958.396 132.13 954.855 Q133.959 951.29 133.959 944.183 Q133.959 937.054 132.13 933.512 Q130.325 929.947 126.691 929.947 M126.691 926.244 Q132.501 926.244 135.556 930.85 Q138.635 935.434 138.635 944.183 Q138.635 952.91 135.556 957.517 Q132.501 962.1 126.691 962.1 Q120.88 962.1 117.802 957.517 Q114.746 952.91 114.746 944.183 Q114.746 935.434 117.802 930.85 Q120.88 926.244 126.691 926.244 Z" fill="#000000" fill-rule="nonzero" fill-opacity="1" /><path clip-path="url(#clip610)" d="M146.853 955.549 L151.737 955.549 L151.737 961.429 L146.853 961.429 L146.853 955.549 Z" fill="#000000" fill-rule="nonzero" fill-opacity="1" /><path clip-path="url(#clip610)" d="M162.732 957.494 L170.371 957.494 L170.371 931.128 L162.061 932.795 L162.061 928.535 L170.325 926.869 L175.001 926.869 L175.001 957.494 L182.639 957.494 L182.639 961.429 L162.732 961.429 L162.732 957.494 Z" fill="#000000" fill-rule="nonzero" fill-opacity="1" /><path clip-path="url(#clip610)" d="M202.084 929.947 Q198.473 929.947 196.644 933.512 Q194.838 937.054 194.838 944.183 Q194.838 951.29 196.644 954.855 Q198.473 958.396 202.084 958.396 Q205.718 958.396 207.524 954.855 Q209.352 951.29 209.352 944.183 Q209.352 937.054 207.524 933.512 Q205.718 929.947 202.084 929.947 M202.084 926.244 Q207.894 926.244 210.949 930.85 Q214.028 935.434 214.028 944.183 Q214.028 952.91 210.949 957.517 Q207.894 962.1 202.084 962.1 Q196.274 962.1 193.195 957.517 Q190.139 952.91 190.139 944.183 Q190.139 935.434 193.195 930.85 Q196.274 926.244 202.084 926.244 Z" fill="#000000" fill-rule="nonzero" fill-opacity="1" /><path clip-path="url(#clip610)" d="M128.288 753.58 Q124.677 753.58 122.848 757.145 Q121.043 760.686 121.043 767.816 Q121.043 774.922 122.848 778.487 Q124.677 782.029 128.288 782.029 Q131.922 782.029 133.728 778.487 Q135.556 774.922 135.556 767.816 Q135.556 760.686 133.728 757.145 Q131.922 753.58 128.288 753.58 M128.288 749.876 Q134.098 749.876 137.154 754.483 Q140.232 759.066 140.232 767.816 Q140.232 776.543 137.154 781.149 Q134.098 785.733 128.288 785.733 Q122.478 785.733 119.399 781.149 Q116.343 776.543 116.343 767.816 Q116.343 759.066 119.399 754.483 Q122.478 749.876 128.288 749.876 Z" fill="#000000" fill-rule="nonzero" fill-opacity="1" /><path clip-path="url(#clip610)" d="M148.45 779.182 L153.334 779.182 L153.334 785.061 L148.45 785.061 L148.45 779.182 Z" fill="#000000" fill-rule="nonzero" fill-opacity="1" /><path clip-path="url(#clip610)" d="M164.329 781.126 L171.968 781.126 L171.968 754.761 L163.658 756.427 L163.658 752.168 L171.922 750.501 L176.598 750.501 L176.598 781.126 L184.237 781.126 L184.237 785.061 L164.329 785.061 L164.329 781.126 Z" fill="#000000" fill-rule="nonzero" fill-opacity="1" /><path clip-path="url(#clip610)" d="M197.709 781.126 L214.028 781.126 L214.028 785.061 L192.084 785.061 L192.084 781.126 Q194.746 778.372 199.329 773.742 Q203.936 769.089 205.116 767.747 Q207.362 765.223 208.241 763.487 Q209.144 761.728 209.144 760.038 Q209.144 757.284 207.199 755.548 Q205.278 753.811 202.176 753.811 Q199.977 753.811 197.524 754.575 Q195.093 755.339 192.315 756.89 L192.315 752.168 Q195.139 751.034 197.593 750.455 Q200.047 749.876 202.084 749.876 Q207.454 749.876 210.649 752.561 Q213.843 755.247 213.843 759.737 Q213.843 761.867 213.033 763.788 Q212.246 765.686 210.139 768.279 Q209.561 768.95 206.459 772.168 Q203.357 775.362 197.709 781.126 Z" fill="#000000" fill-rule="nonzero" fill-opacity="1" /><path clip-path="url(#clip610)" d="M126.205 577.213 Q122.593 577.213 120.765 580.777 Q118.959 584.319 118.959 591.449 Q118.959 598.555 120.765 602.12 Q122.593 605.661 126.205 605.661 Q129.839 605.661 131.644 602.12 Q133.473 598.555 133.473 591.449 Q133.473 584.319 131.644 580.777 Q129.839 577.213 126.205 577.213 M126.205 573.509 Q132.015 573.509 135.07 578.115 Q138.149 582.699 138.149 591.449 Q138.149 600.175 135.07 604.782 Q132.015 609.365 126.205 609.365 Q120.394 609.365 117.316 604.782 Q114.26 600.175 114.26 591.449 Q114.26 582.699 117.316 578.115 Q120.394 573.509 126.205 573.509 Z" fill="#000000" fill-rule="nonzero" fill-opacity="1" /><path clip-path="url(#clip610)" d="M146.366 602.814 L151.251 602.814 L151.251 608.694 L146.366 608.694 L146.366 602.814 Z" fill="#000000" fill-rule="nonzero" fill-opacity="1" /><path clip-path="url(#clip610)" d="M162.246 604.759 L169.885 604.759 L169.885 578.393 L161.575 580.06 L161.575 575.8 L169.839 574.134 L174.514 574.134 L174.514 604.759 L182.153 604.759 L182.153 608.694 L162.246 608.694 L162.246 604.759 Z" fill="#000000" fill-rule="nonzero" fill-opacity="1" /><path clip-path="url(#clip610)" d="M204.445 578.208 L192.639 596.657 L204.445 596.657 L204.445 578.208 M203.218 574.134 L209.098 574.134 L209.098 596.657 L214.028 596.657 L214.028 600.546 L209.098 600.546 L209.098 608.694 L204.445 608.694 L204.445 600.546 L188.843 600.546 L188.843 596.032 L203.218 574.134 Z" fill="#000000" fill-rule="nonzero" fill-opacity="1" /><path clip-path="url(#clip610)" d="M126.529 400.845 Q122.918 400.845 121.089 404.41 Q119.283 407.952 119.283 415.081 Q119.283 422.188 121.089 425.752 Q122.918 429.294 126.529 429.294 Q130.163 429.294 131.968 425.752 Q133.797 422.188 133.797 415.081 Q133.797 407.952 131.968 404.41 Q130.163 400.845 126.529 400.845 M126.529 397.141 Q132.339 397.141 135.394 401.748 Q138.473 406.331 138.473 415.081 Q138.473 423.808 135.394 428.414 Q132.339 432.998 126.529 432.998 Q120.718 432.998 117.64 428.414 Q114.584 423.808 114.584 415.081 Q114.584 406.331 117.64 401.748 Q120.718 397.141 126.529 397.141 Z" fill="#000000" fill-rule="nonzero" fill-opacity="1" /><path clip-path="url(#clip610)" d="M146.691 426.447 L151.575 426.447 L151.575 432.326 L146.691 432.326 L146.691 426.447 Z" fill="#000000" fill-rule="nonzero" fill-opacity="1" /><path clip-path="url(#clip610)" d="M162.57 428.391 L170.209 428.391 L170.209 402.026 L161.899 403.692 L161.899 399.433 L170.163 397.766 L174.839 397.766 L174.839 428.391 L182.477 428.391 L182.477 432.326 L162.57 432.326 L162.57 428.391 Z" fill="#000000" fill-rule="nonzero" fill-opacity="1" /><path clip-path="url(#clip610)" d="M202.5 413.183 Q199.352 413.183 197.5 415.336 Q195.672 417.488 195.672 421.238 Q195.672 424.965 197.5 427.141 Q199.352 429.294 202.5 429.294 Q205.649 429.294 207.477 427.141 Q209.329 424.965 209.329 421.238 Q209.329 417.488 207.477 415.336 Q205.649 413.183 202.5 413.183 M211.783 398.53 L211.783 402.79 Q210.024 401.956 208.218 401.516 Q206.436 401.077 204.676 401.077 Q200.047 401.077 197.593 404.202 Q195.163 407.327 194.815 413.646 Q196.181 411.632 198.241 410.567 Q200.301 409.479 202.778 409.479 Q207.987 409.479 210.996 412.651 Q214.028 415.799 214.028 421.238 Q214.028 426.563 210.88 429.78 Q207.732 432.998 202.5 432.998 Q196.505 432.998 193.334 428.414 Q190.163 423.808 190.163 415.081 Q190.163 406.887 194.051 402.026 Q197.94 397.141 204.491 397.141 Q206.25 397.141 208.033 397.489 Q209.838 397.836 211.783 398.53 Z" fill="#000000" fill-rule="nonzero" fill-opacity="1" /><path clip-path="url(#clip610)" d="M126.783 224.478 Q123.172 224.478 121.343 228.042 Q119.538 231.584 119.538 238.714 Q119.538 245.82 121.343 249.385 Q123.172 252.927 126.783 252.927 Q130.417 252.927 132.223 249.385 Q134.052 245.82 134.052 238.714 Q134.052 231.584 132.223 228.042 Q130.417 224.478 126.783 224.478 M126.783 220.774 Q132.593 220.774 135.649 225.38 Q138.728 229.964 138.728 238.714 Q138.728 247.44 135.649 252.047 Q132.593 256.63 126.783 256.63 Q120.973 256.63 117.894 252.047 Q114.839 247.44 114.839 238.714 Q114.839 229.964 117.894 225.38 Q120.973 220.774 126.783 220.774 Z" fill="#000000" fill-rule="nonzero" fill-opacity="1" /><path clip-path="url(#clip610)" d="M146.945 250.079 L151.829 250.079 L151.829 255.959 L146.945 255.959 L146.945 250.079 Z" fill="#000000" fill-rule="nonzero" fill-opacity="1" /><path clip-path="url(#clip610)" d="M162.825 252.024 L170.464 252.024 L170.464 225.658 L162.153 227.325 L162.153 223.066 L170.417 221.399 L175.093 221.399 L175.093 252.024 L182.732 252.024 L182.732 255.959 L162.825 255.959 L162.825 252.024 Z" fill="#000000" fill-rule="nonzero" fill-opacity="1" /><path clip-path="url(#clip610)" d="M202.176 239.547 Q198.843 239.547 196.922 241.329 Q195.024 243.112 195.024 246.237 Q195.024 249.362 196.922 251.144 Q198.843 252.927 202.176 252.927 Q205.51 252.927 207.431 251.144 Q209.352 249.339 209.352 246.237 Q209.352 243.112 207.431 241.329 Q205.533 239.547 202.176 239.547 M197.5 237.556 Q194.491 236.816 192.801 234.755 Q191.135 232.695 191.135 229.732 Q191.135 225.589 194.075 223.181 Q197.037 220.774 202.176 220.774 Q207.338 220.774 210.278 223.181 Q213.218 225.589 213.218 229.732 Q213.218 232.695 211.528 234.755 Q209.861 236.816 206.875 237.556 Q210.255 238.343 212.13 240.635 Q214.028 242.927 214.028 246.237 Q214.028 251.26 210.949 253.945 Q207.894 256.63 202.176 256.63 Q196.459 256.63 193.38 253.945 Q190.325 251.26 190.325 246.237 Q190.325 242.927 192.223 240.635 Q194.121 238.343 197.5 237.556 M195.787 230.172 Q195.787 232.857 197.454 234.362 Q199.144 235.866 202.176 235.866 Q205.186 235.866 206.875 234.362 Q208.588 232.857 208.588 230.172 Q208.588 227.487 206.875 225.982 Q205.186 224.478 202.176 224.478 Q199.144 224.478 197.454 225.982 Q195.787 227.487 195.787 230.172 Z" fill="#000000" fill-rule="nonzero" fill-opacity="1" /><path clip-path="url(#clip610)" d="M14.1925 1204.92 L79.3773 1204.92 L79.3773 1210.33 L14.1925 1210.33 L14.1925 1204.92 Z" fill="#000000" fill-rule="nonzero" fill-opacity="1" /><path clip-path="url(#clip610)" d="M16.4842 1196.84 L16.4842 1156.64 L21.895 1156.64 L21.895 1173.51 L64.0042 1173.51 L64.0042 1179.97 L21.895 1179.97 L21.895 1196.84 L16.4842 1196.84 Z" fill="#000000" fill-rule="nonzero" fill-opacity="1" /><path clip-path="url(#clip610)" d="M74.8259 1123.6 L79.3773 1123.6 L79.3773 1157.47 L74.8259 1157.47 L74.8259 1123.6 Z" fill="#000000" fill-rule="nonzero" fill-opacity="1" /><path clip-path="url(#clip610)" d="M29.7248 1092.44 L35.1993 1092.44 Q33.8307 1094.92 33.1623 1097.44 Q32.4621 1099.92 32.4621 1102.47 Q32.4621 1108.17 36.0905 1111.32 Q39.6872 1114.47 46.212 1114.47 Q52.7369 1114.47 56.3653 1111.32 Q59.9619 1108.17 59.9619 1102.47 Q59.9619 1099.92 59.2935 1097.44 Q58.5933 1094.92 57.2247 1092.44 L62.6355 1092.44 Q63.7814 1094.89 64.3543 1097.53 Q64.9272 1100.14 64.9272 1103.1 Q64.9272 1111.16 59.8664 1115.9 Q54.8057 1120.64 46.212 1120.64 Q37.491 1120.64 32.4939 1115.87 Q27.4968 1111.06 27.4968 1102.72 Q27.4968 1100.02 28.0697 1097.44 Q28.6108 1094.86 29.7248 1092.44 Z" fill="#000000" fill-rule="nonzero" fill-opacity="1" /><path clip-path="url(#clip610)" d="M43.5384 1064.5 L43.5384 1047.34 L48.7583 1047.34 L48.7583 1064.5 L43.5384 1064.5 Z" fill="#000000" fill-rule="nonzero" fill-opacity="1" /><path clip-path="url(#clip610)" d="M20.8447 997.752 Q20.8447 1004.75 26.0645 1008.89 Q31.2844 1013 40.2919 1013 Q49.2675 1013 54.4874 1008.89 Q59.7073 1004.75 59.7073 997.752 Q59.7073 990.75 54.4874 986.676 Q49.2675 982.57 40.2919 982.57 Q31.2844 982.57 26.0645 986.676 Q20.8447 990.75 20.8447 997.752 M15.6248 997.752 Q15.6248 987.758 22.3406 981.774 Q29.0246 975.79 40.2919 975.79 Q51.5274 975.79 58.2432 981.774 Q64.9272 987.758 64.9272 997.752 Q64.9272 1007.78 58.2432 1013.79 Q51.5592 1019.78 40.2919 1019.78 Q29.0246 1019.78 22.3406 1013.79 Q15.6248 1007.78 15.6248 997.752 Z" fill="#000000" fill-rule="nonzero" fill-opacity="1" /><path clip-path="url(#clip610)" d="M42.4881 936.355 L64.0042 936.355 L64.0042 942.211 L42.679 942.211 Q37.6183 942.211 35.1038 944.184 Q32.5894 946.158 32.5894 950.105 Q32.5894 954.847 35.6131 957.584 Q38.6368 960.322 43.8567 960.322 L64.0042 960.322 L64.0042 966.21 L28.3562 966.21 L28.3562 960.322 L33.8944 960.322 Q30.6797 958.221 29.0883 955.388 Q27.4968 952.524 27.4968 948.8 Q27.4968 942.657 31.3163 939.506 Q35.1038 936.355 42.4881 936.355 Z" fill="#000000" fill-rule="nonzero" fill-opacity="1" /><path clip-path="url(#clip610)" d="M29.4065 901.948 L34.9447 901.948 Q33.6716 904.431 33.035 907.104 Q32.3984 909.778 32.3984 912.642 Q32.3984 917.003 33.7352 919.199 Q35.072 921.363 37.7456 921.363 Q39.7826 921.363 40.9603 919.804 Q42.1061 918.244 43.1565 913.534 L43.6021 911.528 Q44.9389 905.29 47.3897 902.68 Q49.8086 900.038 54.1691 900.038 Q59.1344 900.038 62.0308 903.985 Q64.9272 907.9 64.9272 914.775 Q64.9272 917.639 64.3543 920.759 Q63.8132 923.846 62.6992 927.283 L56.6518 927.283 Q58.3387 924.037 59.198 920.886 Q60.0256 917.735 60.0256 914.648 Q60.0256 910.51 58.6251 908.282 Q57.1929 906.054 54.6147 906.054 Q52.2276 906.054 50.9545 907.677 Q49.6813 909.269 48.5037 914.711 L48.0262 916.748 Q46.8804 922.191 44.5251 924.61 Q42.138 927.029 38.0002 927.029 Q32.9713 927.029 30.2341 923.464 Q27.4968 919.899 27.4968 913.343 Q27.4968 910.096 27.9743 907.232 Q28.4517 904.367 29.4065 901.948 Z" fill="#000000" fill-rule="nonzero" fill-opacity="1" /><path clip-path="url(#clip610)" d="M46.0847 874.512 Q46.0847 881.61 47.7079 884.347 Q49.3312 887.084 53.2461 887.084 Q56.3653 887.084 58.2114 885.047 Q60.0256 882.978 60.0256 879.445 Q60.0256 874.575 56.5881 871.647 Q53.1188 868.687 47.3897 868.687 L46.0847 868.687 L46.0847 874.512 M43.6657 862.831 L64.0042 862.831 L64.0042 868.687 L58.5933 868.687 Q61.8398 870.692 63.3994 873.684 Q64.9272 876.676 64.9272 881.005 Q64.9272 886.479 61.8716 889.726 Q58.7843 892.941 53.6281 892.941 Q47.6125 892.941 44.5569 888.93 Q41.5014 884.888 41.5014 876.899 L41.5014 868.687 L40.9285 868.687 Q36.8862 868.687 34.6901 871.361 Q32.4621 874.003 32.4621 878.809 Q32.4621 881.864 33.1941 884.761 Q33.9262 887.657 35.3903 890.331 L29.9795 890.331 Q28.7381 887.116 28.1334 884.092 Q27.4968 881.068 27.4968 878.204 Q27.4968 870.47 31.5072 866.65 Q35.5176 862.831 43.6657 862.831 Z" fill="#000000" fill-rule="nonzero" fill-opacity="1" /><path clip-path="url(#clip610)" d="M45.7664 827.31 Q39.4007 827.31 35.8996 829.952 Q32.3984 832.562 32.3984 837.304 Q32.3984 842.015 35.8996 844.657 Q39.4007 847.267 45.7664 847.267 Q52.1003 847.267 55.6014 844.657 Q59.1026 842.015 59.1026 837.304 Q59.1026 832.562 55.6014 829.952 Q52.1003 827.31 45.7664 827.31 M59.58 821.454 Q68.683 821.454 73.1071 825.496 Q77.5631 829.538 77.5631 837.877 Q77.5631 840.965 77.0857 843.702 Q76.6401 846.439 75.6852 849.017 L69.9879 849.017 Q71.3884 846.439 72.0568 843.925 Q72.7252 841.41 72.7252 838.8 Q72.7252 833.039 69.7015 830.175 Q66.7096 827.31 60.6303 827.31 L57.7339 827.31 Q60.885 829.124 62.4446 831.957 Q64.0042 834.79 64.0042 838.737 Q64.0042 845.293 59.0071 849.304 Q54.01 853.314 45.7664 853.314 Q37.491 853.314 32.4939 849.304 Q27.4968 845.293 27.4968 838.737 Q27.4968 834.79 29.0564 831.957 Q30.616 829.124 33.7671 827.31 L28.3562 827.31 L28.3562 821.454 L59.58 821.454 Z" fill="#000000" fill-rule="nonzero" fill-opacity="1" /><path clip-path="url(#clip610)" d="M44.7161 778.899 L47.5806 778.899 L47.5806 805.826 Q53.6281 805.444 56.8109 802.197 Q59.9619 798.919 59.9619 793.094 Q59.9619 789.721 59.1344 786.57 Q58.3069 783.387 56.6518 780.267 L62.1899 780.267 Q63.5267 783.419 64.227 786.729 Q64.9272 790.039 64.9272 793.445 Q64.9272 801.975 59.9619 806.972 Q54.9967 811.937 46.5303 811.937 Q37.7774 811.937 32.6531 807.226 Q27.4968 802.484 27.4968 794.463 Q27.4968 787.27 32.1438 783.1 Q36.7589 778.899 44.7161 778.899 M42.9973 784.755 Q38.1912 784.819 35.3266 787.461 Q32.4621 790.071 32.4621 794.399 Q32.4621 799.301 35.2312 802.261 Q38.0002 805.189 43.0292 805.635 L42.9973 784.755 Z" fill="#000000" fill-rule="nonzero" fill-opacity="1" /><path clip-path="url(#clip610)" d="M33.8307 748.63 Q33.2578 749.617 33.0032 750.794 Q32.7167 751.94 32.7167 753.341 Q32.7167 758.306 35.9632 760.979 Q39.1779 763.621 45.2253 763.621 L64.0042 763.621 L64.0042 769.509 L28.3562 769.509 L28.3562 763.621 L33.8944 763.621 Q30.6479 761.775 29.0883 758.815 Q27.4968 755.855 27.4968 751.622 Q27.4968 751.017 27.5923 750.285 Q27.656 749.553 27.8151 748.662 L33.8307 748.63 Z" fill="#000000" fill-rule="nonzero" fill-opacity="1" /><path clip-path="url(#clip610)" d="M16.4842 736.949 L34.149 736.949 L34.149 742.36 L16.4842 742.36 L16.4842 736.949 Z" fill="#000000" fill-rule="nonzero" fill-opacity="1" /><path clip-path="url(#clip610)" d="M29.4065 701.842 L34.9447 701.842 Q33.6716 704.325 33.035 706.998 Q32.3984 709.672 32.3984 712.536 Q32.3984 716.897 33.7352 719.093 Q35.072 721.257 37.7456 721.257 Q39.7826 721.257 40.9603 719.698 Q42.1061 718.138 43.1565 713.428 L43.6021 711.422 Q44.9389 705.184 47.3897 702.574 Q49.8086 699.932 54.1691 699.932 Q59.1344 699.932 62.0308 703.879 Q64.9272 707.794 64.9272 714.669 Q64.9272 717.533 64.3543 720.653 Q63.8132 723.74 62.6992 727.178 L56.6518 727.178 Q58.3387 723.931 59.198 720.78 Q60.0256 717.629 60.0256 714.542 Q60.0256 710.404 58.6251 708.176 Q57.1929 705.948 54.6147 705.948 Q52.2276 705.948 50.9545 707.571 Q49.6813 709.163 48.5037 714.605 L48.0262 716.642 Q46.8804 722.085 44.5251 724.504 Q42.138 726.923 38.0002 726.923 Q32.9713 726.923 30.2341 723.358 Q27.4968 719.793 27.4968 713.237 Q27.4968 709.99 27.9743 707.126 Q28.4517 704.261 29.4065 701.842 Z" fill="#000000" fill-rule="nonzero" fill-opacity="1" /><path clip-path="url(#clip610)" d="M18.0438 641.145 L24.314 641.145 Q22.5634 644.805 21.704 648.052 Q20.8447 651.298 20.8447 654.322 Q20.8447 659.574 22.8817 662.438 Q24.9187 665.271 28.6745 665.271 Q31.8255 665.271 33.4488 663.393 Q35.0402 661.483 36.0269 656.2 L36.8226 652.317 Q38.1912 645.124 41.6605 641.718 Q45.098 638.28 50.8908 638.28 Q57.7976 638.28 61.3624 642.927 Q64.9272 647.543 64.9272 656.486 Q64.9272 659.86 64.1633 663.68 Q63.3994 667.467 61.9035 671.541 L55.2831 671.541 Q57.4793 667.626 58.5933 663.871 Q59.7073 660.115 59.7073 656.486 Q59.7073 650.98 57.543 647.988 Q55.3786 644.996 51.3682 644.996 Q47.8671 644.996 45.8937 647.161 Q43.9204 649.293 42.9337 654.195 L42.1698 658.11 Q40.7375 665.303 37.682 668.518 Q34.6264 671.732 29.1837 671.732 Q22.8817 671.732 19.2532 667.308 Q15.6248 662.852 15.6248 655.054 Q15.6248 651.712 16.2295 648.243 Q16.8343 644.773 18.0438 641.145 Z" fill="#000000" fill-rule="nonzero" fill-opacity="1" /><path clip-path="url(#clip610)" d="M32.4621 614.695 Q32.4621 619.406 36.1542 622.143 Q39.8145 624.881 46.212 624.881 Q52.6095 624.881 56.3017 622.175 Q59.9619 619.438 59.9619 614.695 Q59.9619 610.017 56.2698 607.279 Q52.5777 604.542 46.212 604.542 Q39.8781 604.542 36.186 607.279 Q32.4621 610.017 32.4621 614.695 M27.4968 614.695 Q27.4968 607.057 32.4621 602.696 Q37.4273 598.336 46.212 598.336 Q54.9649 598.336 59.9619 602.696 Q64.9272 607.057 64.9272 614.695 Q64.9272 622.366 59.9619 626.727 Q54.9649 631.055 46.212 631.055 Q37.4273 631.055 32.4621 626.727 Q27.4968 622.366 27.4968 614.695 Z" fill="#000000" fill-rule="nonzero" fill-opacity="1" /><path clip-path="url(#clip610)" d="M14.479 588.628 L14.479 582.771 L64.0042 582.771 L64.0042 588.628 L14.479 588.628 Z" fill="#000000" fill-rule="nonzero" fill-opacity="1" /><path clip-path="url(#clip610)" d="M49.9359 571.122 L28.3562 571.122 L28.3562 565.266 L49.7131 565.266 Q54.7739 565.266 57.3202 563.292 Q59.8346 561.319 59.8346 557.372 Q59.8346 552.63 56.8109 549.893 Q53.7872 547.123 48.5673 547.123 L28.3562 547.123 L28.3562 541.267 L64.0042 541.267 L64.0042 547.123 L58.5296 547.123 Q61.7762 549.256 63.3676 552.089 Q64.9272 554.89 64.9272 558.614 Q64.9272 564.756 61.1078 567.939 Q57.2883 571.122 49.9359 571.122 M27.4968 556.386 L27.4968 556.386 Z" fill="#000000" fill-rule="nonzero" fill-opacity="1" /><path clip-path="url(#clip610)" d="M18.2347 523.411 L28.3562 523.411 L28.3562 511.348 L32.9077 511.348 L32.9077 523.411 L52.2594 523.411 Q56.6199 523.411 57.8613 522.234 Q59.1026 521.024 59.1026 517.364 L59.1026 511.348 L64.0042 511.348 L64.0042 517.364 Q64.0042 524.143 61.4897 526.721 Q58.9434 529.3 52.2594 529.3 L32.9077 529.3 L32.9077 533.596 L28.3562 533.596 L28.3562 529.3 L18.2347 529.3 L18.2347 523.411 Z" fill="#000000" fill-rule="nonzero" fill-opacity="1" /><path clip-path="url(#clip610)" d="M28.3562 503.646 L28.3562 497.789 L64.0042 497.789 L64.0042 503.646 L28.3562 503.646 M14.479 503.646 L14.479 497.789 L21.895 497.789 L21.895 503.646 L14.479 503.646 Z" fill="#000000" fill-rule="nonzero" fill-opacity="1" /><path clip-path="url(#clip610)" d="M32.4621 471.722 Q32.4621 476.432 36.1542 479.17 Q39.8145 481.907 46.212 481.907 Q52.6095 481.907 56.3017 479.201 Q59.9619 476.464 59.9619 471.722 Q59.9619 467.043 56.2698 464.306 Q52.5777 461.568 46.212 461.568 Q39.8781 461.568 36.186 464.306 Q32.4621 467.043 32.4621 471.722 M27.4968 471.722 Q27.4968 464.083 32.4621 459.722 Q37.4273 455.362 46.212 455.362 Q54.9649 455.362 59.9619 459.722 Q64.9272 464.083 64.9272 471.722 Q64.9272 479.392 59.9619 483.753 Q54.9649 488.082 46.212 488.082 Q37.4273 488.082 32.4621 483.753 Q27.4968 479.392 27.4968 471.722 Z" fill="#000000" fill-rule="nonzero" fill-opacity="1" /><path clip-path="url(#clip610)" d="M42.4881 416.022 L64.0042 416.022 L64.0042 421.878 L42.679 421.878 Q37.6183 421.878 35.1038 423.852 Q32.5894 425.825 32.5894 429.772 Q32.5894 434.514 35.6131 437.251 Q38.6368 439.989 43.8567 439.989 L64.0042 439.989 L64.0042 445.877 L28.3562 445.877 L28.3562 439.989 L33.8944 439.989 Q30.6797 437.888 29.0883 435.055 Q27.4968 432.191 27.4968 428.467 Q27.4968 422.324 31.3163 419.173 Q35.1038 416.022 42.4881 416.022 Z" fill="#000000" fill-rule="nonzero" fill-opacity="1" /><path clip-path="url(#clip610)" d="M14.1925 396.797 L79.3773 396.797 L79.3773 402.208 L14.1925 402.208 L14.1925 396.797 Z" fill="#000000" fill-rule="nonzero" fill-opacity="1" /><path clip-path="url(#clip610)" d="M360.792 39.9885 L360.792 87.0195 L370.677 87.0195 Q383.194 87.0195 388.987 81.3482 Q394.82 75.677 394.82 63.4432 Q394.82 51.2905 388.987 45.6598 Q383.194 39.9885 370.677 39.9885 L360.792 39.9885 M352.609 33.264 L369.421 33.264 Q387.002 33.264 395.225 40.5961 Q403.448 47.8878 403.448 63.4432 Q403.448 79.0797 395.184 86.4119 Q386.921 93.744 369.421 93.744 L352.609 93.744 L352.609 33.264 Z" fill="#000000" fill-rule="nonzero" fill-opacity="1" /><path clip-path="url(#clip610)" d="M416.168 48.3739 L423.622 48.3739 L423.622 93.744 L416.168 93.744 L416.168 48.3739 M416.168 30.7119 L423.622 30.7119 L423.622 40.1505 L416.168 40.1505 L416.168 30.7119 Z" fill="#000000" fill-rule="nonzero" fill-opacity="1" /><path clip-path="url(#clip610)" d="M462.186 30.7119 L462.186 36.9098 L455.057 36.9098 Q451.046 36.9098 449.467 38.5302 Q447.927 40.1505 447.927 44.3635 L447.927 48.3739 L460.202 48.3739 L460.202 54.1667 L447.927 54.1667 L447.927 93.744 L440.433 93.744 L440.433 54.1667 L433.304 54.1667 L433.304 48.3739 L440.433 48.3739 L440.433 45.2142 Q440.433 37.639 443.957 34.1957 Q447.482 30.7119 455.138 30.7119 L462.186 30.7119 Z" fill="#000000" fill-rule="nonzero" fill-opacity="1" /><path clip-path="url(#clip610)" d="M491.393 30.7119 L491.393 36.9098 L484.264 36.9098 Q480.253 36.9098 478.674 38.5302 Q477.134 40.1505 477.134 44.3635 L477.134 48.3739 L489.409 48.3739 L489.409 54.1667 L477.134 54.1667 L477.134 93.744 L469.64 93.744 L469.64 54.1667 L462.511 54.1667 L462.511 48.3739 L469.64 48.3739 L469.64 45.2142 Q469.64 37.639 473.164 34.1957 Q476.689 30.7119 484.345 30.7119 L491.393 30.7119 Z" fill="#000000" fill-rule="nonzero" fill-opacity="1" /><path clip-path="url(#clip610)" d="M536.44 69.1955 L536.44 72.8413 L502.169 72.8413 Q502.655 80.5381 506.787 84.589 Q510.959 88.5994 518.372 88.5994 Q522.666 88.5994 526.677 87.5461 Q530.728 86.4929 534.698 84.3864 L534.698 91.435 Q530.687 93.1364 526.474 94.0276 Q522.261 94.9188 517.927 94.9188 Q507.07 94.9188 500.711 88.5994 Q494.391 82.2799 494.391 71.5045 Q494.391 60.3645 500.386 53.8426 Q506.422 47.2801 516.631 47.2801 Q525.786 47.2801 531.092 53.1944 Q536.44 59.0683 536.44 69.1955 M528.986 67.008 Q528.905 60.8912 525.543 57.2454 Q522.221 53.5995 516.712 53.5995 Q510.473 53.5995 506.706 57.1238 Q502.979 60.6481 502.412 67.0485 L528.986 67.008 Z" fill="#000000" fill-rule="nonzero" fill-opacity="1" /><path clip-path="url(#clip610)" d="M574.964 55.3414 Q573.708 54.6123 572.209 54.2882 Q570.751 53.9236 568.968 53.9236 Q562.649 53.9236 559.246 58.0555 Q555.884 62.1469 555.884 69.8437 L555.884 93.744 L548.39 93.744 L548.39 48.3739 L555.884 48.3739 L555.884 55.4224 Q558.233 51.2905 562.001 49.3056 Q565.768 47.2801 571.156 47.2801 Q571.925 47.2801 572.857 47.4017 Q573.789 47.4827 574.923 47.6852 L574.964 55.3414 Z" fill="#000000" fill-rule="nonzero" fill-opacity="1" /><path clip-path="url(#clip610)" d="M619.767 69.1955 L619.767 72.8413 L585.496 72.8413 Q585.982 80.5381 590.114 84.589 Q594.286 88.5994 601.7 88.5994 Q605.994 88.5994 610.004 87.5461 Q614.055 86.4929 618.025 84.3864 L618.025 91.435 Q614.014 93.1364 609.801 94.0276 Q605.588 94.9188 601.254 94.9188 Q590.398 94.9188 584.038 88.5994 Q577.718 82.2799 577.718 71.5045 Q577.718 60.3645 583.714 53.8426 Q589.749 47.2801 599.958 47.2801 Q609.113 47.2801 614.419 53.1944 Q619.767 59.0683 619.767 69.1955 M612.313 67.008 Q612.232 60.8912 608.87 57.2454 Q605.548 53.5995 600.039 53.5995 Q593.8 53.5995 590.033 57.1238 Q586.306 60.6481 585.739 67.0485 L612.313 67.008 Z" fill="#000000" fill-rule="nonzero" fill-opacity="1" /><path clip-path="url(#clip610)" d="M669.714 66.3599 L669.714 93.744 L662.261 93.744 L662.261 66.6029 Q662.261 60.162 659.749 56.9618 Q657.237 53.7616 652.214 53.7616 Q646.179 53.7616 642.695 57.6099 Q639.211 61.4583 639.211 68.1018 L639.211 93.744 L631.717 93.744 L631.717 48.3739 L639.211 48.3739 L639.211 55.4224 Q641.885 51.331 645.49 49.3056 Q649.136 47.2801 653.875 47.2801 Q661.693 47.2801 665.704 52.1412 Q669.714 56.9618 669.714 66.3599 Z" fill="#000000" fill-rule="nonzero" fill-opacity="1" /><path clip-path="url(#clip610)" d="M717.231 50.1158 L717.231 57.0833 Q714.072 55.3414 710.871 54.4907 Q707.712 53.5995 704.471 53.5995 Q697.22 53.5995 693.21 58.2176 Q689.199 62.7951 689.199 71.0994 Q689.199 79.4038 693.21 84.0218 Q697.22 88.5994 704.471 88.5994 Q707.712 88.5994 710.871 87.7487 Q714.072 86.8575 717.231 85.1156 L717.231 92.0021 Q714.112 93.4604 710.75 94.1896 Q707.428 94.9188 703.661 94.9188 Q693.412 94.9188 687.376 88.4778 Q681.34 82.0369 681.34 71.0994 Q681.34 60 687.417 53.64 Q693.534 47.2801 704.147 47.2801 Q707.59 47.2801 710.871 48.0093 Q714.153 48.6979 717.231 50.1158 Z" fill="#000000" fill-rule="nonzero" fill-opacity="1" /><path clip-path="url(#clip610)" d="M769.002 69.1955 L769.002 72.8413 L734.731 72.8413 Q735.217 80.5381 739.349 84.589 Q743.522 88.5994 750.935 88.5994 Q755.229 88.5994 759.239 87.5461 Q763.29 86.4929 767.26 84.3864 L767.26 91.435 Q763.25 93.1364 759.037 94.0276 Q754.824 94.9188 750.489 94.9188 Q739.633 94.9188 733.273 88.5994 Q726.954 82.2799 726.954 71.5045 Q726.954 60.3645 732.949 53.8426 Q738.985 47.2801 749.193 47.2801 Q758.348 47.2801 763.655 53.1944 Q769.002 59.0683 769.002 69.1955 M761.548 67.008 Q761.467 60.8912 758.105 57.2454 Q754.783 53.5995 749.274 53.5995 Q743.036 53.5995 739.268 57.1238 Q735.541 60.6481 734.974 67.0485 L761.548 67.008 Z" fill="#000000" fill-rule="nonzero" fill-opacity="1" /><path clip-path="url(#clip610)" d="M840.176 71.0994 Q840.176 62.8761 836.774 58.2176 Q833.411 53.5185 827.497 53.5185 Q821.583 53.5185 818.18 58.2176 Q814.818 62.8761 814.818 71.0994 Q814.818 79.3228 818.18 84.0218 Q821.583 88.6804 827.497 88.6804 Q833.411 88.6804 836.774 84.0218 Q840.176 79.3228 840.176 71.0994 M814.818 55.2604 Q817.167 51.2095 820.732 49.2651 Q824.337 47.2801 829.32 47.2801 Q837.584 47.2801 842.728 53.8426 Q847.914 60.4051 847.914 71.0994 Q847.914 81.7938 842.728 88.3563 Q837.584 94.9188 829.32 94.9188 Q824.337 94.9188 820.732 92.9743 Q817.167 90.9894 814.818 86.9385 L814.818 93.744 L807.323 93.744 L807.323 30.7119 L814.818 30.7119 L814.818 55.2604 Z" fill="#000000" fill-rule="nonzero" fill-opacity="1" /><path clip-path="url(#clip610)" d="M899.076 69.1955 L899.076 72.8413 L864.806 72.8413 Q865.292 80.5381 869.424 84.589 Q873.596 88.5994 881.009 88.5994 Q885.303 88.5994 889.314 87.5461 Q893.365 86.4929 897.335 84.3864 L897.335 91.435 Q893.324 93.1364 889.111 94.0276 Q884.898 94.9188 880.564 94.9188 Q869.707 94.9188 863.347 88.5994 Q857.028 82.2799 857.028 71.5045 Q857.028 60.3645 863.023 53.8426 Q869.059 47.2801 879.268 47.2801 Q888.423 47.2801 893.729 53.1944 Q899.076 59.0683 899.076 69.1955 M891.623 67.008 Q891.542 60.8912 888.18 57.2454 Q884.858 53.5995 879.349 53.5995 Q873.11 53.5995 869.343 57.1238 Q865.616 60.6481 865.049 67.0485 L891.623 67.008 Z" fill="#000000" fill-rule="nonzero" fill-opacity="1" /><path clip-path="url(#clip610)" d="M918.683 35.492 L918.683 48.3739 L934.036 48.3739 L934.036 54.1667 L918.683 54.1667 L918.683 78.7962 Q918.683 84.3459 920.182 85.9258 Q921.721 87.5056 926.38 87.5056 L934.036 87.5056 L934.036 93.744 L926.38 93.744 Q917.751 93.744 914.47 90.5438 Q911.189 87.3031 911.189 78.7962 L911.189 54.1667 L905.72 54.1667 L905.72 48.3739 L911.189 48.3739 L911.189 35.492 L918.683 35.492 Z" fill="#000000" fill-rule="nonzero" fill-opacity="1" /><path clip-path="url(#clip610)" d="M939.504 48.3739 L946.958 48.3739 L956.275 83.7788 L965.552 48.3739 L974.342 48.3739 L983.659 83.7788 L992.936 48.3739 L1000.39 48.3739 L988.52 93.744 L979.73 93.744 L969.967 56.5567 L960.164 93.744 L951.374 93.744 L939.504 48.3739 Z" fill="#000000" fill-rule="nonzero" fill-opacity="1" /><path clip-path="url(#clip610)" d="M1050.5 69.1955 L1050.5 72.8413 L1016.23 72.8413 Q1016.71 80.5381 1020.85 84.589 Q1025.02 88.5994 1032.43 88.5994 Q1036.73 88.5994 1040.74 87.5461 Q1044.79 86.4929 1048.76 84.3864 L1048.76 91.435 Q1044.75 93.1364 1040.53 94.0276 Q1036.32 94.9188 1031.99 94.9188 Q1021.13 94.9188 1014.77 88.5994 Q1008.45 82.2799 1008.45 71.5045 Q1008.45 60.3645 1014.45 53.8426 Q1020.48 47.2801 1030.69 47.2801 Q1039.85 47.2801 1045.15 53.1944 Q1050.5 59.0683 1050.5 69.1955 M1043.05 67.008 Q1042.96 60.8912 1039.6 57.2454 Q1036.28 53.5995 1030.77 53.5995 Q1024.53 53.5995 1020.77 57.1238 Q1017.04 60.6481 1016.47 67.0485 L1043.05 67.008 Z" fill="#000000" fill-rule="nonzero" fill-opacity="1" /><path clip-path="url(#clip610)" d="M1101.54 69.1955 L1101.54 72.8413 L1067.27 72.8413 Q1067.76 80.5381 1071.89 84.589 Q1076.06 88.5994 1083.47 88.5994 Q1087.77 88.5994 1091.78 87.5461 Q1095.83 86.4929 1099.8 84.3864 L1099.8 91.435 Q1095.79 93.1364 1091.58 94.0276 Q1087.36 94.9188 1083.03 94.9188 Q1072.17 94.9188 1065.81 88.5994 Q1059.49 82.2799 1059.49 71.5045 Q1059.49 60.3645 1065.49 53.8426 Q1071.52 47.2801 1081.73 47.2801 Q1090.89 47.2801 1096.19 53.1944 Q1101.54 59.0683 1101.54 69.1955 M1094.09 67.008 Q1094.01 60.8912 1090.64 57.2454 Q1087.32 53.5995 1081.81 53.5995 Q1075.57 53.5995 1071.81 57.1238 Q1068.08 60.6481 1067.51 67.0485 L1094.09 67.008 Z" fill="#000000" fill-rule="nonzero" fill-opacity="1" /><path clip-path="url(#clip610)" d="M1151.49 66.3599 L1151.49 93.744 L1144.03 93.744 L1144.03 66.6029 Q1144.03 60.162 1141.52 56.9618 Q1139.01 53.7616 1133.99 53.7616 Q1127.95 53.7616 1124.47 57.6099 Q1120.99 61.4583 1120.99 68.1018 L1120.99 93.744 L1113.49 93.744 L1113.49 48.3739 L1120.99 48.3739 L1120.99 55.4224 Q1123.66 51.331 1127.26 49.3056 Q1130.91 47.2801 1135.65 47.2801 Q1143.47 47.2801 1147.48 52.1412 Q1151.49 56.9618 1151.49 66.3599 Z" fill="#000000" fill-rule="nonzero" fill-opacity="1" /><path clip-path="url(#clip610)" d="M1200.1 35.492 L1200.1 48.3739 L1215.45 48.3739 L1215.45 54.1667 L1200.1 54.1667 L1200.1 78.7962 Q1200.1 84.3459 1201.6 85.9258 Q1203.14 87.5056 1207.8 87.5056 L1215.45 87.5056 L1215.45 93.744 L1207.8 93.744 Q1199.17 93.744 1195.89 90.5438 Q1192.6 87.3031 1192.6 78.7962 L1192.6 54.1667 L1187.14 54.1667 L1187.14 48.3739 L1192.6 48.3739 L1192.6 35.492 L1200.1 35.492 Z" fill="#000000" fill-rule="nonzero" fill-opacity="1" /><path clip-path="url(#clip610)" d="M1262.97 66.3599 L1262.97 93.744 L1255.52 93.744 L1255.52 66.6029 Q1255.52 60.162 1253 56.9618 Q1250.49 53.7616 1245.47 53.7616 Q1239.43 53.7616 1235.95 57.6099 Q1232.47 61.4583 1232.47 68.1018 L1232.47 93.744 L1224.97 93.744 L1224.97 30.7119 L1232.47 30.7119 L1232.47 55.4224 Q1235.14 51.331 1238.74 49.3056 Q1242.39 47.2801 1247.13 47.2801 Q1254.95 47.2801 1258.96 52.1412 Q1262.97 56.9618 1262.97 66.3599 Z" fill="#000000" fill-rule="nonzero" fill-opacity="1" /><path clip-path="url(#clip610)" d="M1316.64 69.1955 L1316.64 72.8413 L1282.37 72.8413 Q1282.86 80.5381 1286.99 84.589 Q1291.16 88.5994 1298.58 88.5994 Q1302.87 88.5994 1306.88 87.5461 Q1310.93 86.4929 1314.9 84.3864 L1314.9 91.435 Q1310.89 93.1364 1306.68 94.0276 Q1302.47 94.9188 1298.13 94.9188 Q1287.27 94.9188 1280.91 88.5994 Q1274.6 82.2799 1274.6 71.5045 Q1274.6 60.3645 1280.59 53.8426 Q1286.63 47.2801 1296.83 47.2801 Q1305.99 47.2801 1311.3 53.1944 Q1316.64 59.0683 1316.64 69.1955 M1309.19 67.008 Q1309.11 60.8912 1305.75 57.2454 Q1302.43 53.5995 1296.92 53.5995 Q1290.68 53.5995 1286.91 57.1238 Q1283.18 60.6481 1282.62 67.0485 L1309.19 67.008 Z" fill="#000000" fill-rule="nonzero" fill-opacity="1" /><path clip-path="url(#clip610)" d="M1346.46 53.5995 Q1340.46 53.5995 1336.98 58.2986 Q1333.5 62.9571 1333.5 71.0994 Q1333.5 79.2418 1336.94 83.9408 Q1340.42 88.5994 1346.46 88.5994 Q1352.41 88.5994 1355.9 83.9003 Q1359.38 79.2013 1359.38 71.0994 Q1359.38 63.0381 1355.9 58.3391 Q1352.41 53.5995 1346.46 53.5995 M1346.46 47.2801 Q1356.18 47.2801 1361.73 53.5995 Q1367.28 59.9189 1367.28 71.0994 Q1367.28 82.2394 1361.73 88.5994 Q1356.18 94.9188 1346.46 94.9188 Q1336.7 94.9188 1331.15 88.5994 Q1325.64 82.2394 1325.64 71.0994 Q1325.64 59.9189 1331.15 53.5995 Q1336.7 47.2801 1346.46 47.2801 Z" fill="#000000" fill-rule="nonzero" fill-opacity="1" /><path clip-path="url(#clip610)" d="M1405.93 55.3414 Q1404.67 54.6123 1403.17 54.2882 Q1401.71 53.9236 1399.93 53.9236 Q1393.61 53.9236 1390.21 58.0555 Q1386.85 62.1469 1386.85 69.8437 L1386.85 93.744 L1379.35 93.744 L1379.35 48.3739 L1386.85 48.3739 L1386.85 55.4224 Q1389.2 51.2905 1392.96 49.3056 Q1396.73 47.2801 1402.12 47.2801 Q1402.89 47.2801 1403.82 47.4017 Q1404.75 47.4827 1405.89 47.6852 L1405.93 55.3414 Z" fill="#000000" fill-rule="nonzero" fill-opacity="1" /><path clip-path="url(#clip610)" d="M1450.73 69.1955 L1450.73 72.8413 L1416.46 72.8413 Q1416.94 80.5381 1421.08 84.589 Q1425.25 88.5994 1432.66 88.5994 Q1436.96 88.5994 1440.97 87.5461 Q1445.02 86.4929 1448.99 84.3864 L1448.99 91.435 Q1444.98 93.1364 1440.76 94.0276 Q1436.55 94.9188 1432.22 94.9188 Q1421.36 94.9188 1415 88.5994 Q1408.68 82.2799 1408.68 71.5045 Q1408.68 60.3645 1414.68 53.8426 Q1420.71 47.2801 1430.92 47.2801 Q1440.07 47.2801 1445.38 53.1944 Q1450.73 59.0683 1450.73 69.1955 M1443.27 67.008 Q1443.19 60.8912 1439.83 57.2454 Q1436.51 53.5995 1431 53.5995 Q1424.76 53.5995 1420.99 57.1238 Q1417.27 60.6481 1416.7 67.0485 L1443.27 67.008 Z" fill="#000000" fill-rule="nonzero" fill-opacity="1" /><path clip-path="url(#clip610)" d="M1470.33 35.492 L1470.33 48.3739 L1485.69 48.3739 L1485.69 54.1667 L1470.33 54.1667 L1470.33 78.7962 Q1470.33 84.3459 1471.83 85.9258 Q1473.37 87.5056 1478.03 87.5056 L1485.69 87.5056 L1485.69 93.744 L1478.03 93.744 Q1469.4 93.744 1466.12 90.5438 Q1462.84 87.3031 1462.84 78.7962 L1462.84 54.1667 L1457.37 54.1667 L1457.37 48.3739 L1462.84 48.3739 L1462.84 35.492 L1470.33 35.492 Z" fill="#000000" fill-rule="nonzero" fill-opacity="1" /><path clip-path="url(#clip610)" d="M1495.49 48.3739 L1502.94 48.3739 L1502.94 93.744 L1495.49 93.744 L1495.49 48.3739 M1495.49 30.7119 L1502.94 30.7119 L1502.94 40.1505 L1495.49 40.1505 L1495.49 30.7119 Z" fill="#000000" fill-rule="nonzero" fill-opacity="1" /><path clip-path="url(#clip610)" d="M1551.19 50.1158 L1551.19 57.0833 Q1548.03 55.3414 1544.83 54.4907 Q1541.67 53.5995 1538.43 53.5995 Q1531.18 53.5995 1527.17 58.2176 Q1523.16 62.7951 1523.16 71.0994 Q1523.16 79.4038 1527.17 84.0218 Q1531.18 88.5994 1538.43 88.5994 Q1541.67 88.5994 1544.83 87.7487 Q1548.03 86.8575 1551.19 85.1156 L1551.19 92.0021 Q1548.07 93.4604 1544.71 94.1896 Q1541.39 94.9188 1537.62 94.9188 Q1527.37 94.9188 1521.34 88.4778 Q1515.3 82.0369 1515.3 71.0994 Q1515.3 60 1521.38 53.64 Q1527.49 47.2801 1538.11 47.2801 Q1541.55 47.2801 1544.83 48.0093 Q1548.11 48.6979 1551.19 50.1158 Z" fill="#000000" fill-rule="nonzero" fill-opacity="1" /><path clip-path="url(#clip610)" d="M1584.77 70.9374 Q1575.74 70.9374 1572.26 73.0034 Q1568.77 75.0693 1568.77 80.0519 Q1568.77 84.0218 1571.36 86.3714 Q1574 88.6804 1578.49 88.6804 Q1584.69 88.6804 1588.42 84.3054 Q1592.19 79.8899 1592.19 72.5983 L1592.19 70.9374 L1584.77 70.9374 M1599.64 67.8587 L1599.64 93.744 L1592.19 93.744 L1592.19 86.8575 Q1589.63 90.9894 1585.83 92.9743 Q1582.02 94.9188 1576.51 94.9188 Q1569.54 94.9188 1565.41 91.0299 Q1561.32 87.1005 1561.32 80.5381 Q1561.32 72.8818 1566.42 68.993 Q1571.57 65.1041 1581.73 65.1041 L1592.19 65.1041 L1592.19 64.3749 Q1592.19 59.2303 1588.78 56.4352 Q1585.42 53.5995 1579.3 53.5995 Q1575.42 53.5995 1571.73 54.5312 Q1568.04 55.463 1564.64 57.3264 L1564.64 50.4398 Q1568.73 48.86 1572.58 48.0903 Q1576.43 47.2801 1580.07 47.2801 Q1589.92 47.2801 1594.78 52.3843 Q1599.64 57.4884 1599.64 67.8587 Z" fill="#000000" fill-rule="nonzero" fill-opacity="1" /><path clip-path="url(#clip610)" d="M1614.99 30.7119 L1622.45 30.7119 L1622.45 93.744 L1614.99 93.744 L1614.99 30.7119 Z" fill="#000000" fill-rule="nonzero" fill-opacity="1" /><path clip-path="url(#clip610)" d="M1685.03 70.9374 Q1676 70.9374 1672.52 73.0034 Q1669.03 75.0693 1669.03 80.0519 Q1669.03 84.0218 1671.62 86.3714 Q1674.26 88.6804 1678.75 88.6804 Q1684.95 88.6804 1688.68 84.3054 Q1692.45 79.8899 1692.45 72.5983 L1692.45 70.9374 L1685.03 70.9374 M1699.9 67.8587 L1699.9 93.744 L1692.45 93.744 L1692.45 86.8575 Q1689.89 90.9894 1686.09 92.9743 Q1682.28 94.9188 1676.77 94.9188 Q1669.8 94.9188 1665.67 91.0299 Q1661.58 87.1005 1661.58 80.5381 Q1661.58 72.8818 1666.68 68.993 Q1671.83 65.1041 1681.99 65.1041 L1692.45 65.1041 L1692.45 64.3749 Q1692.45 59.2303 1689.04 56.4352 Q1685.68 53.5995 1679.56 53.5995 Q1675.68 53.5995 1671.99 54.5312 Q1668.3 55.463 1664.9 57.3264 L1664.9 50.4398 Q1668.99 48.86 1672.84 48.0903 Q1676.69 47.2801 1680.33 47.2801 Q1690.18 47.2801 1695.04 52.3843 Q1699.9 57.4884 1699.9 67.8587 Z" fill="#000000" fill-rule="nonzero" fill-opacity="1" /><path clip-path="url(#clip610)" d="M1752.97 66.3599 L1752.97 93.744 L1745.51 93.744 L1745.51 66.6029 Q1745.51 60.162 1743 56.9618 Q1740.49 53.7616 1735.47 53.7616 Q1729.43 53.7616 1725.95 57.6099 Q1722.46 61.4583 1722.46 68.1018 L1722.46 93.744 L1714.97 93.744 L1714.97 48.3739 L1722.46 48.3739 L1722.46 55.4224 Q1725.14 51.331 1728.74 49.3056 Q1732.39 47.2801 1737.13 47.2801 Q1744.95 47.2801 1748.96 52.1412 Q1752.97 56.9618 1752.97 66.3599 Z" fill="#000000" fill-rule="nonzero" fill-opacity="1" /><path clip-path="url(#clip610)" d="M1797.69 55.2604 L1797.69 30.7119 L1805.14 30.7119 L1805.14 93.744 L1797.69 93.744 L1797.69 86.9385 Q1795.34 90.9894 1791.73 92.9743 Q1788.17 94.9188 1783.15 94.9188 Q1774.92 94.9188 1769.74 88.3563 Q1764.59 81.7938 1764.59 71.0994 Q1764.59 60.4051 1769.74 53.8426 Q1774.92 47.2801 1783.15 47.2801 Q1788.17 47.2801 1791.73 49.2651 Q1795.34 51.2095 1797.69 55.2604 M1772.29 71.0994 Q1772.29 79.3228 1775.65 84.0218 Q1779.05 88.6804 1784.97 88.6804 Q1790.88 88.6804 1794.29 84.0218 Q1797.69 79.3228 1797.69 71.0994 Q1797.69 62.8761 1794.29 58.2176 Q1790.88 53.5185 1784.97 53.5185 Q1779.05 53.5185 1775.65 58.2176 Q1772.29 62.8761 1772.29 71.0994 Z" fill="#000000" fill-rule="nonzero" fill-opacity="1" /><path clip-path="url(#clip610)" d="M1879.52 50.1158 L1879.52 57.0833 Q1876.36 55.3414 1873.16 54.4907 Q1870 53.5995 1866.76 53.5995 Q1859.51 53.5995 1855.49 58.2176 Q1851.48 62.7951 1851.48 71.0994 Q1851.48 79.4038 1855.49 84.0218 Q1859.51 88.5994 1866.76 88.5994 Q1870 88.5994 1873.16 87.7487 Q1876.36 86.8575 1879.52 85.1156 L1879.52 92.0021 Q1876.4 93.4604 1873.04 94.1896 Q1869.71 94.9188 1865.95 94.9188 Q1855.7 94.9188 1849.66 88.4778 Q1843.63 82.0369 1843.63 71.0994 Q1843.63 60 1849.7 53.64 Q1855.82 47.2801 1866.43 47.2801 Q1869.88 47.2801 1873.16 48.0093 Q1876.44 48.6979 1879.52 50.1158 Z" fill="#000000" fill-rule="nonzero" fill-opacity="1" /><path clip-path="url(#clip610)" d="M1910.06 53.5995 Q1904.07 53.5995 1900.58 58.2986 Q1897.1 62.9571 1897.1 71.0994 Q1897.1 79.2418 1900.54 83.9408 Q1904.02 88.5994 1910.06 88.5994 Q1916.02 88.5994 1919.5 83.9003 Q1922.98 79.2013 1922.98 71.0994 Q1922.98 63.0381 1919.5 58.3391 Q1916.02 53.5995 1910.06 53.5995 M1910.06 47.2801 Q1919.78 47.2801 1925.33 53.5995 Q1930.88 59.9189 1930.88 71.0994 Q1930.88 82.2394 1925.33 88.5994 Q1919.78 94.9188 1910.06 94.9188 Q1900.3 94.9188 1894.75 88.5994 Q1889.24 82.2394 1889.24 71.0994 Q1889.24 59.9189 1894.75 53.5995 Q1900.3 47.2801 1910.06 47.2801 Z" fill="#000000" fill-rule="nonzero" fill-opacity="1" /><path clip-path="url(#clip610)" d="M1978.56 57.0833 Q1981.36 52.0602 1985.25 49.6702 Q1989.13 47.2801 1994.4 47.2801 Q2001.49 47.2801 2005.34 52.2627 Q2009.19 57.2048 2009.19 66.3599 L2009.19 93.744 L2001.69 93.744 L2001.69 66.6029 Q2001.69 60.081 1999.38 56.9213 Q1997.07 53.7616 1992.33 53.7616 Q1986.54 53.7616 1983.18 57.6099 Q1979.82 61.4583 1979.82 68.1018 L1979.82 93.744 L1972.32 93.744 L1972.32 66.6029 Q1972.32 60.0405 1970.01 56.9213 Q1967.71 53.7616 1962.88 53.7616 Q1957.17 53.7616 1953.81 57.6504 Q1950.45 61.4988 1950.45 68.1018 L1950.45 93.744 L1942.95 93.744 L1942.95 48.3739 L1950.45 48.3739 L1950.45 55.4224 Q1953 51.25 1956.57 49.2651 Q1960.13 47.2801 1965.03 47.2801 Q1969.97 47.2801 1973.42 49.7917 Q1976.9 52.3032 1978.56 57.0833 Z" fill="#000000" fill-rule="nonzero" fill-opacity="1" /><path clip-path="url(#clip610)" d="M2031.26 86.9385 L2031.26 111.001 L2023.77 111.001 L2023.77 48.3739 L2031.26 48.3739 L2031.26 55.2604 Q2033.61 51.2095 2037.18 49.2651 Q2040.78 47.2801 2045.77 47.2801 Q2054.03 47.2801 2059.17 53.8426 Q2064.36 60.4051 2064.36 71.0994 Q2064.36 81.7938 2059.17 88.3563 Q2054.03 94.9188 2045.77 94.9188 Q2040.78 94.9188 2037.18 92.9743 Q2033.61 90.9894 2031.26 86.9385 M2056.62 71.0994 Q2056.62 62.8761 2053.22 58.2176 Q2049.86 53.5185 2043.94 53.5185 Q2038.03 53.5185 2034.63 58.2176 Q2031.26 62.8761 2031.26 71.0994 Q2031.26 79.3228 2034.63 84.0218 Q2038.03 88.6804 2043.94 88.6804 Q2049.86 88.6804 2053.22 84.0218 Q2056.62 79.3228 2056.62 71.0994 Z" fill="#000000" fill-rule="nonzero" fill-opacity="1" /><path clip-path="url(#clip610)" d="M2075.95 75.839 L2075.95 48.3739 L2083.4 48.3739 L2083.4 75.5554 Q2083.4 81.9964 2085.91 85.2371 Q2088.42 88.4373 2093.45 88.4373 Q2099.48 88.4373 2102.96 84.589 Q2106.49 80.7406 2106.49 74.0971 L2106.49 48.3739 L2113.94 48.3739 L2113.94 93.744 L2106.49 93.744 L2106.49 86.7764 Q2103.77 90.9084 2100.17 92.9338 Q2096.6 94.9188 2091.87 94.9188 Q2084.05 94.9188 2080 90.0577 Q2075.95 85.1966 2075.95 75.839 M2094.7 47.2801 L2094.7 47.2801 Z" fill="#000000" fill-rule="nonzero" fill-opacity="1" /><path clip-path="url(#clip610)" d="M2136.67 35.492 L2136.67 48.3739 L2152.02 48.3739 L2152.02 54.1667 L2136.67 54.1667 L2136.67 78.7962 Q2136.67 84.3459 2138.17 85.9258 Q2139.71 87.5056 2144.36 87.5056 L2152.02 87.5056 L2152.02 93.744 L2144.36 93.744 Q2135.74 93.744 2132.46 90.5438 Q2129.17 87.3031 2129.17 78.7962 L2129.17 54.1667 L2123.71 54.1667 L2123.71 48.3739 L2129.17 48.3739 L2129.17 35.492 L2136.67 35.492 Z" fill="#000000" fill-rule="nonzero" fill-opacity="1" /><path clip-path="url(#clip610)" d="M2200.63 69.1955 L2200.63 72.8413 L2166.36 72.8413 Q2166.85 80.5381 2170.98 84.589 Q2175.15 88.5994 2182.56 88.5994 Q2186.86 88.5994 2190.87 87.5461 Q2194.92 86.4929 2198.89 84.3864 L2198.89 91.435 Q2194.88 93.1364 2190.67 94.0276 Q2186.45 94.9188 2182.12 94.9188 Q2171.26 94.9188 2164.9 88.5994 Q2158.58 82.2799 2158.58 71.5045 Q2158.58 60.3645 2164.58 53.8426 Q2170.61 47.2801 2180.82 47.2801 Q2189.98 47.2801 2195.28 53.1944 Q2200.63 59.0683 2200.63 69.1955 M2193.18 67.008 Q2193.1 60.8912 2189.74 57.2454 Q2186.41 53.5995 2180.9 53.5995 Q2174.67 53.5995 2170.9 57.1238 Q2167.17 60.6481 2166.6 67.0485 L2193.18 67.008 Z" fill="#000000" fill-rule="nonzero" fill-opacity="1" /><path clip-path="url(#clip610)" d="M2242.72 55.2604 L2242.72 30.7119 L2250.17 30.7119 L2250.17 93.744 L2242.72 93.744 L2242.72 86.9385 Q2240.37 90.9894 2236.77 92.9743 Q2233.2 94.9188 2228.18 94.9188 Q2219.95 94.9188 2214.77 88.3563 Q2209.63 81.7938 2209.63 71.0994 Q2209.63 60.4051 2214.77 53.8426 Q2219.95 47.2801 2228.18 47.2801 Q2233.2 47.2801 2236.77 49.2651 Q2240.37 51.2095 2242.72 55.2604 M2217.32 71.0994 Q2217.32 79.3228 2220.68 84.0218 Q2224.09 88.6804 2230 88.6804 Q2235.92 88.6804 2239.32 84.0218 Q2242.72 79.3228 2242.72 71.0994 Q2242.72 62.8761 2239.32 58.2176 Q2235.92 53.5185 2230 53.5185 Q2224.09 53.5185 2220.68 58.2176 Q2217.32 62.8761 2217.32 71.0994 Z" fill="#000000" fill-rule="nonzero" fill-opacity="1" /><path clip-path="url(#clip610)" d="M839.771 140.431 L839.771 147.479 Q836.612 145.859 833.209 145.049 Q829.806 144.239 826.16 144.239 Q820.61 144.239 817.815 145.94 Q815.061 147.641 815.061 151.044 Q815.061 153.637 817.046 155.135 Q819.031 156.594 825.026 157.931 L827.578 158.498 Q835.518 160.199 838.84 163.318 Q842.202 166.397 842.202 171.947 Q842.202 178.266 837.179 181.952 Q832.196 185.639 823.446 185.639 Q819.8 185.639 815.83 184.91 Q811.901 184.221 807.526 182.803 L807.526 175.106 Q811.658 177.253 815.668 178.347 Q819.679 179.4 823.608 179.4 Q828.874 179.4 831.71 177.618 Q834.546 175.795 834.546 172.514 Q834.546 169.476 832.48 167.855 Q830.454 166.235 823.527 164.736 L820.935 164.128 Q814.007 162.67 810.929 159.672 Q807.85 156.634 807.85 151.368 Q807.85 144.968 812.387 141.484 Q816.924 138 825.269 138 Q829.401 138 833.047 138.608 Q836.693 139.215 839.771 140.431 Z" fill="#000000" fill-rule="nonzero" fill-opacity="1" /><path clip-path="url(#clip610)" d="M871.652 144.32 Q865.657 144.32 862.173 149.019 Q858.689 153.677 858.689 161.819 Q858.689 169.962 862.132 174.661 Q865.616 179.319 871.652 179.319 Q877.607 179.319 881.09 174.62 Q884.574 169.921 884.574 161.819 Q884.574 153.758 881.09 149.059 Q877.607 144.32 871.652 144.32 M871.652 138 Q881.374 138 886.924 144.32 Q892.473 150.639 892.473 161.819 Q892.473 172.959 886.924 179.319 Q881.374 185.639 871.652 185.639 Q861.889 185.639 856.339 179.319 Q850.83 172.959 850.83 161.819 Q850.83 150.639 856.339 144.32 Q861.889 138 871.652 138 Z" fill="#000000" fill-rule="nonzero" fill-opacity="1" /><path clip-path="url(#clip610)" d="M904.829 121.432 L912.282 121.432 L912.282 184.464 L904.829 184.464 L904.829 121.432 Z" fill="#000000" fill-rule="nonzero" fill-opacity="1" /><path clip-path="url(#clip610)" d="M927.109 166.559 L927.109 139.094 L934.562 139.094 L934.562 166.275 Q934.562 172.716 937.074 175.957 Q939.586 179.157 944.609 179.157 Q950.644 179.157 954.128 175.309 Q957.653 171.461 957.653 164.817 L957.653 139.094 L965.106 139.094 L965.106 184.464 L957.653 184.464 L957.653 177.496 Q954.938 181.628 951.333 183.654 Q947.768 185.639 943.029 185.639 Q935.211 185.639 931.16 180.778 Q927.109 175.917 927.109 166.559 M945.864 138 L945.864 138 Z" fill="#000000" fill-rule="nonzero" fill-opacity="1" /><path clip-path="url(#clip610)" d="M987.832 126.212 L987.832 139.094 L1003.18 139.094 L1003.18 144.887 L987.832 144.887 L987.832 169.516 Q987.832 175.066 989.331 176.646 Q990.87 178.226 995.529 178.226 L1003.18 178.226 L1003.18 184.464 L995.529 184.464 Q986.9 184.464 983.619 181.264 Q980.338 178.023 980.338 169.516 L980.338 144.887 L974.869 144.887 L974.869 139.094 L980.338 139.094 L980.338 126.212 L987.832 126.212 Z" fill="#000000" fill-rule="nonzero" fill-opacity="1" /><path clip-path="url(#clip610)" d="M1012.99 139.094 L1020.44 139.094 L1020.44 184.464 L1012.99 184.464 L1012.99 139.094 M1012.99 121.432 L1020.44 121.432 L1020.44 130.871 L1012.99 130.871 L1012.99 121.432 Z" fill="#000000" fill-rule="nonzero" fill-opacity="1" /><path clip-path="url(#clip610)" d="M1053.62 144.32 Q1047.62 144.32 1044.14 149.019 Q1040.66 153.677 1040.66 161.819 Q1040.66 169.962 1044.1 174.661 Q1047.58 179.319 1053.62 179.319 Q1059.57 179.319 1063.06 174.62 Q1066.54 169.921 1066.54 161.819 Q1066.54 153.758 1063.06 149.059 Q1059.57 144.32 1053.62 144.32 M1053.62 138 Q1063.34 138 1068.89 144.32 Q1074.44 150.639 1074.44 161.819 Q1074.44 172.959 1068.89 179.319 Q1063.34 185.639 1053.62 185.639 Q1043.86 185.639 1038.31 179.319 Q1032.8 172.959 1032.8 161.819 Q1032.8 150.639 1038.31 144.32 Q1043.86 138 1053.62 138 Z" fill="#000000" fill-rule="nonzero" fill-opacity="1" /><path clip-path="url(#clip610)" d="M1124.51 157.08 L1124.51 184.464 L1117.06 184.464 L1117.06 157.323 Q1117.06 150.882 1114.54 147.682 Q1112.03 144.482 1107.01 144.482 Q1100.97 144.482 1097.49 148.33 Q1094.01 152.178 1094.01 158.822 L1094.01 184.464 L1086.51 184.464 L1086.51 139.094 L1094.01 139.094 L1094.01 146.142 Q1096.68 142.051 1100.28 140.026 Q1103.93 138 1108.67 138 Q1116.49 138 1120.5 142.861 Q1124.51 147.682 1124.51 157.08 Z" fill="#000000" fill-rule="nonzero" fill-opacity="1" /><path clip-path="url(#clip610)" d="M1168.3 140.431 L1168.3 147.479 Q1165.14 145.859 1161.74 145.049 Q1158.33 144.239 1154.69 144.239 Q1149.14 144.239 1146.34 145.94 Q1143.59 147.641 1143.59 151.044 Q1143.59 153.637 1145.57 155.135 Q1147.56 156.594 1153.55 157.931 L1156.11 158.498 Q1164.05 160.199 1167.37 163.318 Q1170.73 166.397 1170.73 171.947 Q1170.73 178.266 1165.71 181.952 Q1160.72 185.639 1151.97 185.639 Q1148.33 185.639 1144.36 184.91 Q1140.43 184.221 1136.05 182.803 L1136.05 175.106 Q1140.19 177.253 1144.2 178.347 Q1148.21 179.4 1152.14 179.4 Q1157.4 179.4 1160.24 177.618 Q1163.07 175.795 1163.07 172.514 Q1163.07 169.476 1161.01 167.855 Q1158.98 166.235 1152.06 164.736 L1149.46 164.128 Q1142.54 162.67 1139.46 159.672 Q1136.38 156.634 1136.38 151.368 Q1136.38 144.968 1140.92 141.484 Q1145.45 138 1153.8 138 Q1157.93 138 1161.58 138.608 Q1165.22 139.215 1168.3 140.431 Z" fill="#000000" fill-rule="nonzero" fill-opacity="1" /><path clip-path="url(#clip610)" d="M1204.64 139.094 L1212.09 139.094 L1221.41 174.499 L1230.68 139.094 L1239.47 139.094 L1248.79 174.499 L1258.07 139.094 L1265.52 139.094 L1253.65 184.464 L1244.86 184.464 L1235.1 147.277 L1225.3 184.464 L1216.51 184.464 L1204.64 139.094 Z" fill="#000000" fill-rule="nonzero" fill-opacity="1" /><path clip-path="url(#clip610)" d="M1276.82 139.094 L1284.28 139.094 L1284.28 184.464 L1276.82 184.464 L1276.82 139.094 M1276.82 121.432 L1284.28 121.432 L1284.28 130.871 L1276.82 130.871 L1276.82 121.432 Z" fill="#000000" fill-rule="nonzero" fill-opacity="1" /><path clip-path="url(#clip610)" d="M1307.25 126.212 L1307.25 139.094 L1322.6 139.094 L1322.6 144.887 L1307.25 144.887 L1307.25 169.516 Q1307.25 175.066 1308.74 176.646 Q1310.28 178.226 1314.94 178.226 L1322.6 178.226 L1322.6 184.464 L1314.94 184.464 Q1306.31 184.464 1303.03 181.264 Q1299.75 178.023 1299.75 169.516 L1299.75 144.887 L1294.28 144.887 L1294.28 139.094 L1299.75 139.094 L1299.75 126.212 L1307.25 126.212 Z" fill="#000000" fill-rule="nonzero" fill-opacity="1" /><path clip-path="url(#clip610)" d="M1370.12 157.08 L1370.12 184.464 L1362.66 184.464 L1362.66 157.323 Q1362.66 150.882 1360.15 147.682 Q1357.64 144.482 1352.62 144.482 Q1346.58 144.482 1343.1 148.33 Q1339.61 152.178 1339.61 158.822 L1339.61 184.464 L1332.12 184.464 L1332.12 121.432 L1339.61 121.432 L1339.61 146.142 Q1342.29 142.051 1345.89 140.026 Q1349.54 138 1354.28 138 Q1362.09 138 1366.11 142.861 Q1370.12 147.682 1370.12 157.08 Z" fill="#000000" fill-rule="nonzero" fill-opacity="1" /><path clip-path="url(#clip610)" d="M1406.01 139.094 L1413.91 139.094 L1428.08 177.172 L1442.26 139.094 L1450.16 139.094 L1433.15 184.464 L1423.02 184.464 L1406.01 139.094 Z" fill="#000000" fill-rule="nonzero" fill-opacity="1" /><path clip-path="url(#clip610)" d="M1481.07 161.657 Q1472.04 161.657 1468.55 163.723 Q1465.07 165.789 1465.07 170.772 Q1465.07 174.742 1467.66 177.091 Q1470.29 179.4 1474.79 179.4 Q1480.99 179.4 1484.72 175.025 Q1488.48 170.61 1488.48 163.318 L1488.48 161.657 L1481.07 161.657 M1495.94 158.579 L1495.94 184.464 L1488.48 184.464 L1488.48 177.577 Q1485.93 181.709 1482.12 183.694 Q1478.32 185.639 1472.81 185.639 Q1465.84 185.639 1461.71 181.75 Q1457.62 177.821 1457.62 171.258 Q1457.62 163.602 1462.72 159.713 Q1467.86 155.824 1478.03 155.824 L1488.48 155.824 L1488.48 155.095 Q1488.48 149.95 1485.08 147.155 Q1481.72 144.32 1475.6 144.32 Q1471.71 144.32 1468.03 145.251 Q1464.34 146.183 1460.94 148.046 L1460.94 141.16 Q1465.03 139.58 1468.88 138.81 Q1472.73 138 1476.37 138 Q1486.21 138 1491.08 143.104 Q1495.94 148.208 1495.94 158.579 Z" fill="#000000" fill-rule="nonzero" fill-opacity="1" /><path clip-path="url(#clip610)" d="M1537.58 146.061 Q1536.32 145.332 1534.83 145.008 Q1533.37 144.644 1531.58 144.644 Q1525.27 144.644 1521.86 148.776 Q1518.5 152.867 1518.5 160.564 L1518.5 184.464 L1511.01 184.464 L1511.01 139.094 L1518.5 139.094 L1518.5 146.142 Q1520.85 142.011 1524.62 140.026 Q1528.38 138 1533.77 138 Q1534.54 138 1535.47 138.122 Q1536.41 138.203 1537.54 138.405 L1537.58 146.061 Z" fill="#000000" fill-rule="nonzero" fill-opacity="1" /><path clip-path="url(#clip610)" d="M1564.28 188.677 Q1561.12 196.779 1558.12 199.25 Q1555.12 201.721 1550.1 201.721 L1544.14 201.721 L1544.14 195.482 L1548.52 195.482 Q1551.6 195.482 1553.3 194.024 Q1555 192.566 1557.06 187.138 L1558.4 183.735 L1540.05 139.094 L1547.95 139.094 L1562.13 174.58 L1576.31 139.094 L1584.21 139.094 L1564.28 188.677 Z" fill="#000000" fill-rule="nonzero" fill-opacity="1" /><path clip-path="url(#clip610)" d="M1594.5 139.094 L1601.95 139.094 L1601.95 184.464 L1594.5 184.464 L1594.5 139.094 M1594.5 121.432 L1601.95 121.432 L1601.95 130.871 L1594.5 130.871 L1594.5 121.432 Z" fill="#000000" fill-rule="nonzero" fill-opacity="1" /><path clip-path="url(#clip610)" d="M1655.26 157.08 L1655.26 184.464 L1647.81 184.464 L1647.81 157.323 Q1647.81 150.882 1645.29 147.682 Q1642.78 144.482 1637.76 144.482 Q1631.72 144.482 1628.24 148.33 Q1624.76 152.178 1624.76 158.822 L1624.76 184.464 L1617.26 184.464 L1617.26 139.094 L1624.76 139.094 L1624.76 146.142 Q1627.43 142.051 1631.03 140.026 Q1634.68 138 1639.42 138 Q1647.24 138 1651.25 142.861 Q1655.26 147.682 1655.26 157.08 Z" fill="#000000" fill-rule="nonzero" fill-opacity="1" /><path clip-path="url(#clip610)" d="M1699.98 161.252 Q1699.98 153.151 1696.62 148.695 Q1693.3 144.239 1687.26 144.239 Q1681.27 144.239 1677.9 148.695 Q1674.58 153.151 1674.58 161.252 Q1674.58 169.314 1677.9 173.77 Q1681.27 178.226 1687.26 178.226 Q1693.3 178.226 1696.62 173.77 Q1699.98 169.314 1699.98 161.252 M1707.43 178.833 Q1707.43 190.419 1702.29 196.05 Q1697.15 201.721 1686.53 201.721 Q1682.6 201.721 1679.12 201.113 Q1675.63 200.546 1672.35 199.331 L1672.35 192.08 Q1675.63 193.862 1678.84 194.713 Q1682.04 195.563 1685.36 195.563 Q1692.69 195.563 1696.33 191.715 Q1699.98 187.907 1699.98 180.17 L1699.98 176.484 Q1697.67 180.494 1694.07 182.479 Q1690.46 184.464 1685.44 184.464 Q1677.09 184.464 1671.99 178.104 Q1666.88 171.744 1666.88 161.252 Q1666.88 150.72 1671.99 144.36 Q1677.09 138 1685.44 138 Q1690.46 138 1694.07 139.985 Q1697.67 141.97 1699.98 145.98 L1699.98 139.094 L1707.43 139.094 L1707.43 178.833 Z" fill="#000000" fill-rule="nonzero" fill-opacity="1" /><path clip-path="url(#clip610)" d="M1749.48 123.984 L1760.5 123.984 L1787.32 174.58 L1787.32 123.984 L1795.26 123.984 L1795.26 184.464 L1784.24 184.464 L1757.42 133.868 L1757.42 184.464 L1749.48 184.464 L1749.48 123.984 Z" fill="#000000" fill-rule="nonzero" fill-opacity="1" /><polyline clip-path="url(#clip612)" style="stroke:#009af9; stroke-linecap:round; stroke-linejoin:round; stroke-width:4; stroke-opacity:1; fill:none" points="309.539,219.025 750.363,365.687 1191.19,1388.11 1632.01,1388.11 2293.24,1388.11 "/>
<path clip-path="url(#clip610)" d="M2019.96 328.94 L2282.66 328.94 L2282.66 225.26 L2019.96 225.26  Z" fill="#ffffff" fill-rule="evenodd" fill-opacity="1"/>
<polyline clip-path="url(#clip610)" style="stroke:#000000; stroke-linecap:round; stroke-linejoin:round; stroke-width:4; stroke-opacity:1; fill:none" points="2019.96,328.94 2282.66,328.94 2282.66,225.26 2019.96,225.26 2019.96,328.94 "/>
<polyline clip-path="url(#clip610)" style="stroke:#009af9; stroke-linecap:round; stroke-linejoin:round; stroke-width:4; stroke-opacity:1; fill:none" points="2043.33,277.1 2183.51,277.1 "/>
<path clip-path="url(#clip610)" d="M2220.71 296.787 Q2218.91 301.417 2217.2 302.829 Q2215.48 304.241 2212.61 304.241 L2209.21 304.241 L2209.21 300.676 L2211.71 300.676 Q2213.47 300.676 2214.44 299.843 Q2215.41 299.009 2216.59 295.907 L2217.36 293.963 L2206.87 268.454 L2211.38 268.454 L2219.49 288.732 L2227.59 268.454 L2232.1 268.454 L2220.71 296.787 Z" fill="#000000" fill-rule="nonzero" fill-opacity="1" /><path clip-path="url(#clip610)" d="M2239.39 290.445 L2247.03 290.445 L2247.03 264.079 L2238.72 265.746 L2238.72 261.486 L2246.99 259.82 L2251.66 259.82 L2251.66 290.445 L2259.3 290.445 L2259.3 294.38 L2239.39 294.38 L2239.39 290.445 Z" fill="#000000" fill-rule="nonzero" fill-opacity="1" /></svg>
